<svg width="229" height="229" version="1.1" xmlns="http://www.w3.org/2000/svg" desc="Created with imagetracer.js version 1.2.6" ><path fill="rgb(223,176,177)" stroke="rgb(223,176,177)" stroke-width="1" opacity="1" d="M 80 9 L 84 9.5 L 81 10 Q 79.8 13 83.5 12 L 83.5 13 Q 79.8 11.8 81 15.5 L 80 15.5 L 79 11.5 L 80 9 Z " /><path fill="rgb(223,176,177)" stroke="rgb(223,176,177)" stroke-width="1" opacity="1" d="M 106.5 9 L 107.5 14 L 108 11 Q 114.4 8.9 112 16 L 107.5 15 L 106 15.5 L 106.5 9 Z " /><path fill="rgb(223,176,177)" stroke="rgb(223,176,177)" stroke-width="1" opacity="1" d="M 115 9 L 117 9 Q 115.7 13.1 119 12 Q 117.7 7.9 121 9 L 121.5 12 L 124.5 11 L 126.5 12 L 129.5 11 L 131.5 14 L 134 12.5 L 132 11.5 L 134.5 11 Q 135.8 13.3 137 10.5 L 137.5 9 L 138 11 L 140 11 L 140 16 Q 135.5 17.8 137 12.5 L 136 12.5 Q 137.8 17.8 132.5 16 L 130.5 15 L 128 16 L 127.5 18 L 125.5 15 L 122 16 L 121.5 14 L 121 16 L 119 16 Q 120.3 11.9 117 13 Q 118.3 17.1 115 16 L 115 9 Z M 128 12 Q 127 16 130 15 Q 131 11 128 12 Z M 139 12 L 138 15 L 139 15 L 139 12 Z " /><path fill="rgb(223,176,177)" stroke="rgb(223,176,177)" stroke-width="1" opacity="1" d="M 141.5 9 L 142.5 12 L 144.5 11 L 146.5 11 L 150 12.5 Q 151.8 17.8 146.5 16 L 142 14.5 L 141.5 16 L 141.5 9 Z M 145 12 Q 143 15 146 14 L 145 12 Z " /><path fill="rgb(223,176,177)" stroke="rgb(223,176,177)" stroke-width="1" opacity="1" d="M 85 11 Q 91.4 8.9 89 16 Q 85.2 17 84 14.5 L 85 11 Z " /><path fill="rgb(223,176,177)" stroke="rgb(223,176,177)" stroke-width="1" opacity="1" d="M 90 11 L 93 11.5 L 91 12.5 L 93.5 14 L 95.5 11 Q 98.8 9.9 98 12.5 L 96.5 12 Q 93.5 11.3 95 15 L 97.5 14 L 98 16 L 93.5 15 L 90 16 L 90 11 Z " /><path fill="rgb(223,176,177)" stroke="rgb(223,176,177)" stroke-width="1" opacity="1" d="M 99.5 11 L 100.5 13 L 101 11 Q 106.6 8.8 105 14.5 L 101 16 L 100.5 14 L 99.5 16 L 99.5 11 Z M 102 12 Q 101 16 104 15 Q 105 11 102 12 Z " /><path fill="rgb(223,176,177)" stroke="rgb(223,176,177)" stroke-width="1" opacity="1" d="M 43.5 46 L 47 48.5 L 47.5 51 L 50 49.5 L 48 48.5 L 53.5 47 L 54.5 49 L 57.5 48 L 63 48.5 L 61 49 L 60.5 52 L 58.5 52 L 54.5 50 L 54 52 L 49.5 51 L 47.5 52 L 45.5 51 L 42 52 L 43 49.5 L 42 47.5 L 43.5 46 Z M 51 49 L 51 51 L 53 50 L 51 49 Z " /><path fill="rgb(223,176,177)" stroke="rgb(223,176,177)" stroke-width="1" opacity="1" d="M 142.5 48 L 144.5 51 L 146.5 48 L 147 53.5 L 144 53.5 L 143.5 51 L 142.5 53 L 142.5 48 Z " /><path fill="rgb(223,176,177)" stroke="rgb(223,176,177)" stroke-width="1" opacity="1" d="M 157.5 48 L 158 50 Q 161.3 48.7 160 53.5 L 159 53.5 L 158.5 51 L 158 54 L 154.5 53 L 152 54 L 151.5 52 Q 149.8 55.8 148 52.5 L 148.5 50 L 149.5 53 L 150 50 L 154 52 L 155.5 49 L 156.5 53 L 157.5 48 Z " /><path fill="rgb(223,176,177)" stroke="rgb(223,176,177)" stroke-width="1" opacity="1" d="M 110.5 49 L 115 49.5 L 114.5 51 L 116.5 50 L 118.5 52 L 140 52.5 L 119 53.5 L 126.5 68 L 128.5 68 L 135 73.5 L 135.5 75 L 151.5 75 L 151.5 76 L 137.5 76 L 137 77.5 L 146 92.5 L 147 120.5 L 146 124 L 157 124.5 L 145 125 L 142 143.5 L 138 153.5 L 113 196.5 L 156 197.5 L 108.5 198 L 100 187.5 L 98 183.5 L 97 175.5 L 91 167.5 L 84 153.5 L 83 143.5 L 81 138.5 L 81 130.5 L 79 127.5 L 79 116.5 L 77 108.5 L 77 101.5 L 84 83.5 L 98 66.5 L 65 65.5 L 100 65 Q 101.5 56.6 107 51.5 L 65 50.5 L 109.5 50 L 110.5 49 Z M 119 56 L 118 59 L 119 59 L 119 56 Z M 112 63 L 110 66 L 113 67 L 114 65 L 112 63 Z M 112 75 L 111 78 L 111 79 L 113 78 Q 115 79 114 76 L 112 75 Z M 118 112 L 116 116 L 114 117 L 112 117 Q 108 116 109 120 L 109 121 L 120 116 L 118 115 L 118 112 Z M 98 115 Q 96 118 100 117 L 102 117 Q 103 114 100 115 L 98 115 Z M 101 117 L 99 119 L 101 119 L 101 117 Z M 121 117 L 121 119 L 120 118 L 116 120 L 117 123 L 116 126 Q 118 124 120 127 Q 119 120 123 119 Q 124 116 121 117 Z M 103 122 Q 100 124 103 125 Q 106 124 103 122 Z M 107 122 L 108 124 Q 109 121 107 122 Z M 93 123 Q 91 128 93 131 L 95 131 Q 92 128 93 123 Z M 106 123 L 103 126 L 102 125 L 99 130 L 101 130 L 102 132 L 105 130 Q 106 127 108 129 L 106 123 Z M 124 123 Q 124 127 126 124 L 124 123 Z M 114 125 Q 111 127 114 128 L 116 127 L 114 125 Z M 129 128 L 129 131 L 131 130 Q 132 127 129 128 Z M 107 129 L 106 131 L 109 132 Q 107 133 108 138 L 108 140 L 107 140 L 105 143 Q 107 146 108 143 Q 107 140 115 141 Q 117 142 115 144 L 120 145 L 120 142 L 116 139 L 113 140 Q 110 139 112 138 Q 113 133 111 132 Q 112 129 110 130 L 107 129 Z M 122 129 L 120 130 L 120 132 L 119 131 L 118 135 L 122 133 Q 125 134 124 131 L 122 129 Z M 92 135 L 92 137 L 94 136 L 92 135 Z M 99 138 L 96 140 L 100 140 L 99 138 Z M 98 141 L 96 143 Q 95 146 98 145 L 98 143 L 98 141 Z M 106 148 L 107 150 Q 108 147 106 148 Z M 109 151 L 108 153 L 110 152 L 113 154 L 113 152 L 112 152 L 109 151 Z " /><path fill="rgb(223,176,177)" stroke="rgb(223,176,177)" stroke-width="1" opacity="1" d="M 156.5 60 Q 159.8 58.9 159 61.5 L 157.5 61 Q 154.9 60.2 156 63.5 L 157.5 63 Q 159.8 62.3 159 64.5 Q 157.8 67.3 156.5 65 Q 153.5 65.9 155 61.5 L 156.5 60 Z " /><path fill="rgb(223,176,177)" stroke="rgb(223,176,177)" stroke-width="1" opacity="1" d="M 174.5 60 L 175 64.5 L 173 65.5 L 172.5 64 L 171.5 66 L 169 65.5 L 169.5 61 L 170.5 64 L 172.5 61 L 174 61.5 L 174.5 60 Z " /><path fill="rgb(223,176,177)" stroke="rgb(223,176,177)" stroke-width="1" opacity="1" d="M 161.5 61 L 163 64.5 Q 161.5 67.5 160 64.5 L 161.5 61 Z " /><path fill="rgb(223,176,177)" stroke="rgb(223,176,177)" stroke-width="1" opacity="1" d="M 179.5 61 L 186.5 63 L 188 62.5 L 186.5 66 L 184.5 65 L 182 65.5 L 181.5 67 L 180.5 65 Q 179.3 67.3 178 64.5 L 179.5 61 Z M 180 62 L 179 65 L 180 65 L 180 62 Z " /><path fill="rgb(223,176,177)" stroke="rgb(223,176,177)" stroke-width="1" opacity="1" d="M 51.5 62 L 53.5 65 L 59 64.5 L 57.5 68 L 55.5 67 L 53.5 68 L 51 67 Q 52 64 49 65 L 48.5 67 L 48 63.5 L 49.5 64 Q 52 64.7 51.5 62 Z " /><path fill="rgb(223,176,177)" stroke="rgb(223,176,177)" stroke-width="1" opacity="1" d="M 62.5 62 L 63 66.5 Q 61.5 69.5 60 66.5 L 60.5 64 L 61.5 67 L 62.5 62 Z " /><path fill="rgb(223,176,177)" stroke="rgb(223,176,177)" stroke-width="1" opacity="1" d="M 164 62 Q 169.6 59.8 168 65.5 L 166 64.5 L 165.5 63 L 164.5 65 L 164 62 Z " /><path fill="rgb(223,176,177)" stroke="rgb(223,176,177)" stroke-width="1" opacity="1" d="M 189.5 62 L 190 64.5 L 189 64.5 L 189.5 62 Z " /><path fill="rgb(223,176,177)" stroke="rgb(223,176,177)" stroke-width="1" opacity="1" d="M 191.5 62 L 192 65.5 L 191 65.5 L 191.5 62 Z " /><path fill="rgb(223,176,177)" stroke="rgb(223,176,177)" stroke-width="1" opacity="1" d="M 193 62 Q 198.2 59.9 197 64.5 L 196 64.5 L 195.5 63 L 194.5 66 L 193 62 Z " /><path fill="rgb(223,176,177)" stroke="rgb(223,176,177)" stroke-width="1" opacity="1" d="M 198.5 62 L 199.5 66 L 200.5 62 L 201 65.5 L 198 67 L 198.5 62 Z " /><path fill="rgb(223,176,177)" stroke="rgb(223,176,177)" stroke-width="1" opacity="1" d="M 154.5 73 Q 157.1 72.2 156 75.5 L 157 75.5 L 158.5 73 Q 160 75.5 165.5 74 L 167.5 74 Q 172.3 72.8 173.5 75 L 174.5 73 L 175 77.5 L 172.5 78 Q 169.2 79.1 170 76.5 L 170.5 75 L 169 75 Q 170.5 78.8 167.5 78 L 165 77.5 L 164.5 75 L 163 78 L 157.5 77 L 156 77.5 L 154.5 73 Z " /><path fill="rgb(223,176,177)" stroke="rgb(223,176,177)" stroke-width="1" opacity="1" d="M 188.5 73 L 194 74 Q 195.1 76.7 192.5 76 L 192.5 77 L 194 77.5 L 192.5 78 L 186.5 78 L 184.5 77 L 181 78 L 181.5 74 L 182.5 77 L 183.5 74 L 185.5 74 L 187 74.5 L 185 75 Q 183.9 77.7 186.5 77 L 188.5 73 Z " /><path fill="rgb(223,176,177)" stroke="rgb(223,176,177)" stroke-width="1" opacity="1" d="M 177 74 L 180 74.5 L 180 76.5 Q 180.8 78.8 178.5 78 L 177 74 Z " /><path fill="rgb(223,176,177)" stroke="rgb(223,176,177)" stroke-width="1" opacity="1" d="M 195 74 L 197 74.5 L 195.5 78 L 195 74 Z " /><path fill="rgb(223,176,177)" stroke="rgb(223,176,177)" stroke-width="1" opacity="1" d="M 158 122 Q 164.4 119.9 162 127 Q 155.6 129.1 158 122 Z " /><path fill="rgb(223,176,177)" stroke="rgb(223,176,177)" stroke-width="1" opacity="1" d="M 169.5 122 L 171.5 125 L 172.5 123 L 173 125.5 L 172 128 L 165.5 126 L 163 127 L 163.5 125 L 165 125.5 Q 165.8 123.3 163.5 124 L 163.5 123 L 166.5 124 L 169.5 122 Z M 167 124 L 167 126 L 169 125 L 167 124 Z " /><path fill="rgb(223,176,177)" stroke="rgb(223,176,177)" stroke-width="1" opacity="1" d="M 5.5 174 L 7 176.5 L 6.5 179 L 5 179.5 L 7 180 L 6 182.5 L 7 185.5 L 5 185.5 Q 4.3 187.8 6.5 187 L 6 190.5 L 7 194.5 L 7 196.5 Q 7.7 199.5 4 198 L 3 192.5 L 5 188.5 L 4.5 187 L 3 187.5 Q 1.3 181.3 4 179.5 L 4 177.5 L 3 175.5 L 5.5 174 Z M 4 183 L 4 185 L 6 184 L 4 183 Z " /><path fill="rgb(223,176,177)" stroke="rgb(223,176,177)" stroke-width="1" opacity="1" d="M 159 195 Q 163.3 194 164.5 197 L 167.5 196 L 170.5 197 L 173.5 196 L 175 197.5 Q 176.1 201.7 172 200 L 171.5 197 L 171 200 L 166.5 199 L 163.5 200 L 159 200 L 159 195 Z M 161 196 L 162 198 L 160 199 L 164 199 L 163 198 Q 164 195 161 196 Z M 169 197 L 167 199 L 170 199 L 169 197 Z " /><path fill="rgb(223,176,177)" stroke="rgb(223,176,177)" stroke-width="1" opacity="1" d="M 176.5 195 L 177 199.5 L 176 199.5 L 176.5 195 Z " /><path fill="rgb(223,176,177)" stroke="rgb(223,176,177)" stroke-width="1" opacity="1" d="M 178 196 L 181.5 197 L 183.5 196 L 185.5 197 L 187 196.5 L 184.5 202 L 184 198 Q 181 197 182 200 L 178.5 200 L 178.5 199 Q 180.8 199.8 180 197.5 L 178 197.5 L 178 196 Z " /><path fill="rgb(223,176,177)" stroke="rgb(223,176,177)" stroke-width="1" opacity="1" d="M 189 196 L 192.5 198 L 193 196 L 196.5 197 L 199.5 196 L 202 197.5 Q 203.2 202.1 198 200 L 197.5 198 L 197 200 L 192.5 199 L 190 200 L 189.5 202 L 189 196 Z M 195 197 L 193 199 L 195 199 L 195 197 Z " /><path fill="rgb(223,176,177)" stroke="rgb(223,176,177)" stroke-width="1" opacity="1" d="M 3.5 199 L 8 199.5 L 3.5 200 L 3.5 199 Z " /><path fill="rgb(223,176,177)" stroke="rgb(223,176,177)" stroke-width="1" opacity="1" d="M 4.5 201 L 7 201.5 L 6 205.5 L 7 209 L 5 209.5 L 7 210 L 6.5 212 L 3 210.5 L 5 205.5 L 3 202.5 L 4.5 201 Z " /><path fill="rgb(223,176,177)" stroke="rgb(223,176,177)" stroke-width="1" opacity="1" d="M 4 213 Q 7.8 211.5 7 214.5 L 7 216.5 Q 8.3 221.2 6 222.5 L 7 225.5 L 5.5 225 L 3 224.5 L 5 222.5 Q 1.5 221 4 219.5 L 3 217.5 Q 6.5 216 4 214.5 L 4 213 Z " /><path fill="rgb(254,254,254)" stroke="rgb(254,254,254)" stroke-width="1" opacity="1" d="M 0 0 L 16 0 L 16 6 Q 12.3 4.8 14 10 L 10 10 L 10 16 L 5 16 L 5 10 Q 1.3 11.2 3 6 L 0 6 L 0 0 Z " /><path fill="rgb(254,254,254)" stroke="rgb(254,254,254)" stroke-width="1" opacity="1" d="M 158 0 L 176 0 L 176 8 L 168 8 L 168 16 L 160 16 L 160 32 L 146 32 L 144 36 L 140 36 L 140 38 L 138 38 L 138 40 L 136 40 L 134 44 L 132 44 L 132 48 Q 138 46 136 52 L 119.5 52 L 116.5 50 L 116.5 52 L 114 50.5 L 114.5 48 Q 118.9 46.5 118 49.5 L 119 49.5 L 119 40.5 L 120.5 40 L 126 39 Q 124.7 34.9 128 36 L 128 32 L 130 32 L 130 29 L 135 29 Q 134 26 137 27 L 137 22 Q 133.3 23.2 135 18 L 129 18 Q 130.3 21 126.5 20 L 125.5 19 L 123 20.5 Q 122.3 18.3 124.5 19 L 124 17.5 L 125 15.5 L 123 14.5 L 124.5 14 L 127.5 18 L 128 16 L 130 15.5 L 128 12 Q 131.3 13.3 130 8.5 L 131 8.5 L 132 10.5 L 131.5 12 L 134 12.5 L 132 13.5 L 134 14.5 L 132 15.5 L 140 16 L 140.5 14 L 141 16 L 143.5 15 Q 144.8 17.3 146 14.5 L 144 14 L 145 10.5 L 143.5 11 L 142 10.5 L 144 10 L 144.5 8 L 149 8.5 L 149.5 10 L 151 9.5 L 150 11.5 L 151.5 11 Q 156.3 12.7 155 8.5 L 158 7 L 158 0 Z M 149 10 L 146 12 L 148 13 L 146 14 L 148 15 L 147 15 L 147 16 Q 151 17 152 15 L 152 12 L 151 14 L 149 10 Z M 131 12 L 130 15 L 132 15 L 131 12 Z " /><path fill="rgb(254,254,254)" stroke="rgb(254,254,254)" stroke-width="1" opacity="1" d="M 199 0 L 210 0 L 210 8 Q 206.9 7.3 207.5 10 L 200 10 Q 198 6.9 199 0 Z " /><path fill="rgb(254,254,254)" stroke="rgb(254,254,254)" stroke-width="1" opacity="1" d="M 80.5 3 L 92 4 L 92.5 9 L 94.5 8 L 97 9.5 Q 96.3 7.3 98.5 8 L 98.5 10 Q 101.8 11.1 101 8.5 L 102 8.5 L 102.5 10 L 106 8 L 105.5 12 L 105 10 L 101 11 L 100.5 13 L 99.5 11 L 98 11.5 L 97.5 10 Q 96 12.5 94.5 9 L 89.5 12 L 87 11 Q 88.5 7.3 85.5 8 L 86 9.5 L 84.5 13 L 81 10.5 L 83.5 10 L 85 9.5 L 81.5 8 L 79 11.5 L 80 16 L 82 15.5 L 81 13.5 L 82.5 14 Q 85.1 17.4 92.5 16 L 92.5 13 L 91 12.5 L 94.5 11 L 95.5 13 L 94 12.5 L 93 14.5 Q 93.8 16.8 97.5 16 L 100 15.5 L 100.5 14 L 101 16 L 104 15.5 L 102 12.5 L 104 13.5 L 105.5 16 L 107.5 15 L 109.5 17 L 112.5 16 L 118 16.5 L 112 19.5 L 116 20 L 116 26 L 110 26 Q 111.2 29.7 106 28 L 106 32 Q 103 31 104 34 L 98 34 Q 99 31 96 32 L 96 48 L 106.5 48 L 110 49.5 L 107.5 50 L 104.5 49 L 82 48.5 L 88 48 L 88 32.5 L 88.5 32 L 94 32 L 94 28 L 80 28 L 80 24 Q 74.4 26.2 76 20.5 L 75 16.5 L 78 4 L 80.5 3 Z M 103 18 Q 103 22 98 20 L 98 22 Q 95 23 96 20 L 81 20 L 80 24 L 98 24 L 99 25 L 101 24 L 104 23 L 103 18 Z " /><path fill="rgb(254,254,254)" stroke="rgb(254,254,254)" stroke-width="1" opacity="1" d="M 108.5 8 L 114.5 9 L 116.5 8 L 118.5 9 L 121.5 8 L 123.5 8 L 129 8.5 L 123 9.5 L 129 10.5 L 123.5 13 L 123.5 12 L 125 11.5 L 121 11 Q 122 8 119 9 Q 120.3 13.1 117 12 Q 118.3 7.9 115 9 L 115 15 L 112 15 L 113 10.5 L 111.5 10 L 109.5 10 L 107 9.5 L 108.5 8 Z M 114 11 L 113 14 L 114 14 L 114 11 Z " /><path fill="rgb(254,254,254)" stroke="rgb(254,254,254)" stroke-width="1" opacity="1" d="M 133 8 L 135.5 9 L 137 8.5 L 135.5 12 L 134.5 10 L 133 10.5 L 133 8 Z " /><path fill="rgb(254,254,254)" stroke="rgb(254,254,254)" stroke-width="1" opacity="1" d="M 138.5 8 L 141 8.5 L 138.5 9 L 138.5 8 Z " /><path fill="rgb(254,254,254)" stroke="rgb(254,254,254)" stroke-width="1" opacity="1" d="M 139.5 10 Q 142.1 9.2 141 12.5 L 140 12.5 L 139.5 10 Z " /><path fill="rgb(254,254,254)" stroke="rgb(254,254,254)" stroke-width="1" opacity="1" d="M 97.5 13 L 99 13.5 L 95.5 15 L 95.5 14 L 97.5 13 Z " /><path fill="rgb(254,254,254)" stroke="rgb(254,254,254)" stroke-width="1" opacity="1" d="M 117 13 Q 120 12 119 15 Q 116 16 117 13 Z " /><path fill="rgb(254,254,254)" stroke="rgb(254,254,254)" stroke-width="1" opacity="1" d="M 32 14 L 38 14 Q 37 17 40 16 L 40 20 L 44 20 L 44 28 L 36.5 28 Q 37.1 25.3 34 26 L 34 30 L 32 30 L 30 34 L 26 34 L 26 39.5 Q 23.3 38.9 24 42 L 16 42 Q 16.8 38.9 14 39.5 L 14 32 Q 17.7 33.2 16 28 L 18.5 28 L 20 25 L 23 25 Q 22 22 25 23 L 25 20 L 26.5 20 L 28 16 Q 33.2 17.7 32 14 Z " /><path fill="rgb(254,254,254)" stroke="rgb(254,254,254)" stroke-width="1" opacity="1" d="M 183 14 L 189.5 14 Q 188.9 16.8 192 16 L 192 24 L 188 26 L 188 31.5 Q 185.3 30.9 186 34 L 179 34 Q 180.1 30.7 176 32 Q 175 36.3 178 35.5 L 178 42 Q 174.9 41.3 175.5 44 L 160 44 L 160 40 L 167 40 L 167 36.5 Q 169.8 35.4 169 32 L 176 32 L 176 24 L 178.5 24 L 180 22.5 L 180 16 Q 184.1 17.3 183 14 Z " /><path fill="rgb(254,254,254)" stroke="rgb(254,254,254)" stroke-width="1" opacity="1" d="M 16 16 Q 22 14 20 20 Q 14 22 16 16 Z " /><path fill="rgb(254,254,254)" stroke="rgb(254,254,254)" stroke-width="1" opacity="1" d="M 64.5 23 Q 69.9 22.4 72 24 Q 73 27 70 26 L 70 29.5 L 68 34 Q 64.3 32.8 66 38 L 64 38 L 64 40 L 60 42 L 60 48 L 57.5 48 L 56 48.5 L 55.5 46 Q 53.3 48.8 48 48.5 L 50 49.5 L 47.5 51 L 47 48.5 L 48 46.5 L 46.5 47 L 43.5 48 L 42.5 45 L 42 47 L 40 46.5 L 40.5 44 L 46 44 L 46 40 L 47.5 40 L 52 39 L 51 32.5 L 52 30 Q 55 29 54 32 L 57 32 L 57.5 30 L 58.5 33 Q 57.9 28.4 60.5 27 L 62 27 Q 60.5 23.3 63.5 24 L 64.5 23 Z M 54 44 L 53 46 L 56 45 L 54 44 Z " /><path fill="rgb(254,254,254)" stroke="rgb(254,254,254)" stroke-width="1" opacity="1" d="M 210 30 L 216 30 L 216.5 32 L 224 32 L 224 40 L 216 40 L 216 48 L 210.5 48 Q 211.1 50.7 208 50 Q 209 47 206 48 L 206 50 L 204 50 L 204 52 Q 201.3 50.9 202 53.5 L 201 55.5 L 203 60.5 L 201.5 61 L 199.5 60 L 200 61.5 L 199.5 63 L 198 62.5 Q 199.7 67.3 195.5 66 L 195.5 65 Q 198.5 65.8 197 62 L 194 61.5 L 194.5 60 Q 191.9 59.2 193 62.5 L 192 62.5 L 191.5 61 L 190.5 64 L 189.5 62 L 189 65 L 191.5 66 L 192.5 64 L 195.5 68 L 198.5 67 L 200 66.5 L 199 64.5 L 200 64.5 L 200.5 66 L 201 64 L 204 65.5 L 204 67.5 L 203.5 69 L 202.5 67 L 200 68 L 200 72 L 201.5 72 L 204 73 L 204 80 L 200 80 Q 201.3 83 197.5 82 L 193.5 80 Q 189.8 81.3 191 77.5 L 194 76 L 195 68 Q 189.6 66.5 188 69.5 L 188 72 Q 190.7 70.9 190 73.5 L 187.5 74 L 185.5 73 L 184.5 75 L 183 74.5 L 182.5 77 L 182 72 L 180 72.5 L 181 78 L 183.5 78 L 187.5 75 L 186.5 77 Q 183.5 76.2 185 80 L 182.5 80 L 180.5 80 L 178.5 79 L 177 79.5 L 177.5 78 L 176 78.5 L 176 96 L 180 96 Q 177.9 101.2 182.5 100 L 184 96 Q 188.3 97 187.5 94 L 192 94 Q 191.3 97.1 194 96.5 L 194 102 L 192 102 L 192 104 L 190 104 L 188 108 Q 194 106 192 112 L 188 112 Q 189.7 106.8 186 108 L 186 110 L 184 110 L 182 114 L 178 114 L 178 119.5 L 176.5 120 L 176.5 122 L 171.5 120 L 170.5 123 L 168.5 123 L 167 123.5 L 169 124.5 L 167 125.5 L 165.5 123 Q 162.5 123.7 164 120 Q 168.5 121.8 167 116.5 L 171 115 L 172 110 L 176 108 L 176 104 L 178.5 104 L 180 100 L 176 100 L 175.5 96 L 156 96 L 156 92.5 L 155 88 L 147.5 88 L 146 89.5 L 148 90.5 L 145.5 91 L 143 87.5 L 143.5 86 Q 141.3 86.8 142 84.5 L 137 76.5 L 138.5 77 L 142.5 78 L 142.5 76 L 144.5 77 L 151 76 L 152.5 82 L 154 76 L 151.5 75 L 135 75 L 131.5 70 L 127.5 67 Q 126.2 69.3 125 66.5 L 125.5 65 Q 123.3 65.8 124 63.5 L 123.5 61 L 122 60.5 Q 124.2 59.3 121.5 58 L 120 58.5 L 121 56.5 L 119 53.5 L 140 53 Q 138.9 50.3 141.5 51 L 141.5 53 Q 143.8 53.8 143 51.5 L 144 49.5 L 142 48.5 Q 142.8 50.8 140.5 50 L 140 47.5 L 141.5 44 Q 145.7 42.7 144 47.5 Q 148 49.5 144 51.5 L 142.5 56 L 141.5 54 L 139.5 54 L 125.5 54 L 124 55.5 L 128 56 L 128 64 L 141 64 Q 139.3 59.9 143.5 61 L 146 60 Q 147.5 56.2 144.5 57 L 144.5 56 L 149 55.5 L 147 54.5 L 147 52.5 L 147.5 51 L 148.5 53 L 150 52.5 L 149 55 Q 152 56.3 151 52.5 L 153 48 L 157 49.5 L 156.5 51 L 155.5 49 Q 151 50.4 152 56 Q 155 57.3 154 53.5 L 155.5 54 L 160 54.5 L 159.5 56 Q 165.8 53.8 164 59.5 L 165.5 62 L 163.5 62 L 161.5 63 L 162 61.5 L 161.5 60 Q 157.3 61.7 160 63.5 L 161 65.5 L 160.5 67 Q 162.8 67.8 162 65.5 L 165 64.5 L 165.5 63 L 169 67.5 L 166.5 66 Q 164.3 65.3 165 67.5 L 164 67.5 L 163.5 65 L 163 68 Q 157 66 159 72 Q 162.7 70.5 162 73.5 L 160.5 73 L 158 73.5 L 159 75.5 L 158 75.5 L 157.5 74 L 156 74.5 Q 156.8 72.3 154.5 73 L 154.5 76 Q 157.5 75.1 156 79.5 L 158.5 78 Q 163.9 79.9 163 76.5 L 165 77.5 L 165.5 79 L 166.5 77 L 167.5 79 L 171.5 78 L 173 78.5 L 173.5 77 L 175 77.5 L 176.5 74 L 177.5 77 L 180 73 L 174.5 73 L 174 74.5 L 169 72.5 L 171 72.5 L 170 65.5 L 172 65.5 L 172.5 64 L 174.5 68 L 177 67.5 L 174 65.5 L 175 60 Q 178.8 58.5 178 61.5 L 177.5 64 L 176 63.5 Q 174.9 66.8 177.5 66 L 180.5 61 L 180 62.5 L 178 66.5 Q 178.8 68.8 182.5 68 L 182 66.5 L 182.5 65 L 184.5 68 L 186.5 64 L 188 64.5 L 187.5 61 L 186.5 63 L 185.5 61 L 182 62 L 182.5 60 L 184.5 60 L 189.5 61 L 192 60 L 192 56.5 Q 188.8 57.3 190 52 L 195 51 L 196 46 Q 199.7 47.5 199 44.5 L 203 43 L 204.5 39 L 206 38.5 L 206 32 Q 211.2 33.7 210 30 Z M 157 60 L 154 61 L 154 62 Q 157 61 155 65 L 157 65 L 156 64 L 159 62 Q 160 59 157 60 Z M 154 63 L 152 66 L 154 65 L 154 63 Z M 158 63 L 159 65 Q 160 62 158 63 Z M 158 65 L 155 66 L 155 68 L 154 67 L 153 67 L 149 66 L 149 68 L 145 68 L 145 69 Q 148 68 146 72 L 142 73 L 146 74 Q 152 75 152 73 L 155 72 L 156 72 L 156 67 L 158 67 L 158 65 Z M 129 66 L 129 67 L 139 67 L 129 66 Z M 196 72 L 196 78 L 198 75 L 198 77 L 199 77 L 198 72 L 197 74 L 196 72 Z M 180 76 L 178 78 L 180 79 L 180 76 Z M 192 77 Q 191 80 194 79 Q 195 76 192 77 Z M 144 80 L 144 83 Q 147 82 144 80 Z " /><path fill="rgb(254,254,254)" stroke="rgb(254,254,254)" stroke-width="1" opacity="1" d="M 63.5 47 L 64.5 49 L 66.5 48 L 67.5 49 L 77 49.5 L 67.5 50 L 65.5 49 L 63 49.5 L 63.5 51 L 103.5 51 L 104 52.5 L 107 51.5 L 101 59.5 L 101 61.5 L 100.5 63 L 100 58.5 Q 102.5 57 99 55.5 L 98.5 54 L 80.5 54 L 79.5 53 L 63 53 L 62.5 51 L 62 53 Q 58.8 55.9 52 55 L 53 62 Q 55.7 63.1 55 60.5 L 56.5 61 L 61.5 62 L 64.5 61 Q 67.8 62.1 67 59.5 L 69.5 55 L 76 56 L 76 60 Q 82 58 80 64 L 68.5 64 L 67.5 65 L 65 64 Q 63.9 66.7 66.5 66 L 71.5 67 L 75.5 66 L 76.5 67 L 95.5 67 L 97.5 66 L 97.5 67 L 95 68.5 Q 95.8 70.8 93.5 70 L 92 69.5 L 93 71.5 L 90 72.5 L 91 74.5 L 88 75.5 L 90 76.5 L 86 82 Q 83 83 84 80 L 86 79.5 L 84 78.5 L 86 78 L 85.5 76 L 76 76 L 76 68 L 70 68 Q 68.8 73.3 72 72.5 L 72 84 L 64.5 84 L 63.5 82 L 52.5 82 L 52 80.5 L 51 76.5 L 52 72.5 L 50 65.5 L 51 65.5 Q 50.3 67.8 52.5 67 L 55.5 68 Q 57.5 64 59.5 68 L 63 66.5 L 62.5 62 L 61.5 66 L 60.5 63 L 59.5 66 L 58.5 64 L 53.5 65 L 52 63.5 L 51.5 62 L 51 64 L 48 62.5 L 52 60.5 L 44 60 L 43 52 L 45.5 51 L 48.5 52 L 50.5 51 L 54 52 L 54.5 50 L 57 50.5 L 56.5 52 L 59.5 51 L 61 51.5 L 61 49 Q 63.8 50 63.5 47 Z " /><path fill="rgb(254,254,254)" stroke="rgb(254,254,254)" stroke-width="1" opacity="1" d="M 40.5 48 L 43 49.5 L 40.5 53 L 40.5 48 Z " /><path fill="rgb(254,254,254)" stroke="rgb(254,254,254)" stroke-width="1" opacity="1" d="M 149.5 48 L 152 48.5 Q 150.3 52.8 148.5 50 L 147 49.5 L 149.5 48 Z " /><path fill="rgb(254,254,254)" stroke="rgb(254,254,254)" stroke-width="1" opacity="1" d="M 109.5 53 L 112 54.5 L 110 55.5 L 110.5 54 L 109.5 53 Z " /><path fill="rgb(254,254,254)" stroke="rgb(254,254,254)" stroke-width="1" opacity="1" d="M 113.5 54 L 114 55.5 L 112 56.5 L 113.5 54 Z " /><path fill="rgb(254,254,254)" stroke="rgb(254,254,254)" stroke-width="1" opacity="1" d="M 118.5 56 L 119 58.5 L 118 58.5 L 118.5 56 Z " /><path fill="rgb(254,254,254)" stroke="rgb(254,254,254)" stroke-width="1" opacity="1" d="M 24.5 59 Q 29.9 58.4 32 60 Q 30 66 36 64 L 36 72 L 30.5 72 Q 31.1 74.8 28 74 Q 29 71 26 72 Q 27.2 75.7 22 74 L 22 78 Q 19 77 20 80 L 16 80 L 16 76.5 Q 12.8 77.3 14 72 Q 17.7 73.2 16 68 L 18.5 68 L 20 64 Q 24.5 65.8 23 60.5 L 24.5 59 Z " /><path fill="rgb(254,254,254)" stroke="rgb(254,254,254)" stroke-width="1" opacity="1" d="M 224.5 59 L 229 59 L 229 66 L 226 66 L 226 70 L 224 70 L 224 72 L 222 72 L 220 76 Q 226 74 224 80 L 220 80 Q 221.7 74.8 218 76 Q 218.8 79.1 216 78.5 L 216 84 L 208 84 L 208 80.5 Q 204.8 81.3 206 76 Q 209.7 77.2 208 72 L 210.5 72 L 212 68 Q 206 70 208 64 L 212 64 Q 209.9 69.2 214.5 68 L 216 64 L 219 64 L 219 62 L 222 62 Q 220.9 59.3 223.5 60 L 224.5 59 Z " /><path fill="rgb(254,254,254)" stroke="rgb(254,254,254)" stroke-width="1" opacity="1" d="M 169.5 60 L 171.5 61 L 174 60 L 172.5 63 L 170 62.5 L 169.5 61 L 167.5 62 L 167.5 61 L 169.5 60 Z " /><path fill="rgb(254,254,254)" stroke="rgb(254,254,254)" stroke-width="1" opacity="1" d="M 112.5 63 L 114 66 L 110 65.5 L 112.5 63 Z " /><path fill="rgb(254,254,254)" stroke="rgb(254,254,254)" stroke-width="1" opacity="1" d="M 47.5 64 L 49 67.5 L 48 72 Q 42 74.3 44 67.5 L 47 68.5 L 46 65.5 L 47.5 64 Z " /><path fill="rgb(254,254,254)" stroke="rgb(254,254,254)" stroke-width="1" opacity="1" d="M 163.5 72 L 166 72.5 Q 166.7 75.5 163 74 L 163.5 72 Z " /><path fill="rgb(254,254,254)" stroke="rgb(254,254,254)" stroke-width="1" opacity="1" d="M 191 72 Q 194 71 193 74 Q 190 75 191 72 Z " /><path fill="rgb(254,254,254)" stroke="rgb(254,254,254)" stroke-width="1" opacity="1" d="M 111.5 75 L 114 75.5 Q 115.1 78.8 112.5 78 L 110.5 79 L 111 77.5 L 111.5 75 Z " /><path fill="rgb(254,254,254)" stroke="rgb(254,254,254)" stroke-width="1" opacity="1" d="M 170.5 75 L 169.5 77 L 170.5 75 Z " /><path fill="rgb(254,254,254)" stroke="rgb(254,254,254)" stroke-width="1" opacity="1" d="M 28 76 Q 34 74 32 80 Q 26 82 28 76 Z " /><path fill="rgb(254,254,254)" stroke="rgb(254,254,254)" stroke-width="1" opacity="1" d="M 4 78 L 12 78 Q 11.3 81.1 14 80.5 L 14 88 Q 10.9 87.3 11.5 90 L 4 90 Q 2.1 87.3 3 80.5 L 4 78 Z " /><path fill="rgb(254,254,254)" stroke="rgb(254,254,254)" stroke-width="1" opacity="1" d="M 189.5 78 L 190 80 L 187 79.5 L 189.5 78 Z " /><path fill="rgb(254,254,254)" stroke="rgb(254,254,254)" stroke-width="1" opacity="1" d="M 80 84 Q 82.7 82.9 82 85.5 L 83 87.5 L 82 90 Q 79.3 91.1 80 88.5 L 80 86.5 L 80 84 Z " /><path fill="rgb(254,254,254)" stroke="rgb(254,254,254)" stroke-width="1" opacity="1" d="M 36.5 91 Q 41.9 90.4 44 92 L 44 96 Q 41 95 42 98 L 36 98 L 35 92.5 L 36.5 91 Z " /><path fill="rgb(254,254,254)" stroke="rgb(254,254,254)" stroke-width="1" opacity="1" d="M 146.5 92 L 148 94.5 L 146 93.5 L 146.5 92 Z " /><path fill="rgb(254,254,254)" stroke="rgb(254,254,254)" stroke-width="1" opacity="1" d="M 18 94 Q 21.1 93.3 20.5 96 L 28 96 Q 26.8 92.3 32 94 Q 30.7 99.3 34 98.5 L 34 106 L 30 106 L 30 108 L 28 108 L 26 112 L 28 112.5 L 28 120 L 16 120 Q 17.3 114.7 14 115.5 L 14 108 L 16 107.5 L 16 100 Q 12.3 101.2 14 96 Q 19.2 97.7 18 94 Z M 23 98 Q 23 101 20 100 L 20 102 L 18 102 L 18 104 L 22 103 Q 23 105 24 103 L 23 98 Z " /><path fill="rgb(254,254,254)" stroke="rgb(254,254,254)" stroke-width="1" opacity="1" d="M 78.5 94 L 79 96.5 Q 75.9 100.4 76.5 108 L 76 99.5 L 77 97.5 L 76.5 96 L 78 96.5 L 78.5 94 Z " /><path fill="rgb(254,254,254)" stroke="rgb(254,254,254)" stroke-width="1" opacity="1" d="M 146.5 96 L 148.5 96 L 152 96.5 L 152 118 L 150 117.5 L 150 108.5 L 148.5 100 L 147.5 103 L 146 98.5 L 146.5 96 Z " /><path fill="rgb(254,254,254)" stroke="rgb(254,254,254)" stroke-width="1" opacity="1" d="M 60.5 103 L 68 104 Q 66 110 72 108 L 72 116 L 60 116 L 60 118 L 58 118 L 58 120 L 56 120 L 56 122 L 52 124 L 52 128 L 44 128 L 43 120.5 L 46 119 Q 44.7 114.9 48 116 L 48 112 L 52 112 L 52 110 Q 55.8 111.5 55 108.5 L 59 107 L 60.5 103 Z " /><path fill="rgb(254,254,254)" stroke="rgb(254,254,254)" stroke-width="1" opacity="1" d="M 216.5 103 Q 221.9 102.4 224 104 L 224 107.5 Q 227.3 106.7 226 112 L 222.5 112 Q 223.3 115.3 218 114 L 218 120 Q 214.9 119.3 215.5 122 L 210 122 L 210 127.5 Q 207.3 126.9 208 130 L 196 130 L 195 124.5 L 199 123 L 200.5 119 Q 204.3 120.3 203 116.5 L 206 115 L 206 112 Q 209 113 208 110 L 211 110 L 211 108.5 L 215 107 L 216.5 103 Z " /><path fill="rgb(254,254,254)" stroke="rgb(254,254,254)" stroke-width="1" opacity="1" d="M 76 109 Q 79 108 78 111 Q 75 112 76 109 Z " /><path fill="rgb(254,254,254)" stroke="rgb(254,254,254)" stroke-width="1" opacity="1" d="M 117.5 112 L 118 115 L 120 115.5 L 117 117.5 L 120.5 119 L 121 117 Q 123.7 115.9 123 118.5 Q 118.8 120.3 119.5 127 Q 117.5 123 115.5 127 L 112.5 129 L 112 126.5 L 113.5 125 L 115.5 126 L 117 122.5 L 116 119.5 L 116.5 118 L 108.5 121 L 109 119.5 Q 107.8 115.8 111.5 117 L 113.5 117 L 116 115.5 L 117.5 112 Z " /><path fill="rgb(254,254,254)" stroke="rgb(254,254,254)" stroke-width="1" opacity="1" d="M 77.5 113 Q 79.8 116.8 79 123.5 L 79 125.5 L 81 130.5 L 81 136.5 L 79.5 136 Q 76.9 135.3 78 138 L 76 138 L 76 140 L 82 139 L 81.5 142 L 80 141.5 L 80.5 144 L 82.5 143 L 81 145.5 L 81.5 147 L 83 146.5 L 85 155.5 L 84.5 157 L 87 158.5 L 92 169.5 L 90 168.5 L 89.5 167 L 88.5 169 L 84 168 L 83 161 L 79 158.5 Q 77.1 153.1 80.5 154 L 79 151.5 L 79.5 149 L 80.5 151 L 81 148.5 L 80 144 L 76 144 Q 77.7 138.8 74 140 L 74 142 L 72 142 L 70 146 L 64.5 146 L 64.5 147 L 66 147.5 L 66 154 Q 62.9 153.3 63.5 156 L 48 156 L 48 152 L 55 152 L 55 148.5 Q 57.8 147.4 57 144 L 62 144 L 62 140.5 Q 65.3 141.3 64 136 L 66.5 136 L 68 132 L 64 132 L 64 128 Q 58.8 130.1 60 125.5 L 64 124 L 64 128 L 68 128 Q 65.9 133.2 70.5 132 L 72 128 Q 75.8 129.5 75 126.5 Q 78.1 124.8 76.5 123 L 78 122.5 L 78 120.5 L 77.5 119 L 76 119.5 L 77.5 113 Z " /><path fill="rgb(254,254,254)" stroke="rgb(254,254,254)" stroke-width="1" opacity="1" d="M 97.5 115 L 99.5 115 Q 102.8 113.9 102 116.5 L 101 119 L 99 118.5 L 99.5 117 Q 95.5 118 97.5 115 Z " /><path fill="rgb(254,254,254)" stroke="rgb(254,254,254)" stroke-width="1" opacity="1" d="M 147.5 116 L 148 119.5 L 147 119.5 L 147.5 116 Z " /><path fill="rgb(254,254,254)" stroke="rgb(254,254,254)" stroke-width="1" opacity="1" d="M 156.5 119 L 157 121 L 159.5 120 L 161.5 121 L 163 120.5 L 163 122 L 158 122 L 158 127.5 L 157 127.5 L 156.5 126 L 155.5 127 L 147 127.5 L 147.5 129 Q 144.5 128.1 146 132.5 L 143.5 134 L 144 132.5 Q 143.2 126.7 146.5 125 L 157 124.5 L 156 122.5 L 156 120.5 L 156.5 119 Z " /><path fill="rgb(254,254,254)" stroke="rgb(254,254,254)" stroke-width="1" opacity="1" d="M 101.5 121 Q 104 126.5 106.5 122 Q 108.8 121.3 108 123.5 L 107 125.5 L 109.5 130 Q 111.8 129.3 111 131.5 Q 113.3 132.7 112 137.5 Q 109.7 138.8 112.5 140 L 115.5 139 L 120 141.5 L 119.5 145 L 114 142.5 L 114.5 141 Q 107.5 139.5 108 142.5 Q 106.5 145.5 105 142.5 L 106.5 140 L 108 139.5 L 108 137.5 Q 109 131 105.5 129 L 101.5 132 L 101 130 L 99 129.5 L 102 124.5 L 101.5 121 Z " /><path fill="rgb(254,254,254)" stroke="rgb(254,254,254)" stroke-width="1" opacity="1" d="M 173.5 122 Q 176.5 123.5 173.5 125 L 173.5 122 Z " /><path fill="rgb(254,254,254)" stroke="rgb(254,254,254)" stroke-width="1" opacity="1" d="M 92.5 123 Q 92.3 128.3 95 130.5 L 93 131 Q 91.1 128.5 92.5 123 Z " /><path fill="rgb(254,254,254)" stroke="rgb(254,254,254)" stroke-width="1" opacity="1" d="M 123.5 123 L 126 123.5 Q 123.9 126.8 123.5 123 Z " /><path fill="rgb(254,254,254)" stroke="rgb(254,254,254)" stroke-width="1" opacity="1" d="M 132.5 124 L 135 125.5 L 132.5 127 L 132.5 124 Z " /><path fill="rgb(254,254,254)" stroke="rgb(254,254,254)" stroke-width="1" opacity="1" d="M 162 124 L 165 124.5 L 163 125 Q 161.9 127.7 164.5 127 L 166 126.5 L 163.5 128 L 161 127.5 L 162 124 Z " /><path fill="rgb(254,254,254)" stroke="rgb(254,254,254)" stroke-width="1" opacity="1" d="M 172.5 126 L 176 127.5 L 173.5 128 Q 170.7 128.7 172.5 126 Z " /><path fill="rgb(254,254,254)" stroke="rgb(254,254,254)" stroke-width="1" opacity="1" d="M 129 128 Q 131.7 126.9 131 129.5 L 129 130.5 L 129 128 Z " /><path fill="rgb(254,254,254)" stroke="rgb(254,254,254)" stroke-width="1" opacity="1" d="M 121.5 129 L 124 130.5 Q 125.3 134.3 121.5 133 L 118 135 Q 117 131.2 119.5 130 L 121.5 129 Z " /><path fill="rgb(254,254,254)" stroke="rgb(254,254,254)" stroke-width="1" opacity="1" d="M 149.5 131 L 150.5 132 L 160 132 L 160 157.5 L 163 158 L 164.5 155 Q 170.3 155.8 171 151.5 Q 170.3 147.8 172.5 147 Q 175.5 147.7 174 144 L 178 144 L 178 142 L 184 142 L 184.5 144 L 192 144 L 192 152 L 184 152 L 184 160 L 176 160 Q 177 157 174 158 L 174 160 L 170 162 L 170 167.5 Q 167.2 166.9 168 170 L 160 170 Q 160.8 166.9 158 167.5 L 158 160 L 144.5 160 L 142.5 157 L 142 160 L 135 163.5 L 136 167.5 L 131 170.5 L 131 172.5 Q 132.9 177.9 129.5 177 Q 128 174.5 126.5 178 L 125 176.5 L 125.5 175 Q 126.8 177.3 128 174.5 L 127 172 Q 130 173.3 129 169.5 L 134 160 L 136 159.5 L 136 157.5 L 141.5 146 L 143 145.5 L 142.5 144 L 144 143.5 L 142 143 L 143 136 Q 146.8 137 148 134.5 L 149.5 131 Z M 143 152 L 141 153 L 140 155 L 143 154 L 143 152 Z " /><path fill="rgb(254,254,254)" stroke="rgb(254,254,254)" stroke-width="1" opacity="1" d="M 92.5 132 L 95 132.5 Q 92.9 135.8 92.5 132 Z " /><path fill="rgb(254,254,254)" stroke="rgb(254,254,254)" stroke-width="1" opacity="1" d="M 126.5 133 L 128 135.5 L 127 135.5 L 126.5 133 Z " /><path fill="rgb(254,254,254)" stroke="rgb(254,254,254)" stroke-width="1" opacity="1" d="M 28.5 135 L 34 136 L 34 144 L 30 146 L 30 152 L 28 152 Q 29 149 26 150 L 26 152 L 22 154 L 22 160 L 18 160 L 18 163.5 Q 14.7 162.7 16 168 L 12 168 L 12 164 Q 6.4 166.2 8 160.5 Q 5.3 158.8 7 152.5 Q 8.6 149.5 14 151 L 14 144 L 18 144 L 18 142 L 23 142 L 23 140.5 L 27 139 L 28.5 135 Z " /><path fill="rgb(254,254,254)" stroke="rgb(254,254,254)" stroke-width="1" opacity="1" d="M 92 135 L 94 135.5 L 92 136.5 L 92 135 Z " /><path fill="rgb(254,254,254)" stroke="rgb(254,254,254)" stroke-width="1" opacity="1" d="M 224.5 135 L 229 135 L 229 143.5 L 228 146 L 226 146 L 226 150 L 224 150 L 224 152 L 222 152 L 220 156 Q 226 154 224 160 L 220 160 Q 221.7 154.8 218 156 L 218 158 L 216 158 L 214 162 L 208 162 Q 209 159 206 160 L 206 156 Q 209.7 157.2 208 152 L 210.5 152 L 212 148 Q 206 150 208 144 L 212 144 Q 209.9 149.2 214.5 148 L 216 144 Q 220.5 145.8 219 140.5 L 222 139 Q 220.5 135.3 223.5 136 L 224.5 135 Z " /><path fill="rgb(254,254,254)" stroke="rgb(254,254,254)" stroke-width="1" opacity="1" d="M 98.5 138 L 99.5 140 L 96 139.5 L 98.5 138 Z " /><path fill="rgb(254,254,254)" stroke="rgb(254,254,254)" stroke-width="1" opacity="1" d="M 97.5 141 L 98 142.5 L 97.5 145 Q 94.9 145.8 96 142.5 L 97.5 141 Z " /><path fill="rgb(254,254,254)" stroke="rgb(254,254,254)" stroke-width="1" opacity="1" d="M 105.5 148 Q 107.8 147.3 107 149.5 L 111.5 152 L 113 151.5 L 112.5 154 L 109.5 152 L 107.5 153 L 108 151.5 L 105.5 148 Z " /><path fill="rgb(254,254,254)" stroke="rgb(254,254,254)" stroke-width="1" opacity="1" d="M 36.5 167 Q 41.9 166.4 44 168 L 44 172 L 48 172.5 L 48 191.5 L 50 192 L 52.5 187 Q 57.3 185.8 58.5 188 L 59 180.5 L 60.5 179 Q 63.5 179.7 62 176 L 66 176 L 66 174 L 72 174 L 72.5 176 L 80 176 L 80 184 L 72 184 L 72 192 L 64 192 L 64 200 L 56 200 L 56 208 L 48 208 L 48 200.5 L 46 199.5 L 46 192 L 28.5 192 L 28 188 L 26 188 Q 26.8 191.1 24 190.5 L 24 196 L 16 196 L 14 192 L 6.5 192 L 6 190.5 L 3.5 192 L 2 191.5 L 5 189.5 L 2 189 L 2 184 L 0.5 184 L 0.5 183 L 2 182.5 L 0 182 L 1 179.5 L 0 174.5 L 1 174.5 L 1.5 176 L 5 174 Q 3.9 171.3 6.5 172 L 6.5 174 Q 9.1 173.3 8 176 L 12 176 L 12 178 L 8 178 L 8 185 L 12 185 Q 10.4 189.9 16 188 Q 13.9 182.8 18.5 184 L 20 180 Q 14 182 16 176 L 20 176 Q 17.9 181.2 22.5 180 L 24 176 L 27 176 L 27 174 L 30 174 Q 28.9 171.3 31.5 172 L 35 171 L 36.5 167 Z M 6 174 L 3 176 L 4 178 L 7 179 L 7 177 L 6 174 Z M 4 178 L 1 181 Q 4 182 4 188 L 5 186 L 6 186 L 5 188 L 6 189 L 8 186 L 7 184 L 6 184 L 4 184 L 6 183 L 7 180 L 4 178 Z M 30 184 Q 31 187 28 186 Q 27 190 32 188 Q 34 183 30 184 Z " /><path fill="rgb(254,254,254)" stroke="rgb(254,254,254)" stroke-width="1" opacity="1" d="M 93.5 170 L 96 173.5 L 95.5 175 Q 98.5 174.1 97 178.5 L 100 187.5 L 108 197.5 L 106 198 L 105.5 196 L 103.5 199 L 104 197.5 L 103.5 196 L 92 196 L 92 192.5 L 91 188.5 L 95 185.5 L 95.5 183 L 97 183.5 Q 97.7 177.3 94.5 175 Q 90.8 176 92 173 L 94 172.5 L 92 171.5 L 93.5 170 Z " /><path fill="rgb(254,254,254)" stroke="rgb(254,254,254)" stroke-width="1" opacity="1" d="M 188.5 171 L 196 172 Q 197.2 177.3 194 176.5 L 194 182 L 192 182 L 192 184 L 190 184 L 188 188 L 192 188 L 192 195.5 L 193 197.5 L 190.5 196 L 189 196 Q 190.5 199.7 187.5 199 L 188 200.5 Q 187.3 203.1 190 202 Q 188.9 199.3 191.5 200 L 193.5 200 L 197.5 199 L 202 200 L 202 198 L 206 196 L 206 188.5 Q 209 189.3 208 185 L 214.5 185 L 217.5 180 L 224 181 Q 222.7 185.1 226 184 L 226 188 Q 222.3 186.8 224 192 L 218 192 L 218 198 L 216 198 L 214 202 L 208 202 L 208 204 Q 211.7 202.8 210 208 Q 204.7 206.8 205.5 210 L 199 210 L 198.5 208 L 189 208 L 189 203.5 L 187.5 204 L 184 204 L 184 206 Q 181.3 204.9 182 207.5 L 181 207.5 L 179 200 Q 182.4 200.8 183.5 198 L 184 200.5 Q 183.3 203.1 186 202 L 187 196 L 181.5 197 L 178.5 195 L 177.5 197 L 176.5 195 L 176 197 L 171.5 196 L 171.5 198 Q 170.4 195.3 167 196 L 168 190 L 176 188 Q 173.9 182.8 178.5 184 L 180 180 Q 174 182 176 176 L 180 176 Q 177.9 181.2 182.5 180 L 184 176 Q 188.5 177.8 187 172.5 L 188.5 171 Z M 186 188 Q 187 191 184 190 Q 183 194 188 192 Q 190 187 186 188 Z M 178 192 L 176 194 L 178 195 L 178 192 Z M 202 201 L 200 204 L 202 204 L 202 201 Z " /><path fill="rgb(254,254,254)" stroke="rgb(254,254,254)" stroke-width="1" opacity="1" d="M 208 176 L 214 176 L 214 178 L 208 178 L 208 176 Z " /><path fill="rgb(254,254,254)" stroke="rgb(254,254,254)" stroke-width="1" opacity="1" d="M 123 178 Q 126 176.8 125 180.5 L 124.5 182 Q 126.8 182.8 126 180.5 L 127 180.5 L 128 188 L 121.5 188 L 120.5 189 L 119 188.5 Q 118.3 191.1 121 190 L 121 192 L 126.5 192 L 126.5 193 Q 118.5 191 116.5 195 Q 113.7 193.8 116 192.5 L 123 178 Z M 124 182 L 123 185 L 124 185 L 124 182 Z " /><path fill="rgb(254,254,254)" stroke="rgb(254,254,254)" stroke-width="1" opacity="1" d="M 140 178 L 144 178.5 L 144 196 L 128.5 196 L 128 192 L 132 192 L 132 185 L 134.5 185 Q 135.8 182 140 183 L 140 178 Z " /><path fill="rgb(254,254,254)" stroke="rgb(254,254,254)" stroke-width="1" opacity="1" d="M 0.5 188 L 1 191.5 L 0 191.5 L 0.5 188 Z " /><path fill="rgb(254,254,254)" stroke="rgb(254,254,254)" stroke-width="1" opacity="1" d="M 156 192 L 158.5 193 L 161.5 192 L 163 192.5 L 161 193.5 L 163.5 194 L 165 193.5 L 161.5 195 Q 159.3 190.7 157 195.5 L 159 196 L 158 198.5 Q 159 201 163.5 200 Q 165.5 196 167.5 200 L 171.5 199 L 174 200 L 173.5 203 L 166.5 201 L 160.5 203 L 156.5 201 L 130 200 L 130 206 Q 127 205 128 208 L 124 208 L 124 206 Q 120.2 207.5 121 204.5 L 119 199.5 L 157 198.5 L 156 195.5 L 156 193.5 L 156 192 Z " /><path fill="rgb(254,254,254)" stroke="rgb(254,254,254)" stroke-width="1" opacity="1" d="M 4.5 193 L 7 194.5 L 7.5 193 L 8 197.5 L 5.5 199 L 5.5 198 Q 7.8 198.8 7 196.5 L 4.5 193 Z " /><path fill="rgb(254,254,254)" stroke="rgb(254,254,254)" stroke-width="1" opacity="1" d="M 0.5 194 L 4 195.5 Q 5.1 198.8 2.5 198 L 4 200.5 L 2 203.5 L 4.5 205 L 7 204.5 L 7.5 203 L 12 204 L 12 208 Q 18 206 16 212 L 12 212 L 12 214 Q 6.8 212.3 8 216 L 12 216 L 12 220 L 16 220 Q 14.1 225.6 19 224 Q 18 220.2 20.5 219 Q 24.3 220.3 23 216.5 L 24.5 215 L 34 215 L 35 219.5 L 34 224 L 32 224 L 31.5 228 L 16 228 L 16 224 L 8.5 224 L 7 224.5 L 6 222.5 L 8 219.5 L 6.5 216 L 3 217.5 L 3 219.5 L 5 222.5 L 2 224.5 L 4.5 226 L 6.5 226 Q 8.8 225.3 8 227.5 L 5.5 228 L 0.5 229 L 0 227 L 2 226.5 L 0 223.5 L 1 221.5 L 0 219.5 L 0 217.5 Q -1.8 211.3 1 209.5 Q -1.3 208.3 0 203.5 L 0.5 201 L 2 200.5 L 0 199.5 Q 3.5 198 1 196.5 L 0.5 194 Z M 6 205 L 4 207 L 5 210 L 8 209 L 6 205 Z M 6 210 L 7 212 Q 8 209 6 210 Z M 4 213 L 4 215 Q 6 218 7 215 Q 8 211 4 213 Z " /><path fill="rgb(254,254,254)" stroke="rgb(254,254,254)" stroke-width="1" opacity="1" d="M 114.5 195 L 121 196.5 L 113.5 197 L 114.5 195 Z " /><path fill="rgb(254,254,254)" stroke="rgb(254,254,254)" stroke-width="1" opacity="1" d="M 162.5 196 L 163 198.5 L 162 198.5 L 162.5 196 Z " /><path fill="rgb(254,254,254)" stroke="rgb(254,254,254)" stroke-width="1" opacity="1" d="M 168.5 197 L 169.5 199 L 168.5 197 Z " /><path fill="rgb(254,254,254)" stroke="rgb(254,254,254)" stroke-width="1" opacity="1" d="M 109 198 L 114.5 199 L 116 198.5 L 114.5 200 L 111.5 199 L 109.5 200 L 109 198 Z " /><path fill="rgb(254,254,254)" stroke="rgb(254,254,254)" stroke-width="1" opacity="1" d="M 175.5 198 L 176.5 200 L 177 198 L 179 198.5 Q 176.3 199.6 177 203 Q 172.9 204.2 175.5 198 Z " /><path fill="rgb(254,254,254)" stroke="rgb(254,254,254)" stroke-width="1" opacity="1" d="M 106.5 199 L 108 199.5 L 105.5 201 L 106.5 199 Z " /><path fill="rgb(254,254,254)" stroke="rgb(254,254,254)" stroke-width="1" opacity="1" d="M 75 206 L 79.5 206 Q 78.7 209.3 84 208 L 84 216 L 78 216 L 76 220 Q 82 218 80 224 L 76 224 Q 77.7 218.8 74 220 L 74 222 L 72 222 L 70 226 L 66 226 L 66 229 L 59 229 L 59 220.5 L 60.5 219 L 64 219 Q 62.3 214.9 66.5 216 L 68 212 Q 62 214 64 208 L 68 208 Q 65.9 213.2 70.5 212 L 72 208 Q 76.1 209.3 75 206 Z " /><path fill="rgb(254,254,254)" stroke="rgb(254,254,254)" stroke-width="1" opacity="1" d="M 152 206 L 160 206 Q 158.8 211.3 162 210.5 L 162 216 L 160 216.5 L 160 224 L 152.5 224 L 152 226 L 146.5 226 L 146 228 L 144.5 228 Q 142.7 230.8 136.5 229 Q 134.3 228.3 135 224.5 L 136 222 L 142 221 Q 140.5 214.7 144 215.5 L 144 208 L 151.5 208 L 152 206 Z " /><path fill="rgb(254,254,254)" stroke="rgb(254,254,254)" stroke-width="1" opacity="1" d="M 224 213 L 229 213 L 229 226 L 226 226 Q 227.1 228.7 224.5 228 L 223.5 229 L 212.5 229 Q 210.3 228.3 211 224.5 L 212 222 Q 215.7 223.5 215 220.5 L 217.5 220 L 220 218.5 L 222.5 215 Q 225.1 215.7 224 213 Z " /><path fill="rgb(254,254,254)" stroke="rgb(254,254,254)" stroke-width="1" opacity="1" d="M 104.5 215 Q 109.9 214.4 112 216 L 112 219.5 Q 115.3 218.7 114 224 Q 108.7 222.8 109.5 226 L 100 226 L 99 220.5 L 103 219 L 104.5 215 Z " /><path fill="rgb(254,254,254)" stroke="rgb(254,254,254)" stroke-width="1" opacity="1" d="M 180.5 215 Q 187.3 214.1 190 216 L 190 224 L 188 224 L 188 226 L 186 226 Q 187.1 228.7 184.5 228 Q 182.8 230.8 176.5 229 L 174 228 L 174 224 Q 177 225 176 222 L 179 222 L 179 216.5 L 180.5 215 Z " /><path fill="rgb(255,255,255)" stroke="rgb(255,255,255)" stroke-width="1" opacity="1" d="M 16 0 L 157.5 0 L 158 0.5 L 158 7 L 155 8.5 Q 156.3 12.7 151.5 11 L 152 12.5 L 150.5 16 L 150 14.5 L 151 12.5 L 149.5 10 L 148 10.5 L 149 8.5 L 146.5 10 L 144 8.5 L 145 10.5 L 143.5 10 L 141.5 9 L 140 9.5 L 140.5 8 L 138 8.5 L 139 10.5 L 138 10.5 L 136.5 8 L 134.5 8 Q 131.9 7.2 133 10.5 L 131 11.5 L 131 9.5 L 130.5 8 L 129.5 11 L 119.5 8 L 117.5 9 L 115.5 8 L 111 9.5 L 114 11.5 L 113.5 14 L 113 11 L 110.5 10 L 107.5 12 L 107 10 L 111 8.5 L 108.5 8 L 106.5 9 L 104.5 8 L 103.5 10 L 105 10.5 L 103.5 11 L 101.5 8 L 100.5 10 L 99.5 9 L 95.5 11 Q 90.8 11.8 90 8.5 L 92 8.5 Q 94.3 1.3 86.5 4 Q 85.3 1.8 80.5 3 L 78 4 L 75 19.5 L 76 24 L 80 24 L 80.5 20 L 96 20 Q 95 23 98 22 L 98 20 L 102 20 L 102 18.5 L 103 18.5 L 104 22.5 L 100.5 24 L 98.5 25 L 97.5 24 L 80 24 L 80 28 L 93.5 28 L 94 32 L 88 32 L 88 48 L 82.5 48 L 82.5 49 L 105 49.5 L 77.5 50 L 76.5 49 L 67.5 49 L 63 51 L 63.5 53 L 79.5 53 L 80.5 54 L 99 54 L 101 57.5 L 99.5 65 L 97.5 64 L 96.5 65 L 68.5 65 L 68.5 64 L 80 64 L 80 60 L 76 60 Q 78.2 54.4 72.5 56 L 69.5 55 L 67 61 L 63.5 62 L 60.5 61 L 55.5 60 L 55 62 Q 52.3 63.1 53 60.5 L 50.5 62 Q 47.2 60.9 48 63.5 L 46 66.5 L 47 68.5 L 44 67.5 Q 42 74.3 48 72 L 49.5 65 L 52 75.5 L 51 79.5 L 52 82 L 63.5 82 L 64.5 84 L 72 84 L 72 72.5 Q 68.8 73.3 70 68 L 76 68 L 76 76 L 85.5 76 L 86 78 L 84 78.5 L 86 79.5 L 84 80 L 85 82.5 L 80 89.5 L 81 92 L 78 92.5 L 80 93.5 L 78 94 L 76 99.5 L 76 107.5 L 76 109.5 L 78 112.5 L 76 119.5 L 78 119.5 L 77 121.5 L 77.5 123 L 76 123.5 Q 78.5 125 75 126.5 Q 75.7 129.5 72 128 L 72 130.5 L 68 132 L 66.5 136 L 64 136 L 64 139.5 Q 60.8 138.7 62 144 L 57 144 L 57 146.5 Q 54 147.8 55 152 L 48 152 L 48 156 L 64 156 Q 63.3 152.9 66 153.5 L 66 147 L 64 146.5 L 70 146 L 70 144 L 72 144 L 72 142 L 74 142 L 74 140 L 76 140 L 76 138 L 78 138 Q 76.9 135.3 79.5 136 L 81 138.5 Q 79.8 141 76 140 Q 74 146 80 144 L 80.5 141 Q 83.8 142.8 80 144.5 L 81 150.5 L 80 150.5 L 79.5 149 L 79 151.5 Q 80.3 154.3 81.5 152 L 83 152.5 L 79 154 Q 77.8 159.5 81.5 161 Q 84.1 160.2 83 163.5 L 84 168 L 88.5 169 L 89 167.5 L 88.5 166 L 91.5 170 L 93 169.5 L 92 171.5 L 94 172.5 L 92 173 Q 90.8 176 94.5 175 L 96 174.5 L 96 176.5 L 97 183.5 L 95 183.5 L 93.5 187 L 91 188.5 L 92 196 L 103.5 196 L 104.5 195 L 106 198 Q 109.8 196.5 109 199.5 L 110.5 199 L 112.5 200 L 116.5 198 L 156.5 198 L 157.5 197 Q 160.5 198.5 157.5 200 L 156.5 199 L 119.5 199 L 120 200.5 L 121 206 Q 125.1 204.7 124 208 L 128 208 Q 127.3 204.9 130 205.5 L 130 200 L 143.5 200 L 144.5 201 L 156.5 201 L 161.5 203 L 166.5 201 L 173.5 203 L 174.5 200 L 175 203 L 177 203 Q 175.7 198.9 179 200 L 181.5 208 L 182 206 Q 185 207 184 204 L 187.5 204 L 188 201.5 L 187 199.5 L 189 199 L 188 202.5 L 189 208 L 198.5 208 L 199.5 210 L 206 210 Q 204.8 206.3 210 208 L 210 204 Q 207 205 208 202 L 214 202 L 214 200 L 218 198 L 218 192 L 224 192 L 224 188.5 Q 227.3 189.3 226 184 Q 222.7 185.1 224 181 L 218.5 181 L 217 180.5 Q 217.5 184.5 214.5 185 L 208 185 Q 209 189.3 206 188.5 L 206 196 L 204 196 Q 205.1 198.7 202.5 198 Q 201.5 195 196.5 196 L 194.5 196 L 192 196 L 192 188 L 188 188 Q 190 194 184 192 L 184 190 L 186 190 L 186 188 L 188 188 L 188 186 L 190 186 L 190 184 L 194 182 L 194 176.5 Q 197.2 177.3 196 172 L 188.5 171 Q 186 172.2 187 176 Q 182.9 174.3 184 178.5 L 180 180 L 178.5 184 L 176 184 L 176 188 L 174.5 188 Q 172.5 190.8 168 190 L 166.5 197 L 163 195.5 L 163.5 194 L 157.5 196 L 156 195.5 L 155.5 197 L 121.5 197 L 115 196 L 115.5 194 Q 117 196.5 118.5 193 L 127 192.5 L 121 192 L 121 190 Q 118.3 191.1 119 188.5 L 121.5 188 L 128 188 L 128 182.5 L 126.5 180 L 126 182 Q 123 180.8 124 184.5 L 123 184.5 L 124 181.5 L 123.5 180 L 125 180.5 L 124 177.5 L 125.5 177 L 129.5 177 Q 132.9 177.9 131 172.5 L 131 168.5 L 131.5 167 L 132 169 L 136 167.5 L 135 163.5 L 142 160 L 142.5 157 L 144.5 160 L 158 160 L 158 168 Q 161.1 167.3 160.5 170 L 168 170 Q 167.3 166.9 170 167.5 L 170 162 L 172 162 L 172 160 L 176 158 L 176.5 160 L 184 160 L 184 152 L 192 152 L 192 144 L 184.5 144 L 184 142 L 178 142 L 178 144 L 174 144 Q 175.5 147.8 172.5 147 Q 170.3 147.8 171 151.5 L 167.5 155 Q 163.8 154.3 163 156.5 Q 163.7 159.5 160 158 L 160 132 L 150.5 132 Q 149.3 129.8 148 132.5 L 146.5 136 Q 141.7 137.3 143 134 L 146 132.5 Q 144.5 128.1 147.5 129 L 147.5 127 L 155.5 127 L 156.5 126 L 157.5 128 L 163.5 128 L 166.5 126 L 167 128 L 169.5 127 L 173.5 128 L 173 126.5 L 175 123.5 Q 173.5 120.5 172 123.5 L 171.5 125 L 169 120.5 L 171.5 120 L 176.5 122 L 176.5 120 L 178 119.5 L 178 114 L 182 114 L 182 112 L 184 112 L 184 110 L 186 110 L 186 108 L 188 108 L 188 106 L 190 106 L 190 104 L 194 102 L 194 96 Q 191 97 192 94 L 187 94 Q 188.1 97.3 184 96 L 184 98.5 L 180 100 L 178.5 104 L 176 104 L 176 108 L 174 108 L 174 110 Q 171.3 108.9 172 111.5 L 171 115 L 167 116.5 L 167 120 Q 162.9 118.3 164 122.5 L 162 123.5 L 163 120.5 L 161.5 121 L 159.5 120 L 156 122.5 L 155.5 124 L 148.5 124 L 146 123.5 L 148 116.5 L 147 115.5 L 147 103.5 L 148 100.5 L 147.5 99 L 149 100.5 L 150 118 L 152 117.5 L 152 96 Q 147.8 95 146.5 98 L 146 95.5 L 146.5 94 L 148 94.5 L 146.5 92 L 145 91.5 L 148 90.5 L 146 89.5 L 147.5 88 L 155 88 L 156 96 L 176 96 L 176 78.5 L 177.5 78 L 180 78.5 L 179.5 80 L 181.5 79 L 185 80 Q 183.9 77.3 186.5 78 L 190 76.5 L 190.5 75 L 191 76.5 L 191 78.5 Q 190.2 81.1 193.5 80 L 197.5 82 Q 201.3 83 200 80 L 204 80 L 204 73 L 200.5 72 L 199 72.5 L 200 68 L 203 66.5 L 202.5 64 L 201 63.5 L 201.5 62 L 199 60.5 L 200.5 60 L 202.5 61 L 202 59.5 L 201 54.5 L 202 52 L 204 52 L 204 50 L 208 48 Q 207 51 210 50 L 210 48 L 216 48 L 216 40 L 224 40 L 224 32 L 216.5 32 L 216 30 L 210 30 Q 211.2 33.7 206 32 L 206 38.5 L 204.5 39 L 203 43 L 199 44.5 L 199 46 Q 195.3 44.5 196 47.5 L 195 51 L 190 52 L 190 55.5 Q 193.3 54.7 192 60 L 189.5 61 L 184.5 60 L 182 60.5 L 181.5 62 L 179.5 61 Q 175.3 62.8 178 64.5 Q 177.3 66.8 179.5 66 L 181 65.5 L 180.5 67 L 183 67.5 L 179.5 68 L 176.5 66 L 176.5 68 L 173.5 67 L 171 68 L 172 73.5 L 169.5 74 L 165.5 72 L 163 72.5 L 162.5 74 L 162 72 Q 157.1 73.6 159 68 Q 164.2 70.1 163 65.5 L 164 65.5 L 164.5 68 L 165 66 L 167.5 67 L 168.5 65 L 170.5 68 L 176 66 L 177 62.5 L 176.5 61 L 178 61.5 Q 178.6 58.8 172.5 60 L 170.5 61 L 167 60.5 L 166.5 62 Q 165.3 59.8 164 62.5 L 163.5 64 L 163 62.5 L 164 59.5 Q 165.8 53.8 159.5 56 L 160 54.5 L 159.5 49 L 158 49.5 L 157.5 48 L 155.5 48 L 153 48 Q 154.1 50.7 151.5 50 L 151.5 48 L 147.5 49 L 144 47.5 Q 145.7 42.7 141.5 44 L 140 47.5 L 140.5 50 L 142 50.5 L 136 52 L 136 48 Q 130 50 132 44 L 134 44 L 134 42 L 136 42 L 136 40 L 138 40 L 140 36 L 144 36 L 146 32 L 160 32 L 160 16 L 168 16 L 168 8 L 176 8 L 176 0 L 199 0 Q 198 6.9 200 10 L 208 10 Q 207.3 6.9 210 7.5 L 210 0 L 229 0 L 229 58.5 Q 229 59.5 224.5 59 L 222 60 L 222 62 L 219 62 Q 220.1 65.3 216 64 L 216 66.5 L 212 68 L 210.5 72 L 208 72 L 208 75.5 Q 204.8 74.7 206 80 Q 209.7 78.8 208 84 L 216 84 L 216 78 L 218 78 L 218 76 L 220 76 L 220 74 L 222 74 L 222 72 L 226 70 L 226 66 L 229 66 L 229 134.5 Q 229 135.5 224.5 135 L 222 136 Q 223.5 139.8 220.5 139 Q 218 140.2 219 144 Q 214.9 142.3 216 146.5 L 212 148 L 210.5 152 L 208 152 L 208 155.5 Q 204.8 154.7 206 160 Q 209.1 159.3 208.5 162 L 214 162 L 214 160 L 216 160 L 216 158 L 218 158 L 218 156 L 220 156 L 220 154 L 222 154 L 222 152 L 226 150 L 226 146 Q 228.7 147.1 228 144.5 L 229 144.5 L 229 212.5 L 224 213 Q 225.1 215.7 222.5 215 L 218.5 220 L 216.5 221 L 215 220.5 L 215 222 Q 211.2 220.5 212 223.5 L 211 227.5 L 211.5 229 L 184 228.5 L 186 228 L 186 226 L 190 224 L 190 216 Q 187.3 214.1 180.5 215 Q 177.5 216.6 179 222 L 176 222 Q 177 225 174 224 L 174 228 L 176 228.5 L 144.5 229 L 144.5 228 L 146 228 L 146.5 226 L 152 226 L 152.5 224 L 160 224 L 160 216.5 L 162 216 L 162 210 Q 158.3 211.2 160 206 L 152 206 L 151.5 208 L 144 208 L 144 215.5 L 142 216 L 142 221 L 140.5 221 L 136 222 L 135 227.5 L 135.5 229 L 66.5 229 L 66 226 L 70 226 L 70 224 L 72 224 L 72 222 L 74 222 L 74 220 L 76 220 L 78 216 L 84 216 L 84 208 Q 78.7 209.3 79.5 206 L 75 206 Q 76.1 209.3 72 208 L 72 210.5 L 68 212 L 66.5 216 Q 62.3 214.9 64 219 L 60.5 219 L 59 220.5 L 59 229 L 1 228.5 L 6 227.5 L 4.5 225 L 8 227.5 L 7 225.5 L 8.5 224 L 16 224 L 16 220 L 12 220 L 12 216 Q 6.8 217.7 8 214 L 11.5 214 Q 10.7 210.8 16 212 L 16 208 L 12 208 Q 14.2 202.4 8.5 204 L 6.5 201 Q 5.3 203.3 4 200.5 L 6.5 200 L 8 199.5 L 8 197.5 L 7 192.5 L 14 192 L 16 196 L 24 196 L 24 190 L 26 190 L 26 188 L 28 188 L 28 186 L 32 184 L 32 188 Q 26 186 28 192 L 46 192 L 46 199.5 L 48 200.5 L 48 208 L 56 208 L 56 200 L 64 200 L 64 192 L 72 192 L 72 184 L 80 184 L 80 176 L 72.5 176 L 72 174 L 66 174 L 66 176 L 62 176 Q 63.5 179.7 60.5 179 L 59 180.5 L 58.5 188 Q 57.3 185.8 52.5 187 L 50 192 L 48 191.5 L 48 172.5 L 44 172 L 44 168 L 42.5 168 Q 41.2 165.7 36.5 167 L 35 171 L 30 172 L 30 174 L 27 174 Q 28.1 177.3 24 176 L 24 178.5 L 20 180 L 18.5 184 Q 13.9 182.8 16 188 L 12 188 Q 13.8 183.5 8.5 185 L 6 186.5 Q 9.5 185 8 178.5 L 7.5 177 L 12 178 L 12 176 L 8 176 Q 9.1 173.3 6.5 174 L 6.5 172 L 3.5 174 L 1 175.5 L 0 173.5 L 0 171.5 L 0 6.5 L 3 6 Q 1.7 11.3 5 10.5 L 5 16 L 10 16 L 10 10 L 14 10 Q 12.8 4.7 16 5.5 L 16 0 Z M 97 8 L 97 10 L 99 9 L 97 8 Z M 124 8 L 124 9 L 129 9 L 124 8 Z M 32 14 Q 33 18 28 16 L 27 20 L 25 20 L 25 23 Q 22 22 23 25 L 20 25 L 19 28 L 16 28 Q 18 33 14 32 L 14 40 Q 17 39 16 42 L 24 42 Q 23 39 26 40 L 26 34 L 30 34 L 32 30 L 34 30 L 34 26 Q 37 25 37 28 L 44 28 L 44 20 L 40 20 L 40 16 Q 37 17 38 14 L 32 14 Z M 183 14 Q 184 17 180 16 L 180 23 L 176 24 L 176 32 L 179 32 L 179 34 L 186 34 Q 185 31 188 32 L 188 26 L 192 24 L 192 16 Q 189 17 190 14 L 183 14 Z M 16 16 Q 14 22 20 20 Q 22 14 16 16 Z M 65 23 L 64 24 Q 60 23 62 27 L 61 27 Q 58 28 59 33 L 58 30 L 57 32 L 54 32 Q 55 29 52 30 L 51 33 L 52 39 L 48 40 L 46 40 L 46 44 L 41 44 L 41 47 Q 43 48 42 46 L 43 46 L 42 49 L 40 49 L 41 53 L 42 51 L 43 53 L 44 60 L 52 60 L 52 55 Q 59 56 62 53 L 64 49 L 64 47 L 60 48 L 60 42 L 64 40 L 64 38 L 66 38 Q 64 33 68 34 L 70 30 L 70 26 Q 73 27 72 24 Q 70 22 65 23 Z M 169 32 Q 170 35 167 37 L 167 40 L 160 40 L 160 44 L 176 44 Q 175 41 178 42 L 178 36 Q 175 36 176 32 L 169 32 Z M 25 59 L 23 61 Q 25 66 20 64 L 19 68 L 16 68 Q 18 73 14 72 Q 13 77 16 77 L 16 80 L 20 80 Q 19 77 22 78 L 22 74 Q 27 76 26 72 Q 29 71 28 74 Q 31 75 31 72 L 36 72 L 36 64 Q 30 66 32 60 Q 30 58 25 59 Z M 208 64 Q 206 70 212 68 Q 214 62 208 64 Z M 28 76 Q 26 82 32 80 Q 34 74 28 76 Z M 220 76 Q 218 82 224 80 Q 226 74 220 76 Z M 4 78 L 3 81 Q 2 87 4 90 L 12 90 Q 11 87 14 88 L 14 81 Q 11 81 12 78 L 4 78 Z M 190 78 L 187 80 L 190 80 L 190 78 Z M 80 84 L 80 87 L 82 86 Q 83 83 80 84 Z M 37 91 L 35 93 L 36 98 L 42 98 Q 41 95 44 96 L 44 92 Q 42 90 37 91 Z M 18 94 Q 19 98 14 96 Q 12 101 16 100 L 16 108 L 14 108 L 14 116 Q 17 115 16 120 L 28 120 L 28 113 L 26 112 L 28 108 L 30 108 L 30 106 L 34 106 L 34 99 Q 31 99 32 94 Q 27 92 28 96 L 21 96 Q 21 93 18 94 Z M 176 96 Q 174 102 180 100 Q 182 94 176 96 Z M 61 103 L 59 107 L 55 109 Q 56 112 52 110 L 52 112 L 48 112 L 48 116 Q 45 115 46 119 L 43 121 L 44 128 L 52 128 L 52 124 L 56 122 L 56 120 L 58 120 L 58 118 L 60 118 L 60 116 L 72 116 L 72 108 Q 66 110 68 104 L 61 103 Z M 217 103 L 215 107 L 211 109 L 211 110 L 208 110 Q 209 113 206 112 L 206 115 L 203 117 Q 204 120 201 119 L 199 123 L 195 125 L 196 130 L 208 130 Q 207 127 210 128 L 210 122 L 216 122 Q 215 119 218 120 L 218 114 Q 223 115 223 112 L 226 112 Q 227 107 224 108 L 224 104 Q 222 102 217 103 Z M 188 108 Q 186 114 192 112 Q 194 106 188 108 Z M 62 124 L 60 126 Q 59 130 64 128 Q 66 123 62 124 Z M 64 128 Q 62 134 68 132 Q 70 126 64 128 Z M 29 135 L 27 139 L 23 141 L 23 142 L 18 142 L 18 144 L 14 144 L 14 151 Q 9 149 7 153 Q 5 159 8 161 Q 6 166 12 164 L 12 168 L 16 168 Q 15 163 18 164 L 18 160 L 22 160 L 22 154 L 26 152 L 26 150 Q 29 149 28 152 L 30 152 L 30 146 L 34 144 L 34 136 L 29 135 Z M 208 144 Q 206 150 212 148 Q 214 142 208 144 Z M 220 156 Q 218 162 224 160 Q 226 154 220 156 Z M 16 176 Q 14 182 20 180 Q 22 174 16 176 Z M 176 176 Q 174 182 180 180 Q 182 174 176 176 Z M 208 176 L 208 178 L 214 178 L 214 176 L 208 176 Z M 140 178 L 140 183 Q 136 182 135 185 L 132 185 L 132 192 L 128 192 L 129 196 L 144 196 L 144 179 L 140 178 Z M 156 192 L 156 194 L 158 193 L 156 192 Z M 64 208 Q 62 214 68 212 Q 70 206 64 208 Z M 25 215 L 23 219 L 19 221 Q 21 226 16 224 L 16 228 L 32 228 L 32 224 L 34 224 L 35 220 L 34 217 L 34 215 L 25 215 Z M 105 215 L 103 219 L 99 221 L 100 226 L 110 226 Q 109 223 114 224 Q 115 219 112 220 L 112 216 Q 110 214 105 215 Z M 76 220 Q 74 226 80 224 Q 82 218 76 220 Z " /><path fill="rgb(255,255,255)" stroke="rgb(255,255,255)" stroke-width="1" opacity="1" d="M 85.5 8 Q 88.1 7.2 87 10.5 L 86 10.5 L 85.5 9 L 84 9.5 L 85.5 8 Z " /><path fill="rgb(255,255,255)" stroke="rgb(255,255,255)" stroke-width="1" opacity="1" d="M 88.5 9 L 89.5 11 L 88.5 9 Z " /><path fill="rgb(255,255,255)" stroke="rgb(255,255,255)" stroke-width="1" opacity="1" d="M 82.5 10 L 81.5 12 L 82.5 10 Z " /><path fill="rgb(255,255,255)" stroke="rgb(255,255,255)" stroke-width="1" opacity="1" d="M 96.5 12 L 97 14 L 95 13.5 L 96.5 12 Z " /><path fill="rgb(255,255,255)" stroke="rgb(255,255,255)" stroke-width="1" opacity="1" d="M 105.5 12 L 106 15.5 L 105 15.5 L 105.5 12 Z " /><path fill="rgb(255,255,255)" stroke="rgb(255,255,255)" stroke-width="1" opacity="1" d="M 82.5 13 L 85 13.5 L 82.5 14 L 82.5 13 Z " /><path fill="rgb(255,255,255)" stroke="rgb(255,255,255)" stroke-width="1" opacity="1" d="M 112.5 15 L 115 15.5 L 111 17.5 L 109.5 20 L 108 17.5 L 112.5 15 Z " /><path fill="rgb(255,255,255)" stroke="rgb(255,255,255)" stroke-width="1" opacity="1" d="M 117.5 15 L 124 16 L 126.5 20 L 129 20 L 129.5 18 L 135 18 Q 133.8 23.3 137 22.5 L 137 27 Q 134 26 135 29 L 130 29 L 130 32 L 128 32 L 128 36 Q 124.7 34.9 126 39 L 121.5 39 L 119 40 L 119 49.5 L 118 50.5 L 118.5 52 Q 115.8 50.8 118 49.5 Q 118.9 46.5 114.5 48 L 111.5 49 L 108.5 48 L 106 49.5 L 106.5 48 L 96 48 L 96 32 Q 99.1 31.3 98.5 34 L 104 34 Q 103 31 106 32 L 106 28 Q 111.3 29.3 110.5 26 L 116 26 L 116 20 L 112 19.5 L 118 16.5 L 117.5 15 Z M 123 19 L 123 21 L 125 20 L 123 19 Z " /><path fill="rgb(255,255,255)" stroke="rgb(255,255,255)" stroke-width="1" opacity="1" d="M 53.5 44 L 56 44.5 L 56 46.5 Q 56.8 48.8 54.5 48 L 54.5 46 L 52 45.5 L 53.5 44 Z " /><path fill="rgb(255,255,255)" stroke="rgb(255,255,255)" stroke-width="1" opacity="1" d="M 46.5 45 L 48 48 L 46 47.5 L 46.5 45 Z " /><path fill="rgb(255,255,255)" stroke="rgb(255,255,255)" stroke-width="1" opacity="1" d="M 104 51 L 106 51.5 L 104 52.5 L 104 51 Z " /><path fill="rgb(255,255,255)" stroke="rgb(255,255,255)" stroke-width="1" opacity="1" d="M 111.5 52 L 112.5 54 L 111.5 52 Z " /><path fill="rgb(255,255,255)" stroke="rgb(255,255,255)" stroke-width="1" opacity="1" d="M 141.5 52 L 142 54.5 L 142.5 56 L 143.5 53 L 145.5 55 L 148 53.5 L 147.5 55 L 150.5 53 L 151 55 L 144 56.5 L 146 57 Q 147.5 60.7 144.5 60 L 141 61 L 140.5 64 L 128 64 L 128 56 L 124.5 56 L 125.5 54 L 139.5 54 L 141.5 52 Z " /><path fill="rgb(255,255,255)" stroke="rgb(255,255,255)" stroke-width="1" opacity="1" d="M 152 54 Q 155 53 154 56 Q 151 57 152 54 Z " /><path fill="rgb(255,255,255)" stroke="rgb(255,255,255)" stroke-width="1" opacity="1" d="M 152.5 60 L 155 61.5 L 153.5 62 L 152.5 60 Z " /><path fill="rgb(255,255,255)" stroke="rgb(255,255,255)" stroke-width="1" opacity="1" d="M 161.5 60 L 159.5 63 L 161.5 60 Z " /><path fill="rgb(255,255,255)" stroke="rgb(255,255,255)" stroke-width="1" opacity="1" d="M 194.5 60 L 193.5 62 L 194.5 60 Z " /><path fill="rgb(255,255,255)" stroke="rgb(255,255,255)" stroke-width="1" opacity="1" d="M 156 61 L 158 61.5 L 156 62.5 L 156 61 Z " /><path fill="rgb(255,255,255)" stroke="rgb(255,255,255)" stroke-width="1" opacity="1" d="M 111.5 63 L 110.5 65 L 111.5 63 Z " /><path fill="rgb(255,255,255)" stroke="rgb(255,255,255)" stroke-width="1" opacity="1" d="M 153.5 63 L 155.5 66 L 158 66.5 L 156 67 L 157 72.5 L 155.5 72 L 153.5 73 L 152 72.5 Q 152.5 75.5 145.5 74 L 142 72.5 L 146 72 Q 147.5 68.3 144.5 69 L 144.5 68 L 149 67.5 L 148.5 66 Q 152.9 67.5 152 64.5 L 153.5 63 Z " /><path fill="rgb(255,255,255)" stroke="rgb(255,255,255)" stroke-width="1" opacity="1" d="M 184.5 65 L 185 67.5 L 184 67.5 L 184.5 65 Z " /><path fill="rgb(255,255,255)" stroke="rgb(255,255,255)" stroke-width="1" opacity="1" d="M 59.5 66 L 62 66.5 L 59 68 L 59.5 66 Z " /><path fill="rgb(255,255,255)" stroke="rgb(255,255,255)" stroke-width="1" opacity="1" d="M 64.5 66 L 66.5 67 L 71.5 66 L 71.5 67 L 65.5 68 L 64.5 66 Z " /><path fill="rgb(255,255,255)" stroke="rgb(255,255,255)" stroke-width="1" opacity="1" d="M 76.5 66 L 95.5 66 L 97 67.5 L 95 68.5 L 95.5 67 L 76.5 67 L 76.5 66 Z " /><path fill="rgb(255,255,255)" stroke="rgb(255,255,255)" stroke-width="1" opacity="1" d="M 128.5 66 L 139 66.5 L 128.5 67 L 127.5 68 L 128.5 66 Z " /><path fill="rgb(255,255,255)" stroke="rgb(255,255,255)" stroke-width="1" opacity="1" d="M 194.5 66 Q 198.9 64.5 198 67.5 L 195 68.5 L 196 73.5 L 195 73.5 L 194.5 72 L 193.5 74 L 193 72 Q 190.3 70.9 191 73.5 L 190 73.5 Q 190.7 70.9 188 72 L 188 69.5 Q 189.6 66.6 195 67.5 L 194.5 66 Z " /><path fill="rgb(255,255,255)" stroke="rgb(255,255,255)" stroke-width="1" opacity="1" d="M 93.5 68 L 93.5 71 Q 91.3 71.8 92 69.5 L 93.5 68 Z " /><path fill="rgb(255,255,255)" stroke="rgb(255,255,255)" stroke-width="1" opacity="1" d="M 130.5 68 L 132.5 69 L 134 68.5 Q 132.8 71.3 131.5 69 L 130.5 68 Z " /><path fill="rgb(255,255,255)" stroke="rgb(255,255,255)" stroke-width="1" opacity="1" d="M 90.5 72 Q 92.8 71.3 92 73.5 L 90.5 72 Z " /><path fill="rgb(255,255,255)" stroke="rgb(255,255,255)" stroke-width="1" opacity="1" d="M 180.5 72 Q 182.8 71.3 182 73.5 L 179.5 74 L 175.5 75 L 175 73 L 180.5 72 Z " /><path fill="rgb(255,255,255)" stroke="rgb(255,255,255)" stroke-width="1" opacity="1" d="M 197.5 72 L 199 76.5 L 198 76.5 L 197.5 75 L 196 75.5 L 197.5 72 Z " /><path fill="rgb(255,255,255)" stroke="rgb(255,255,255)" stroke-width="1" opacity="1" d="M 89.5 74 L 90 76 L 88 75.5 L 89.5 74 Z " /><path fill="rgb(255,255,255)" stroke="rgb(255,255,255)" stroke-width="1" opacity="1" d="M 153.5 74 Q 156.3 75.3 154 76.5 L 152.5 82 L 151 76 L 154 75.5 L 153.5 74 Z " /><path fill="rgb(255,255,255)" stroke="rgb(255,255,255)" stroke-width="1" opacity="1" d="M 187.5 74 L 186.5 76 L 185 75.5 L 187.5 74 Z " /><path fill="rgb(255,255,255)" stroke="rgb(255,255,255)" stroke-width="1" opacity="1" d="M 138.5 76 L 142.5 77 L 144.5 76 L 144.5 77 L 139.5 79 L 139.5 78 L 141 77.5 L 138.5 77 L 137 77.5 L 138.5 76 Z " /><path fill="rgb(255,255,255)" stroke="rgb(255,255,255)" stroke-width="1" opacity="1" d="M 157.5 77 L 159 77.5 L 156 79.5 L 157.5 77 Z " /><path fill="rgb(255,255,255)" stroke="rgb(255,255,255)" stroke-width="1" opacity="1" d="M 143.5 80 Q 147 82 142.5 84 L 143 82.5 L 143.5 80 Z " /><path fill="rgb(255,255,255)" stroke="rgb(255,255,255)" stroke-width="1" opacity="1" d="M 22.5 98 L 24 102.5 Q 22.8 105.3 21.5 103 L 18 104 L 18 102 L 20 102 L 20 100 Q 22.8 101 22.5 98 Z " /><path fill="rgb(255,255,255)" stroke="rgb(255,255,255)" stroke-width="1" opacity="1" d="M 142.5 143 L 144 143.5 L 142 144.5 L 143.5 147 L 141 146 L 142.5 143 Z " /><path fill="rgb(255,255,255)" stroke="rgb(255,255,255)" stroke-width="1" opacity="1" d="M 82.5 144 L 83 145.5 L 81 146.5 L 82.5 144 Z " /><path fill="rgb(255,255,255)" stroke="rgb(255,255,255)" stroke-width="1" opacity="1" d="M 142.5 152 L 143 153.5 L 139.5 155 L 140.5 153 L 142.5 152 Z " /><path fill="rgb(255,255,255)" stroke="rgb(255,255,255)" stroke-width="1" opacity="1" d="M 84.5 154 L 84.5 156 L 86 156.5 L 84.5 157 L 82 155.5 L 84.5 154 Z " /><path fill="rgb(255,255,255)" stroke="rgb(255,255,255)" stroke-width="1" opacity="1" d="M 89.5 163 L 88.5 165 L 89.5 163 Z " /><path fill="rgb(255,255,255)" stroke="rgb(255,255,255)" stroke-width="1" opacity="1" d="M 126 174 L 128 174.5 L 126 175.5 L 126 174 Z " /><path fill="rgb(255,255,255)" stroke="rgb(255,255,255)" stroke-width="1" opacity="1" d="M 1.5 177 L 2 179 L 4 179.5 L 1.5 183 L 0 182.5 L 2 181.5 Q -1.5 180 1 178.5 L 1.5 177 Z " /><path fill="rgb(255,255,255)" stroke="rgb(255,255,255)" stroke-width="1" opacity="1" d="M 0.5 184 L 2 184 L 2 189 Q 5 188 4 191 L 2 191.5 L 3 193.5 L 2.5 196 L 1 195.5 L 2.5 198 L 5 198.5 L 2.5 199 L 0 198.5 L 1 194.5 L 0 192.5 L 1 188.5 L 1 186.5 L 0.5 184 Z " /><path fill="rgb(255,255,255)" stroke="rgb(255,255,255)" stroke-width="1" opacity="1" d="M 177.5 192 L 179 195.5 L 176 193.5 L 177.5 192 Z " /><path fill="rgb(255,255,255)" stroke="rgb(255,255,255)" stroke-width="1" opacity="1" d="M 172.5 196 L 173.5 198 L 172.5 196 Z " /><path fill="rgb(255,255,255)" stroke="rgb(255,255,255)" stroke-width="1" opacity="1" d="M 180.5 196 L 180 197.5 L 179.5 199 L 179 197.5 L 180.5 196 Z " /><path fill="rgb(255,255,255)" stroke="rgb(255,255,255)" stroke-width="1" opacity="1" d="M 182.5 198 L 183.5 200 L 182.5 198 Z " /><path fill="rgb(255,255,255)" stroke="rgb(255,255,255)" stroke-width="1" opacity="1" d="M 201.5 201 L 202 204 L 200 203.5 L 201.5 201 Z " /><path fill="rgb(255,255,255)" stroke="rgb(255,255,255)" stroke-width="1" opacity="1" d="M 191.5 202 L 190.5 204 L 191.5 202 Z " /><path fill="rgb(255,255,255)" stroke="rgb(255,255,255)" stroke-width="1" opacity="1" d="M 0.5 209 L 1.5 211 L 0.5 209 Z " /><path fill="rgb(255,255,255)" stroke="rgb(255,255,255)" stroke-width="1" opacity="1" d="M 0.5 221 L 3 224.5 L 1 224.5 L 2 226.5 L 0 227 L 1 223.5 L 0.5 221 Z " /><path fill="rgb(255,255,255)" stroke="rgb(255,255,255)" stroke-width="1" opacity="1" d="M 226 226 Q 230.5 224.5 229 229 L 224 228.5 L 226 228 L 226 226 Z " /></svg>