<svg width="277" height="216" version="1.1" xmlns="http://www.w3.org/2000/svg" desc="Created with imagetracer.js version 1.2.6" ><path fill="rgb(245,245,235)" stroke="rgb(245,245,235)" stroke-width="1" opacity="1" d="M 42 0 L 46 0.5 Q 43.5 2 47 3.5 Q 46.2 11.8 49.5 16 L 51 15.5 Q 51.2 26.8 57 32.5 L 57 41.5 L 58.5 48 L 59.5 46 L 60 47.5 L 59 50.5 L 65 63 L 72 66.5 Q 71.3 68.8 73.5 68 L 79.5 76 Q 83.5 75.5 84 78.5 L 92.5 88 L 105.5 97 L 109.5 97 L 113.5 101 L 119.5 104 L 123.5 104 L 129.5 108 L 135.5 108 L 151.5 112 L 174.5 112 L 193.5 108 L 196.5 106 L 205.5 104 Q 209 100.5 215.5 100 L 225.5 93 L 230.5 92 L 243.5 85 L 249.5 84 L 253.5 80 L 260.5 80 L 268.5 77 L 267.5 79 L 256.5 82 L 229.5 95 L 224 96 Q 225.1 98.7 222.5 98 L 204.5 107 L 187.5 112 L 182.5 112 L 176.5 114 L 151.5 114 L 129.5 110 L 112.5 103 L 94.5 92 L 72 70.5 L 67.5 65 L 61 59.5 L 56 45.5 L 56 32.5 L 50 25.5 L 49 16.5 L 43 9.5 L 43 7.5 L 41.5 4 L 36.5 6 L 36.5 5 L 42 1.5 L 42 0 Z " /><path fill="rgb(245,245,235)" stroke="rgb(245,245,235)" stroke-width="1" opacity="1" d="M 33.5 7 L 35 7.5 L 32.5 9 L 33.5 7 Z " /><path fill="rgb(245,245,235)" stroke="rgb(245,245,235)" stroke-width="1" opacity="1" d="M 24.5 9 L 26 13 L 24 12.5 L 25 10.5 L 24.5 9 Z " /><path fill="rgb(245,245,235)" stroke="rgb(245,245,235)" stroke-width="1" opacity="1" d="M 22 18 Q 25 16.8 24 20.5 L 22 21.5 L 22 18 Z " /><path fill="rgb(245,245,235)" stroke="rgb(245,245,235)" stroke-width="1" opacity="1" d="M 21.5 27 L 22 28.5 L 21.5 30 Q 24.1 29.2 23 32.5 L 26 35.5 L 28 42.5 L 27 43.5 L 26 55.5 L 21 66.5 L 16 72.5 L 10 87.5 L 10 108.5 L 16 127.5 L 24 143.5 L 45 170 L 47 170 L 47 172 L 49 172 Q 47.9 174.7 50.5 174 L 65.5 187 L 84.5 199 L 87 199 Q 85.9 201.7 88.5 201 L 92.5 207 L 110.5 212 L 112.5 212 L 134.5 213 L 135.5 214 L 173.5 214 L 174.5 213 L 192.5 212 L 203.5 208 L 208 208 L 209 205.5 Q 203.8 203.2 207.5 201 L 223 190 Q 221.9 187.3 224.5 188 L 231 180 Q 233.7 181.1 233 178.5 L 245 163.5 L 248.5 153 L 249 157.5 L 242.5 172 L 237 175.5 L 237 177.5 L 232 184 L 228 186.5 Q 227.3 188.8 229.5 188 L 231.5 187 L 234 188 L 234 192 L 236 192 L 236 194 L 238 194 Q 236.9 196.7 239.5 196 Q 243.4 201.8 242 212 L 231.5 213 L 222.5 216 L 76.5 216 Q 75.3 212.8 69.5 214 L 67.5 215 L 61 209.5 L 60 206 L 57 206 L 57 201 L 61 198.5 L 59 198 L 59 194 Q 64.2 195.7 63 192 Q 59.3 193.2 61 188 L 65 187.5 L 63 187 Q 64.3 184 60.5 185 L 53 179 Q 54.1 176.3 51.5 177 L 48 176 L 45.5 171 L 44 171.5 L 42.5 168 L 40 166.5 L 38.5 164 L 36 162.5 L 33 157 Q 30.3 158.1 31 155.5 Q 23.2 146.9 19 136 L 16 134.5 L 16 132.5 L 11 116 L 9 115.5 L 9 105.5 L 8 104.5 L 8 95.5 L 9 94.5 L 9 85.5 L 12 77.5 L 12.5 72 L 15 73 L 16 68.5 L 24 56.5 L 26 49.5 L 26 39.5 L 20 29.5 L 21.5 27 Z M 67 189 L 66 192 L 67 192 L 67 189 Z " /><path fill="rgb(245,245,235)" stroke="rgb(245,245,235)" stroke-width="1" opacity="1" d="M 270.5 76 L 272 78.5 L 271 78.5 L 270.5 76 Z " /><path fill="rgb(245,245,235)" stroke="rgb(245,245,235)" stroke-width="1" opacity="1" d="M 274.5 80 Q 277.8 78.9 277 81.5 L 275.5 81 L 274.5 80 Z " /><path fill="rgb(245,245,235)" stroke="rgb(245,245,235)" stroke-width="1" opacity="1" d="M 276.5 108 L 277 112.5 Q 272.4 115.8 272 122 Q 269.3 120.9 270 123.5 L 266.5 129 Q 264.3 128.3 265 130.5 L 263 133.5 L 264 135.5 L 262.5 135 L 257 137 L 255.5 140 L 247 145.5 Q 249.7 147.3 245.5 149 L 246 147.5 L 245.5 146 L 244 146.5 L 264 129.5 Q 271.8 120.3 276.5 108 Z " /><path fill="rgb(254,254,254)" stroke="rgb(254,254,254)" stroke-width="1" opacity="1" d="M 0 0 L 41.5 0 L 42 1.5 L 36 5 Q 37.3 8 33.5 7 L 26.5 11 L 25 10.5 L 24 12.5 L 25 14.5 L 24 18 Q 20.7 16.7 22 21.5 L 23 24.5 L 23 26.5 L 21 31.5 L 26 39.5 L 26 49.5 L 24 56.5 L 16 68.5 L 15 73 L 12.5 72 L 12 77.5 L 9 85.5 L 8 104.5 L 9 105.5 L 9 116 Q 12 114.8 11 118.5 L 17 133.5 Q 14.7 134.8 17.5 136 Q 19.8 135.3 19 137.5 L 31 157 Q 33.7 155.9 33 158.5 L 37.5 164 L 40 165.5 L 41.5 168 L 44 169.5 L 44.5 172 L 46 171.5 L 48 176 L 53 177 Q 51.9 179.7 54.5 179 L 60.5 185 L 63 185 Q 61.9 187.7 64.5 187 L 64.5 188 Q 58.8 186.4 61 192 Q 64 191 63 194 Q 57 192 59 198 L 61 198.5 L 57 201 L 57 206 Q 60.7 204.5 60 207.5 L 64.5 213 L 68.5 215 Q 69.8 212.8 74.5 214 L 75.5 216 L 0 216 L 0 0 Z " /><path fill="rgb(254,254,254)" stroke="rgb(254,254,254)" stroke-width="1" opacity="1" d="M 46.5 0 L 277 0 L 277 80 Q 273.2 81 272 78.5 L 270.5 76 L 260.5 80 L 253.5 80 L 249.5 84 L 243.5 85 L 239.5 88 L 225.5 93 L 215.5 100 L 193.5 108 L 174.5 112 L 151.5 112 L 135.5 108 L 129.5 108 L 123.5 104 L 119.5 104 L 109.5 97 L 105.5 97 L 98.5 91 L 96.5 91 L 84 79.5 L 81.5 76 L 78 74.5 L 73.5 68 Q 71.3 68.8 72 66.5 L 65 63 L 61 56.5 L 61 53.5 L 58 47.5 L 57 32.5 Q 51.1 26.4 50.5 15 Q 49.3 17.3 48 14.5 L 47 3.5 L 45 1.5 L 46.5 0 Z " /><path fill="rgb(254,254,254)" stroke="rgb(254,254,254)" stroke-width="1" opacity="1" d="M 276.5 113 L 277 216 L 223 215.5 L 231.5 213 L 242 212 Q 243.4 201.8 239.5 196 Q 236.9 196.7 238 194 L 236 194 L 236 192 L 234 192 L 234 188 L 232.5 188 L 230.5 187 L 228 188 L 230.5 184 Q 232.8 184.8 232 182.5 L 239.5 173 L 244 170.5 L 244 167.5 L 248 161.5 L 249 153.5 L 247.5 149 L 246 149.5 L 245 146.5 L 246 146.5 L 246.5 148 L 247.5 145 L 257 138.5 Q 256.3 136.3 258.5 137 L 262.5 135 L 264 135.5 L 263 133.5 L 265 129 L 269 126.5 L 270 122 Q 272.7 123.1 272 120.5 L 276.5 113 Z " /><path fill="rgb(254,254,254)" stroke="rgb(254,254,254)" stroke-width="1" opacity="1" d="M 66.5 189 L 67 191.5 L 66 191.5 L 66.5 189 Z " /><path fill="rgb(244,217,92)" stroke="rgb(244,217,92)" stroke-width="1" opacity="1" d="M 41.5 4 L 44 8.5 L 43 9.5 L 47 13.5 L 49 16.5 L 50 25.5 L 56 32.5 L 56 45.5 L 58 53.5 Q 60.6 60.9 66.5 65 L 72 69.5 L 86.5 85 Q 104.3 101.2 129.5 110 L 151.5 114 L 176.5 114 L 204.5 107 L 208.5 104 L 211.5 104 L 224 98 Q 222.8 95 226.5 96 L 242.5 88 L 247.5 87 L 251.5 84 L 265.5 80 L 270.5 77 L 269 79.5 L 268 81.5 L 269 83.5 L 251.5 100 L 249.5 100 L 245.5 104 L 240 106.5 Q 240.9 109.5 236.5 108 L 232.5 112 L 223.5 116 L 220.5 119 L 198.5 128 L 193.5 128 L 180.5 131 L 166.5 131 L 165.5 132 L 164.5 131 L 151.5 131 L 147.5 129 L 138.5 129 L 112.5 120 L 103.5 113 L 98.5 112 L 82 97.5 L 64 75.5 L 63 68.5 L 64 68.5 Q 63.1 71.5 67.5 70 L 66.5 68 L 64 66.5 L 55 48.5 L 54 32.5 L 52.5 31 L 49.5 32 L 49.5 31 Q 52.5 31.7 51 28 L 48 26.5 Q 49.7 21.7 45.5 23 L 42.5 24 L 40 23.5 L 39 17.5 L 36 11.5 L 36 9.5 L 35 7.5 L 38 6.5 Q 37.2 3.9 40.5 5 L 41.5 4 Z " /><path fill="rgb(244,217,92)" stroke="rgb(244,217,92)" stroke-width="1" opacity="1" d="M 31.5 9 L 33 11.5 L 29 14.5 L 29 17 Q 32.8 15.5 32 18.5 L 31.5 21 Q 28.5 21.7 30 18 L 28 18 L 27.5 22 L 26 21.5 L 27 25.5 L 25 25.5 Q 26 29.3 23 28 L 24.5 16 L 26 16.5 L 25 13.5 L 27 14.5 L 27.5 16 L 28 13.5 L 26.5 11 L 28.5 12 L 31 11 L 31.5 9 Z " /><path fill="rgb(244,217,92)" stroke="rgb(244,217,92)" stroke-width="1" opacity="1" d="M 29 22 Q 32 21 31 24 Q 28 25 29 22 Z " /><path fill="rgb(244,217,92)" stroke="rgb(244,217,92)" stroke-width="1" opacity="1" d="M 42.5 25 L 44 25 Q 42.5 28.8 45.5 28 L 45 29.5 L 44 32.5 Q 46.5 34 45 39.5 L 44 40.5 L 43.5 57 L 43 37.5 L 42 35.5 Q 46 33.5 42 31.5 L 41 26.5 L 42.5 25 Z " /><path fill="rgb(244,217,92)" stroke="rgb(244,217,92)" stroke-width="1" opacity="1" d="M 32.5 30 L 36 31.5 L 35.5 33 L 34.5 31 L 32.5 34 L 32.5 30 Z " /><path fill="rgb(244,217,92)" stroke="rgb(244,217,92)" stroke-width="1" opacity="1" d="M 23.5 32 L 26.5 34 L 28.5 33 L 33 38.5 L 32 40.5 L 35 41.5 Q 37.3 44.7 36 51.5 L 33.5 61 L 32 60.5 Q 32.7 63.1 30 62 L 30 64 L 36 65 Q 34.5 68.8 37.5 68 L 39.5 70 L 47.5 71 L 49 72.5 L 61 94.5 L 62 99.5 L 79 124 L 81 124 Q 79.9 126.7 82.5 126 Q 97.1 140.9 118.5 149 L 137.5 154 L 159.5 155 L 160.5 154 L 175.5 153 L 185.5 150 L 191.5 150 L 193.5 148 L 199.5 148 L 208.5 145 L 227.5 143 L 236 141 Q 235.3 144.4 238 145.5 L 236 146 Q 237.1 148.7 234.5 148 L 220.5 156 L 210.5 160 L 206.5 160 L 203.5 162 L 199.5 162 Q 196.5 165 190.5 165 L 181 170.5 Q 180.3 172.8 182.5 172 L 179.5 176 L 176.5 178 L 174.5 178 Q 170.1 181.1 161.5 180 L 156.5 183 L 137.5 183 L 135.5 181 L 124 180 L 124 172.5 Q 127 173.3 126 169 L 114.5 166 L 107.5 161 L 100 160 L 98.5 157 L 90 156 Q 88.9 153.3 91.5 154 L 91.5 153 L 89.5 153 L 75.5 141 L 72 140 Q 69.3 133.1 63 128.5 L 61 120 L 57 117.5 L 54.5 112 L 52 110.5 L 48 100 L 44.5 98 L 44 100 L 42 100.5 L 42 113.5 L 45 120.5 L 45 122.5 Q 44.3 124.8 46.5 124 L 48 128 Q 50.7 126.9 50 129.5 L 52 134 L 55 135.5 L 56.5 138 Q 59.8 136.9 59 139.5 L 61.5 143 L 68.5 144 L 70 145.5 L 73 154 L 76 154 L 76 160 L 86.5 160 L 87 161.5 L 88 161.5 L 88.5 160 L 89 164 Q 93.1 162.7 92 166 Q 87.8 165 88.5 168 L 76 168 Q 78.2 162.4 72.5 164 L 68 163 L 67.5 161 L 65.5 162 L 64 158 L 58 158 Q 59.2 154.3 54 156 L 54 153 L 48.5 153 L 46 152 L 45 159 L 49 160.5 L 49 163 L 44 163 L 44 164.5 L 46.5 169 L 47.5 168 L 51 171.5 Q 48.8 172.8 51.5 174 L 53.5 175 L 55.5 175 L 57 175.5 L 55 176.5 L 59.5 181 L 60.5 180 L 62 180.5 Q 59.8 181.8 62.5 183 L 78.5 194 L 98.5 202 L 106.5 207 L 123.5 211 L 166.5 212 L 187 208 L 187.5 206 L 189.5 207 Q 209.2 200.7 222.5 188 L 223 190 L 206 202.5 L 209 205.5 L 208 206.5 Q 208.9 209.9 203.5 208 L 200.5 210 L 185.5 213 L 174.5 213 L 173.5 214 L 135.5 214 L 134.5 213 L 118.5 213 L 111.5 211 L 109.5 212 L 96.5 209 L 90 204.5 Q 92.7 202.8 88.5 201 Q 85.9 201.7 87 199 L 84.5 199 L 65.5 187 L 49 174 L 49 172 L 47 172 L 47 170 Q 44.3 171.1 45 168.5 L 36 159.5 L 24 143.5 L 16 127.5 L 10 108.5 L 10 87.5 L 16 72.5 L 24 60.5 L 27 51.5 L 27 43.5 L 28 42.5 L 26 35.5 L 23.5 32 Z M 42 149 L 41 151 L 36 154 L 38 156 L 40 155 L 41 157 Q 38 156 39 160 L 41 159 L 44 161 L 44 159 Q 45 151 42 149 Z " /><path fill="rgb(244,217,92)" stroke="rgb(244,217,92)" stroke-width="1" opacity="1" d="M 271.5 79 Q 273.8 78.3 273 80.5 L 271.5 79 Z " /><path fill="rgb(244,217,92)" stroke="rgb(244,217,92)" stroke-width="1" opacity="1" d="M 274.5 81 Q 276.8 80.3 276 82.5 L 276.5 84 L 274.5 81 Z " /><path fill="rgb(244,217,92)" stroke="rgb(244,217,92)" stroke-width="1" opacity="1" d="M 276.5 104 L 277 107.5 Q 269.8 126.3 255.5 138 L 244 146.5 L 248 151.5 L 247 153.5 L 247 155.5 Q 247.7 161.2 245 163.5 L 233 180 Q 230.3 178.9 231 181.5 L 224 187.5 L 226.5 184 Q 228.8 184.8 228 182.5 L 240 167.5 L 245 156.5 L 242 151.5 L 244.5 153 L 246 152.5 L 242 149.5 L 244 148.5 L 240 146.5 L 239 143.5 L 241 144.5 L 241.5 147 L 243.5 144 Q 245 146.5 246.5 143 L 252 140 Q 250.9 137.3 253.5 138 L 258 134.5 Q 257.3 132.3 259.5 133 L 268 122.5 L 276.5 104 Z " /><path fill="rgb(234,182,20)" stroke="rgb(234,182,20)" stroke-width="1" opacity="1" d="M 37.5 6 L 37.5 9 L 36 8.5 L 37 10.5 L 36 13.5 L 39 17.5 Q 38.3 22.3 40.5 24 L 42.5 24 L 48 23 Q 47 26.8 49.5 28 L 51 28 Q 49.5 31.7 52.5 31 L 54 32.5 L 55 48.5 L 57 54.5 L 65.5 68 L 68 69.5 L 64 70 L 63.5 68 L 63 73.5 Q 73.6 90.9 88.5 104 L 98.5 112 L 101.5 112 L 112.5 120 Q 119 120.5 122.5 124 L 138.5 129 L 147.5 129 L 151.5 131 L 164.5 131 L 165.5 132 L 166.5 131 L 180.5 131 L 181.5 130 L 188.5 130 Q 191.8 127.3 198.5 128 L 218.5 120 L 223.5 116 L 232.5 112 L 236.5 108 L 240 108 L 241.5 105 L 251.5 100 L 269 83.5 L 268 81.5 L 270.5 78 L 272.5 81 L 274 80.5 L 275.5 83 L 277 82.5 L 277 86.5 L 277 103.5 L 268 122.5 L 259.5 133 Q 257.3 132.3 258 134.5 L 252 138 Q 253.1 140.7 250.5 140 L 244.5 145 Q 243.3 142.8 242 145.5 L 244 148.5 L 242 149.5 L 245.5 152 Q 246.8 149.8 248 152.5 L 247.5 154 L 246.5 152 L 244 153 L 245 157.5 L 240 167.5 L 228 184 L 224 186.5 Q 224.8 188.8 222.5 188 Q 209.1 201.1 188.5 207 L 187 206.5 Q 187.9 209.5 183.5 208 L 179.5 210 L 173.5 210 L 166.5 212 L 136.5 212 L 135.5 211 L 123.5 211 L 106.5 207 L 98.5 202 L 78.5 194 L 61 181.5 L 61.5 180 L 59.5 181 L 50 172.5 L 51 171.5 L 47.5 168 L 46 168.5 L 44 163 L 49 163 L 49 160.5 L 45 159 L 46 152 L 54 153 L 54 156 Q 59.3 154.8 58.5 158 L 64 158 L 64 160.5 L 66.5 162 L 68 161.5 Q 67.1 164.5 71.5 163 L 76 164 L 76.5 168 L 89 168 L 89 166 Q 93.1 167.3 92 164 Q 87.5 165.8 89 160.5 L 88 160.5 L 87.5 162 L 87 160 L 76 160 L 76 154 Q 72.3 155.5 73 152.5 L 68.5 144 Q 62.3 144.7 60 141.5 L 59 138 L 55 136.5 L 53.5 134 Q 51.3 134.8 52 132.5 L 50 128 Q 47 129.3 48 125.5 L 45 124 L 44 121.5 L 44 119.5 Q 44.6 114.9 42 113.5 L 42 100 Q 44.7 101.1 44 98.5 L 46.5 100 Q 48.8 99.3 48 101.5 L 53.5 112 L 56 113.5 Q 56.3 118.3 59.5 120 Q 61.8 119.3 61 121.5 L 63 128.5 Q 69.3 133.1 72 140 L 75.5 141 L 89.5 153 L 92 153.5 L 90 154 Q 88.7 157.7 94.5 156 L 100 158.5 Q 99.1 161.5 103.5 160 Q 110.7 161.3 114.5 166 L 126 169 Q 127 173.3 124 172.5 L 124 180 L 135.5 181 L 137.5 183 L 156.5 183 L 161.5 180 Q 171.3 181.3 175.5 177 Q 177 179.5 178.5 176 L 183 172.5 L 181 172 L 182.5 169 L 199.5 162 L 210.5 160 L 236 148 Q 234.9 145.3 237.5 146 L 236 143.5 Q 237.3 139.8 233.5 141 L 227.5 143 L 208.5 145 L 199.5 148 L 193.5 148 L 191.5 150 L 185.5 150 L 175.5 153 L 168.5 153 L 159.5 155 L 148.5 155 L 147.5 154 L 131.5 153 L 113.5 147 L 98.5 139 L 81 126 L 81 124 Q 78.3 125.1 79 122.5 L 65 104.5 L 54 80.5 L 47.5 71 Q 39.5 71.2 36 68 Q 37.5 64.3 34.5 65 L 30 64 L 30 62 Q 32.7 63.1 32 60.5 L 34 60.5 Q 33.4 54.4 36 51.5 L 36 43.5 L 33.5 40 L 32 40.5 L 33 38.5 L 28.5 33 L 25.5 34 Q 22 32.7 23 28 Q 26 29.3 25 25.5 L 26.5 21 L 28 21.5 Q 26.7 16.7 30 18 Q 28.5 21.8 31.5 21 L 32 18.5 Q 32.7 15.5 29 17 L 29 14.5 L 33 11.5 L 32 9 L 37.5 6 Z M 29 22 Q 28 25 31 24 Q 32 21 29 22 Z M 43 25 L 41 28 L 43 27 L 42 29 Q 41 32 44 33 L 45 30 L 46 28 Q 43 29 44 25 L 43 25 Z M 33 30 L 33 34 L 33 33 Q 35 31 33 30 Z M 45 33 L 42 36 L 43 38 L 44 57 L 44 41 L 45 40 L 45 33 Z M 241 144 L 240 147 L 241 147 L 241 144 Z " /><path fill="rgb(234,182,20)" stroke="rgb(234,182,20)" stroke-width="1" opacity="1" d="M 29.5 10 L 31 10.5 L 27 12.5 L 28 15.5 L 27 15.5 L 26.5 14 L 25.5 17 L 25 14.5 L 27.5 11 L 29.5 10 Z " /><path fill="rgb(234,182,20)" stroke="rgb(234,182,20)" stroke-width="1" opacity="1" d="M 30.5 38 L 29.5 40 L 30.5 38 Z " /><path fill="rgb(234,182,20)" stroke="rgb(234,182,20)" stroke-width="1" opacity="1" d="M 41.5 149 Q 45.3 151.3 44 158.5 L 43.5 161 L 40.5 159 L 39 159.5 Q 37.9 156.2 40.5 157 L 39.5 155 L 37.5 156 L 36 153.5 L 41 151 L 41.5 149 Z " /></svg>