<?xml version="1.0" encoding="UTF-8" standalone="no" ?>
<!DOCTYPE svg PUBLIC "-//W3C//DTD SVG 1.1//EN" "http://www.w3.org/Graphics/SVG/1.1/DTD/svg11.dtd">
<svg xmlns="http://www.w3.org/2000/svg" xmlns:xlink="http://www.w3.org/1999/xlink" version="1.1" width="823" height="400" viewBox="0 0 823 400" xml:space="preserve">
<desc>Created with Fabric.js 6.7.1</desc>
<defs>
</defs>
<rect x="0" y="0" width="100%" height="100%" fill="transparent"></rect>
<g transform="matrix(1 0 0 1 319.0105 141.0387)"  >
<path style="stroke: rgb(0,0,0); stroke-width: 3; stroke-dasharray: none; stroke-linecap: round; stroke-dashoffset: 0; stroke-linejoin: round; stroke-miterlimit: 10; fill: none; fill-rule: nonzero; opacity: 1;"  transform=" translate(-319.0105, -141.0387)" d="M 134.5168 126.0007 Q 134.5198 126.0037 135.5197 129.4973 Q 136.5197 132.9909 138.0196 140.4772 Q 139.5196 147.9636 142.5194 156.9472 Q 145.5193 165.9307 148.0192 171.9198 Q 150.5191 177.9089 153.519 185.8943 Q 156.5189 193.8797 161.0187 201.366 Q 165.5185 208.8524 167.0184 211.8469 Q 168.5184 214.8414 169.5183 216.3387 Q 170.5183 217.836 171.0182 217.836 Q 171.5182 217.836 173.0182 217.836 Q 174.5181 217.836 176.018 216.3387 Q 177.518 214.8414 179.5179 209.8505 Q 181.5178 204.8597 184.0177 199.8688 Q 186.5176 194.8779 187.5175 187.8906 Q 188.5175 180.9034 191.5174 173.9162 Q 194.5173 166.9289 197.0171 161.439 Q 199.517 155.949 202.0169 150.9581 Q 204.5168 145.9672 205.5168 143.4718 Q 206.5167 140.9763 207.0167 139.4791 Q 207.5167 137.9818 208.0167 137.9818 Q 208.5167 137.9818 209.0166 139.4791 Q 209.5166 140.9763 211.5165 144.969 Q 213.5165 148.9617 214.5164 152.9544 Q 215.5164 156.9472 217.5163 162.4371 Q 219.5162 167.9271 222.0161 171.9198 Q 224.516 175.9125 226.5159 180.9034 Q 228.5158 185.8943 230.0158 188.3897 Q 231.5157 190.8852 233.0156 193.3806 Q 234.5156 195.8761 235.5155 196.8742 Q 236.5155 197.8724 237.0155 197.8724 Q 237.5154 197.8724 239.0154 196.8742 Q 240.5153 195.8761 242.0153 191.8834 Q 243.5152 187.8906 244.5151 183.3988 Q 245.5151 178.9071 246.5151 173.9162 Q 247.515 168.9253 250.0149 163.4353 Q 252.5148 157.9453 254.0147 152.4554 Q 255.5147 146.9654 257.0146 141.4754 Q 258.5146 135.9854 259.0145 133.9891 Q 259.5145 131.9927 261.0144 129.4973 Q 262.5144 127.0018 262.5144 126.0037 Q 262.5144 125.0055 262.5144 124.5064 Q 262.5144 124.0073 263.0144 124.0073 Q 263.5143 124.0073 264.0143 124.0073 Q 264.5143 124.0073 265.5143 124.0073 Q 266.5142 124.0073 269.0141 125.5046 Q 271.514 127.0018 275.0139 130.9946 Q 278.5137 134.9873 283.5135 139.9781 Q 288.5133 144.969 293.0131 149.9599 Q 297.5129 154.9508 303.0127 159.4426 Q 308.5124 163.9344 313.5122 165.9307 Q 318.512 167.9271 325.0117 170.9216 Q 331.5115 173.9162 336.5113 176.4116 Q 341.5111 178.9071 347.0108 180.9034 Q 352.5106 182.8998 356.0104 182.8998 Q 359.5103 182.8998 364.5101 181.4025 Q 369.5099 179.9052 373.0097 176.9107 Q 376.5096 173.9162 380.5094 168.9253 Q 384.5092 163.9344 388.0091 157.9453 Q 391.5089 151.9563 394.0088 144.969 Q 396.5087 137.9818 400.0086 129.4973 Q 403.5084 121.0128 406.5083 111.5301 Q 409.5082 102.0474 410.5081 94.5611 Q 411.5081 87.0748 413.508 81.0857 Q 415.5079 75.0966 416.5079 72.1021 Q 417.5078 69.1076 417.5078 67.1112 Q 417.5078 65.1149 417.5078 64.6158 Q 417.5078 64.1167 418.5078 64.6158 Q 419.5078 65.1149 422.0077 71.1039 Q 424.5076 77.093 426.5075 83.0821 Q 428.5074 89.0711 431.5073 96.0584 Q 434.5071 103.0456 437.007 110.0328 Q 439.5069 117.0201 442.5068 123.0091 Q 445.5067 128.9982 448.0066 134.9873 Q 450.5065 140.9763 452.5064 145.9672 Q 454.5063 150.9581 456.5062 155.4499 Q 458.5061 159.9417 459.0061 161.439 Q 459.5061 162.9362 460.0061 162.9362 Q 460.506 162.9362 461.006 163.4353 Q 461.506 163.9344 462.006 163.4353 Q 462.5059 162.9362 462.5059 158.4444 Q 462.5059 153.9526 462.5059 148.9617 Q 462.5059 143.9709 462.5059 137.9818 Q 462.5059 131.9927 462.5059 125.0055 Q 462.5059 118.0182 463.5059 112.5283 Q 464.5059 107.0383 465.0058 101.5483 Q 465.5058 96.0584 465.5058 92.5647 Q 465.5058 89.0711 466.0058 86.5757 Q 466.5058 84.0802 466.5058 83.0821 Q 466.5058 82.0839 468.0057 84.5793 Q 469.5057 87.0748 470.5056 92.0656 Q 471.5056 97.0565 474.0055 103.5447 Q 476.5054 110.0328 479.5052 116.521 Q 482.5051 123.0091 485.505 128.9982 Q 488.5049 134.9873 490.0048 139.4791 Q 491.5047 143.9709 494.0046 148.9617 Q 496.5045 153.9526 498.0045 157.4462 Q 499.5044 160.9399 499.5044 162.4371 Q 499.5044 163.9344 500.0044 164.9326 Q 500.5043 165.9307 501.0043 165.9307 Q 501.5043 165.9307 502.0043 165.9307 Q 502.5043 165.9307 503.0042 165.9307 Q 503.5042 165.9307 503.5042 163.4353 Q 503.5042 160.9399 503.5042 159.4426 L 503.5042 157.9423" stroke-linecap="round" />
</g>
<g transform="matrix(1 0 0 1 327.1089 167.428)"  >
<path style="stroke: rgb(0,0,0); stroke-width: 6; stroke-dasharray: none; stroke-linecap: round; stroke-dashoffset: 0; stroke-linejoin: round; stroke-miterlimit: 10; fill: none; fill-rule: nonzero; opacity: 1;"  transform=" translate(-327.1089, -167.428)" d="M 25.5184 187.8906 Q 25.5244 187.8906 27.0243 187.8906 Q 28.5243 187.8906 31.5241 187.8906 Q 34.524 187.8906 41.5237 187.8906 Q 48.5234 187.8906 59.5229 187.8906 Q 70.5225 187.8906 90.5216 186.8925 Q 110.5208 185.8943 136.5197 181.9016 Q 162.5186 177.9089 193.5173 174.4153 Q 224.516 170.9216 258.5146 162.9362 Q 292.5131 154.9508 323.5118 151.4572 Q 354.5105 147.9636 386.5092 143.4718 Q 418.5078 138.98 451.0064 133.49 Q 483.5051 128 510.0039 124.0073 Q 536.5028 120.0146 555.502 116.0219 Q 574.5012 112.0292 587.0007 111.031 Q 599.5002 110.0328 606.9999 109.0347 Q 614.4995 108.0365 616.9994 108.0365 Q 619.4993 108.0365 619.9993 107.5374 Q 620.4993 107.0383 619.9993 107.0383 Q 619.4993 107.0383 618.4994 107.0383 Q 617.4994 107.0383 615.4995 107.5374 Q 613.4996 108.0365 609.9997 110.0328 Q 606.4999 112.0292 601.0001 114.0255 Q 595.5003 116.0219 589.0006 119.5155 Q 582.5009 123.0091 573.0013 126.0037 Q 563.5017 128.9982 549.5023 135.4863 Q 535.5029 141.9745 517.5036 146.9654 Q 499.5044 151.9563 475.5054 157.9453 Q 451.5064 163.9344 426.0075 171.4207 Q 400.5086 178.9071 370.0099 187.8906 Q 339.5111 196.8742 312.5123 204.3606 Q 285.5134 211.8469 256.0147 219.3332 Q 226.5159 226.8196 202.0169 235.3041 Q 177.518 243.7886 159.5187 248.7794 Q 141.5195 253.7703 129.02 257.763 Q 116.5205 261.7557 111.0208 262.7539 Q 105.521 263.7521 101.0212 266.2475 Q 96.5214 268.743 99.5213 268.743 Q 102.5211 268.743 111.0208 268.743 Q 119.5204 268.743 136.0197 268.743 Q 152.519 268.743 176.518 268.743 Q 200.517 268.743 231.0157 268.743 Q 261.5144 268.743 290.5132 264.7503 Q 319.512 260.7576 352.5106 255.2676 Q 385.5092 249.7776 419.0078 245.2858 Q 452.5064 240.794 480.5052 236.3022 Q 508.504 231.8104 534.5029 229.315 Q 560.5018 226.8196 581.5009 221.8287 Q 602.5 216.8378 611.9996 212.8451 Q 621.4992 208.8524 626.999 207.3551 Q 632.4988 205.8578 633.4987 204.8597 Q 634.4987 203.8615 633.4987 203.8615 Q 632.4988 203.8615 627.999 203.8615 Q 623.4992 203.8615 613.4996 203.8615 Q 603.5 203.8615 585.5008 203.8615 Q 567.5015 203.8615 540.5027 203.8615 Q 513.5038 203.8615 489.5048 203.8615 Q 465.5058 203.8615 438.007 203.8615 Q 410.5081 203.8615 378.0095 207.8542 Q 345.5109 211.8469 314.5122 217.836 Q 283.5135 223.825 251.5148 227.8177 Q 219.5162 231.8104 187.0176 237.7995 Q 154.5189 243.7886 133.0198 245.2858 Q 111.5208 246.7831 96.5214 250.2767 Q 81.522 253.7703 78.0222 254.2694 Q 74.5223 254.7685 79.0221 251.774 Q 83.5219 248.7794 92.5216 244.7867 Q 101.5212 240.794 118.5205 234.3059 Q 135.5197 227.8177 151.5191 220.3314 Q 167.5184 212.8451 186.5176 204.8597 Q 205.5168 196.8742 224.016 188.8888 Q 242.5152 180.9034 262.5144 173.4171 Q 282.5135 165.9307 302.5127 157.4462 Q 322.5119 148.9617 340.0111 140.4772 Q 357.5104 131.9927 370.0099 127.0018 Q 382.5093 122.011 391.009 118.5173 Q 399.5086 115.0237 403.5084 112.5283 Q 407.5083 110.0328 406.5083 110.0328 Q 405.5084 110.0328 400.0086 110.0328 Q 394.5088 110.0328 383.0093 113.5265 Q 371.5098 117.0201 351.5106 122.011 Q 331.5115 127.0018 307.0125 129.9964 Q 282.5135 132.9909 254.5147 136.9836 Q 226.5159 140.9763 198.5171 146.4663 Q 170.5183 151.9563 144.5194 154.4517 Q 118.5205 156.9472 93.5215 160.9399 Q 68.5226 164.9326 50.5233 169.9235 Q 32.5241 174.9143 27.0243 175.9125 Q 21.5246 176.9107 20.5246 177.4098 Q 19.5246 177.9089 23.5245 177.9089 Q 27.5243 177.9089 40.5238 176.4116 Q 53.5232 174.9143 77.0222 169.4244 Q 100.5212 163.9344 133.0198 159.4426 Q 165.5185 154.9508 193.5173 150.9581 Q 221.5161 146.9654 249.015 142.4736 Q 276.5138 137.9818 304.5126 134.9873 Q 332.5114 131.9927 356.0104 128.9982 Q 379.5094 126.0037 397.0087 122.011 Q 414.508 118.0182 421.5077 117.5192 Q 428.5074 117.0201 431.5073 116.521 Q 434.5071 116.0219 432.5072 116.0219 Q 430.5073 116.0219 426.0075 116.0219 Q 421.5077 116.0219 414.008 117.5192 Q 406.5083 119.0164 397.0087 121.0128 Q 387.5091 123.0091 376.5096 126.0037 Q 365.51 128.9982 349.5107 132.4918 Q 333.5114 135.9854 318.012 140.4772 Q 302.5127 144.969 292.0131 148.4627 Q 281.5136 151.9563 274.0139 153.4535 Q 266.5142 154.9508 263.0144 156.4481 Q 259.5145 157.9453 259.0145 157.9453 Q 258.5146 157.9453 259.0145 157.9453 Q 259.5145 157.9453 265.5143 157.4462 Q 271.514 156.9472 281.5136 152.4554 Q 291.5132 147.9636 302.5127 144.969 Q 313.5122 141.9745 328.5116 136.4845 Q 343.511 130.9946 359.0103 124.5064 Q 374.5097 118.0182 390.509 110.5319 Q 406.5083 103.0456 423.5076 96.5574 Q 440.5069 90.0693 453.5063 84.0802 Q 466.5058 78.0912 473.0055 75.0966 Q 479.5052 72.1021 483.0051 70.1057 Q 486.5049 68.1094 488.0049 67.1112 Q 489.5048 66.113 487.0049 66.113 Q 484.505 66.113 482.0051 67.1112 Q 479.5052 68.1094 475.0054 70.1057 Q 470.5056 72.1021 465.5058 75.5957 Q 460.506 79.0893 456.0062 82.0839 Q 451.5064 85.0784 444.0067 89.5702 Q 436.507 94.062 431.0073 98.5538 Q 425.5075 103.0456 422.0077 106.0401 Q 418.5078 109.0347 416.5079 111.031 Q 414.508 113.0274 414.508 114.0255 Q 414.508 115.0237 415.008 115.0237 Q 415.5079 115.0237 417.5078 115.0237 Q 419.5078 115.0237 424.0076 115.0237 Q 428.5074 115.0237 434.0072 112.5283 Q 439.5069 110.0328 445.0067 107.0383 Q 450.5065 104.0438 455.0063 100.5502 Q 459.5061 97.0565 464.0059 94.5611 Q 468.5057 92.0656 472.5055 89.5702 Q 476.5054 87.0748 479.0053 85.5775 Q 481.5051 84.0802 482.0051 83.5811 Q 482.5051 83.0821 481.5051 83.5811 Q 480.5052 84.0802 478.5053 85.5775 Q 476.5054 87.0748 474.0055 88.572 Q 471.5056 90.0693 470.0056 92.5647 Q 468.5057 95.0602 464.5059 98.0547 Q 460.506 101.0492 456.0062 104.0438 Q 451.5064 107.0383 447.0066 111.031 Q 442.5068 115.0237 436.507 119.5155 Q 430.5073 124.0073 424.5076 127.5009 Q 418.5078 130.9946 410.0082 135.4863 Q 401.5085 139.9781 391.5089 145.4681 Q 381.5094 150.9581 371.0098 156.4481 Q 360.5103 161.938 350.5107 167.428 Q 340.5111 172.918 333.5114 175.9125 Q 326.5117 178.9071 322.0119 180.9034 Q 317.5121 182.8998 313.0123 185.8943 Q 308.5124 188.8888 305.5126 190.3861 Q 302.5127 191.8834 302.0127 191.8834 Q 301.5127 191.8834 301.0128 192.3824 Q 300.5128 192.8815 300.5128 193.3806 Q 300.5128 193.8797 300.5128 194.3788 Q 300.5128 194.8779 300.5128 196.3752 Q 300.5128 197.8724 300.0128 198.3715 Q 299.5128 198.8706 298.5129 199.8688 Q 297.5129 200.8669 297.0129 201.366 Q 296.513 201.8651 296.513 202.3642 Q 296.513 202.8633 295.513 203.3624 Q 294.513 203.8615 294.0131 204.3606 L 293.5071 204.8657" stroke-linecap="round" />
</g>
</svg>