<?xml version="1.0" encoding="UTF-8"?>
<svg xmlns="http://www.w3.org/2000/svg" viewBox="0 0 310 194" width="310" height="194">
  <path d="M 205 11 L 208 11 L 208 14 L 213 26 L 215 26 L 217 18 L 219 18 L 222 25 L 225 25 L 225 22 L 226 22 L 226 19 L 227 19 L 227 16 L 228 16 L 228 11 L 231 11" fill="none" stroke="#000000" stroke-width="1.5" stroke-linecap="round" stroke-linejoin="round"/>
  <path d="M 214 11 L 218 11 L 218 17" fill="none" stroke="#000000" stroke-width="1.5" stroke-linecap="round" stroke-linejoin="round"/>
  <path d="M 276 11 L 278 11 L 278 30" fill="none" stroke="#000000" stroke-width="1.5" stroke-linecap="round" stroke-linejoin="round"/>
  <path d="M 106 14 L 125 14 L 125 26 L 126 27 L 145 30 L 157 34 L 181 46 L 206 65 L 211 72 L 214 72 L 216 79 L 300 79 L 301 80 L 300 84 L 298 86 L 293 97 L 210 97 L 208 100 L 204 126 L 192 185 L 34 185 L 32 179 L 32 174 L 29 163 L 25 136 L 15 87 L 15 80 L 12 78 L 12 73 L 13 72 L 16 71 L 18 72 L 209 72" fill="none" stroke="#000000" stroke-width="1.5" stroke-linecap="round" stroke-linejoin="round"/>
  <path d="M 146 14 L 145 17 L 146 19 L 193 19" fill="none" stroke="#000000" stroke-width="1.5" stroke-linecap="round" stroke-linejoin="round"/>
  <path d="M 270 14 L 270 17 L 273 18" fill="none" stroke="#000000" stroke-width="1.5" stroke-linecap="round" stroke-linejoin="round"/>
  <path d="M 106 15 L 106 26 L 107 27 L 125 27" fill="none" stroke="#000000" stroke-width="1.5" stroke-linecap="round" stroke-linejoin="round"/>
  <path d="M 241 17 L 243 20 L 243 29 L 244 30" fill="none" stroke="#000000" stroke-width="1.5" stroke-linecap="round" stroke-linejoin="round"/>
  <path d="M 289 17 L 292 18 L 292 22 L 285 22 L 284 24 L 288 29 L 293 29 L 294 27" fill="none" stroke="#000000" stroke-width="1.5" stroke-linecap="round" stroke-linejoin="round"/>
  <path d="M 258 18 L 257 21 L 263 25 L 264 29 L 261 31 L 257 29" fill="none" stroke="#000000" stroke-width="1.5" stroke-linecap="round" stroke-linejoin="round"/>
  <path d="M 269 18 L 270 18 L 269 19 L 269 28 L 271 30 L 273 30" fill="none" stroke="#000000" stroke-width="1.5" stroke-linecap="round" stroke-linejoin="round"/>
  <path d="M 137 19 L 145 19 L 144 20 L 147 25" fill="none" stroke="#000000" stroke-width="1.5" stroke-linecap="round" stroke-linejoin="round"/>
  <path d="M 51 45 L 52 45 L 51 46 L 46 48 L 27 61 L 18 70" fill="none" stroke="#000000" stroke-width="1.5" stroke-linecap="round" stroke-linejoin="round"/>
  <path d="M 212 80 L 210 86 L 209 97" fill="none" stroke="#000000" stroke-width="1.5" stroke-linecap="round" stroke-linejoin="round"/>
</svg>