<?xml version="1.0" encoding="UTF-8" standalone="no" ?>
<!DOCTYPE svg PUBLIC "-//W3C//DTD SVG 1.1//EN" "http://www.w3.org/Graphics/SVG/1.1/DTD/svg11.dtd">
<svg xmlns="http://www.w3.org/2000/svg" xmlns:xlink="http://www.w3.org/1999/xlink" version="1.1" width="823" height="400" viewBox="0 0 823 400" xml:space="preserve">
<desc>Created with Fabric.js 6.7.1</desc>
<defs>
</defs>
<rect x="0" y="0" width="100%" height="100%" fill="transparent"></rect>
<g transform="matrix(1 0 0 1 411.5 200)"  >
	<image style="stroke: none; stroke-width: 0; stroke-dasharray: none; stroke-linecap: butt; stroke-dashoffset: 0; stroke-linejoin: miter; stroke-miterlimit: 4; fill: rgb(0,0,0); fill-rule: nonzero; opacity: 1;"  xlink:href="https://cdn.jsdelivr.net/gh/Habibullah-sekh/ncert-pdfs@main/question-assets/1765537476623-image.png" x="-404" y="-191" width="808" height="382"></image>
</g>
<g transform="matrix(1 0 0 1 351.0122 138.585)"  >
<path style="stroke: rgb(0,0,0); stroke-width: 3; stroke-dasharray: none; stroke-linecap: round; stroke-dashoffset: 0; stroke-linejoin: round; stroke-miterlimit: 10; fill: none; fill-rule: nonzero; opacity: 1;"  transform=" translate(-351.0122, -138.585)" d="M 252.5118 89.5857 Q 252.5148 89.5887 253.5148 89.0896 Q 254.5147 88.5905 256.0147 89.5887 Q 257.5146 90.5869 260.5145 96.0768 Q 263.5143 101.5668 266.0142 108.055 Q 268.5141 114.5431 272.014 123.5267 Q 275.5138 132.5103 279.0137 140.4957 Q 282.5135 148.4811 286.0134 156.9656 Q 289.5132 165.4502 292.5131 170.9401 Q 295.513 176.4301 298.5129 180.4228 Q 301.5127 184.4155 303.0127 185.9128 Q 304.5126 187.41 305.0126 187.9091 Q 305.5126 188.4082 306.0126 188.4082 Q 306.5125 188.4082 308.0125 187.9091 Q 309.5124 187.41 310.5124 186.4119 Q 311.5123 185.4137 313.0123 183.4173 Q 314.5122 181.421 316.0121 179.4246 Q 317.5121 177.4283 318.512 174.9328 Q 319.512 172.4374 322.0119 168.9438 Q 324.5118 165.4502 326.5117 161.4574 Q 328.5116 157.4647 331.0115 153.9711 Q 333.5114 150.4775 335.0113 147.9821 Q 336.5113 145.4866 338.0112 143.9893 Q 339.5111 142.4921 339.5111 141.993 Q 339.5111 141.4939 339.5111 140.9948 Q 339.5111 140.4957 340.0111 140.4957 Q 340.5111 140.4957 341.5111 141.993 Q 342.511 143.4903 344.5109 145.4866 Q 346.5108 147.483 350.5107 148.9802 Q 354.5105 150.4775 360.5103 150.9766 Q 366.51 151.4757 372.5097 152.4738 Q 378.5095 153.472 386.0092 153.472 Q 393.5089 153.472 398.0087 153.472 Q 402.5085 153.472 407.0083 152.4738 Q 411.5081 151.4757 415.5079 150.4775 Q 419.5078 149.4793 422.5076 147.483 Q 425.5075 145.4866 426.0075 145.4866 Q 426.5075 145.4866 427.5074 144.9875 Q 428.5074 144.4884 425.0075 144.4884 Q 421.5077 144.4884 417.0079 145.9857 Q 412.5081 147.483 407.0083 150.4775 Q 401.5085 153.472 395.0088 156.4666 Q 388.5091 159.4611 382.5093 161.4574 Q 376.5096 163.4538 369.5099 165.4502 Q 362.5102 167.4465 357.0104 169.9419 Q 351.5106 172.4374 347.0108 173.4356 Q 342.511 174.4337 339.5111 175.4319 Q 336.5113 176.4301 334.5113 176.4301 Q 332.5114 176.4301 330.5115 176.4301 Q 328.5116 176.4301 327.5116 176.4301 Q 326.5117 176.4301 326.0117 176.4301 Q 325.5117 176.4301 323.5118 175.4319 Q 321.5119 174.4337 319.012 172.9365 Q 316.5121 171.4392 313.0123 169.4429 Q 309.5124 167.4465 305.5126 165.4502 Q 301.5127 163.4538 296.513 161.4574 Q 291.5132 159.4611 283.5135 156.4666 Q 275.5138 153.472 269.0141 150.9766 Q 262.5144 148.4811 256.0147 147.483 Q 249.5149 146.4848 243.0152 144.4884 Q 236.5155 142.4921 230.5157 142.4921 Q 224.516 142.4921 219.5162 141.4939 Q 214.5164 140.4957 211.0166 140.4957 Q 207.5167 140.4957 205.0168 140.4957 Q 202.5169 140.4957 202.5169 139.9966 Q 202.5169 139.4975 203.0169 138.9985 Q 203.5169 138.4994 206.0168 138.0003 Q 208.5167 137.5012 214.0164 137.0021 Q 219.5162 136.503 228.5158 136.0039 Q 237.5154 135.5048 249.5149 135.5048 Q 261.5144 135.5048 279.5137 135.5048 Q 297.5129 135.5048 316.0121 135.5048 Q 334.5113 135.5048 355.5105 135.5048 Q 376.5096 135.5048 393.0089 135.5048 Q 409.5082 135.5048 424.5076 135.5048 Q 439.5069 135.5048 452.0064 135.5048 Q 464.5059 135.5048 472.0055 133.0094 Q 479.5052 130.514 485.505 129.5158 Q 491.5047 128.5176 495.5046 127.0203 L 499.5074 125.5201" stroke-linecap="round" />
</g>
</svg>