<?xml version="1.0" encoding="UTF-8" standalone="no" ?>
<!DOCTYPE svg PUBLIC "-//W3C//DTD SVG 1.1//EN" "http://www.w3.org/Graphics/SVG/1.1/DTD/svg11.dtd">
<svg xmlns="http://www.w3.org/2000/svg" xmlns:xlink="http://www.w3.org/1999/xlink" version="1.1" width="823" height="400" viewBox="0 0 823 400" xml:space="preserve">
<desc>Created with Fabric.js 6.7.1</desc>
<defs>
</defs>
<rect x="0" y="0" width="100%" height="100%" fill="transparent"></rect>
<g transform="matrix(1 0 0 1 411.5 200)"  >
	<image style="stroke: none; stroke-width: 0; stroke-dasharray: none; stroke-linecap: butt; stroke-dashoffset: 0; stroke-linejoin: miter; stroke-miterlimit: 4; fill: rgb(0,0,0); fill-rule: nonzero; opacity: 1;"  xlink:href="https://cdn.jsdelivr.net/gh/Habibullah-sekh/ncert-pdfs@main/question-assets/1765537725235-image.png" x="-404" y="-191" width="808" height="382"></image>
</g>
<g transform="matrix(1 0 0 1 346.0094 174.9158)"  >
<path style="stroke: rgb(0,0,0); stroke-width: 3; stroke-dasharray: none; stroke-linecap: round; stroke-dashoffset: 0; stroke-linejoin: round; stroke-miterlimit: 10; fill: none; fill-rule: nonzero; opacity: 1;"  transform=" translate(-346.0094, -174.9158)" d="M 218.5132 166.9289 Q 218.5162 166.9289 220.5162 166.9289 Q 222.5161 166.9289 228.5158 166.9289 Q 234.5156 166.9289 244.0152 166.4298 Q 253.5148 165.9307 265.0143 164.4335 Q 276.5138 162.9362 289.0133 160.9399 Q 301.5127 158.9435 319.012 156.4481 Q 336.5113 153.9526 349.5107 152.4554 Q 362.5102 150.9581 375.5096 148.4627 Q 388.5091 145.9672 402.5085 143.9709 Q 416.5079 141.9745 428.0074 141.4754 Q 439.5069 140.9763 447.0066 140.9763 Q 454.5063 140.9763 460.0061 140.9763 Q 465.5058 140.9763 468.0057 140.9763 Q 470.5056 140.9763 471.5056 140.9763 Q 472.5055 140.9763 473.0055 140.9763 Q 473.5055 140.9763 473.5055 141.4754 Q 473.5055 141.9745 473.5055 144.4699 Q 473.5055 146.9654 473.5055 148.4627 Q 473.5055 149.9599 473.5055 152.4554 Q 473.5055 154.9508 473.5055 155.949 Q 473.5055 156.9472 473.5055 158.9435 Q 473.5055 160.9399 472.5055 163.9344 Q 471.5056 166.9289 471.5056 168.9253 Q 471.5056 170.9216 471.5056 174.4153 Q 471.5056 177.9089 469.5057 182.4007 Q 467.5057 186.8925 467.0058 187.8906 Q 466.5058 188.8888 466.0058 191.8834 Q 465.5058 194.8779 464.5059 197.3733 Q 463.5059 199.8688 463.5059 201.8651 Q 463.5059 203.8615 463.5059 204.8597 Q 463.5059 205.8578 463.0059 207.3551 L 462.5029 208.8554" stroke-linecap="round" />
</g>
</svg>