<svg xmlns="http://www.w3.org/2000/svg" xmlns:xlink="http://www.w3.org/1999/xlink" version="1.1" width="277.7285101711281" height="185.1523401140854" viewBox="80.3366866217348 110.80894747214492 277.7285101711281 185.1523401140854" xml:space="preserve">
<desc>Created with Fabric.js 6.7.1</desc>
<defs>
</defs>
<rect x="0" y="0" width="100%" height="100%" fill="transparent"/>
<g transform="matrix(1 0 0 1 186.9993 214.3446)">
<path style="stroke: rgb(0,0,0); stroke-width: 3; stroke-dasharray: none; stroke-linecap: round; stroke-dashoffset: 0; stroke-linejoin: round; stroke-miterlimit: 10; fill: none; fill-rule: nonzero; opacity: 1;" transform=" translate(-186.9993, -214.3446)" d="M 158.0345 177.9082 Q 158.0345 177.9112 157.5352 177.4121 Q 157.0358 176.913 157.0358 177.4121 Q 157.0358 177.9112 157.0358 178.4103 Q 157.0358 178.9094 158.0345 178.9094 Q 159.0333 178.9094 159.5327 177.9112 Q 160.0321 176.913 160.0321 175.4157 Q 160.0321 173.9185 159.5327 171.9221 Q 159.0333 169.9258 157.5352 167.9294 Q 156.037 165.933 153.0406 165.434 Q 150.0443 164.9349 148.0467 164.9349 Q 146.0491 164.9349 142.054 164.9349 Q 138.0589 164.9349 135.0625 168.4285 Q 132.0661 171.9221 131.0674 175.9148 Q 130.0686 179.9075 130.0686 183.4011 Q 130.0686 186.8948 130.0686 188.8911 Q 130.0686 190.8875 131.0674 191.8857 Q 132.0661 192.8838 140.0564 192.8838 Q 148.0467 192.8838 157.5352 189.3902 Q 167.0236 185.8966 177.5108 180.9057 Q 187.9981 175.9148 192.992 171.9221 Q 197.9859 167.9294 199.4841 166.4321 Q 200.9823 164.9349 200.9823 163.9367 Q 200.9823 162.9385 200.4829 161.9403 Q 199.9835 160.9422 193.4914 160.9422 Q 186.9993 160.9422 179.5084 160.9422 Q 172.0175 160.9422 166.5242 164.9349 Q 161.0309 168.9276 159.5327 173.9185 Q 158.0345 178.9094 159.5327 184.3993 Q 161.0309 189.8893 172.0175 194.8802 Q 183.0042 199.8711 194.9896 199.8711 Q 206.975 199.8711 216.9628 199.372 Q 226.9507 198.8729 233.9422 193.3829 Q 240.9337 187.8929 242.4319 183.9002 Q 243.93 179.9075 243.93 176.4139 Q 243.93 172.9203 238.4367 168.4285 Q 232.9434 163.9367 225.4525 162.9385 Q 217.9616 161.9403 209.9713 161.9403 Q 201.9811 161.9403 197.4865 162.9385 Q 192.992 163.9367 191.4938 169.9258 Q 189.9957 175.9148 189.9957 181.9039 Q 189.9957 187.8929 190.9944 193.882 Q 191.9932 199.8711 195.489 202.3665 Q 198.9847 204.862 201.9811 204.862 Q 204.9774 204.862 207.4744 204.3629 Q 209.9713 203.8638 211.9689 200.8692 Q 213.9665 197.8747 213.9665 193.882 Q 213.9665 189.8893 213.9665 187.3939 Q 213.9665 184.8984 213.4671 183.4011 Q 212.9677 181.9039 211.4695 181.9039 Q 209.9713 181.9039 206.975 185.3975 Q 203.9786 188.8911 200.9823 195.8784 Q 197.9859 202.8656 197.9859 217.8383 Q 197.9859 232.8109 198.4853 241.7945 Q 198.9847 250.7781 201.4817 257.2663 Q 203.9786 263.7544 205.4768 265.7508 Q 206.975 267.7471 207.4744 267.7471 Q 207.9738 267.7471 208.4732 266.2498 Q 208.9726 264.7526 208.9726 259.7617 Q 208.9726 254.7708 208.4732 249.7799 Q 207.9738 244.789 205.4768 238.8 Q 202.9799 232.8109 201.9811 231.3136 Q 200.9823 229.8164 199.4841 228.8182 Q 197.9859 227.82 197.9859 229.8164 Q 197.9859 231.8127 197.9859 233.8091 Q 197.9859 235.8054 197.9859 237.3027 Q 197.9859 238.8 197.9859 237.3027 Q 197.9859 235.8054 197.9859 234.8073 Q 197.9859 233.8091 195.9884 228.8182 Q 193.9908 223.8273 191.9932 219.8346 L 189.9927 215.8389" stroke-linecap="round"/>
</g>
</svg>