<svg xmlns="http://www.w3.org/2000/svg" xmlns:xlink="http://www.w3.org/1999/xlink" version="1.1" width="180.7337109379224" height="107.13354016030765" viewBox="245.51510297729584 103.56317206755509 180.7337109379224 107.13354016030765" xml:space="preserve">
<desc>Created with Fabric.js 6.7.1</desc>
<defs>
</defs>
<rect x="0" y="0" width="100%" height="100%" fill="transparent"/>
<g transform="matrix(1 0 0 1 322.0134 140.9933)">
<path style="stroke: rgb(0,0,0); stroke-width: 3; stroke-dasharray: none; stroke-linecap: round; stroke-dashoffset: 0; stroke-linejoin: round; stroke-miterlimit: 10; fill: none; fill-rule: nonzero; opacity: 1;" transform=" translate(-322.0134, -140.9933)" d="M 236.5155 105.5565 Q 236.5155 105.5595 236.5155 108.5541 Q 236.5155 111.5486 236.5155 117.0386 Q 236.5155 122.5285 236.5155 126.0222 Q 236.5155 129.5158 236.5155 134.0076 Q 236.5155 138.4994 236.5155 142.9912 Q 236.5155 147.483 236.5155 151.4757 Q 236.5155 155.4684 236.5155 158.4629 Q 236.5155 161.4574 236.5155 164.452 Q 236.5155 167.4465 236.5155 170.441 Q 236.5155 173.4356 236.5155 173.9347 Q 236.5155 174.4337 236.5155 174.9328 Q 236.5155 175.4319 237.0155 175.931 Q 237.5154 176.4301 238.0154 176.4301 Q 238.5154 176.4301 239.0154 176.4301 Q 239.5154 176.4301 240.0153 176.4301 Q 240.5153 176.4301 243.0152 176.4301 Q 245.5151 176.4301 250.0149 175.931 Q 254.5147 175.4319 258.5146 173.9347 Q 262.5144 172.4374 268.0142 170.441 Q 273.5139 168.4447 281.0136 165.9492 Q 288.5133 163.4538 297.5129 161.4574 Q 306.5125 159.4611 317.0121 156.9656 Q 327.5116 154.4702 339.5111 151.4757 Q 351.5106 148.4811 358.5103 147.9821 Q 365.51 147.483 372.0098 145.4866 Q 378.5095 143.4903 383.5093 142.9912 Q 388.5091 142.4921 393.0089 141.993 Q 397.5087 141.4939 400.0086 140.4957 Q 402.5085 139.4975 403.5084 139.4975 Q 404.5084 139.4975 405.0084 139.4975 Q 405.5084 139.4975 405.5084 140.4957 Q 405.5084 141.4939 406.5083 142.4921 L 407.5113 143.4933" stroke-linecap="round"/>
</g>
<g transform="matrix(1 0 0 1 243.0152 135.0058)">
<path style="stroke: rgb(255,255,255); stroke-width: 40; stroke-dasharray: none; stroke-linecap: round; stroke-dashoffset: 0; stroke-linejoin: round; stroke-miterlimit: 10; fill: none; fill-rule: nonzero; opacity: 1;" transform=" translate(-236.0155, -135.0058)" d="M 236.5155 101.5268 Q 236.5155 101.5668 236.0155 102.0659 Q 235.5155 102.565 235.5155 103.0641 Q 235.5155 103.5632 236.0155 104.5613 Q 236.5155 105.5595 236.5155 106.0586 Q 236.5155 106.5577 236.5155 107.0568 Q 236.5155 107.5559 236.5155 108.055 Q 236.5155 108.5541 236.5155 109.5522 Q 236.5155 110.5504 236.5155 111.0495 Q 236.5155 111.5486 236.5155 112.5468 Q 236.5155 113.5449 236.5155 114.5431 Q 236.5155 115.5413 236.5155 116.0404 Q 236.5155 116.5395 236.5155 117.0386 Q 236.5155 117.5377 236.5155 118.0367 Q 236.5155 118.5358 236.5155 119.0349 Q 236.5155 119.534 236.5155 120.0331 Q 236.5155 120.5322 236.5155 121.0313 Q 236.5155 121.5304 236.5155 122.0294 Q 236.5155 122.5285 236.5155 123.0276 Q 236.5155 123.5267 236.5155 124.0258 Q 236.5155 124.5249 236.5155 125.024 Q 236.5155 125.5231 236.5155 126.0222 Q 236.5155 126.5212 236.5155 127.0203 Q 236.5155 127.5194 236.5155 128.5176 Q 236.5155 129.5158 236.5155 130.0149 Q 236.5155 130.514 236.5155 131.013 Q 236.5155 131.5121 236.5155 132.5103 Q 236.5155 133.5085 236.5155 134.0076 Q 236.5155 134.5067 236.5155 135.5048 Q 236.5155 136.503 236.5155 137.0021 Q 236.5155 137.5012 236.5155 138.0003 Q 236.5155 138.4994 236.5155 138.9985 Q 236.5155 139.4975 236.5155 139.9966 Q 236.5155 140.4957 236.5155 140.9948 Q 236.5155 141.4939 236.5155 141.993 Q 236.5155 142.4921 236.5155 142.9912 Q 236.5155 143.4903 236.5155 143.9893 Q 236.5155 144.4884 236.5155 144.9875 Q 236.5155 145.4866 236.5155 145.9857 Q 236.5155 146.4848 236.5155 146.9839 Q 236.5155 147.483 236.5155 148.4811 Q 236.5155 149.4793 236.5155 149.9784 Q 236.5155 150.4775 236.5155 150.9766 Q 236.5155 151.4757 236.5155 152.4738 Q 236.5155 153.472 236.5155 154.4702 Q 236.5155 155.4684 236.5155 155.9675 Q 236.5155 156.4666 236.5155 157.4647 Q 236.5155 158.4629 236.5155 158.962 Q 236.5155 159.4611 236.5155 159.9602 Q 236.5155 160.4593 236.5155 160.9584 Q 236.5155 161.4574 236.5155 161.9565 Q 236.5155 162.4556 236.5155 163.4538 Q 236.5155 164.452 236.5155 164.9511 Q 236.5155 165.4502 236.5155 165.9492 Q 236.5155 166.4483 236.5155 167.4465 L 236.5155 168.4847" stroke-linecap="round"/>
</g>
</svg>