<svg xmlns="http://www.w3.org/2000/svg" xmlns:xlink="http://www.w3.org/1999/xlink" version="1.1" width="147.84385203176132" height="98.56256802117422" viewBox="40.972378171488515 70.30268356579074 147.84385203176132 98.56256802117422" xml:space="preserve">
<desc>Created with Fabric.js 6.7.1</desc>
<defs>
</defs>
<rect x="0" y="0" width="100%" height="100%" fill="transparent"/>
<g transform="matrix(1 0 0 1 112.5898 109.3833)">
<path style="stroke: rgb(0,0,0); stroke-width: 3; stroke-dasharray: none; stroke-linecap: round; stroke-dashoffset: 0; stroke-linejoin: round; stroke-miterlimit: 10; fill: none; fill-rule: nonzero; opacity: 1;" transform=" translate(-112.5898, -109.3833)" d="M 85.1233 81.085 Q 85.1233 81.088 85.1233 82.0862 Q 85.1233 83.0844 85.1233 89.0734 Q 85.1233 95.0625 85.6227 100.5525 Q 86.122 106.0424 91.6154 112.0315 Q 97.1087 118.0205 105.099 125.5069 Q 113.0892 132.9932 117.0844 134.4905 Q 121.0795 135.9877 122.5777 136.9859 Q 124.0759 137.9841 127.0722 136.4868 Q 130.0686 134.9896 133.5643 129.0005 Q 137.0601 123.0114 138.5582 119.0187 Q 140.0564 115.026 140.0564 112.0315 Q 140.0564 109.037 140.0564 107.5397 Q 140.0564 106.0424 140.0564 104.5452 L 140.0564 103.0449" stroke-linecap="round"/>
</g>
</svg>