<svg xmlns="http://www.w3.org/2000/svg" xmlns:xlink="http://www.w3.org/1999/xlink" version="1.1" width="457.9570256612194" height="372.67080745341616" viewBox="41.42264349657711 2 457.9570256612194 372.67080745341616" xml:space="preserve">
<desc>Created with Fabric.js 6.7.1</desc>
<defs>
</defs>
<rect x="0" y="0" width="100%" height="100%" fill="transparent"/>
<g transform="matrix(1 0 0 1 240.5603 120.8)" style="">
		<text xml:space="preserve" font-family="Arial, sans-serif" font-size="20" font-style="normal" font-weight="normal" style="stroke: none; stroke-width: 1; stroke-dasharray: none; stroke-linecap: butt; stroke-dashoffset: 0; stroke-linejoin: miter; stroke-miterlimit: 4; fill: rgb(0,0,0); fill-rule: nonzero; opacity: 1; text-decoration-thickness: 6.6667%; white-space: pre;"><tspan x="-56.1572" y="6.2828">hi habibullah</tspan></text>
</g>
<g transform="matrix(1 0 0 1 59.4695 79.5)">
<path style="stroke: rgb(0,0,0); stroke-width: 3; stroke-dasharray: none; stroke-linecap: round; stroke-dashoffset: 0; stroke-linejoin: round; stroke-miterlimit: 4; fill: rgb(255,255,255); fill-opacity: 0; fill-rule: nonzero; opacity: 1;" transform=" translate(-194.8973, -138)" d="M 211.8884 137 L 327.8273 293 M 327.8273 293 L 316.8126 288.238 M 327.8273 293 L 326.4439 281.08" stroke-linecap="round"/>
</g>
<g transform="matrix(1 0 0 1 310.3365 137)">
<path style="stroke: rgb(0,0,0); stroke-width: 3; stroke-dasharray: none; stroke-linecap: round; stroke-dashoffset: 0; stroke-linejoin: round; stroke-miterlimit: 10; fill: none; fill-rule: nonzero; opacity: 1;" transform=" translate(-310.3365, -137)" d="M 395.7945 44 Q 395.7915 44 394.2923 44.5 Q 392.793 45 392.2933 45 Q 391.7936 45 389.7946 45.5 Q 387.7957 46 386.2965 46 Q 384.7973 46 383.7978 46 Q 382.7983 46 381.2991 46 Q 379.7999 46 379.3002 46 Q 378.8004 46 378.3007 46 Q 377.8009 46 375.802 46 Q 373.8031 46 372.8036 46 Q 371.8041 46 371.3044 46 Q 370.8046 46 369.8052 46.5 Q 368.8057 47 367.3065 47 Q 365.8073 47 363.8083 47 Q 361.8094 47 360.3102 47 Q 358.811 47 356.3123 47 Q 353.8136 47 350.8152 47 Q 347.8167 47 343.8189 47 Q 339.821 47 336.8225 47 Q 333.8241 47 329.3265 47 Q 324.8289 47 321.8304 47 Q 318.832 47 313.3349 47 Q 307.8378 47 304.3397 47 Q 300.8415 47 296.3439 47 Q 291.8462 47 287.8483 47 Q 283.8504 47 279.8526 47 Q 275.8547 47 272.3565 47 Q 268.8583 47 265.3602 47 Q 261.862 47 257.8641 47 Q 253.8662 47 252.367 47 Q 250.8678 47 248.8689 47 Q 246.8699 47 244.3712 47 Q 241.8726 47 239.8736 48.5 Q 237.8747 50 236.8752 50 Q 235.8757 50 234.3765 50 Q 232.8773 50 231.8778 50 Q 230.8784 50 229.3791 50 Q 227.8799 50 226.8805 50.5 Q 225.881 51 224.3818 51.5 Q 222.8826 52 222.3828 52 Q 221.8831 52 220.8836 53 Q 219.8841 54 219.3844 54 Q 218.8847 54 217.8852 54.5 Q 216.8857 55 215.8863 55.5 Q 214.8868 56 213.3876 56.5 Q 211.8884 57 210.8889 57.5 Q 209.8894 58 208.8899 59 Q 207.8905 60 206.3913 60.5 Q 204.892 61 201.8936 63.5 Q 198.8952 66 197.8957 67 Q 196.8963 68 195.8968 69 Q 194.8973 70 192.8984 71.5 Q 190.8994 73 189.4002 74.5 Q 187.901 76 186.9015 78.5 Q 185.9021 81 183.9031 84 Q 181.9042 87 180.4049 91 Q 178.9057 95 176.9068 97 Q 174.9078 99 172.9089 103 Q 170.91 107 169.9105 110.5 Q 168.911 114 166.4123 118 Q 163.9136 122 163.9136 125.5 Q 163.9136 129 162.9142 131.5 Q 161.9147 134 161.9147 136.5 Q 161.9147 139 161.9147 144 Q 161.9147 149 161.9147 155.5 Q 161.9147 162 161.9147 166 Q 161.9147 170 161.9147 176.5 Q 161.9147 183 162.4144 190 Q 162.9142 197 164.9131 201.5 Q 166.9121 206 168.4113 212 Q 169.9105 218 171.4097 221 Q 172.9089 224 175.9073 228 Q 178.9057 232 180.4049 235 Q 181.9042 238 184.4028 240 Q 186.9015 242 189.8999 243.5 Q 192.8984 245 197.8957 248.5 Q 202.8931 252 209.3897 255 Q 215.8863 258 221.8831 259.5 Q 227.8799 261 234.8763 262.5 Q 241.8726 264 250.3681 264 Q 258.8636 264 268.3586 264 Q 277.8536 264 288.8478 264 Q 299.842 264 315.3339 262 Q 330.8257 260 345.3181 255 Q 359.8104 250 375.3023 244.5 Q 390.7941 239 403.7873 234 Q 416.7804 229 423.277 224 Q 429.7736 219 435.7704 213 Q 441.7672 207 445.2654 202 Q 448.7636 197 451.2622 192 Q 453.7609 187 454.7604 181 Q 455.7599 175 457.2591 168.5 Q 458.7583 162 458.7583 157 Q 458.7583 152 458.7583 145.5 Q 458.7583 139 456.7593 132.5 Q 454.7604 126 452.2617 121.5 Q 449.763 117 446.7646 109.5 Q 443.7662 102 440.268 97 Q 436.7699 92 433.7715 86.5 Q 430.773 81 427.7746 77 Q 424.7762 73 419.2791 68.5 Q 413.782 64 409.7841 60 Q 405.7862 56 400.7888 52.5 Q 395.7915 49 389.2949 45.5 Q 382.7983 42 376.8015 38 Q 370.8046 34 365.8073 33 Q 360.8099 32 353.3138 29 Q 345.8178 26 339.3212 23 Q 332.8246 20 328.327 19 Q 323.8294 18 318.3323 15.5 Q 312.8352 13 307.8378 11.5 Q 302.8404 10 299.3423 10 Q 295.8441 10 293.8452 10 Q 291.8462 10 289.8473 10 Q 287.8483 10 285.8494 10 L 283.8474 10" stroke-linecap="round"/>
</g>
<g transform="matrix(1 0 0 1 242.8728 136)">
<rect style="stroke: rgb(0,0,0); stroke-width: 3; stroke-dasharray: none; stroke-linecap: butt; stroke-dashoffset: 0; stroke-linejoin: miter; stroke-miterlimit: 4; fill: rgb(255,255,255); fill-opacity: 0; fill-rule: nonzero; opacity: 1;" x="-128.43233280674042" y="-100.5" rx="0" ry="0" width="256.86466561348084" height="201"/>
</g>
<g transform="matrix(1 0 0 1 166.9128 204.5)">
<filter id="SVGID_0" y="-23.72%" height="147.44%" x="-25.42%" width="150.84%">
	<feGaussianBlur in="SourceAlpha" stdDeviation="4"/>
	<feOffset dx="3" dy="3" result="oBlur"/>
	<feFlood flood-color="rgb(0,0,0)" flood-opacity="0.4"/>
	<feComposite in2="oBlur" operator="in"/>
	<feMerge>
		<feMergeNode/>
		<feMergeNode in="SourceGraphic"/>
	</feMerge>
</filter>
<line style="stroke: rgb(0,0,0); stroke-width: 3; stroke-dasharray: 9 6; stroke-linecap: butt; stroke-dashoffset: 0; stroke-linejoin: miter; stroke-miterlimit: 4; fill: rgb(0,0,0); fill-rule: nonzero; opacity: 1;filter: url(#SVGID_0);" x1="-101.44655081621909" y1="-148" x2="101.44655081621909" y2="148"/>
</g>
<g transform="matrix(1 0 0 1 254.8665 70)">
<filter id="SVGID_1" y="-32.09%" height="164.18%" x="-23%" width="146%">
	<feGaussianBlur in="SourceAlpha" stdDeviation="4"/>
	<feOffset dx="3" dy="3" result="oBlur"/>
	<feFlood flood-color="rgb(0,0,0)" flood-opacity="0.4"/>
	<feComposite in2="oBlur" operator="in"/>
	<feMerge>
		<feMergeNode/>
		<feMergeNode in="SourceGraphic"/>
	</feMerge>
</filter>
<line style="stroke: rgb(0,0,0); stroke-width: 3; stroke-dasharray: 9 6; stroke-linecap: butt; stroke-dashoffset: 0; stroke-linejoin: miter; stroke-miterlimit: 4; fill: rgb(0,0,0); fill-rule: nonzero; opacity: 1;filter: url(#SVGID_1);" x1="-183.4033701948394" y1="-45.5" x2="183.4033701948394" y2="45.5"/>
</g>
</svg>