<?xml version="1.0" encoding="UTF-8" standalone="no" ?>
<!DOCTYPE svg PUBLIC "-//W3C//DTD SVG 1.1//EN" "http://www.w3.org/Graphics/SVG/1.1/DTD/svg11.dtd">
<svg xmlns="http://www.w3.org/2000/svg" xmlns:xlink="http://www.w3.org/1999/xlink" version="1.1" width="844" height="400" viewBox="0 0 844 400" xml:space="preserve">
<desc>Created with Fabric.js 6.7.1</desc>
<defs>
</defs>
<rect x="0" y="0" width="100%" height="100%" fill="transparent"></rect>
<g transform="matrix(1 0 0 1 210.993 187.4811)"  >
<path style="stroke: rgb(0,0,0); stroke-width: 3; stroke-dasharray: none; stroke-linecap: round; stroke-dashoffset: 0; stroke-linejoin: round; stroke-miterlimit: 10; fill: none; fill-rule: nonzero; opacity: 1;"  transform=" translate(-210.993, -187.4811)" d="M 248.4247 97.997 Q 248.4247 98 248.4247 100.5 Q 248.4247 103 248.4247 109 Q 248.4247 115 248.4247 121.5 Q 248.4247 128 248.4247 136 Q 248.4247 144 248.4247 152 Q 248.4247 160 248.4247 169 Q 248.4247 178 248.4247 187.5 Q 248.4247 197 248.4247 206.5 Q 248.4247 216 248.4247 225 Q 248.4247 234 247.9249 242 Q 247.4252 250 244.9265 257.5 Q 242.4278 265 241.9281 270 Q 241.4284 275 241.4284 278.5 Q 241.4284 282 240.4289 285.5 Q 239.4294 289 239.4294 290 Q 239.4294 291 239.4294 292 Q 239.4294 293 238.9297 294 Q 238.4299 295 238.4299 295.5 Q 238.4299 296 238.4299 293.5 Q 238.4299 291 238.9297 283 Q 239.4294 275 242.9276 270 Q 246.4257 265 251.9228 254.5 Q 257.4199 244 264.4162 235 Q 271.4126 226 277.9091 219 Q 284.4057 212 292.9012 204 Q 301.3968 196 310.8918 187 Q 320.3868 178 329.382 172 Q 338.3773 166 344.8738 161 Q 351.3704 156 352.8696 155 Q 354.3688 154 356.8675 151.5 Q 359.3662 149 360.3657 148.5 Q 361.3652 148 361.3652 147.5 Q 361.3652 147 361.8649 146.5 Q 362.3646 146 361.8649 146 Q 361.3652 146 357.3673 146 Q 353.3694 146 347.3725 146 Q 341.3757 146 331.381 146 Q 321.3862 146 310.8918 146 Q 300.3973 146 283.906 146 Q 267.4147 146 252.4226 146 Q 237.4305 146 218.4405 148.5 Q 199.4505 151 179.9607 154 Q 160.471 157 143.9797 157 Q 127.4884 157 114.4952 159 Q 101.5021 161 91.5073 161 Q 81.5126 161 75.5158 161.5 Q 69.5189 162 66.0208 162 Q 62.5226 162 61.5231 162 Q 60.5237 162 60.0239 162 Q 59.5242 162 61.5231 162 Q 63.5221 162 68.0197 162 Q 72.5173 162 78.5142 162 Q 84.511 162 90.0081 164.5 Q 95.5052 167 101.5021 167.5 Q 107.4989 168 114.995 171 Q 122.491 174 129.4873 175.5 Q 136.4836 177 145.9786 181 Q 155.4736 185 162.9697 188.5 Q 170.4657 192 176.4626 195.5 Q 182.4594 199 187.9565 202 Q 193.4536 205 195.9523 207 Q 198.451 209 198.9507 209.5 Q 199.4505 210 199.9502 210.5 Q 200.4499 211 201.4494 212 Q 202.4489 213 202.9486 213.5 Q 203.4484 214 203.9481 215 Q 204.4478 216 205.947 217.5 Q 207.4463 219 208.4457 220.5 Q 209.4452 222 210.4447 223 Q 211.4441 224 212.4436 225 Q 213.4431 226 214.4426 226.5 Q 215.442 227 215.9418 228.5 Q 216.4415 230 217.441 231 Q 218.4405 232 218.9402 232.5 Q 219.4399 233 219.9397 233.5 Q 220.4394 234 220.9391 234 Q 221.4389 234 221.9386 234.5 Q 222.4384 235 222.9381 235.5 Q 223.4378 236 223.9376 237 Q 224.4373 238 226.936 240 Q 229.4347 242 232.4331 245.5 Q 235.4315 249 238.9297 252.5 Q 242.4278 256 247.4252 260 Q 252.4226 264 255.421 267 Q 258.4194 270 261.4178 272.5 Q 264.4162 275 267.4147 278 Q 270.4131 281 271.4126 281.5 Q 272.412 282 273.4115 282 Q 274.411 282 274.9107 282.5 Q 275.4104 283 275.9102 284 Q 276.4099 285 274.9107 283.5 Q 273.4115 282 271.9123 276.5 Q 270.4131 271 268.4141 264 Q 266.4152 257 264.916 250.5 Q 263.4168 244 260.9181 235.5 Q 258.4194 227 256.4205 218.5 Q 254.4215 210 250.9233 200.5 Q 247.4252 191 245.4262 183 Q 243.4273 175 241.4284 167 Q 239.4294 159 236.9307 150.5 Q 234.432 142 232.4331 136 Q 230.4341 130 228.9349 125 Q 227.4357 120 225.9365 115.5 Q 224.4373 111 223.9376 108 Q 223.4378 105 222.4384 101.5 Q 221.4389 98 220.4394 95.5 Q 219.4399 93 218.9402 92 Q 218.4405 91 217.9407 90 Q 217.441 89 217.441 86.5 Q 217.441 84 216.9413 83.5 Q 216.4415 83 216.4415 82.5 Q 216.4415 82 215.9418 80.5 Q 215.442 79 216.9413 79.5 Q 218.4405 80 220.4394 81.5 Q 222.4384 83 223.4378 84.5 Q 224.4373 86 226.936 88 Q 229.4347 90 230.9339 90.5 Q 232.4331 91 234.9318 92.5 Q 237.4305 94 237.4305 94.5 Q 237.4305 95 238.4299 95.5 Q 239.4294 96 239.9291 96.5 Q 240.4289 97 242.4278 98 Q 244.4268 99 245.4262 100 Q 246.4257 101 247.4252 102 Q 248.4247 103 249.4241 103.5 Q 250.4236 104 251.4231 104.5 Q 252.4226 105 252.9223 105.5 Q 253.422 106 254.4215 106.5 Q 255.421 107 255.421 107.5 Q 255.421 108 256.4205 109 Q 257.4199 110 257.9197 110.5 Q 258.4194 111 258.9191 112.5 L 259.4219 114.003" stroke-linecap="round" />
</g>
</svg>