<?xml version="1.0" encoding="UTF-8" standalone="no" ?>
<!DOCTYPE svg PUBLIC "-//W3C//DTD SVG 1.1//EN" "http://www.w3.org/Graphics/SVG/1.1/DTD/svg11.dtd">
<svg xmlns="http://www.w3.org/2000/svg" xmlns:xlink="http://www.w3.org/1999/xlink" version="1.1" width="823" height="400" viewBox="0 0 823 400" xml:space="preserve">
<desc>Created with Fabric.js 6.7.1</desc>
<defs>
</defs>
<rect x="0" y="0" width="100%" height="100%" fill="transparent"></rect>
<g transform="matrix(1 0 0 1 167.0199 125.5046)"  >
<path style="stroke: rgb(0,0,0); stroke-width: 3; stroke-dasharray: none; stroke-linecap: round; stroke-dashoffset: 0; stroke-linejoin: round; stroke-miterlimit: 10; fill: none; fill-rule: nonzero; opacity: 1;"  transform=" translate(-167.0199, -125.5046)" d="M 159.5187 84.0772 Q 159.5187 84.0802 160.5187 84.5793 Q 161.5186 85.0784 161.5186 89.0711 Q 161.5186 93.0638 161.5186 96.0584 Q 161.5186 99.0529 161.5186 102.0474 Q 161.5186 105.0419 161.5186 108.0365 Q 161.5186 111.031 161.5186 114.5246 Q 161.5186 118.0182 161.5186 120.5137 Q 161.5186 123.0091 161.5186 126.0037 Q 161.5186 128.9982 161.5186 131.9927 Q 161.5186 134.9873 162.0186 138.98 Q 162.5186 142.9727 163.5186 145.4681 Q 164.5185 147.9636 165.0185 151.4572 Q 165.5185 154.9508 166.0185 156.4481 Q 166.5184 157.9453 167.5184 159.4426 Q 168.5184 160.9399 169.5183 161.938 Q 170.5183 162.9362 171.0182 163.4353 Q 171.5182 163.9344 173.0182 165.4317 L 174.5211 166.9319" stroke-linecap="round" />
</g>
<g transform="matrix(1 0 0 1 224.0175 112.5283)"  >
<path style="stroke: rgb(0,0,0); stroke-width: 3; stroke-dasharray: none; stroke-linecap: round; stroke-dashoffset: 0; stroke-linejoin: round; stroke-miterlimit: 10; fill: none; fill-rule: nonzero; opacity: 1;"  transform=" translate(-224.0175, -112.5283)" d="M 222.5161 76.0918 Q 222.5161 76.0948 222.5161 78.0912 Q 222.5161 80.0875 222.5161 83.5811 Q 222.5161 87.0748 222.5161 91.5666 Q 222.5161 96.0584 222.5161 100.0511 Q 222.5161 104.0438 222.5161 108.0365 Q 222.5161 112.0292 222.5161 116.0219 Q 222.5161 120.0146 222.5161 123.0091 Q 222.5161 126.0037 222.5161 128.9982 Q 222.5161 131.9927 222.5161 135.4863 Q 222.5161 138.98 223.0161 141.4754 Q 223.516 143.9709 223.516 144.969 Q 223.516 145.9672 224.516 147.4645 L 225.5189 148.9647" stroke-linecap="round" />
</g>
<g transform="matrix(1 0 0 1 266.5142 141.9745)"  >
<path style="stroke: rgb(0,0,0); stroke-width: 3; stroke-dasharray: none; stroke-linecap: round; stroke-dashoffset: 0; stroke-linejoin: round; stroke-miterlimit: 10; fill: none; fill-rule: nonzero; opacity: 1;"  transform=" translate(-266.5142, -141.9745)" d="M 265.5143 106.0371 Q 265.5143 106.0401 265.5143 112.0292 Q 265.5143 118.0182 265.5143 123.5082 Q 265.5143 128.9982 265.5143 133.49 Q 265.5143 137.9818 265.5143 143.4718 Q 265.5143 148.9617 265.5143 153.4535 Q 265.5143 157.9453 265.5143 161.439 Q 265.5143 164.9326 266.0142 167.428 Q 266.5142 169.9235 266.5142 171.4207 Q 266.5142 172.918 267.0142 173.9162 Q 267.5142 174.9143 267.5142 175.4134 Q 267.5142 175.9125 267.0142 176.9107 L 266.5112 177.9119" stroke-linecap="round" />
</g>
<g transform="matrix(1 0 0 1 175.0181 124.5064)"  >
<path style="stroke: rgb(0,0,0); stroke-width: 3; stroke-dasharray: none; stroke-linecap: round; stroke-dashoffset: 0; stroke-linejoin: round; stroke-miterlimit: 10; fill: none; fill-rule: nonzero; opacity: 1;"  transform=" translate(-175.0181, -124.5064)" d="M 16.5218 152.9544 Q 16.5248 152.9544 17.5247 152.9544 Q 18.5247 152.9544 19.0247 152.9544 Q 19.5246 152.9544 22.0245 151.9563 Q 24.5244 150.9581 29.5242 148.9617 Q 34.524 146.9654 41.0237 144.969 Q 47.5235 142.9727 56.5231 139.9781 Q 65.5227 136.9836 80.5221 132.4918 Q 95.5214 128 108.5209 126.0037 Q 121.5203 124.0073 135.0198 121.0128 Q 148.5192 118.0182 161.5186 115.0237 Q 174.5181 112.0292 186.0176 110.5319 Q 197.5171 109.0347 210.5166 106.5392 Q 223.516 104.0438 236.5155 102.5465 Q 249.5149 101.0492 262.0144 100.0511 Q 274.5139 99.0529 284.5135 97.5556 Q 294.513 96.0584 301.5127 96.0584 Q 308.5124 96.0584 314.0122 96.0584 Q 319.512 96.0584 324.0118 96.0584 Q 328.5116 96.0584 331.0115 96.0584 L 333.5144 96.0584" stroke-linecap="round" />
</g>
</svg>