<svg xmlns="http://www.w3.org/2000/svg" xmlns:xlink="http://www.w3.org/1999/xlink" version="1.1" width="463.19008957840293" height="258.73254112643417" viewBox="83.30000000000013 39.99999999999994 463.19008957840293 258.73254112643417" xml:space="preserve">
<desc>Created with Fabric.js 6.7.1</desc>
<defs>
</defs>
<rect x="0" y="0" width="100%" height="100%" fill="transparent"/>
<g transform="matrix(1 0 0 1 315.5178 179.0711)">
<path style="stroke: rgb(0,0,0); stroke-width: 3; stroke-dasharray: none; stroke-linecap: round; stroke-dashoffset: 0; stroke-linejoin: round; stroke-miterlimit: 10; fill: none; fill-rule: nonzero; opacity: 1;" transform=" translate(-315.5178, -179.0711)" d="M 161.5957 74.7616 Q 161.5927 74.7616 161.0929 74.7616 Q 160.5932 74.7616 160.0934 74.7616 Q 159.5936 74.7616 158.5941 74.7616 Q 157.5946 74.7616 156.5951 75.2607 Q 155.5956 75.7598 155.0958 76.758 Q 154.5961 77.7561 153.0968 79.2534 Q 151.5975 80.7507 148.599 82.747 Q 145.6005 84.7434 144.1012 85.7415 Q 142.6019 86.7397 141.6024 87.7379 Q 140.6029 88.7361 138.6039 90.2333 Q 136.6048 91.7306 135.6053 92.7288 Q 134.6058 93.727 133.6063 94.7251 Q 132.6068 95.7233 131.6073 97.7197 Q 130.6077 99.716 129.6082 101.7124 Q 128.6087 103.7087 127.6092 105.206 Q 126.6097 106.7033 125.6102 108.2005 Q 124.6107 109.6978 123.1114 112.1932 Q 121.6121 114.6887 121.1124 116.685 Q 120.6126 118.6814 119.1133 123.6723 Q 117.6141 128.6632 117.1143 132.1568 Q 116.6146 135.6504 116.6146 138.1458 Q 116.6146 140.6413 116.1148 144.634 Q 115.615 148.6267 114.6155 153.1185 Q 113.616 157.6103 113.616 162.1021 Q 113.616 166.5939 113.616 170.5866 Q 113.616 174.5793 114.1158 179.0711 Q 114.6155 183.5629 115.615 187.5556 Q 116.6146 191.5483 118.6136 195.0419 Q 120.6126 198.5356 123.1114 202.5283 Q 125.6102 206.521 129.1085 210.5137 Q 132.6068 214.5064 136.1051 216.0037 Q 139.6034 217.5009 143.6014 218.9982 Q 147.5995 220.4955 151.0978 220.4955 Q 154.5961 220.4955 159.0939 220.4955 Q 163.5917 220.4955 172.5873 220.4955 Q 181.5829 220.4955 192.5776 219.9964 Q 203.5722 219.4973 218.0652 216.0037 Q 232.5581 212.51 244.5523 209.0164 Q 256.5465 205.5228 266.5416 202.5283 Q 276.5367 199.5337 283.5333 196.0401 Q 290.5299 192.5465 294.528 188.5538 Q 298.5261 184.5611 298.5261 182.5647 Q 298.5261 180.5684 298.5261 179.0711 Q 298.5261 177.5738 298.5261 170.5866 Q 298.5261 163.5994 298.5261 159.1076 Q 298.5261 154.6158 297.0268 147.6285 Q 295.5275 140.6413 294.0282 134.6522 Q 292.529 128.6632 288.5309 121.6759 Q 284.5329 114.6887 280.5348 109.1987 Q 276.5367 103.7087 271.5392 99.716 Q 266.5416 95.7233 259.0453 91.2315 Q 251.5489 86.7397 246.5513 85.7415 Q 241.5538 84.7434 235.0569 82.747 Q 228.5601 80.7507 223.0628 80.7507 Q 217.5654 80.7507 211.0686 83.7452 Q 204.5718 86.7397 200.074 89.7343 Q 195.5761 92.7288 187.0803 99.2169 Q 178.5844 105.7051 172.5873 112.6923 Q 166.5902 119.6796 161.0929 128.6632 Q 155.5956 137.6468 153.0968 149.1258 Q 150.598 160.6048 150.598 174.5793 Q 150.598 188.5538 154.5961 204.0255 Q 158.5941 219.4973 165.091 231.4754 Q 171.5878 243.4535 179.5839 253.9344 Q 187.58 264.4152 206.071 273.8979 Q 224.562 283.3806 241.054 283.3806 Q 257.546 283.3806 288.0312 277.8906 Q 318.5163 272.4007 354.4988 257.9271 Q 390.4813 243.4535 420.9665 225.9854 Q 451.4516 208.5173 472.9412 193.5447 Q 494.4307 178.572 503.4264 171.0857 Q 512.422 163.5994 514.9208 159.6067 Q 517.4195 155.6139 517.4195 153.6176 L 517.4195 151.6182" stroke-linecap="round"/>
</g>
</svg>