<?xml version="1.0" encoding="UTF-8"?>
<svg xmlns="http://www.w3.org/2000/svg" viewBox="0 0 361 224" width="361" height="224">
  <path d="M 256 8 L 256 17 L 257 18 L 256 32" fill="none" stroke="#000000" stroke-width="2.6" stroke-linecap="round" stroke-linejoin="round"/>
  <path d="M 274 8 L 274 31" fill="none" stroke="#000000" stroke-width="2.6" stroke-linecap="round" stroke-linejoin="round"/>
  <path d="M 265 43 L 265 74 L 280 81 L 298 92" fill="none" stroke="#000000" stroke-width="2.6" stroke-linecap="round" stroke-linejoin="round"/>
  <path d="M 263 75 L 264 75 L 261 78 L 260 83 L 256 91 L 235 128 L 226 128 L 221 126 L 204 125 L 197 123 L 181 122 L 173 120 L 170 120 L 163 123 L 153 129 L 121 144 L 110 180 L 110 183" fill="none" stroke="#000000" stroke-width="2.6" stroke-linecap="round" stroke-linejoin="round"/>
  <path d="M 262 76 L 260 78 L 256 78 L 252 80 L 225 95 L 148 90 L 145 93 L 135 116 L 130 124 L 126 135 L 124 137 L 124 141" fill="none" stroke="#000000" stroke-width="2.6" stroke-linecap="round" stroke-linejoin="round"/>
  <path d="M 337 90 L 337 116" fill="none" stroke="#000000" stroke-width="2.6" stroke-linecap="round" stroke-linejoin="round"/>
  <path d="M 308 95 L 305 101 L 305 106 L 308 113" fill="none" stroke="#000000" stroke-width="2.6" stroke-linecap="round" stroke-linejoin="round"/>
  <path d="M 72 112 L 72 137" fill="none" stroke="#000000" stroke-width="2.6" stroke-linecap="round" stroke-linejoin="round"/>
  <path d="M 45 115 L 41 122 L 41 128 L 43 133 L 48 138" fill="none" stroke="#000000" stroke-width="2.6" stroke-linecap="round" stroke-linejoin="round"/>
  <path d="M 86 126 L 117 142 L 121 143" fill="none" stroke="#000000" stroke-width="2.6" stroke-linecap="round" stroke-linejoin="round"/>
  <path d="M 45 136 L 46 137" fill="none" stroke="#000000" stroke-width="2.6" stroke-linecap="round" stroke-linejoin="round"/>
  <path d="M 117 192 L 117 216" fill="none" stroke="#000000" stroke-width="2.6" stroke-linecap="round" stroke-linejoin="round"/>
  <path d="M 99 193 L 99 203 L 100 204 L 99 205 L 99 216" fill="none" stroke="#000000" stroke-width="2.6" stroke-linecap="round" stroke-linejoin="round"/>
</svg>