<svg xmlns="http://www.w3.org/2000/svg" xmlns:xlink="http://www.w3.org/1999/xlink" version="1.1" width="402.366823674271" height="171.73138512185295" viewBox="50.65121321672561 15.683434819055392 402.366823674271 171.73138512185295" xml:space="preserve">
<desc>Created with Fabric.js 6.7.1</desc>
<defs>
</defs>
<rect x="0" y="0" width="100%" height="100%" fill="transparent"/>
<g transform="matrix(1 0 0 1 0 11.9782)">
<path style="stroke: rgb(0,0,0); stroke-width: 3; stroke-dasharray: none; stroke-linecap: round; stroke-dashoffset: 0; stroke-linejoin: round; stroke-miterlimit: 10; fill: none; fill-rule: nonzero; opacity: 1;" transform=" translate(-251.8346, -113.5273)" d="M 78.1318 51.1397 Q 78.1318 51.1427 78.1318 53.139 Q 78.1318 55.1354 78.1318 58.629 Q 78.1318 62.1226 77.133 67.1135 Q 76.1342 72.1044 76.1342 79.5907 Q 76.1342 87.0771 77.133 92.0679 Q 78.1318 97.0588 81.1281 100.0534 Q 84.1245 103.0479 86.6214 103.547 Q 89.1184 104.0461 90.1172 104.5452 Q 91.116 105.0442 92.1148 105.5433 Q 93.1135 106.0424 93.6129 106.0424 Q 94.1123 106.0424 95.1111 106.0424 Q 96.1099 106.0424 98.1075 104.5452 Q 100.105 103.0479 102.602 99.0552 Q 105.099 95.0625 108.0953 91.0698 Q 111.0917 87.0771 112.0904 84.5816 Q 113.0892 82.0862 113.5886 81.5871 Q 114.088 81.088 114.088 80.5889 Q 114.088 80.0898 114.088 78.0935 Q 114.088 76.0971 114.088 75.598 Q 114.088 75.0989 114.088 73.1026 Q 114.088 71.1062 112.5898 69.1099 Q 111.0917 67.1135 108.5947 67.1135 Q 106.0977 67.1135 103.6008 67.1135 Q 101.1038 67.1135 98.6069 67.1135 Q 96.1099 67.1135 93.1135 68.1117 Q 90.1172 69.1099 82.1269 74.1008 Q 74.1366 79.0916 70.1415 81.5871 Q 66.1464 84.0825 64.1488 89.0734 Q 62.1512 94.0643 62.1512 104.5452 Q 62.1512 115.026 66.1464 129.0005 Q 70.1415 142.975 79.6299 152.4577 Q 89.1184 161.9403 111.5911 168.9276 Q 134.0637 175.9148 172.0175 175.9148 Q 209.9713 175.9148 253.9179 172.9203 Q 297.8644 169.9258 338.8146 165.434 Q 379.7647 160.9422 402.7368 153.4558 Q 425.7088 145.9695 432.7003 142.4759 Q 439.6918 138.9823 440.6906 137.485 Q 441.6894 135.9877 441.19 135.4886 Q 440.6906 134.9896 438.693 132.4941 Q 436.6955 129.9987 434.1985 129.0005 Q 431.7016 128.0023 427.7064 126.5051 L 423.7083 125.0048" stroke-linecap="round"/>
</g>
<g transform="matrix(1 0 0 1 -51.8512 -23.9548)">
<path style="stroke: rgb(0,0,0); stroke-width: 3; stroke-dasharray: none; stroke-linecap: round; stroke-dashoffset: 0; stroke-linejoin: round; stroke-miterlimit: 10; fill: none; fill-rule: nonzero; opacity: 1;" transform=" translate(-199.9835, -77.5944)" d="M 195.9854 56.1306 Q 195.9884 56.1336 196.4878 56.1336 Q 196.9871 56.1336 197.4865 56.6327 Q 197.9859 57.1317 197.9859 60.1263 Q 197.9859 63.1208 198.4853 69.1099 Q 198.9847 75.0989 200.4829 81.088 Q 201.9811 87.0771 202.9799 93.0661 L 203.9816 99.0582" stroke-linecap="round"/>
</g>
<g transform="matrix(1 0 0 1 -7.9046 -39.4265)">
<path style="stroke: rgb(0,0,0); stroke-width: 3; stroke-dasharray: none; stroke-linecap: round; stroke-dashoffset: 0; stroke-linejoin: round; stroke-miterlimit: 10; fill: none; fill-rule: nonzero; opacity: 1;" transform=" translate(-243.93, -62.1226)" d="M 239.9319 35.1689 Q 239.9349 35.1719 240.4343 41.1609 Q 240.9337 47.15 242.4319 54.1372 Q 243.93 61.1245 244.9288 67.1135 Q 245.9276 73.1026 246.427 78.0935 Q 246.9264 83.0844 247.4258 86.0789 L 247.9282 89.0764" stroke-linecap="round"/>
</g>
<g transform="matrix(1 0 0 1 -80.8159 -40.4247)">
<path style="stroke: rgb(0,0,0); stroke-width: 3; stroke-dasharray: none; stroke-linecap: round; stroke-dashoffset: 0; stroke-linejoin: round; stroke-miterlimit: 10; fill: none; fill-rule: nonzero; opacity: 1;" transform=" translate(-171.0187, -61.1245)" d="M 171.0187 27.1834 Q 171.0187 27.1864 171.0187 27.6855 Q 171.0187 28.1846 171.0187 30.6801 Q 171.0187 33.1755 171.0187 38.6655 Q 171.0187 44.1554 171.0187 54.1372 Q 171.0187 64.119 171.0187 70.6071 Q 171.0187 77.0953 171.0187 82.0862 Q 171.0187 87.0771 171.0187 91.0698 L 171.0187 95.0655" stroke-linecap="round"/>
</g>
</svg>