<svg xmlns="http://www.w3.org/2000/svg" xmlns:xlink="http://www.w3.org/1999/xlink" version="1.1" width="277.7129114652446" height="185.14194097682972" viewBox="40.400962107707215 34.95795342104995 277.7129114652446 185.14194097682972" xml:space="preserve">
<desc>Created with Fabric.js 6.7.1</desc>
<defs>
</defs>
<rect x="0" y="0" width="100%" height="100%" fill="transparent"/>
<g transform="matrix(1 0 0 1 156.5364 108.5379)">
<path style="stroke: rgb(0,0,0); stroke-width: 3; stroke-dasharray: none; stroke-linecap: round; stroke-dashoffset: 0; stroke-linejoin: round; stroke-miterlimit: 10; fill: none; fill-rule: nonzero; opacity: 1;" transform=" translate(-156.5364, -108.5379)" d="M 111.0947 59.1281 Q 111.0917 59.1281 110.5923 59.1281 Q 110.0929 59.1281 108.5947 59.1281 Q 107.0965 59.1281 105.5983 61.1245 Q 104.1002 63.1208 103.1014 66.6144 Q 102.1026 70.108 101.1038 72.6035 Q 100.105 75.0989 100.105 79.5907 Q 100.105 84.0825 100.105 91.0698 Q 100.105 98.057 101.1038 106.0424 Q 102.1026 114.0278 107.0965 125.0078 Q 112.0904 135.9877 121.5789 145.4704 Q 131.0674 154.9531 140.0564 156.4504 Q 149.0455 157.9476 161.0309 157.9476 Q 173.0163 157.9476 185.0017 155.9513 Q 196.9871 153.9549 208.9726 148.964 Q 220.958 143.9732 227.9495 138.9823 Q 234.941 133.9914 237.4379 129.4996 Q 239.9349 125.0078 239.9349 122.5123 Q 239.9349 120.0169 238.9361 118.0205 Q 237.9373 116.0242 231.9446 112.5306 Q 225.9519 109.037 215.4647 106.0424 Q 204.9774 103.0479 191.9932 100.5525 Q 179.009 98.057 161.5303 98.057 Q 144.0516 98.057 132.0661 98.057 Q 120.0807 98.057 109.0941 99.5543 Q 98.1075 101.0515 90.6166 104.0461 Q 83.1257 107.0406 78.6312 111.0333 Q 74.1366 115.026 73.6372 115.5251 Q 73.1378 116.0242 73.1378 117.5215 Q 73.1378 119.0187 73.1378 121.5142 Q 73.1378 124.0096 76.6336 129.4996 Q 80.1293 134.9896 85.1233 139.4814 Q 90.1172 143.9732 95.6105 146.9677 Q 101.1038 149.9622 105.5983 151.4595 Q 110.0929 152.9567 114.088 152.9567 Q 118.0832 152.9567 119.0819 152.4577 Q 120.0807 151.9586 120.5801 150.4613 Q 121.0795 148.964 121.0795 146.9677 Q 121.0795 144.9713 121.0795 142.975 L 121.0795 140.9756" stroke-linecap="round"/>
</g>
</svg>