<svg xmlns="http://www.w3.org/2000/svg" xmlns:xlink="http://www.w3.org/1999/xlink" version="1.1" width="240.3180411992955" height="160.21202746619701" viewBox="32.21186999938442 106.87786445076625 240.3180411992955 160.21202746619701" xml:space="preserve">
<desc>Created with Fabric.js 6.7.1</desc>
<defs>
</defs>
<rect x="0" y="0" width="100%" height="100%" fill="transparent"/>
<g transform="matrix(1 0 0 1 153.0406 191.5416)">
<path style="stroke: rgb(0,0,0); stroke-width: 3; stroke-dasharray: none; stroke-linecap: round; stroke-dashoffset: 0; stroke-linejoin: round; stroke-miterlimit: 10; fill: none; fill-rule: nonzero; opacity: 1;" transform=" translate(-153.0406, -191.5416)" d="M 108.0983 146.9647 Q 108.0953 146.9677 105.099 147.4668 Q 102.1026 147.9659 98.1075 153.4558 Q 94.1123 158.9458 92.6141 165.933 Q 91.116 172.9203 91.116 181.4048 Q 91.116 189.8893 92.1148 198.3738 Q 93.1135 206.8583 99.1062 215.3428 Q 105.099 223.8273 117.0844 228.3191 Q 129.0698 232.8109 142.5534 234.8073 Q 156.037 236.8036 172.5169 232.8109 Q 188.9969 228.8182 195.489 222.3301 Q 201.9811 215.8419 207.4744 207.8565 Q 212.9677 199.8711 213.9665 193.882 Q 214.9653 187.8929 214.9653 182.403 L 214.9653 176.91" stroke-linecap="round"/>
</g>
</svg>