<svg xmlns="http://www.w3.org/2000/svg" xmlns:xlink="http://www.w3.org/1999/xlink" version="1.1" width="304.2101288978017" height="202.8067525985345" viewBox="33.03281295519972 53.9744791389661 304.2101288978017 202.8067525985345" xml:space="preserve">
<desc>Created with Fabric.js 6.7.1</desc>
<defs>
</defs>
<rect x="0" y="0" width="100%" height="100%" fill="transparent"/>
<g transform="matrix(1 0 0 1 176.5106 149.6295)">
<path style="stroke: rgb(0,0,0); stroke-width: 3; stroke-dasharray: none; stroke-linecap: round; stroke-dashoffset: 0; stroke-linejoin: round; stroke-miterlimit: 10; fill: none; fill-rule: nonzero; opacity: 1;" transform=" translate(-176.5106, -149.6295)" d="M 63.147 70.7705 Q 63.15 70.7735 63.6494 78.7589 Q 64.1488 86.7444 70.6409 100.2197 Q 77.133 113.6951 87.6202 127.1705 Q 98.1075 140.6459 117.0844 154.6204 Q 136.0613 168.5949 158.5339 174.0848 Q 181.0066 179.5748 204.9774 182.0703 Q 228.9483 184.5657 252.4197 180.0739 Q 275.8911 175.5821 281.3845 169.094 Q 286.8778 162.6058 288.3759 156.6168 Q 289.8741 150.6277 289.8741 148.6313 Q 289.8741 146.635 287.8766 143.6404 Q 285.879 140.6459 282.3832 139.1487 Q 278.8875 137.6514 274.393 137.6514 Q 269.8984 137.6514 260.9094 140.1468 Q 251.9203 142.6423 240.9337 154.1213 Q 229.947 165.6003 222.4562 179.5748 Q 214.9653 193.5493 211.4695 204.0302 Q 207.9738 214.511 205.9762 221.4983 L 203.9756 228.4885" stroke-linecap="round"/>
</g>
</svg>