<svg xmlns="http://www.w3.org/2000/svg" xmlns:xlink="http://www.w3.org/1999/xlink" version="1.1" width="265.0046736952014" height="137.31446474938164" viewBox="40.177949698740235 66.11534099188935 265.0046736952014 137.31446474938164" xml:space="preserve">
<desc>Created with Fabric.js 6.7.1</desc>
<defs>
</defs>
<rect x="0" y="0" width="100%" height="100%" fill="transparent"/>
<g transform="matrix(1 0 0 1 175.4888 130.4963)">
<path style="stroke: rgb(0,0,0); stroke-width: 3; stroke-dasharray: none; stroke-linecap: round; stroke-dashoffset: 0; stroke-linejoin: round; stroke-miterlimit: 10; fill: none; fill-rule: nonzero; opacity: 1;" transform=" translate(-175.4888, -130.4963)" d="M 123.0771 80.0868 Q 123.0771 80.0898 123.0771 80.5889 Q 123.0771 81.088 123.0771 83.5834 Q 123.0771 86.0789 123.5765 88.0752 Q 124.0759 90.0716 124.5753 90.5707 Q 125.0746 91.0698 125.0746 91.5689 Q 125.0746 92.0679 126.0734 92.567 Q 127.0722 93.0661 127.5716 93.0661 Q 128.071 93.0661 129.5692 93.0661 Q 131.0674 93.0661 133.0649 91.5689 Q 135.0625 90.0716 135.5619 89.0734 Q 136.0613 88.0752 137.0601 86.0789 Q 138.0589 84.0825 138.5582 83.0844 Q 139.0576 82.0862 139.0576 81.5871 Q 139.0576 81.088 140.0564 81.088 Q 141.0552 81.088 141.5546 81.088 Q 142.054 81.088 142.054 84.0825 Q 142.054 87.0771 142.054 94.5634 Q 142.054 102.0497 144.551 116.5233 Q 147.0479 130.9969 153.0406 143.4741 Q 159.0333 155.9513 175.0139 166.9312 Q 190.9944 177.9112 205.9762 179.4084 Q 220.958 180.9057 233.9422 180.9057 Q 246.9264 180.9057 256.9142 177.4121 Q 266.9021 173.9185 270.3978 166.4321 Q 273.8936 158.9458 274.8924 153.4558 Q 275.8911 147.9659 274.8924 141.9768 Q 273.8936 135.9877 267.4015 129.9987 Q 260.9094 124.0096 246.427 122.0133 Q 231.9446 120.0169 213.9665 120.0169 Q 195.9884 120.0169 182.0054 124.5087 Q 168.0224 129.0005 158.5339 138.4832 Q 149.0455 147.9659 147.5473 151.9586 Q 146.0491 155.9513 146.0491 157.4485 Q 146.0491 158.9458 146.5485 158.9458 Q 147.0479 158.9458 149.5449 158.9458 Q 152.0418 158.9458 154.0394 156.9495 Q 156.037 154.9531 157.5352 151.4595 Q 159.0333 147.9659 159.0333 145.4704 Q 159.0333 142.975 157.0358 140.4795 Q 155.0382 137.9841 147.0479 136.9859 Q 139.0576 135.9877 130.0686 135.9877 Q 121.0795 135.9877 111.0917 140.4795 Q 101.1038 144.9713 93.6129 151.4595 Q 86.122 157.9476 83.6251 163.9367 Q 81.1281 169.9258 81.1281 171.423 Q 81.1281 172.9203 81.1281 173.9185 Q 81.1281 174.9166 84.6239 173.9185 Q 88.1196 172.9203 91.6154 169.9258 Q 95.1111 166.9312 95.6105 162.9385 Q 96.1099 158.9458 96.1099 154.454 Q 96.1099 149.9622 94.6117 145.9695 Q 93.1135 141.9768 90.1172 139.4814 Q 87.1208 136.9859 84.1245 136.9859 Q 81.1281 136.9859 78.6312 137.485 Q 76.1342 137.9841 75.6348 141.9768 Q 75.1354 145.9695 76.6336 151.9586 Q 78.1318 157.9476 82.6263 159.4449 Q 87.1208 160.9422 94.1123 160.9422 Q 101.1038 160.9422 106.5971 157.4485 Q 112.0904 153.9549 114.088 148.964 Q 116.0856 143.9732 116.0856 139.4814 Q 116.0856 134.9896 116.0856 131.995 Q 116.0856 129.0005 116.0856 125.5069 L 116.0856 122.0103" stroke-linecap="round"/>
</g>
</svg>