<?xml version="1.0" encoding="UTF-8" standalone="no" ?>
<!DOCTYPE svg PUBLIC "-//W3C//DTD SVG 1.1//EN" "http://www.w3.org/Graphics/SVG/1.1/DTD/svg11.dtd">
<svg xmlns="http://www.w3.org/2000/svg" xmlns:xlink="http://www.w3.org/1999/xlink" version="1.1" width="823" height="400" viewBox="0 0 823 400" xml:space="preserve">
<desc>Created with Fabric.js 6.7.1</desc>
<defs>
</defs>
<rect x="0" y="0" width="100%" height="100%" fill="transparent"></rect>
<g transform="matrix(1 0 0 1 411.5 200)"  >
	<image style="stroke: none; stroke-width: 0; stroke-dasharray: none; stroke-linecap: butt; stroke-dashoffset: 0; stroke-linejoin: miter; stroke-miterlimit: 4; fill: rgb(0,0,0); fill-rule: nonzero; opacity: 1;"  xlink:href="https://cdn.jsdelivr.net/gh/Habibullah-sekh/ncert-pdfs@main/question-assets/1765538202406-image.png" x="-404" y="-191" width="808" height="382"></image>
</g>
<g transform="matrix(1 0 0 1 257.966 138.9785)"  >
<path style="stroke: rgb(255,0,255); stroke-width: 3; stroke-dasharray: none; stroke-linecap: round; stroke-dashoffset: 0; stroke-linejoin: round; stroke-miterlimit: 10; fill: none; fill-rule: nonzero; opacity: 1;"  transform=" translate(-257.966, -138.9785)" d="M 261.5114 129.9934 Q 261.5144 129.9964 261.5144 132.4918 Q 261.5144 134.9873 265.0143 145.4681 Q 268.5141 155.949 269.5141 157.4462 Q 270.514 158.9435 272.514 161.439 Q 274.5139 163.9344 275.0139 165.4317 Q 275.5138 166.9289 276.0138 167.428 Q 276.5138 167.9271 277.0138 168.4262 Q 277.5138 168.9253 278.0137 168.9253 Q 278.5137 168.9253 279.0137 168.9253 Q 279.5137 168.9253 281.0136 168.4262 Q 282.5135 167.9271 283.0135 165.9307 Q 283.5135 163.9344 286.0134 160.9399 Q 288.5133 157.9453 290.5132 153.4535 Q 292.5131 148.9617 295.013 144.4699 Q 297.5129 139.9781 299.0128 135.9854 Q 300.5128 131.9927 302.5127 127.5009 Q 304.5126 123.0091 305.5126 120.5137 Q 306.5125 118.0182 307.5125 116.0219 Q 308.5124 114.0255 308.5124 113.0274 Q 308.5124 112.0292 309.0124 112.0292 Q 309.5124 112.0292 310.5124 112.5283 Q 311.5123 113.0274 312.5123 114.0255 Q 313.5122 115.0237 315.5121 117.0201 Q 317.5121 119.0164 318.512 120.5137 Q 319.512 122.011 320.012 122.51 Q 320.5119 123.0091 321.0119 123.0091 Q 321.5119 123.0091 322.0119 123.0091 Q 322.5119 123.0091 324.0118 122.011 Q 325.5117 121.0128 326.0117 119.5155 Q 326.5117 118.0182 328.0116 115.0237 Q 329.5116 112.0292 330.5115 109.0347 Q 331.5115 106.0401 333.0114 103.5447 Q 334.5113 101.0492 336.0113 98.0547 Q 337.5112 95.0602 338.5112 94.5611 Q 339.5111 94.062 341.0111 92.5647 Q 342.511 91.0675 343.511 91.0675 Q 344.5109 91.0675 346.5108 91.0675 Q 348.5108 91.0675 350.5107 91.0675 Q 352.5106 91.0675 354.5105 91.0675 Q 356.5104 91.0675 360.0103 93.0638 Q 363.5101 95.0602 368.5099 98.0547 Q 373.5097 101.0492 376.0096 102.5465 Q 378.5095 104.0438 382.0093 105.0419 Q 385.5092 106.0401 387.5091 107.0383 Q 389.509 108.0365 392.0089 108.0365 Q 394.5088 108.0365 397.0087 108.0365 Q 399.5086 108.0365 401.0085 106.5392 Q 402.5085 105.0419 404.0084 103.0456 Q 405.5084 101.0492 407.5083 98.0547 Q 409.5082 95.0602 410.0082 92.0656 Q 410.5081 89.0711 411.0081 87.0748 Q 411.5081 85.0784 412.5081 83.0821 Q 413.508 81.0857 413.508 80.5866 Q 413.508 80.0875 414.008 79.5884 Q 414.508 79.0893 415.008 79.5884 Q 415.5079 80.0875 416.0079 80.5866 Q 416.5079 81.0857 417.5078 82.0839 Q 418.5078 83.0821 419.0078 83.5811 Q 419.5078 84.0802 420.0077 84.0802 Q 420.5077 84.0802 418.5078 87.0748 Q 416.5079 90.0693 412.0081 93.5629 Q 407.5083 97.0565 399.0086 102.0474 Q 390.509 107.0383 383.5093 110.5319 Q 376.5096 114.0255 369.0099 119.0164 Q 361.5102 124.0073 352.0106 130.9946 Q 342.511 137.9818 329.0116 145.9672 Q 315.5121 153.9526 299.5128 162.4371 Q 283.5135 170.9216 269.0141 177.4098 Q 254.5147 183.8979 242.0153 188.3897 Q 229.5158 192.8815 217.0163 198.3715 Q 204.5168 203.8615 198.0171 205.3587 Q 191.5174 206.856 183.0177 207.3551 Q 174.5181 207.8542 169.5183 207.8542 Q 164.5185 207.8542 158.5188 207.8542 Q 152.519 207.8542 148.0192 207.8542 Q 143.5194 207.8542 139.0196 204.8597 Q 134.5198 201.8651 129.52 198.3715 Q 124.5202 194.8779 119.5204 191.8834 Q 114.5206 188.8888 111.5208 186.3934 Q 108.5209 183.8979 105.521 181.4025 Q 102.5211 178.9071 100.0212 177.9089 Q 97.5213 176.9107 97.0214 175.9125 Q 96.5214 174.9143 96.0214 174.4153 Q 95.5214 173.9162 96.0214 172.4189 Q 96.5214 170.9216 100.5212 168.9253 Q 104.5211 166.9289 110.5208 164.4335 Q 116.5205 161.938 122.5203 159.9417 Q 128.52 157.9453 137.0197 153.4535 Q 145.5193 148.9617 154.019 144.969 Q 162.5186 140.9763 174.0181 134.9873 Q 185.5176 128.9982 201.017 121.5119 Q 216.5163 114.0255 231.0157 109.0347 Q 245.5151 104.0438 261.0144 96.5574 Q 276.5138 89.0711 288.5133 85.5775 Q 300.5128 82.0839 308.0125 80.0875 Q 315.5121 78.0912 322.0119 76.0948 Q 328.5116 74.0985 331.0115 73.1003 Q 333.5114 72.1021 335.0113 71.1039 L 336.5143 70.1027" stroke-linecap="round" />
</g>
</svg>