<?xml version="1.0" encoding="UTF-8" standalone="no" ?>
<!DOCTYPE svg PUBLIC "-//W3C//DTD SVG 1.1//EN" "http://www.w3.org/Graphics/SVG/1.1/DTD/svg11.dtd">
<svg xmlns="http://www.w3.org/2000/svg" xmlns:xlink="http://www.w3.org/1999/xlink" version="1.1" width="823" height="400" viewBox="0 0 823 400" xml:space="preserve">
<desc>Created with Fabric.js 6.7.1</desc>
<defs>
</defs>
<rect x="0" y="0" width="100%" height="100%" fill="transparent"></rect>
<g transform="matrix(1 0 0 1 411.5 200)"  >
	<image style="stroke: none; stroke-width: 0; stroke-dasharray: none; stroke-linecap: butt; stroke-dashoffset: 0; stroke-linejoin: miter; stroke-miterlimit: 4; fill: rgb(0,0,0); fill-rule: nonzero; opacity: 1;"  xlink:href="https://cdn.jsdelivr.net/gh/Habibullah-sekh/ncert-pdfs@main/question-assets/1765537779714-image.png" x="-404" y="-191" width="808" height="382"></image>
</g>
<g transform="matrix(1 0 0 1 232.6872 104.5429)"  >
<path style="stroke: rgb(255,255,0); stroke-width: 3; stroke-dasharray: none; stroke-linecap: round; stroke-dashoffset: 0; stroke-linejoin: round; stroke-miterlimit: 10; fill: none; fill-rule: nonzero; opacity: 1;"  transform=" translate(-232.6872, -104.5429)" d="M 206.5167 101.0462 Q 206.5167 101.0492 206.0168 101.5483 Q 205.5168 102.0474 205.5168 103.0456 Q 205.5168 104.0438 205.0168 104.0438 Q 204.5168 104.0438 204.0169 105.0419 Q 203.5169 106.0401 203.5169 106.5392 Q 203.5169 107.0383 203.0169 108.0365 Q 202.5169 109.0347 202.5169 110.0328 Q 202.5169 111.031 202.5169 111.5301 Q 202.5169 112.0292 202.5169 113.5265 Q 202.5169 115.0237 201.517 115.5228 Q 200.517 116.0219 200.517 117.0201 Q 200.517 118.0182 200.517 118.5173 Q 200.517 119.0164 200.517 120.0146 Q 200.517 121.0128 200.517 121.5119 Q 200.517 122.011 200.517 123.0091 Q 200.517 124.0073 200.517 124.5064 Q 200.517 125.0055 200.517 125.5046 Q 200.517 126.0037 200.517 126.5028 Q 200.517 127.0018 201.517 127.0018 Q 202.5169 127.0018 203.0169 127.0018 Q 203.5169 127.0018 204.5168 127.0018 Q 205.5168 127.0018 207.0167 127.0018 Q 208.5167 127.0018 210.0166 127.0018 Q 211.5165 127.0018 214.0164 127.0018 Q 216.5163 127.0018 218.5162 127.0018 Q 220.5162 127.0018 224.516 125.0055 Q 228.5158 123.0091 232.5157 121.0128 Q 236.5155 119.0164 240.0153 117.5192 Q 243.5152 116.0219 247.515 114.0255 Q 251.5148 112.0292 256.5146 109.5337 Q 261.5144 107.0383 264.5143 105.541 Q 267.5142 104.0438 272.514 102.0474 Q 277.5138 100.0511 280.0136 99.0529 Q 282.5135 98.0547 283.0135 97.5556 Q 283.5135 97.0565 284.0135 97.0565 Q 284.5135 97.0565 285.0134 96.5574 Q 285.5134 96.0584 286.0134 96.0584 Q 286.5134 96.0584 287.5133 96.0584 Q 288.5133 96.0584 289.0133 96.5574 Q 289.5132 97.0565 290.5132 97.5556 Q 291.5132 98.0547 292.0131 99.552 Q 292.5131 101.0492 293.5131 102.0474 Q 294.513 103.0456 294.513 104.0438 Q 294.513 105.0419 296.513 107.5374 Q 298.5129 110.0328 299.5128 111.031 Q 300.5128 112.0292 302.0127 114.5246 Q 303.5127 117.0201 305.0126 120.5137 Q 306.5125 124.0073 308.0125 126.5028 Q 309.5124 128.9982 312.5123 132.9909 Q 315.5121 136.9836 317.5121 138.98 Q 319.512 140.9763 322.5119 143.9709 Q 325.5117 146.9654 328.0116 149.4608 Q 330.5115 151.9563 332.5114 153.4535 Q 334.5113 154.9508 336.5113 156.4481 Q 338.5112 157.9453 340.5111 158.4444 Q 342.511 158.9435 343.511 159.4426 Q 344.5109 159.9417 346.5108 159.9417 Q 348.5108 159.9417 350.5107 159.9417 Q 352.5106 159.9417 354.0105 159.9417 Q 355.5105 159.9417 357.5104 159.9417 Q 359.5103 159.9417 361.0102 158.9435 Q 362.5102 157.9453 365.51 154.9508 Q 368.5099 151.9563 371.0098 149.4608 Q 373.5097 146.9654 375.5096 143.9709 Q 377.5095 140.9763 380.0094 138.4809 Q 382.5093 135.9854 385.0092 132.9909 Q 387.5091 129.9964 388.0091 129.4973 Q 388.5091 128.9982 390.009 127.0018 Q 391.5089 125.0055 392.0089 124.5064 Q 392.5089 124.0073 392.5089 123.5082 Q 392.5089 123.0091 392.5089 122.51 Q 392.5089 122.011 392.0089 122.011 Q 391.5089 122.011 389.509 122.011 Q 387.5091 122.011 384.0093 122.011 Q 380.5094 122.011 375.5096 122.011 Q 370.5098 122.011 364.0101 122.011 Q 357.5104 122.011 351.5106 122.011 Q 345.5109 122.011 339.5111 123.0091 Q 333.5114 124.0073 327.5116 124.5064 Q 321.5119 125.0055 313.0123 127.5009 Q 304.5126 129.9964 297.0129 130.9946 Q 289.5132 131.9927 282.0136 131.9927 Q 274.5139 131.9927 267.0142 133.49 Q 259.5145 134.9873 253.0148 134.9873 Q 246.5151 134.9873 240.5153 134.9873 Q 234.5156 134.9873 227.0159 134.9873 Q 219.5162 134.9873 214.5164 134.9873 Q 209.5166 134.9873 204.5168 134.9873 Q 199.517 134.9873 195.0172 134.9873 Q 190.5174 134.9873 187.0176 134.4882 Q 183.5177 133.9891 180.5178 132.9909 Q 177.518 131.9927 176.018 131.9927 Q 174.5181 131.9927 172.0182 131.9927 Q 169.5183 131.9927 168.5184 131.4936 Q 167.5184 130.9946 167.0184 130.9946 Q 166.5184 130.9946 166.0185 130.9946 Q 165.5185 130.9946 165.0185 130.4955 Q 164.5185 129.9964 164.0185 129.9964 Q 163.5186 129.9964 163.0186 129.4973 Q 162.5186 128.9982 161.5186 128.9982 Q 160.5187 128.9982 160.0187 128.9982 Q 159.5187 128.9982 158.5188 128.4991 Q 157.5188 128 157.0188 127.5009 Q 156.5189 127.0018 155.0189 127.0018 Q 153.519 127.0018 152.519 127.0018 Q 151.5191 127.0018 150.0191 126.5028 Q 148.5192 126.0037 147.5192 125.5046 Q 146.5193 125.0055 146.0193 125.0055 Q 145.5193 125.0055 144.0194 124.5064 Q 142.5194 124.0073 142.0195 123.5082 Q 141.5195 123.0091 141.0195 123.0091 Q 140.5195 123.0091 140.0196 122.51 Q 139.5196 122.011 139.5196 121.5119 Q 139.5196 121.0128 138.5196 121.0128 Q 137.5197 121.0128 137.0197 121.0128 Q 136.5197 121.0128 136.5197 120.5137 Q 136.5197 120.0146 136.0197 119.0164 Q 135.5197 118.0182 135.5197 117.0201 Q 135.5197 116.0219 135.5197 115.5228 Q 135.5197 115.0237 135.5197 114.0255 Q 135.5197 113.0274 135.5197 112.5283 Q 135.5197 112.0292 136.0197 110.5319 Q 136.5197 109.0347 137.5197 108.5356 Q 138.5196 108.0365 140.0196 107.5374 Q 141.5195 107.0383 143.5194 105.541 Q 145.5193 104.0438 146.5193 103.5447 Q 147.5192 103.0456 151.0191 102.0474 Q 154.5189 101.0492 158.0188 101.0492 Q 161.5186 101.0492 167.5184 100.0511 Q 173.5181 99.0529 181.0178 99.0529 Q 188.5175 99.0529 196.5172 99.0529 Q 204.5168 99.0529 214.5164 99.0529 Q 224.516 99.0529 233.5156 99.0529 Q 242.5152 99.0529 252.0148 99.0529 Q 261.5144 99.0529 269.5141 99.0529 Q 277.5138 99.0529 285.5134 99.0529 Q 293.5131 99.0529 300.0128 99.0529 Q 306.5125 99.0529 312.5123 99.0529 Q 318.512 99.0529 323.5118 99.0529 Q 328.5116 99.0529 334.0114 98.5538 Q 339.5111 98.0547 342.511 97.5556 Q 345.5109 97.0565 348.5108 96.5574 Q 351.5106 96.0584 353.5105 94.5611 Q 355.5105 93.0638 357.0104 92.5647 Q 358.5103 92.0656 359.5103 92.0656 Q 360.5103 92.0656 361.5102 91.5666 Q 362.5102 91.0675 363.0101 90.0693 Q 363.5101 89.0711 364.0101 89.0711 Q 364.5101 89.0711 365.0101 88.572 Q 365.51 88.0729 366.51 88.0729 Q 367.51 88.0729 368.5099 87.0748 Q 369.5099 86.0766 370.5098 85.5775 Q 371.5098 85.0784 373.5097 84.5793 Q 375.5096 84.0802 377.5095 84.0802 Q 379.5094 84.0802 380.5094 84.0802 Q 381.5094 84.0802 382.5093 84.0802 Q 383.5093 84.0802 384.0093 84.0802 Q 384.5092 84.0802 385.0092 84.0802 Q 385.5092 84.0802 386.0092 84.0802 Q 386.5092 84.0802 386.5092 83.5811 Q 386.5092 83.0821 386.5092 82.583 Q 386.5092 82.0839 386.5092 81.5848 Q 386.5092 81.0857 384.5092 81.0857 Q 382.5093 81.0857 379.5094 81.0857 Q 376.5096 81.0857 371.5098 79.5884 Q 366.51 78.0912 361.5102 78.0912 Q 356.5104 78.0912 352.5106 78.0912 Q 348.5108 78.0912 343.011 77.093 Q 337.5112 76.0948 332.5114 76.0948 Q 327.5116 76.0948 321.5119 76.0948 Q 315.5121 76.0948 309.5124 76.0948 Q 303.5127 76.0948 297.5129 76.0948 Q 291.5132 76.0948 284.5135 76.0948 Q 277.5138 76.0948 268.5141 76.0948 Q 259.5145 76.0948 250.5149 76.0948 Q 241.5153 76.0948 229.0158 76.0948 Q 216.5163 76.0948 204.5168 76.0948 Q 192.5173 76.0948 182.0178 76.0948 Q 171.5182 76.0948 160.5187 76.0948 Q 149.5192 76.0948 140.5195 76.0948 Q 131.5199 76.0948 123.5202 76.0948 Q 115.5206 76.0948 109.0209 76.0948 Q 102.5211 76.0948 97.0214 76.0948 Q 91.5216 76.0948 87.0218 76.0948 Q 82.522 76.0948 80.5221 76.0948 Q 78.5221 76.0948 76.5222 76.0948 Q 74.5223 76.0948 73.5224 75.5957 Q 72.5224 75.0966 74.5223 75.0966 Q 76.5222 75.0966 79.5221 75.0966 Q 82.522 75.0966 87.0218 74.0985 Q 91.5216 73.1003 94.0215 72.1021 Q 96.5214 71.1039 100.5212 70.1057 Q 104.5211 69.1076 109.0209 67.1112 Q 113.5207 65.1149 119.0204 64.1167 Q 124.5202 63.1185 129.02 62.1203 Q 133.5198 61.1222 139.5196 59.6249 Q 145.5193 58.1276 150.0191 57.6285 Q 154.5189 57.1294 159.0188 56.1313 Q 163.5186 55.1331 165.5185 55.1331 Q 167.5184 55.1331 169.0183 55.1331 Q 170.5183 55.1331 172.5182 55.1331 Q 174.5181 55.1331 175.5181 55.1331 Q 176.518 55.1331 177.018 55.1331 Q 177.518 55.1331 178.018 55.1331 Q 178.5179 55.1331 179.0179 55.1331 Q 179.5179 55.1331 180.0179 55.1331 Q 180.5178 55.1331 181.5178 56.1313 Q 182.5178 57.1294 183.0177 57.6285 Q 183.5177 58.1276 185.5176 58.6267 Q 187.5175 59.1258 189.0175 59.6249 Q 190.5174 60.124 193.0173 61.1222 Q 195.5172 62.1203 200.517 63.1185 Q 205.5168 64.1167 208.5167 64.1167 Q 211.5165 64.1167 217.0163 64.1167 Q 222.5161 64.1167 227.5159 64.1167 Q 232.5157 64.1167 236.0155 64.1167 Q 239.5154 64.1167 244.0152 64.1167 Q 248.515 64.1167 252.5148 63.1185 Q 256.5146 62.1203 259.5145 61.6212 Q 262.5144 61.1222 264.5143 60.6231 Q 266.5142 60.124 268.5141 59.1258 Q 270.514 58.1276 273.0139 57.6285 Q 275.5138 57.1294 276.0138 56.6304 Q 276.5138 56.1313 277.5138 55.6322 Q 278.5137 55.1331 279.0137 55.1331 Q 279.5137 55.1331 281.0136 54.634 Q 282.5135 54.1349 282.5135 53.6358 Q 282.5135 53.1367 283.0135 53.1367 Q 283.5135 53.1367 284.5135 53.1367 Q 285.5134 53.1367 286.0134 53.1367 Q 286.5134 53.1367 288.5133 52.6377 Q 290.5132 52.1386 292.5131 52.1386 Q 294.513 52.1386 297.0129 52.1386 Q 299.5128 52.1386 302.0127 52.1386 Q 304.5126 52.1386 307.5125 52.1386 Q 310.5124 52.1386 312.5123 52.1386 Q 314.5122 52.1386 316.5121 52.1386 Q 318.512 52.1386 320.012 52.1386 Q 321.5119 52.1386 322.0119 51.1404 Q 322.5119 50.1422 324.0118 50.1422 Q 325.5117 50.1422 325.5117 49.6431 Q 325.5117 49.144 326.0117 49.144 Q 326.5117 49.144 327.5116 49.144 Q 328.5116 49.144 326.0117 49.144 Q 323.5118 49.144 320.012 49.144 Q 316.5121 49.144 313.0123 49.6431 Q 309.5124 50.1422 306.0126 50.1422 Q 302.5127 50.1422 298.5129 50.6413 Q 294.513 51.1404 291.5132 51.6395 Q 288.5133 52.1386 285.5134 52.6377 Q 282.5135 53.1367 280.0136 53.1367 Q 277.5138 53.1367 274.5139 54.1349 Q 271.514 55.1331 270.0141 55.6322 Q 268.5141 56.1313 266.5142 56.1313 Q 264.5143 56.1313 263.0144 56.1313 Q 261.5144 56.1313 260.5145 56.6304 Q 259.5145 57.1294 258.0146 57.1294 Q 256.5146 57.1294 255.0147 57.6285 Q 253.5148 58.1276 252.0148 58.1276 Q 250.5149 58.1276 248.515 59.6249 Q 246.5151 61.1222 245.0151 61.1222 Q 243.5152 61.1222 241.5153 62.6194 Q 239.5154 64.1167 238.0154 65.1149 Q 236.5155 66.113 234.5156 66.6121 Q 232.5157 67.1112 230.5157 68.1094 Q 228.5158 69.1076 227.0159 69.1076 Q 225.5159 69.1076 224.016 70.1057 Q 222.5161 71.1039 221.0161 72.1021 Q 219.5162 73.1003 218.5162 73.5994 Q 217.5163 74.0985 217.0163 74.5975 Q 216.5163 75.0966 215.5164 75.0966 Q 214.5164 75.0966 213.5165 76.0948 Q 212.5165 77.093 212.0165 77.5921 Q 211.5165 78.0912 210.5166 78.0912 Q 209.5166 78.0912 209.0166 78.5903 Q 208.5167 79.0893 208.5167 79.5884 Q 208.5167 80.0875 208.0167 80.5866 Q 207.5167 81.0857 207.0167 81.5848 Q 206.5167 82.0839 206.0168 83.0821 Q 205.5168 84.0802 205.5168 84.5793 Q 205.5168 85.0784 205.0168 86.0766 Q 204.5168 87.0748 204.5168 87.5738 Q 204.5168 88.0729 204.5168 88.572 Q 204.5168 89.0711 204.0169 89.5702 Q 203.5169 90.0693 203.0169 90.5684 Q 202.5169 91.0675 202.5169 91.5666 Q 202.5169 92.0656 202.5169 93.0638 Q 202.5169 94.062 203.0169 94.5611 Q 203.5169 95.0602 204.0169 95.0602 Q 204.5168 95.0602 204.5168 95.5593 Q 204.5168 96.0584 204.5168 96.5574 Q 204.5168 97.0565 204.5168 97.5556 Q 204.5168 98.0547 205.0168 98.5538 L 205.5198 99.0559" stroke-linecap="round" />
</g>
<g transform="matrix(1 0 0 1 436.0071 174.8287)"  >
<path style="stroke: rgb(255,0,255); stroke-width: 3; stroke-dasharray: none; stroke-linecap: round; stroke-dashoffset: 0; stroke-linejoin: round; stroke-miterlimit: 10; fill: none; fill-rule: nonzero; opacity: 1;"  transform=" translate(-436.0071, -174.8287)" d="M 83.5189 107.0353 Q 83.5219 107.0383 84.5219 107.0383 Q 85.5219 107.0383 86.5218 108.5356 Q 87.5218 110.0328 89.0217 112.5283 Q 90.5216 115.0237 91.0216 116.0219 Q 91.5216 117.0201 93.0215 119.5155 Q 94.5215 122.011 95.0215 124.0073 Q 95.5214 126.0037 96.0214 126.5028 Q 96.5214 127.0018 98.0213 128 Q 99.5213 128.9982 99.5213 129.4973 Q 99.5213 129.9964 100.5212 130.9946 Q 101.5212 131.9927 102.0212 132.4918 Q 102.5211 132.9909 102.5211 133.9891 Q 102.5211 134.9873 103.0211 135.4863 Q 103.5211 135.9854 104.5211 136.9836 Q 105.521 137.9818 106.021 137.9818 Q 106.521 137.9818 107.5209 137.9818 Q 108.5209 137.9818 110.5208 138.4809 Q 112.5207 138.98 115.5206 138.98 Q 118.5205 138.98 125.0202 138.98 Q 131.5199 138.98 141.5195 138.98 Q 151.5191 138.98 172.5182 135.4863 Q 193.5173 131.9927 214.0164 127.0018 Q 234.5156 122.011 261.0144 110.0328 Q 287.5133 98.0547 312.0123 88.572 Q 336.5113 79.0893 361.0102 68.6085 Q 385.5092 58.1276 409.0082 47.1477 Q 432.5072 36.1677 448.0066 30.1787 Q 463.5059 24.1896 480.5052 16.2042 Q 497.5045 8.2188 510.5039 3.2279 Q 523.5034 -1.763 529.5031 -4.2584 Q 535.5029 -6.7539 539.5027 -9.2493 Q 543.5025 -11.7448 544.5025 -11.7448 Q 545.5024 -11.7448 544.0025 -11.2457 Q 542.5026 -10.7466 541.0026 -9.2493 Q 539.5027 -7.7521 537.0028 -5.2566 Q 534.5029 -2.7612 530.0031 0.2334 Q 525.5033 3.2279 521.0035 6.2224 Q 516.5037 9.2169 511.5039 13.2097 Q 506.5041 17.2024 500.5043 21.6942 Q 494.5046 26.186 488.0049 30.6778 Q 481.5051 35.1696 475.0054 39.6613 Q 468.5057 44.1531 460.506 49.6431 Q 452.5064 55.1331 445.0067 58.6267 Q 437.507 62.1203 428.5074 68.6085 Q 419.5078 75.0966 411.0081 80.0875 Q 402.5085 85.0784 393.0089 91.0675 Q 383.5093 97.0565 375.0096 101.5483 Q 366.51 106.0401 358.0104 110.0328 Q 349.5107 114.0255 339.5111 119.5155 Q 329.5116 125.0055 322.0119 129.9964 Q 314.5122 134.9873 307.0125 138.4809 Q 299.5128 141.9745 293.5131 145.4681 Q 287.5133 148.9617 282.0136 152.4554 Q 276.5138 155.949 272.514 158.4444 Q 268.5141 160.9399 265.0143 162.9362 Q 261.5144 164.9326 258.5146 165.9307 Q 255.5147 166.9289 253.5148 167.9271 Q 251.5148 168.9253 250.0149 168.9253 Q 248.515 168.9253 247.015 168.9253 Q 245.5151 168.9253 244.5151 168.9253 Q 243.5152 168.9253 242.5152 168.9253 Q 241.5153 168.9253 239.5154 168.9253 Q 237.5154 168.9253 236.5155 168.9253 Q 235.5155 168.9253 233.5156 168.4262 Q 231.5157 167.9271 228.5158 166.9289 Q 225.5159 165.9307 223.516 164.9326 Q 221.5161 163.9344 219.0162 162.9362 Q 216.5163 161.938 213.5165 159.9417 Q 210.5166 157.9453 208.0167 157.9453 Q 205.5168 157.9453 202.5169 156.4481 Q 199.517 154.9508 197.0171 153.4535 Q 194.5173 151.9563 193.0173 151.9563 Q 191.5174 151.9563 191.0174 150.9581 Q 190.5174 149.9599 190.0174 149.4608 Q 189.5175 148.9617 189.0175 148.9617 Q 188.5175 148.9617 188.5175 147.9636 Q 188.5175 146.9654 188.5175 146.4663 Q 188.5175 145.9672 190.5174 145.4681 Q 192.5173 144.969 196.0172 144.969 Q 199.517 144.969 205.5168 144.4699 Q 211.5165 143.9709 217.5163 143.9709 Q 223.516 143.9709 232.5157 143.9709 Q 241.5153 143.9709 253.5148 143.9709 Q 265.5143 143.9709 279.5137 143.9709 Q 293.5131 143.9709 308.5124 143.9709 Q 323.5118 143.9709 339.0112 143.9709 Q 354.5105 143.9709 368.0099 143.9709 Q 381.5094 143.9709 396.5087 143.9709 Q 411.5081 143.9709 423.5076 143.9709 Q 435.5071 143.9709 447.5066 143.9709 Q 459.5061 143.9709 468.0057 143.9709 Q 476.5054 143.9709 484.005 142.9727 Q 491.5047 141.9745 495.5046 140.9763 Q 499.5044 139.9781 502.5043 138.98 Q 505.5041 137.9818 508.004 136.4845 Q 510.5039 134.9873 511.0039 134.4882 Q 511.5039 133.9891 512.0039 133.49 Q 512.5038 132.9909 513.0038 132.4918 Q 513.5038 131.9927 514.0038 131.9927 Q 514.5038 131.9927 513.0038 131.9927 Q 511.5039 131.9927 507.0041 131.9927 Q 502.5043 131.9927 495.5046 131.9927 Q 488.5049 131.9927 480.5052 131.9927 Q 472.5055 131.9927 457.5062 133.49 Q 442.5068 134.9873 420.5077 137.9818 Q 398.5086 140.9763 375.0096 143.9709 Q 351.5106 146.9654 324.0118 150.459 Q 296.513 153.9526 268.5141 158.4444 Q 240.5153 162.9362 208.5167 164.9326 Q 176.518 166.9289 144.5194 171.4207 Q 112.5207 175.9125 80.5221 178.408 Q 48.5234 180.9034 17.5247 184.8961 Q -13.474 188.8888 -22.4736 193.3806 Q -31.4732 197.8724 -31.4732 198.8706 Q -31.4732 199.8688 -31.4732 200.8669 Q -31.4732 201.8651 -31.4732 199.3697 Q -31.4732 196.8742 -31.4732 196.3752 Q -31.4732 195.8761 -31.4732 194.8779 Q -31.4732 193.8797 -31.4732 193.3806 Q -31.4732 192.8815 -31.4732 192.3824 Q -31.4732 191.8834 -31.4732 191.3843 Q -31.4732 190.8852 -31.4732 190.3861 Q -31.4732 189.887 -31.4732 189.3879 Q -31.4732 188.8888 -31.4732 188.3897 Q -31.4732 187.8906 -31.4732 187.3916 Q -31.4732 186.8925 -31.4732 184.8961 Q -31.4732 182.8998 -31.4732 181.9016 Q -31.4732 180.9034 -28.4733 179.4061 Q -25.4735 177.9089 -18.4738 174.9143 Q -11.4741 171.9198 -2.9744 170.9216 Q 5.5252 169.9235 20.0246 167.428 Q 34.524 164.9326 51.5233 163.9344 Q 68.5226 162.9362 91.5216 162.9362 Q 114.5206 162.9362 137.0197 162.9362 Q 159.5187 162.9362 186.5176 162.9362 Q 213.5165 162.9362 239.0154 162.9362 Q 264.5143 162.9362 294.513 162.9362 Q 324.5118 162.9362 353.0106 162.9362 Q 381.5094 162.9362 407.0083 162.9362 Q 432.5072 162.9362 459.5061 162.9362 Q 486.5049 162.9362 510.5039 162.9362 Q 534.5029 162.9362 557.002 162.9362 Q 579.501 162.9362 598.0002 162.9362 Q 616.4995 162.9362 635.9986 162.9362 Q 655.4978 162.9362 668.4973 161.439 Q 681.4967 159.9417 693.4962 157.4462 Q 705.4957 154.9508 715.4953 151.9563 Q 725.4949 148.9617 730.9946 147.9636 Q 736.4944 146.9654 739.4943 145.4681 Q 742.4941 143.9709 743.4941 142.9727 Q 744.4941 141.9745 744.994 141.9745 Q 745.494 141.9745 745.494 141.4754 Q 745.494 140.9763 745.494 140.4772 Q 745.494 139.9781 741.4942 138.98 Q 737.4943 137.9818 730.9946 135.9854 Q 724.4949 133.9891 713.4954 133.9891 Q 702.4958 133.9891 686.4965 132.4918 Q 670.4972 130.9946 649.998 128 Q 629.4989 125.0055 602.5 125.0055 Q 575.5012 125.0055 548.5023 125.0055 Q 521.5035 125.0055 494.5046 125.0055 Q 467.5057 125.0055 434.5071 125.0055 Q 401.5085 125.0055 369.5099 125.0055 Q 337.5112 125.0055 306.0126 125.0055 Q 274.5139 125.0055 241.5153 125.0055 Q 208.5167 125.0055 180.0179 125.0055 Q 151.5191 125.0055 123.0203 125.0055 Q 94.5215 125.0055 69.0225 125.0055 Q 43.5236 125.0055 21.5246 123.0091 Q -0.4745 121.0128 -15.9739 117.0201 Q -31.4732 113.0274 -31.4732 111.5301 Q -31.4732 110.0328 -31.4732 107.5374 Q -31.4732 105.0419 -31.4732 103.0456 Q -31.4732 101.0492 -31.4732 98.5538 Q -31.4732 96.0584 -31.4732 95.0602 Q -31.4732 94.062 -31.4732 92.5647 Q -31.4732 91.0675 -31.4732 89.0711 Q -31.4732 87.0748 -31.4732 85.0784 Q -31.4732 83.0821 -31.4732 81.5848 Q -31.4732 80.0875 -31.4732 78.0912 Q -31.4732 76.0948 -31.4732 74.5975 Q -31.4732 73.1003 -31.4732 71.603 Q -31.4732 70.1057 -31.4732 69.6067 Q -31.4732 69.1076 -29.9733 66.6121 Q -28.4733 64.1167 -25.4735 62.1203 Q -22.4736 60.124 -17.9738 59.1258 Q -13.474 58.1276 -6.9742 56.1313 Q -0.4745 54.1349 8.5251 52.6377 Q 17.5247 51.1404 30.0242 51.1404 Q 42.5237 51.1404 59.023 51.1404 Q 75.5223 51.1404 95.0215 51.1404 Q 114.5206 51.1404 143.0194 51.1404 Q 171.5182 51.1404 205.0168 51.6395 Q 238.5154 52.1386 273.5139 57.1294 Q 308.5124 62.1203 348.5108 67.6103 Q 388.5091 73.1003 428.5074 79.0893 Q 468.5057 85.0784 505.0042 91.0675 Q 541.5026 97.0565 581.5009 101.5483 Q 621.4992 106.0401 654.9978 110.5319 Q 688.4964 115.0237 718.9951 116.0219 Q 749.4938 117.0201 777.9926 117.0201 Q 806.4914 117.0201 828.9905 117.0201 Q 851.4895 117.0201 863.989 117.0201 Q 876.4885 117.0201 883.9882 117.0201 Q 891.4878 117.0201 895.4877 116.0219 Q 899.4875 115.0237 900.9874 113.5265 Q 902.4874 112.0292 902.9874 111.5301 Q 903.4873 111.031 903.4873 110.5319 Q 903.4873 110.0328 901.4874 110.0328 Q 899.4875 110.0328 895.9877 110.0328 Q 892.4878 110.0328 884.4881 110.0328 Q 876.4885 110.0328 866.4889 110.0328 Q 856.4893 110.0328 842.4899 110.0328 Q 828.4905 110.0328 808.4914 112.0292 Q 788.4922 114.0255 759.9934 116.0219 Q 731.4946 118.0182 702.9958 122.51 Q 674.497 127.0018 640.9984 130.9946 Q 607.4998 134.9873 575.0012 140.9763 Q 542.5026 146.9654 506.0041 149.9599 Q 469.5057 152.9544 429.5073 158.9435 Q 389.509 164.9326 356.0104 166.9289 Q 322.5119 168.9253 291.0132 168.9253 Q 259.5145 168.9253 231.0157 168.9253 Q 202.5169 168.9253 172.5182 168.9253 Q 142.5194 168.9253 115.5206 168.9253 Q 88.5217 168.9253 68.5226 168.9253 Q 48.5234 168.9253 32.5241 166.9289 Q 16.5248 164.9326 7.0252 161.439 Q -2.4744 157.9453 -7.4742 155.949 Q -12.474 153.9526 -15.9739 152.4554 Q -19.4737 150.9581 -20.9737 149.4608 Q -22.4736 147.9636 -22.9736 147.4645 Q -23.4735 146.9654 -24.4735 144.969 Q -25.4735 142.9727 -25.4735 141.9745 Q -25.4735 140.9763 -25.4735 139.4791 Q -25.4735 137.9818 -25.4735 137.4827 Q -25.4735 136.9836 -25.4735 135.9854 Q -25.4735 134.9873 -25.4735 133.49 Q -25.4735 131.9927 -24.4735 129.9964 Q -23.4735 128 -21.4736 126.5028 Q -19.4737 125.0055 -14.4739 123.0091 Q -9.4741 121.0128 -2.9744 119.5155 Q 3.5253 118.0182 11.525 117.5192 Q 19.5246 117.0201 31.0242 116.0219 Q 42.5237 115.0237 61.0229 115.0237 Q 79.5221 115.0237 102.0212 115.0237 Q 124.5202 115.0237 148.5192 115.0237 Q 172.5182 115.0237 199.517 115.0237 Q 226.5159 115.0237 251.5148 119.0164 Q 276.5138 123.0091 304.5126 127.0018 Q 332.5114 130.9946 358.5103 132.9909 Q 384.5092 134.9873 414.008 140.9763 Q 443.5067 146.9654 467.0058 149.4608 Q 490.5048 151.9563 513.5038 154.4517 Q 536.5028 156.9472 556.002 156.9472 Q 575.5012 156.9472 586.0007 156.9472 Q 596.5003 156.9472 607.4998 156.9472 Q 618.4994 156.9472 624.9991 155.4499 Q 631.4988 153.9526 635.9986 152.4554 Q 640.4984 150.9581 643.4983 148.4627 Q 646.4982 145.9672 648.4981 143.9709 Q 650.498 141.9745 651.498 139.9781 Q 652.4979 137.9818 652.9979 136.4845 Q 653.4979 134.9873 653.4979 132.4918 Q 653.4979 129.9964 653.4979 128.4991 Q 653.4979 127.0018 653.9979 125.5046 Q 654.4978 124.0073 654.4978 123.0091 Q 654.4978 122.011 654.4978 121.5119 Q 654.4978 121.0128 654.4978 120.0146 Q 654.4978 119.0164 654.4978 118.5173 Q 654.4978 118.0182 654.4978 117.5192 Q 654.4978 117.0201 652.9979 117.0201 Q 651.498 117.0201 648.4981 117.0201 Q 645.4982 117.0201 640.4984 117.0201 Q 635.4986 117.0201 629.4989 117.0201 Q 623.4992 117.0201 615.4995 117.0201 Q 607.4998 117.0201 596.5003 119.0164 Q 585.5008 121.0128 568.5015 122.51 Q 551.5022 124.0073 531.503 127.0018 Q 511.5039 129.9964 486.005 133.9891 Q 460.506 137.9818 434.5071 141.4754 Q 408.5082 144.969 382.0093 148.9617 Q 355.5105 152.9544 327.5116 157.4462 Q 299.5128 161.938 270.0141 165.9307 Q 240.5153 169.9235 212.5165 175.4134 Q 184.5177 180.9034 159.5187 186.3934 Q 134.5198 191.8834 110.5208 197.8724 Q 86.5218 203.8615 64.5227 207.8542 Q 42.5237 211.8469 22.5245 213.8432 Q 2.5254 215.8396 -12.474 218.335 Q -27.4734 220.8305 -29.4733 222.3278 Q -31.4732 223.825 -31.4732 224.8232 Q -31.4732 225.8214 -31.4732 225.3223 Q -31.4732 224.8232 -31.4732 223.825 Q -31.4732 222.8268 -31.4732 221.3296 Q -31.4732 219.8323 -31.4732 217.836 Q -31.4732 215.8396 -31.4732 213.8432 Q -31.4732 211.8469 -31.4732 210.3496 Q -31.4732 208.8524 -29.9733 205.8578 Q -28.4733 202.8633 -27.4734 199.3697 Q -26.4734 195.8761 -24.4735 192.3824 Q -22.4736 188.8888 -19.4737 186.3934 Q -16.4738 183.8979 -11.4741 180.9034 Q -6.4743 177.9089 -0.4745 175.4134 Q 5.5252 172.918 15.5248 169.4244 Q 25.5244 165.9307 37.0239 164.4335 Q 48.5234 162.9362 64.0228 160.4408 Q 79.5221 157.9453 98.0213 157.9453 Q 116.5205 157.9453 139.0196 157.9453 Q 161.5186 157.9453 184.0177 157.9453 Q 206.5167 157.9453 236.5155 157.9453 Q 266.5142 157.9453 292.0131 157.9453 Q 317.5121 157.9453 345.0109 157.9453 Q 372.5097 157.9453 399.5086 157.9453 Q 426.5075 157.9453 452.0064 157.9453 Q 477.5053 157.9453 501.5043 157.9453 Q 525.5033 157.9453 545.5024 156.4481 Q 565.5016 154.9508 587.5007 151.9563 Q 609.4997 148.9617 618.9993 147.9636 Q 628.4989 146.9654 636.9986 144.4699 Q 645.4982 141.9745 650.498 141.4754 Q 655.4978 140.9763 657.4977 138.98 Q 659.4976 136.9836 660.9976 135.9854 Q 662.4975 134.9873 663.4975 132.9909 Q 664.4974 130.9946 664.9974 129.9964 Q 665.4974 128.9982 665.4974 128.4991 Q 665.4974 128 665.4974 127.5009 Q 665.4974 127.0018 662.4975 127.0018 Q 659.4976 127.0018 652.4979 128.4991 Q 645.4982 129.9964 634.9987 132.9909 Q 624.4991 135.9854 609.4997 140.4772 Q 594.5004 144.969 578.0011 148.4627 Q 561.5018 151.9563 539.0027 156.9472 Q 516.5037 161.938 492.5047 169.4244 Q 468.5057 176.9107 442.0068 181.9016 Q 415.5079 186.8925 386.0092 192.3824 Q 356.5104 197.8724 329.5116 203.3624 Q 302.5127 208.8524 275.0139 211.8469 Q 247.515 214.8414 226.5159 219.3332 Q 205.5168 223.825 191.0174 226.3205 Q 176.518 228.8159 167.0184 229.315 Q 157.5188 229.8141 151.5191 230.8123 Q 145.5193 231.8104 142.5194 233.3077 Q 139.5196 234.805 139.0196 234.805 Q 138.5196 234.805 138.5196 234.3059 Q 138.5196 233.8068 139.0196 231.8104 Q 139.5196 229.8141 139.5196 228.3168 Q 139.5196 226.8196 141.0195 224.8232 Q 142.5194 222.8268 146.5193 219.3332 Q 150.5191 215.8396 156.0189 212.346 Q 161.5186 208.8524 171.0182 204.8597 Q 180.5178 200.8669 197.5171 195.377 Q 214.5164 189.887 235.5155 185.3952 Q 256.5146 180.9034 278.5137 175.4134 Q 300.5128 169.9235 323.0118 163.9344 Q 345.5109 157.9453 369.0099 154.9508 Q 392.5089 151.9563 414.508 147.9636 Q 436.507 143.9709 459.5061 141.9745 Q 482.5051 139.9781 503.0042 136.9836 Q 523.5034 133.9891 541.0026 131.9927 Q 558.5019 129.9964 572.0013 129.9964 Q 585.5008 129.9964 594.5004 129.9964 Q 603.5 129.9964 611.4997 129.9964 Q 619.4993 129.9964 623.4992 129.4973 Q 627.499 128.9982 628.9989 128.9982 Q 630.4989 128.9982 630.4989 128.4991 Q 630.4989 128 628.9989 127.5009 Q 627.499 127.0018 622.9992 127.0018 Q 618.4994 127.0018 612.4996 127.0018 Q 606.4999 127.0018 598.5002 127.0018 Q 590.5005 127.0018 581.5009 127.0018 Q 572.5013 127.0018 560.5018 127.0018 Q 548.5023 127.0018 530.0031 127.0018 Q 511.5039 127.0018 491.5047 128.4991 Q 471.5056 129.9964 446.5066 134.4882 Q 421.5077 138.98 398.5086 140.9763 Q 375.5096 142.9727 352.0106 146.9654 Q 328.5116 150.9581 299.0128 156.4481 Q 269.5141 161.938 243.0152 164.4335 Q 216.5163 166.9289 192.0174 170.9216 Q 167.5184 174.9143 142.5194 177.9089 Q 117.5205 180.9034 92.5216 185.8943 Q 67.5226 190.8852 47.5235 191.8834 Q 27.5243 192.8815 7.5251 194.8779 Q -12.474 196.8742 -21.9736 198.3715 Q -31.4732 199.8688 -31.4732 199.3697 Q -31.4732 198.8706 -31.4732 198.3715 Q -31.4732 197.8724 -31.4732 197.3733 Q -31.4732 196.8742 -31.4732 195.8761 Q -31.4732 194.8779 -31.4732 193.3806 Q -31.4732 191.8834 -31.4732 190.8852 Q -31.4732 189.887 -31.4732 188.3897 Q -31.4732 186.8925 -31.4732 185.8943 Q -31.4732 184.8961 -31.4732 184.397 Q -31.4732 183.8979 -31.4732 182.4007 Q -31.4732 180.9034 -29.9733 179.9052 Q -28.4733 178.9071 -25.9734 176.9107 Q -23.4735 174.9143 -19.9737 174.9143 Q -16.4738 174.9143 -10.4741 173.9162 Q -4.4744 172.918 3.5253 172.918 Q 11.525 172.918 23.0245 172.918 Q 34.524 172.918 48.0234 172.918 Q 61.5229 172.918 81.022 172.918 Q 100.5212 172.918 123.0203 172.918 Q 145.5193 172.918 169.5183 176.9107 Q 193.5173 180.9034 222.5161 184.8961 Q 251.5148 188.8888 277.5138 191.3843 Q 303.5127 193.8797 331.5115 197.8724 Q 359.5103 201.8651 381.5094 205.8578 Q 403.5084 209.8505 427.5074 209.8505 Q 451.5064 209.8505 471.5056 209.8505 Q 491.5047 209.8505 506.5041 209.8505 Q 521.5035 209.8505 533.003 208.8524 Q 544.5025 207.8542 551.5022 205.3587 Q 558.5019 202.8633 563.5017 199.8688 Q 568.5015 196.8742 572.0013 193.8797 Q 575.5012 190.8852 577.5011 188.8888 Q 579.501 186.8925 580.001 185.3952 Q 580.501 183.8979 580.501 183.3988 Q 580.501 182.8998 580.501 182.4007 Q 580.501 181.9016 579.501 181.9016 Q 578.5011 181.9016 573.0013 184.397 Q 567.5015 186.8925 559.5019 190.3861 Q 551.5022 193.8797 541.0026 197.3733 Q 530.5031 200.8669 515.5037 208.3533 Q 500.5043 215.8396 483.5051 222.3278 Q 466.5058 228.8159 445.5067 236.3022 Q 424.5076 243.7886 402.0085 249.2785 Q 379.5094 254.7685 352.5106 261.7557 Q 325.5117 268.743 301.0128 277.2275 Q 276.5138 285.712 251.0149 291.7011 Q 225.5159 297.6901 200.017 305.1765 Q 174.5181 312.6628 152.019 319.65 Q 129.52 326.6373 105.521 333.1254 Q 81.522 339.6136 62.0228 344.1054 Q 42.5237 348.5972 29.5242 350.5935 Q 16.5248 352.5899 5.0252 355.0853 Q -6.4743 357.5807 -13.9739 358.0798 Q -21.4736 358.5789 -25.9734 359.078 Q -30.4733 359.5771 -30.9732 360.5753 Q -31.4732 361.5735 -30.9732 361.0744 Q -30.4733 360.5753 -27.9734 359.078 Q -25.4735 357.5807 -18.9737 354.5862 Q -12.474 351.5917 -5.9743 349.0962 Q 0.5254 346.6008 14.0249 341.6099 Q 27.5243 336.619 47.5235 329.6318 Q 67.5226 322.6446 92.5216 317.1546 Q 117.5205 311.6646 144.5194 303.1801 Q 171.5182 294.6956 203.0169 287.2093 Q 234.5156 279.7229 267.5142 270.2403 Q 300.5128 260.7576 329.0116 253.2712 Q 357.5104 245.7849 386.0092 236.8013 Q 414.508 227.8177 440.0069 221.3296 Q 465.5058 214.8414 487.0049 209.3515 Q 508.504 203.8615 522.0034 199.3697 Q 535.5029 194.8779 545.0025 191.8834 Q 554.5021 188.8888 559.5019 186.3934 Q 564.5016 183.8979 566.0016 182.4007 Q 567.5015 180.9034 568.5015 180.4043 Q 569.5014 179.9052 569.0015 179.9052 Q 568.5015 179.9052 566.0016 179.9052 Q 563.5017 179.9052 557.5019 179.9052 Q 551.5022 179.9052 542.5026 179.9052 Q 533.503 179.9052 522.5034 180.4043 Q 511.5039 180.9034 499.0044 181.4025 Q 486.5049 181.9016 470.5056 183.8979 Q 454.5063 185.8943 434.5071 189.887 Q 414.508 193.8797 389.509 196.8742 Q 364.5101 199.8688 345.5109 201.8651 Q 326.5117 203.8615 311.0123 204.3606 Q 295.513 204.8597 280.5136 204.8597 Q 265.5143 204.8597 256.5146 204.8597 Q 247.515 204.8597 241.5153 204.8597 Q 235.5155 204.8597 232.5157 204.8597 Q 229.5158 204.8597 228.0158 204.8597 Q 226.5159 204.8597 226.5159 204.3606 Q 226.5159 203.8615 230.0158 203.8615 Q 233.5156 203.8615 243.5152 207.3551 Q 253.5148 210.8487 264.0143 212.8451 Q 274.5139 214.8414 289.5132 219.3332 Q 304.5126 223.825 323.5118 227.8177 Q 342.511 231.8104 364.5101 235.8031 Q 386.5092 239.7959 411.5081 243.2895 Q 436.507 246.7831 462.5059 249.2785 Q 488.5049 251.774 511.5039 251.774 Q 534.5029 251.774 558.5019 251.774 Q 582.5009 251.774 604.9999 251.774 Q 627.499 251.774 640.9984 251.774 Q 654.4978 251.774 669.9972 247.7813 Q 685.4965 243.7886 690.9963 241.7922 Q 696.4961 239.7959 701.4959 237.3004 Q 706.4957 234.805 707.4956 233.3077 Q 708.4956 231.8104 709.9955 231.3113 Q 711.4954 230.8123 711.4954 229.8141 Q 711.4954 228.8159 711.4954 228.3168 Q 711.4954 227.8177 710.4955 227.3186 Q 709.4955 226.8196 707.9956 226.8196 Q 706.4957 226.8196 702.9958 226.8196 Q 699.4959 226.8196 692.9962 226.8196 Q 686.4965 226.8196 676.4969 226.8196 Q 666.4973 226.8196 649.998 226.8196 Q 633.4987 226.8196 615.9995 228.8159 Q 598.5002 230.8123 575.0012 233.8068 Q 551.5022 236.8013 525.5033 240.2949 Q 499.5044 243.7886 472.5055 248.7794 Q 445.5067 253.7703 419.5078 257.264 Q 393.5089 260.7576 362.5102 264.7503 Q 331.5115 268.743 307.0125 271.7375 Q 282.5135 274.7321 260.0145 279.2238 Q 237.5154 283.7156 224.016 287.7084 Q 210.5166 291.7011 204.0169 294.1965 Q 197.5171 296.6919 196.0172 297.6901 Q 194.5173 298.6883 194.5173 299.6865 Q 194.5173 300.6847 197.0171 301.1837 Q 199.517 301.6828 205.5168 302.681 Q 211.5165 303.6792 221.0161 303.6792 Q 230.5157 303.6792 243.5152 303.6792 Q 256.5146 303.6792 275.0139 303.6792 Q 293.5131 303.6792 313.5122 302.681 Q 333.5114 301.6828 358.0104 298.6883 Q 382.5093 295.6938 405.5084 289.7047 Q 428.5074 283.7156 450.5065 278.7248 Q 472.5055 273.7339 491.0047 266.7466 Q 509.504 259.7594 527.5032 255.7667 Q 545.5024 251.774 557.5019 247.7813 Q 569.5014 243.7886 576.5011 241.2931 Q 583.5008 238.7977 586.5007 237.3004 Q 589.5006 235.8031 590.5005 235.3041 Q 591.5005 234.805 587.0007 236.3022 Q 582.5009 237.7995 572.5013 240.794 Q 562.5017 243.7886 548.0023 247.2822 Q 533.503 250.7758 514.5038 252.7722 Q 495.5046 254.7685 469.0057 258.7612 Q 442.5068 262.7539 416.0079 267.7448 Q 389.509 272.7357 358.5103 277.2275 Q 327.5116 281.7193 293.5131 286.2111 Q 259.5145 290.7029 229.5158 291.7011 Q 199.517 292.6992 166.5184 292.6992 Q 133.5198 292.6992 105.021 292.6992 Q 76.5222 292.6992 46.5235 292.6992 Q 16.5248 292.6992 -0.4745 292.6992 Q -17.4738 292.6992 -22.4736 292.2002 Q -27.4734 291.7011 -27.9734 291.7011 Q -28.4733 291.7011 -28.4733 291.202 Q -28.4733 290.7029 -28.4733 289.7047 Q -28.4733 288.7065 -24.4735 285.2129 Q -20.4737 281.7193 -11.974 277.7266 Q -3.4744 273.7339 12.025 268.743 Q 27.5243 263.7521 46.0235 256.2658 Q 64.5227 248.7794 85.0219 244.2877 Q 105.521 239.7959 131.0199 233.3077 Q 156.5189 226.8196 182.5178 219.3332 Q 208.5167 211.8469 230.5157 206.856 Q 252.5148 201.8651 269.0141 196.3752 Q 285.5134 190.8852 298.0129 187.3916 Q 310.5124 183.8979 319.512 181.4025 Q 328.5116 178.9071 334.5113 176.9107 Q 340.5111 174.9143 343.011 174.4153 Q 345.5109 173.9162 346.5108 172.918 L 347.5138 171.9168" stroke-linecap="round" />
</g>
</svg>