<svg xmlns="http://www.w3.org/2000/svg" xmlns:xlink="http://www.w3.org/1999/xlink" xmlns:inkscape="http://www.inkscape.org/namespaces/inkscape" version="1.1" width="612" height="784.0048" viewBox="0 0 612 784.0048">
<defs>
<clipPath id="clip_4494">
<path transform="matrix(1,0,0,-1,0,801.711)" d="M0 17.7062H612V801.711H0Z" clip-rule="evenodd"/>
</clipPath>
<clipPath id="clip_4495">
<path transform="matrix(1,0,0,-1,0,801.711)" d="M291.32 43.99H320.67V54.64H291.32Z"/>
</clipPath>
</defs>
<g clip-path="url(#clip_4494)">
<path transform="matrix(1,0,0,-1,0,801.711)" d="M.48 .48H611.51998V51.52H.48Z" fill="#cbdf7f" fill-rule="evenodd"/>
<path transform="matrix(1,0,0,-1,.47999997,801.231)" stroke-width=".96" stroke-linecap="butt" stroke-miterlimit="1000" stroke-linejoin="miter" fill="none" stroke="#cbdf7f" d="M0 0H611.04V51.04H0Z"/>
<path transform="matrix(1,0,0,-1,0,801.711)" d="M0 728.6H612V809.44998H0Z" fill="#d1d3d4" fill-rule="evenodd"/>
<path transform="matrix(1,0,0,-1,0,801.711)" d="M0 738.8H612V820.8H0Z" fill="#e1ecb6" fill-rule="evenodd"/>
<path transform="matrix(1,0,0,-1,80.63619,52.546205)" d="M0 0C1.76 1.76 3.88 2.63 6.36 2.63H23.36C25.85 2.63 27.97 1.76 29.73 0 31.49-1.76 32.36-3.88 32.36-6.36V-24.36C32.36-26.85 31.49-28.97 29.73-30.73 27.97-32.49 25.85-33.36 23.36-33.36H6.36C3.88-33.36 1.76-32.49 0-30.73-1.76-28.97-2.64-26.85-2.64-24.36V-6.36C-2.64-3.88-1.76-1.76 0 0" fill="#ffffff" fill-rule="evenodd"/>
<text fill="#231f20" xml:space="preserve" transform="matrix(1 0 -0 1 0 801.711)" font-size="11" font-family="Bookman"><tspan y="-729.361" x="87.12 94.259">96</tspan></text>
<text fill="#231f20" xml:space="preserve" transform="matrix(1 0 -0 1 0 801.711)" font-size="11" font-family="Bookman"><tspan y="-729.361" x="513.117">B</tspan></text>
<text fill="#231f20" xml:space="preserve" transform="matrix(1 0 -0 1 0 801.711)" font-size="7.69999" font-family="Bookman"><tspan y="-729.361" x="521.04 523.4347 529.3714 533.76809 539.7048 545.6415">IOLOGY</tspan></text>
<path transform="matrix(1,0,0,-1,0,-.7290039)" stroke-width=".24" stroke-linecap="butt" stroke-miterlimit="10" stroke-linejoin="miter" fill="none" stroke="#000000" d="M0 0H14.4"/>
<path transform="matrix(1,0,0,-1,18.12,-19.08899)" stroke-width=".24" stroke-linecap="butt" stroke-miterlimit="10" stroke-linejoin="miter" fill="none" stroke="#000000" d="M0 0V-14.4"/>
<path transform="matrix(1,0,0,-1,0,783.591)" stroke-width=".24" stroke-linecap="butt" stroke-miterlimit="10" stroke-linejoin="miter" fill="none" stroke="#000000" d="M0 0H14.4"/>
<path transform="matrix(1,0,0,-1,18.12,787.071)" stroke-width=".24" stroke-linecap="butt" stroke-miterlimit="10" stroke-linejoin="miter" fill="none" stroke="#000000" d="M0 0V-14.4"/>
<path transform="matrix(1,0,0,-1,611.64,783.471)" stroke-width=".24" stroke-linecap="butt" stroke-miterlimit="10" stroke-linejoin="miter" fill="none" stroke="#000000" d="M0 0V-18"/>
<text fill="#231f20" xml:space="preserve" transform="matrix(1 0 -0 1 0 801.711)" font-size="10.5" font-family="Bookman"><tspan y="-688.561" x="192 196.2 203.13 209.43001 215.73001 233.45401 240.384 248.154 255.50402 273.228 279.52799 286.248 294.01799 300.31797 307.24797 313.54795">face and concave</tspan></text>
<text fill="#231f20" xml:space="preserve" transform="matrix(1 0 -0 1 0 801.711)" font-size="10.5" font-family="Bookman" font-style="italic"><tspan y="-688.561" x="319.9215 337.551 342.0975 347.27403 354.76054 362.24705"> trans</tspan></text>
<text fill="#231f20" xml:space="preserve" transform="matrix(1 0 -0 1 0 801.711)" font-size="10.5" font-family="Bookman"><tspan y="-688.561" x="368.64149 386.37599 393.09599 398.55598 416.29048 421.12046 428.89045 435.19044 452.92494 463.63493 470.5649 475.3949 483.3749 488.8349 492.8249 500.59489 507.1049 524.8394 529.0394 535.9694 542.2694 548.5694"> or the maturing face.</tspan><tspan y="-674.3965" x="192 198.4891 205.39821 210.83731">The </tspan></text>
<text fill="#231f20" xml:space="preserve" transform="matrix(1 0 -0 1 0 801.711)" font-size="10.5" font-family="Bookman" font-style="italic"><tspan y="-674.3965" x="214.7955 220.08751 223.27951">cis</tspan></text>
<text fill="#231f20" xml:space="preserve" transform="matrix(1 0 -0 1 0 801.711)" font-size="10.5" font-family="Bookman"><tspan y="-674.3965" x="228.95999 232.971 239.07149 246.012 252.53249 256.5435 260.54399 267.48448 272.95497"> and the </tspan></text>
<text fill="#231f20" xml:space="preserve" transform="matrix(1 0 -0 1 0 801.711)" font-size="10.5" font-family="Bookman" font-style="italic"><tspan y="-674.3965" x="276.7245 280.4625 284.8305 291.5085 298.18653">trans</tspan></text>
<text fill="#231f20" xml:space="preserve" transform="matrix(1 0 -0 1 0 801.711)" font-size="10.5" font-family="Bookman"><tspan y="-674.3965" x="303.846 307.836 311.19599 317.28599 322.74598 328.20597 333.66596 337.65596 343.53596 346.89595 350.88594 354.87593 361.8059 367.2659 371.2559 377.1359 381.7559 387.4259 393.5159 400.4459 405.90589 409.05589 412.20588 417.66587 421.65586 427.74586 432.36585 437.82585 441.81584 447.27583 454.2058 458.1958 461.3458 465.9658 471.42579 474.57579 480.2458 484.23579 490.7458 493.89579 497.25578 500.61576 506.07575 510.69575 516.15579 523.08578 527.07577 530.4357 534.4257 540.9357 548.07577"> faces of the organelle are entirely different, but</tspan><tspan y="-660.47348" x="192 194.982 201.74399 205.566 210.858 215.31 220.602 226.31401 233.076 239.838 245.13 250.42201 254.24402 259.536 265.87803">interconnected.</tspan><tspan y="-646.561" x="210.0075 216.507 223.4265 228.87599 232.2255 237.885 243.7545 246.894 252.5535 255.693 259.04249 265.12199 271.6215 278.121 284.2005 288.81 294.8895 298.869 305.99848 311.44798 314.79747 321.29698 325.90647 329.04597 335.96546 341.41496 344.55445 351.05397 357.13346 360.27296 363.41246 369.07197 372.42146 378.92097 384.37046 388.97996 392.32945 398.19895 402.80845 412.66795 418.11744 421.46693 425.4464 432.3659 437.8154 441.1649 444.51438 451.64387 458.56336 464.01286 467.99235 471.13185 477.00135 483.92085 487.27033 493.13984 496.48933 499.8388 506.33833 512.41787 517.8674 524.3669 530.4464 536.1059 539.2454 546.1649">The golgi apparatus principally performs the function of packaging</tspan><tspan y="-632.386" x="192 201.8175 207.85501 211.79251 217.20001 221.76752 224.86502 230.90253 234.00003 239.40753 242.71503 246.02252 249.96002 255.78752 259.09504 265.55253 270.96003 274.26753 280.725 286.1325 289.23 292.3275 297.73503 303.14253 307.71003 313.11753 319.575 322.8825 328.29 331.3875 335.325 342.2025 347.61003 352.17753 355.48503 359.42253 365.25004 368.55754 372.49504 379.37254 384.78004 388.08753 391.18504 398.06254 402.00004 406.56755 412.60505 416.75254 422.16004 427.56755 430.66505 433.76255 440.85005 443.94755 449.98506 454.55256 457.86006 461.79756 467.83506 472.40257 478.02006 483.42756 487.36506 492.77256 496.08006 501.90757 506.47508 509.78257 515.19009 520.59756 526.005 530.5725 535.98 539.9175 545.32498">materials, to be delivered either to the intra-cellular targets or secreted</tspan><tspan y="-618.46298" x="192 197.88 205.02 209.01001 214.47002 217.62001 224.13 229.59001 233.391 237.38101 244.311 249.77101 253.572 259.032 264.492 267.642 270.792 274.15199 277.95298 287.61299 293.70298 297.69297 303.15296 307.77296 310.92295 317.01295 320.16294 325.62294 329.42393 333.4139 339.2939 343.0949 349.60493 355.0649 358.8659 365.37593 371.4659 376.9259 383.4359 389.5259 395.19593 400.6559 407.16593 410.96693 414.1169 421.0469 424.8479 428.8379 435.76789 441.22789 445.02888 448.38887 454.26887 458.88887 468.75886 472.55986 478.43986 481.79985 485.60084 491.06083 496.5208 501.9808 505.1308 510.5908 513.7408 519.2008 524.6608 528.4618 531.8218 536.4418 542.3218">outside the cell. Materials to be packaged in the form of vesicles from</tspan><tspan y="-604.561" x="192 195.9795 202.90952 208.35903 211.85553 219.40503 226.95453 230.45104 233.80054 240.93004 246.37955 251.83956 255.33606 263.52607 266.66557 270.64506 277.56455 281.06105 285.04054 291.97053 297.42">the ER fuse with the </tspan></text>
<text fill="#231f20" xml:space="preserve" transform="matrix(1 0 -0 1 0 801.711)" font-size="10.5" font-family="Bookman" font-style="italic"><tspan y="-604.561" x="300.969 306.261 309.45298">cis</tspan></text>
<text fill="#231f20" xml:space="preserve" transform="matrix(1 0 -0 1 0 801.711)" font-size="10.5" font-family="Bookman"><tspan y="-604.561" x="315.13349 318.62998 321.98997 328.07997 333.53996 338.99995 342.49644 348.37644 351.73643 355.2329 359.2229 366.1529 371.61289 375.10939 380.7794 386.6594 389.8094 395.4794 398.6294 402.1259 408.21589 414.7259 421.2359 427.3259 431.9459 438.0359 442.02589 449.1659 454.6259 458.12239 464.21238 471.14237 477.65238 481.14888 491.01887 496.89888 502.35887 507.81886 511.31535 515.30538 521.18539 529.37539 535.4654 540.0854 546.5954"> face of the golgi apparatus and move towards</tspan><tspan y="-590.3755" x="192 195.99 202.92002 208.38002 212.33852 222.20851 228.29851 232.28852 239.42852 244.04851 247.1985 254.12851 259.79853 263.75703 267.117 273.207 278.667 284.12699 287.48698 291.44548 297.95549 304.88548 308.03547 313.49546 317.45396 322.91395 328.79396 335.30397 338.45396 344.54396 347.69395 354.62394 360.08393 363.4439 367.4024 375.5924 382.5224 388.1924 392.1509 396.1409 403.0709 408.53089 412.48939 418.1594 424.0394 427.1894 432.8594 436.0094 439.9679 446.0579 452.5679 459.0779 465.1679 469.7879 475.8779 479.8679 487.0079 492.4679 496.4264 501.0464 506.50639 516.3764 522.46646 525.61648 532.54647 538.0065 541.96499 545.115">the maturing face. This explains, why the golgi apparatus remains in</tspan><tspan y="-576.45248" x="192 197.3341 200.35822 206.11232 211.44643 216.78054 220.01464 225.97875 231.31285 236.64696 242.40106 247.73517 250.75928 256.7234 260.5875 263.6116 269.36573 276.16984 279.40394 287.46806 290.49217 294.35627 301.16038 304.39448 308.25859 315.06269 320.3968 323.6309 328.965 335.7691 342.1532 347.90733 354.2914 357.31553 363.27964 368.61375 378.35786 381.38197 386.71607 389.95018 394.44429 399.77839 403.6425 406.6666 412.0007 419.0148 422.0389 429.053 438.79713 442.03123 445.26533 452.27943 455.51353 462.31764 469.33174 479.07585 485.45994 490.79405 495.28816 498.52226 504.27638 507.51048 510.74458 517.12869 521.62277 527.37686 531.24099 536.5751 539.5992 546.40328">close association with the endoplasmic reticulum. A number of proteins</tspan><tspan y="-562.561" x="192 197.46 203.13 210.06 214.05 220.98001 226.44002 231.90003 235.05002 240.51003 245.97003 252.48003 256.42805 262.93806 268.60807 272.55607 277.17607 280.32606 286.83607 292.71607 298.17607 304.05607 313.92607 319.38606 324.84605 328.79405 334.67405 341.60404 345.55204 349.54203 356.47203 361.932 365.88 371.34 378.27 384.78 390.66 397.17 400.32 406.41 411.87 421.74 424.88999 430.34999 434.29798 438.91798 444.37797 448.36796 451.51795 456.97795 464.11796 467.26795 474.40797 484.27796 488.22596 494.31596 498.93595 504.39595 508.34394 518.2139 524.09396 530.60397 533.75399 537.11398 540.264 545.724">synthesised by ribosomes on the endoplasmic reticulum are modified</tspan><tspan y="-548.365" x="192 195.10811 201.99622 205.31432 209.26242 216.15053 221.56864 224.88674 230.30484 233.41295 238.83106 242.77916 248.19727 252.77538 259.66349 265.71159 271.12968 274.44779 280.2859 283.604 286.92213 290.87025 297.75834 303.17643 306.49455 312.12266 317.96076 321.06886 326.69697 329.80506 333.12318 339.17127 345.63938 352.10749 358.15559 362.73368 368.78178 372.7299 379.828 385.2461 388.5642 395.03233 400.4504 403.76853 409.60664 414.18473 419.6028 422.92094 426.86906 433.75715 439.17524 444.80335 448.12147 454.16957 458.74766 464.16575 467.48387 472.06196 477.48005 480.58815 486.00624 492.05433 497.4724 502.8905 509.3586 512.6767 515.9948 520.57296 526.4111 536.2392 539.5573 542.6654 546.6135">in the cisternae of the golgi apparatus before they are released from its</tspan></text>
<text fill="#231f20" xml:space="preserve" transform="matrix(1 0 -0 1 0 801.711)" font-size="10.5" font-family="Bookman" font-style="italic"><tspan y="-534.44198" x="192 195.738 200.106 206.784 213.46199">trans</tspan></text>
<text fill="#231f20" xml:space="preserve" transform="matrix(1 0 -0 1 0 801.711)" font-size="10.5" font-family="Bookman"><tspan y="-534.44198" x="219.132 225.8624 229.24329 235.34369 240.82459 246.30548 249.68637 256.41676 264.82716 270.72807 273.88847 279.57936 282.75025 289.48063 295.58103 302.1119 308.6428 314.7432 319.3841 325.4845 329.4954 336.65629 342.12669 348.85707 352.01747 357.49836 364.22874 368.23963 375.18003 380.66093 387.3913 390.5622 400.4426 406.97349 412.8744 417.5048 421.5157 427.6266 434.567 438.57789 445.30827 450.78916 453.94956 457.96046 463.44136 470.17173 476.06214 479.44303 486.1734 489.5543 495.4447 500.0856 509.9765 516.0769 520.0878 523.2587 529.1491 536.1 542.8304 548.73129"> face. Golgi apparatus is the important site of formation of</tspan><tspan y="-520.561" x="192 197.6595 200.799 206.4585 211.90799 217.7775 224.277 228.88649 234.756 238.7355 244.185 247.3245 254.24399 259.69349 263.99848 270.07798 276.99748 283.49699 287.80198 293.4615 296.60099 302.2605 307.71 313.5795 316.719 319.8585 326.358 329.4975 335.997 341.4465">glycoproteins and glycolipids.</tspan></text>
<text fill="#6d6f71" xml:space="preserve" transform="matrix(1 0 -0 1 0 801.711)" font-size="10.5" font-family="Bookman" font-style="italic"><tspan y="-491.16099" x="192.168 199.119 202.71 209.66101 213.25202 220.20302 223.79402 191.82152 198.77252 202.36353 209.31453 212.90554 219.85654 223.44754">8.5.3.38.5.3.3</tspan><tspan y="-491.39198" x="192.168 199.119 202.71 209.66101 213.25202 220.20302 223.79402 191.82152 198.77252 202.36353 209.31453 212.90554 219.85654 223.44754">8.5.3.38.5.3.3</tspan><tspan y="-491.2345" x="192 198.951 202.542 209.49301 213.08402 220.03502 223.62602">8.5.3.3</tspan><tspan y="-491.16099" x="240.1635 246.7049 253.45629 259.57768 265.69908 271.82048 277.94187 287.63328 293.75468 239.84851 246.38991 253.1413 259.2627 265.3841 271.5055 277.6269 287.3183 293.4397">LysosomesLysosomes</tspan><tspan y="-491.39198" x="240.1635 246.7049 253.45629 259.57768 265.69908 271.82048 277.94187 287.63328 293.75468 239.84851 246.38991 253.1413 259.2627 265.3841 271.5055 277.6269 287.3183 293.4397">LysosomesLysosomes</tspan><tspan y="-491.2345" x="240.006 246.5474 253.29878 259.42018 265.54158 271.66297 277.78437 287.47578 293.59718">Lysosomes</tspan></text>
<text fill="#231f20" xml:space="preserve" transform="matrix(1 0 -0 1 0 801.711)" font-size="10.5" font-family="Bookman"><tspan y="-471.07447" x="192 198.4155 205.25099 210.61649 215.98198 221.34748 224.61298 230.60848 235.13397 240.49947 243.76497 253.54047 258.90599 268.6815 275.097 279.6225 285.618 292.45353 297.81904 301.08454 307.50004 313.28553 320.33103 327.16654 333.58204 336.84754 342.21305 347.57856 352.94407 355.99958 361.36509 368.41059 371.4661 377.4616 381.98713 385.25263 390.61814 394.51365 399.03916 406.08467 411.45018 415.34568 422.39118 426.9167 432.2822 437.6477 440.9132 444.1787 449.9642 454.48973 464.26524 469.63075 476.04624 479.31175 485.72724 491.30274 494.56825 498.46376 505.29927 510.66477 513.93026 520.34579 524.8713 530.6568 536.0223 541.38778 546.75326">These are membrane bound vesicular structures formed by the process</tspan><tspan y="-456.90998" x="192 197.9849 201.44979 205.75467 212.36957 218.56447 224.12937 230.74427 236.93917 242.71407 245.96897 253.00386 258.77876 263.08366 266.33854 273.3734 277.6783 281.77323 288.8081 294.373 298.5645 304.329 310.3139 313.5688 319.3437 322.59858 326.90348 333.09837 339.71327 346.32817 352.52305 357.24794 363.4428 367.53773 374.78263 380.3475 383.8124 388.1173 394.7322 401.7671 407.33198 411.63688 414.89176 420.45664 426.44154 429.6964 435.8913 439.9862 445.5511 452.166 456.4709 459.72578 465.50068 471.06556 477.05046 482.61534 488.60023 498.5751 504.77 508.02488 512.3298 517.89468 523.45956 529.0244 532.2793 537.8442 541.09909 546.66397">of packaging in the golgi apparatus. The isolated lysosomal vesicles</tspan><tspan y="-442.98698" x="192 199.0349 205.2298 210.7947 216.35959 222.11348 228.72838 234.29328 239.85817 246.89307 252.64696 256.11186 262.09675 269.34165 276.37654 282.99143 288.74534 292.84025 298.82514 304.57905 311.19395 316.75883 322.51274 328.0776 333.6425 338.36738 344.14228 349.89619 354.62107 357.87596 363.44084 370.4757 376.2296 379.4845 386.51939 392.2733 398.46818 401.72306 411.69795 417.68284 423.2477 427.34263 433.09654 439.2914 442.5463 445.80119 451.55509 455.65 461.4249 468.0398 473.60469 479.16957 484.92347 490.90837 494.37327 500.12718 507.16206 512.93698 519.5518 524.27676 530.26168 533.51657 539.29147 543.38638 546.64126">have been found to be very rich in almost all types of hydrolytic</tspan><tspan y="-429.06398" x="192 197.5649 204.5998 209.74469 215.51959 225.49449 231.05939 236.62429 241.66417 244.91907 251.95397 257.72886 264.34376 269.06864 275.05354 278.3084 284.5033 290.06819 295.63307 301.19795 306.23786 311.59275 316.63267 319.88755 323.14244 329.75733 335.9522 341.5171 347.08198 352.64686 356.11177 361.15168 367.76658 372.49147 378.47636 382.57127 388.13615 394.33103 399.8959 405.4608 411.02568 414.49058 419.5305 425.09538 431.29026 436.01515 442.63005 448.61494 455.6498 461.4247 468.0396 472.7645 478.95939 484.52427 490.08915 495.65403 498.9089 503.94883 509.93373 516.5486 520.6435 523.8984 533.8733 540.0682 543.32308 546.57797">enzymes (hydrolases &#x2013; lipases, proteases, carbohydrases) optimally</tspan><tspan y="-414.89949" x="192 198.1949 203.7598 207.85469 211.10959 216.67449 222.23938 228.85427 235.04917 239.14406 245.76946 249.86435 256.89924 262.4641 269.079 275.2739 280.83879 284.09367 290.70857 293.96345 299.52833 306.15373 312.76863 321.2735 324.7384 331.3638 337.9787 345.01359 350.57847 356.14335 361.70823 368.32313 373.888 380.92289 386.06779 391.84269 401.81758 407.38246 412.94734 419.57273 425.7676 430.4925 436.05738 442.67228 448.23716 454.43205 461.04695 467.24183 473.85673 477.1116 482.67649 489.30189 495.28678 498.75169 505.37709 511.99198 515.2469 521.0218 526.5867 532.15158 536.24649 539.50137 546.53628">active at the acidic pH. These enzymes are capable of digesting</tspan><tspan y="-400.97648" x="192 197.5649 203.7493 208.4742 215.0786 221.06349 228.08789 233.8523 240.4672 245.1816 251.3765 255.46089 261.0258 266.58018 270.04508 273.9405 280.5554 285.26979 291.25468 295.33909 300.90397 304.15885 311.18324 316.7481 320.2025 324.09794 327.34233 330.5972 337.2016 340.45649 347.06089 352.62577 356.52119 362.71607 369.74046 376.35536 380.25077 387.28565 394.52006 400.08494 403.3293 408.8942 412.13859 417.70347 421.59889 427.79377 433.34815 436.60304 443.20744 448.7723">carbohydrates, proteins, lipids and nucleic acids.</tspan></text>
<text fill="#6d6f71" xml:space="preserve" transform="matrix(1 0 -0 1 0 801.711)" font-size="10.5" font-family="Bookman" font-style="italic"><tspan y="-374.66349" x="192.168 199.64389 203.75978 211.23567 215.35157 222.82746 226.94335 191.86273 199.33863 203.45452 210.9304 215.0463 222.52219 226.63808">8.5.3.48.5.3.4</tspan><tspan y="-374.9785" x="192.168 199.64389 203.75978 211.23567 215.35157 222.82746 226.94335 191.86273 199.33863 203.45452 210.9304 215.0463 222.52219 226.63808">8.5.3.48.5.3.4</tspan><tspan y="-374.82099" x="192 199.47589 203.59178 211.06768 215.18357 222.65946 226.77535">8.5.3.4</tspan><tspan y="-374.66349" x="240.1635 247.81789 254.83179 260.38618 267.41056 273.58445 277.03886 283.22325 239.85813 247.50202 254.52642 260.0808 267.0947 273.27909 276.7335 282.91789">VacuolesVacuoles</tspan><tspan y="-374.9785" x="240.1635 247.81789 254.83179 260.38618 267.41056 273.58445 277.03886 283.22325 239.85813 247.50202 254.52642 260.0808 267.0947 273.27909 276.7335 282.91789">VacuolesVacuoles</tspan><tspan y="-374.82099" x="240.006 247.66039 254.67429 260.22868 267.25306 273.43745 276.88136 283.06575">Vacuoles</tspan></text>
<text fill="#231f20" xml:space="preserve" transform="matrix(1 0 -0 1 0 801.711)" font-size="10.5" font-family="Bookman"><tspan y="-354.66099" x="192 198.048 204.516 209.514 211.572 216.57 222.19802 227.19602 233.87401 239.292 241.98001 246.97801 249.03601 251.72402 256.72203 258.78004 262.30805 268.77604 273.77403 275.83204 285.24003 290.238 299.646 305.694 309.852 315.47999 321.94798 326.94596 330.68397 336.73197 342.14997 348.82798 355.29597 361.34397 363.40199 368.39997 374.44798 380.07597 385.07395 390.07194 392.12995 395.02796 400.44596 407.12397 413.59196 419.63996 421.69798 424.38597 430.85395 432.91197 436.43998 442.90797 447.90596 449.96397 454.96195 460.16996 463.69798 469.11598 475.16398 477.85197 483.47996 488.47795 497.88594 500.78395 502.84196 505.94996 509.47798 511.53599 516.534 521.952 528.42007 531.94808 537.57608 540.26406 546.73208">The vacuole is the membrane-bound space found in the cytoplasm. It contains</tspan><tspan y="-340.4965" x="192 199.8855 205.671 209.3565 214.51201 218.39702 221.45252 223.67852 228.83402 234.61952 240.82503 243.88053 246.10652 251.26203 256.83753 261.993 266.39253 271.55863 275.25474 280.84083 285.16694 290.54304 292.76914 298.98524 303.35334 308.93946 315.15556 322.00166 327.16777 330.86387 333.08998 338.88609 345.5222 351.73829 353.9644 359.55049 363.24659 369.8827 375.0488 379.3749 381.601 391.17713 396.97325 400.66935 405.83546 410.16157 413.01768 418.81379 421.6699 426.836 429.0621 435.6982 441.2843 444.9804 447.2065 454.0526 459.21873 464.38484 467.45094 474.29704 477.15315 479.37925 482.44535 488.03144 492.35755 494.58366 498.27976 504.91587 510.08198 512.30807 517.4741 522.6402 525.4963 528.35238 531.41848 533.64456 539.86068 546.49679">water, sap, excretory product and other materials not useful for the cell. The</tspan><tspan y="-326.5735" x="192 197.25 203.13 208.38 215.31 220.98 223.92 229.17 231.879 234.819 240.069 242.778 249.078 254.748 261.678 268.398 274.698 277.40699 283.70698 289.16697 291.87596 297.75596 300.46495 305.71495 308.65495 315.37495 320.83494 323.77494 329.02494 331.73393 341.39393 346.64393 356.30393 362.6039 367.01393 372.89393 379.61393 384.86393 387.5729 392.8229 398.7029 401.6429 404.58293 409.83293 416.1329 418.8419 422.6219 428.2919 435.0119 440.68193 446.9819 449.9219 455.8019 461.0519 464.8319 467.9819 470.6909 474.05088 480.77088 483.47987 489.77986 492.71986 498.59986 505.31986 509.09986 511.80888 517.0589 522.3089 525.2489 528.1889 533.4389 536.14797 539.928 546.64797">vacuole is bound by a single membrane called tonoplast. In plant cells the</tspan><tspan y="-312.66099" x="192 197.25 203.13 208.38 215.31 220.98 223.92 229.17 234.42 236.92949 242.17949 248.0595 254.7795 257.289 262.959 268.209 273.459 280.389 286.689 292.149 294.65849 301.58848 307.88847 310.39796 314.17796 319.84797 322.35746 328.65745 334.95744 337.46693 343.7669 349.0169 353.4269 355.9364 361.1864 366.4364 373.1564 376.9364 379.4459 385.1159 388.2659 390.7754 394.5554 401.2754 406.5254 409.03489 414.28489 419.9549 422.8949 429.8249 439.4849 444.7349 447.2444 452.9144 456.0644 458.57389 462.35389 469.07389 474.32389 476.83338 482.08338 487.33338 490.27339 493.21339">vacuoles can occupy up to 90 per cent of the volume of the cell.</tspan><tspan y="-298.48597" x="209.9865 213.5565 220.48651 223.34252 229.85251 233.0025 239.0925 246.02249 250.0125 255.4725 258.8325 261.68849 265.67848 272.60847 278.06846 280.92445 284.91444 290.79444 297.72444 303.60444 310.11445 313.26445 319.35444 324.81443 328.8044 331.6604 335.0204 341.11039 346.57038 349.72038 352.87037 356.02037 360.01036 366.10035 370.09034 375.55033 381.0103 383.8663 387.8563 394.7863 400.24629 403.10227 407.09226 411.71226 417.80226 424.73225 430.19224 436.70225 442.58226 447.20225 451.19224 454.04823 459.92823 463.2882 466.1442 472.2342 475.09019 482.02018 489.1602 499.03019 505.5402 511.00019 515.6202 518.47616 524.35617 527.7161 530.5721 533.7221 539.6021 546.5321">In plants, the tonoplast facilitates the transport of a number of ions</tspan><tspan y="-284.56297" x="192 197.79611 204.43222 210.64833 212.87444 218.46054 222.15665 228.79276 233.95886 238.28498 240.51108 250.08719 255.8833 259.5794 264.7455 269.07164 271.92774 277.72386 280.57997 285.74607 287.97218 293.76829 299.14439 304.9405 307.7966 314.4327 319.59883 323.29493 325.52104 330.68714 336.27326 342.90937 348.07548 353.24159 359.8777 363.5738 367.8999 373.696 377.39213 380.24824 385.83436 392.47047 394.69657 400.07267 404.39878 410.1949 416.41099 419.2671 424.4332 431.0693 434.7654 439.93153 442.15763 445.01374 451.64985 455.34596 460.93208 463.15818 466.85429 473.4904 478.6565 480.8826 486.0487 491.84483 497.01094 503.85704 509.4431 512.2992 517.4653 520.5314 522.75747 529.39358 534.55966 541.19577 546.3618">and other materials against concentration gradients into the vacuole, hence</tspan><tspan y="-270.66099" x="192 195.99 202.92002 208.38002 211.53002 216.15001 220.74901 226.20902 232.08902 239.01902 244.47902 249.93903 256.86903 260.859 265.479 271.569 275.559 278.70899 284.589 291.51899 296.11799 299.26799 304.72798 309.32698 314.78697 317.93696 323.60697 330.53697 333.68696 337.04695 340.19694 345.65693 351.74693 358.6769 362.6669 365.8169 371.4869 376.0859 383.0159 386.1659 391.8359 398.7659 404.2259 408.8459 413.4449 416.59489 423.52488 428.12388 432.11387 439.04386 444.50386 449.10285 454.56285 460.65284 466.11283 473.25285 479.13285 482.28285 487.74284 492.34184 496.33183 503.2618 509.3518 516.2818 520.8808 524.0308 530.9608 535.5598 539.5498 546.4798">their concentration is significantly higher in the vacuole than in the</tspan><tspan y="-256.47547" x="192 197.3761 202.9622 206.86832 212.66443 219.09053 222.15663 228.16274 233.53884 243.32494">cytoplasm.</tspan><tspan y="-242.55246" x="209.9865 213.59839 220.57028">In </tspan></text>
<text fill="#231f20" xml:space="preserve" transform="matrix(1 0 -0 1 0 801.711)" font-size="10.5" font-family="Bookman" font-style="italic"><tspan y="-242.55246" x="223.185 230.5979 239.9008 245.6337 251.3666 257.7295">Amoeba</tspan></text>
<text fill="#231f20" xml:space="preserve" transform="matrix(1 0 -0 1 0 801.711)" font-size="10.5" font-family="Bookman"><tspan y="-242.55246" x="263.988 266.60249 270.59248 277.52247 282.98246"> the </tspan></text>
<text fill="#231f20" xml:space="preserve" transform="matrix(1 0 -0 1 0 801.711)" font-size="10.5" font-family="Bookman"><tspan y="-242.55246" x="285.5865 291.624 298.08149 305.16899 309.94648 314.72398 320.76148 326.79899 331.57649 335.304 338.82148 344.85899 347.47346 353.72096 359.75846 365.79597 372.67347 379.13096 382.64845">contractile vacuole</tspan></text>
<text fill="#231f20" xml:space="preserve" transform="matrix(1 0 -0 1 0 801.711)" font-size="10.5" font-family="Bookman"><tspan y="-242.55246" x="389.022 391.61549 394.76548 400.22547 402.81895 405.96894 415.83894 422.34895 428.22895 432.84895 436.83894 442.92893 449.85893 453.8489 456.44239 459.80238 465.68238 470.30238 472.89585 478.77586 484.23585 494.10585 499.98585 504.60585 510.06584 515.73587 522.87588 526.0259 532.1159 536.1059 539.2559 545.1359"> is important for osmoregulation</tspan><tspan y="-228.66098" x="192 198.0271 204.89421 211.34131 213.80892 219.20603 225.02313 230.42024 234.97734 240.37445 244.30156 247.38867 253.20578 260.07289 263.37 265.83763 269.34474 276.21183 278.67945 288.48655 294.51365 301.38075 306.98786 309.45549 314.85258 320.24967 323.33677 326.42387 331.82096 335.11808 337.5857 343.6128 349.0099 351.4775 354.5646 361.4317 363.89933 370.34645 374.90354 380.72065 384.64775 387.73484 393.13194 397.05903 402.45613 405.75325">and excretion. In many cells, as in protists, </tspan></text>
<text fill="#231f20" xml:space="preserve" transform="matrix(1 0 -0 1 0 801.711)" font-size="10.5" font-family="Bookman"><tspan y="-228.66098" x="408.216 412.1745 418.65299 425.13148 431.81999 434.40299 440.67149 446.72999 452.78849 459.68699 466.16548 469.70399 475.76249 481.19099">food vacuoles </tspan></text>
<text fill="#231f20" xml:space="preserve" transform="matrix(1 0 -0 1 0 801.711)" font-size="10.5" font-family="Bookman"><tspan y="-228.66098" x="483.816 489.83253 494.37904 499.76554 502.20155 505.48805 511.29454 515.841 525.6375 531.024 537.4605 539.8965 546.333">are formed by</tspan><tspan y="-214.46497" x="192 197.4285 204.327 209.9655 217.074 220.1925 223.52101 226.63951 233.53801 239.17652 241.67552 245.63402 252.53252 257.96104 260.46003 263.7885 269.63703 275.48554 281.96403 284.463 290.9415 297 301.5885 305.547 308.6655 314.094 317.2125 322.641 328.0695">engulfing the food particles.</tspan></text>
<text fill="#00aeef" xml:space="preserve" transform="matrix(1 0 -0 1 0 801.711)" font-size="12" font-family="Bookman"><tspan y="-188.3977" x="191.9992 200.3991 204.95897 213.35886 217.91873 233.9992 245.30309 249.64698 255.19086 262.65473 269.6386 277.82249 285.28636 293.4702 301.1741 306.718 311.06187">8.5.4Mitochondria</tspan></text>
<text fill="#231f20" xml:space="preserve" transform="matrix(1 0 -0 1 0 801.711)" font-size="10.5" font-family="Bookman"><tspan y="-168.2377" x="191.9992 201.6277 204.7462 208.7047 214.55319 219.98169 226.88019 232.72869 239.62718 246.10569 250.69419 253.81269 259.8712 262.35969 265.47819 270.90669 274.02519 280.92369 286.56217 289.89067 293.21916 295.70765 305.54615 308.66465 312.62315 318.47166 323.90016 330.79866 336.64717 343.54566 350.02415 354.61265 357.73115 363.57966 370.47816 373.59666 376.92515 379.41365 386.52214 393.42063 396.53913 401.96763 407.39613 412.82463 415.3131 420.7416 427.2201 432.6486 438.0771 441.1956 444.52409 447.64259 453.07109 459.12959 462.24809 465.36659 471.00508 473.49357 478.92207 482.88056 488.93907 492.05757 498.95606 504.38456 510.86305 514.1915 516.68 522.73849 527.32699 532.7555 535.24398 542.14248 547.99099">Mitochondria (sing.: mitochondrion), unless specifically stained, are not</tspan><tspan y="-154.3147" x="191.9992 197.3753 203.38141 208.7575 211.82361 214.88971 220.47582 222.92243 228.29853 231.36463 236.74073 239.80683 246.23293 249.29903 254.67513 257.12174 264.17784 271.02394 277.45005 282.82615 287.36225 289.80885 293.71495 300.56105 305.93714 308.38374 318.16984 321.23594 326.61204 331.14814 336.94425 342.32035 347.69645 353.49256 359.91868 365.29478 368.57087 371.01747 377.44358 384.28968 389.66578 392.11238 398.95848 406.01457 415.80067 422.22679 427.60289 432.13899 434.58558 440.38169 443.65779 446.10438 455.89048 458.95658 462.86268 468.65879 474.03489 480.88099 486.6771 493.5232 499.9493 504.4854 507.5515 513.5576 516.0042 522.4303 527.8064 532.3425 534.7891 540.1652 545.5413 548.6074">easily visible under the microscope. The number of mitochondria per cell</tspan><tspan y="-140.1502" x="191.9992 195.0337 200.3782 202.79322 208.13771 214.11222 218.61672 221.65122 227.62572 234.02022 237.05472 242.39922 244.81423 251.20873 256.55323 262.94773 268.29225 275.10676 281.50126 284.53578 291.35029 296.9048 299.3198 305.0843 311.8988 314.3138 318.18833 325.00285 330.34736 332.76237 339.15687 345.97138 351.52589 356.8704 359.9049 365.6694 368.70393 374.4684 380.02293 383.05744 388.40196 394.37644 397.41096 402.7237 408.7088 414.0534 417.9385 420.9836 426.32823 429.37333 433.25843 438.81303 441.22813 446.99275 450.24784 452.66294 456.54804 463.37315 468.71775 471.13285 476.48796 481.84306 484.88816 487.92277 493.27787 496.52247 498.93757 502.39219 509.2173 511.63243 515.5175 520.8621 525.3772 535.14236 540.49746 542.91256 548.6771">is variable depending on the physiological activity of the cells. In terms of</tspan><tspan y="-126.2377" x="191.9992 197.20722 203.88521 209.7232 215.9812 221.18921 223.46772 229.30571 235.9837 242.2417 244.5202 249.72821 252.6262 257.4142 262.62223 264.90074 270.73875 273.63676 278.84477 284.47276 287.58076 289.85926 295.06727 300.69526 307.37327 312.58128 315.47929 321.73728 326.94529 331.3133 337.1513 343.4093 346.3073 351.51533 353.79383 360.05183 365.25984 370.67784 375.04585 380.25386 385.46186 387.74037 393.36836 396.47636 398.75486 403.96287 409.80088 414.16889 417.0669 422.9049 429.1629 432.0609 434.95893 437.85694 441.59495 447.01295 449.29145 452.18946 457.39747 459.67597 465.30397 471.56196 476.76997 481.97798 486.34599 491.554 496.762 503.02 506.128 508.4065 514.6645 520.0825 526.3405 529.2385 534.44656 540.28457 543.18258 546.08059">shape and size also, considerable degree of variability is observed. Typically</tspan><tspan y="-112.3042" x="191.9992 194.91822 198.67722 200.96622 203.88523 209.11423 211.40323 216.63224 222.49123 229.40023 234.62923 240.48822 245.92722 251.15622 255.12522 260.35423 267.05323 272.91224 279.19123 284.42024 290.69923 292.98823 298.6372 303.0262 305.31523 310.54423 315.98323 318.90223 321.82124 328.52024 334.79924 339.18824 342.10725 347.33625 353.19526 356.11427 358.40327 365.10227 370.96128 376.19029 379.10929 385.8083 391.24729 393.5363 399.3953 401.6843 407.9633 410.8823 416.7413 426.3803 431.6093 435.36833 440.59733 444.98634 447.27534 452.92433 456.0533 458.34233 464.6213 467.7503 474.0293 477.9983 484.27729 487.40629">it is sausage-shaped or cylindrical having a diameter of 0.2-1.0</tspan></text>
<text fill="#231f20" xml:space="preserve" transform="matrix(1 0 -0 1 0 801.711)" font-size="10.5" font-family="Symbol"><tspan y="-112.3042" x="493.9162">&#x00b5;</tspan></text>
<text fill="#231f20" xml:space="preserve" transform="matrix(1 0 -0 1 0 801.711)" font-size="10.5" font-family="Bookman"><tspan y="-112.3042" x="499.6492 509.2882 511.56675 514.4857 520.3447 525.5737 530.80276 535.1917 541.0507 546.48977">m (average</tspan><tspan y="-98.1397" x="191.9992 198.9606 202.772">0.5</tspan></text>
<text fill="#231f20" xml:space="preserve" transform="matrix(1 0 -0 1 0 801.711)" font-size="10.5" font-family="Symbol"><tspan y="-98.1397" x="209.7547">&#x00b5;</tspan></text>
<text fill="#231f20" xml:space="preserve" transform="matrix(1 0 -0 1 0 801.711)" font-size="10.5" font-family="Bookman"><tspan y="-98.1397" x="215.9917 226.3131 229.91449 235.39539 241.93679 249.31818 256.27958 261.76048 265.36189 271.2733 278.6547 284.7761 289.2175 296.5989 302.0798 309.0412 312.8526 319.814 324.4654 331.4268 335.2382">m) and length 1.0-4.1</tspan></text>
<text fill="#231f20" xml:space="preserve" transform="matrix(1 0 -0 1 0 801.711)" font-size="10.5" font-family="Symbol"><tspan y="-98.1397" x="342.14924">&#x00b5;</tspan></text>
<text fill="#231f20" xml:space="preserve" transform="matrix(1 0 -0 1 0 801.711)" font-size="10.5" font-family="Bookman"><tspan y="-98.1397" x="348.44923 358.7706 362.582 368.0839 376.09529 382.63667 388.54808 395.92948 401.43138 411.75276 415.35417 419.79557 426.12696 432.03837 439.41978 445.75117 453.13258 460.09397 465.16535 468.76676 475.09815 482.47956 487.98146 491.58287 497.49427 502.99617 509.53755 515.0394 522.0008 528.3322 535.9236 542.88497 546.4863">m. Each mitochondrion is a double</tspan></text>
<g clip-path="url(#clip_4495)">
<text xml:space="preserve" transform="matrix(1 0 -0 1 0 801.711)" font-size="8" font-family="Arial"><tspan y="-46.59019" x="291.32 295.768 300.216 304.664 309.112 311.776 316.224">2024-25</tspan></text>
</g>
</g>
</svg>
