<svg xmlns="http://www.w3.org/2000/svg" xmlns:xlink="http://www.w3.org/1999/xlink" xmlns:inkscape="http://www.inkscape.org/namespaces/inkscape" version="1.1" width="612" height="782.64187" viewBox="0 0 612 782.64187">
<defs>
<clipPath id="clip_8668">
<path transform="matrix(1,0,0,-1,0,800.348)" d="M0 17.7062H612V800.348H0Z" clip-rule="evenodd"/>
</clipPath>
<clipPath id="clip_8669">
<path transform="matrix(1,0,0,-1,291.32,747.4419)" d="M0-8H29.36V.800049H0Z"/>
</clipPath>
</defs>
<g clip-path="url(#clip_8668)">
<path transform="matrix(.23999998,0,0,-.23999998,0,800.348)" d="M2 2H2548V214.67H2Z" fill="#cbdf7f" fill-rule="evenodd"/>
<path transform="matrix(.23999998,0,0,-.23999998,0,800.348)" stroke-width="4" stroke-linecap="butt" stroke-miterlimit="1000" stroke-linejoin="miter" fill="none" stroke="#cbdf7f" d="M2 2H2548V214.67H2Z"/>
<path transform="matrix(.23999998,0,0,-.23999998,0,800.348)" d="M0 3035.83H2550V3372.7003H0Z" fill="#d1d3d4" fill-rule="evenodd"/>
<path transform="matrix(.23999998,0,0,-.23999998,0,800.348)" d="M0 3082.5H2545.84V3420H0Z" fill="#e1ecb6" fill-rule="evenodd"/>
<path transform="matrix(.23999998,0,0,-.23999998,80.63616,51.183229)" d="M0 0C7.32 7.32 16.16 10.98 26.52 10.98H97.35C107.71 10.98 116.55 7.32 123.87 0 131.19-7.33 134.85-16.17 134.85-26.52V-101.52C134.85-111.88 131.19-120.72 123.87-128.04 116.55-135.36 107.71-139.02 97.35-139.02H26.52C16.16-139.02 7.32-135.36 0-128.04-7.32-120.72-10.98-111.88-10.98-101.52V-26.52C-10.98-16.17-7.32-7.33 0 0" fill="#ffffff" fill-rule="evenodd"/>
<text fill="#231f20" xml:space="preserve" transform="matrix(1 0 -0 1 0 800.348)" font-size="11" font-family="Bookman"><tspan y="-729.361" x="87.12 94.26001">70</tspan></text>
<text fill="#231f20" xml:space="preserve" transform="matrix(1 0 -0 1 0 800.348)" font-size="11" font-family="Bookman"><tspan y="-729.361" x="513.12">B</tspan></text>
<text fill="#231f20" xml:space="preserve" transform="matrix(1 0 -0 1 0 800.348)" font-size="7.69999" font-family="Bookman"><tspan y="-729.361" x="521.04 523.4336 529.3692 533.76486 539.70046 545.63607">IOLOGY</tspan></text>
<path transform="matrix(.23999998,0,0,-.23999998,0,-2.09198)" stroke-width="1" stroke-linecap="butt" stroke-miterlimit="10" stroke-linejoin="miter" fill="none" stroke="#000000" d="M0 0H60"/>
<path transform="matrix(.23999998,0,0,-.23999998,18.12,-20.451966)" stroke-width="1" stroke-linecap="butt" stroke-miterlimit="10" stroke-linejoin="miter" fill="none" stroke="#000000" d="M0 0V-60"/>
<path transform="matrix(.23999998,0,0,-.23999998,0,782.228)" stroke-width="1" stroke-linecap="butt" stroke-miterlimit="10" stroke-linejoin="miter" fill="none" stroke="#000000" d="M0 0H60"/>
<path transform="matrix(.23999998,0,0,-.23999998,18.12,785.708)" stroke-width="1" stroke-linecap="butt" stroke-miterlimit="10" stroke-linejoin="miter" fill="none" stroke="#000000" d="M0 0V-60"/>
<path transform="matrix(.23999998,0,0,-.23999998,611.64,782.10806)" stroke-width="1" stroke-linecap="butt" stroke-miterlimit="10" stroke-linejoin="miter" fill="none" stroke="#000000" d="M0 0V-75"/>
<text fill="#231f20" xml:space="preserve" transform="matrix(1 0 -0 1 0 800.348)" font-size="10.5" font-family="Bookman"><tspan y="-687.841" x="192 197.85802 204.55603 210.83405 213.12705 216.04506 222.32308 227.55109 234.2491 238.00711 240.92513 244.05313 246.97115 252.19916 258.05717 261.81517 264.73316 270.38117 277.07917 279.3722 285.0202 288.14823 290.44126 293.56929 296.48728 302.13529 310.0933 315.3213 319.7093 322.6273 329.3253 334.7633 337.05635 343.33436 346.25236 352.11036 358.80836 362.56636 367.79435 370.92237 373.2154 379.4934 386.1914 389.1094 394.3374 396.63044 401.85844 407.71644 414.41444 416.70747 422.98548 428.21348 430.5065 433.4245 436.3425 439.2605 446.16853 451.3965 455.1545 459.5425 465.4005 469.1585 474.3865 480.66453 482.95756 486.71556 493.41355 497.80155 503.44956 510.35758 515.7956 522.4936 524.78659 530.0146 535.2426 544.8806 547.79867">and identification of flowering plants. This can be illustrated through semi-</tspan><tspan y="-673.921" x="192 195.87252 201.21503 206.55754 213.37006 220.18257 223.21509 228.5576 234.5301 237.56262 239.97013 246.36264 251.70516 257.04768 262.39018 266.89268 269.92518 276.3177 280.1902 283.2227 288.9852 295.7977 301.1402 303.54774 309.31025 312.55278 314.9603 318.20283 324.17533 333.92784 336.96034 339.99284 343.02534 348.36784 353.71034 356.95286 359.36039 367.64289 372.98539 379.79789 385.14039 390.48289 393.7254 396.13294 402.10545 404.51298 407.7555 410.788 416.5505 424.62303 429.9655 434.46803 437.50053 444.31303 449.86555 452.27308 458.6656 461.6981 467.6706 474.4831 478.3556 480.76313 483.79563 489.13813 491.54566 497.93818 503.28068 508.62318 513.9657 518.4682 521.50076 527.89328 533.2358 539.6283 542.03579 545.0683">technical descriptions of families. Hence, a flowering plant is described in</tspan><tspan y="-660" x="192 198.0861 202.7772 209.28331 214.73941 218.0955 221.24161 228.16771 231.31381 235.29991 240.75601 245.44712 250.90322 256.3593 262.4454 269.5815 275.0376 281.96369 287.4198 292.87593 297.56703 304.07313 309.73924 314.43034 321.56645 327.02253 330.1686 337.0947 342.7608 347.4519 352.90803 358.36415 361.51023 366.9663 373.8924 377.8785 381.0246 384.3807 387.5268 392.9829 397.674 401.66014 407.1162 411.7323 421.5984 427.0545 430.4106 435.1017 441.60783 448.5339 453.99 458.6811 462.0372 465.1833 471.0594 475.67549 481.76158 484.90766 489.59877 492.95487 498.41096 504.49705 508.48316 515.61929 520.23538 525.69149 531.1476 535.8387 541.9248 546.5409">a definite sequence by using scientific terms. The floral features are</tspan><tspan y="-645.841" x="192 196.42472 201.68943 208.00414 212.42885 217.69356 222.95827 228.22298 234.95769 238.7524 244.0171 250.33182 252.66152 255.61623 262.35093 264.68064 268.47535 275.21006 280.47477 282.80448 288.06919 295.0139 304.6886 314.3633 320.25804 324.68275 327.63746 332.90217 338.16688 344.48158 346.81129 349.97599 355.6607 360.08543 369.76014 372.08985 377.98457 383.24928 385.57899 388.74369 391.6984 397.38313 401.80784 407.70256 410.65727 412.98698 419.30168 422.25639 428.1511 433.6258 438.0505 443.94523 453.61994 458.88465 461.21437 467.10908 473.84379 480.15849 482.4882 485.6529 488.6076 494.29234 498.71705 504.61177 507.56648 509.89619 513.0609 518.7456 523.1703 532.845 539.7897 542.7444 548.6391">represented in the summarised form as floral diagrams and floral formula.</tspan></text>
<text fill="#00aeef" xml:space="preserve" transform="matrix(1 0 -0 1 0 800.348)" font-size="13" font-family="Bookman"><tspan y="-595.921" x="351.36">E</tspan></text>
<text fill="#00aeef" xml:space="preserve" transform="matrix(1 0 -0 1 0 800.348)" font-size="9.1" font-family="Bookman"><tspan y="-595.921" x="360.96 368.05769 374.60939 381.70707 388.44078 392.08049 398.08619 404.63789">XERCISES</tspan></text>
<text fill="#231f20" xml:space="preserve" transform="matrix(1 0 -0 1 0 800.348)" font-size="10" font-family="Bookman"><tspan y="-553.921" x="199.92 205.6006 216 223.9078 229.41562 237.12343 239.43123 242.33904 247.44684 249.75464 255.46245 257.77027 263.87809 266.7859 273.2937 279.8015 285.50935 289.21717 294.32499 297.2328 302.5406 304.84843 309.95625 315.46406 324.77186 330.87968 336.38749 343.0953 349.60313 355.71095 358.01878 360.92658 366.0344 371.74223 374.85005 377.15788 383.2657 386.1735 389.2813 392.38914 397.49696 401.80476 406.91258 413.42039 417.1282 419.43605 422.54386 426.85166 432.35948 441.66728 443.9751 449.68293 451.99076 458.09858 463.8064 466.7142 476.022 481.72984 485.43766 490.54548 493.45329 498.76109 501.0689 506.17674 511.68455 520.9924 527.10018 532.608 539.3158 545.8236">1.How is a pinnately compound leaf different from a palmately compound</tspan><tspan y="-540" x="216 218.99042 224.18083 229.97124 233.16165">leaf?</tspan><tspan y="-522" x="199.92 205.6006 216 223.19892 228.79782 234.99674 237.99565 243.79456 246.79347 253.39238 255.94757 263.7465 266.7454 270.5443 277.14323 279.69844 284.89735 291.69627 294.69517 298.49409 304.293 310.4919 313.4908 318.68974 321.24494 326.44386 332.04277 337.84169 347.2406 353.4395 356.43843 361.63734 366.83625 369.39146 373.19038 379.78929 384.9882 387.5434 393.7423 396.7412 399.94013 403.13905 408.33796 412.73686 417.93577 424.53468 428.3336 430.8888 434.6877 440.0866 446.28553 451.48445 456.68336 459.23857 464.83747 468.03639 470.59159 476.7905 483.3894 488.7883 491.7872 494.7861 500.385 504.18394 509.98286 515.5818 520.9807">2.Explain with suitable examples the different types of phyllotaxy.</tspan><tspan y="-504" x="199.92 205.6006 216 223.9911 229.18222 232.37334 235.36444 241.95555 247.14667 249.53778 253.32889 259.91999 265.11109 267.5022 270.6933 276.2844 279.2755 282.26664 287.85774 295.64884 298.63996 305.23109 310.6222 313.0133 316.8044 321.9955 326.38664 335.77775 340.96885">3.Define the following terms:</tspan><tspan y="-486.961" x="216 219.1003 225.00058 234 239.82839 245.05678 250.28517 254.11356 257.14195 262.37034 268.19874 272.02714 275.0555 280.6839 342 344.9002 351.00044 360 366.21119 369.22239 375.03358 380.24476 385.45594 392.0671 395.8783 401.68949 405.50068 408.51188 414.12306 444.72 447.76029 453.00059 462 467.75373 472.90745 476.66117 479.61488 486.16859 491.7223 501.076 506.6297 510.9834 517.1371 523.6908 526.64456">(a)aestivation(b)placentation(c)actinomorphic</tspan><tspan y="-473.041" x="216 218.9002 225.00041 234 238.6403 243.88062 249.12093 254.56124 263.80155 269.24186 273.48216 279.52247 285.96278 288.80308 342.72 345.76029 351.00059 360 365.20729 372.01457 378.22184 383.4291 387.8364 390.8437 396.451 400.85829 403.41557 409.02287 414.23014 420.0374 424.4447 446.16 449.4802 453.0004 462 468.1578 473.3156 477.6734 480.6312 485.98899 491.34678 497.90458 503.46238 510.22019 515.378 517.7358 520.89358 523.8514 529.4092 537.167 542.32479">(d)zygomorphic(e)superior ovary(f)perigynous flower</tspan><tspan y="-458.881" x="216.72 219.66 225.00002 234 239.204 245.40799 248.41197 254.61597 259.81996 263.62394 269.42793 272.43193 278.03593 284.8399 290.04389 292.54789 297.75187 301.55586 307.35984 316.76383 321.9678">(g)epipetalous stamen</tspan><tspan y="-440.881" x="199.92 205.6006 216 223.9964 226.9928 230.1892 233.38559 238.58199 242.97838 248.17478 254.77118 258.56758 261.56398 267.36036 271.15675 276.35316 278.74958 284.94599 290.1424 293.93879 301.73518 306.93159 312.128">4.Differentiate between</tspan><tspan y="-423.841" x="216 219.1003 225.00058 234 241.1995 246.999 252.19849 257.39799 266.7975 272.39698 277.59648 282.79597 285.37876 291.17826 297.77775 303.97724 306.56004 311.75953 317.15904 326.55854 332.15803 337.3575 342.557 345.1398 348.1393 354.7388 357.9383 360.9378 366.5373 370.9368 376.1363 381.3358 386.53529 391.73478 398.33427 403.53376">(a)Racemose and cymose inflorescence</tspan><tspan y="-409.921" x="216 218.9002 225.00041 234 240.8014 247.0028 252.6042 257.8056 263.607 268.0084 274.20979 279.8112 286.61259 291.81398 294.49876 300.30015 306.90156 313.10295 315.78773 320.9891 326.3905 332.9919 338.1933 343.9947 348.3961 354.59748 360.19889 367.00028 372.20167 374.88645 380.48786 385.68925 391.49064 395.89204">(b)Apocarpous and syncarpous ovary</tspan><tspan y="-391.921" x="199.92 205.6006 216 223.99892 228.39783 234.19673 241.99564 244.57787 248.37677 254.97568 260.1746 262.7568 265.7557 271.55464 277.75355 282.95246 285.95137 288.95027 294.14918 300.34809 302.9303 309.1292 312.1281 317.92704 323.32594 327.72483 333.52375 342.92268 345.50489 351.1038 354.3027 356.88493 360.68385 367.28276 372.48167 375.06388 378.2628 383.8617 386.8606 389.8595 395.4584 403.25733 406.25624 412.85514 418.25404">5.Draw the labelled diagram of the following:</tspan><tspan y="-378" x="219.12 222.06 225 234 239.4012 243.8024 249.60359 259.0048 261.731 266.9322 272.1334 277.3346 283.5358 286.262 288.9882 291.98939 294.99058 297.99177 300.99296 303.71916 306.44535 312.96 316.1569 322.7538 325.9507 328.6726 334.26954 337.46644 340.18833 349.58525 355.38215 358.37907 363.17597 368.37287 371.09477 376.29167 381.48857 386.68547">(i)gram seed  (ii)  V.S. of maize seed</tspan><tspan y="-360" x="199.92 205.6006 216 222.2003 228.0006 234.2009 239.4012 242.5015 248.10179 254.70209 259.90238 263.00267 266.20295 269.20326 274.80357 282.60386 287.80415 292.20445 295.30473 300.90504 304.10533 307.2056 311.0059 317.6062 322.8065 325.90678 329.10707 334.90736 344.30766 347.30796 350.30827 355.70857 358.80885 365.40916 371.00947 374.00978 379.81007 386.41038 392.21067 397.41096 402.61125 408.41154 413.61183 416.7121 422.5124 429.1127 435.313 438.41328 446.21357 450.61387 453.61418 457.41447 462.61476 465.71504 468.71534 472.51564 477.7159 480.8162 486.01649 491.21678 500.61708 503.61738 507.61769 511.41798 516.6183 521.8186 528.4189 535.01919 538.0195 543.2198 549.0201">6.Take one flower of the family Solanaceae and write its semi-technical</tspan><tspan y="-345.841" x="216 222.1975 227.39499 232.59249 237.78998 242.18749 245.18498 251.38248 255.17998 258.1775 263.775 270.3725 273.57 276.24754 283.045 286.0425 291.24003 296.83753 299.51506 305.71257 310.11006 315.90754 323.70503 326.38255 330.18003 336.77754 341.97505 344.97254 349.37004 352.04756 355.24507 358.24256 363.84007 368.23756 374.03504 377.03254 379.71006 385.90757 388.90507 394.70256 400.10005 404.49754 410.295 419.6925">description. Also draw their floral diagram.</tspan><tspan y="-324.961" x="199.92 205.6006 216 224.0007 229.2014 234.4021 239.6028 244.0035 247.0042 253.2049 258.4056 261.16743 264.9681 271.56883 276.76954 279.53135 284.73207 290.53276 294.93345 297.93415 303.53486 310.33555 315.53627 318.29808 322.09877 327.49946 333.70018 338.90089 344.1016 346.8634 352.4641 355.66484 358.42665 364.62736 367.62806 373.42875 378.62947 383.83018 390.43089 394.23158 400.03227 403.83296 406.83366 412.43437 419.03507 424.23579 426.9976 430.1983 435.799 442.5997 449.2004 455.40113 458.16294 461.16365 467.76435 470.52616 473.72688 476.72758 482.32829 490.12898 495.32969 499.73039 502.73109 509.3318 514.7325 517.49429 523.69497 526.6956 532.49636 539.09707 542.89779 548.09848">7.Describe the various types of placentations found in flowering plants.</tspan><tspan y="-306.961" x="199.92 205.6006 216 225.6005 232.20099 238.0015 241.802 244.49341 247.49391 252.69441 255.38582 261.1863 263.87773 267.07823 270.0787 275.6792 283.4797 288.6802 293.08073 298.48124 301.17265 309.17314 314.37364 319.57414 324.77464 329.17515 332.17564 338.37614 343.57664 346.26805 350.06855 356.66905 361.86955 364.56095 370.76145 376.56196 380.96247 384.76298 389.96348 392.65489 398.25538 401.45588 404.14729 409.94779 412.6392 416.4397 421.8402 428.0407 431.0412 436.2417 442.0422 445.0427 447.7341 453.5346 460.1351 465.5356 468.5361 474.1366 479.3371 485.5376 490.7381 495.36 504.7588 507.4485 510.64729 513.64608 519.2449 527.0437 532.2425 536.16">8.What is a flower? Describe the parts of a typical angiosperm flower.</tspan><tspan y="-288.961" x="201.12 206.8006 219.12 227.1017 232.28342 235.46514 238.44684 245.02855 250.21027 252.59198 256.3737 262.95539 268.1371 270.5188 274.3005 279.4822 283.86393 293.24565 295.62736 298.60908 305.19078 308.37248 311.3542 316.93589 321.3176 326.4993 331.681 336.8627 342.0444 348.6261 353.8078 358.9895 362.1712 364.55293 371.73463 377.3163 383.49803 386.47975 392.26145 395.24317 401.82487 404.20658 407.98829 414.56999 419.75169 422.1334 428.3151 434.0968 439.2785 442.26023 447.44194 449.82365 453.00535 458.58705 462.96876 465.35047 469.13218 475.71388 480.89558 483.27729 489.45899 492.4407 495.6224 498.8041 503.9858 508.36753 513.54928 520.131 523.9127 526.29446 530.0762 535.4579 541.6396 546.8213">9.Define the term inflorescence. Explain the basis for the different types</tspan><tspan y="-275.041" x="219.12 222.123 228.726 231.929 234.932 240.535 244.938 250.141 255.34401 260.547 265.75 272.353 277.556 282.759 285.612 288.615 295.218 298.07099 301.274 304.27699 309.87998 317.68299 322.886 327.289 330.292 336.895 342.29798 345.15098 351.35398 354.35697 360.15998 366.76298 370.56599 375.76899">inflorescence in flowering plants.</tspan><tspan y="-257.041" x="195.12 200.96051 206.80103 219.12 227.29579 232.67159 238.04738 243.42317 247.99897 251.17476 257.55055 262.92634 267.90214 271.87794 278.65373 284.0295 289.0053 294.9811 299.5569 304.13267 310.10847 316.88426 322.46003 327.83583 337.41163 342.7874 349.5632 353.539 358.5148 364.2906 367.66639 372.64219 376.01799 379.19377 384.96955 389.54533 395.52113 398.6969 403.6727 413.24848 418.62428 428.20008 434.57588 439.95167 444.52745 449.90324 454.87904 458.0548 464.8306 469.8064 474.38218 479.75798 482.93376 488.90956 492.88536 496.06114 501.8369 508.6127 513.5885 517.5643 523.3401 528.31588 532.2916 539.06747 544.44326 547.619">10.Describe the arrangement of floral members in relation to their</tspan><tspan y="-242.881" x="219.12 222.1146 228.7092 233.9038 239.09839 243.49298 247.28759 250.28218 255.87679 262.47138 265.366 270.9606 277.5552 280.44984 284.24443 290.83903 296.6336 299.6282 305.4228 314.81739 321.61198 326.80659">insertion on thalamus.</tspan></text>
<g clip-path="url(#clip_8669)">
<text xml:space="preserve" transform="matrix(1 0 -0 1 291.32 747.4419)" font-size="8" font-family="Arial"><tspan y="6.316" x="0 4.4480006 8.896001 13.344002 17.792002 20.456002 24.904002">2024-25</tspan></text>
</g>
</g>
</svg>
