<svg xmlns="http://www.w3.org/2000/svg" xmlns:xlink="http://www.w3.org/1999/xlink" xmlns:inkscape="http://www.inkscape.org/namespaces/inkscape" version="1.1" width="612" height="784.0048" viewBox="0 0 612 784.0048">
<defs>
<clipPath id="clip_531">
<path transform="matrix(1,0,0,-1,0,801.711)" d="M0 17.7062H612V801.711H0Z" clip-rule="evenodd"/>
</clipPath>
<clipPath id="clip_532">
<path transform="matrix(1,0,0,-1,0,801.711)" d="M291.32 43.99H320.67V54.64H291.32Z"/>
</clipPath>
<clipPath id="clip_533">
<path transform="matrix(1,0,0,-1,0,801.711)" d="M60.21 329.614H419.825V356.557H60.21Z"/>
</clipPath>
<clipPath id="clip_534">
<path transform="matrix(1,0,0,-1,0,801.711)" d="M422.87 339.944H532.587V371.728H422.87Z"/>
</clipPath>
<clipPath id="clip_535">
<path transform="matrix(1,0,0,-1,0,801.711)" d="M270.487 342.128H292.487V345.128H270.487Z"/>
</clipPath>
<clipPath id="clip_536">
<path transform="matrix(1,0,0,-1,0,801.711)" d="M350.479 328.128H405.295V331.928H350.479Z"/>
</clipPath>
<clipPath id="clip_537">
<path transform="matrix(1,0,0,-1,0,801.711)" d="M206.478 326.528H296.096V331.128H206.478Z"/>
</clipPath>
</defs>
<g>
<g clip-path="url(#clip_531)">
<path transform="matrix(1,0,0,-1,0,801.711)" d="M0 728.6H612V809.44998H0Z" fill="#d1d3d4" fill-rule="evenodd"/>
<path transform="matrix(1,0,0,-1,0,801.711)" d="M0 738.8H612V820.8H0Z" fill="#e1ecb6" fill-rule="evenodd"/>
<path transform="matrix(1,0,0,-1,0,801.711)" d="M.48 .48H611.51998V51.52H.48Z" fill="#cbdf7f" fill-rule="evenodd"/>
<path transform="matrix(1,0,0,-1,.47999997,801.231)" stroke-width=".96" stroke-linecap="butt" stroke-miterlimit="1000" stroke-linejoin="miter" fill="none" stroke="#cbdf7f" d="M0 0H611.04V51.04H0Z"/>
<text fill="#231f20" xml:space="preserve" transform="matrix(1 0 -0 1 0 801.711)" font-size="11" font-family="Bookman"><tspan y="-730.081" x="84">C</tspan></text>
<text fill="#231f20" xml:space="preserve" transform="matrix(1 0 -0 1 0 801.711)" font-size="7.69999" font-family="Bookman"><tspan y="-730.081" x="92.16 97.6347 102.185398">ELL</tspan></text>
<text fill="#231f20" xml:space="preserve" transform="matrix(1 0 -0 1 0 801.711)" font-size="11" font-family="Bookman"><tspan y="-730.081" x="106.8 110.34211 113.42222">: T</tspan></text>
<text fill="#231f20" xml:space="preserve" transform="matrix(1 0 -0 1 0 801.711)" font-size="7.69999" font-family="Bookman"><tspan y="-730.081" x="120.23999 126.45388">HE</tspan></text>
<text fill="#231f20" xml:space="preserve" transform="matrix(1 0 -0 1 0 801.711)" font-size="11" font-family="Bookman"><tspan y="-730.081" x="132 134.9371"> U</tspan></text>
<text fill="#231f20" xml:space="preserve" transform="matrix(1 0 -0 1 0 801.711)" font-size="7.69999" font-family="Bookman"><tspan y="-730.081" x="143.52 149.15648 151.71295">NIT</tspan></text>
<text fill="#231f20" xml:space="preserve" transform="matrix(1 0 -0 1 0 801.711)" font-size="11" font-family="Bookman"><tspan y="-730.081" x="156.48"> </tspan></text>
<text fill="#231f20" xml:space="preserve" transform="matrix(1 0 -0 1 0 801.711)" font-size="7.69999" font-family="Bookman"><tspan y="-730.081" x="159.6 165.71387">OF</tspan></text>
<text fill="#231f20" xml:space="preserve" transform="matrix(1 0 -0 1 0 801.711)" font-size="11" font-family="Bookman"><tspan y="-730.081" x="170.63999 173.6431"> L</tspan></text>
<text fill="#231f20" xml:space="preserve" transform="matrix(1 0 -0 1 0 801.711)" font-size="7.69999" font-family="Bookman"><tspan y="-730.081" x="180.48 183.15189 188.13378">IFE</tspan></text>
<path transform="matrix(1,0,0,-1,500.6352,52.546205)" d="M0 0C1.76 1.76 3.88 2.63 6.36 2.63H23.36C25.85 2.63 27.97 1.76 29.73 0 31.49-1.76 32.36-3.88 32.36-6.36V-24.36C32.36-26.85 31.49-28.97 29.73-30.73 27.97-32.49 25.85-33.36 23.36-33.36H6.36C3.88-33.36 1.76-32.49 0-30.73-1.76-28.97-2.63-26.85-2.63-24.36V-6.36C-2.63-3.88-1.76-1.76 0 0" fill="#ffffff" fill-rule="evenodd"/>
<text fill="#231f20" xml:space="preserve" transform="matrix(1 0 -0 1 0 801.711)" font-size="11" font-family="Bookman"><tspan y="-729.361" x="505.92 513.059">91</tspan></text>
<path transform="matrix(1,0,0,-1,597.6,-.96899417)" stroke-width=".24" stroke-linecap="butt" stroke-miterlimit="10" stroke-linejoin="miter" fill="none" stroke="#000000" d="M0 0H14.4"/>
<path transform="matrix(1,0,0,-1,594.12,-19.08899)" stroke-width=".24" stroke-linecap="butt" stroke-miterlimit="10" stroke-linejoin="miter" fill="none" stroke="#000000" d="M0 0V-14.4"/>
<path transform="matrix(1,0,0,-1,597.6,783.351)" stroke-width=".24" stroke-linecap="butt" stroke-miterlimit="10" stroke-linejoin="miter" fill="none" stroke="#000000" d="M0 0H14.4"/>
<path transform="matrix(1,0,0,-1,594.12,787.071)" stroke-width=".24" stroke-linecap="butt" stroke-miterlimit="10" stroke-linejoin="miter" fill="none" stroke="#000000" d="M0 0V-14.16"/>
<path transform="matrix(1,0,0,-1,.11999999,-19.32898)" stroke-width=".24" stroke-linecap="butt" stroke-miterlimit="10" stroke-linejoin="miter" fill="none" stroke="#000000" d="M0 0V-18"/>
<text fill="#231f20" xml:space="preserve" transform="matrix(1 0 -0 1 0 801.711)" font-size="10.5" font-family="Bookman"><tspan y="-688.561" x="60 63.339105 69.19821 73.79732 83.64642 89.71553 93.68464 96.81374 102.67285 109.581958 112.92106 115.420169 123.79927 131.54837 138.66748 141.1666 145.7657 151.2048 157.69391 160.82302 163.95212 169.39122 175.46033 179.42943 182.55854 188.41764 195.32674 197.82585 203.89496 210.80406 217.29317 219.79228 226.28139 229.41049 234.8496 238.8187 243.4178 246.5469 253.03601 260.15513 264.12425 267.25337 273.11247 280.02159 282.5207 286.4898 292.3489 294.84803 301.33714 307.40623 314.52534 320.17445 327.08357 331.05268 336.4918 341.09089 343.59 349.0291 354.46824 357.59736 360.72648 366.1656 369.5047 372.0038 378.49293 385.40205 390.84117 396.49028 398.98939 405.05848 408.1876 413.6267">formation, DNA replication and distribution to daughter cells. They also</tspan><tspan y="-674.3965" x="60 66.93 72.39 75.54 82.05 85.158008 88.30801 95.23801 98.34601 102.96601 108.42601 113.88601 120.39601 123.54601 128.16602 134.25601 138.24602 141.39601 147.27602 154.20603 157.56603 160.67403 166.13404 171.59404 177.05405 181.67404 187.13405 191.12406 194.27405 200.15406 207.08405 210.19205 216.70204 221.32204 227.20204 232.66205 238.12206 243.58206 249.04207 254.50208 259.96208 263.32206 266.43003 270.42 276.30003 279.408 282.55799 289.48799 294.94798 299.56797 305.02796 311.11796 316.57795 322.03794 325.1459 329.1359 336.0659 341.52589 344.63386 350.09385 357.23387 361.85386 365.21385 371.30384 376.76383 382.22383 385.3318 391.42179 396.04179 401.50178 407.59178 410.69975 416.57975">help in respiration, secretion processes, to increase the surface area of</tspan><tspan y="-660.47348" x="60 63.9795 70.899 76.3485 78.85801 85.35751 88.49702 94.576519 100.02602 109.88551 115.96501 118.47452 128.33402 133.78351 143.643 150.1425 154.752 160.8315 167.75099 173.20049 175.70999 181.78949 188.70899 195.20848 197.71799 203.16748 210.08698 215.11647 220.77597 230.63547 236.71497 240.69448 243.83397 249.28347 251.79297 257.24247 263.11198 270.03147 274.01097 279.46046 286.37995 290.35945 293.70893 296.2184 299.77793 306.69743 309.2069 314.6564 320.5259 330.3854 335.8349 338.3444 344.8439 349.4534 355.3229 361.82243 367.90193 372.5114 378.1709 384.0404 388.0199 393.4694 398.91889 401.42839 404.56788 407.70738 414.20689">the plasma membrane and enzymatic content. In some prokaryotes like</tspan><tspan y="-646.561" x="60 65.23961 70.68922 76.55882 83.268428 88.92803 95.217639 101.08724 106.32685 110.09646 115.33607 119.73567 122.665279 128.53488 131.67449 133.97409 137.7437 144.45331 149.69292 154.09253 159.33214 161.63175 167.50135 171.90096 177.14057 179.44017 185.09978 188.86939 195.579 200.8186 205.21822 207.51782 217.16744 222.40705 232.05666 238.34627 242.74588 248.61548 255.32509 260.98469 267.9043 273.1439 275.4435 280.6831 286.3427 290.1123 295.3519 302.0615 307.3011 310.23069 315.8903 322.59989 327.83949 330.1391 333.0687 339.7783 343.54789 349.2075 351.5071 355.2767 361.9863 367.2259 369.5255 374.7651 380.21473 383.9843 389.64393 395.93354 398.86314 404.73274 409.97233">cyanobacteria, there are other membranous extensions into the cytoplasm</tspan><tspan y="-632.386" x="60 65.4075 71.445 74.5425 77.64001 83.04751 89.505008 91.97251 97.38001 104.257518 108.82501 114.65251 124.47002 130.50753 134.44503 140.27252 146.73003 153.60753 159.43503 164.00254 169.41004 174.81754 177.28504 185.42253 192.30004 195.39754 200.80504 207.68254 210.15004 215.55754 221.38504 228.26255 232.20005 238.23755 241.33506 248.21256 250.68006 257.13755 260.23506 265.85255 275.67005 281.07756 287.95506 291.89256 297.30006">called chromatophores which contain pigments.</tspan><tspan y="-618.46298" x="77.997 85.767 91.857 97.317 101.307 106.767 111.387 114.537 120.62701 123.77701 126.52801 131.988 137.44802 140.598 143.748 149.20801 151.95902 161.82901 167.919 173.589 176.34001 182.85 188.31002 191.06102 200.93102 206.81102 210.80103 213.95102 217.10102 222.56102 225.31203 231.19203 235.81203 238.56304 245.49304 251.37305 258.30305 262.50306 272.37306 278.25306 282.24305 285.39305 288.54304 294.00303 297.363 300.11399 303.684 307.04399 309.79496 319.66496 325.54496 329.53495 332.68495 335.83494 341.29493 344.6549 347.40589 351.39588 358.32588 363.78587 369.45588 372.20686 379.13685 385.22685 390.68684 396.14683 398.8978 402.8878 409.81779 412.96778">Bacterial cells may be motile or non-motile. If motile, they have thin</tspan><tspan y="-604.561" x="60 63.213 66.216 69.219 75.162 84.885 90.198009 96.981 100.824008 106.55701 113.55 118.86301 121.246509 126.55951 132.29251 136.13552 141.44852 148.23152 153.54453 156.54753 162.28054 169.06354 174.37654 176.76004 179.97304 184.44605 190.17905 199.90206 202.28556 206.12856 212.91156 218.22457 221.22757 225.70058 228.08408 233.39708 238.71009 241.71309 244.7161 247.0996 255.1426 261.0856 264.0886 267.09159 269.4751 274.7881 280.73109 283.73408 286.73707 292.05006 298.41307 300.79658 304.00959 307.01258 312.95558 318.47859 323.79158 326.79457 329.79756 335.74055 338.95356 341.33708 348.96006 354.90306 360.21604 364.05903 369.372 373.845 376.848 382.791 385.1745 390.4875 397.27049 403.00349 411.04649 413.43">filamentous extensions from their cell wall called flagella. Bacteria show a</tspan><tspan y="-590.3755" x="60 64.62 70.71001 77.64001 83.310009 88.770008 91.647 94.797008 101.727008 104.604007 108.594 115.524 120.984 123.861 130.791 137.931 147.801 154.31099 159.771 164.39099 167.26799 173.35799 180.288 186.79799 189.67499 195.76499 200.38498 205.00498 211.09497 218.02497 223.69496 229.15497 239.02497 244.48497 251.41498 255.40499 258.28199 264.162 267.52198 270.39897 273.75895 276.90895 282.99894 288.66896 294.12895 297.27894 300.42893 306.51893 309.8789 312.7559 320.52589 326.61589 332.07588 336.06587 341.52586 346.14585 349.29585 355.38584 358.53584 361.4128 364.7728 367.9228 374.0128 379.6828 385.1428 388.2928 391.44279 398.5828 408.4528 411.32978 414.47978">range in the number and arrangement of flagella. Bacterial flagellum is</tspan><tspan y="-576.45248" x="60 65.4075 71.235 81.052509 87.51 93.3375 98.745 104.152507 110.61 113.088008 118.915508 122.22301 124.70101 128.63852 135.51602 140.08353 145.49103 150.89853 153.37653 159.83403 165.87154 170.43904 174.37654 179.78404 182.26204 187.45954">composed of three parts &#x2013; </tspan></text>
<text fill="#231f20" xml:space="preserve" transform="matrix(1 0 -0 1 0 801.711)" font-size="10.5" font-family="Bookman"><tspan y="-576.45248" x="190.0845 194.022 197.7495 201.267 207.3045 217.752 223.7895 230.877 235.6545 239.172 241.734 248.82149 255.27899 261.73649 268.61399">filament, hook </tspan></text>
<text fill="#231f20" xml:space="preserve" transform="matrix(1 0 -0 1 0 801.711)" font-size="10.5" font-family="Bookman"><tspan y="-576.45248" x="271.20753 277.23463 284.1017 290.54884">and </tspan></text>
<text fill="#231f20" xml:space="preserve" transform="matrix(1 0 -0 1 0 801.711)" font-size="10.5" font-family="Bookman"><tspan y="-576.45248" x="293.0475 299.5575 305.85749 311.5275 317.82749 321.60749 324.44248 330.95249 337.6725 344.60249">basal body</tspan></text>
<text fill="#231f20" xml:space="preserve" transform="matrix(1 0 -0 1 0 801.711)" font-size="10.5" font-family="Bookman"><tspan y="-576.45248" x="351.123 354.43049 356.88749 363.34498 370.22248 375.62998 378.08699 381.39448 384.49198 387.58949 393.62699 403.4445 408.852 415.7295">. The filament</tspan><tspan y="-562.561" x="60 63.1395 68.589 71.0985 75.078 81.997509 87.44701 89.95651 93.096019 98.965518 105.88502 111.54452 116.99402 122.44352 126.42302 128.93253 135.43202 141.30153 145.91103 149.89054 153.03003 158.89954 165.81903 168.32854 174.40804 181.32753 187.82703 190.33654 195.78603 201.65554 205.63504 211.08454 218.00403 224.50353 229.95302 232.46253 235.81203 240.42153 246.29103 256.15055 258.66004 262.63954 269.55903 275.0085 277.518 282.9675 288.417 291.5565 294.69599 297.20549 302.65498 309.78446 314.39396 317.74345 323.82295 329.27244 334.72193 337.2314 341.2109 347.0804 349.5899 353.5694 360.4889 365.9384 368.44789 374.31739 381.44688 385.42637 390.87586 394.01536 400.51487 405.96437">is the longest portion and extends from the cell surface to the outside.</tspan><tspan y="-548.365" x="77.997 85.7565 91.206 96.666 99.805507 106.30501 111.75451 117.20401 120.10201 123.46201 126.60152 132.68102 138.34052 143.79003 146.92952 150.06902 156.15901 159.50852 162.40651 168.906 172.0455 175.185 178.33499 181.23299 187.31249 194.232 200.73149 203.62949 210.33899 213.48899 223.34848 229.84798 234.45748 237.59697 243.67647 249.12598 252.02397 258.1035 262.71299 268.16249 271.06047 277.13996 280.28996 285.73945 291.60896 294.50694 299.95643 307.08595 311.69544 315.05543 321.13493 326.5844 332.0339 334.9319 340.38139 344.37138 348.98088 356.11039 361.55989 365.53938 372.66889 377.27839 382.73838 388.18788 391.08586 396.95536 400.30485 403.20283 407.1928 414.1123">Besides flagella, Pili and Fimbriae are also surface structures of the</tspan><tspan y="-534.44198" x="60 66.4995 72.578998 78.028499 82.007999 87.4575 92.06699 95.2065 101.285999 103.806 110.3055 117.435 121.4145 123.9345 130.434 136.30352 138.82352 145.74301 151.61252 155.59203 158.11203 164.61153 167.75102 173.83052 179.49002 182.01003 188.08953 190.60953 195.21903 201.08853 204.22803 209.67752 212.19753 215.33702 222.25652 224.77652 234.63602 240.50553 244.48503 247.62453 250.76403 253.90352 257.88304 263.54255 266.89204 269.41203 275.91154 282.83103 288.28053">bacteria but do not play a role in motility. The </tspan></text>
<text fill="#231f20" xml:space="preserve" transform="matrix(1 0 -0 1 0 801.711)" font-size="10.5" font-family="Bookman"><tspan y="-534.44198" x="290.88453 297.48915 301.15376 304.60838">pili</tspan></text>
<text fill="#231f20" xml:space="preserve" transform="matrix(1 0 -0 1 0 801.711)" font-size="10.5" font-family="Bookman"><tspan y="-534.44198" x="308.409 310.908 316.9875 321.597 327.04649 329.54548 334.99497 338.13447 344.00398 350.92347 356.58299 362.66249 366.64198 372.09147 378.59098 381.08998 385.06947 392.19898 398.6985 405.828 408.9675 415.047"> are elongated tubular</tspan><tspan y="-520.561" x="60 65.46 69.45 74.07 81.21 86.67 90.659999 97.799999 102.42 107.88 113.34 116.006999 125.877 131.967 138.47699 143.937 146.604 152.48401 155.84401 158.51102 164.60102 167.26802 172.72803 179.23802 184.69803 190.15804 193.30803 199.39803 202.54802 205.21503 211.72502 216.34502 222.22502 226.21503 231.67504 234.82503 241.75504 245.11504 247.78205 254.29204 261.22206 266.68205">structures made of a special protein. The </tspan></text>
<text fill="#231f20" xml:space="preserve" transform="matrix(1 0 -0 1 0 801.711)" font-size="10.5" font-family="Bookman"><tspan y="-520.561" x="269.286 273.30754 277.11903 287.6505 293.98204 298.84355 302.65504 308.77653">fimbriae</tspan></text>
<text fill="#231f20" xml:space="preserve" transform="matrix(1 0 -0 1 0 801.711)" font-size="10.5" font-family="Bookman"><tspan y="-520.561" x="314.8875 317.5335 323.613 328.2225 333.672 336.318 341.7675 351.62699 357.70649 360.84599 363.98548 366.63148 373.13099 377.74049 380.87998 386.32948 390.30897 393.44847 398.89796 401.54396 404.68345 407.82295 414.32246"> are small bristle like</tspan><tspan y="-506.35447" x="60 63.3495 66.489 72.988498 77.59799 83.04749 88.496997 91.0065 96.456 102.955509 107.565 113.4345 120.564 124.5435 127.68301 134.60251 140.26201 142.77152 148.64102 155.77053 159.75003 162.25954 168.12905 171.47855 173.98805 177.96756 184.88706 190.33655 192.84606 198.29555 203.74504 206.88454 210.02404 213.37354 215.88304 219.44254 226.36203 228.87154 234.32103 240.19054 250.05004 255.49953 258.00904 264.50856 270.58805 276.03755 280.01704 285.46653 290.07603 293.2155 299.295 302.6445 305.154 309.13349 316.05299 321.50248 327.162 329.67149 335.75099 340.36048 345.80998 348.31947 354.81898 361.73847 367.60798 375.78749 382.70698 385.21647 389.19596 395.06547 397.57496 404.49446 409.94395 413.08345">fibres sprouting out of the cell. In some bacteria, they are known to help</tspan><tspan y="-492.43147" x="60 66.06911 70.038219 74.007328 80.07643 85.51553 92.42464 94.93424 98.90335 105.812458 111.25156 113.76116 120.25027 126.319377 131.75849 135.72759 141.16669 145.7658 148.8949 154.964 157.47362 159.98323 163.95233 169.81143 172.32105 176.92015 182.77925 188.21836 194.70746 200.14656 202.65618 205.78528 212.69438 215.204 220.6431 224.6122 229.2113 234.6504 240.71952 250.56862 256.00773 258.51734 264.58644 271.49555 277.98466 280.49427 286.56336 289.69248 295.1316 300.9907 303.5003 307.46943 313.32853 315.83815 319.80726 326.71638 332.1555 334.6651 341.57423 347.43333 352.87245 356.84156 359.35118 363.32029 366.4494 371.88853 377.32765 384.44676 389.88587 395.32499">attach the bacteria  to rocks in streams and also to the host tissues.</tspan></text>
<text fill="#00aeef" xml:space="preserve" transform="matrix(1 0 -0 1 0 801.711)" font-size="12" font-family="Bookman"><tspan y="-464.1606" x="60 67.98 72.12 80.100009 84.240009 102 111.396 115.75201 122.98801 130.464 136.74 144.216 156.252 163.248 169.524 172.572 179.56801 187.764 195.48001 198.52802 203.36402 211.56002 218.55602 222.67201 230.628 236.904 241.26001 248.73601 256.932 259.98 268.656 276.13203 283.84803 288.204 295.2">8.4.2Ribosomes and Inclusion Bodies</tspan></text>
<text fill="#231f20" xml:space="preserve" transform="matrix(1 0 -0 1 0 801.711)" font-size="10.5" font-family="Bookman"><tspan y="-444.0006" x="60 63.57 70.5 73.1145 79.624507 84.24451 90.124507 96.63451 102.72451 107.34451 113.01451 118.89451 122.88451 128.34452 133.80452 137.16452 139.77902 144.39902 147.54901 154.059 159.93901 165.39902 171.27902 181.14902 186.60903 192.06903 194.68354 200.77353 205.39353 210.85353 213.46804 219.55803 225.01804 230.47805 236.35805 241.81806 244.96805 251.05805 255.04805 260.50807 267.01808 269.63255 277.82255 280.97254 284.96253 291.89253 294.507 298.49699 305.42698 310.88697 313.50144 320.01145 323.16145 329.25144 334.71144 344.58143 350.67143 353.2859 363.15589 368.61589 378.48588 384.99589 389.61589 395.70588 402.63587 408.09587 410.71034 416.59034">In prokaryotes, ribosomes are associated with the plasma membrane of</tspan><tspan y="-430.0776" x="60 63.99 70.92 76.38 80.170497 85.63049 91.09049 94.24049 97.390499 100.750499 104.54099 111.050998 117.980998 123.440998 129.111 132.90149 138.99149 143.61148 149.07149 152.86199 158.95198 165.46198 171.34198 178.48198 182.47199 186.26248 192.77248 199.28247 203.07297 210.00296 219.87296 223.66345 230.17345 235.84345 239.63394 246.14394 252.65393 256.44444 263.37443 273.24443 277.0349 280.1849 287.1149 290.9054 296.3654 299.51539 304.5554 310.01539 313.80589 319.89588 326.82588 333.33589 337.12638 343.21638 347.83638 353.29637 357.08686 366.95686 373.04685 379.55686 385.01686 388.80735 394.68736 398.04734 401.83784 405.82783 414.01783">the cell. They are about 15 nm by 20 nm in size and are made of two</tspan><tspan y="-416.1546" x="60 65.46 72.6 79.11 86.25 93.18 96.33 100.32 105.78 109.5495 113.7495 117.519 124.029 130.539 137.469 141.2385 147.32849 154.25849 160.76848 164.53798 171.04798 177.55797 184.48798 188.25748 195.39748 202.32749 205.47748 209.46749 214.92749 218.69699 226.887 233.81699 236.96698 242.42699 249.357 253.1265 261.3165 268.2465 273.70649 280.63648 284.40596 290.91596 295.53596 300.99595 306.45594 311.91593 318.84593 322.8359 326.60539 330.59538 336.47538 342.1454 347.60539 351.59538 358.52537 363.98536 368.60536 372.37483 375.7348 381.6148 386.2348 396.1048 399.87428 406.38429 412.8943">subunits - 50S and 30S units which when present together form 70S</tspan><tspan y="-402.0006" x="60 66.26861 70.64722 76.28582 82.55443 88.40303 92.78164 98.21024 103.84885 107.59745 110.50606 115.72466 118.00327 122.38188 125.29049 131.5591 137.19771 142.41632 148.05493 157.68354 162.90215 168.12076 171.23937 173.51798 180.83658 183.74518 190.01378 195.65239 200.871 206.50962 216.13822 221.35683 226.57544 228.85405 234.70265 239.08126 244.29987 246.57848 250.32709 257.0157 262.23429 264.51289 269.73149 272.64009 276.38868 281.60728 283.88587 289.52449 292.64308 294.92167 301.19029 305.56889 311.2075 314.9561 320.17469 323.08329 329.77189 332.05049 337.26908 342.6977 349.3863 353.1349 359.8235 365.04209 370.26069 373.16929 378.38789 381.50648 383.78507 390.47367 395.69227 400.91087 406.12947 410.50807 416.35667">prokaryotic ribosomes. Ribosomes are the site of protein synthesis. Several</tspan><tspan y="-388.0671" x="60 64.8194 68.16879 74.87819 80.95758 86.616977 92.696369 102.76576 108.425159 114.08455 119.323947 129.39334 135.68274 141.55214 146.79154 153.08094 157.27033 161.45972 167.74912 173.40851 180.5379 185.7773 189.96669 196.04608 201.28548 207.57488 212.81427 218.47367 221.82306 228.95246 234.82186 238.17125 243.83065 249.07004 259.13945 266.89884 274.86824 282.2076 287.447 293.7364 300.86579 307.57518 312.81455 316.37394 322.45335 327.27275 337.34214 342.5815 348.8709 354.1103 359.76969 366.89909 373.18849 376.53788 383.66728 388.90666 394.56605 400.85545 404.20484 407.55424 413.21363">ribosomes may attach to a single mRNA and form a chain called</tspan></text>
<text fill="#231f20" xml:space="preserve" transform="matrix(1 0 -0 1 0 801.711)" font-size="10.5" font-family="Bookman"><tspan y="-374.1441" x="60 66.67811 73.14621 76.67432 83.142429 87.93053 91.66863 97.926738 104.39484 109.81294 116.28105 126.73916 132.78726">polyribosomes</tspan></text>
<text fill="#231f20" xml:space="preserve" transform="matrix(1 0 -0 1 0 801.711)" font-size="10.5" font-family="Bookman"><tspan y="-374.1441" x="138.2355 140.703 146.5095 151.056"> or </tspan></text>
<text fill="#231f20" xml:space="preserve" transform="matrix(1 0 -0 1 0 801.711)" font-size="10.5" font-family="Bookman"><tspan y="-374.1441" x="153.59699 160.16999 166.54349 169.96649 176.3295 181.653 188.016 198.369">polysome</tspan></text>
<text fill="#231f20" xml:space="preserve" transform="matrix(1 0 -0 1 0 801.711)" font-size="10.5" font-family="Bookman"><tspan y="-374.1441" x="204.48 207.78749 210.25499 216.7125 223.59 228.9975 231.465 236.0325 239.13 245.58751 251.41501 256.8225 262.65003 272.46754 277.87504 283.28254 285.75004 291.57756 294.88505 297.35255 303.39006 305.85755 312.31504 318.14256 321.24006 326.85755 332.26506 338.09257 347.91007 353.31758 355.78507 359.72257 364.29008 370.32759 377.20509 382.61259 385.71009 391.7476 395.6851 401.0926 403.5601 407.4976 414.3751">. The ribosomes of a polysome translate the</tspan><tspan y="-360.0006" x="60 69.82811 77.346218 85.07432 92.172428 94.67153 97.77964 104.66775 108.61585 114.45396 116.953067 123.42117 127.999279 133.83739 137.78549 143.2036 146.3117 153.19982 158.61792">mRNA into proteins.</tspan></text>
<text fill="#231f20" xml:space="preserve" transform="matrix(1 0 -0 1 0 801.711)" font-size="10.5" font-family="Bookman"><tspan y="-346.0566" x="77.997 82.259899 89.46279 95.615688 99.24858 106.24148 111.76437 115.60727 122.18017 129.38306 132.06044 138.42334 144.99623 151.77913 155.62203 161.77492 167.29782">Inclusion bodies:</tspan></text>
<text fill="#231f20" xml:space="preserve" transform="matrix(1 0 -0 1 0 801.711)" font-size="10.5" font-family="Bookman"><tspan y="-346.0566" x="170.88 173.358 180.86551 186.27301 191.68051 197.08802 201.65552 207.06302 212.47052 214.94852 224.76602 230.80353 234.74103 240.14853 244.71604 247.81354 253.85105 256.94856 259.41606 262.51356 269.39106 271.85856 278.31605 282.88356 288.71107 295.16856 301.20606 305.77357 311.39106 317.21858 321.15608 324.25358 329.66108 332.12858 337.53608 342.94358 346.04109 349.13859 354.54609 357.02409 363.06159 367.6291 373.0366 375.5041 380.9116 384.8491 390.6766 395.2441 400.6516 407.1091 409.5871 412.6846"> Reserve material in prokaryotic cells are stored in</tspan><tspan y="-332.1336" x="60 63.99 70.92 76.38 79.750499 85.210498 90.88049 94.87049 100.75049 107.26049 110.41049 116.500499 121.960498 131.83049 135.20099 138.35099 145.28098 148.65148 152.64148 159.57147 165.03148 168.40198 171.76198 177.64199 182.26198 192.13198 195.50247 201.38248 204.74248 208.11298 211.26297 218.19297 223.65297 226.80297 233.94297 239.40297 242.55297 248.43297 255.36298 258.73347 265.24348 271.12348 277.63349 280.78349 286.24348 291.70347 295.06346 298.43394 304.94395 311.87394 317.33393 322.7939 328.2539 331.6244 337.7144 342.33439 347.79438 351.16487 358.09486 363.97486 367.96485 371.33534 377.84535 383.72535 390.86537 397.79536 404.30537 407.67585 414.18586">the cytoplasm in the form of inclusion bodies. These are not bound by</tspan><tspan y="-318.0006" x="60 66.090007 73.00951 78.66901 83.026508 92.89651 98.34601 108.21601 114.715518 119.32502 125.41502 132.33454 137.79454 142.15204 147.60155 153.26105 158.72106 162.70056 168.16057 178.02007 182.37757 188.46756 195.38706 201.88655 206.24405 209.39405 212.53354 217.99355 222.35105 225.70055 230.32054 235.77005 241.23006 245.58756 248.73755 255.65705 260.01454 264.00453 270.924 276.384 280.7415 286.19099 291.8505 295.84049 301.71 308.22 311.3595 317.439 322.899 332.75849 336.11848 340.47596 345.92546 349.28544 354.94496 358.30494 361.65443 366.0119 372.5114 379.4414 385.3109 390.7709 397.27043 404.2004 410.2799 414.2594">any membrane system and lie free in the cytoplasm, e.g., phosphate</tspan><tspan y="-304.0461" x="60 65.67 70.29 76.380008 83.310009 90.450008 93.600009 99.060009 104.520008 107.880008 110.61001 116.07001 121.740009 127.83001 134.76001 140.64002 147.15001 154.08002 159.75002 165.21002 170.67003 176.76003 183.69004 186.42003 192.09003 196.71002 202.80002 209.73001 216.87001 220.02 225.48001 230.94002 233.67002 239.76001 246.69 253.2 255.93 261.6 264.75 270.42 275.88 281.76 287.43003 292.89 299.82 302.55 308.22 312.84 318.93 325.86 333 336.15 341.61 347.06999 350.42997 353.15995 361.55995 367.64994 373.10993 375.8399 381.2999 387.3899 392.84989 399.9899 405.8699 409.0199 414.4799">granules, cyanophycean granules and glycogen granules. Gas vacuoles</tspan><tspan y="-290.1231" x="60 66.090007 70.71001 76.170009 78.8475 82.207508 88.0875 95.2275 102.1575 108.6675 111.35551 114.50551 121.43551 124.12351 130.63352 133.78351 140.92351 146.38352 149.06102 154.73102 159.35102 164.81102 170.27103 177.20102 179.87853 185.96852 192.89853 199.40853 202.08603 208.59603 215.73603 220.35602 226.86602 230.016 235.47602 238.15352 244.24352 251.17353 257.68354 260.36103 266.03105 270.65104 276.11103 281.571 288.501 291.1785 297.6885 304.6185 310.4985 314.4885 320.3685 325.8285 331.4985 338.4285 342.4185 349.34849 354.80848 358.79847 361.94847 367.40846 370.08595 376.59596 382.68595 388.14595 392.13594 397.59593 402.2159 405.3659 411.4559">are found in blue green and purple and green photosynthetic bacteria.</tspan></text>
<text fill="#00aeef" xml:space="preserve" transform="matrix(1 0 -0 1 0 801.711)" font-size="13" font-family="Bookman"><tspan y="-257.0405" x="60 68.22913 72.29826 95.997">8.5E</tspan></text>
<text fill="#00aeef" xml:space="preserve" transform="matrix(1 0 -0 1 0 801.711)" font-size="9.1" font-family="Bookman"><tspan y="-257.0405" x="105.83999 112.54669 119.79939 126.3241 133.39479 139.73749 146.99019 153.33289 156.94559">UKARYOTIC</tspan></text>
<text fill="#00aeef" xml:space="preserve" transform="matrix(1 0 -0 1 0 801.711)" font-size="13" font-family="Bookman"><tspan y="-257.0405" x="163.44 167.26201"> C</tspan></text>
<text fill="#00aeef" xml:space="preserve" transform="matrix(1 0 -0 1 0 801.711)" font-size="9.1" font-family="Bookman"><tspan y="-257.0405" x="177.12 183.8448 189.84162 195.83843">ELLS</tspan></text>
<text fill="#231f20" xml:space="preserve" transform="matrix(1 0 -0 1 0 801.711)" font-size="10.5" font-family="Bookman"><tspan y="-230.4005" x="60 66.51 73.44 78.9 82.8795 88.3395 95.4795 101.9895 108.079509 112.69951 118.36951 124.249507 128.2395 133.69951 139.15952 143.13903 146.28902 153.21903 158.67903 161.82903 168.96903 175.47902 180.93903 184.91854 191.00853 194.15853 197.30852 201.28803 205.27803 212.20804 217.66805 221.64756 228.15755 232.77754 238.65755 242.64756 245.79755 251.25756 255.24756 260.70756 264.06755 268.04704 274.55705 277.70704 283.79704 290.72703 294.717 300.177 303.537 307.51649 313.60649 320.53648 323.68647 333.55647 339.64646 342.79646 348.25645 352.23594 358.32594 365.25593 371.76594 375.74543 379.1054 386.24543 393.1754 398.84544 401.99543 405.3554 409.3349 412.9049">The eukaryotes include all the protists, plants, animals and fungi. In</tspan><tspan y="-216.4775" x="60 65.37611 72.421718 78.84782 84.84342 89.379528 94.95513 100.751239 104.65734 107.71295 113.08906 115.52517 120.89078 126.266887 129.333 132.3886 137.7647 140.2008 144.09642 150.94252 156.31862 160.84423 166.22032 168.65644 171.72254 177.08814 179.52425 185.53035 192.37645 194.81256 200.18866 205.98477 209.88039 215.25649 222.09209 227.46819 230.53429 235.89989 241.27599 243.7121 249.0777 254.87381 264.6599 271.07554 277.08164 281.60725 285.51335 295.29945 300.66505 307.51115 311.40675 317.41285 320.47895 323.53456 328.91065 334.91676 338.81236 341.87846 347.66407 354.51017 356.94627 362.73188 366.00798 368.44407 373.82017 379.39576 383.30186 389.09797 395.51359 398.57969 404.5753 409.9514">eukaryotic cells there is an extensive compartmentalisation of cytoplasm</tspan><tspan y="-202.5545" x="60 63.99 70.92 75.54 81.42 88.56 94.229999 101.159999 104.41499 108.40499 115.33499 120.79499 124.04999 130.55998 135.17998 140.63999 146.09999 151.56 158.48999 163.95 169.41 172.66501 178.54502 181.90502 185.16002 195.03002 200.49002 210.36002 216.87001 221.49 227.58 234.51001 239.97002 243.22502 249.73502 255.61502 262.75505 269.68504 276.19505 279.45 285.33003 289.95 295.62004 301.71003 308.64 314.1 317.25 320.4 325.86 331.31999 334.67997 337.93495 345.49494 352.63496 359.14497 365.23497 369.85496 375.52497 381.40498 385.39497 388.54496 394.00495 397.25993 402.7199 408.1799 411.3299 414.4799">through the presence of membrane bound organelles. Eukaryotic cells</tspan><tspan y="-188.4005" x="60 66.51 72.39 77.85 83.31 88.77 94.229999 99.689998 104.729999 110.82 117.75 122.79 128.67 133.29 138.95999 145.04999 151.97998 155.12998 160.58998 166.04999 172.55998 177.59998 184.52997 191.66997 197.12998 200.27997 205.73998 212.87998 218.33998 223.37998 231.56998 234.71997 238.70998 245.63999 250.67998 256.77 261.80998 268.73997 275.87998 281.33998 284.48997 289.94996 296.03996 300.65995 305.69993 311.1599 318.0899 323.5499 329.0099 332.15989 338.0399 344.5499 350.0099 353.36988 358.40986 361.97987 368.90986 373.94984 380.03984 386.54985 393.05986 396.20985 400.19984 403.34983 409.22984 416.15983">possess an organised nucleus with a nuclear envelope. In addition,</tspan><tspan y="-174.467" x="60 65.46 72.6 79.11 85.200008 89.82001 95.490009 101.37 105.36 108.51 113.97 117.4455 122.9055 128.36551 131.5155 134.6655 140.1255 143.601 150.531 156.621 162.08101 167.54102 171.01651 177.1065 180.582 186.042 192.132 196.752 199.902 205.362 209.352 215.022 218.4975 224.3775 227.7375 231.213 236.673 242.55301 252.423 258.933 262.083 267.543 273.423 276.8985 280.0485 285.9285 291.3885 297.2685 307.1385 313.0185 317.00849 322.8885 327.50849 333.1785 336.654 342.744 349.67399 356.184 359.6595 365.11949 370.7895 374.77949 380.6595 386.11949 392.6295 398.08949 401.23948 406.69947 410.68946 416.77946">eukaryotic cells have a variety of complex locomotory and cytoskeletal</tspan><tspan y="-160.544" x="60 65.418109 69.36621 73.94431 81.04242 86.460529 90.40863 97.50674 102.08484 107.502948 112.92105 116.23916 118.71727 125.18538 132.07349 137.4916 140.5997 145.17781 147.65592 153.28403 158.70214 165.59024 171.00835 174.95645 178.06456 183.48267 185.96077 195.78888 201.83699 205.7851 211.2032 215.78131 218.88942 224.93753 228.04564 230.52375 233.63185 239.04996 241.52806 247.36617 251.94428 257.5724 263.62049 270.50859 273.61668 279.03477 284.45286 290.92097 293.39909 296.50718 303.39527 307.34339 313.1815 315.6596 321.0777 327.9658 332.54389 338.382 348.21009 354.0482 359.46629 365.30439 375.13249 380.55058 385.96867">structures. Their genetic material is organised into chromosomes.</tspan><tspan y="-146.4005" x="77.997 84.8746 87.76221 90.64981 92.917919 98.115528 104.993129 111.24073 117.06834 121.42594 126.83355 132.45116 136.17876 139.06636 144.26396 146.53208 151.72968 156.92728 159.81488 162.70249 167.90009 170.1682 175.9958 180.35341 185.55101 187.81912 194.48673 200.10433 203.83193 206.10004 208.98764 215.23525 220.43285 227.10045 230.82805 233.71566 238.91326 244.74086 247.62847 250.72608 252.99419 259.2418 262.1294 267.957 274.6246 278.3522 280.6203 286.4479 293.1155 299.36314 301.63124 307.45884 314.12644 317.01405 326.62165 332.44926 335.33686 337.60496 342.80256 348.00016 350.88777 353.77537 358.97297 361.24107 367.06867 371.42628 376.62388 378.89198 385.1396 388.0272 391.1248 394.22239 399.41999 403.7776 408.9752 415.6428">All eukaryotic cells are not identical. Plant and animal cells are different</tspan><tspan y="-132.4565" x="60 65.901 71.172008 73.503009 77.30401 84.045009 89.31601 91.64701 94.81801 100.50901 104.94001 114.62101 119.89201 124.32301 126.654018 132.97502 138.66602 143.93701 149.20801 154.479 159.75 165.021 167.352 172.6125 177.8835 180.8445 183.8055 186.1365 194.13751 200.03852 202.98902 205.95001 211.22101 214.39202 216.72303 223.04402 226.00502 231.90602 237.17702 240.97801 243.93901 250.26001 255.531 257.862 263.763 270.504 276.825 279.156 285.057 287.388 290.349 296.25 300.681 306.162 311.43299 313.76399 319.03498 324.30598 331.04698 334.84797 339.27897 345.17997 348.14097 350.47196 355.74296 361.64396 366.91496 373.86595 379.55696 382.51795 387.78895 390.11994 398.12095 404.86195 407.82295 413.09394">as the former possess cell walls, plastids and a large central vacuole which</tspan><tspan y="-118.53349" x="60 65.922 70.374 75.666 78.0285 83.9505 90.2925 95.5845 100.8765 107.638507 111.4605 113.823009 116.80501 123.56701 125.92951 131.85152 138.61351 141.5955 151.2975 157.2195 160.20149 162.564 167.856 173.14801 176.13 179.112 184.404 187.59601 189.95851 198.1905 204.9525 207.315 211.13701 217.899 223.19101 225.55352 231.26552 235.08753 241.84952 247.14153 251.59352 253.95603 260.71803 266.64 273.402 279.74403 282.936 285.2985 291.2205 297.98249 300.96449 310.66648 316.58848 319.57048 321.93296 327.22496 332.51695 335.49894 338.48094 343.77293 346.1354 352.8974 358.8194 364.1114 369.40339 371.76588 377.05787 382.34986 389.11186 392.93385 397.38584 400.36784 406.07984 409.06184 414.35383">are absent in animal cells. On the other hand, animal cells have centrioles</tspan><tspan y="-104.4005" x="60 68.179508 75.09901 78.23851 83.68801 90.60751 93.11702 99.19652 103.806018 109.255519 111.76502 117.84452 124.344028 129.79352 135.24301 142.1625 146.14202 148.65152 151.79102 158.71051 161.22002 167.29952 170.43901 180.29851 186.16802 191.61751 195.59702 198.10652 204.18602 207.32552 210.46501 212.97452 219.47402 222.61351 228.69301 235.6125 239.59201 242.10152 247.55101 253.0005 256.14 259.2795 264.729 267.2385 270.378 277.0875 280.227 285.88648 293.01597 297.62547 303.07496 305.58445 312.08396 315.43345 321.93296 325.07246">which are absent in almost all plant cells (Figure 8.3).</tspan></text>
<g clip-path="url(#clip_532)">
<text xml:space="preserve" transform="matrix(1 0 -0 1 0 801.711)" font-size="8" font-family="Arial"><tspan y="-46.59019" x="291.32 295.768 300.216 304.664 309.112 311.776 316.224">2024-25</tspan></text>
</g>
</g>
</g>
<g>
<g clip-path="url(#clip_533)">
<g style="mix-blend-mode:multiply">
<path transform="matrix(1,0,0,-1,0,801.711)" d="M170.88 356.557H419.825V343.537H170.88Z" fill="#ffff00"/>
</g>
<g style="mix-blend-mode:multiply">
<path transform="matrix(1,0,0,-1,0,801.711)" d="M60.21 342.634H292.123V329.614H60.21Z" fill="#ffff00"/>
</g>
</g>
</g>
<g clip-path="url(#clip_534)">
<path transform="matrix(1,0,0,-1,0,801.711)" stroke-width="1" stroke-linecap="butt" stroke-miterlimit="10" stroke-linejoin="miter" fill="none" stroke="#ff0000" d="M429.261 350.322 424.287 350.828 428.423 353.638"/>
<path transform="matrix(1,0,0,-1,0,801.711)" stroke-width="1" stroke-linecap="butt" stroke-miterlimit="10" stroke-linejoin="miter" fill="none" stroke="#ff0000" d="M424.287 350.828 444.087 355.836H454.087"/>
<path transform="matrix(1,0,0,-1,0,801.711)" d="M454.587 341.944H530.58706V369.728H454.587Z" fill="#ffffff"/>
<path transform="matrix(1,0,0,-1,0,801.711)" stroke-width="1" stroke-linecap="butt" stroke-miterlimit="10" stroke-linejoin="miter" fill="none" stroke="#ff0000" d="M454.587 341.944H530.58706V369.728H454.587Z"/>
<text xml:space="preserve" transform="matrix(1 0 -0 1 0 801.711)" font-size="8" font-family="ArialMT"><tspan y="-361.988" x="455.08729 462.6313 464.4073 466.6233 471.0713 475.5193 479.9673 482.1833 484.3993 488.8473 493.2953 497.2953 499.5113 503.9593 508.4073 512.8552 517.3032">Without any bound</tspan></text>
<text xml:space="preserve" transform="matrix(1 0 -0 1 0 801.711)" font-size="8" font-family="ArialMT"><tspan y="-353.06004" x="455.08729 460.41529 463.07929">Pro</tspan></text>
<text xml:space="preserve" transform="matrix(1 0 -0 1 0 801.711)" font-size="8" font-family="ArialMT"><tspan y="-344.13206" x="455.08729 457.30329 461.75129 465.75129 467.52729 471.97529">Inclub</tspan></text>
</g>
<g clip-path="url(#clip_535)">
<path transform="matrix(1,0,0,-1,0,801.711)" stroke-width="1" stroke-linecap="butt" stroke-miterlimit="10" stroke-linejoin="miter" fill="none" stroke="#ff0000" d="M291.487 343.628H271.487"/>
</g>
<g clip-path="url(#clip_536)">
<path transform="matrix(1,0,0,-1,0,801.711)" stroke-width="1" stroke-linecap="butt" stroke-miterlimit="10" stroke-linejoin="miter" fill="none" stroke="#ff0000" d="M351.487 329.628 404.287 330.428"/>
</g>
<g clip-path="url(#clip_537)">
<path transform="matrix(1,0,0,-1,0,801.711)" stroke-width="1" stroke-linecap="butt" stroke-miterlimit="10" stroke-linejoin="miter" fill="none" stroke="#ff0000" d="M207.487 328.028 295.087 329.628"/>
</g>
</svg>
