<svg xmlns="http://www.w3.org/2000/svg" xmlns:xlink="http://www.w3.org/1999/xlink" xmlns:inkscape="http://www.inkscape.org/namespaces/inkscape" version="1.1" width="612" height="784.0048" viewBox="0 0 612 784.0048">
<defs>
<clipPath id="clip_8168">
<path transform="matrix(1,0,0,-1,0,801.711)" d="M0 17.7062H612V801.711H0Z" clip-rule="evenodd"/>
</clipPath>
<clipPath id="clip_8169">
<path transform="matrix(1,0,0,-1,0,801.711)" d="M181.92 434.88H447.12V169.92002H181.92Z"/>
</clipPath>
<clipPath id="clip_8170">
<path transform="matrix(1,0,0,-1,0,801.711)" d="M291.32 43.99H320.67V54.64H291.32Z"/>
</clipPath>
<clipPath id="clip_8171">
<path transform="matrix(1,0,0,-1,0,801.711)" d="M278.374 607.91H313.226V614.71H278.374Z"/>
</clipPath>
<clipPath id="clip_8172">
<path transform="matrix(1,0,0,-1,0,801.711)" d="M425.4 609.01H488.6V612.01H425.4Z"/>
</clipPath>
<clipPath id="clip_8173">
<path transform="matrix(1,0,0,-1,0,801.711)" d="M350.199 596.61H484.202V600.01H350.199Z"/>
</clipPath>
<clipPath id="clip_8174">
<path transform="matrix(1,0,0,-1,0,801.711)" d="M240.581 596.61H263.419V600.409H240.581Z"/>
</clipPath>
<clipPath id="clip_8175">
<path transform="matrix(1,0,0,-1,0,801.711)" d="M74.3 616.442H184.283V675.01H74.3Z"/>
</clipPath>
</defs>
<g clip-path="url(#clip_8168)">
<path transform="matrix(1,0,0,-1,0,801.711)" d="M.48 .48H611.51998V51.52H.48Z" fill="#cbdf7f" fill-rule="evenodd"/>
<path transform="matrix(1,0,0,-1,.47999997,801.231)" stroke-width=".96" stroke-linecap="butt" stroke-miterlimit="1000" stroke-linejoin="miter" fill="none" stroke="#cbdf7f" d="M0 0H611.04V51.04H0Z"/>
<path transform="matrix(1,0,0,-1,0,801.711)" d="M0 728.6H612V809.44998H0Z" fill="#d1d3d4" fill-rule="evenodd"/>
<path transform="matrix(1,0,0,-1,0,801.711)" d="M0 738.8H612V820.8H0Z" fill="#e1ecb6" fill-rule="evenodd"/>
<path transform="matrix(1,0,0,-1,80.63619,52.546205)" d="M0 0C1.76 1.76 3.88 2.63 6.36 2.63H23.36C25.85 2.63 27.97 1.76 29.73 0 31.49-1.76 32.36-3.88 32.36-6.36V-24.36C32.36-26.85 31.49-28.97 29.73-30.73 27.97-32.49 25.85-33.36 23.36-33.36H6.36C3.88-33.36 1.76-32.49 0-30.73-1.76-28.97-2.64-26.85-2.64-24.36V-6.36C-2.64-3.88-1.76-1.76 0 0" fill="#ffffff" fill-rule="evenodd"/>
<text fill="#231f20" xml:space="preserve" transform="matrix(1 0 -0 1 0 801.711)" font-size="11" font-family="Bookman"><tspan y="-729.361" x="87.12 94.413 101.706">102</tspan></text>
<text fill="#231f20" xml:space="preserve" transform="matrix(1 0 -0 1 0 801.711)" font-size="11" font-family="Bookman"><tspan y="-729.361" x="513.117">B</tspan></text>
<text fill="#231f20" xml:space="preserve" transform="matrix(1 0 -0 1 0 801.711)" font-size="7.69999" font-family="Bookman"><tspan y="-729.361" x="521.04 523.4347 529.3714 533.76809 539.7048 545.6415">IOLOGY</tspan></text>
<path transform="matrix(1,0,0,-1,0,-.7290039)" stroke-width=".24" stroke-linecap="butt" stroke-miterlimit="10" stroke-linejoin="miter" fill="none" stroke="#000000" d="M0 0H14.4"/>
<path transform="matrix(1,0,0,-1,18.12,-19.08899)" stroke-width=".24" stroke-linecap="butt" stroke-miterlimit="10" stroke-linejoin="miter" fill="none" stroke="#000000" d="M0 0V-14.4"/>
<path transform="matrix(1,0,0,-1,0,783.591)" stroke-width=".24" stroke-linecap="butt" stroke-miterlimit="10" stroke-linejoin="miter" fill="none" stroke="#000000" d="M0 0H14.4"/>
<path transform="matrix(1,0,0,-1,18.12,787.071)" stroke-width=".24" stroke-linecap="butt" stroke-miterlimit="10" stroke-linejoin="miter" fill="none" stroke="#000000" d="M0 0V-14.4"/>
<path transform="matrix(1,0,0,-1,611.64,783.471)" stroke-width=".24" stroke-linecap="butt" stroke-miterlimit="10" stroke-linejoin="miter" fill="none" stroke="#000000" d="M0 0V-18"/>
<g clip-path="url(#clip_8169)">
<path transform="matrix(1,0,0,-1,314.8464,367.4526)" d="M0 0C72.76 0 132.1-59.29 132.1-131.98 132.1-204.67 72.76-263.96 0-263.96-72.76-263.96-132.1-204.67-132.1-131.98-132.1-59.29-72.76 0 0 0" fill="#fffcd5" fill-rule="evenodd"/>
</g>
<text fill="#231f20" xml:space="preserve" transform="matrix(1 0 -0 1 0 801.711)" font-size="10.5" font-family="Bookman"><tspan y="-688.561" x="210 217.30789 223.56578 233.81368 239.65157 244.01946 247.54735 257.79527 263.63316 269.47105 274.88893 281.3568 286.7747 290.51258 296.35047 304.91838 310.33625 316.17414 323.48204 328.47993 334.73783 344.98573 351.24363 357.0815 363.33943 373.5873 379.4252 385.2631 390.68098 397.98887 404.45677 410.29466 416.13255 421.5504 428.8583 435.1162 442.4241 447.00199 452.83988 457.20777 463.67567 467.20356 474.51145 478.03935 485.34724 491.3951 496.813 502.65089 508.48878 514.32669 520.58456 527.89248 534.78036 541.2482 546.24618">Sometimes a few chromosomes have non-staining secondary</tspan><tspan y="-674.3965" x="192.003 197.40012 203.21723 210.08434 215.48145 219.40856 223.96566 227.05277 232.44988 236.37699 239.4641 245.2812 252.14832 257.5454 260.00254 266.02964 269.95674 272.41386 278.44096 280.89808 286.29518 292.11228 298.97938 304.37648 308.30357 314.33067 321.19776 325.12486 327.58198 330.66908 336.48619 341.88328 347.91038 351.83747 354.92457 360.74168 367.60877 370.90589 373.363 379.81013 386.67723 389.7643 395.1614 397.61854 403.22566 406.31275 411.70985 417.10694 422.50404 424.96116 428.88825 435.75535 441.15245 443.60957 449.63667 456.08378 462.53089 467.92799 473.95509 478.51219 484.53929 491.40638 496.80348 502.20057 504.65769 510.4748 513.7719 516.229 522.2561 524.7132 530.1103 539.9174 545.9445 549.0316">constrictions at a constant location. This gives the appearance of a small</tspan><tspan y="-660.47348" x="192.003 195.31061 199.88872 205.92633 211.55445 221.37206 226.79016 233.66777 237.60538 240.08348 245.50159 251.5392 254.64731 257.7449 263.163 269.6206 272.09873 276.03636 282.92445 288.33204">fragment called the </tspan></text>
<text fill="#231f20" xml:space="preserve" transform="matrix(1 0 -0 1 0 801.711)" font-size="10.5" font-family="Bookman"><tspan y="-660.47348" x="290.85 296.1735 302.12699 306.8205 312.774 316.2075 319.641 323.2845 327.978">satellite</tspan></text>
<text fill="#231f20" xml:space="preserve" transform="matrix(1 0 -0 1 0 801.711)" font-size="10.5" font-family="Bookman"><tspan y="-660.47348" x="334.0785">.</tspan></text>
<text fill="#00aeef" xml:space="preserve" transform="matrix(1 0 -0 1 0 801.711)" font-size="12" font-family="Bookman"><tspan y="-634.081" x="192 200.06388 204.28775 212.35163 216.5755 224.63938 240 251.23212 255.50424 262.41636 267.88847 275.28059 282.4327 289.82484 297.45695 301.72908 308.64118">8.5.11Microbodies</tspan></text>
<text fill="#231f20" xml:space="preserve" transform="matrix(1 0 -0 1 0 801.711)" font-size="10.5" font-family="Bookman"><tspan y="-614.161" x="192 201.5551 207.5402 214.36531 219.93042 222.83904 232.60414 237.95925 247.72435 254.12946 258.64457 264.62968 271.45478 276.80989 279.71849 286.12358 291.89869 298.93379 305.75889 312.16398 315.07258 324.83769 327.88279 334.7079 341.74299 345.62809 350.9832 353.89179 359.2469 364.602 369.9571 373.0022 378.3573 381.4024 386.7575 392.1126 395.0212 400.3763 406.36143 409.40653 412.45164 417.80674 424.21183 427.12043 436.88554 439.93064 445.28575 449.80085 455.57597 461.98106 467.75617 474.16127 477.20637 482.56147 487.91658 490.82518 494.71028 501.53538 507.52049 511.40559 514.3142 519.6693 525.4444 532.26956 536.15469 542.1398 545.1849">Many membrane bound minute vesicles called microbodies that contain</tspan><tspan y="-599.9965" x="192 197.334 203.298 207.792 210.81601 216.57 223.58402 228.92852 231.36452 236.69852 243.50252 248.41652 253.96053 263.70454 269.03855 274.32 277.68 280.074 286.0485 290.55299 295.8975 298.2915 304.686 309.1905 314.5245 319.86903 325.21354 332.01756 335.89207 338.28608 341.31007 348.12458 350.5186 356.9131 362.67759 366.5521 373.3561 375.75013 382.13414 385.16865 391.14314 397.95765 401.82167 404.21568 410.17967 416.99418 423.38868 425.78269 431.75718 438.5717 441.5957 451.3502 457.32469 460.3592 462.7532 468.09773 473.43174 476.46626 479.50074 484.84526">various enzymes, are present in both plant and animal cells.</tspan></text>
<text fill="#00aeef" xml:space="preserve" transform="matrix(1 0 -0 1 0 801.711)" font-size="13" font-family="Bookman"><tspan y="-547.4406" x="288.9602">S</tspan></text>
<text fill="#00aeef" xml:space="preserve" transform="matrix(1 0 -0 1 0 801.711)" font-size="9.1" font-family="Bookman"><tspan y="-547.4406" x="297.6002 304.06129 312.34239 320.62348 326.90257 333.72767">UMMARY</tspan></text>
<text fill="#231f20" xml:space="preserve" transform="matrix(1 0 -0 1 0 801.711)" font-size="10.5" font-family="Bookman"><tspan y="-513.1206" x="113.04019 120.04369 123.05719 126.07069 128.46469 134.20819 138.6917 144.22519 150.1787 156.9722 159.9857 165.3092 175.04271 180.36621 182.76021 188.71372 193.19722 198.52072 200.91472 210.64823 216.60173 222.97524 228.29874 230.69274 236.43624 239.65973 242.05373 247.37723 252.70073 255.71424 258.72773 264.0512 266.44523 272.18873 276.6722 279.06623 285.0197 290.55323 296.08674 300.57023 305.8937 311.42723 317.3807 321.2342 326.55769 331.88117 334.27519 340.01869 343.2422 345.6362 350.9597 356.28318 359.29667 362.31016 367.63365 370.85716 373.25117 380.88468 386.20817 389.22166 392.23515 397.55863 399.95265 405.27613 411.2296 415.7131 421.2466 423.64064 426.6541 433.4476 435.8416 439.6951 446.4886 451.81208 454.82557 459.30906 461.70307 467.02656 473.82005 479.77354 486.14704 491.47053 494.69404 497.08805 502.41154 505.42503 510.32853">All organisms are made of cells or aggregates of cells. Cells vary in their shape, size</tspan><tspan y="-499.6806" x="113.04019 119.0148 125.82941 132.22402 134.63913 140.62424 145.96884 149.84345 152.87805 158.22266 161.26776 165.14237 168.17697 173.52158 178.86618 185.06128 188.3059 195.3305 202.14511 207.50022 211.37482 214.40943 220.17403 226.98863 232.34374 235.58835 238.00347 245.65807 251.63268 256.9773 262.3324 268.727 271.1421 276.9067 283.7213 286.1364 290.01103 296.82563 302.17024 304.58534 310.97993 315.48454 320.83964 326.18424 331.52885 338.34346 343.68806 349.04316 351.45826 357.22288 361.72749 364.14259 370.1172 376.51179 381.85639 387.201 394.0261 399.3707 404.7153 407.1304 412.89503 416.13963 418.55473 424.52934 426.94444 436.69905 442.04365 451.80876 458.20335 462.70796 468.68257 475.49717 480.84178 483.25688 489.65147 495.42658 502.45118 509.26579">and activities/functions. Based on the presence or absence of a membrane bound</tspan><tspan y="-486.2406" x="113.04019 120.012088 127.19398 132.69588 135.88777 141.38967 148.57157 154.07346 159.14485 165.27675 172.24864 178.80054 183.87194 189.79383 193.82572 200.7976 206.2995 210.9614 216.03279 221.95468 226.61658 232.32848 238.46038 245.43227 250.93416 254.12606 257.31797 262.81986 268.32176 271.72364 276.795 282.2969 287.7988 290.9907 294.1826 299.68449 304.75587 310.88777 317.85966 324.41157 329.48295 336.45484 341.95674 348.92863 354.4305 359.9324 365.00379 370.9257 375.5876 381.29948 387.43138 394.40327 397.59516 403.09706 413.00895 418.51084 423.5822 429.0841 435.216 442.1879 447.25929 453.81117 459.31306 464.38444 471.35633 477.48823 487.40013 492.902 499.45393 504.5253 510.6572">nucleus and other organelles, cells and hence organisms can be named as</tspan><tspan y="-472.8006" x="113.04019 118.50019 125.64019 132.15019 138.24019 142.86019 148.53018 154.41019 158.40019 161.55019 167.0102 169.9397 175.8197 180.4397 183.3692 189.8792 194.49919 200.3792 206.88919 212.97919 217.59918 223.26918 229.14919 233.13919 236.28919 241.74919">eukaryotic or prokaryotic.</tspan><tspan y="-459.1191" x="131.03719 138.13529 140.61339 144.5615 150.1896 156.65772 159.76583 165.18393 171.23204 174.34015 176.81826 182.23636 189.33446 195.80257 201.85068 206.42879 212.05689 217.89499 221.8431 224.9512 230.36931 232.84741 238.26552 243.68363 246.79174 249.89984 252.37795 257.79606 263.63417 270.52226 275.94035 279.04844 284.46653 288.41465 293.83274 296.31086 302.14897 305.46708 307.9452 313.9933 316.4714 321.8895 327.3076 330.41569 333.52378 336.0019 345.83 351.24809 361.07618 367.54429 372.12239 378.17048 385.05857 390.47666 393.79478 396.2729 403.16099 410.2591 415.6772 418.78529 424.20338 431.30149 436.71958 439.1977 445.2458 452.13389 458.602 461.0801 466.4982 472.1263 476.07444 481.91255 488.38066 491.48875 497.53684 502.95494 512.783">A typical eukaryotic cell consists of a cell membrane, nucleus and cytoplasm.</tspan><tspan y="-445.6791" x="113.04019 119.55019 122.700199 128.79019 135.72019 139.71019 142.5662 148.0262 153.4862 156.6362 159.7862 165.2462 168.1022 175.0322 181.1222 186.5822 192.0422 194.89821 200.9882 203.84421 209.30422 214.76422 217.91422 221.06421 223.92021 232.11022 238.20021 241.3502 244.5002 247.3562 253.2362 260.37623 264.3662 269.8262 272.9762 279.4862 284.9462 287.8022 291.79219 298.72218 304.18217 307.03816 312.49815 317.95814 321.10813 324.25813 327.1141 336.9841 342.4441 352.3141 358.8241 363.4441 369.5341 376.46409 381.92408 385.28407 388.14006 394.65007 401.58006 407.04005 409.89604 416.40605 419.55604 425.64604 431.10603 440.976 447.066 449.922 459.792 465.25199 475.12199 481.632 486.25199 492.34199 499.27198 504.73197 507.58796 510.73796">Plant cells have a cell wall outside the cell membrane. The plasma membrane is</tspan><tspan y="-432.2706" x="113.04019 118.81509 124.58998 128.05487 133.82978 139.60468 143.90958 147.37447 153.14937 158.92427 162.38916 168.37406 173.71845 180.54334 186.31824 191.25313 201.43802 207.21292 213.61782 220.4427 223.9076 229.6825 235.02689 241.43178 248.67667 255.50156 260.84596 264.52085 270.92576 276.70066 280.16557 283.63047 287.09538 291.40028 297.80519 302.11009 307.88499 313.65989 319.00428 323.30918 328.24409 334.649 341.8939 347.6688 354.49369 360.68858 365.62348 369.92839 375.27278 381.46766 385.14256 390.48695 396.26185 402.03675 407.81166 413.58656 418.52146 424.92637 428.39128 433.73567 443.92057 450.11546 453.58036 459.35527 465.13017 472.58506 476.04997 481.82487 487.59977 491.27467 496.61906 503.44395 510.68885">selectively permeable and facilitates transport of several molecules. The</tspan><tspan y="-418.7991" x="113.04019 118.50019 125.41969 131.92969 137.8097 147.67969 153.1292 162.99919 169.50919 174.12918 180.20868 187.13867 192.59868 195.28668 200.73619 206.40619 211.8662 215.8562 221.30571 231.1757 233.86371 237.0137 243.9332 249.3932 252.5432 259.6832 266.1827 271.6427 277.1027 279.79069 287.35069 294.90019 298.26017 300.94816 306.61817 312.48768 315.63768 321.30769 324.44718 327.13517 332.59516 338.47517 348.33467 354.84468 357.99467 363.45466 369.32417 372.68415 375.37214 378.52214 384.18165 389.64164 395.52165 400.98164 406.85115 416.72114 422.18113 427.6411 430.3291 436.4086 443.3386 449.8486 452.5366 457.98609 464.07609 469.53608 476.6656 482.5456 485.6956 491.15559 496.60508 499.96507 502.65306 509.79307 512.94308">endomembrane system includes ER, golgi complex, lysosomes and vacuoles. All</tspan><tspan y="-405.1176" x="113.04019 116.757198 123.41419 128.6012 130.8482 136.0352 141.2222 144.0992 146.9762 149.2232 154.8302 159.1772 164.5742 170.3912 177.0482 182.2352 185.1122 187.9892 193.1762 198.36319 200.6102 206.8472 212.0342 216.3812 219.4682 225.0752 229.4222 239.0192 241.2662 247.5032 250.3802 253.46721 256.5542 261.7412 266.0882 271.2752 277.93223 281.64924 283.89625 290.13325 297.00025 300.71726 302.96427 308.15129 314.38829 319.5753 324.7623 327.6393 330.72633 333.60334 338.79035 341.03736 344.12437 350.99137 357.64839 362.8354 366.5524 369.4294 375.0364 381.69343 386.88044 389.96745 392.21446 399.71147 404.89848 411.55549 415.2725 419.6195 425.2265 430.4135 436.0205 445.6175 450.8045 453.0515 458.8685 465.5255 471.7625 474.02003 479.20704 484.39405 491.05107 494.76808 499.11506 501.99208 507.59907 510.47608">the cell organelles perform different but specific functions. Centrosome and centriole</tspan><tspan y="-391.6776" x="113.04019 116.3583 122.1964 126.774509 136.60262 139.08072 143.02883 149.91693 155.33504 157.81314 164.28125 170.32936 175.74747 181.79558 184.90369 187.38179 193.8499 199.688 206.15612 211.78421 214.26232 220.10042 223.41852 225.89662 231.31473 234.42284 237.53095 240.63906 246.68717 249.16527 255.21338 262.10148 268.56959 271.0477 274.3658 277.4739 283.522 289.15013 294.5682 297.6763 300.7844 306.8325 309.3106 313.25874 320.14683 326.19493 330.14305 332.62117 335.93928 341.98738 347.40547 350.51356 353.62165 356.72975 360.67787 366.72596 370.67408 376.09217 378.57029 381.67839 387.51649 392.93458 398.77268 408.60078 414.43888 418.387 421.4951 427.3332 434.22129 437.5394 440.01753 443.54563 450.43373 452.91184 458.95994 465.84803 468.95613 478.7842 484.8323 487.9404 490.41853 495.8366 501.2547 504.3628 507.4709 512.889">form the basal body of cilia and flagella that facilitate locomotion. In animal cells,</tspan><tspan y="-378.2376" x="113.04019 118.50019 123.96019 130.8902 134.8802 139.5002 142.65019 148.5302 151.68019 157.1402 162.6002 167.0207 173.1107 176.2607 181.7207 187.60071 192.02121 195.38121 201.26122 205.88121 215.7512 220.1717 225.63172 232.14171 235.2917 242.22171 248.7317 251.8817 257.3417 261.76219 267.85218 274.36219 280.8722 286.9622 291.58219 297.67219 301.66218 308.8022 314.26219 318.68266 325.19267 332.33268 336.95268 340.10267 347.03266 352.70268 357.12315 362.58314 368.04313 371.1931 374.3431 378.76359 385.2736 388.42359 393.88359 397.03358 402.49357 405.64356 411.52357 418.45356 421.81355 426.234 434.004 441.144 446.604 449.754 455.214 462.354 467.814 472.23448 477.69447 483.57447 490.50447 494.49446 500.58445 503.73445 510.66444">centrioles also form spindle apparatus during cell division. Nucleus contains</tspan><tspan y="-364.7976" x="113.04019 119.97019 127.11019 132.57019 135.72019 141.18019 147.0602 150.21019 153.36019 156.54169 162.63169 169.56168 176.07167 179.25318 184.71318 191.64319 196.26319 202.14319 212.01319 218.10318 222.09319 225.24318 232.17319 235.35469 242.2847 247.7447 251.73471 259.9247 265.80473 270.4247 276.93473 280.2947 283.4762 287.0462 291.0362 294.21769 301.14768 307.02769 311.01768 314.19917 320.07917 327.00917 330.15916 335.82917 339.01066 344.47065 350.35066 357.28065 361.27064 365.89064 371.77064 374.92063 380.3806 383.5621 387.5521 394.4821 399.94209 403.12358 409.21357 414.67356 418.66355 421.81355 427.27354 430.42353 434.4135 437.5635 443.0235 448.4835 451.66499 457.54499 460.90498 464.08647 469.96647 474.58647 480.25648 486.34648 493.27647 498.73646 501.88645 505.03645 510.49644">nucleoli and chromatin network. It not only controls the activities of organelles</tspan><tspan y="-351.1161" x="113.04019 119.539699 126.6692 130.6487 133.38919 139.46869 142.60819 148.0577 153.9272 156.6677 163.16719 166.31719 172.39669 178.05619 183.50569 186.24619 192.32569 195.06618 204.92568 211.00518 214.14467 220.01418 224.62368 227.36417 231.97367 237.84317 240.98267 246.43218 249.17267 252.32266 259.24217 261.98265 268.90214 274.35163 278.96113 284.4106 290.92063 294.06013 298.0396 303.69914">but also plays a major role in heredity.</tspan><tspan y="-337.7706" x="131.03719 138.61809 145.56899 152.09989 158.00078 164.53168 167.70258 173.81348 179.29438 189.18527 192.35617 197.83707 200.37796 205.01886 210.49976 214.51065 217.68155 223.16245 230.32334 233.49423 240.65512 250.54602 253.08692 258.5678 264.46873 271.41963 275.4305 281.5414 284.7123 291.6632 297.1441 299.685 303.6959 310.85679 317.38768 324.54856 327.71946 333.20036 338.68125 341.22215 347.12306 351.76396 354.30485 359.78575 362.95664 368.43754 372.44844 377.92933 382.57023 389.52113 395.63203 401.1129 404.4938 407.0347 413.56559 420.51649 425.99739 431.68827 434.22917 440.34007 444.98097 450.46186 453.00276 458.90367 462.28456 464.82545 468.83634 477.04725 482.94816 485.48905 489.49995 495.19084 501.7217 507.2026 512.6835">Endoplasmic reticulum contains tubules or cisternae. They are of two types:</tspan><tspan y="-324.23609" x="113.04019 117.87019 123.96019 131.3102 137.1902 144.3302 149.2337 155.5337 162.6737 169.3937 174.30771 179.9777 190.05771 196.1477 202.2377 206.4377 213.5777 217.1477 222.0617 229.83171 237.60172 242.51572 249.65572 255.32572 258.6857 265.4057 271.0757 275.98973 279.3497 286.48973 291.40373 295.60374 302.74375 308.41377 313.32777 317.52778 322.35777 328.65776 335.79777 341.46778 348.18778 354.27778 359.10777 363.30778 368.22178 374.31178 377.88179 382.79579 388.4658 395.8158 402.5358 408.2058 412.40583 418.7058 425.84584 431.51585 437.18586 442.85588 446.42588 451.33988 457.0099 462.8899 470.0299 474.22993 481.36994 487.03996 492.70997 496.06996 501.73997 506.65397 512.74398">rough and smooth. ER helps in the transport of substances, synthesis of</tspan><tspan y="-310.7961" x="113.04019 119.67609 124.42198 130.42787 134.54376 140.12966 143.40555 150.46144 156.04734 159.53324 162.17914 165.45503 168.73093 175.36682 181.37271 188.0086 192.7545 198.76039 202.87628 208.46218 211.73807 218.79396 224.37985 227.02576 233.24166 240.29755 246.93344 249.57935 255.37525 258.65116 264.44706 270.03297 276.03886 281.83476 287.42066 294.47657 297.96247 300.60838 307.24427 314.30018 319.88609 322.31568 327.83869 333.84458 337.12049 342.91639 346.1923 348.8382 355.4741 361.47999 368.11589 373.91178 376.55769 379.8336 385.4195 388.0654 394.28129 396.9272 406.9231 412.509 422.50489 429.14079 433.88667 440.10255 447.15846 453.16435 460.43025 466.01615 468.66206 474.66795 479.41383 485.20973 491.4256 498.4815 504.0674 507.34333 510.61924">proteins, lipoproteins and glycogen. The golgi body is a membranous organelle</tspan><tspan y="-297.1146" x="113.04019 118.71019 124.800189 134.88019 141.60019 147.69019 153.36019 159.03018 165.75019 169.75069 175.84069 179.41069 183.4112 186.9812 190.3412 196.6412 200.8412 205.0412 210.7112 217.8512 223.5212 230.2412 234.2417 239.9117 246.2117 251.8817 257.5517 261.1217 265.12223 271.84223 278.98225 284.65226 288.65278 294.32279 299.9928 305.6628 310.4928 316.1628 320.36283 323.7228 329.8128 336.95283 342.62284 346.62336 352.71336 356.28337 360.28388 365.9539 371.6239 374.9839 378.34388 384.0139 388.0144 394.3144 399.14439 404.8144 408.8149 415.5349 421.8349 427.5049 434.2249 439.89494 446.61494 450.61546 453.97544 461.11546 465.11598 469.31599 476.456 482.126 492.206 496.2065 502.5065 509.6465">composed of flattened sacs. The secretions of cells are packed in them and</tspan><tspan y="-283.67463" x="113.04019 117.50259 122.59498 129.15738 136.55977 142.49216 149.47455 155.82695 160.91934 165.38175 171.31414 178.29653 183.79842 187.63082 192.7247 199.0877 209.4407 214.9637 219.4367 226.8497 232.7927 238.31569 244.25868 250.20168 253.83467 257.46769 261.31068 266.83366 274.5617 280.7041 286.6365 292.9889 298.9213 305.27369 315.6161 321.5485 327.4809 332.9828 339.5452 344.63868 350.58168 356.09416 362.03715 365.67015 373.08314 379.23616 382.86915 388.81214 394.32463 404.6776 410.6206 420.9736 427.9666 433.0696 439.6426 447.0556 452.9986 458.51109 464.45408 468.92707 474.03007 481.65306 487.59605 492.06904 499.69203 504.79518 510.61207">transported from the cell. Lysosomes are single membrane structures</tspan><tspan y="-270.23463" x="113.04019 118.71019 124.800189 131.94019 136.14019 142.44019 145.80019 152.94019 156.30019 163.44019 169.32019 172.8797 178.5497 185.6897 190.9397 196.8197 206.8997 212.5697 218.2397 221.79921 225.36922 231.45922 236.28922 239.84873 246.56873 249.92873 255.80873 261.47874 267.14875 271.34877 274.70875 280.79875 287.93876 291.49827 297.58827 301.15827 304.71778 311.01777 314.37776 317.73774 321.29725 325.49726 331.37727 338.09727 343.76728 349.4373 352.9968 359.0868 362.6568 366.2163 376.2963 382.59629 388.2663 393.09629 399.18629 409.26628 415.35627 418.71626 424.38627 430.05628 437.40629 440.76628 446.43629 452.1063 455.6763 459.2358 467.0058 470.36579 477.0858 483.17579 488.8458 494.9358 505.01579 510.6858">containing enzymes for digestion of all types of macromolecules. Ribosomes</tspan><tspan y="-256.7946" x="113.04019 119.340198 124.1702 129.8402 133.3262 136.6862 143.8262 149.4962 155.5862 158.9462 164.6162 170.2862 177.0062 180.4922 183.8522 190.9922 194.47821 201.19821 206.02822 212.11821 216.3182 221.9882 225.3482 232.4882 235.97422 241.64421 247.52422 254.66422 258.86424 266.00425 271.67427 277.34428 280.70426 286.37428 289.94429 293.43028 300.15028 307.29029 312.9603 318.6303 324.30033 327.78633 333.8763 339.54634 345.21635 352.56636 357.39634 360.88233 364.45234 369.28233 374.95234 380.62236 383.98234 389.86235 393.34834 396.7083 403.84834 407.33433 411.53434 418.67436 424.34437 427.83036 433.50038 439.38038 443.58039 449.67039 456.39039 459.75038 466.05036 471.72038 481.80036 485.28636 491.37635 496.20634 499.69233 505.9923 510.8223">are involved in protein synthesis. These occur freely in the cytoplasm or are</tspan><tspan y="-243.1131" x="113.04019 119.41359 125.15698 130.90038 137.06377 142.80716 146.24056 152.61396 156.88735 162.63074 169.42414 174.73703 183.21042 186.64382 190.9172 198.1306 203.4435 211.2869 219.1303 222.7737 228.0866 238.02999 241.46338 245.73677 251.90016 257.64356 264.85697 271.02037 278.23377 285.02717 289.93055 293.36393 299.7373 305.0502 312.2636 318.00703 321.4404 328.2338 333.5467 336.98008 344.19349 349.50639 355.66978 361.83317 365.26655 372.05995 378.43333 382.70674 386.1401 391.8835 397.62693 402.93983 409.73323 416.94664 423.11003 428.85343 435.64683 442.86024 449.02363 453.927 459.8804 463.31379 469.68717 473.96058 477.39396 483.55735 490.77076 496.08366 502.45704 509.67045">associated with ER. Mitochondria help in oxidative phosphorylation and</tspan><tspan y="-229.6731" x="113.04019 118.92019 124.59019 131.7302 137.40019 142.2302 148.5302 152.7302 156.0902 162.18019 169.32019 172.3442 178.43419 182.0042 185.0282 191.3282 198.0482 203.7182 210.8582 216.9482 222.6182 225.9782 233.1182 238.7882 241.8122 246.01219 250.8422 254.2022 260.92219 268.0622 274.1522 279.8222 286.5422 293.68223 299.9822 304.18223 309.85224 313.42225 316.44627 323.16627 330.30628 335.9763 341.8563 344.8803 351.1803 356.01029 361.6803 364.7043 371.42433 377.5143 384.86433 392.00434 398.72434 401.74836 408.46836 414.34837 417.37239 424.09239 430.18238 437.53239 444.25239 447.61238 453.28239 456.3064 466.38639 472.0564 482.13639 488.85639 493.68638 499.98637 507.12638 512.7964">generation of adenosine triphosphate. They are bound by double membrane;</tspan><tspan y="-216.23313" x="113.04019 117.09309 124.08598 129.60889 132.19179 138.13469 145.33759 149.39049 154.91339 159.59629 162.17919 172.11208 177.63498 187.56787 194.14076 198.82366 204.97655 211.96944 217.49234 220.07524 223.28813 228.81104 231.39394 236.91684 246.84973 252.79264 258.73554 262.78843 269.7813 272.3642 278.5171 285.50999 292.0829 294.66578 297.87867 304.87156 311.86445 317.38734 322.07023 324.6531 330.596 337.5889 343.1118 345.69468 349.11756 355.06047 358.27336 364.84626 370.36915 372.95204 376.16493 383.1578 387.2107 393.1536 395.73649 401.25938 406.78227 412.30516 417.82804 422.51094 428.66383 431.8767 434.4596 439.98249 444.66539 447.87828 453.40116 457.45405 463.60694 469.12983 472.5527 475.1356 481.7085 484.9214 491.07429 496.59718 500.65007 503.86296 510.43586">the outer membrane is smooth and inner one folds into several cristae. Plastids</tspan><tspan y="-202.79309" x="113.04019 119.340198 124.1702 129.8402 134.2502 140.9702 144.3302 150.2102 160.2902 165.9602 173.1002 177.3002 181.7102 187.3802 193.4702 200.6102 204.8102 211.1102 214.4702 221.6102 224.9702 232.1102 237.9902 242.4002 248.4902 253.3202 259.2002 265.50019 272.6402 278.3102 281.6702 285.03019 290.7002 296.3702 300.7802 304.35023 310.44023 317.79023 324.93025 331.65025 336.06025 339.42024 346.56025 350.97026 357.69026 361.05024 367.35023 374.49024 378.69026 383.10026 388.77027 394.44029 397.80027 401.0447 406.5677 410.9777 417.0677 424.2077 427.5677 433.4477 437.0177 441.4277 445.2077 452.34773 456.75773 463.47773 466.8377 473.1377 480.2777 484.47773 488.88774 494.55775 500.22776 503.58775 506.94773 512.61776">are pigment containing organelles found in plant cells only. In plant cells,</tspan><tspan y="-189.1116" x="113.04019 119.27719 126.98419 130.9112 137.56819 142.9652 149.6222 156.9092 160.8362 167.7032 173.9402 178.7072 184.9442 190.76119 197.62819 203.02519 209.26219 215.07918 220.47618 226.71318 232.95018 240.23719 246.89418 254.60118 260.8382 264.7652 272.0522 275.9792 282.2162 288.03318 292.17018 298.82719 304.22419 310.04118 314.80818 320.20518 327.07218 334.35917 341.64616 345.57316 353.28016 359.72715 365.54414 369.47114 373.39814 379.84513 387.55213 392.31913 398.1361 404.3731 412.0801 418.3171 423.7141 430.1611 436.6081 442.42509 448.66209 454.89909 461.13609 467.37309 475.08009 479.84709 483.77409 490.64109 494.56809 500.38508 504.52207 511.17909">chloroplasts are responsible for trapping light energy essential for</tspan><tspan y="-175.6716" x="113.04019 119.728588 126.83698 132.89537 137.06377 143.12216 148.76056 154.60895 161.71735 165.88574 172.99414 178.63254 184.27094 187.59934 193.23773 196.77613 199.48502 206.17342 213.28182 218.92021 221.6291 227.4775 232.2759 238.5443 245.6527 251.9211 255.45949 258.1684 261.4968 268.6052 271.3141 275.48249 282.59089 288.22929 290.93818 297.62657 300.95497 307.22337 312.86177 317.03016 320.35856 327.04695 330.58534 333.29423 336.62263 342.26103 344.9699 349.1383 356.2467 361.8851 364.594 370.2324 373.5608 377.7292 383.36759 386.06599 392.12437 395.66276 398.37165 401.70005 405.02845 410.87684 417.98524 422.15364 424.86253 429.66093 435.29933 441.56773 447.20613 451.3745 454.7029 460.7613 467.8697 473.5081 476.21699 482.48539 489.59379 496.28218 498.99107 503.15946 510.26786">photosynthesis. The grana, in the plastid, is the site of light reactions and the</tspan><tspan y="-162.23163" x="113.04019 118.68919 122.868198 127.67719 133.74619 143.80519 150.0842 152.7932 158.8622 162.4112 165.1202 171.8192 178.0982 182.90721 189.60622 192.31522 197.12422 202.77323 209.05223 214.70124 218.88024 222.21924 228.28824 235.40724 241.05625 244.60524 247.31424 254.01325 261.13224 266.78123 269.49024 275.34925 280.15824 285.80723 291.4562 298.5752 301.2842 306.9332 313.0022 316.3412 322.4102 329.7392 334.5482 340.19718 346.89619 349.6052 356.3042 359.6432 365.92219 371.57118 375.75016 379.08915 385.78816 391.43714 394.14616 400.42515 405.23414 410.88313 413.59214 419.24113 426.3601 429.6991 435.7681 440.5771 446.6461 453.3451 456.68409 462.96308 468.61207 472.79106 478.44004 481.98905 484.69807 493.07707 500.19606 503.53504 509.18403">stroma of dark reactions. The green coloured plastids are chloroplasts, which</tspan><tspan y="-148.7916" x="113.04019 118.71019 124.800189 131.94019 136.14019 142.44019 145.80019 152.94019 156.87769 162.54769 169.68769 173.04769 179.13768 183.96768 190.05768 196.77768 203.91768 209.79769 213.15769 216.51769 220.08769 224.02519 232.42519 239.56519 245.23519 250.06519 255.73519 262.0352 267.7052 271.6427 275.8427 282.98274 288.65275 292.59025 298.68025 302.88026 310.02027 315.69029 320.52027 324.45777 330.12779 336.21778 339.57777 345.66777 353.01777 357.84776 363.51777 370.23777 374.17527 380.89527 384.25526 390.55525 396.22526 400.42527 403.78526 410.50526 416.17527 420.11277 426.41276 431.24275 436.91276 440.85026 446.52027 453.66029 458.49028 464.58027 474.66026 480.75025 487.47026 490.83024 497.13023 502.80024 507.00025 512.6702">contain chlorophyll, whereas the other coloured plastids are chromoplasts,</tspan><tspan y="-135.1206" x="113.04019 121.44019 128.5802 131.9402 137.6102 144.7502 148.55121 158.63121 164.93122 170.81122 174.61223 180.28223 186.37223 193.51222 197.71222 204.01222 207.37223 214.51222 218.31324 225.03324 228.39324 234.27324 244.35324 250.02324 257.16325 261.36326 267.03327 270.83427 274.19425 277.55424 284.27424 289.94425 293.74525 299.41526 305.71525 310.54524 316.63523 320.83525 326.50526 333.64527 339.31529 343.11628 349.41627 356.55628 363.27629 367.07728 373.16728 379.46726 386.60728 390.80729 397.9473 404.0373 410.7573 417.8973 423.7773 427.1373 430.49729 434.0673 437.8683 444.5883 451.7283 457.39833 461.1993 468.33934 475.68934 481.35935 484.71934 490.38935 497.73936 503.40937 507.21037 510.57035">which may contain pigments like carotene and xanthophyll. The nucleus is</tspan><tspan y="-121.670139" x="113.04019 118.48969 125.409198 130.85869 133.99819 139.86769 145.31719 150.76668 157.26618 159.78618 166.28568 171.94518 174.46518 181.38468 188.51418 193.96367 197.10317 202.55266 208.63216 213.24166 215.76166 221.21115 228.13065 233.58014 239.02964 242.16913 248.03864 254.41219 259.6937 263.04319 265.55268 271.63218 274.14167 280.64118 286.51069 293.64018 300.13969 303.27919 308.72868 311.23817 321.09767 326.54716 336.40666 342.90617 347.51567 353.59516 360.51466 365.96415 368.47364 373.92314 377.90263 382.51213 389.6416 395.0911 399.0706 406.20008 410.80958 416.25907 418.76856 426.94807 430.08757 434.06706 440.98655 443.49604 450.41554 457.545 462.9945 466.134 471.5835 477.663 482.2725 484.78199 491.2815 497.151 501.7605 507.21 512.6595">enclosed by nuclear envelope, a double membrane structure with nuclear pores.</tspan><tspan y="-108.2301" x="113.04019 119.76019 126.90019 132.57019 135.9197 139.2797 146.4197 153.5597 159.22969 164.0597 167.4092 177.4892 183.1592 193.2392 199.9592 204.7892 211.0892 218.2292 223.8992 227.2487 232.9187 240.0587 245.7287 249.0887 255.1787 260.8487 266.5187 272.18873 275.53825 279.73826 286.87828 292.54829 295.8978 303.0378 310.38783 316.05784 319.41783 325.08784 331.17784 337.89784 341.2578 347.5578 353.2278 363.3078 366.65733 372.9573 380.09733 386.81733 390.16685 394.36686 401.50688 407.17689 410.5264 416.1964 423.33644 428.1664 434.2564 444.3364 450.63639 454.8364 458.19639 465.3364 468.6859 478.7659 485.0659 489.2659 494.9359 499.7659 503.1259 509.42588 512.7859">The inner membrane encloses the nucleoplasm and the chromatin material.</tspan><tspan y="-94.7901" x="113.04019 119.74959 126.87898 134.21839 139.87778 143.43718 146.15659 151.81598 157.47537 160.82477 164.17417 166.89357 170.24297 175.90236 178.62177 182.81116 189.94055 195.59995 198.31935 203.97875 208.16814 212.98754 220.32694 225.98633 230.17572 237.51512 242.33452 248.62392 251.97332 254.69272 260.98213 268.1115 274.8209 277.54029 281.09968 288.43907 295.56846 301.22785 305.41725 308.76664 314.84605 321.97544 328.26484 331.61424 334.33363 341.673 348.8024 352.1518 356.3412 359.06059 365.13999 368.69938 371.41877 374.76817 378.11756 381.67695 387.33634">Thus, cell is the structural and functional unit of life.</tspan></text>
<g clip-path="url(#clip_8170)">
<text xml:space="preserve" transform="matrix(1 0 -0 1 0 801.711)" font-size="8" font-family="Arial"><tspan y="-46.59019" x="291.32 295.768 300.216 304.664 309.112 311.776 316.224">2024-25</tspan></text>
</g>
</g>
<g clip-path="url(#clip_8171)">
<path transform="matrix(1,0,0,-1,0,801.711)" stroke-width="2" stroke-linecap="butt" stroke-miterlimit="10" stroke-linejoin="miter" fill="none" stroke="#ff0000" d="M280.4 610.91 311.2 611.71"/>
</g>
<g clip-path="url(#clip_8172)">
<path transform="matrix(1,0,0,-1,0,801.711)" stroke-width="1" stroke-linecap="butt" stroke-miterlimit="10" stroke-linejoin="miter" fill="none" stroke="#ff0000" d="M426.4 610.51H487.6"/>
</g>
<g clip-path="url(#clip_8173)">
<path transform="matrix(1,0,0,-1,0,801.711)" stroke-width="1" stroke-linecap="butt" stroke-miterlimit="10" stroke-linejoin="miter" fill="none" stroke="#ff0000" d="M351.2 598.51 483.2 598.11"/>
</g>
<g clip-path="url(#clip_8174)">
<path transform="matrix(1,0,0,-1,0,801.711)" stroke-width="1" stroke-linecap="butt" stroke-miterlimit="10" stroke-linejoin="miter" fill="none" stroke="#ff0000" d="M241.6 598.11 262.4 598.91"/>
</g>
<g clip-path="url(#clip_8175)">
<path transform="matrix(1,0,0,-1,0,801.711)" stroke-width="1" stroke-linecap="butt" stroke-miterlimit="10" stroke-linejoin="miter" fill="none" stroke="#ff0000" d="M180.868 642.533 183.2 638.11 178.571 639.999"/>
<path transform="matrix(1,0,0,-1,0,801.711)" stroke-width="1" stroke-linecap="butt" stroke-miterlimit="10" stroke-linejoin="miter" fill="none" stroke="#ff0000" d="M183.2 638.11 174.8 645.726H164.8"/>
<path transform="matrix(1,0,0,-1,0,801.711)" d="M76.3 618.442H164.3V673.01H76.3Z" fill="#ffffff"/>
<path transform="matrix(1,0,0,-1,0,801.711)" stroke-width="1" stroke-linecap="butt" stroke-miterlimit="10" stroke-linejoin="miter" fill="none" stroke="#ff0000" d="M76.3 618.442H164.3V673.01H76.3Z"/>
<text xml:space="preserve" transform="matrix(1 0 -0 1 0 801.711)" font-size="8" font-family="ArialMT"><tspan y="-665.27" x="76.8 80.8 85.248 89.69601 91.912 96.36 98.576007 103.024 107.472 111.920009">chota body</tspan></text>
<text xml:space="preserve" transform="matrix(1 0 -0 1 0 801.711)" font-size="8" font-family="ArialMT"><tspan y="-656.342" x="76.8 80.8 85.248 89.69601 93.69601 98.14401 100.36001 104.808017 109.25602 113.25602 117.25602 119.472019 123.92002 125.69602 127.91202 132.36003 136.80803 139.02404 143.47203 145.68804 150.13603 154.58403 156.36003">sabke pass hi hote hein</tspan></text>
<text xml:space="preserve" transform="matrix(1 0 -0 1 0 801.711)" font-size="8" font-family="ArialMT"><tspan y="-647.41409" x="76.8 81.248 85.69601 90.14401 94.59201 99.04001 103.488018 107.93602 110.152019 114.60002 119.04802 121.264019 125.71202 127.92802 132.376 136.824 138.6">bounded hote hein</tspan></text>
<text xml:space="preserve" transform="matrix(1 0 -0 1 0 801.711)" font-size="8" font-family="ArialMT"><tspan y="-638.486" x="76.8 81.248 85.69601 88.36 92.36 96.36 103.024 105.24 109.24 113.688">en-zym kar</tspan></text>
<text xml:space="preserve" transform="matrix(1 0 -0 1 0 801.711)" font-size="8" font-family="ArialMT"><tspan y="-638.486" x="116.352008"> </tspan></text>
<text xml:space="preserve" transform="matrix(1 0 -0 1 0 801.711)" font-size="8" font-family="ArialMT"><tspan y="-638.486" x="118.56801 123.01601 127.464008 129.68 134.12802 138.57602 143.02402">na hoga</tspan></text>
<text xml:space="preserve" transform="matrix(1 0 -0 1 0 801.711)" font-size="8" font-family="ArialMT"><tspan y="-629.558" x="76.8 79.464008 83.464008 87.464008 94.128 96.343997 98.119998 102.56799 106.56799 108.343997 112.79199 117.23999 121.68799 123.903987 127.903987 132.352 135.016 139.464 143.912">(zym include karna </tspan></text>
<text xml:space="preserve" transform="matrix(1 0 -0 1 0 801.711)" font-size="8" font-family="ArialMT"><tspan y="-620.63" x="76.8 81.248 85.69601 90.14401 94.59201">hoga)</tspan></text>
</g>
</svg>
