<svg xmlns="http://www.w3.org/2000/svg" xmlns:xlink="http://www.w3.org/1999/xlink" xmlns:inkscape="http://www.inkscape.org/namespaces/inkscape" version="1.1" width="612" height="784.0048" viewBox="0 0 612 784.0048">
<defs>
<clipPath id="clip_16">
<path transform="matrix(1,0,0,-1,0,801.711)" d="M0 17.7062H612V801.711H0Z" clip-rule="evenodd"/>
</clipPath>
<clipPath id="clip_17">
<path transform="matrix(1,0,0,-1,0,801.711)" d="M291.32 43.99H320.67V54.64H291.32Z"/>
</clipPath>
<clipPath id="clip_18">
<path transform="matrix(1,0,0,-1,0,801.711)" d="M192.629 616.079H552.285V642.886H192.629Z"/>
</clipPath>
</defs>
<g>
<g clip-path="url(#clip_16)">
<path transform="matrix(1,0,0,-1,0,801.711)" d="M.48 .48H611.51998V51.52H.48Z" fill="#cbdf7f" fill-rule="evenodd"/>
<path transform="matrix(1,0,0,-1,.47999997,801.231)" stroke-width=".96" stroke-linecap="butt" stroke-miterlimit="1000" stroke-linejoin="miter" fill="none" stroke="#cbdf7f" d="M0 0H611.04V51.04H0Z"/>
<path transform="matrix(1,0,0,-1,0,801.711)" d="M0 728.6H612V809.44998H0Z" fill="#d1d3d4" fill-rule="evenodd"/>
<path transform="matrix(1,0,0,-1,0,801.711)" d="M0 738.8H612V820.8H0Z" fill="#e1ecb6" fill-rule="evenodd"/>
<path transform="matrix(1,0,0,-1,80.63619,52.546205)" d="M0 0C1.76 1.76 3.88 2.63 6.36 2.63H23.36C25.85 2.63 27.97 1.76 29.73 0 31.49-1.76 32.36-3.88 32.36-6.36V-24.36C32.36-26.85 31.49-28.97 29.73-30.73 27.97-32.49 25.85-33.36 23.36-33.36H6.36C3.88-33.36 1.76-32.49 0-30.73-1.76-28.97-2.64-26.85-2.64-24.36V-6.36C-2.64-3.88-1.76-1.76 0 0" fill="#ffffff" fill-rule="evenodd"/>
<text fill="#231f20" xml:space="preserve" transform="matrix(1 0 -0 1 0 801.711)" font-size="11" font-family="Bookman"><tspan y="-729.361" x="87.12 94.259">88</tspan></text>
<text fill="#231f20" xml:space="preserve" transform="matrix(1 0 -0 1 0 801.711)" font-size="11" font-family="Bookman"><tspan y="-729.361" x="513.117">B</tspan></text>
<text fill="#231f20" xml:space="preserve" transform="matrix(1 0 -0 1 0 801.711)" font-size="7.69999" font-family="Bookman"><tspan y="-729.361" x="521.04 523.4347 529.3714 533.76809 539.7048 545.6415">IOLOGY</tspan></text>
<path transform="matrix(1,0,0,-1,0,-.7290039)" stroke-width=".24" stroke-linecap="butt" stroke-miterlimit="10" stroke-linejoin="miter" fill="none" stroke="#000000" d="M0 0H14.4"/>
<path transform="matrix(1,0,0,-1,18.12,-19.08899)" stroke-width=".24" stroke-linecap="butt" stroke-miterlimit="10" stroke-linejoin="miter" fill="none" stroke="#000000" d="M0 0V-14.4"/>
<path transform="matrix(1,0,0,-1,0,783.591)" stroke-width=".24" stroke-linecap="butt" stroke-miterlimit="10" stroke-linejoin="miter" fill="none" stroke="#000000" d="M0 0H14.4"/>
<path transform="matrix(1,0,0,-1,18.12,787.071)" stroke-width=".24" stroke-linecap="butt" stroke-miterlimit="10" stroke-linejoin="miter" fill="none" stroke="#000000" d="M0 0V-14.4"/>
<path transform="matrix(1,0,0,-1,611.64,783.471)" stroke-width=".24" stroke-linecap="butt" stroke-miterlimit="10" stroke-linejoin="miter" fill="none" stroke="#000000" d="M0 0V-18"/>
<text fill="#231f20" xml:space="preserve" transform="matrix(1 0 -0 1 0 801.711)" font-size="10.5" font-family="Bookman"><tspan y="-688.561" x="192.24 198.981 204.252 210.993 218.994 224.895 231.636 238.377 240.70801 243.669 249.99 256.311 262.63203 268.95304 271.91404 275.08503 277.41603 283.31703 285.648 293.229 297.66 300.621 304.422 307.383 312.654 319.395 321.72599 328.257 333.948 339.639 342.6 348.29103 353.772 356.733 362.004 365.805 368.97599 371.30699 376.57798 380.37898 387.32997 393.65098 396.61198 401.88298 408.20399 410.53498 416.856 419.817 422.98799 426.15898 431.42997 435.86097 441.13197 447.87297 451.67396 454.00495 457.80595 463.28694 469.60795 474.87895 480.14994 482.48094 488.17195 491.34294 493.67393 499.57493 506.31593 509.27693 518.95797 524.85897 527.81997 530.15097 535.42196 540.69296 543.65396 546.6149">Schwann (1839), a British Zoologist, studied different types of animal cells</tspan><tspan y="-674.3965" x="192.24 198.18302 204.97652 211.33953 213.72303 218.19603 223.50904 229.88254 235.61554 240.08855 243.94205 249.25505 255.61806 258.00157 261.84455 268.63804 274.58103 278.424 280.80754 286.1205 291.444 294.447 297.44999 302.77348 305.15699 311.95048 317.89347 324.25648 326.63999 332.58299 334.9665 338.80949 345.59248 348.60597 355.38896 357.77247 363.50547 370.49848 374.35197 379.66496 384.13795 386.52146 389.52445 395.47795 401.00096 406.31394 410.79743 413.18095 421.22395 428.01744 431.02043 436.3439 443.1269 445.5104 448.5134 453.8264 456.2099 460.0529 465.7859 472.1594 478.1024 483.6254 486.0089 492.37193 499.1654 504.8984 512.9414 519.7349 522.1184 528.0614 533.3849 535.7684 539.6219 546.4049">and reported that cells had a thin outer layer which is today known as the</tspan><tspan y="-660.47348" x="192.24 194.44512 200.85022 203.89533 209.88043 215.23554 225.00064 230.98575 235.03887 244.80397 250.15908 259.9242 266.32929 270.8444 276.8295 283.6546 289.0097 291.2148 294.4699 298.523 306.8181 312.17323 316.22633 322.21144 325.25654 330.61164 336.38676 340.43986 345.79496 351.57008 358.39518 363.75028 366.79539 373.83049 380.23558 385.59068 391.99577 395.25086 399.30397 405.70906 411.69416 417.04927 422.40437 428.80946 432.86256 438.63768 445.46278 449.51588 456.34098 459.38609 464.74119 468.79429 474.14939 478.0345 485.06959 491.47468 494.51979 499.87489 505.22999 509.28309 515.05819 521.8833 525.9364 532.3415 535.3866 541.3717 548.19686">&#x2018;plasma membrane&#x2019;. He also concluded, based on his studies on plant</tspan><tspan y="-646.561" x="192.24 196.1251 199.17021 204.52532 209.88042 216.91553 222.27063 227.62574 230.88085 234.35646 238.24156 245.06667 251.05178 254.93688 258.41249 262.29759 269.12269 274.47779 277.95338 284.35847 288.87358 294.22868 299.58378 304.93888 311.76399 317.11909 322.47419 325.94978 331.72489 334.97999 338.45558 343.81068 349.16578 352.21089 355.25599 358.73158 366.81669 372.8018 375.8469 378.892 382.36759 385.4127 390.7678 394.24339 400.2285 403.70408 410.73918 417.56428 420.60939 426.59449 433.62959 438.98469 442.46028 447.81538 454.64048 460.62559 465.1407 471.1258 476.4809 480.366 485.7211 490.2362 493.7118 499.4869 502.742 506.2281 510.1132 516.9383 522.2934 525.76907 532.17416 535.21926 541.20437 548.0295">tissues, that the presence of cell wall is a unique character of the plant</tspan><tspan y="-632.386" x="192.24 197.38512 202.53023 205.36533 208.20043 213.34554 216.39064 218.59575 226.68085 233.29596 235.50107 239.17618 245.79129 250.9364 253.14151 259.3366 265.11174 270.25685 273.09196 278.23707 280.44218 286.00727 289.05238 291.25749 294.9326 301.5477 304.3828 309.52793 312.57304 314.77815 321.39326 326.53837 333.15348 341.02857 346.80369 353.4188 360.0339 362.239 368.4341 372.73924 378.30433 384.49943 390.0645 395.20964 400.35475 406.54985 408.75495 412.43006 419.04518 424.19029 426.3954 433.0105 438.3656 444.5607 450.1258 453.8009 460.41603 465.56114 470.70625 473.54136 478.68647 480.89158 484.56669 491.1818 496.9569 500.63203 502.83714 506.51225 513.1273 518.2724 520.4775 526.6726 532.23776 538.43289 541.26797 546.413">cells. On the basis of this, Schwann proposed the hypothesis that the bodies</tspan><tspan y="-618.46298" x="192.24 198.0151 201.27022 203.73783 209.72293 216.54804 219.59314 229.35825 235.34336 238.38846 243.74356 246.21117 252.19628 259.0214 265.42649 267.89408 274.29917 277.34428 283.32939 290.15449 294.03959 299.39469 301.86228 307.84739 312.3625 317.7176 320.18519 325.54029 331.3154 341.0805 347.4856 353.2607 358.6158 363.97093 370.376 372.8436 378.6187 381.8738 384.3414 389.6965 395.0516 398.0967 401.1418 406.49693 408.9645 414.94963 421.77473 428.1798 430.6474 437.0525 441.5676 447.3427 453.7478 460.7829 466.138 470.0231 475.3782 477.8458 483.6209 486.876 489.3436 494.6987 500.0538 503.0989 506.144 511.4991">of animals and plants are composed of cells and products of cells.</tspan><tspan y="-604.561" x="210.237 216.87311 222.03922 228.67533 231.53144 236.69754 239.55365 245.76976 250.93587 257.57197 259.79808 265.59419 272.2303 278.44639 280.6725 287.3086 292.4747 299.1108 307.00694 312.80305 319.43916 326.07527 328.30137 331.99748 337.58357 342.95967 348.12577 351.82188 358.45799 363.62409 367.9502 370.1763 373.2424 378.8285 383.1546 392.7307 399.5768 402.43293 408.22904 411.92515 417.09126 423.30735 425.53346 429.22956 435.86567 441.03178 443.25788 448.42399 453.5901 456.4462 459.3023 461.5284 465.22453 471.86064 477.02674 482.61286 486.93898 492.31507 495.38117 497.60728 503.82337 510.45948 513.31558 518.4816 520.7077 524.4038 531.0399 536.206 541.7921 546.1182">Schleiden and Schwann together formulated the cell theory. This theory</tspan><tspan y="-590.3755" x="192.24 199.0545 204.8085 212.883 218.2275 223.57199 228.90599 232.80152 236.02512 238.41922 244.79283 247.80644 254.18006 256.57417 263.36778 269.1114 272.965 275.3591 280.6827 286.42634 292.79994 295.81355 301.76716 304.78077 311.57438 313.96849 319.9221 325.2457 327.6398 331.4934 337.23704 339.63114 346.42475 352.16838 360.222 362.6161 369.4097 374.7333 382.78694 385.18104 390.50465 395.82826 398.84187 401.85548 407.17909 409.57319 417.6268 422.9504 427.68153 433.01554 435.42005 438.65406 444.40806 449.0385 458.772 464.0955 470.469 473.6925 476.08653 483.51 490.51353 496.88703 502.63053 505.644 508.86753 511.2615 518.4015 521.457 525.846 531.201 538.026 543.801">however, did not explain as to how new cells were formed. Rudolf Virchow</tspan><tspan y="-576.45248" x="192.24 195.3795 201.8895 208.39949 214.89899 221.39849 224.54848 228.10797 231.46797 234.61797 239.22747 244.68747 248.66698 252.22647 257.67597 263.55598 270.05549 273.20549 279.28498 282.43498 289.35447 294.81446 301.31398 304.87345 308.85295 315.78294 321.86244 325.85243 329.4119 334.8719 340.32139 343.47138 346.62138 352.07087 355.63035 362.12986 365.26936 370.72935 373.87934 380.37886 385.83885 392.33836 395.89784 401.97734 408.90733 415.40684 418.9663 425.8963 431.3458 439.5358 443.09529 448.55528 454.00477 457.15476 460.30476 465.75425 469.31373 475.39323 480.00273 485.4627 489.0222 492.37168 498.24119 502.86119 512.7312 518.1807 524.69076 528.25027 531.6102 536.2197 542.09976">(1855) first explained that cells divided and new cells are formed from</tspan><tspan y="-562.561" x="192.24 198.6765 203.22299 208.6095 212.736 218.1225 223.929 227.00551 232.39202 236.30852 239.38503 246.24153 251.83803 254.29503 259.68153 265.06803 268.14454 271.22105 276.60755 279.06455">pre-existing cells (</tspan></text>
<text fill="#231f20" xml:space="preserve" transform="matrix(1 0 -0 1 0 801.711)" font-size="10.5" font-family="Bookman" font-style="italic"><tspan y="-562.561" x="282.246 290.36253 299.739 306.38554 309.46205 315.26853 317.73603 322.91255 328.71903 331.79554 334.87205 341.51856 344.59507 351.24159 354.73808 360.54457 363.01206 368.18858 373.99507 377.07157 380.14808 386.7946 389.8711">Omnis cellula-e cellula</tspan></text>
<text fill="#231f20" xml:space="preserve" transform="matrix(1 0 -0 1 0 801.711)" font-size="10.5" font-family="Bookman"><tspan y="-562.561" x="396.2445 399.321 402.6075 405.05403 413.38053 418.76704 421.21354 431.01005 436.81654 443.25303 446.32954 449.61604 452.69255 458.07905 464.51554 466.96205 470.87855 477.73506 483.12156 485.56806 492.42457 498.02107 504.45756 510.26405 514.18057 521.03707 526.4235 531.81 534.8865 540.27297 542.7194 548.52597">). He modified the hypothesis of</tspan><tspan y="-548.365" x="192.24 199.17002 204.63002 211.56003 214.71002 220.17003 223.32003 229.83002 235.29003 242.22003 244.91854 251.00853 257.93855 264.44856 267.14704 274.07704 279.53703 286.467 294.657 300.747 307.677 314.607 317.30549 321.29548 327.17549 329.87397 335.54399 338.69398 344.15397 349.61396 352.31245 356.30244 363.23243 368.6924 371.3909 376.8509 382.31089 385.46089 388.61088 391.30937 395.29936 402.22935 407.68934 413.56935 418.18934 423.85935 426.55784 432.64784 435.3463 438.7063 441.8563 448.7863 454.87629 458.02629 460.72477 466.18476 473.11476 479.20475 485.71476 491.17475 494.53474 497.23323 505.0032 510.4632 513.6132 516.76327 519.46176 523.4517 530.3817 535.84176 541.72177 546.34176">Schleiden and Schwann to give the cell theory a final shape. Cell theory</tspan><tspan y="-534.44198" x="192.24 198.33 203.79001 206.6145 213.7545 220.68451 227.1945 232.65451 237.2745 242.73451 246.72452 252.60453 258.48454 264.99455 267.81904 271.80903 277.68904 284.19905 290.28904 295.95906 298.78355 301.93354 307.39353">as understood today is:</tspan><tspan y="-514.52346" x="192.24 195.10662 197.97322 210.237 216.327 219.47699 222.62699 225.18898 228.33898 231.48897 236.94898 240.09897 247.02896 252.69896 255.26096 261.14097 265.76097 271.43098 277.52098 284.45097 287.60096 293.06095 302.93095 308.39094 310.9529 317.0429 321.6629 327.1229 329.68489 335.14488 341.02488 350.89488 357.40489 363.28489 368.74488 374.20487 380.71488 383.27687 389.15687 392.51686 395.07884 400.53883 405.9988 409.1488 412.2988 417.7588 420.32078 426.41078 433.34077 439.85078 442.41276 448.92277 453.54277 459.42277 465.93278 473.07279 478.53279 482.52278 487.98277 490.54475 496.42475 499.78474 502.3467 507.8067 513.2667 516.41677 519.5668 525.0268">(i)all living organisms are composed of cells and products of cells.</tspan><tspan y="-494.36347" x="192.24 195.19062 198.14122 201.09183 210.237 216.2745 219.37201 222.46952 224.93701 230.34452 235.75202 238.84952 241.94702 247.35453 249.82202 255.85953 260.42704 263.52455 268.93205 274.33955 276.80705 280.11454 284.68205 290.50956 300.32707 302.79457 309.25205 313.81956 319.22706 323.37455 328.78205 334.60957 337.70707 343.11457 347.05207 350.14958 357.02708 362.64457 365.11207 370.51957 375.92707 379.02458 382.12208 387.52958">(ii)all cells arise from pre-existing cells.</tspan></text>
<text fill="#00aeef" xml:space="preserve" transform="matrix(1 0 -0 1 0 801.711)" font-size="13" font-family="Bookman"><tspan y="-461.2812" x="192.24 200.46913 204.53827 228.237">8.3A</tspan></text>
<text fill="#00aeef" xml:space="preserve" transform="matrix(1 0 -0 1 0 801.711)" font-size="9.1" font-family="Bookman"><tspan y="-461.2806" x="237.6002">N</tspan></text>
<text fill="#00aeef" xml:space="preserve" transform="matrix(1 0 -0 1 0 801.711)" font-size="13" font-family="Bookman"><tspan y="-461.2806" x="244.5602 248.7982"> O</tspan></text>
<text fill="#00aeef" xml:space="preserve" transform="matrix(1 0 -0 1 0 801.711)" font-size="9.1" font-family="Bookman"><tspan y="-461.2806" x="259.2002 265.97059 272.74098 280.05738 286.82777 290.68617 297.45655">VERVIEW</tspan></text>
<text fill="#00aeef" xml:space="preserve" transform="matrix(1 0 -0 1 0 801.711)" font-size="13" font-family="Bookman"><tspan y="-461.2806" x="306.0002"> </tspan></text>
<text fill="#00aeef" xml:space="preserve" transform="matrix(1 0 -0 1 0 801.711)" font-size="9.1" font-family="Bookman"><tspan y="-461.2806" x="309.6002 317.3352">OF</tspan></text>
<text fill="#00aeef" xml:space="preserve" transform="matrix(1 0 -0 1 0 801.711)" font-size="13" font-family="Bookman"><tspan y="-461.2806" x="323.5202 327.57633"> C</tspan></text>
<text fill="#00aeef" xml:space="preserve" transform="matrix(1 0 -0 1 0 801.711)" font-size="9.1" font-family="Bookman"><tspan y="-461.2806" x="337.2002 343.8887 349.8492">ELL</tspan></text>
<text fill="#231f20" xml:space="preserve" transform="matrix(1 0 -0 1 0 801.711)" font-size="10.5" font-family="Bookman"><tspan y="-434.8806" x="192.2402 198.2357 204.1157 211.2557 214.9517 221.88172 227.97171 233.43172 238.89173 242.58773 248.04773 254.13773 258.75773 261.9077 265.0577 270.5177 275.1377 278.83369 284.71369 291.2237 296.6837 302.14369 306.76368 312.22367 317.68367 324.19367 327.88966 333.34965 338.80964 341.95964 345.10963 350.5696 354.2656 357.4156 364.34559 368.04158 374.13157 381.06156 384.75755 390.63755 397.56755 400.71754 406.59754 413.52754 417.2235 423.73353 429.1935 434.6535 437.8035 441.49949 447.58949 454.51948 461.02949 467.32948 473.20948 477.82948 481.52546 488.45545 495.59547 505.46546 511.55546 518.4855 522.18148 527.6415 534.5715 540.0315 545.4915">You have earlier observed cells in an onion peel and/or human cheek</tspan><tspan y="-420.9576" x="192.2402 197.5637 202.8872 205.90071 208.91422 214.23772 216.62122 223.62471 230.41822 236.79172 242.11522 246.59873 248.98223 252.83573 259.6292 264.9527 267.3467 277.0802 280.0937 285.41719 289.90068 295.64418 300.96766 306.29115 312.03465 318.40815 323.73164 326.95515 329.33866 335.50218 340.82566 344.67915 347.07316 354.07667 359.40016 361.79417 366.27766 371.60115 376.92463 382.66813 385.6816 388.6951 394.0186 399.34208 403.19557 405.57908 409.43257 416.22605 421.54954 424.56303 429.0465 431.43003 436.7535 440.607 445.09049 452.094 457.41749 461.27098 468.27449 472.75798 478.08146 481.30497 483.68849 490.06199 496.85548 502.17897 504.56248 510.30598 517.0995 520.113 525.85647 532.64999 535.03347 540.35696 545.6804 548.6939">cells under the microscope. Let us recollect their structure. The onion cell</tspan><tspan y="-406.79313" x="192.2402 200.3777 207.2552 210.3527 215.76021 222.63771 225.1157 228.21321 233.62071 236.09871 242.13622 244.61421 248.55171 254.16922 260.6267 263.7242 269.1317 275.16923 278.26673 280.74473 287.2022 290.2997 296.33723 303.21473 307.15223 309.63023 315.03773 320.44523 323.54273 326.64024 329.94773 332.42573 339.30323 345.34074 350.74824 353.22624 359.26374 361.74174 368.19923 371.29673 376.70423 380.64173 383.73924 390.61674 396.02424 399.96174 402.43974 407.84724 413.25474 416.35224 419.44975 421.92774 430.06526 436.10276 439.20027 442.29777 444.77577 450.81327 456.22077 458.69877 461.79627 465.73377 471.14128 473.61927 479.44679 486.53428 490.47178 495.87928 500.44679 502.92478 509.38227 515.2098 522.2973 529.1748 535.6323 541.6698 546.2373">which is a typical plant cell, has a distinct cell wall as its outer boundary</tspan><tspan y="-392.8806" x="192.2402 198.3302 205.2602 211.77019 215.36119 218.51119 225.65119 231.11119 235.1012 238.6922 246.8822 250.0322 254.0222 260.9522 264.1022 271.0322 274.63368 277.78367 281.77366 285.36463 288.51463 293.9746 297.56559 301.55558 308.48558 313.94557 317.53654 322.99653 328.4565 331.6065 334.7565 338.34748 348.21748 353.67747 363.54747 370.05747 374.67747 380.76747 387.69746 393.15745 396.51744 400.1189 406.6289 413.5589 419.0189 422.62037 428.08036 433.54035 436.69035 439.84034 445.30033 448.8913 454.7713 458.1313 461.73277 465.72276 472.65275 478.11274 481.7142 488.6442 495.7842 505.6542 511.7442 518.6742 522.2652 527.7252 534.6552 540.11526 545.57528">and just within it is the cell membrane. The cells of the human cheek</tspan><tspan y="-378.9471" x="192.2402 199.1702 205.2602 210.7202 216.1802 219.5402 225.6302 232.56021 235.92021 241.80022 248.94022 252.93022 258.39024 263.01023 266.3702 276.2402 281.7002 291.5702 298.0802 302.7002 308.7902 315.72019 321.18019 324.54017 330.63017 336.09016 339.45014 343.44013 350.37013 355.8301 359.1901 365.7001 371.1601 374.3101 377.46009 387.33009 390.48008 394.47007 397.62007 404.55006 410.22007 413.58006 419.04005 423.03004 427.65003 434.79005 440.25004 444.24003 451.38005 456.00004 461.46003 464.82 470.7 474.06 477.41999 481.40998 488.33998 493.79997 497.15995 502.61994 508.07994 511.22993 514.37997 517.7399 521.0999 524.6699 531.5999 537.05996 540.20999 546.72">have an outer membrane as the delimiting structure of the cell. Inside</tspan><tspan y="-364.78263" x="192.2402 197.70021 203.7902 209.25022 216.1802 220.4432 225.90322 231.36322 234.51322 237.66321 241.92621 245.0762 250.53621 254.79921 260.88923 265.15223 271.66224 277.12223 284.05223 289.5122 294.9722 299.2352 309.1052 314.5652 324.43519 330.9452 335.5652 341.65519 348.58518 354.04518 358.30818 364.81819 370.69819 377.8382 384.7682 391.2782 395.5412 401.0012 404.99119 409.61119 416.7512 422.21119 426.20118 433.3412 437.96119 443.42118 447.68418 453.14418 459.23417 462.38417 465.53416 470.99415 477.50416 481.76716 488.69715 495.83717 501.29716 504.44715 509.90715 517.0471 522.50717 525.8671 530.1301 536.64016 543.5701 546.72018">each cell is a dense membrane bound structure called nucleus. This</tspan><tspan y="-350.8806" x="192.2402 199.1702 206.3102 211.7702 214.9202 220.3802 227.5202 232.98021 236.7077 242.16771 248.04772 254.97772 258.9677 265.0577 268.2077 275.1377 280.5977 284.32518 288.31517 295.24516 300.70515 304.43263 309.8926 316.8226 321.4426 327.3226 337.1926 343.0726 348.5326 354.4126 364.2826 369.74259 375.20259 378.93006 387.12007 394.05006 397.20005 402.66004 409.59004 413.3175 416.4675 423.3975 427.12498 431.11497 438.25498 442.87498 449.80497 453.53245 458.99244 464.87245 471.80244 475.79243 481.88243 485.0324 491.9624 495.68989 499.67988 506.60987 512.0699 515.79739 521.46737 526.92739 533.85739 539.3174 543.3074 546.4574">nucleus contains the chromosomes which in turn contain the genetic</tspan><tspan y="-336.9366" x="192.2402 202.22571 208.43122 212.53672 218.11222 222.84772 226.11322 232.31873 235.58423 239.05973 244.20471 252.72022 260.6057 267.8612 271.3367 276.4817 284.3672 289.9427 293.2082 296.4737 302.0492 307.19419 311.29969 318.34519 324.5507 328.6562 333.80119 340.84669 347.0522 352.6277 358.2032 363.34819 373.33369 378.90919 388.89469 395.52018 400.25569 406.46119 413.50669 419.08219 424.22718 430.85267 436.84819 444.10368 451.14918 457.77467 462.91966 469.96516 477.22065 482.79615 486.06166 491.63716 494.90266 500.04765 506.25315 510.98866 516.56417 521.71969 527.29519 533.5007 536.7662 540.0317 545.6072">material, DNA. Cells that have membrane bound nuclei are called</tspan><tspan y="-322.77214" x="192.2402 197.7421 204.924 211.47589 217.60779 222.26969 227.98159 233.90348 237.93537 241.12726 246.62915 251.71105 259.94294 266.91484 272.41673 277.0786 282.5805 288.7124 294.2143 299.29618 304.79808 310.29997 313.49186 316.68376 322.18565 327.26753 331.2994 338.2713 344.4032 348.4351 353.51698 356.70887 362.84077 368.34266 374.89454 379.9764 386.1083 391.1902 401.10209 406.60398 416.51588 423.06776 427.72966 433.86155 440.83345 446.33534 451.4172 457.96913 463.89103 471.0729 478.0448 484.59669 489.67857 496.65046 503.83235 509.33424 512.5261 518.028 525.2099 530.7118 535.7937 541.9256 546.58749">eukaryotic whereas cells that lack a membrane bound nucleus are</tspan><tspan y="-308.8806" x="192.2402 198.64531 203.16042 208.93552 215.34062 221.32573 225.84084 231.40595 237.18105 241.06615 244.11125 249.46636 252.72147 255.13658 258.60169 265.4268 267.8419 274.24699 280.0221 283.9072 290.7323 293.1474 299.5525 304.0676 309.8427 316.2478 322.2329 326.74803 332.3131 338.08824 341.97334 345.01844 350.37355 352.78865 358.77375 365.59886 372.00395 374.41905 379.77415 386.80924 393.21434 399.19944 403.71455 409.27964 415.05476 418.93986 421.98497 427.34007 429.75517 435.11027 440.46537 443.51048 446.55558 451.91069 455.16578 457.58088 463.56599 465.98109 471.33619 476.69129 486.4564 489.5015 493.5966 496.85169 499.8968 506.9319 509.977 516.3821 518.7972 528.56228 534.54739 538.4325 542.9476 545.9927">prokaryotic. In both prokaryotic and eukaryotic cells, a semi-fluid matrix</tspan><tspan y="-294.92613" x="192.2402 197.70021 203.7902 206.9402 210.0902 215.5502 222.0602 225.5147 230.9747 236.6447 240.6347 246.51471 253.0247 256.1747 262.2647 267.7247 277.5947 281.0492 286.9292 292.3892 297.84919 304.9892 311.4992 314.6492 320.1092 325.56919 329.02369 333.01368 339.94367 345.40367 348.85816 354.31816 360.19816 363.34815 370.48817 380.35816 385.81816 389.27265 395.15266 398.51264 401.96714 405.95713 412.88713 418.3471 421.8016 427.2616 432.7216 435.87159 439.02159 442.38157 445.83607 452.34608 459.27607 464.73606 468.19056 473.65055 479.32057 483.31056 489.19056 495.70057 498.85057 504.94056 510.40055 520.27059 523.72506 526.87509 532.3351 535.78958 539.77957 546.70956">called cytoplasm occupies the volume of the cell. The cytoplasm is the</tspan><tspan y="-280.7616" x="192.2402 201.9212 207.8222 210.7832 217.5242 219.8657 225.76671 230.1557 235.4163 242.14691 248.03752 250.36862 256.04924 259.20985 261.54096 266.80158 272.0622 275.0128 277.96339 284.904 287.85459 293.74519 298.16578 300.4969 306.38749 311.6481 315.43873 318.3893 323.64994 326.60054 330.39115 333.34175 338.60237 343.86299 346.1941 349.14469 355.87528 358.2064 364.517 370.1976 373.98823 380.7188 383.04994 386.84056 393.57115 398.83177 401.16288 407.47349 410.42408 416.31468 423.04527 426.83589 429.167 435.0576 441.78819 448.0988 450.4299 456.3205 463.0511 466.00169 475.67228 481.56288 484.51347 486.84458 492.1052 497.3658 500.3164 503.267 508.52763 511.68824 514.0088 520.5542 526.4658 530.9074 533.879 539.5806 546.54226">main arena of cellular activities in both the plant and animal cells. Various</tspan><tspan y="-266.8806" x="192.2402 197.6687 204.5672 209.9957 219.8342 222.9527 228.3812 234.4397 237.5582 240.0467 244.63521 250.0637 256.1222 261.5507 265.5092 268.6277 274.4762 281.3747 286.8032 289.2917 295.1402 300.5687 305.9972 313.10569 317.69419 320.18269 323.30119 330.19969 332.68818 335.80668 339.76518 342.25367 346.21217 352.06068 354.54917 361.02766 366.45616 371.88465 378.36314 380.85163 384.81013 391.70863 397.13713 399.6256 405.0541 410.4826 413.6011 416.7196 419.2081 422.3266 429.2251 431.7136 435.6721 442.5706 447.99909 450.48759 452.76609 455.88459 459.00309 464.43159 467.55009 474.44859 480.08708 482.57557 488.00407 491.96257 498.02107 501.97956 507.40806 509.68656">chemical reactions occur in it to keep the cell in the &#x2018;living state&#x2019;.</tspan><tspan y="-252.91562" x="210.2267 217.8077 223.07869 228.34969 231.31069 237.63169 242.90268 248.17368 250.50469 254.30568 261.0467 266.3177 268.64869 275.38969 282.34068 287.61167 290.57267 295.84367 302.79466 308.06565 311.23664 313.56764 317.36863 324.10963 329.3806 331.7116 336.9826 343.9336 350.2546 356.1556 360.5866 366.0676 371.7586 375.5596 378.5206 383.7916 386.1226 391.3936 396.66459 399.62559 402.58659 407.85758 410.18858 416.92958 422.83058 428.10157 433.37257 435.70356 441.39457 445.19557 451.93656 457.20756 461.63856 463.96955 473.65055 478.92155 488.60255 494.92356 499.35456 505.25556 511.99656 517.2676 519.5986 525.91958 531.61056 538.5615 545.30258">Besides the nucleus, the eukaryotic cells have other membrane bound</tspan><tspan y="-238.7511" x="192.2402 198.5822 201.5642 206.8562 210.6782 213.6602 220.4222 225.7142 229.53621 231.89871 237.19072 241.01273 245.46472 252.43672 257.72874 261.55073 268.5227 272.9747 278.2667 283.5587 285.92118 291.21318 297.13517 300.11717 303.09916 308.39115 314.73316">distinct structures called </tspan></text>
<text fill="#231f20" xml:space="preserve" transform="matrix(1 0 -0 1 0 801.711)" font-size="10.5" font-family="Bookman"><tspan y="-238.7511" x="317.0327 323.4482 328.18373 334.17924 340.17475 347.22026 353.21577 356.69126 360.16676 366.16227 371.52778">organelles </tspan></text>
<text fill="#231f20" xml:space="preserve" transform="matrix(1 0 -0 1 0 801.711)" font-size="10.5" font-family="Bookman"><tspan y="-238.7511" x="373.8902 376.8722 379.8542 386.1962 391.4882 393.84019 397.66218 404.42417 409.71617 412.06816 417.36015 424.12214 430.46415 436.17616 442.51817 445.50016 451.42216 456.71415 466.41615 469.39814 474.69013 477.0421 481.4941 486.7861 490.6081 493.5901 498.88209 505.85408 508.83607 515.80807 525.5101 527.86209 530.84408 538.2361 545.6281 548.6101">like the endoplasmic reticulum (ER),</tspan><tspan y="-224.88062" x="192.2402 196.23021 203.16022 208.62023 211.20323 216.87323 222.75324 225.90323 231.57323 234.72322 237.30623 242.76624 248.64624 258.51625 265.02626 268.17625 273.63624 279.51625 282.87623 285.4592 288.6092 294.2792 299.7392 305.6192 311.0792 316.9592 326.8292 332.28919 337.74919 341.10917 343.69215 353.56214 356.71214 360.70213 366.58213 372.0421 378.9721 384.8521 391.7821 398.2921 402.9121 406.0621 412.1521 415.5121 418.09507 427.96507 431.11506 436.57505 441.19505 447.07505 453.58506 459.46507 465.97508 469.12507 474.58506 480.04505 482.62803 488.71803 495.648 502.15803 504.741 510.201 516.291 521.75106 528.89108 534.77108 537.9211 543.3811 548.8411">the golgi complex, lysosomes, mitochondria, microbodies and vacuoles.</tspan><tspan y="-210.90512" x="192.2402 198.7502 205.6802 211.12972 213.77571 220.2857 224.9057 230.7752 237.2852 243.3752 247.9952 253.66519 259.5347 263.5247 266.67469 272.13468 274.77018 280.23017 285.69017 288.84016 291.99015 297.45014 300.08564 303.23564 309.32563 314.7856 321.29563 323.93113 329.3911 336.53114 341.99113 348.9106 351.5566 361.4266 366.8866 376.7566 383.2561 387.8761 393.9661 400.8961 406.35609 408.99159 415.5016 421.3816 428.5216 435.4411 441.9511 444.5971 450.4771 455.0866 460.75663 466.84663 473.7766 479.2366 482.3761 485.5261 490.98609 496.44609">The prokaryotic cells lack such membrane bound organelles.</tspan><tspan y="-196.74062" x="210.2267 217.7867 220.93669 227.44669 233.32669 238.7867 244.6667 254.5367 259.9967 265.4567 268.4177 274.5077 279.1277 284.58769 287.54869 294.47868 300.35868 307.28868 311.48869 321.35868 326.81867 336.68867 343.19868 347.81867 353.90867 360.83866 366.29866 369.25965 375.76966 381.64967 388.78968 395.71968 402.22969 405.19068 411.07069 415.69068 421.3607 427.45069 434.38069 439.84068 442.99067 446.14067 451.60066 457.06065 460.02165 463.38163 469.26164 476.40165 483.33164 489.84165 492.80265 495.95265 502.88264 505.84364 511.93363 515.0836 518.23367 521.19467 526.65469 532.1147 535.2647 538.41476 543.87478 546.83578">Ribosomes are non-membrane bound organelles found in all cells &#x2013;</tspan><tspan y="-182.88062" x="192.2402 198.7502 204.6302 208.62021 215.5502 219.37221 224.83222 231.97222 238.48221 244.5722 249.1922 254.8622 260.7422 264.73219 267.88218 273.34217 277.16416 283.25416 288.71415 292.53614 300.72615 306.18614 309.33613 312.4861 316.3081 322.3981 327.8581 331.68009 338.1901 342.8101 348.6901 355.2001 361.2901 365.9101 371.5801 377.4601 381.4501 384.6001 390.0601 393.42008 397.24208 407.32206 410.47206 414.46205 421.39204 424.54203 431.47203 435.294 439.284 446.214 451.67399 455.49598 460.95597 466.41596 469.56596 472.71595 476.07594 479.89793 484.5179 487.6679 494.17793 500.05793 505.5179 511.39793 521.26797 526.72799 532.188 536.00997 542.1 546.72">both eukaryotic as well as prokaryotic. Within the cell, ribosomes are</tspan><tspan y="-168.89459" x="192.2402 195.6002 201.48021 208.62021 215.5502 222.0602 226.2917 233.22171 239.10172 243.09172 247.32323 253.20323 260.13325 263.28324 268.95326 273.18473 276.33473 283.2647 287.4962 291.48619 298.41618 303.87617 308.10765 313.56764 319.23765 323.22764 329.10765 335.61766 338.76765 344.85765 350.31764 360.18763 364.4191 370.9291 378.06913 382.0591 386.2906 392.38059 395.53059 400.99058 406.87059 411.10206 419.29206 422.44206 426.43205 433.36204 436.51203 443.44203 447.6735 451.66349 458.59349 464.05348 468.28495 472.27494 480.46495 486.34495 490.57643 496.45643 501.07643 506.74644 512.8364 519.7664 525.22647 528.37649 531.5265 536.9865 542.44656 546.67807">found not only in the cytoplasm but also within the two organelles &#x2013;</tspan><tspan y="-154.7301" x="192.2402 197.70021 204.63022 207.78022 213.66022 218.28022 224.16022 230.67021 233.8202 239.9102 245.37021 249.36022 254.82022 257.3822 260.5322 263.6822 270.61219 273.17417 279.68418 282.83418 288.92417 295.85417 299.84416 305.30415 308.45414 311.0161 317.1061 324.0361 330.5461 333.1081 342.9781 346.12809 350.11808 355.99809 361.45808 368.38807 374.26808 381.19807 387.70808 392.32807 395.47807 401.56806 404.13005 410.22004 417.15003 423.66004 426.22203 432.10203 439.032 441.594 446.214 452.094 459.234 464.90403 471.834 474.396 481.956 489.516">chloroplasts (in plants) and mitochondria and on rough ER.</tspan><tspan y="-140.88062" x="210.2267 217.34581 224.25492 227.38402 237.23313 243.30223 246.43134 248.94095 254.38005 259.81916 262.94828 266.0774 271.5165 274.02613 279.46525 285.32435 292.23347 296.20259 302.27168 305.4008 312.3099 314.81953 320.8886 327.79774 333.65684 337.62596 344.53507 349.97419 354.57328 357.0829 363.992 369.8511 376.76023 380.93934 390.78846 396.22758 406.07667 412.56578 417.16487 423.23396 430.14308 435.58219 438.0918 444.5809 450.44 457.5591 464.46824 470.95735 473.46696 479.32606 483.92515 489.57426 495.64335 502.55247 507.99159 511.1207 514.2498 519.6889 522.1985 527.6376 533.70669 536.83578 539.96487 545.40396">Animal cells contain another non-membrane bound organelle called</tspan><tspan y="-126.884128" x="192.2402 197.6477 203.0552 209.93271 213.87021 218.43772 224.26522 229.67272 235.50022 245.31772 250.72522 253.19272 261.33024 268.20774 271.30525 276.71275 283.59025 286.05775 292.93525 298.34275 301.44026 307.89775 313.30525 315.77275 318.87025 325.74775 328.21525 333.62275 339.03025 342.12776 345.22526 347.69276 354.15025 357.24775 362.65525 365.75276 371.16026 374.25776 380.08528 386.96278">centrosome which helps in cell division.</tspan><tspan y="-112.719638" x="210.2267 217.7133 222.88991 225.75652 228.62313 233.79973 236.03633 242.26294 245.12955 248.20615 251.28275 256.45936 260.79597 263.03257 268.41917 272.75578 277.93238 283.73899 287.4456 290.3122 295.6988 297.9354 300.802 307.4486 309.6852 314.86183 317.72843 322.48503 327.66163 330.73823 332.97483 338.15144 344.79804 350.60466 356.83125 362.00785 364.24446 370.05107 376.69767 382.92427 385.16087 390.96748 396.14408 399.85069 402.7173 407.8939 410.7605 414.4671 417.3337 422.5103 427.68693 429.92353 432.79014 439.22676 442.09336 447.47996 454.33656 458.67317 463.84977 466.08638 472.31297 475.38957 481.61616 484.48277 487.55937 489.79597 496.23258 501.8292 506.1658 508.4024 513.579 519.1756 524.9822 534.5688 540.7954 543.662 548.8386">Cells differ greatly in size, shape and activities (Figure 8.1). For example,</tspan><tspan y="-98.880619" x="192.2402 201.81632 207.40242 212.77852 218.57463 225.00074 228.06684 234.07294 239.44904 249.23514 255.24124 260.61735 263.89344 266.32954 270.23564 277.08174 282.45783 284.89393 290.27003 300.05613 306.06224 309.12834 312.19444 317.57054 322.94664 326.85273 329.28883 334.66493 340.04103 343.10713 346.17323 351.54933 354.8254 357.2615 363.2676 367.8037 373.1798 375.6159 381.41203 388.25813 391.32423 396.91035 399.34645 405.77256 409.04866 415.47477">Mycoplasmas, the smallest cells, are only 0.3 </tspan></text>
<text fill="#231f20" xml:space="preserve" transform="matrix(1 0 -0 1 0 801.711)" font-size="10.5" font-family="Symbol"><tspan y="-98.880619" x="417.8327">&#x00b5;</tspan></text>
<text fill="#231f20" xml:space="preserve" transform="matrix(1 0 -0 1 0 801.711)" font-size="10.5" font-family="Bookman"><tspan y="-98.880619" x="423.59724 433.38334 435.81944 438.88554 445.73164 448.16773 451.23384 456.60993 463.45603 469.0421 472.9482 479.7943 482.2409 490.34703 497.1931 500.25923 503.32533 508.70143 511.1375 517.5636 523.5697 528.9458 532.8519 538.228 542.76419 545.83029">m in length while bacteria</tspan></text>
<g clip-path="url(#clip_17)">
<text xml:space="preserve" transform="matrix(1 0 -0 1 0 801.711)" font-size="8" font-family="Arial"><tspan y="-46.59019" x="291.32 295.768 300.216 304.664 309.112 311.776 316.224">2024-25</tspan></text>
</g>
</g>
</g>
<g>
<g clip-path="url(#clip_18)">
<g style="mix-blend-mode:multiply">
<path transform="matrix(1,0,0,-1,0,801.711)" d="M315.069 642.886H552.285V629.866H315.069Z" fill="#ffff00"/>
</g>
<g style="mix-blend-mode:multiply">
<path transform="matrix(1,0,0,-1,0,801.711)" d="M192.628 628.963H512.017V616.079H192.628Z" fill="#ffff00"/>
</g>
</g>
</g>
</svg>
