<svg xmlns="http://www.w3.org/2000/svg" xmlns:xlink="http://www.w3.org/1999/xlink" xmlns:inkscape="http://www.inkscape.org/namespaces/inkscape" version="1.1" width="612" height="782.64187" viewBox="0 0 612 782.64187">
<defs>
<clipPath id="clip_8662">
<path transform="matrix(1,0,0,-1,0,800.348)" d="M0 17.7062H612V800.348H0Z" clip-rule="evenodd"/>
</clipPath>
<clipPath id="clip_8663">
<path transform="matrix(.23999998,0,0,-.23999998,0,800.348)" d="M467 1518H1571V414H467Z"/>
</clipPath>
<clipPath id="clip_8664">
<path transform="matrix(.23999998,0,0,-.23999998,0,800.348)" d="M638 2244H678V2192H638Z"/>
</clipPath>
<clipPath id="clip_8665">
<path transform="matrix(.23999998,0,0,-.23999998,0,800.348)" d="M631 2244H678V2190H631Z"/>
</clipPath>
<clipPath id="clip_8666">
<path transform="matrix(.23999998,0,0,-.23999998,0,800.348)" d="M679 2263H1012V2180H679Z"/>
</clipPath>
<clipPath id="clip_8667">
<path transform="matrix(1,0,0,-1,291.32,747.4419)" d="M0-8H29.36V.800049H0Z"/>
</clipPath>
</defs>
<g clip-path="url(#clip_8662)">
<path transform="matrix(.23999998,0,0,-.23999998,0,800.348)" d="M0 3035.83H2550V3372.7003H0Z" fill="#d1d3d4" fill-rule="evenodd"/>
<path transform="matrix(.23999998,0,0,-.23999998,0,800.348)" d="M0 3078.33H2550V3420H0Z" fill="#e1ecb6" fill-rule="evenodd"/>
<path transform="matrix(.23999998,0,0,-.23999998,500.6352,51.183229)" d="M0 0C7.32 7.32 16.16 10.98 26.52 10.98H97.35C107.71 10.98 116.55 7.32 123.87 0 131.19-7.33 134.85-16.17 134.85-26.52V-101.52C134.85-111.88 131.19-120.72 123.87-128.04 116.55-135.36 107.71-139.02 97.35-139.02H26.52C16.16-139.02 7.32-135.36 0-128.04-7.32-120.72-10.98-111.88-10.98-101.52V-26.52C-10.98-16.17-7.32-7.33 0 0" fill="#ffffff" fill-rule="evenodd"/>
<text fill="#231f20" xml:space="preserve" transform="matrix(1 0 -0 1 0 800.348)" font-size="11" font-family="Bookman"><tspan y="-730.081" x="84">M</tspan></text>
<text fill="#231f20" xml:space="preserve" transform="matrix(1 0 -0 1 0 800.348)" font-size="7.69999" font-family="Bookman"><tspan y="-730.081" x="94.08 100.207408 105.71881 110.46021 116.587619 122.71502 127.30242 133.42983 139.55722">ORPHOLOGY</tspan></text>
<text fill="#231f20" xml:space="preserve" transform="matrix(1 0 -0 1 0 800.348)" font-size="11" font-family="Bookman"><tspan y="-730.081" x="144.48"> </tspan></text>
<text fill="#231f20" xml:space="preserve" transform="matrix(1 0 -0 1 0 800.348)" font-size="7.69999" font-family="Bookman"><tspan y="-730.081" x="147.12 153.2331">OF</tspan></text>
<text fill="#231f20" xml:space="preserve" transform="matrix(1 0 -0 1 0 800.348)" font-size="11" font-family="Bookman"><tspan y="-730.081" x="158.16 160.72101"> F</tspan></text>
<text fill="#231f20" xml:space="preserve" transform="matrix(1 0 -0 1 0 800.348)" font-size="7.69999" font-family="Bookman"><tspan y="-730.081" x="167.76 172.33849 178.45697 185.80747 191.30995 196.81244 199.38893 205.04543">LOWERING</tspan></text>
<text fill="#231f20" xml:space="preserve" transform="matrix(1 0 -0 1 0 800.348)" font-size="11" font-family="Bookman"><tspan y="-730.081" x="211.2 213.7413"> P</tspan></text>
<text fill="#231f20" xml:space="preserve" transform="matrix(1 0 -0 1 0 800.348)" font-size="7.69999" font-family="Bookman"><tspan y="-730.081" x="220.8 225.3682 230.55239 236.19858 240.92078">LANTS</tspan></text>
<text fill="#231f20" xml:space="preserve" transform="matrix(1 0 -0 1 0 800.348)" font-size="11" font-family="Bookman"><tspan y="-729.361" x="505.92 513.06">69</tspan></text>
<path transform="matrix(.23999998,0,0,-.23999998,0,800.348)" d="M2 2H2548V214.67H2Z" fill="#cbdf7f" fill-rule="evenodd"/>
<path transform="matrix(.23999998,0,0,-.23999998,0,800.348)" stroke-width="4" stroke-linecap="butt" stroke-miterlimit="1000" stroke-linejoin="miter" fill="none" stroke="#cbdf7f" d="M2 2H2548V214.67H2Z"/>
<path transform="matrix(.23999998,0,0,-.23999998,597.6,-2.3319703)" stroke-width="1" stroke-linecap="butt" stroke-miterlimit="10" stroke-linejoin="miter" fill="none" stroke="#000000" d="M0 0H60"/>
<path transform="matrix(.23999998,0,0,-.23999998,594.12,-20.451966)" stroke-width="1" stroke-linecap="butt" stroke-miterlimit="10" stroke-linejoin="miter" fill="none" stroke="#000000" d="M0 0V-60"/>
<path transform="matrix(.23999998,0,0,-.23999998,597.6,781.98806)" stroke-width="1" stroke-linecap="butt" stroke-miterlimit="10" stroke-linejoin="miter" fill="none" stroke="#000000" d="M0 0H60"/>
<path transform="matrix(.23999998,0,0,-.23999998,594.12,785.708)" stroke-width="1" stroke-linecap="butt" stroke-miterlimit="10" stroke-linejoin="miter" fill="none" stroke="#000000" d="M0 0V-59"/>
<path transform="matrix(.23999998,0,0,-.23999998,.11999999,-20.691956)" stroke-width="1" stroke-linecap="butt" stroke-miterlimit="10" stroke-linejoin="miter" fill="none" stroke="#000000" d="M0 0V-75"/>
<g clip-path="url(#clip_8663)">
<path transform="matrix(.23999998,0,0,-.23999998,244.88639,436.64967)" d="M0 0C302.88 0 549.92-247.04 549.92-549.92 549.92-852.81 302.88-1099.84 0-1099.84-302.88-1099.84-549.92-852.81-549.92-549.92-549.92-247.04-302.88 0 0 0" fill="#fffcd5" fill-rule="evenodd"/>
</g>
<text fill="#231f20" xml:space="preserve" transform="matrix(1 0 -0 1 0 800.348)" font-size="10.5" font-family="Bookman"><tspan y="-687.841" x="60 67.29499 71.01998 77.684978 82.66997 88.914958 92.639949 98.26484 106.18983 113.48482 119.729808 124.7148 130.9598 137.20479 142.18978 148.43477 153.41976">Floral Characters</tspan><tspan y="-668.881" x="60 64.20599 71.35198 75.34797 78.92396 85.43995 90.27594 96.37193 101.83792 107.933917 114.02991 121.175899 127.27189 133.36788 136.41887 139.99486">Inflorescence : </tspan></text>
<text fill="#231f20" xml:space="preserve" transform="matrix(1 0 -0 1 0 800.348)" font-size="10.5" font-family="Bookman"><tspan y="-668.881" x="143.04 149.9665 155.84302 158.98954 162.13605 166.12256 172.20908 176.82559 182.4921 185.8486 188.7301 194.81662 200.69313 203.83965 206.98616 210.13268 216.2192 220.83571 226.50222 229.38372 235.26023 239.87674 242.75824 248.21475 253.88126 263.74778 269.62428 275.08079 280.5373 283.4188 289.5053 294.96183 297.84333 300.98985 307.91636">Solitary, axillary or cymose as in </tspan></text>
<text fill="#231f20" xml:space="preserve" transform="matrix(1 0 -0 1 0 800.348)" font-size="10.5" font-family="Bookman" font-style="italic"><tspan y="-668.881" x="311.04 318.09 324.09 327.36 334.19999 341.03999 347.87998">Solanum</tspan></text>
<text fill="#231f20" xml:space="preserve" transform="matrix(1 0 -0 1 0 800.348)" font-size="10.5" font-family="Bookman"><tspan y="-653.761" x="60 67.128009 70.68601 77.18402 85.57203 91.65004">Flower</tspan></text>
<text fill="#231f20" xml:space="preserve" transform="matrix(1 0 -0 1 0 800.348)" font-size="10.5" font-family="Bookman"><tspan y="-653.761" x="96.48 99.81381 102.32263 108.80644 111.93025 117.36406 122.79787 128.65167 135.76549 141.8293 144.95311 148.28693 150.79575 156.85956 162.29337 166.25717 169.38098 176.28479 182.1386 191.9824 197.83621 202.43003 208.91384 215.81764 218.94145">: bisexual, actinomorphic</tspan></text>
<text fill="#231f20" xml:space="preserve" transform="matrix(1 0 -0 1 0 800.348)" font-size="10.5" font-family="Bookman"><tspan y="-638.881" x="60 67.8583 74.0366 77.6949 84.2932 90.681499 94.3398">Calyx: </tspan></text>
<text fill="#231f20" xml:space="preserve" transform="matrix(1 0 -0 1 0 800.348)" font-size="10.5" font-family="Bookman"><tspan y="-638.881" x="96.72 102.1165 107.513 113.9595 119.98601 123.07251 128.46901 130.9255 134.222 137.3085 142.705 148.1015 151.398 153.85449 160.931 167.7975 170.884 174.8105 180.207 186.6535 189.95 192.4065 198.853 204.2495 208.806 214.2025 217.289 222.6855 226.612 232.0085 238.875 242.8015 246.09799 248.55449 253.95099 259.97749 263.06398 268.46049 274.48698 278.41349 283.81 286.2665 292.293 297.6895 303.08604 307.01255 310.09904 315.49555 321.52204 325.44856 328.53504 334.35154">sepals five, united, persistent, valvate aestivation</tspan></text>
<text fill="#231f20" xml:space="preserve" transform="matrix(1 0 -0 1 0 800.348)" font-size="10.5" font-family="Bookman"><tspan y="-623.761" x="60 67.8471 74.4342 79.34129 85.92839 89.57549 93.222599 99.389698">Corolla:</tspan></text>
<text fill="#231f20" xml:space="preserve" transform="matrix(1 0 -0 1 0 800.348)" font-size="10.5" font-family="Bookman"><tspan y="-623.761" x="102.72 105.18151 111.63301 117.034519 120.96602 126.99752 130.08902 135.49053 137.95203 141.25353 144.34503 149.74654 155.14804 158.44954 160.91104 167.99254 174.86405 177.95555 181.88706 187.28856 193.74007 197.04157 199.50307 204.90457 210.93607 214.02758 219.42908 225.46057 229.39208 234.79358 237.25508 243.28658 248.68808 254.08959 258.0211 261.11259 266.51408 272.54557 276.47706 279.56855 285.39006"> petals five, united; valvate aestivation</tspan></text>
<text fill="#231f20" xml:space="preserve" transform="matrix(1 0 -0 1 0 800.348)" font-size="10.5" font-family="Bookman"><tspan y="-608.881" x="60 67.57199 74.72398 81.45597 86.29796 92.81995 98.921939 105.023929 108.81592 115.75791 126.2699">Androecium:</tspan></text>
<text fill="#231f20" xml:space="preserve" transform="matrix(1 0 -0 1 0 800.348)" font-size="10.5" font-family="Bookman"><tspan y="-608.881" x="129.84 132.33351 137.76032 141.71712 147.77393 157.61074 163.03754 169.93434 175.36115 177.85466 181.18146 184.29827 189.72507 195.15187 198.47867 200.97219 206.39899 212.8758 215.9926 222.4694 227.89621 231.85301 237.90982 241.02663 246.87343 253.98023"> stamens five, epipetalous</tspan></text>
<text fill="#231f20" xml:space="preserve" transform="matrix(1 0 -0 1 0 800.348)" font-size="10.5" font-family="Bookman"><tspan y="-593.761" x="60 68.18671 74.69342 81.83013 88.33684 94.423549 100.510257 104.286968 111.21368 121.71039">Gynoecium:</tspan></text>
<text fill="#231f20" xml:space="preserve" transform="matrix(1 0 -0 1 0 800.348)" font-size="10.5" font-family="Bookman"><tspan y="-593.761" x="125.277 127.76992 134.24613 137.36234 142.78855 148.84476 153.43097 159.90718 165.33339 168.4496 171.56581 177.62203 182.20824 187.84445 190.33737 196.18358 202.65979 205.776 208.89221 214.52843 220.58464 224.54085 229.96706 233.08327 238.71949 241.2124 247.68862 250.80483 256.86103 262.28724 267.71345 274.18965 277.51585 280.00877 285.43498 291.07118 297.96739 303.3936 309.4498 314.036 320.5122 326.35844 333.46464 338.89085 342.21705 344.70997 350.55619 355.9824 362.0386 366.62483 372.26103 374.75395 380.18016 387.28636 393.76255 399.18876 403.77497 406.89118 412.7374 416.64"> bicarpellary obligately placed, syncarpous; ovary superior,</tspan><tspan y="-578.881" x="60 66.47621 69.59242 72.70863 78.55484 83.98105 91.08726 94.20347 100.25968 104.4 107.73851 110.24373 116.73224 119.86075 125.92926 131.36777 136.80628 143.71479 147.68329 153.7518 156.25704 161.69554 169.86405 175.72255 178.85106 181.97957 187.41808 194.32659 196.83182 205.00034 208.12885 212.09735 219.00586 221.5111 231.3596 237.42812 244.33663 249.98514 252.49037 258.34889 263.78739 270.90589 274.0344 279.4729 284.9114 288.2499 290.75514 296.82365 302.68217 305.81068 308.93919">bilocular, placenta swollen with many ovules, axile</tspan></text>
<text fill="#231f20" xml:space="preserve" transform="matrix(1 0 -0 1 0 800.348)" font-size="10.5" font-family="Bookman"><tspan y="-563.761" x="60 67.28999 72.26998 79.349979 83.27997 88.25996 93.86995">Fruits:</tspan></text>
<text fill="#231f20" xml:space="preserve" transform="matrix(1 0 -0 1 0 800.348)" font-size="10.5" font-family="Bookman"><tspan y="-563.761" x="97.44 100.711719 107.21671 112.671718 117.28671 121.90171 127.56671 130.83843 136.71343 141.32843 144.60015 150.05515 156.14015 162.64516 168.10016 175.23516 178.38016"> berry or capsule</tspan></text>
<text fill="#231f20" xml:space="preserve" transform="matrix(1 0 -0 1 0 800.348)" font-size="10.5" font-family="Bookman"><tspan y="-548.881" x="60 67.10999 73.37998 79.64997 86.54996 92.18995">Seeds:</tspan></text>
<text fill="#231f20" xml:space="preserve" transform="matrix(1 0 -0 1 0 800.348)" font-size="10.5" font-family="Bookman"><tspan y="-548.881" x="95.76 98.5967 108.46839 114.56008 121.491779 127.16347 130.52516 133.36186 138.82355 145.75524 152.26692 158.1486 163.61029 170.12198 175.58367 180.20536 190.07704 195.95873 203.10042"> many, endospermous</tspan></text>
<text fill="#231f20" xml:space="preserve" transform="matrix(1 0 -0 1 0 800.348)" font-size="10.5" font-family="Bookman"><tspan y="-529.681" x="60 67.2733 70.9766 77.6199 82.583209 88.8065 92.5098 96.9381 104.2114 110.854709 115.81801 126.45131 133.5146 137.2179 143.4412 147.14449">Floral Formula: </tspan></text>
<g clip-path="url(#clip_8664)">
<text xml:space="preserve" transform="matrix(.9999983 0 -0 .9999983 0 800.348)" font-size="10.466999" font-family="Symbol"><tspan y="-528.48037" x="153.12009">&#x2295;</tspan></text>
</g>
<g clip-path="url(#clip_8665)">
<path transform="matrix(.23999998,0,0,-.23999998,151.43999,261.7881)" stroke-width="1" stroke-linecap="butt" stroke-miterlimit="10" stroke-linejoin="miter" fill="none" stroke="#000000" d="M0 0V0"/>
</g>
<g clip-path="url(#clip_8666)">
<path transform="matrix(.23999998,0,0,-.23999998,181.55998,265.8177)" d="M0 0 4.98 4.18C7.16 5.98 9.65 7.77 12.14 8.37L12.77 8.67V9.86H0V8.67C1.87 8.67 3.11 8.37 3.11 6.87 3.11 5.98 2.49 5.38 1.87 4.78L-9.03-4.78V4.18C-9.03 5.08-9.03 6.58-8.41 7.17-7.78 8.67-6.54 8.67-5.3 8.67H-4.36V9.86H-17.75V8.67H-16.82C-13.7 8.37-13.39 6.58-13.39 4.48V-13.75C-13.39-14.94-13.7-16.14-14.02-17.03-14.64-18.23-15.88-18.23-17.13-18.23H-17.75V-19.72H-4.36V-18.23H-5.3C-6.54-18.23-7.78-18.23-8.72-16.73-9.03-16.14-9.03-14.94-9.03-13.75V-7.77L-3.43-2.99 3.42-13.75C4.05-14.34 4.67-15.54 4.67-16.43 4.67-17.93 3.42-18.23 2.18-18.23H1.24V-19.72H14.94V-18.23C11.52-17.93 10.27-15.83 8.41-13.15L0 0" fill="#231f20" fill-rule="evenodd"/>
<path transform="matrix(.23999998,0,0,-.23999998,201.88582,263.52333)" d="M0 0H-1.55L-2.49-2.09C-4.98 .3-8.09 1.2-11.52 1.2-20.55 1.2-26.78-6.27-26.78-14.34-26.78-23.31-20.24-29.88-10.9-29.88-4.67-29.88 0-27.19 3.11-22.41L1.25-21.21C-1.25-25.1-5.29-27.79-9.96-27.79-13.39-27.79-16.81-26.29-18.68-23.6-20.55-21.21-21.48-17.63-21.48-14.64-21.48-11.35-20.86-8.07-18.99-5.38-17.12-2.39-14.63-.89-10.9-.89-8.09-.89-5.29-2.09-3.42-3.88-1.87-5.68-.62-8.07 .62-10.16V-10.46H2.18L0 0" fill="#231f20" fill-rule="evenodd"/>
<path transform="matrix(.23999998,0,0,-.23999998,217.42966,263.4513)" d="M0 0H-4.36L-11.83-18.52C-12.77-20.62-13.7-23.3-14.94-25.1-15.88-27.19-16.81-27.79-18.99-28.09H-19.3V-29.58H-7.16V-28.09C-9.34-28.09-11.21-27.49-11.21-25.4-11.21-24.5-10.59-22.71-10.27-21.81L-9.03-18.52H2.8L4.67-23.61C4.98-24.2 5.61-25.4 5.61-26 5.61-27.79 3.43-28.09 1.87-28.09V-29.58H14.64V-28.09C11.21-28.09 10.28-25.4 9.34-22.71L0 0ZM-8.41-16.43-3.11-3.59 1.87-16.43H-8.41" fill="#231f20" fill-rule="evenodd"/>
<path transform="matrix(.23999998,0,0,-.23999998,186.34221,268.8297)" d="M0 0C-2.18-.3-3.43-1.49-4.05-3.59-4.36-5.38-4.67-7.77-4.67-9.56-4.67-11.36-4.36-13.75-4.05-15.24-3.43-17.63-2.18-18.82 0-19.12V-18.23C-1.25-17.93-1.87-16.43-1.87-14.94-2.18-13.45-2.18-11.36-2.18-9.56-2.18-7.77-2.18-5.38-1.87-3.88-1.87-2.69-1.25-1.2 0-.89V0" fill="#231f20" fill-rule="evenodd"/>
<path transform="matrix(.23999998,0,0,-.23999998,189.3319,268.90168)" d="M0 0H-.94C-1.25-.59-1.87-.59-2.49-.59H-9.65V-8.66H-8.72C-7.78-7.47-6.85-6.57-4.98-6.57-4.05-6.57-2.8-7.17-2.18-8.07-1.56-8.66-1.25-9.86-1.25-10.75-1.25-13.15-2.8-14.94-5.3-14.94-6.23-14.94-8.1-14.64-8.1-13.45-8.1-13.15-7.78-12.85-7.78-12.55-7.78-11.65-8.41-11.35-9.03-11.35-9.96-11.35-10.59-11.95-10.59-12.55-10.59-13.74-9.34-14.64-8.41-15.24-7.48-15.54-6.23-15.84-4.98-15.84-1.56-15.84 1.24-13.74 1.24-10.46 1.24-7.17-1.25-5.38-4.36-5.38-5.92-5.38-7.16-5.97-8.41-6.87V-2.39H-.62L0 0" fill="#231f20" fill-rule="evenodd"/>
<path transform="matrix(.23999998,0,0,-.23999998,189.92902,273.41853)" d="M0 0C2.18 .3 3.74 1.79 4.05 3.88 4.67 5.37 4.67 7.76 4.67 9.56 4.67 11.35 4.67 13.74 4.05 15.53 3.74 17.33 2.18 18.82 0 19.12V18.23C1.56 17.92 1.87 16.43 2.18 15.24 2.49 13.74 2.49 11.35 2.49 9.56 2.49 7.76 2.49 5.67 2.18 4.18 1.87 2.69 1.56 1.19 0 .89V0" fill="#231f20" fill-rule="evenodd"/>
<path transform="matrix(.23999998,0,0,-.23999998,204.57646,268.8297)" d="M0 0C-2.18-.3-3.42-1.49-4.05-3.59-4.67-5.38-4.67-7.77-4.67-9.56-4.67-11.36-4.67-13.75-4.05-15.24-3.42-17.63-2.18-18.82 0-19.12V-18.23C-1.56-17.93-1.87-16.43-2.18-14.94-2.49-13.45-2.49-11.36-2.49-9.56-2.49-7.77-2.49-5.38-2.18-3.88-1.87-2.69-1.56-1.2 0-.89V0" fill="#231f20" fill-rule="evenodd"/>
<path transform="matrix(.23999998,0,0,-.23999998,207.49126,268.90168)" d="M0 0H-.93C-.93-.59-1.56-.59-2.18-.59H-9.34V-8.66H-8.41C-7.78-7.47-6.54-6.57-4.98-6.57-3.74-6.57-2.8-7.17-1.87-8.07-1.25-8.66-.93-9.86-.93-10.75-.93-13.15-2.8-14.94-5.29-14.94-6.23-14.94-7.78-14.64-7.78-13.45-7.78-13.15-7.78-12.85-7.78-12.55-7.78-11.65-8.41-11.35-9.03-11.35-9.65-11.35-10.28-11.95-10.28-12.55-10.28-13.74-9.34-14.64-8.1-15.24-7.16-15.54-5.92-15.84-4.98-15.84-1.56-15.84 1.55-13.74 1.55-10.46 1.55-7.17-1.25-5.38-4.36-5.38-5.61-5.38-6.85-5.97-8.1-6.87V-2.39H-.31L0 0" fill="#231f20" fill-rule="evenodd"/>
<path transform="matrix(.23999998,0,0,-.23999998,208.1635,273.41853)" d="M0 0C1.87 .3 3.42 1.79 4.05 3.88 4.36 5.37 4.67 7.76 4.67 9.56 4.67 11.35 4.36 13.74 4.05 15.53 3.42 17.33 1.87 18.82 0 19.12V18.23C1.25 17.92 1.87 16.43 1.87 15.24 2.18 13.74 2.18 11.35 2.18 9.56 2.18 7.76 2.18 5.67 1.87 4.18 1.87 2.69 1.25 1.19 0 .89V0" fill="#231f20" fill-rule="evenodd"/>
<path transform="matrix(.23999998,0,0,-.23999998,224.52935,268.90168)" d="M0 0H-.94C-.94-.59-1.56-.59-2.18-.59H-9.66V-8.66H-8.72C-7.78-7.47-6.54-6.57-4.98-6.57-3.74-6.57-2.8-7.17-2.18-8.07-1.25-8.66-1.25-9.86-1.25-10.75-1.25-13.15-2.8-14.94-5.3-14.94-6.23-14.94-8.1-14.64-8.1-13.45-8.1-13.15-7.78-12.85-7.78-12.55-7.78-11.65-8.41-11.35-9.03-11.35-9.96-11.35-10.59-11.95-10.59-12.55-10.59-13.74-9.34-14.64-8.41-15.24-7.16-15.54-5.92-15.84-4.98-15.84-1.56-15.84 1.55-13.74 1.55-10.46 1.55-7.17-1.25-5.38-4.36-5.38-5.92-5.38-7.16-5.97-8.1-6.87V-2.39H-.31L0 0" fill="#231f20" fill-rule="evenodd"/>
<path transform="matrix(.23999998,0,0,-.23999998,237.17351,268.8297)" d="M0 0C-2.18-.3-3.43-1.49-4.05-3.59-4.67-5.38-4.67-7.77-4.67-9.56-4.67-11.36-4.67-13.75-4.05-15.24-3.43-17.63-2.18-18.82 0-19.12V-18.23C-1.56-17.93-1.87-16.43-2.18-14.94-2.49-13.45-2.49-11.36-2.49-9.56-2.49-7.77-2.49-5.38-2.18-3.88-1.87-2.69-1.56-1.2 0-.89V0" fill="#231f20" fill-rule="evenodd"/>
<path transform="matrix(.23999998,0,0,-.23999998,240.38639,271.62568)" d="M0 0H-.62L-.93-.3C-1.87-2.39-2.49-2.39-4.67-2.39H-9.65C-6.54-.6-.62 2.69-.62 6.87-.62 8.06-1.56 9.26-2.49 10.16-3.73 10.76-4.98 11.05-6.23 11.05-7.78 11.05-9.03 10.76-10.27 9.86-11.21 9.26-11.83 8.06-11.83 6.87-11.83 5.97-11.21 5.08-10.27 5.08-9.65 5.08-9.03 5.38-9.03 6.27-9.03 6.57-9.34 6.87-9.34 6.87-9.65 7.17-9.96 7.47-9.96 7.77-9.96 9.26-7.78 9.86-6.54 9.86-4.67 9.86-3.42 8.66-3.42 6.87-3.42 4.78-5.29 2.69-6.85 1.19-8.41-.3-9.96-1.5-12.14-2.69V-4.19H-.93L0 0" fill="#231f20" fill-rule="evenodd"/>
<path transform="matrix(.23999998,0,0,-.23999998,240.76078,273.41847)" d="M0 0C1.87 .3 3.42 1.79 4.04 3.88 4.36 5.37 4.67 7.76 4.67 9.56 4.67 11.35 4.36 13.74 4.04 15.53 3.42 17.33 1.87 18.82 0 19.12V18.23C1.24 17.92 1.87 16.43 1.87 15.24 2.18 13.74 2.18 11.35 2.18 9.56 2.18 7.76 2.18 5.67 1.87 4.18 1.87 2.69 1.24 1.19 0 .89V0" fill="#231f20" fill-rule="evenodd"/>
<path transform="matrix(.23999998,0,0,-.23999998,233.7355,263.45124)" d="M0 0H-1.55L-2.49-2.09C-4.67-.3-8.09 .9-11.21 .9-15.57 .9-19.62-1.19-22.42-4.18-25.22-6.87-26.46-10.76-26.46-14.64-26.46-23.3-19.92-30.18-10.58-30.18-6.85-30.18-3.42-28.98-.31-26.59L.93-29.58H3.11V-21.21C3.11-20.32 3.11-18.82 3.74-18.23 4.05-17.03 5.61-16.73 6.54-16.73H6.85V-15.54H-5.6V-16.73C-2.49-17.03-.93-17.93-.93-20.91-.93-25.69-5.6-28.09-10.27-28.09-13.7-28.09-16.81-26.29-18.68-23.3-20.24-20.91-20.86-17.63-20.86-14.64-20.86-8.66-18.37-1.19-10.9-1.19-5.6-1.19-1.87-5.68 .93-9.56L2.8-9.26 0 0" fill="#231f20" fill-rule="evenodd"/>
<path transform="matrix(.23999998,0,0,-.23999998,0,800.34799)" d="M945.56 2201.51H981.99V2203.6H945.56Z" fill="#231f20" fill-rule="evenodd"/>
<path transform="matrix(.24494398,0,0,-.23505336,168.4817,262.52009)" stroke-width="4.236" stroke-linecap="butt" stroke-miterlimit="2.613" stroke-linejoin="miter" fill="none" stroke="#231f20" d="M0 0C9.15 0 16.78-7.62 16.78-16.77 16.78-25.92 9.15-33.55 0-33.55-9.46-33.55-16.78-25.92-16.78-16.77-16.78-7.62-9.46 0 0 0Z"/>
<path transform="matrix(.24494398,0,0,-.23505336,169.97588,262.87739)" stroke-width="2.11799" stroke-linecap="butt" stroke-miterlimit="2.613" stroke-linejoin="miter" fill="none" stroke="#231f20" d="M0 0 20.44 15.56"/>
<path transform="matrix(.24494398,0,0,-.23505336,171.62046,258.28913)" stroke-width="4.27099" stroke-linecap="butt" stroke-miterlimit="2.613" stroke-linejoin="miter" fill="none" stroke="#231f20" d="M0 0 20.13 1.22 13.12-17.69"/>
<path transform="matrix(.24494398,0,0,-.23505336,165.1938,273.56294)" stroke-width="3.17799" stroke-linecap="butt" stroke-miterlimit="2.613" stroke-linejoin="miter" fill="none" stroke="#231f20" d="M0 0H27.15"/>
<path transform="matrix(.24494398,0,0,-.23505336,168.33156,276.50343)" stroke-width="3.17799" stroke-linecap="butt" stroke-miterlimit="2.613" stroke-linejoin="miter" fill="none" stroke="#231f20" d="M0 0V26.85"/>
<path transform="matrix(.24494398,0,0,-.23505336,198.2988,261.73036)" stroke-width="2.11799" stroke-linecap="butt" stroke-miterlimit="2.613" stroke-linejoin="miter" fill="none" stroke="#231f20" d="M0 0C29.59 11.6 47.29 9.16 73.83-2.44"/>
</g>
<text fill="#231f20" xml:space="preserve" transform="matrix(1 0 -0 1 0 800.348)" font-size="10.5" font-family="Bookman"><tspan y="-509.04" x="60 67.5194 73.5688 80.0382 87.1376 93.607 104.06641 107.80581 113.85521 118.0846 122.244 132.7034 139.3828 145.8522 150.6416 155.431 161.48041 168.5798 174.62921">Economic Importance</tspan></text>
<text fill="#231f20" xml:space="preserve" transform="matrix(1 0 -0 1 0 800.348)" font-size="10.5" font-family="Bookman"><tspan y="-488.4" x="60 69.65921 75.74842 82.67763 88.34684 91.01065 97.51986 100.66907 106.75828 113.687488 117.6767 123.13591 125.79972 132.30893 137.76815 140.91736 146.79657 153.72579 159.39499 162.5442 169.47342 175.14263 177.80643 181.79564 187.67485 190.33866 194.32787 201.25708 204.4063 209.86551 212.52931 215.88852 221.97772 231.84694 234.99616 238.14537 243.81458 246.47838 252.5676 257.1868 262.646 265.3098 270.769 276.64823 283.78746 288.40666 293.86585 299.32505 301.98887 307.86808 311.2273 313.8911 317.25035 323.12956 329.00877 335.51799 338.1818 341.331 345.3202 351.1994 361.0686 367.1578 371.147 377.0262 380.38545 383.04927 389.55848 394.17768 397.32688 404.25608 407.40528 413.49449 416.64369">Many plants belonging to this family are source of food (tomato, brinjal,</tspan><tspan y="-473.52" x="60 66.5072 72.3844 76.3716 82.4588 86.446 92.3232 95.4704 98.8276 101.45481 106.91201 113.41921 116.566417 122.02361 127.48081 130.10802 133.25522 138.71242 145.63962 148.78682 151.93402 155.08123 158.22843 161.37563 164.73282 167.36002 177.22722 182.68442 189.19162 192.33882 197.79602 200.94322 207.87042 213.32762 215.95482 219.10202 225.60923 231.06642 234.21363 237.36083 243.44803 249.95523 255.83243 262.75965 269.68684 275.77403 279.13124">potato), spice (chilli); medicine (belladonna, </tspan></text>
<text fill="#231f20" xml:space="preserve" transform="matrix(1 0 -0 1 0 800.348)" font-size="10.5" font-family="Bookman" font-style="italic"><tspan y="-473.52" x="281.758 288.064 293.53 299.836 308.872 315.178 320.854 327.16 333.466 339.98204 346.28804">ashwagandha</tspan></text>
<text fill="#231f20" xml:space="preserve" transform="matrix(1 0 -0 1 0 800.348)" font-size="10.5" font-family="Bookman"><tspan y="-473.52" x="352.8 355.9523 359.3146 361.9269 364.5392 367.90153 375.04383 384.91615 388.06846 393.74076 399.83308 403.82539 409.70768 414.33">);  fumigatory</tspan><tspan y="-458.4" x="60 63.07121 66.98242 72.78363 79.21484 85.22605 90.60726 95.98847 101.78968 104.86089 108.142108 110.59833 116.399539 120.94075 127.79196 133.80318 143.59439 148.9756 155.82682 159.73802 165.74924 168.82045 174.20166 176.65787 179.72908 186.1603 191.5415 195.45272 202.51392 209.36513 212.43634 218.44756 221.51877">(tobacco); ornamentals (petunia).</tspan></text>
<text fill="#00aeef" xml:space="preserve" transform="matrix(1 0 -0 1 0 800.348)" font-size="13" font-family="Bookman"><tspan y="-399.84" x="222">S</tspan></text>
<text fill="#00aeef" xml:space="preserve" transform="matrix(1 0 -0 1 0 800.348)" font-size="9.1" font-family="Bookman"><tspan y="-399.84" x="230.88 237.81819 246.57639 255.33458 262.09077 269.39295">UMMARY</tspan></text>
<text fill="#231f20" xml:space="preserve" transform="matrix(1 0 -0 1 0 800.348)" font-size="10.5" font-family="Bookman"><tspan y="-361.68" x="60 66.71871 69.867427 75.74613 83.934848 89.393558 94.01227 97.16098 104.08969 109.7584 113.34211 119.85082 122.999538 129.08824 136.01696 140.00566 145.46437 149.04808 154.50679 160.3855 167.31421 170.46292 176.97164 180.12035 184.10906 187.69277 193.15148 200.08019 205.9589 210.5776 220.44632 226.32503 233.46375 238.92246 242.50617 247.96488 254.05359 258.6723 261.821 267.90974 271.89845 275.04716 280.92588 287.85459 291.4383 294.587 301.51573 305.09944 310.55815 317.48686 323.57557 330.08427 335.54298 338.90168 342.48539 347.9441 351.0928 356.1315 361.5902 364.9489 368.53263 373.99134 377.98005 382.59877 389.73747 395.19618 399.18489 406.32359 410.9423 416.401">Flowering plants exhibit enormous variation in shape, size, structure,</tspan><tspan y="-347.76" x="60 69.82861 75.66722 82.13583 87.55444 90.03675 95.87536 99.19397 101.67628 108.56489 115.6635 119.61211 124.19072 127.29933 131.24794 134.35655 140.19516 147.08377 150.40238 152.88468 155.99329 159.1019 162.4205 167.83911 170.32141 175.74002 182.20864 188.25725 195.14586 198.46446 200.94676 207.83538 213.88399 220.3526 223.46121 227.40982 229.89212 235.94074 242.82935 249.29796 251.78026 258.66886 264.71748 271.18608 274.29469 278.2433 284.2919 288.2405 291.5591 294.0414 300.51 307.39863 312.81724 318.44584 320.92814 327.81675 333.86537 339.28398 344.70259 347.18489 355.3335 360.7521 363.86073 366.96934 369.45164 375.92024 381.33885 386.75746 392.17607 395.28468 401.1233 407.5919 413.0105">mode of nutrition, life span, habit and habitat. They have well developed</tspan><tspan y="-333.84" x="60 64.3543 69.968608 75.58291 79.307209 81.56402 87.38832 94.05262 100.29692 102.553737 107.74803 114.41233 120.026638 125.64094 129.36524 131.62204 136.81635 142.22064 147.41495 151.13925 156.33356 165.93785 171.13216 174.22646 176.48326 183.77756 189.39186 195.00617 198.73047 200.98728 206.18158 211.58588 216.78018 220.50449 225.69879 235.30309 237.55989 240.44419 245.63849 247.8953 253.0896 255.97389 259.69819 266.3625 271.5568 275.9111 278.1679 281.8922 287.71653 293.96083 296.21763 300.57194 306.18623 311.8005 315.5248 317.78163 323.3959 327.7502 330.00703 333.10133 335.98564 342.22993 346.58424 352.19853 359.0728 364.26713 367.36143 369.61824 377.75254 382.94685 389.61116 394.80546 399.15977 404.98408 407.86839 410.7527 416.15699">root and shoot systems. Root system is either tap root or fibrous. Generally,</tspan><tspan y="-319.68" x="60 66.29371 69.22742 74.47113 80.13484 83.908557 89.36227 92.295978 97.53969 103.8334 109.49711 116.210819 121.87453 128.79824 134.04195 136.34816 142.64188 145.57559 151.44931 158.16303 161.93674 167.18045 169.48667 176.20038 182.0741 187.31781 192.56153 194.86774 198.64145 204.51517 210.80889 213.1151 217.51882 223.18253 228.84624 232.61995 237.86367 240.16988 248.14359 254.8573 257.79103 260.72474 265.96846 268.27467 277.92839 283.59208 290.3058 295.96949 301.2132 306.8769 310.6506 316.1043 319.03804 324.28175 330.57545 336.23915 342.95286 348.61656 355.54026 360.78398 363.09019 369.38389 372.3176 378.1913 384.90504 388.67875 393.92247 396.22868 402.94239 408.8161 414.0598">dicotyledonous plants have tap roots while monocotyledonous plants have</tspan><tspan y="-305.76" x="60 63.35801 66.50602 73.01403 77.63204 83.510059 90.64806 96.10607 99.14328 103.76129 109.639308 115.51732 119.505329 124.96333 128.32135 131.35857 137.86658 144.79459 150.2526 153.28981 157.90782 163.78583 169.66384 173.65184 179.10985 182.14707 185.29508 192.22309 195.2603 200.7183 206.59632 216.46433 221.92234 224.95955 231.46756 234.61557 240.70359 247.63159 251.6196 257.0776 260.1148 265.7828 271.2408 275.22883 278.26603 288.13404 294.01206 300.52006 303.66807 307.02607 310.17408 315.63209 322.14009 325.17729 328.53529 334.4133 339.0313 342.0685 347.52653 351.51454 357.39256 362.01057 368.09858 373.76658 379.22459 382.26179 388.1398 391.4978 394.535 397.893 403.77104 409.64906 416.15705">fibrous roots. The roots in some plants get modified for storage of food,</tspan><tspan y="-291.84" x="60 69.8684 75.3268 80.7852 87.7136 93.802 100.7304 103.8788 109.337207 115.425609 118.574008 121.394908 126.8533 133.9917 140.5001 147.00852 152.88692 157.50531 161.49372 164.3146 170.403 177.3314 183.83982 186.6607 191.27912 196.73752 202.19593 208.70433 211.85274 216.47113 222.55953 226.54793 229.69634 235.57474 242.50315 245.86154 248.68244 255.19084 262.11924 267.57765 270.39854 275.85694 282.78535 288.66374 294.5421 298.53053 301.3514 306.8098 312.4782 317.9366 321.92503 327.38343 337.25184 340.07273 343.22114 348.67955 351.50044 358.00883 361.15724 364.51564 367.87403 373.33244 377.95085 383.40925 390.33766 394.32606 397.47447 403.56288 407.55128 413.00968">mechanical support and respiration. The shoot system is differentiated</tspan><tspan y="-277.68" x="60 63.05151 69.88302 73.77453 79.55604 81.98255 87.34406 91.23557 96.597087 106.36859 109.630107 112.05662 115.10813 120.46964 126.46115 131.82266 137.18418 142.54569 145.80719 148.23369 151.4952 154.5467 160.32822 168.41973 173.78124 178.30275 183.66426 186.09076 192.08228 198.91379 205.3253 207.7518 211.0133 215.53482 222.57633 225.62784 229.51935 234.88086 238.14237 240.56887 246.98038 253.81189 259.1734 261.5999 271.37144 277.15296 281.67448 288.08598 294.91749 300.699 303.75053 309.53205 315.10356 318.15507 323.51658 329.5081 332.5596 334.9861 338.24763 343.60914 349.60066 353.49217 360.53367 365.05519 370.4167 375.7782 378.2047 383.98625 387.24775 389.67427 395.03578 398.92729 404.2888 414.0603">into stem, leaves, flowers and fruits. The morphological features of stems</tspan><tspan y="-263.76" x="60 62.93371 65.86742 72.161128 77.40484 79.71355 83.48726 90.200969 95.44468 97.75339 104.0471 108.450809 113.69452 118.93823 124.181949 130.89566 136.13938 141.38309 143.69179 149.3555 152.4992 154.8079 161.52162 167.18534 173.47905 178.72277 183.96648 186.27518 192.1489 198.86261 205.15633 207.46503 210.39875 217.11246 220.88617 226.12989 230.5336 237.24732 242.91103 249.20475 254.44846 259.69218 262.83589 265.1446 274.7983 281.72203 284.65574 288.42945 291.36317 296.60688 301.8506 304.7843 307.71803 314.64173 317.57545 323.44917 327.85289 330.1616 336.8753 342.74903 345.68275 350.08647 352.39518 358.2689 364.9826 371.2763 373.58503 379.87873 385.54243 390.78614 393.71986 397.49357 400.42729 405.671 410.9147 413.84843">like the presence of nodes and internodes, multicellular hair and positively</tspan><tspan y="-249.84" x="60 66.5082 73.4364 79.3146 83.302799 89.18099 93.16919 97.78739 103.66559 110.17379 113.32199 118.78019 122.22928 129.15749 135.24568 139.23389 146.37209 150.99028 156.44849 159.89759 166.82579 172.284 175.43219 181.94039 185.38948 189.37769 195.25589 198.70499 205.21318 208.36138 211.71958 215.07778 220.53598 225.15418 230.61238 237.54059 241.5288 244.67699 250.76519 254.75339 260.21159 263.66065 267.64884 274.57704 280.03523 283.4843 288.9425 292.9307 298.3889 308.25709 313.71528 317.16438 320.52259 325.14079 331.01899 340.88719 344.33625 348.95445 354.83265 360.71086 364.69905 370.15724 373.51545 376.96455 383.26274 388.72093 394.8091 398.1673 401.6164 404.7646 410.22279 413.67189">phototropic nature help to differentiate the stems from roots. Leaf is a</tspan><tspan y="-235.68" x="60 63.10171 69.143428 73.08514 78.49685 83.06856 89.11027 92.211978 94.68868 100.52039 107.61211 111.55382 117.17553 121.74724 127.57895 135.72066 139.66237 146.54409 149.02079 154.8525 158.1642 160.6409 166.05261 169.99433 175.40604 185.22776 187.70446 194.16617 199.57788 204.9896 210.4013 213.50302 219.33473 225.79645 231.20816 237.66988 240.14658 245.55829 251.39 257.2217 262.8434 268.25514 275.13685 280.54856 286.38026 293.47196 298.88368 301.98539 307.6071 310.0838 316.12553 320.06724 322.54396 326.48567 333.36738 338.77909 341.2558 348.1375 353.9692 360.4309 365.84263 369.15434 371.63105 378.09275 384.97447 390.38618 395.79789 401.2096 403.6863 409.72804 414.29975">lateral outgrowth of stem developed exogeneously at the node. These are</tspan><tspan y="-221.76" x="60 65.60261 70.15522 75.54783 80.94044 87.80305 90.26066 93.34327 100.20588 102.66349 108.0561 113.868709 116.95132 122.76392 129.83654 134.38915 136.84676 140.76937 146.58197 149.03957 155.48218 160.87479 165.4274 168.72 174.53261 179.08522 188.88784 191.34545 195.26805 202.13066 207.52327 209.98088 213.2735 220.34612 227.20873 232.60134 236.52394 239.60655 245.41916 252.28177 254.73937 260.55198 263.84458 266.3022 272.74479 279.6074 285.42 289.34263 295.15525 300.54786 306.15046 313.01307 316.93568 323.79829 329.1909 334.5835 337.6661 343.05873 346.35133 348.80894 355.04154 360.43415 366.45677 371.84938 377.24198 382.63459 385.0922 390.4848 396.29743 403.16004 406.24266 412.68525 415.76786">green in colour to perform the function of photosynthesis. Leaves exhibit</tspan><tspan y="-207.84" x="60 69.629108 75.4782 79.8573 86.1264 91.345508 97.61461 99.89741 105.11651 110.96561 115.3447 118.25381 124.102909 127.852008 130.76111 136.4002 143.08931 148.30841 150.5912 153.5003 160.1894 162.4722 166.2213 172.9104 178.1295 181.0386 185.41771 187.7005 192.9196 199.6087 205.45781 211.72692 216.94602 220.06511 222.3479 227.567 230.4761 235.2752 240.49431 243.6134 245.8962 255.5253 261.3744 265.75349 271.1826 274.09169 280.78077 283.89988 286.18269 292.03178 298.30088 303.51997 309.15907 311.44187 317.29096 323.98005 330.24916 332.53196 337.75105 343.39015 347.13926 352.35835 359.04743 362.79655 365.07936 370.71846 373.83757 376.12037 379.02946 385.71855 390.93763 393.8467 399.0658 401.97489 407.61399 414.30308">marked variations in their shape, size, margin, apex and extent of incisions</tspan><tspan y="-193.68" x="60 65.8354 69.1508 71.63291 74.73831 80.15371 86.19911 89.51451 91.99662 98.46202 101.56742 107.61282 114.078227 119.49362 121.97573 125.08113 128.18653 134.23192 144.05731 147.16272 154.04813 160.09352 163.19892">of leaf blade (lamina).</tspan><tspan y="-179.76" x="78 84.50801 91.43602 96.89403 100.337039 103.695049 106.843059 112.72107 120.90908 126.36709 130.98509 134.42812 137.57613 143.03414 146.47716 152.56517 156.0082 165.8762 171.75421 178.26222 181.41024 184.76825 187.91626 193.37427 199.88228 203.3253 208.78331 215.71132 221.58933 227.46733 231.45534 234.81336 238.25638 248.12439 253.5824 259.6704 266.59843 270.58644 274.02943 277.38743 283.26545 287.88346 291.32646 296.78446 302.24247 308.12049 315.25849 321.3465 324.4945 327.9375 332.5555 338.01353 344.5215 349.13954 355.01756 361.52555 368.66355 374.12156 378.10957 381.25758 387.1356 394.0636 397.4216 400.8646 407.3726 414.3006">The flower is a modified shoot, meant for sexual reproduction. The</tspan><tspan y="-165.84" x="60 63.3557 66.5014 72.377109 80.562808 86.01851 90.63421 96.08991 100.2289 106.3146 110.9303 116.386 120.52499 126.61069 131.2264 135.8421 141.9278 148.8535 154.5192 159.9749 166.4806 170.6196 173.7653 180.69101 184.83 191.33571 194.48142 197.83712 201.19281 206.64852 211.26422 216.71993 223.64563 227.63134 231.77033 235.75603 241.42173 247.92743 253.38314 258.83885 262.97785 268.85356 272.20927 276.34828 279.49397 286.41966 289.77537 292.92106 298.79676 303.41246 308.86814 314.32383 319.7795 325.2352 332.1609 337.61659 343.07228 348.52796 351.88368 356.02268 362.52839 369.45408 374.90977 380.57548 384.71449 390.17018 396.04588 402.97157 406.11726 412.62297 415.76866">flowers are arranged in different types of inflorescences. They exhibit</tspan><tspan y="-151.68" x="60 65.43071 72.33142 78.18213 82.77284 92.613559 98.464267 105.574977 111.005687 113.497509 118.928218 124.98892 129.57964 132.70035 138.76107 142.72177 145.84249 151.69319 158.5939 161.08573 164.20644 171.10715 173.59897 179.02968 182.99039 187.5811 194.6918 200.12252 204.08322 211.19393 215.78464 221.21535 224.54605 227.03787 232.46858 238.1093 247.95001 257.7907 263.22145 267.18217 271.77287 277.41358 280.7443 283.2361 289.71684 295.56755 300.99827 304.11897 308.07969 311.20039 317.0511 323.95179 326.4436 332.2943 335.62504 338.11686 343.96757 349.3983 355.45899 360.04969 365.6904 368.18223 371.30293 378.2036 380.69544 385.28614 390.71687 393.83757 399.89826 403.85899 406.97969 412.83039">enormous variation in structure, symmetry, position of ovary in relation</tspan><tspan y="-137.76" x="60 63.8121 69.5142 71.8613 77.5634 81.3755 88.1276 93.4097 97.8518 100.1989 106.531 112.4431 116.8852 120.6973 125.9794 129.1615 131.50859 137.42069 141.8628 146.3049 152.217 158.9691 164.4612 169.7433 179.4354 184.7175 191.4696 195.28171 197.6288 203.3309 206.513 208.86009 215.1922 220.4743 224.2864 230.1985 233.17061 238.45272 241.63481 243.9819 249.264 254.54611 260.8782 266.7903 269.76243 275.04454 278.22663 280.57374 286.27583 291.55793 298.52003 301.49214 306.77424 312.05635 314.40345 319.68556 323.49766 328.77976 331.96186 334.30897 341.27107 344.45317 348.26527 353.54737 357.98948 360.33659 363.51869 368.80079 373.2429 377.055 380.0271 382.9992 385.9713 391.25343 397.16554 400.97764 403.94975 409.65184 416.40394">to other parts, arrangement of petals, sepals, ovules etc. After fertilisation,</tspan><tspan y="-123.84" x="60 63.9868 70.913608 76.37041 78.94392 84.82072 90.27752 96.36432 100.98112 106.64792 109.22143 112.368228 117.82503 120.39854 130.26534 136.14214 142.64894 145.79575 149.15254 152.29935 157.75615 164.26296 166.83646 169.98326 176.91007 180.89687 186.77367 189.34717 192.70397 197.32077 204.45757 207.60437 211.59117 217.04798 219.62148 225.70829 232.63509 239.14189 241.7154 247.5922 253.049 260.1858 263.33259 268.78938 274.24617 276.81968 279.96647 286.89326 290.88005 296.75685 299.33036 304.78715 310.24394 315.7007 322.20753 327.6643 331.02113 333.59465 340.52143 345.9782 351.435 357.9418 363.3986 365.9721 371.4289 374.57569 378.56248 385.48927 390.94606 395.56285 398.13636 408.00315 414.08995">the ovary is modified into fruits and ovules into seeds. Seeds either may</tspan><tspan y="-109.68" x="60 66.5086 71.9672 75.52579 85.39439 91.27299 98.201587 104.080188 109.53879 115.41739 119.40599 125.07459 128.22319 133.6818 140.1904 146.069 152.9976 158.8762 166.0148 171.4734 175.032 180.9106 185.5292 189.0878 195.5964 198.74501 204.20362 210.08222 214.07082 219.73941 222.88802 228.34662 234.85523 240.73383 247.66243 253.54103 260.67964 266.1382 269.49684 273.05543 279.56404 286.4926 291.9512 297.6198 301.1784 306.637 312.7256 317.34419 323.0128 326.57139 329.71998 336.64857 340.20716 345.66575 352.59434 358.68293 365.19154 370.65013 374.00874 377.56733 383.0259 386.1745 391.2131 396.6717 400.2303 406.31889 413.24748">be monocotyledonous or dicotyledonous. They vary in shape, size and</tspan><tspan y="-95.76" x="60 66.3343 71.6186 76.0629 79.03719 84.74149 91.07579 93.425098 99.129398 102.3137 104.663 109.9473 112.9216 118.8359 125.1702 128.1445 131.1188 134.09311 137.90741 143.4017 146.586 148.93529 155.26959 162.0239 167.3082 169.65749 172.84178 175.81609 181.52039 185.96469 191.879 194.8533 197.20259 202.4869 209.2412 215.1555 219.59981 225.51412 230.79842 234.61272 239.89702 244.34133 247.31563 252.59993 256.4142 259.38853 264.67283 269.95713 272.30644 275.49073 281.195 285.6393 295.33363 297.68293 301.49723 308.25154 313.53584 315.88514 322.21943 328.13374 333.41804 336.39234 341.67665 344.02595 349.73023 352.91453 355.26383 360.54814 363.52244 369.43675 374.72105 380.00535 382.97966 386.16395 389.13825 394.42256 400.33686 404.15116 407.12547 412.82978">period of viability. The floral characteristics form the basis of classification</tspan></text>
<g clip-path="url(#clip_8667)">
<text xml:space="preserve" transform="matrix(1 0 -0 1 291.32 747.4419)" font-size="8" font-family="Arial"><tspan y="6.316" x="0 4.4480006 8.896001 13.344002 17.792002 20.456002 24.904002">2024-25</tspan></text>
</g>
</g>
</svg>
