<svg xmlns="http://www.w3.org/2000/svg" xmlns:xlink="http://www.w3.org/1999/xlink" xmlns:inkscape="http://www.inkscape.org/namespaces/inkscape" version="1.1" width="612" height="784.0048" viewBox="0 0 612 784.0048">
<defs>
<clipPath id="clip_4230">
<path transform="matrix(1,0,0,-1,0,801.711)" d="M0 17.7062H612V801.711H0Z" clip-rule="evenodd"/>
</clipPath>
<clipPath id="clip_4231">
<path transform="matrix(1,0,0,-1,0,801.711)" d="M291.32 43.99H320.67V54.64H291.32Z"/>
</clipPath>
<clipPath id="clip_4232">
<path transform="matrix(1,0,0,-1,0,801.711)" d="M192.012 588.816H553.002V629.923H192.012Z"/>
</clipPath>
</defs>
<g>
<g clip-path="url(#clip_4230)">
<path transform="matrix(1,0,0,-1,0,801.711)" d="M.48 .48H611.51998V51.52H.48Z" fill="#cbdf7f" fill-rule="evenodd"/>
<path transform="matrix(1,0,0,-1,.47999997,801.231)" stroke-width=".96" stroke-linecap="butt" stroke-miterlimit="1000" stroke-linejoin="miter" fill="none" stroke="#cbdf7f" d="M0 0H611.04V51.04H0Z"/>
<path transform="matrix(1,0,0,-1,0,801.711)" d="M0 728.6H612V809.44998H0Z" fill="#d1d3d4" fill-rule="evenodd"/>
<path transform="matrix(1,0,0,-1,0,801.711)" d="M0 738.8H612V820.8H0Z" fill="#e1ecb6" fill-rule="evenodd"/>
<path transform="matrix(1,0,0,-1,80.63619,52.546205)" d="M0 0C1.76 1.76 3.88 2.63 6.36 2.63H23.36C25.85 2.63 27.97 1.76 29.73 0 31.49-1.76 32.36-3.88 32.36-6.36V-24.36C32.36-26.85 31.49-28.97 29.73-30.73 27.97-32.49 25.85-33.36 23.36-33.36H6.36C3.88-33.36 1.76-32.49 0-30.73-1.76-28.97-2.64-26.85-2.64-24.36V-6.36C-2.64-3.88-1.76-1.76 0 0" fill="#ffffff" fill-rule="evenodd"/>
<text fill="#231f20" xml:space="preserve" transform="matrix(1 0 -0 1 0 801.711)" font-size="11" font-family="Bookman"><tspan y="-729.361" x="87.12 94.259">94</tspan></text>
<text fill="#231f20" xml:space="preserve" transform="matrix(1 0 -0 1 0 801.711)" font-size="11" font-family="Bookman"><tspan y="-729.361" x="513.117">B</tspan></text>
<text fill="#231f20" xml:space="preserve" transform="matrix(1 0 -0 1 0 801.711)" font-size="7.69999" font-family="Bookman"><tspan y="-729.361" x="521.04 523.4347 529.3714 533.76809 539.7048 545.6415">IOLOGY</tspan></text>
<path transform="matrix(1,0,0,-1,0,-.7290039)" stroke-width=".24" stroke-linecap="butt" stroke-miterlimit="10" stroke-linejoin="miter" fill="none" stroke="#000000" d="M0 0H14.4"/>
<path transform="matrix(1,0,0,-1,18.12,-19.08899)" stroke-width=".24" stroke-linecap="butt" stroke-miterlimit="10" stroke-linejoin="miter" fill="none" stroke="#000000" d="M0 0V-14.4"/>
<path transform="matrix(1,0,0,-1,0,783.591)" stroke-width=".24" stroke-linecap="butt" stroke-miterlimit="10" stroke-linejoin="miter" fill="none" stroke="#000000" d="M0 0H14.4"/>
<path transform="matrix(1,0,0,-1,18.12,787.071)" stroke-width=".24" stroke-linecap="butt" stroke-miterlimit="10" stroke-linejoin="miter" fill="none" stroke="#000000" d="M0 0V-14.4"/>
<path transform="matrix(1,0,0,-1,611.64,783.471)" stroke-width=".24" stroke-linecap="butt" stroke-miterlimit="10" stroke-linejoin="miter" fill="none" stroke="#000000" d="M0 0V-18"/>
<text fill="#231f20" xml:space="preserve" transform="matrix(1 0 -0 1 0 801.711)" font-size="10.5" font-family="Bookman"><tspan y="-689.521" x="210.24 217.38 224.2995 226.872 230.02199 239.89199 246.40198 251.01148 256.89149 262.35148 267.80097 274.31098 276.88346 286.75346 292.62297 299.13298 304.59297 307.74296 310.31544 316.19544 319.55543 322.1279 324.70039 328.69038 335.60987 341.06986 343.64234 349.10234 353.09233 357.7018 364.84184 370.30183 374.2918 381.42134 386.04133 391.5013 394.0738 399.9433 403.30329 405.87577 411.33576 416.78526 419.93525 423.08525 425.6577 435.5277 440.9772 450.8472 457.3572 461.9772 468.0567 474.9867 480.4467 483.01918 491.19868 497.28868 502.74867 505.32115 511.82066 516.4407 522.3207 528.8202 534.7002 540.1602 545.62026">An improved model of  the structure of cell membrane was proposed</tspan><tspan y="-675.3565" x="192.24301 198.74251 204.40201 207.7095 214.629 217.7685 224.68799 230.34749 235.797 240.4065 243.71399 249.79349 256.71299 263.2125 266.52 274.27949 277.41899 282.86848 288.73799 291.87748 297.32698 303.19648 310.11598 313.42347 316.56297 323.06248 329.56199 336.0615 342.561 345.7005 349.008 357.1875 360.327 366.8265 372.276 375.4155 381.075 384.3825 390.462 395.9115 401.361 406.8105 413.31 417.2895 422.73899 429.2385 432.546 438.6255 444.07499">by Singer and Nicolson (1972) widely accepted as </tspan></text>
<text fill="#231f20" xml:space="preserve" transform="matrix(1 0 -0 1 0 801.711)" font-size="10.5" font-family="Bookman"><tspan y="-675.3565" x="447.54 451.56153 455.16304 462.1245 465.936 472.6875 476.2365 486.768 493.3095 498.80104 504.92253 508.734 514.8555 518.40457 528.93606 535.47756 542.22909 548.3506">fluid mosaic model</tspan></text>
<text fill="#231f20" xml:space="preserve" transform="matrix(1 0 -0 1 0 801.711)" font-size="10.5" font-family="Bookman"><tspan y="-661.4335" x="192.24301 195.393 202.113 205.263 210.933 218.073 222.693 228.153 232.227 238.737 242.097 248.607 251.75699 255.11699 259.19099 266.331 271.791 277.25099 283.13099 287.75099 294.261 297.41099 304.34098 310.011 314.08497 318.07496 323.95497 328.02894 332.01893 338.9489 342.0989 347.5589 350.91889 354.99287 358.98286 365.91285 371.37284 375.4468 381.5368 388.67683 394.7668 400.2268 403.3768 407.5768 410.9368 414.0868 421.2268 424.3768 430.8868 434.9608 441.89079 447.98078 451.97077 459.11079 463.73078 469.19078 473.26475 479.14476 482.50474 486.5787 489.7287 492.8787 499.3887 502.5387 509.0487 513.1227 518.5827 525.5127 531.6027 538.11276 541.26278 546.7228">(Figure 8.4). According to this, the quasi-fluid nature of lipid enables</tspan><tspan y="-647.521" x="192.24301 195.19362 201.08423 204.87483 210.13544 214.55605 220.44666 223.39727 225.71787 235.38848 241.06908 246.32968 251.59029 261.2609 266.5215 273.2521 277.04273 279.36335 285.04396 288.20457 290.52519 296.8358 301.443 307.1235 310.914 316.1745 319.125 325.8555 331.116 333.447 341.4375 344.388 348.1785 354.909 357.8595 364.59 366.921 370.7115 377.442 382.70249 385.03349 390.714 395.9745 401.235 405.6555 411.546 414.4965 417.447 419.77799 426.0885 429.039 431.9895 437.88 443.3505 448.611 452.4015 455.5621 457.88273 464.19334 470.92393 473.8745 479.13514 481.45576 487.34635 493.65696 496.60755 499.55815 502.50874 506.29936 511.76997 514.0905 517.8811 523.5617 525.88229 535.55288 541.23348 546.4941">lateral movement of proteins within the overall bilayer. This ability to move</tspan><tspan y="-633.346" x="192.24301 200.41211 203.54122 207.51032 214.41942 217.54853 224.45763 226.95674 230.92584 237.83495 243.27405 245.77317 255.62227 261.06138 270.91047 277.39958 281.99867 288.06776 294.97688 300.416 302.9151 306.04423 311.48335 313.98246 323.83155 329.27067 335.33976 340.77888 347.89799 352.49708 357.9362 364.4253 366.9244 372.9935 378.43263 380.93174 384.06086 388.02998 393.4691 395.9682 399.3073 402.43644 409.55555 412.68467 419.17378 422.3029 426.272 431.9211">within the membrane is measured as its fluidity.</tspan><tspan y="-619.423" x="210.24 216.72911 223.63822 229.07732 231.57643 234.91555 238.04465 245.16376 248.29286 254.78197 257.28108 264.1902 270.25929 274.2284 281.3475 285.9466 291.3857 293.88484 299.74394 303.08305 305.58216 309.55128 316.4604 321.8995 324.39863 334.24775 339.68687 349.53596 356.02507 360.62416 366.69325 373.60237 379.04148 381.5406 384.6697 390.10884 392.60795 398.67704 401.80616 407.24528 413.10438 415.6035 418.7326 428.58174 435.07084 440.92994 445.52903 449.49815 455.56724 462.47636 466.44548 468.94459 472.2837 476.88279 482.74189 492.591 495.09013 499.05924 505.96836 511.40748 513.90658 520.3956 526.25479 529.38388 536.29299 540.2621 542.76119 548.6203">The fluid nature of the membrane is also important from the point of</tspan><tspan y="-605.521" x="192.24301 197.70302 200.85301 206.31302 214.50302 218.17803 224.05803 227.41803 231.09304 234.45304 241.59304 248.52304 253.98305 257.97306 261.12306 267.00306 273.93305 279.39305 283.06803 286.21803 289.368 295.87803 301.338 305.013 310.473 315.93299 319.08299 322.23298 325.90797 331.57798 336.19798 342.07798 350.26799 354.25798 361.18797 364.54795 368.22294 371.58293 377.46293 382.08293 391.9529 398.0429 402.0329 405.1829 411.0629 417.9929 421.65739 427.53739 430.89738 434.57237 437.72236 444.65235 448.64234 454.10234 458.72233 464.1823 469.6423 472.7923 475.9423 483.0823 486.2323 492.3223 496.9423 500.60679 503.75679 510.8968 517.8268 523.2868 527.2768 530.4268 536.3068 543.2368 548.69686">view of functions like cell growth, formation of intercellular junctions,</tspan><tspan y="-591.3355" x="192.24301 197.61911 202.99521 208.3713 212.90741 218.28351 222.18962 225.25572 231.05184 237.89794 241.17404 243.61016 248.98625 255.83235 262.25846 268.05458 273.43067 279.01679 282.92289 288.719 294.0951 297.1612 302.5373 305.8134 308.24949 313.62559 319.00169 322.06779 325.13389 327.56999 333.9961 337.0622 342.4383 345.5044 350.8805 353.9466 359.7427 366.5888 369.0249 374.401 378.3071 383.6832">secretion, endocytosis, cell division etc.</tspan><tspan y="-577.4125" x="210.24 218.64 225.57 231.03002 233.60251 239.48252 242.84252 245.41501 249.40502 256.33503 261.795 264.3675 274.2375 280.1175 285.57749 289.56748 292.13996 295.28996 305.15995 311.66996 317.54997 322.16996 326.15995 332.24995 339.17994 343.16993 345.7424 349.1024 356.2424 363.1724 368.6324 372.62239 375.77238 381.65238 388.58238 394.04237 396.61485 402.49485 405.85484 408.4273 412.4173 419.3473 424.80729 427.37977 433.88978 437.03977 443.12977 448.58976 458.45976 464.54975 467.12223 476.99223 482.4522 492.3222 498.8322 503.4522 509.5422 516.4722 521.93228 524.50479 527.6548 533.1148 535.6873 539.6773 546.6073">One of the most important functions of the plasma membrane is the</tspan><tspan y="-563.521" x="192.24301 195.94962 200.28623 206.09284 212.73944 217.91605 224.14266 229.73926 234.07587 237.78247 240.01908 245.61568 248.69228 250.92888 254.63549 261.28208 266.45869 268.69529 278.2819 283.8785 286.74513 291.92173 297.09834 303.95494 306.82154 311.99815 317.17475 319.41136 325.21797 330.39457 334.73118 340.3278 345.5044 350.681 352.9176 355.7842 359.4908 362.5674 364.80403 371.0306 377.67723 382.85383 385.09043 394.67704 399.85365 409.44026 415.66685 420.00346 425.81007 432.45668 437.63328 439.86988 442.73649 447.9131 450.1497 455.3263 460.5029 463.3695 468.5461 473.72273 477.42933 480.29594 485.47254 490.64915 493.51576 498.90235 501.13896 507.36555 512.5421 516.8787 526.46536 531.64199 537.44857 543.6752 546.54177">transport of the molecules across it. The membrane is selectively permeable</tspan><tspan y="-549.325" x="192.24301 196.18051 202.00801 204.47551 209.88301 215.71051 225.52802 230.93552 233.40302 243.22052 249.04802 252.14553 257.553 262.9605 270.048 273.1455 278.553 283.9605 286.428 292.8855 297.453 302.8605 308.268 313.6755 320.553 324.4905 326.958 332.78553 339.66304 342.13053 347.53804 350.63554 354.57304 361.45054 366.85804 371.42555 373.89305 379.30055 382.39805 388.85554 394.26304 396.73054 402.55805 405.86555 408.33305 411.43055 415.36805 418.67555 421.14305 430.75056 436.78807 443.66557 449.28306 451.75056 461.56806 467.39558 470.49308 475.90058 481.30809 488.39558 491.49308 496.90058 502.30809 504.77558 510.18309 516.2206 523.0981 525.56558 535.38308 541.2106 546.61807">to some molecules present on either side of it. Many molecules can move</tspan><tspan y="-535.402" x="192.24301 198.69011 203.24721 206.33432 211.73143 215.02854 218.11565 223.72275 226.17986 232.20696 237.60407 242.16117 247.97827 253.37538 258.7725 261.2296 265.1567 272.0238 277.4209 279.87803 289.68513 295.0822 304.8893 311.33644 315.89353 321.92063 328.78773 334.1848 336.64195 344.76905 347.85615 351.78324 358.65034 364.46745 371.54457 375.47166 377.92878 383.95588 390.82298 396.43009 398.8872 403.4443 408.8414 414.8685 421.94563 425.0327 429.5898 434.9869 444.794 450.1911 457.0582 460.9853 463.4424 469.25953 472.55665 475.01377 480.41087 487.27796 492.67506 497.23216 502.83927 508.44639 510.9035 516.9306 523.7977 530.2448 532.7019 536.629 543.49618 546.58328">briefly across the membrane without any requirement of energy and this</tspan><tspan y="-521.521" x="192.24301 195.39302 200.85303 204.48603 209.94603 216.04653 219.19654 222.34654 227.80655 234.31655 237.94954 241.93955 248.86956 254.32956">is called the </tspan></text>
<text fill="#231f20" xml:space="preserve" transform="matrix(1 0 -0 1 0 801.711)" font-size="10.5" font-family="Bookman"><tspan y="-521.521" x="257.763 264.5879 270.78279 276.34767 281.91255 285.79743 292.20234 298.39723 302.4186 307.35353 312.28843 318.4833 325.7282 331.2931 338.11799 344.73289 349.6678">passive transport</tspan></text>
<text fill="#231f20" xml:space="preserve" transform="matrix(1 0 -0 1 0 801.711)" font-size="10.5" font-family="Bookman"><tspan y="-521.521" x="354.47853 357.8385 361.482 369.25199 374.71199 381.852 385.84199 390.46199 396.55198 399.70198 403.34547 408.80546 414.68547 417.83546 424.97547 428.96546 434.42546 439.88545 443.52894 453.39894 459.48893 465.15895 468.80244 478.67243 484.55244 490.01243 495.4724 499.1159 505.2059 510.6659 515.2859 521.1659 526.6259 532.08596 535.72946 539.7194 546.6494">. Neutral solutes may move across the</tspan><tspan y="-507.31449" x="192.24301 202.113 207.57302 217.44301 223.953 228.573 234.663 241.59299 247.053 250.9485 257.4585 263.1285 267.024 271.01399 277.94398 283.40397 287.29945 293.80946 298.42945 304.30946 309.76945 315.22944 320.68943 326.1494 330.0449 335.9249 339.28489 343.18037 348.64036 351.79035 361.66035 368.17036 371.32035 376.78034 380.6758 387.18583 390.33583 393.6958 397.0558 404.1958 409.6558 412.8058 418.6858 425.61579 429.51127 435.60127 438.75126 444.63127 451.56126 457.23127 461.12675 465.11674 472.04673 477.5067 481.4022 486.86219 492.7422 499.67219 505.13218 510.59217 517.52218 521.51217 526.13217 532.22219 536.21218 539.3622 545.2422">membrane by the process of simple diffusion along the concentration</tspan><tspan y="-493.39149" x="192.24301 197.71363 202.13423 208.02484 214.33545 217.28606 222.54666 229.27727 233.06787 236.22847 238.55957 241.51018 244.67078 249.93138 253.09198 256.2526 258.5837 261.74433 266.163 271.854 281.535 283.866 290.607 293.568 299.04899 305.78999 311.06098 315.49198 317.82298 323.09397 328.78498 335.52598 340.79698 346.06797 352.80897 356.60997 361.04096 366.94197 370.74296 373.70396 379.39497 386.13597 388.46696 392.26795 397.95896 400.28996 404.09095 410.83195 416.10295 418.43394 421.39494 427.08595 435.08695 440.35795 444.00154 447.183 449.5245 458.6385 464.5395 468.34049 473.61149 478.04249 480.37348 490.05448 495.95549 501.43647 503.76747 509.66847 512.62948 517.90048 523.59146 525.9224 535.60348 541.29446 546.5654">gradient, i.e., from higher concentration to the lower. Water may also move</tspan><tspan y="-479.521" x="192.24301 198.33301 203.79302 208.41301 214.29302 219.75302 225.21303 227.75403 231.74404 238.67404 241.82404 247.28404 249.82505 259.69505 265.15504 275.02503 281.53504 286.15504 292.24504 299.17503 304.635 307.1655 310.52549 315.14549 321.02549 330.89549 333.42597 340.35597 343.50596 349.17597 356.10597 361.56596 366.18595 368.71644 372.70643 378.58644 381.1274 384.2774 390.1574 398.3474 403.8074 408.4274 410.9579 416.41789 422.29789 429.22789 434.68788 440.14787 447.07786 451.06785 455.68785 461.77784 465.76783 468.91783 474.79783 481.7278 485.0878 487.6183 497.2783 503.1583 508.6183 514.0783 523.9483 529.4083 536.3383 540.3283 542.85879 548.7388">across this membrane from higher to lower concentration. Movement of</tspan><tspan y="-465.30403" x="192.24301 200.37012 206.39722 210.32433 215.72144 220.27854 222.74614 229.19324 234.80034 237.26795 243.71504 246.80216 250.09926 253.39636 260.47349 265.87059 268.95768 274.77479 281.64189 284.1095 287.1966 292.5937 295.0613 300.4584 306.4855 309.5726 312.6597 318.0568 324.5039">water by diffusion is called </tspan></text>
<text fill="#231f20" xml:space="preserve" transform="matrix(1 0 -0 1 0 801.711)" font-size="10.5" font-family="Bookman"><tspan y="-465.30403" x="326.79 333.30003 338.76 349.26 355.77003 361.23 365.01">osmosis</tspan></text>
<text fill="#231f20" xml:space="preserve" transform="matrix(1 0 -0 1 0 801.711)" font-size="10.5" font-family="Bookman"><tspan y="-465.30403" x="370.47004 373.76716 376.22428 383.3014 388.6985 391.1556 395.0827 401.9498 407.3469 409.80403 416.25114 422.06825 425.15534 431.18244 435.73954 438.19667 448.00376 453.82087 456.90797 462.30506 467.70216 474.77928 477.86637 483.26347 488.66056 491.11769 496.51478 502.54188 509.40898 516.27609 522.09317 526.02029 528.47738 534.92446 540.95156 546.34866">. As the polar molecules cannot pass</tspan><tspan y="-451.38099" x="192.24301 196.26451 203.22602 207.84601 213.72602 220.86602 226.53601 233.466 236.679 240.669 247.599 253.059 256.272 263.202 269.082 276.012 282.522 288.402 291.552 297.642 302.262 305.47499 308.62498 311.77497 318.28498 321.43498 327.94499 331.15797 337.66798 340.81797 343.96797 350.05796 355.72798 361.18797 365.28297 368.64295 371.85594 375.84593 382.7759 388.2359 393.9059 397.1189 401.73899 407.18849 413.26799 420.39747 423.52647 428.16746 433.61695 436.81944 442.89894 446.1014 451.5509 457.6304 462.2399 466.8494 469.9889 475.4384 480.04789 483.25038 489.74989 494.412 500.3025 504.30299 509.77348 512.93399 519.87448 523.09799 528.98849 532.35897 535.58248 539.58297 546.52346">through the nonpolar lipid bilayer, they require a carrier protein of the</tspan><tspan y="-437.521" x="192.25351 202.1235 207.58351 217.4535 223.9635 228.5835 234.6735 241.60349 247.06349 249.6675 253.6575 259.5375 262.14149 265.50148 271.59147 277.05146 280.20146 283.35145 286.50144 290.49143 296.58143 300.5714 306.0314 308.63539 312.62538 319.55537 325.01536 328.16535 332.78535 335.3893 339.3793 343.9993 350.0893 357.0193 362.47929 368.9893 374.8693 379.4893 383.47929 386.08326 392.17326 397.63325 402.25325 408.13325 413.59324 419.05323 421.6572 425.6472 432.57719 438.03718 440.64115 450.51115 455.97114 465.84114 472.35115 476.97114 483.06114 489.99113 495.4511 498.8111 501.41508 508.55509 511.15907 514.51907 519.97909 528.16909 530.7731 533.9231 539.8031 546.7331">membrane to facilitate their transport across the membrane. A few ions</tspan><tspan y="-423.2935" x="192.25351 198.3959 203.2783 208.57019 218.70259 224.84499 228.25739 233.97978 239.70218 247.10457 250.51697 256.23936 261.96174 267.25364 273.60603 278.4884 284.2108 289.5027 293.75508 298.63746 304.98985 312.18223 317.9046 324.677 330.8194 335.70179 339.95417 345.67655 352.44895 357.75135 364.10374 369.8261 374.7085 380.8509 386.57328 392.29566 397.59806 401.85044 409.04283 414.7652 420.0571 430.18949 435.91188 446.04426 452.81666 457.69905 464.05143 471.2438 476.9662 482.2686 488.62098 494.55339 500.90577 504.31816 511.51054 517.2329 521.4853 526.78768 531.04006 538.2324 543.95486 547.36727">or molecules are transported across the membrane against their</tspan><tspan y="-409.37049" x="192.25351 197.58751 203.3415 210.156 215.49 220.8345 227.6385 231.5025 235.9965 241.97101 245.835 248.85901 254.613 261.42753 263.83204 269.37605 273.88053 279.8445 286.22853 289.2525 294.59703 301.40104 305.26506 308.49906 310.90357 313.92756 317.17207 322.50608 325.74009 328.9741 331.3786 334.6126 339.1066 344.8711 354.61509 357.0196 360.05409 365.80809 373.87208 379.2061 383.71058 386.11509 389.9791 395.7331 398.1376 402.00163 408.80564 414.15016 416.55467 423.35868 426.3932 431.9372 438.7412 444.07524 448.5797 450.98423 456.31825 462.08274 468.88676 474.22077 479.55479 486.3693 490.2333 494.7273 500.70179 504.5658 507.58979 513.3438 520.1583 523.39236 525.7968 532.6113 539.6253 544.9593">concentration gradient, i.e., from lower to the higher concentration. Such</tspan><tspan y="-395.521" x="192.25351 198.30162 200.77973 204.72783 209.30594 215.35405 222.24216 227.66027 234.12837 239.96648 244.54459 248.49269 250.9708 254.0789 259.497 261.97514 268.02323 274.91133 277.38945 282.80754 289.69563 295.1137 299.6918 305.31993 310.94804 313.42616 319.89427 325.31236 331.78047 337.19856 344.08665 350.55476 355.97285 362.86094 366.80906 369.28718 375.75529 380.33338 386.17149 391.58958 397.00767 402.42576 407.84385 411.16197 413.64009 416.74818 423.63627 426.11439 434.26249 441.15058 444.25868 449.67677 456.56486 459.04298 466.14109 472.6092 479.0773 481.55543 484.6635 490.0816 492.55973 499.65785 503.60597 506.71406 509.82215 512.93026 518.3483 523.7664 530.2345 532.7126 538.7607 545.6488">a transport is an energy dependent process, in which ATP is utilised and</tspan><tspan y="-381.283" x="192.25351 195.393 200.8425 203.373 208.8225 214.902 218.04149 221.18099 226.63048 233.12998">is called </tspan></text>
<text fill="#231f20" xml:space="preserve" transform="matrix(1 0 -0 1 0 801.711)" font-size="10.5" font-family="Bookman"><tspan y="-381.283" x="235.44 241.49861 247.55722 252.35584 256.10444 262.37306 268.43165 271.02525 275.82386 280.62248 286.68107 293.78968 299.2183 305.9069 312.3855 317.1841">active transport</tspan></text>
<text fill="#231f20" xml:space="preserve" transform="matrix(1 0 -0 1 0 801.711)" font-size="10.5" font-family="Bookman"><tspan y="-381.283" x="322.3275 325.656 328.155 333.5835 336.912 342.55049 345.87898 349.20747 351.70646 359.44496">, e.g., Na</tspan></text>
<text fill="#231f20" xml:space="preserve" transform="matrix(1 0 -0 1 0 801.711)" font-size="6.09999" font-family="Bookman"><tspan y="-384.9606" x="365.5202">+</tspan></text>
<text fill="#231f20" xml:space="preserve" transform="matrix(1 0 -0 1 0 801.711)" font-size="10.5" font-family="Bookman"><tspan y="-381.3606" x="369.1202 375.4831">/K</tspan></text>
<text fill="#231f20" xml:space="preserve" transform="matrix(1 0 -0 1 0 801.711)" font-size="6.09999" font-family="Bookman"><tspan y="-384.9606" x="383.0402">+</tspan></text>
<text fill="#231f20" xml:space="preserve" transform="matrix(1 0 -0 1 0 801.711)" font-size="10.5" font-family="Bookman"><tspan y="-381.3606" x="386.6402 389.1182 395.59669 402.70518 412.54368 419.02217"> Pump.</tspan></text>
<text fill="#00aeef" xml:space="preserve" transform="matrix(1 0 -0 1 0 801.711)" font-size="12" font-family="Bookman"><tspan y="-355.2006" x="192.2402 200.2202 204.3602 212.3402 216.4802 234.2402 242.91632 249.67244 253.54856 257.42469 260.2568 271.33293 278.08906 281.96519">8.5.2Cell Wall</tspan></text>
<text fill="#231f20" xml:space="preserve" transform="matrix(1 0 -0 1 0 801.711)" font-size="10.5" font-family="Bookman"><tspan y="-335.0406" x="192.2402 199.3802 204.84021 207.67522 213.34522 219.22522 226.36522 229.20023 239.07022 245.16022 250.83022 253.66522 258.28523 263.7452 269.2052 275.2952 278.4452 281.59519 284.95518 287.79017 293.88017 296.71516 303.64515 309.52516 316.45515 320.65516 323.80516 326.95515 332.41514 335.56513 342.49513 348.16514 351.00013 355.62013 358.7701 364.44013 367.59013 374.10014 376.93513 382.3951 386.3851 391.0051 398.1451 403.6051 407.5951 414.7351 419.3551 424.8151 427.6501 433.11009 439.20008 442.35008 445.50007 450.96006 457.47007 460.30506 464.29505 471.22505 476.68504 479.52003 484.98 490.44 493.59 496.74 499.57499 507.76499 513.855 517.005 520.155 522.99 526.35 532.23 536.85 546.72">As you may recall, a non-living rigid structure called the cell wall forms</tspan><tspan y="-321.11759" x="192.2402 198.2463 205.0924 207.52852 213.32463 220.38074 224.28685 229.66295 234.19905 236.63516 242.01126 247.80738 253.18347 258.55958 263.09568 266.16178 273.00788 278.594 281.0301 284.30619 290.1023 294.6384 297.0745 300.9806 307.8267 313.2028 315.6389 322.065 325.1311 331.1372 336.5133 346.2994 352.3055 354.7416 364.5277 369.9038 379.6899 386.11604 390.65214 396.65824 403.50434 408.88044 411.31654 417.11265 420.38874 422.82484 426.10093 433.157 440.0031 445.58924 448.65534 451.09144 457.09754 463.94364 470.36976 472.80586 479.23197 482.29808 488.30418 495.15028 499.05638 504.43247 507.70857 510.14466 517.83078 523.20687 526.27297 529.33908 531.77517 539.8812 545.8873 548.9534">an outer covering for the plasma membrane of fungi and plants. Cell wall</tspan><tspan y="-306.9531" x="192.2402 199.1702 205.0502 209.0402 212.8307 218.71071 225.64072 228.79071 234.46071 238.2512 243.9212 247.0712 252.5312 257.9912 263.4512 267.2417 272.7017 279.63169 285.72169 292.2317 297.69169 301.48219 305.47218 311.35218 315.14268 319.13267 326.06266 331.52265 335.31315 340.77314 346.23313 349.38313 352.5331 356.3236 362.4136 369.3436 375.8536 379.6441 386.1541 390.7741 396.6541 400.6441 406.1041 411.5641 415.55409 421.01408 424.80458 428.79457 435.72456 441.18455 444.97505 450.43504 455.89503 459.045 462.195 465.9855 469.3455 473.96549 479.8455 489.71549 493.50599 503.37599 508.83598 514.29598 521.22598 527.316 534.246 537.396 542.856 548.94607">not only gives shape to the cell and protects the cell from mechanical</tspan><tspan y="-293.0406" x="192.2402 198.6347 204.6092 214.36371 220.33821 225.89272 231.23722 233.65222 239.62673 246.44123 252.83573 255.24024 258.27473 265.08924 268.33375 273.67826 279.02278 282.89729 285.93177 291.69627 298.51078 301.75529 304.1703 307.20478 311.07929 313.4943 319.46879 322.5033 327.8478 333.6123 336.0273 342.84184 348.18635 351.22084 357.61534 362.95985 365.36436 368.39888 375.21339 377.6179 382.9624 388.30693 391.34144 394.37593 398.46043 402.33494 408.09944 412.18394 417.52845 422.87297 425.90748 428.94197 431.34648 434.38099 441.1955 445.07 450.41453 454.919 460.8935 466.238 470.11253 473.14704 478.91154 485.72605 488.13056 494.10505 500.91957 507.31407 509.71858 516.11306 520.61758 526.3821 531.72659 534.76107 541.1555 546.5">damage and infection, it also helps in cell-to-cell interaction and provides</tspan><tspan y="-279.1071" x="192.2402 198.7502 204.8402 209.46019 214.08019 217.23018 222.67969 227.29969 231.57318 235.56319 241.44319 245.71669 252.85669 259.78669 266.2862 271.7462 277.20619 280.35618 284.97618 291.06617 297.57618 300.72618 306.18617 310.45967 320.32966 326.41966 331.87965 336.49964 342.37965 352.24964 358.12965 361.26914 366.72914 372.18913 379.32914 382.47914 387.93913 393.3991 396.7591 401.0326 408.1726 411.3226 416.9926 423.0826 428.5426 432.8161 439.7461 445.8361 451.29609 456.75608 461.02958 466.48957 471.94956 475.09956 478.24955 482.52305 490.71305 496.80305 499.95304 503.10304 506.463 510.7365 520.6065 526.69656 533.20657 538.66659 542.94009 548.82009">barrier to undesirable macromolecules. Algae have cell wall, made of</tspan><tspan y="-264.9426" x="192.2402 197.5218 202.8034 205.77501 208.74662 215.70822 218.67983 224.38143 229.66303 234.94463 238.12624 240.46785 245.95946 251.87107 254.84267 260.75428 266.0359 269.8475 275.7591 282.5107 287.79234 290.97395 293.31556 303.00718 308.91877 315.67039 322.422 328.3336 335.0852 340.36683 342.70845 348.62004 355.37165 361.70326 364.04487 373.73649 376.7081 383.45973 388.74134 393.18296 399.09455 402.06617 407.34779 409.6894 412.661 415.63264 421.96424 427.24586 429.58747 434.86909 440.78068 443.7523 449.0339 452.00553 458.96714 468.65876 471.00038 476.28199 482.19358 486.6352 492.9668 498.6684 505.42 511.3316 515.1432 520.4248 523.6064 525.94796 533.95956 540.7111 543.68276 546.65438">cellulose, galactans, mannans and minerals like calcium carbonate, while</tspan><tspan y="-251.04059" x="192.2402 195.19081 201.92142 204.24202 209.92263 213.71323 220.44384 225.70444 230.12505 232.44565 238.75626 241.70687 247.59748 254.32808 258.11869 263.3793 265.69993 268.6505 272.44114 274.76176 280.02238 285.70298 292.43357 297.69419 300.64479 305.9054 309.696 314.95664 317.27726 322.95787 326.11848 328.4391 333.6997 338.96034 341.91093 344.8615 351.80213 354.75273 360.43333 365.69395 370.95457 374.11518 376.4358 383.16639 388.427 398.0976 401.0482 406.3088 411.56944 414.52003 417.4706 424.41123 427.36183 433.04243 438.30305 443.56367 446.72428 449.0449 455.3555 460.61613 465.87675 469.66737 472.61796 479.34855 484.60917 486.92979 492.82038 499.55097 505.86158 508.1822 514.4928 518.9134 524.594 528.3846 533.6452 536.5958 543.3264 548.58706">in other plants it consists of cellulose, hemicellulose, pectins and proteins.</tspan><tspan y="-237.09659" x="192.2402 198.6873 205.55442 210.95153 213.41913 218.81624 224.21335 227.30046 230.38758 232.85518 240.98229 247.00939 250.0965 253.18361 255.65122 261.46833 264.76545 267.23307 273.26017 275.72779 281.3349 287.152 294.22914 301.09623 306.70335 309.17097 315.61808 318.70518 324.73228 331.59938 335.52647 337.99409 343.39118 348.78828 351.87538 354.96247 358.25959 360.7272 364.6543 371.5214 376.9185">The cell wall of a young plant cell, the </tspan></text>
<text fill="#231f20" xml:space="preserve" transform="matrix(1 0 -0 1 0 801.711)" font-size="10.5" font-family="Bookman"><tspan y="-237.09659" x="379.4447 386.1962 391.0577 394.8692 405.4007 411.5222 416.3837 422.9252 425.5817 434.01319 440.13468 443.73619 447.33769">primary wall </tspan></text>
<text fill="#231f20" xml:space="preserve" transform="matrix(1 0 -0 1 0 801.711)" font-size="10.5" font-family="Bookman"><tspan y="-237.09659" x="450.0047 453.0918 458.4889 460.93553 466.3326 472.3597 478.80683 484.83393 491.28105 494.36814 499.76524 502.21186 508.02897 511.32609 513.77267 519.37979 523.9369 529.75399 537.88107 541.80819 548.6753">is capable of growth,</tspan><tspan y="-222.9321" x="192.2402 200.32532 207.13993 210.18503 215.52964 222.35474 224.76985 230.33496 234.83957 240.82468 247.21929 254.2544 260.229 263.2741 266.30873 271.8738 274.2889 280.694 283.7286 293.4937 296.52833 303.35343 306.39854 311.74314 318.56825 323.91285 329.26795 331.68305 337.66816 343.01277 345.42787 349.30247 356.12757 361.47218 363.88728 369.23188 374.58699 377.63209 380.6667 383.0818 392.8469 398.8215 402.7066 409.7312 414.2463 419.6014 424.946 427.3611 433.34623 440.16084 446.56593 448.98103 452.86613 459.68074 465.03584 467.45094 472.80604 478.15065 483.50575 489.27037 496.09547 502.49006 508.47517 512.99026 518.54489 520.95999 529.04507 535.01968 538.06478 541.10989 543.52499 546.5596">which gradually diminishes as the cell matures and the secondary wall is</tspan><tspan y="-209.04059" x="192.2402 195.57932 201.43842 206.03752 215.88663 221.32573 227.81484 230.31395 236.17305 243.08216 245.58127 249.55037 256.45948 261.8986 264.3977 267.52684 274.43595 281.34507 286.78419 291.38328 293.8824 297.0115 300.98063 306.83973 315.00883 321.0779 325.677 332.1661 337.60523 340.10435 349.95344 355.39256 365.24165 371.73075 376.32984 382.39894 389.30805 394.74717 397.87629 400.3754 405.8145 408.94364 415.43275 420.87187 423.37098 429.23008 432.56919 435.0683 439.0374 445.94654 451.38566 453.88478 459.32389 464.763 467.89213 471.02125">formed on the inner (towards membrane) side of the cell.</tspan><tspan y="-195.08609" x="210.2372 216.7472 223.67719 229.13719 232.02469 241.89469 245.04468 251.55467 258.06468 261.21467 266.67466 269.56214 272.71214 278.80213 288.67213 294.1321 297.2821 300.4321 306.5221 309.40959 312.55958 318.01957 320.90705 326.99705 329.88453 333.03453 339.1245 344.79454 350.25453 354.8745 357.762 367.632 373.722 376.87199 383.80198 386.95198 392.62199 395.50947 401.38948 404.74946 407.63694 413.09693 419.18693 422.3369 427.7969 430.9469 438.0869 447.9569 450.8444 457.3544 462.8144 468.27439 472.26438 478.35438 482.34437 487.80436 490.69184 498.88185 505.81184 508.96183 514.4218 521.3518 524.2393 531.1693 537.0493 540.19937 546.70938">The middle lamella is a layer mainly of calcium pectate which holds</tspan><tspan y="-180.92159" x="192.2402 197.96282 202.42542 204.78803 210.30063 213.29323 220.27584 225.57845 230.88106 233.24367 237.07628 243.84888 249.15149 251.5141 257.8667 260.8593 264.4802 267.7247 273.0692 277.4372 282.75019 289.53318 293.37617 295.74919 302.53218 307.84516 310.84815 316.37117 323.15415 329.51716 335.25016 342.24317 346.71617 349.71916 356.50215 362.02516 364.39817 369.71116 375.02415 378.02714 381.03013 386.3431 388.71614 392.5591 398.2921 403.81513 409.1281 412.9711 419.7541 425.06709 428.87858 432.09159 434.4646 440.8276 447.6106 452.92359 455.2966 460.6096 465.92259 468.92558 471.92857 474.30158 482.34458 488.28758 491.29057 494.29356 496.66658 502.60957 509.39256 515.75558 518.12857 527.85159 530.85458 537.2175 543.5805 546.5835">or glues the different neighbouring cells together. The cell wall and middle</tspan><tspan y="-167.04059" x="192.2402 195.11731 200.93442 210.54203 215.72913 218.60623 221.48334 227.30045 232.49805 234.75566 244.35277 250.16988 255.57749 257.83509 264.0722 269.2593 271.5169 275.2445 279.5916 285.40873 290.59584 295.78294 300.14054 305.32765 310.51475 316.75187 319.00947 325.24659 330.64369 332.90129 339.1384 342.0155 347.8431 353.0302 362.62733 368.23445 374.47157 379.65867 384.85627 394.45338 400.27049 403.98759 409.8047 412.0623 419.9794 426.6365 429.5136 434.7007 441.36833 443.62593 448.81303 454.43064 461.08775 467.74485 472.93196 478.11906 481.84666 484.10426 487.82136 494.47846 499.66557 501.92317 507.11027 512.5074 516.2245 521.8316 528.0792 530.95639 536.77346 541.9606">lamellae may be traversed by plasmodesmata which connect the cytoplasm</tspan><tspan y="-153.07559" x="192.2402 198.0993 201.43842 203.95853 210.86763 216.30673 219.43584 225.08495 231.99405 238.48316 244.34226 251.46137 256.06047 259.18959 266.0987 271.7478 274.2679 279.70704 285.14616 288.27528 291.4044 296.8435">of neighbouring cells.</tspan></text>
<text fill="#00aeef" xml:space="preserve" transform="matrix(1 0 -0 1 0 801.711)" font-size="12" font-family="Bookman"><tspan y="-126.72049" x="192.2402 200.2202 204.3602 212.3402 216.4802 234.2402 242.8802 251.0402 258.7202 266.16023 278.16023 285.1202 297.1202 304.32023 309.8402 316.8002 324.9602 331.9202 334.95619 342.8762 350.3162 356.55619 362.07618 369.03617">8.5.3Endomembrane System</tspan></text>
<text fill="#231f20" xml:space="preserve" transform="matrix(1 0 -0 1 0 801.711)" font-size="10.5" font-family="Bookman"><tspan y="-106.5605" x="192.2402 202.3202 209.25022 212.4002 215.5502 221.01021 225.85071 231.31072 237.40071 242.86072 249.79071 254.63121 260.5112 263.8712 268.71168 272.70167 279.63166 285.09165 289.93214 299.80213 305.26213 315.1321 321.64213 326.26213 332.3521 339.2821 345.1621 352.30213 357.76213 362.6026 368.4826 373.1026 378.7726 384.8626 391.7926 397.2526 400.4026 403.55259 409.01258 414.47257 419.31306 422.46305 427.92304 432.76353 439.27354 442.42353 447.8835 451.8735 455.0235 461.9535 467.41349 471.40348 476.24397 479.39396 486.32395 491.16444 495.15443 500.6144 505.2344 515.10446 520.56448 525.40499 531.285 534.64498 539.4855 542.6355 546.6255">While each of the membranous organelles is distinct in terms of its</tspan></text>
<g clip-path="url(#clip_4231)">
<text xml:space="preserve" transform="matrix(1 0 -0 1 0 801.711)" font-size="8" font-family="Arial"><tspan y="-46.59019" x="291.32 295.768 300.216 304.664 309.112 311.776 316.224">2024-25</tspan></text>
</g>
</g>
</g>
<g>
<g clip-path="url(#clip_4232)">
<g style="mix-blend-mode:multiply">
<path transform="matrix(1,0,0,-1,0,801.711)" d="M209.862 629.923H552.183V617.039H209.862Z" fill="#ffff00"/>
</g>
<g style="mix-blend-mode:multiply">
<path transform="matrix(1,0,0,-1,0,801.711)" d="M192.012 616H553.002V602.98H192.012Z" fill="#ffff00"/>
</g>
<g style="mix-blend-mode:multiply">
<path transform="matrix(1,0,0,-1,0,801.711)" d="M192.663 601.836H388.005V588.815H192.663Z" fill="#ffff00"/>
</g>
</g>
</g>
</svg>
