<svg xmlns="http://www.w3.org/2000/svg" xmlns:xlink="http://www.w3.org/1999/xlink" xmlns:inkscape="http://www.inkscape.org/namespaces/inkscape" version="1.1" width="612" height="784.0048" viewBox="0 0 612 784.0048">
<defs>
<clipPath id="clip_8176">
<path transform="matrix(1,0,0,-1,0,801.711)" d="M0 17.7062H612V801.711H0Z" clip-rule="evenodd"/>
</clipPath>
<clipPath id="clip_8177">
<path transform="matrix(1,0,0,-1,0,801.711)" d="M291.32 43.99H320.67V54.64H291.32Z"/>
</clipPath>
</defs>
<g clip-path="url(#clip_8176)">
<path transform="matrix(1,0,0,-1,0,801.711)" d="M0 728.6H612V809.44998H0Z" fill="#d1d3d4" fill-rule="evenodd"/>
<path transform="matrix(1,0,0,-1,0,801.711)" d="M0 738.8H612V820.8H0Z" fill="#e1ecb6" fill-rule="evenodd"/>
<path transform="matrix(1,0,0,-1,0,801.711)" d="M.48 .48H611.51998V51.52H.48Z" fill="#cbdf7f" fill-rule="evenodd"/>
<path transform="matrix(1,0,0,-1,.47999997,801.231)" stroke-width=".96" stroke-linecap="butt" stroke-miterlimit="1000" stroke-linejoin="miter" fill="none" stroke="#cbdf7f" d="M0 0H611.04V51.04H0Z"/>
<text fill="#231f20" xml:space="preserve" transform="matrix(1 0 -0 1 0 801.711)" font-size="11" font-family="Bookman"><tspan y="-730.081" x="84">C</tspan></text>
<text fill="#231f20" xml:space="preserve" transform="matrix(1 0 -0 1 0 801.711)" font-size="7.69999" font-family="Bookman"><tspan y="-730.081" x="92.16 97.6347 102.185398">ELL</tspan></text>
<text fill="#231f20" xml:space="preserve" transform="matrix(1 0 -0 1 0 801.711)" font-size="11" font-family="Bookman"><tspan y="-730.081" x="106.8 110.34211 113.42222">: T</tspan></text>
<text fill="#231f20" xml:space="preserve" transform="matrix(1 0 -0 1 0 801.711)" font-size="7.69999" font-family="Bookman"><tspan y="-730.081" x="120.23999 126.45388">HE</tspan></text>
<text fill="#231f20" xml:space="preserve" transform="matrix(1 0 -0 1 0 801.711)" font-size="11" font-family="Bookman"><tspan y="-730.081" x="132 134.9371"> U</tspan></text>
<text fill="#231f20" xml:space="preserve" transform="matrix(1 0 -0 1 0 801.711)" font-size="7.69999" font-family="Bookman"><tspan y="-730.081" x="143.52 149.15648 151.71295">NIT</tspan></text>
<text fill="#231f20" xml:space="preserve" transform="matrix(1 0 -0 1 0 801.711)" font-size="11" font-family="Bookman"><tspan y="-730.081" x="156.48"> </tspan></text>
<text fill="#231f20" xml:space="preserve" transform="matrix(1 0 -0 1 0 801.711)" font-size="7.69999" font-family="Bookman"><tspan y="-730.081" x="159.6 165.71387">OF</tspan></text>
<text fill="#231f20" xml:space="preserve" transform="matrix(1 0 -0 1 0 801.711)" font-size="11" font-family="Bookman"><tspan y="-730.081" x="170.63999 173.6431"> L</tspan></text>
<text fill="#231f20" xml:space="preserve" transform="matrix(1 0 -0 1 0 801.711)" font-size="7.69999" font-family="Bookman"><tspan y="-730.081" x="180.48 183.15189 188.13378">IFE</tspan></text>
<path transform="matrix(1,0,0,-1,500.6352,52.546205)" d="M0 0C1.76 1.76 3.88 2.63 6.36 2.63H23.36C25.85 2.63 27.97 1.76 29.73 0 31.49-1.76 32.36-3.88 32.36-6.36V-24.36C32.36-26.85 31.49-28.97 29.73-30.73 27.97-32.49 25.85-33.36 23.36-33.36H6.36C3.88-33.36 1.76-32.49 0-30.73-1.76-28.97-2.63-26.85-2.63-24.36V-6.36C-2.63-3.88-1.76-1.76 0 0" fill="#ffffff" fill-rule="evenodd"/>
<text fill="#231f20" xml:space="preserve" transform="matrix(1 0 -0 1 0 801.711)" font-size="11" font-family="Bookman"><tspan y="-729.361" x="505.92 513.213 520.50607">103</tspan></text>
<path transform="matrix(1,0,0,-1,597.6,-.96899417)" stroke-width=".24" stroke-linecap="butt" stroke-miterlimit="10" stroke-linejoin="miter" fill="none" stroke="#000000" d="M0 0H14.4"/>
<path transform="matrix(1,0,0,-1,594.12,-19.08899)" stroke-width=".24" stroke-linecap="butt" stroke-miterlimit="10" stroke-linejoin="miter" fill="none" stroke="#000000" d="M0 0V-14.4"/>
<path transform="matrix(1,0,0,-1,597.6,783.351)" stroke-width=".24" stroke-linecap="butt" stroke-miterlimit="10" stroke-linejoin="miter" fill="none" stroke="#000000" d="M0 0H14.4"/>
<path transform="matrix(1,0,0,-1,594.12,787.071)" stroke-width=".24" stroke-linecap="butt" stroke-miterlimit="10" stroke-linejoin="miter" fill="none" stroke="#000000" d="M0 0V-14.16"/>
<path transform="matrix(1,0,0,-1,.11999999,-19.32898)" stroke-width=".24" stroke-linecap="butt" stroke-miterlimit="10" stroke-linejoin="miter" fill="none" stroke="#000000" d="M0 0V-18"/>
<text fill="#00aeef" xml:space="preserve" transform="matrix(1 0 -0 1 0 801.711)" font-size="13" font-family="Bookman"><tspan y="-687.36" x="267.84">E</tspan></text>
<text fill="#00aeef" xml:space="preserve" transform="matrix(1 0 -0 1 0 801.711)" font-size="9.1" font-family="Bookman"><tspan y="-687.36" x="277.2 284.1979 290.6498 297.6477 304.28163 307.8215 313.72743 320.17933">XERCISES</tspan></text>
<text fill="#231f20" xml:space="preserve" transform="matrix(1 0 -0 1 0 801.711)" font-size="10" font-family="Bookman"><tspan y="-648.96" x="100.55999 106.23999 119.51999 129.12 135.72 138.72 143.92 150.52 153.15 158.75 161.95 164.57999 168.37999 174.98 180.18 182.80998 186.00998 191.60999 194.60999 197.60999 203.20999 211.01 214.01 220.61 226.01 228.63999 231.63999 236.83998 239.46997 246.06998 251.66999 255.46999 258.09999 263.3 268.9 273.3 277.69999 282.9 288.1 291.9">1.Which of the following is not correct?</tspan><tspan y="-631.96" x="119.51999 122.61989 128.51979 137.51999 144.71999 150.31999 156.51999 161.71999 166.11998 169.91999 172.52999 179.92998 184.32997 189.92998 197.72998 204.32999 206.93999 213.13999 216.13999 221.33998 226.53998 232.13999 237.33998 242.53998 246.93997 252.13997 258.33998 260.94999 264.74998 271.34999 276.55 279.16 284.36003 289.56004 292.56004 295.56004">(a)Robert Brown discovered the cell.</tspan><tspan y="-617.76" x="119.51999 122.42009 128.52019 137.51999 144.12 149.31999 155.92 158.92 164.12 167.12 173.31999 178.51999 185.12 188.12 193.92 200.52 206.72 209.72 216.32 221.52 228.12001 235.92002 241.72002 248.32003 254.92003 257.92 261.12004 266.72004 271.12004 280.52003 287.32 290.32 296.12 299.91999 305.12 311.32 314.32 318.12 324.72 329.92 332.92 338.12004 343.32005 346.32005 349.32005 352.32005 356.12004 362.72004 367.92005 373.52006 377.92005 383.32005">(b)Schleiden and Schwann formulated the cell theory.</tspan><tspan y="-603.84" x="119.51999 122.55989 127.79979 137.51999 144.51999 147.51999 151.91999 157.11998 163.71999 169.31999 177.12 179.79 184.98999 190.59 196.79 199.79 205.59 208.59 215.19 220.39 226.59 229.26 233.06 239.66 245.46 249.26001 251.93001 257.13 262.33003 265.33003 268.33003 273.53004 276.20005 282.00004 286.40003 291.60005 294.27006 297.47007 303.07008 307.47007 316.87007 322.07008 328.27009 330.9401 334.1401 338.5401 344.1401 353.5401 356.2101 362.41014 366.81013 372.01014 376.01014 381.21015 386.81016 389.81016 395.01017 398.81016 401.81016 408.41017 413.81016 416.48017 421.68019 426.8802 429.8802 432.8802 438.0802">(c)Virchow explained that cells are formed from pre-existing cells.</tspan><tspan y="-589.96" x="119.51999 122.42009 128.52019 137.51999 144.31999 147.35999 154.15999 160.76 163.76 168.95999 174.15999 177.15999 180.15999 186.95999 189.95999 195.76 200.15999 203.19998 208.79999 213.19998 218.59998 224.39998 230.99999 233.99999 239.19998 248.59998 251.63997 256.83998 262.63996 267.03996 271.43995 274.43995 279.63996 284.83998 287.87998 293.47999 300.27998 304.07997 307.11997 310.11997 313.91996 319.11997 322.15998 325.15998 328.15998 331.36 336.56 339.6 345.4 350.6 354.4 357.4 362.6 365.6 369.4 372.4 377.6 382.80003 385.84004 393.64 396.64 400.44 407.04 410.04 416.64 419.68003 425.48 428.52003 433.72004 436.72004 443.32005 448.72004 451.72004 456.92005 459.96006 465.16007 470.36009 473.36009 476.36009">(d)A unicellular organism carries out its life activities within a single cell.</tspan><tspan y="-571.96" x="100.55999 106.23999 119.51999 126.91999 132.12 139.92 142.76999 147.96999 153.16999 156.16999 159.16999 164.36998 167.21997 172.61997 177.81996 184.41997 189.61997 194.01996 199.81996 203.61997 208.81996 211.66996 214.86995 219.26995 224.86995">2.New cells generate from</tspan><tspan y="-554.96" x="119.51999 122.61989 128.51979 137.51999 143.71999 149.51999 154.71999 158.51999 163.71999 168.11998 171.11998 176.91999 179.91999 182.91999 186.11998 191.31998 195.71997 205.11997 210.31996 216.91997 220.71997 226.51998 230.31998 233.31998 238.91999 275.52 278.42008 284.52018 293.52 297.91999 303.12 308.52 313.72 320.32 325.52003 329.92 335.72 339.52 342.52 348.12 354.72 357.5 363.1 366.30003 369.08003 374.68003 377.68003 383.88005 386.66004 391.86006 397.06007 400.06007 403.06007">(a)bacterial fermentation(b)regeneration of old cells</tspan><tspan y="-540.96" x="119.51999 122.55989 127.79979 137.51999 143.73 148.13 153.34001 157.34001 162.55002 168.15003 171.16002 176.36003 180.17003 183.17003 189.78003 195.19004 197.74004 202.95005 208.15006 211.16005 214.16005 275.52 278.42008 284.52018 293.52 299.31 305.5 308.49 314.08 317.87 320.86 326.05 328.84 338.23 344.02003 347.81004 353.00004 357.39006 360.38005 366.17005 369.16004">(c)pre-existing cells(d)abiotic materials</tspan><tspan y="-522.96" x="100.55999 106.23999 119.51999 128.71999 134.51999 138.31999 143.51999 150.12 152.67 156.47 163.07 168.27 170.82 174.02 179.62001 182.62001 185.62001 191.22002 199.02002 202.02002 208.62003">3.Match the following</tspan></text>
<text fill="#231f20" xml:space="preserve" transform="matrix(1 0 -0 1 0 801.711)" font-size="10" font-family="Bookman"><tspan y="-505.96003" x="137.51999 144.87 151.01999 154.37 160.92 170.87 177.62 180.07 281.52 288.83 294.93998 298.24998 304.75999 314.66999 321.37998 323.78999 327.69999">Column IColumn II</tspan></text>
<text fill="#231f20" xml:space="preserve" transform="matrix(1 0 -0 1 0 801.711)" font-size="10" font-family="Bookman"><tspan y="-491.76" x="119.51999 122.61989 128.51979 137.51999 144.9999 149.4798 152.5597 157.8396 161.7195 167.5994 266.4 269.3401 272.28019 281.52 287.91999 290.91999 296.71998 300.51997 303.25999 312.65998 317.86 327.25999 333.46 337.86 343.65998 350.25999 355.86 362.65998 367.86 370.6 375.80003 381.6 386.80003 392.00004 394.74006 397.74006 404.34007 407.08009 412.2801 416.08009 420.48008 426.08009 435.48008">(a)Cristae(i)Flat membranous sacs in stroma</tspan><tspan y="-477.84004" x="119.51999 122.42009 128.52019 137.51999 145.01 148.09 153.37 157.26 162.54 167.03 173.71 179.59001 263.52 266.52 269.52 272.52 281.52 284.91 291.5 294.69 300.28 303.27 309.46 312.44999 319.03999 324.43 329.62 332.01 335 341.59 343.98 353.37004 356.36003 360.15003 365.74003 370.93003 377.52003 383.11003 389.7 395.89 400.28004 403.27003">(b)Cisternae(ii)Infoldings in mitochondria</tspan><tspan y="-463.96003" x="119.51999 122.55989 127.79979 137.51999 143.65 150.18 155.51 158.43999 164.16999 170.29999 175.82999 178.75998 184.88999 260.4 263.37 266.34 269.31 272.28 281.52 289.52 292.52 297.72 302.92 306.92 312.12004 318.72004 324.52003 330.72004 335.92005 342.12007 344.91007 350.11009 355.91007 361.11009 366.3101 369.1001 372.1001 378.7001 381.4901 389.4901 395.09013 398.09013 403.4901 406.4901 409.28013 415.0801 421.28013 427.48014 433.28013 437.6801 443.4801 447.2801 454.08009">(c)Thylakoids(iii)Disc-shaped sacs in Golgi apparatus</tspan><tspan y="-445.96003" x="100.55999 106.23999 119.51999 129.12 135.72 138.72 143.92 150.52 153.11 158.71 161.91 164.5 168.3 174.90001 180.1 182.69 185.89 191.49 194.49 197.49 203.09001 210.89002 213.89002 220.49002 225.89002 228.48001 231.48001 236.68001 239.27 244.47 250.07 254.47 258.87 264.07 269.27003 273.07">4.Which of the following is correct:</tspan><tspan y="-428.96003" x="119.51999 122.61989 128.51979 137.51999 144.91999 150.11998 153.11998 156.11998 161.31998 164.34998 169.94998 173.14998 176.17998 181.97998 184.97998 187.97998 191.00998 194.00998 197.00998 202.20998 205.20998 211.80998 217.20998 220.23998 225.83998 230.23998 235.63997 241.43997 248.03998 251.03998 256.24 265.63999 270.84 273.87 280.47 286.27 291.47 296.67 299.7 305.5 308.53 315.13 321.93 327.13 330.13 335.33003 342.13 347.33003">(a)Cells of all living organisms have a nucleus.</tspan><tspan y="-414.96003" x="119.51999 122.42009 128.52019 137.51999 144.91999 150.51999 154.31999 160.92 163.95 169.75 176.35 179.35 188.75 194.55 197.55 200.58 206.38 212.98001 219.18001 222.21 228.41 231.41 237.21 243.81002 247.61002 250.64002 255.84001 261.04 264.04 267.04 272.24003 275.27003 281.87004 287.67 292.87004 298.07005 301.10005 306.90003 309.93003 317.73 322.93003 325.93003 328.93003 331.95005 338.15007 343.35008 346.55009 349.55009 356.1501 361.3501 367.5501 370.5801 375.78013 380.98014 383.98014 386.98014 390.01014 397.81013 403.6101 406.6101 409.6101">(b)Both animal and plant cells have a well defined cell wall.</tspan><tspan y="-400.80003" x="119.51999 122.55989 127.79979 137.51999 140.91999 147.51999 150.22998 156.42998 160.82997 166.42998 172.62998 178.42998 182.82997 188.22997 193.82997 197.62998 202.82997 208.02997 211.22997 213.93996 217.73996 224.33997 229.53997 233.93996 239.13996 241.84995 247.64995 252.04994 257.24995 259.95997 266.55998 272.15998 274.87 284.27 289.47 298.87 305.07 309.47 315.27 321.87 327.07 329.78004 335.98005 341.58006 348.38005 354.98005 361.18006 363.89009 369.49009 373.89009 379.29008 385.09007 391.69007 396.89009 399.89009 402.89009 408.0901 413.2901">(c)In prokaryotes, there are no membrane bound organelles.</tspan><tspan y="-386.96003" x="119.51999 122.42009 128.52019 137.51999 144.91999 150.11998 153.11998 156.11998 161.31998 163.88997 169.68997 174.08997 179.28997 181.85996 185.05995 190.65996 195.05995 204.45995 209.65995 215.85994">(d)Cells are formed </tspan></text>
<text fill="#231f20" xml:space="preserve" transform="matrix(1 0 -0 1 0 801.711)" font-size="10" font-family="Bookman" font-style="italic"><tspan y="-386.96003" x="218.4 224.87 230.34 232.76001 239.03002 244.50002 249.97002">de novo</tspan></text>
<text fill="#231f20" xml:space="preserve" transform="matrix(1 0 -0 1 0 801.711)" font-size="10" font-family="Bookman"><tspan y="-386.96003" x="255.35999 257.91 261.11003 265.51 271.11003 280.51 283.06004 288.86003 295.06004 298.06004 303.66004 307.46003 310.46003 315.66004 318.21006 327.61006 333.41004 337.21003 342.41004 346.81004 349.81004 355.61003 358.61003 363.81004"> from abiotic materials.</tspan><tspan y="-368.96003" x="100.55999 106.23999 119.51999 128.98 135.44 141.1 144.76001 147.02002 149.88002 154.94004 157.20005 162.86005 165.12006 174.38007 179.44008 184.50009 189.9601 195.02011 200.48012 209.74013 214.80014 217.06015 219.92015 226.38016 228.64017 234.30017 236.56018 242.6202 246.8802 252.34021 258.4002 264.0602 268.3202 273.58018 279.04017 282.70018 285.56016 290.62016 292.88017 297.94017 303.00016 305.86015 308.72013 313.9801 316.2401 325.3001 330.3601 336.8201 340.4801 343.3401 348.80009 355.26008 357.52009 361.18009 367.64009 372.70008 374.96009 378.02009 384.68009 391.14009 396.20008 399.86009 402.72007 408.18006 414.64006 419.70005 421.96006 425.62007 432.08006 437.74006 441.40007 443.66007 446.52006 450.18006 452.44007 458.50007 463.56007 467.82005 470.88005 476.34004 480.6 489.86 494.91999">5.What is a mesosome in a prokaryotic cell? Mention the functions that it performs.</tspan><tspan y="-351.84004" x="100.55999 106.23999 119.51999 127.51999 133.12 140.92 145.43 151.62999 157.23 161.73999 168.34 173.54 180.34 184.14 188.54 194.34 197.34 201.84999 207.04999 212.65 215.65 222.45 226.25 231.45 236.65 241.15999 250.55998 256.15998 261.36 266.56 271.07 276.87 282.07 286.47 292.07 297.27003 302.47004 306.98005 310.78004 317.38005 322.58006 327.09007 333.29008 336.29008 342.09007 347.29008 356.69007 362.49006 367.00007 376.40007 381.60008 391.00007 397.20008 401.60008 407.40007 414.00007 419.20008 424.60008 429.11009 436.51008 442.31007 448.91007 453.42008 457.22007 463.82008 469.02009 473.5301 479.7301 485.3301 488.3301 494.1301">6.How do neutral solutes move across the plasma membrane? Can the polar</tspan><tspan y="-337.96003" x="119.51999 128.91999 134.51999 137.51999 142.71999 147.91999 154.71999 157.71999 162.91999 168.11998 172.58998 178.38999 181.38999 186.58998 192.18999 196.65999 206.05998 211.65999 216.85999 222.05998 226.52999 232.32999 237.52999 241.92998 247.52999 252.72998 257.93 262.4 265.4 269.19999 273.66999 276.66999 283.27 287.74 291.53999 298.13999 303.34 307.81 313.01 318.81 328.21 333.41 337.88 345.68 351.47999 356.87998 362.27998 366.74998 370.14997 373.34999 377.81999 384.41999 390.02 393.81999 397.02 401.49 405.28999 411.88999 417.09 423.69 428.16 434.76 440.36003 448.16 452.63 458.43 462.83 468.03 472.5 476.3 482.9 488.1 493.30003">molecules also move across it in the same way? If not, then how are these</tspan><tspan y="-323.76" x="119.51999 123.31999 127.71999 133.51999 140.12 145.31999 151.51999 157.12 161.51999 165.31999 170.51999 176.71999 179.52999 185.32999 190.52999 194.92998 200.52999 205.72998 210.92998 213.73998 217.53998 224.13999 229.33998 232.14998 241.54998 246.74997 256.14997 262.34999 266.74998 272.54997 279.14997 284.34999">transported across the membrane?</tspan><tspan y="-306.96003" x="100.55999 106.23999 119.51999 126.97989 132.83979 142.29969 147.55959 152.4195 156.27939 164.13928 169.79918 174.65909 179.91899 185.1789 188.2388 191.2987 195.35861 201.01851 205.47841 210.93831 216.7982 223.4581 228.718 231.77791 234.83782 240.09772 245.35762 250.21753 254.07743 260.73735 266.59724 270.45713 275.31703 281.1769 285.6368 290.8967 295.7566 302.01649 307.6764 314.5363 320.79618 323.85609 329.11598 333.97587 343.43577 348.69566 358.15556 364.41545 368.87535 374.73524 381.39515 386.65504 391.51493 397.7748 403.43473 410.29463 416.95454 423.21443 426.4743 431.3342 440.9941 447.65403 453.51393 457.3738 462.2337 468.0936 472.5535 477.8134 482.67329 486.53318 493.19309">7.Name two cell-organelles that are double membrane bound. What are the</tspan><tspan y="-292.80003" x="119.51999 124.719989 131.31999 137.12 141.51999 147.31999 152.51999 156.31999 161.51999 165.91999 168.91999 174.11998 177.91999 180.91999 186.11998 191.31998 193.89998 199.49999 202.69998 205.27999 209.07999 215.68 220.87999 226.07999 231.27999 233.85999 237.65999 245.45999 251.06 253.64 259.24 263.63999 269.03999 274.83998 281.43998 286.63999 289.63999 292.63999 297.84 303.04 308.44 311.02003 317.62004 321.42 327.22 331.02 336.22 338.80003 342.6 349.2 354.40003 357.40003 361.80003 364.38005 367.58006 374.38005 380.98005 386.18006 389.98005 392.98005 398.58006 405.18006 410.38008 412.96009 418.76008 425.36009 431.5601 434.1401 440.34013 444.7401 450.5401 458.3401 460.9201 463.9201 469.7201 475.9201 481.12013 484.12013 487.12013 492.32014">characteristics of these two organelles? State their functions and draw labelled</tspan><tspan y="-278.96003" x="119.51999 125.70999 128.7 134.48999 139.87999 144.26999 150.05998 159.44998 164.63999 167.02999 172.61998 175.80998 178.19998 184.38999 189.97998 193.76998 200.35997">diagrams of both.</tspan><tspan y="-261.84" x="100.55999 106.23999 119.51999 129.12 135.72 141.52 145.32 148.28 154.08 158.48 163.68 166.63999 170.43999 177.04 182.23999 185.19998 190.39998 196.99999 202.79999 207.19998 212.99999 218.19998 221.99999 227.19998 231.59998 234.59998 239.79998 243.59998 246.59998 251.79998 256.99998 259.96 265.56 268.76 271.72004 277.92005 282.32005 287.92005 294.12007 299.92005 304.32005 309.72004 315.32005 319.12004 322.12004 327.32005 330.28007 335.48008 340.68009 343.68009 346.68009 351.8801">8.What are the characteristics of prokaryotic cells?</tspan><tspan y="-244.80002" x="100.55999 106.23999 119.51999 128.71999 135.51999 138.51999 142.31999 145.31999 150.51999 155.71999 158.71999 161.71999 168.51999 171.51999 177.31999 181.71999 184.36998 189.96999 194.39998 199.79998 205.59998 212.19998 215.19998 220.39998 229.79998 234.99997 237.64997 244.24997 250.04998 255.24997 260.44999 263.1 269.30003 272.30003 277.50004 280.50004 285.70005 288.70005 294.30006 300.90007 303.55009 309.1501 312.3501 315.00013 318.00013 323.8001 330.00013 335.60014 342.40013 346.08 349.28999 351.94999 359.15998 364.76997 370.97996 373.98997 379.79997 382.80998 389.41996">9.Multicellular organisms have division of labour. Explain.</tspan><tspan y="-227.76004" x="95.55999 101.40009 107.2402 119.51999 126.91999 132.12 135.12 138.12 141.01 144.01 149.20999 152.09999 155.9 162.5 167.7 170.59 176.79 182.59 187.79 190.79 195.98999 198.87999 205.68 212.28 215.28 219.08 221.97 227.57 230.77 233.66 236.66 239.66 242.86 248.06 251.26 254.15 262.15 265.15 270.35 275.55003 282.35 287.55003 292.75004 295.64006 298.64006 305.24006 308.13008 314.33009 318.73008 321.73008 326.93009 330.1301">10.Cell is the basic unit of life. Discuss in brief.</tspan><tspan y="-210.96002" x="95.55999 101.40009 107.2402 119.51999 129.12 135.72 141.52 145.32 148.34001 154.14002 158.54001 163.74 166.76001 173.36002 180.16002 185.36002 188.36002 193.56002 199.36002 203.76001 206.78002 212.98001 218.58002 222.98001 228.18001 233.38 238.78 241.8 248.40001 252.20001 258 261.8 267 270.02003 273.82 280.42 285.62004 288.62004 293.02003 296.04005 299.24006 306.04005 312.64006 317.84007 321.64006 324.64006 330.24006 336.84007">11.What are nuclear pores? State their function.</tspan><tspan y="-193.96002" x="95.55999 101.40009 107.2402 119.51999 126.91999 132.51999 136.31999 142.92 145.9 148.9 154.29999 159.49999 165.09999 170.29999 175.9 185.29999 190.49999 195.69998 198.67998 204.47998 211.07999 217.27999 220.25998 225.45998 231.25998 236.45998 243.25998 248.85999 251.85999 257.06 262.26 265.24003 271.04 275.44 280.64 283.62004 288.82005 295.42005 301.62007 307.22007 316.62007 321.82008 331.22007 337.42008 341.82008 347.62007 354.22007 359.42008 362.4001 367.6001 371.4001 375.80009 382.60008 387.80009 391.60008 398.40007 402.80006 408.00007 413.20008 416.4001 419.3801 424.7801 429.9801 433.7801 436.7601 440.5601 447.1601 452.3601 457.7601 460.7401 466.94013 469.94013 473.14015 476.34016 481.54017 485.94017 488.92018 491.92018">12.Both lysosomes and vacuoles are endomembrane structures, yet they differ in</tspan><tspan y="-179.76004" x="119.51999 123.31999 128.51999 132.91999 142.31998 147.51998 149.98998 155.58998 158.78998 161.25998 165.05998 171.65999 176.85999 179.85999 184.25998 186.72998 189.92998 196.72998 203.32999 208.52999 212.32999 215.32999 220.93 227.53 232.73 235.93 238.4 245.79999 251.4 260.8 270.19999 275.4 282 285.8">terms of their functions. Comment.</tspan><tspan y="-162.96002" x="95.55999 101.40009 107.2402 119.51999 127.51999 132.71999 137.91999 143.11998 147.51998 150.51998 156.71997 161.91997 164.65996 168.45996 175.05997 180.25997 183.00997 188.20996 192.00997 196.40996 203.20996 208.40996 212.20996 219.00997 223.40996 228.60996 231.35996 236.95996 240.15996 242.90996 246.70996 253.30997 258.50999 261.25 264.45 270.05003 273.05003 276.05003 281.65003 289.45 292.45 299.05003 304.45 307.2 315 318 321.8 328.4 331.15 334.94999 341.55 346.75 349.5 356.1 361.30003 364.30003 370.50004 373.24006 378.84007 382.04008 384.79008 387.79008 393.59007 399.79008 404.99009 407.99009 410.99009 416.1901 422.3901 425.1401 431.34013 434.34013 440.1401 445.5401 449.9401 455.74009 465.14009 470.3401">13.Describe the structure of the following with the help of labelled diagrams.</tspan><tspan y="-145.96002" x="119.51999 122.46009 125.40019 137.51999 144.95989 151.79979 157.03969 160.07959 165.31949 172.1594 209.51999 212.51999 215.51999 218.51999 230.4 237.7401 242.8802 249.4203 253.1604 257.5005 263.0406 268.1807 273.7208 283.06089">(i)Nucleus(ii)Centrosome</tspan><tspan y="-128.96002" x="95.55999 101.40009 107.2402 119.51999 129.12 135.72 141.52 145.32 148.74 151.74 156.94 160.36 166.16 169.58 174.78 179.98 186.58 190.38 194.78 200.38 209.78 214.98 219.37999 224.57999 229.97998 233.38999 241.38999 246.98999 254.79 258.21 264.41 270.01 275.21003 280.41004 283.82005 287.62004 294.22004 299.42005 302.83006 309.03007 314.63008 319.83009 322.83009 326.63008 329.63008 335.23008 341.83009 345.2501 350.8501 354.0501 357.47013 362.67015 367.87016 374.47016 378.27015 382.67015 388.27015 397.67015 402.87016 407.27015 412.47016 415.88017 419.08018 424.68019 429.08018 438.48017 441.89018 445.69017 452.29017 457.49018 460.9102 467.1102 472.9102 478.1102 481.1102 486.3102 489.7202 495.32023">14.What is a centromere? How does the position of centromere form the basis of</tspan><tspan y="-114.96002" x="119.51999 124.719989 127.719989 133.51999 138.71999 143.91999 146.91999 150.11998 153.11998 158.31998 164.11998 167.91999 170.91999 176.51999 183.12 186.67 192.27 195.47 199.02 204.22 210.82 215.22 220.82 230.22 235.82 241.02 246.62001 256.02003 261.22004 266.42005 269.62007 273.17008 279.77009 286.57008 292.77009 298.9701 304.5701 308.9701 312.77009 316.3201 321.7201 327.3201 334.1201 338.52009 342.08009 347.88008 354.48008 359.68009 367.48008 372.68009 377.08009 380.6301 388.43009 391.43009 395.23008 401.83009 405.39009 411.19007 414.74009 420.9401 423.9401 429.74009 435.14009 439.54008 445.34007 454.74006 458.29008 463.49009 470.0901 475.6901 483.49009 486.49009 493.0901">classification of chromosomes. Support your answer with a diagram showing</tspan><tspan y="-100.79999" x="119.51999 123.31999 129.92 135.12 137.56999 143.76999 149.37 154.56999 157.56999 161.37 164.37 169.97 176.57 179.03 184.63 187.83 190.28 195.48 200.68 207.28 211.08 215.48 221.08 230.48 235.68 240.07999 245.27999 247.72998 253.32999 259.93 262.38 268.58003 271.58003 274.78004 277.98005 283.18006 287.58006 292.78007 299.38008 303.18006 305.63008 309.43006 314.83006 321.03007 326.23008 331.43009 333.8801 339.4801 342.6801 345.13014 350.33015 356.93016 361.33015 366.93016 376.33015 381.93016 387.13017 392.73017 402.13017 407.33018 412.53019">the position of centromere on different types of chromosomes.</tspan></text>
<g clip-path="url(#clip_8177)">
<text xml:space="preserve" transform="matrix(1 0 -0 1 0 801.711)" font-size="8" font-family="Arial"><tspan y="-46.59019" x="291.32 295.768 300.216 304.664 309.112 311.776 316.224">2024-25</tspan></text>
</g>
</g>
</svg>
