<svg xmlns="http://www.w3.org/2000/svg" xmlns:xlink="http://www.w3.org/1999/xlink" xmlns:inkscape="http://www.inkscape.org/namespaces/inkscape" version="1.1" width="576" height="784.8" viewBox="0 0 576 784.8">
<defs>
<clipPath id="clip_22">
<path transform="matrix(1,0,0,-1,-18,802.8)" d="M18 18H594V802.8H18Z" clip-rule="evenodd"/>
</clipPath>
<clipPath id="clip_23">
<path transform="matrix(1,0,0,-1,259.314,763.99978)" d="M0-8H57.372V.800049H0Z"/>
</clipPath>
</defs>
<g clip-path="url(#clip_22)">
<path transform="matrix(.24,0,0,-.24,-18,802.8)" d="M2 2H2548V214.67H2Z" fill="#cbdf7f" fill-rule="evenodd"/>
<path transform="matrix(.24,0,0,-.24,-18,802.8)" stroke-width="4" stroke-linecap="butt" stroke-miterlimit="1000" stroke-linejoin="miter" fill="none" stroke="#cbdf7f" d="M2 2H2548V214.67H2Z"/>
<path transform="matrix(.24,0,0,-.24,483.636,39.43701)" d="M0 0C7.32 7.32 16.16 10.98 26.51 10.98H97.35C107.7 10.98 116.54 7.32 123.87 0 131.19-7.32 134.85-16.16 134.85-26.52V-126.52C134.85-136.87 131.19-145.71 123.87-153.03 116.54-160.36 107.7-164.02 97.35-164.02H26.51C16.16-164.02 7.32-160.36 0-153.03-7.33-145.71-10.99-136.87-10.99-126.52V-26.52C-10.99-16.16-7.33-7.32 0 0" fill="#ffffff" fill-rule="evenodd"/>
<path transform="matrix(.24,0,0,-.24,-18,802.8)" d="M0 3035.83H2550V3372.7003H0Z" fill="#d1d3d4" fill-rule="evenodd"/>
<path transform="matrix(.24,0,0,-.24,-18,802.8)" d="M0 3078.33H2550V3420H0Z" fill="#e1ecb6" fill-rule="evenodd"/>
<path transform="matrix(.24,0,0,-.24,482.635,53.63501)" d="M0 0C7.32 7.32 16.16 10.98 26.52 10.98H97.35C107.71 10.98 116.55 7.32 123.87 0 131.19-7.33 134.85-16.17 134.85-26.52V-101.52C134.85-111.88 131.19-120.72 123.87-128.04 116.55-135.36 107.71-139.02 97.35-139.02H26.52C16.16-139.02 7.32-135.36 0-128.04-7.32-120.72-10.98-111.88-10.98-101.52V-26.52C-10.98-16.17-7.32-7.33 0 0" fill="#ffffff" fill-rule="evenodd"/>
<text fill="#231f20" xml:space="preserve" transform="matrix(1 0 -0 1 -18 802.8)" font-size="11" font-family="Bookman"><tspan y="-730.081" x="84">T</tspan></text>
<text fill="#231f20" xml:space="preserve" transform="matrix(1 0 -0 1 -18 802.8)" font-size="7.69999" font-family="Bookman"><tspan y="-730.081" x="90.72 96.937198">HE</tspan></text>
<text fill="#231f20" xml:space="preserve" transform="matrix(1 0 -0 1 -18 802.8)" font-size="11" font-family="Bookman"><tspan y="-730.081" x="102.48 105.0006"> L</tspan></text>
<text fill="#231f20" xml:space="preserve" transform="matrix(1 0 -0 1 -18 802.8)" font-size="7.69999" font-family="Bookman"><tspan y="-730.081" x="111.600009 114.17771 119.52741 122.10512 127.76282">IVING</tspan></text>
<text fill="#231f20" xml:space="preserve" transform="matrix(1 0 -0 1 -18 802.8)" font-size="11" font-family="Bookman"><tspan y="-730.081" x="133.92002 136.56063"> W</tspan></text>
<text fill="#231f20" xml:space="preserve" transform="matrix(1 0 -0 1 -18 802.8)" font-size="7.69999" font-family="Bookman"><tspan y="-730.0806" x="147.11612 153.2223 158.7125 163.27869">ORLD</tspan></text>
<text fill="#231f20" xml:space="preserve" transform="matrix(1 0 -0 1 -18 802.8)" font-size="11" font-family="Bookman"><tspan y="-729.36068" x="505.9201">7</tspan></text>
<path transform="matrix(.24,0,0,-.24,579.6,.11999512)" stroke-width="1" stroke-linecap="butt" stroke-miterlimit="10" stroke-linejoin="miter" fill="none" stroke="#000000" d="M0 0H60"/>
<path transform="matrix(.24,0,0,-.24,576.12,-18)" stroke-width="1" stroke-linecap="butt" stroke-miterlimit="10" stroke-linejoin="miter" fill="none" stroke="#000000" d="M0 0V-60"/>
<path transform="matrix(.24,0,0,-.24,579.6,784.44)" stroke-width="1" stroke-linecap="butt" stroke-miterlimit="10" stroke-linejoin="miter" fill="none" stroke="#000000" d="M0 0H60"/>
<path transform="matrix(.24,0,0,-.24,576.12,788.16)" stroke-width="1" stroke-linecap="butt" stroke-miterlimit="10" stroke-linejoin="miter" fill="none" stroke="#000000" d="M0 0V-59"/>
<path transform="matrix(.24,0,0,-.24,-17.88,-18.23999)" stroke-width="1" stroke-linecap="butt" stroke-miterlimit="10" stroke-linejoin="miter" fill="none" stroke="#000000" d="M0 0V-75"/>
<text fill="#231f20" xml:space="preserve" transform="matrix(1 0 -0 1 -18 802.8)" font-size="10.5" font-family="Bookman" font-style="italic"><tspan y="-688.561" x="60 69.13501 74.70002 77.53503 83.10004 89.50505 95.28006 100.84507 107.25008">melongena</tspan></text>
<text fill="#231f20" xml:space="preserve" transform="matrix(1 0 -0 1 -18 802.8)" font-size="10.5" font-family="Bookman"><tspan y="-688.561" x="113.520008 116.66281 118.97703 127.159839 134.08264 143.73546 149.60828 156.32109 158.63532 164.92813 170.17095 173.10376 179.81658 185.26938 190.51219 192.82642 199.11923 204.36205 207.29486 212.95767 219.67049 225.12329 227.43752 231.21033 236.87314 239.18737 242.96018 249.67299 254.9158 257.23005 262.47285 268.76567 274.00846 279.25126 282.18406 287.42686 292.66966">. Human beings belong to the species </tspan></text>
<text fill="#231f20" xml:space="preserve" transform="matrix(1 0 -0 1 -18 802.8)" font-size="10.5" font-family="Bookman" font-style="italic"><tspan y="-688.561" x="294.96003 300.45005 306.78007 312.9001 315.6601 321.15013 327.48014 332.97016 335.11518">sapiens  </tspan></text>
<text fill="#231f20" xml:space="preserve" transform="matrix(1 0 -0 1 -18 802.8)" font-size="10.5" font-family="Bookman"><tspan y="-688.561" x="337.2 345.17134 351.88264 354.81394 360.05525 366.76655 369.05784 371.98915 377.23045 379.52174 384.97303 389.37434 395.0356 401.9569 408.2482 413.4895">which is grouped</tspan><tspan y="-674.39999" x="60 63.0583 69.8966 72.33161 76.22991 83.068218 88.436519 90.87153 96.44983 101.81813 108.65643 115.704738 121.07304">in the genus </tspan></text>
<text fill="#231f20" xml:space="preserve" transform="matrix(1 0 -0 1 -18 802.8)" font-size="10.5" font-family="Bookman" font-style="italic"><tspan y="-674.39999" x="123.36 132.01999 137.94998 147.44997">Homo</tspan></text>
<text fill="#231f20" xml:space="preserve" transform="matrix(1 0 -0 1 -18 802.8)" font-size="10.5" font-family="Bookman"><tspan y="-674.39999" x="153.12 156.3743 158.78972 165.19403 172.01834 177.37265 179.78807 185.14238 190.49669 193.541 198.89531 205.71962 209.60393 212.64824 215.90254 218.94686 224.30117 226.71659 233.5409 239.5252 249.28952 254.64383 257.05924 260.94355 267.76786 274.80216 280.15647 283.41078 285.82618 289.08049 294.8548 299.3691 301.78453 308.60884 315.64314 325.40745 331.39176 338.21607 340.63148 347.03578 352.39009 355.4344 362.2587 367.823 371.0773 373.4927 376.53703 381.89134 384.30674 392.39106 396.90538 399.94969 403.83399 407.7183 413.0726">. The scientific name thus, for human being, is written</tspan><tspan y="-660.48098" x="59.999994 66.01999 71.40999">as </tspan></text>
<text fill="#231f20" xml:space="preserve" transform="matrix(1 0 -0 1 -18 802.8)" font-size="10.5" font-family="Bookman" font-style="italic"><tspan y="-660.48098" x="73.91999 82.38639 88.12279 97.429187 103.16558 105.53198 111.26838 117.84478 124.21118 127.21758 132.95398 139.53038">Homo sapiens</tspan></text>
<text fill="#231f20" xml:space="preserve" transform="matrix(1 0 -0 1 -18 802.8)" font-size="10.5" font-family="Bookman"><tspan y="-660.48098" x="145.19998">.</tspan></text>
<text fill="#00aeef" xml:space="preserve" transform="matrix(1 0 -0 1 -18 802.8)" font-size="12" font-family="Bookman"><tspan y="-639.121" x="59.999986 68.15999 72.47999 80.639987 84.959987 105.11998 115.07998 122.63998 131.39998 139.91999">1.2.2Genus</tspan></text>
<text fill="#231f20" xml:space="preserve" transform="matrix(1 0 -0 1 -18 802.8)" font-size="10.5" font-family="Bookman"><tspan y="-623.04098" x="59.99998 68.56397 75.02796 82.541957 89.84595 95.67994">Genus </tspan></text>
<text fill="#231f20" xml:space="preserve" transform="matrix(1 0 -0 1 -18 802.8)" font-size="10.5" font-family="Bookman"><tspan y="-623.04098" x="98.39998 103.85669 109.7334 119.60011 126.10683 130.72354 133.87026 139.32697 144.78368 150.24039 152.836 158.92272 161.51833 167.18503 171.80175 177.67845 184.81516 191.32187 193.91748 199.79419 203.1509 205.7465 210.36322 215.81993 218.96665 225.05336 229.04007 234.49678 241.0035 243.5991 249.05582 255.56253 261.01924 266.47593 269.62263 275.0793 280.536 283.13166 291.31837 298.24507 301.39176 306.84846 313.77516 316.3708 323.2975 329.3842 334.84089 337.43653 347.30323 353.17994 357.79664 363.25334 365.84898 371.30567 378.23237 384.31907 388.93577 395.02247 400.47917 404.46589 409.92259 414.53929">comprises a group of related species which has more characters</tspan><tspan y="-609.121" x="59.999979 63.14898 70.07798 73.74948 79.20848 85.08748 94.95648 104.825489 110.70448 117.633487 121.304988 124.45399 131.38298 135.05448 140.51348 146.39247 156.26148 162.77048 168.85948 173.47849 176.62749 182.08649 187.96549 194.89449 198.56598 202.55498 208.43398 212.10547 217.56447 224.07347 229.53247 234.99147 238.14048 243.59947 249.05847 252.72997 258.60899 261.968 265.6395 271.5185 275.5075 282.4365 287.8955 292.5145 296.186 301.855 307.31404 314.243 319.70204 324.321 330.41 333.769 337.44053 346.79997 352.26167 355.93586 361.39756 367.48927 374.42097 378.09516 383.55686 389.64857 395.32026 398.99446 402.98616 409.91786 416.00956">in common in comparison to species of other genera. We can say that</tspan><tspan y="-595.19998" x="59.99997 65.61758 71.025188 77.902797 83.3104 87.87801 93.91563 96.38824 102.42585 106.99346 112.40107 114.87368 120.91129 126.5289 132.14652 136.71413 142.12174 147.73935 153.77696 157.71457 163.12218 168.52979 171.0024 176.83 180.13762 182.61023 188.01784 191.11545 196.94306 202.35066 207.75827 210.85588 216.4735 218.9461 223.51372 228.92133 232.01894 238.05655 241.99416 247.40177 253.85938 256.332 261.73963 268.19725 273.60487 279.01249 282.11009 287.5177 292.92533 296.23295 298.70558 305.37318 311.20079 315.76838 318.241 323.64863 329.47624 335.51383 345.33143 351.78904 354.88664 360.29426 363.60188 366.0745 372.5321 378.3597 382.29734 388.33494 392.27256 398.10017 400.57279 406.61039 413.488">genera are aggregates of closely related species. For example, potato and</tspan><tspan y="-581.28097" x="59.99997 66.50767 71.12537 74.27306 81.20077 84.348468 90.436168 93.58386 96.45527 102.54297 107.16067 112.61837 115.48978 119.47748 127.66518 133.54288 136.41428 142.92198 146.06969 149.42739 152.78508 158.24279 162.86049 168.31819 175.2459 179.2336 182.105 187.5627 194.0704 199.5281 204.98581 208.13352 213.59122 219.04892 221.92032 228.42803 235.56572 239.55342 242.42482 248.93253 254.81023 258.7979 265.72563 268.59703 275.1047 280.5624 283.7101 289.5878 296.5155 302.1832 305.0546 309.0423 314.91999 317.79139 321.77909 328.7068 334.1645 337.0359 342.70359 348.1613 355.089 362.22669 367.6844">brinjal are two different species but both belong to the genus </tspan></text>
<text fill="#231f20" xml:space="preserve" transform="matrix(1 0 -0 1 -18 802.8)" font-size="10.5" font-family="Bookman" font-style="italic"><tspan y="-581.2805" x="370.55598 377.58888 383.57176 386.82466 393.64753 400.4704 407.29328 416.84617">Solanum.</tspan></text>
<text fill="#231f20" xml:space="preserve" transform="matrix(1 0 -0 1 -18 802.8)" font-size="10.5" font-family="Bookman"><tspan y="-567.6005" x="59.99997 66.29798 69.44599 75.324008 82.252017 85.410037">Lion (</tspan></text>
<text fill="#231f20" xml:space="preserve" transform="matrix(1 0 -0 1 -18 802.8)" font-size="10.5" font-family="Bookman" font-style="italic"><tspan y="-567.6005" x="88.55897 94.98256 101.61615 108.24974 111.94333 118.57692 124.37051 128.69409 135.32769 138.35128 141.41486 147.20845">Panthera leo</tspan></text>
<text fill="#231f20" xml:space="preserve" transform="matrix(1 0 -0 1 -18 802.8)" font-size="10.5" font-family="Bookman"><tspan y="-567.6005" x="152.87998 156.02059 159.3712 162.49681 165.63742 171.08803 176.95864 183.45925 189.53986 194.15998 200.63248 203.72997">), leopard (</tspan></text>
<text fill="#231f20" xml:space="preserve" transform="matrix(1 0 -0 1 -18 802.8)" font-size="10.5" font-family="Bookman" font-style="italic"><tspan y="-567.6005" x="206.87998 212.87998 216.20497 219.27997 225.75498 232.43997 236.63997 243.50997 250.16996">P. pardus</tspan></text>
<text fill="#231f20" xml:space="preserve" transform="matrix(1 0 -0 1 -18 802.8)" font-size="10.5" font-family="Bookman"><tspan y="-567.6005" x="255.59998 258.7483 261.8733 267.9616 274.88993 281.39823 284.52323 288.51155 291.65986 297.32817 302.78648 307.4048 310.5298">) and tiger (</tspan></text>
<text fill="#231f20" xml:space="preserve" transform="matrix(1 0 -0 1 -18 802.8)" font-size="10.5" font-family="Bookman" font-style="italic"><tspan y="-567.6005" x="313.67698">P</tspan></text>
<text fill="#231f20" xml:space="preserve" transform="matrix(1 0 -0 1 -18 802.8)" font-size="10.5" font-family="Bookman"><tspan y="-567.6005" x="320.15998 323.47999">. </tspan></text>
<text fill="#231f20" xml:space="preserve" transform="matrix(1 0 -0 1 -18 802.8)" font-size="10.5" font-family="Bookman" font-style="italic"><tspan y="-567.6005" x="326.63999 330.35398 333.43797 339.46195 343.80595 346.88993">tigris</tspan></text>
<text fill="#231f20" xml:space="preserve" transform="matrix(1 0 -0 1 -18 802.8)" font-size="10.5" font-family="Bookman"><tspan y="-567.6005" x="352.8 355.94 359.04 367.22004 370.36006 374.34007 381.26008 384.36009 389.8101 395.2601 400.7101 406.16014 410.77015 416.85017">) with several</tspan><tspan y="-553.68057" x="60 65.28441 70.988819 80.68323 90.37764 96.08205 102.83646 105.18967 108.37408 113.658489 119.5729 123.38731 130.35172 134.79613 140.08054 145.36495 148.54935 150.90256 156.81697 161.26139 166.54579 168.89899 174.8134 177.78781 180.76222 183.11542 188.39983 194.73424 200.01865 205.30306 208.27747 213.56188 218.84629 221.1995 226.9039 230.08832 232.44153 236.25594 243.01035 248.29476 250.64795 256.14237 261.4268 268.1812 275.14564 280.43006">common features, are all species of the genus </tspan></text>
<text fill="#231f20" xml:space="preserve" transform="matrix(1 0 -0 1 -18 802.8)" font-size="10.5" font-family="Bookman" font-style="italic"><tspan y="-553.68057" x="282.72 288.9811 295.4522 301.9233 305.4544 311.9255 317.5566 321.7177 328.1888 331.29994">Panthera. </tspan></text>
<text fill="#231f20" xml:space="preserve" transform="matrix(1 0 -0 1 -18 802.8)" font-size="10.5" font-family="Bookman"><tspan y="-553.68057" x="333.36 339.6929 346.4458 349.4187 354.7016 357.03453 362.52745 367.81034 374.56324 381.52616 386.80906 389.14198 395.47489 398.44779 401.6307 404.81364 410.09654 414.53944">This genus differs</tspan><tspan y="-539.76058" x="60 63.3272 67.9144 73.7616 83.5988 86.09271 92.14991 99.04711 104.89431 108.85151 115.74871 121.17591 125.76311 128.25702 133.89423 139.32143 146.21863 153.32582 158.75302">from another genus </tspan></text>
<text fill="#231f20" xml:space="preserve" transform="matrix(1 0 -0 1 -18 802.8)" font-size="10.5" font-family="Bookman" font-style="italic"><tspan y="-539.76058" x="161.28 167.806 173.492 176.448 179.40399 185.09">Felis </tspan></text>
<text fill="#231f20" xml:space="preserve" transform="matrix(1 0 -0 1 -18 802.8)" font-size="10.5" font-family="Bookman"><tspan y="-539.76058" x="187.44 195.5995 202.49901 205.61852 211.04802 217.94753 220.42702 223.54653 230.44603 235.87554 238.99504 246.10454 252.58405 258.01356 263.44306 265.92256 271.35206 277.41157 281.37107 286.80058">which includes cats.</tspan></text>
<text fill="#00aeef" xml:space="preserve" transform="matrix(1 0 -0 1 -18 802.8)" font-size="12" font-family="Bookman"><tspan y="-518.4006" x="60 68.09999 72.35998 80.45997 84.719959 104.64 112.8 119.76 131.76001 136.08002 140.16002">1.2.3Family</tspan></text>
<text fill="#231f20" xml:space="preserve" transform="matrix(1 0 -0 1 -18 802.8)" font-size="10.5" font-family="Bookman"><tspan y="-502.3206" x="60 66.50831 73.436618 78.89493 82.10325 89.031558 94.48987 100.36818 104.35649 107.56481 113.023128 119.111438 123.09975 128.55806 134.22637 140.10468 144.72299 150.3913 153.7496">The next category, </tspan></text>
<text fill="#231f20" xml:space="preserve" transform="matrix(1 0 -0 1 -18 802.8)" font-size="10.5" font-family="Bookman"><tspan y="-502.3206" x="156.957 164.019 170.03099 180.45299 184.15499 187.64699">Family</tspan></text>
<text fill="#231f20" xml:space="preserve" transform="matrix(1 0 -0 1 -18 802.8)" font-size="10.5" font-family="Bookman"><tspan y="-502.3206" x="194.16 197.5159 200.7163 207.6422 213.7281 219.184 222.3844 228.4703 231.6707 237.3366 241.9525 247.8284 254.9643 261.47019 264.6706 270.5465 273.9024 277.1028 281.71873 287.17463 290.32054 296.40644 300.39234 305.84825 312.35414 315.55455 321.22044 326.67634 333.60224 339.05815 343.67405 349.75996 352.96037 361.14628 364.29219 368.27809 375.20399 378.4044 383.8603 387.8462 390.9921 394.138 397.2839 400.4843 403.63023 409.08613 414.54203">, has a group of related genera with still less</tspan><tspan y="-488.40058" x="60 66.92511 74.06022 83.92533 90.43044 95.88555 100.50066 103.189189 109.06429 112.4194 115.107929 120.563037 123.708148 133.57326 136.71837 139.86348 145.9486 150.5637 153.70882 157.69393 160.83904 166.29415 171.74925 174.43778 180.52289 185.978 188.6665 194.12162 199.99672 209.86183 216.36695 222.45206 227.06717 232.52228 239.02739 241.71591 245.70102 251.57613 254.26465 259.92976 265.38487 272.30998 279.44508 284.90019 287.58869 293.6738 300.5989 307.104 309.7925 315.24763 321.75273 327.20783 332.66294 335.80805 341.26316 346.71827 350.07337 352.76188 355.45039 358.1389 364.854 370.93913 380.80424 383.94935 387.09446 390.23957 395.69468 401.14979 403.8383 409.9234 414.5385">number of similarities as compared to genus and species.   Families are</tspan><tspan y="-474.48057" x="60 65.353717 72.17742 78.16113 82.67484 88.658557 94.01227 97.89598 103.249698 107.763408 110.80711 116.16083 121.51454 127.91825 130.33696 136.11067 142.93439 145.35309 149.2368 156.06052 161.41423 163.83293 170.23665 176.22035 181.57407 184.61779 189.9715 192.3902 198.16391 201.41762 203.83632 210.24004 216.01375 219.89746 226.72118 229.13988 234.49359 239.8473 245.41101 250.76473 254.64844 260.63215 264.51585 267.55955 272.91325 278.26695 280.68568 286.66938 293.49308 299.8968 302.31553 306.82923 312.18293 318.58665 323.10035 328.87406 335.27778 342.3115 347.6652 351.5489 354.5926 359.9463 365.3 367.71873 370.97245 376.32615 382.30986 386.19355 393.22727 397.74098 403.09468 408.44837 410.8671 416.6408">characterised on the basis of both vegetative and reproductive features of</tspan><tspan y="-460.56056" x="60 66.371707 69.38341 75.335109 82.12681 85.97851 88.36132 93.68302 100.05472 105.37642 110.69812 113.70982 119.031528 124.353229 127.57493 129.95775 136.95944 146.69115 152.43285 159.22455 164.75626 167.13907 173.51078 176.52248 182.47418 189.26589 193.11759 198.43929 200.8221 204.0438 209.78549 214.2672 216.65001 221.97171 227.71341 233.66512 243.39682 249.76853 252.78023 258.10194 261.32365 263.70646 267.55818 274.34986 278.83155 284.15324 289.4749 291.85774 298.22944 301.24113 304.46284 307.68455 313.00624 317.4879 322.8096 329.6013 333.453 335.83583 341.36753 346.6892 353.4809 358.80259 363.28428 369.23597">plant species. Among plants for example, three different genera </tspan></text>
<text fill="#231f20" xml:space="preserve" transform="matrix(1 0 -0 1 -18 802.8)" font-size="10.5" font-family="Bookman" font-style="italic"><tspan y="-460.56056" x="371.52 378.40998 384.24998 387.35997 394.03996 400.71995 407.39994">Solanum</tspan></text>
<text fill="#231f20" xml:space="preserve" transform="matrix(1 0 -0 1 -18 802.8)" font-size="10.5" font-family="Bookman"><tspan y="-460.56056" x="416.63999">,</tspan></text>
<text fill="#231f20" xml:space="preserve" transform="matrix(1 0 -0 1 -18 802.8)" font-size="10.5" font-family="Bookman" font-style="italic"><tspan y="-446.64054" x="59.99997 66.43136 72.23275 75.93414 82.57553 89.21692 92.28831 98.929698">Petunia </tspan></text>
<text fill="#231f20" xml:space="preserve" transform="matrix(1 0 -0 1 -18 802.8)" font-size="10.5" font-family="Bookman"><tspan y="-446.64054" x="101.27997 107.303279 114.16659 120.6099">and </tspan></text>
<text fill="#231f20" xml:space="preserve" transform="matrix(1 0 -0 1 -18 802.8)" font-size="10.5" font-family="Bookman" font-style="italic"><tspan y="-446.64054" x="123.119968 131.06166 137.74337 141.48506 148.16677 152.53847 159.22017">Datura </tspan></text>
<text fill="#231f20" xml:space="preserve" transform="matrix(1 0 -0 1 -18 802.8)" font-size="10.5" font-family="Bookman"><tspan y="-446.64054" x="161.51996 167.54116 172.09235 177.48355 179.93195 186.37314 189.45435 195.47554 200.86675 206.25795 212.69916 215.14756 218.22876 225.08997 227.53836 231.45957 238.32077 243.71198 246.16037 249.45157 255.47277 265.27397 268.35517 271.43638 277.03758 279.48597 286.34718 292.15837 295.23957 301.26078 308.12199 314.1432 319.5344 324.9256 330.9468 336.338 339.6292 342.0776 349.1488 358.95 364.7612 371.6224 377.2236 379.672 385.6932 392.5544 395.63563 405.43684 411.45805 414.53926">are placed in the family Solanaceae. Among animals</tspan><tspan y="-432.96055" x="59.99996 63.32217 69.16438 73.7466 76.23552 81.65773 87.49994 93.55215 103.38435 109.85657 112.96878 118.39099 121.7132 124.202129 129.83434 135.25655 142.14876 149.25096 154.67317">for example, genus </tspan></text>
<text fill="#231f20" xml:space="preserve" transform="matrix(1 0 -0 1 -18 802.8)" font-size="10.5" font-family="Bookman" font-style="italic"><tspan y="-432.96055" x="157.19995 163.57706 170.16416 176.75125 180.39835 186.98545 192.73255 197.00965">Panthera</tspan></text>
<text fill="#231f20" xml:space="preserve" transform="matrix(1 0 -0 1 -18 802.8)" font-size="10.5" font-family="Bookman"><tspan y="-432.96055" x="203.51996 206.84026 209.32486 214.74517 220.58547 230.41577 236.88608 241.46639 244.57669 249.997 253.1073 259.9976 265.6279 268.11253 271.2228 274.3331 280.1734 287.0637 290.384 292.86863 296.8189 299.9292 305.5595 310.9798 315.11997 318.42369 320.8917 323.98539 329.38908 335.21278 341.66648 347.70018 352.31999 358.80128 361.29689 364.41819 369.8495 372.3451 378.8264 385.93769 389.899 392.3946 398.4559 401.5772 407.4285 414.3298">, comprising lion, tiger, leopard is put along</tspan><tspan y="-419.04054" x="59.99997 68.13268 71.225399 75.158107 82.030818 84.50854 90.12125 95.52396 102.39667 109.47938 114.88209 118.1848">with genus, </tspan></text>
<text fill="#231f20" xml:space="preserve" transform="matrix(1 0 -0 1 -18 802.8)" font-size="10.5" font-family="Bookman" font-style="italic"><tspan y="-419.04054" x="120.479969 127.01597 132.71198 135.67798 138.64398 144.33998">Felis </tspan></text>
<text fill="#231f20" xml:space="preserve" transform="matrix(1 0 -0 1 -18 802.8)" font-size="10.5" font-family="Bookman"><tspan y="-419.04054" x="146.63997 149.72357 155.11717 161.14078 165.06438 170.45798 173.54158 175.99629 179.0799 185.9435 188.39821 192.32181 199.18541 204.57901 207.03372 210.32732 216.35092 226.15453 229.23813 232.32173 237.92534 240.38005 247.03365 252.42725 255.51085 258.59446 265.03807 271.06166 276.45527 279.74888 282.20359 289.06718 292.15077 301.95436 305.03794 308.12153 314.1451 318.6987 321.7823 327.3859 330.6795 333.13423 336.2178 339.5114 341.96614 347.56974 353.38334 360.45695 362.91166 368.72526 375.16886 380.56245 385.95606 390.50965 395.90327 401.29689 403.7516 407.6752 414.5388">(cats) in the family Felidae. Similarly, if you observe the</tspan><tspan y="-405.1205" x="59.99997 63.35738 68.81479 74.9022 78.88961 86.02702 90.64443 96.101848 101.55926 105.473758 111.351169 114.70857 118.62307 124.71048 128.62497 134.08238 140.1698 144.15721 148.0717 154.15912 161.08654 167.59395 171.50844 177.59586 181.51035 188.01776 193.89517 199.56258 202.91999 206.83448 212.50188 218.37929 225.5167 229.43119 237.61859 240.766 243.91342 247.06084 250.97533 254.33274 257.48014 264.40754 270.91496 274.82948 280.28688 286.16429 296.03169 301.48908 305.4036 310.861 314.0084 323.8758 327.0232 330.1706 336.258 340.8754 344.0228 348.0102 351.1576 356.615 362.0724 365.9869 372.0743 379.0017 385.50914 389.42366 393.33818 398.79557 404.67298 414.54039">features of a cat and a dog, you will find some similarities and  some</tspan><tspan y="-391.2005" x="59.99997 66.36378 69.367588 72.5814 75.79521 81.109027 85.58283 90.896648 97.68046 102.99427 108.30808 113.621898 115.999408 121.943218 127.25703 129.63454 137.67835 142.99216 145.99597 148.99979 152.2136 154.5911 160.95491 167.73873 173.05254 178.57634 180.95384 186.89766 191.37148 196.68529 199.06279 204.3766 209.69042 216.05423 221.99805 226.47187 232.41568 236.25949 241.5733 247.93712 250.31462 253.31844 260.10224 263.94606 269.67985 272.05735 275.90116 283.94499 289.67878 292.05628 298.42008 301.4239 304.6377 307.8515 313.1653 317.63914 322.95295 329.73677 333.58058 335.95808 339.17189 345.1157 354.8395 357.84333 360.84715 363.85096 369.16477 374.47859 376.85609 381.9599 384.3374 390.91123 396.22505 399.22886 402.23268 408.59648 414.54029">differences as well. They are separated into two different families &#x2013; Felidae</tspan><tspan y="-377.2805" x="59.99997 66.02198 72.88399 79.326 81.768009 89.47002 95.49203 102.354038 105.43604 111.87805 117.90006">and Canidae</tspan></text>
<text fill="#231f20" xml:space="preserve" transform="matrix(1 0 -0 1 -18 802.8)" font-size="10.5" font-family="Bookman" font-style="italic"><tspan y="-377.2805" x="123.35997 126.81996">, </tspan></text>
<text fill="#231f20" xml:space="preserve" transform="matrix(1 0 -0 1 -18 802.8)" font-size="10.5" font-family="Bookman"><tspan y="-377.2805" x="128.87998 133.42639 138.8128 144.19922 150.63564 156.02205 161.40847 165.32488 168.40129 173.7877 179.17412 182.25054">respectively</tspan></text>
<text fill="#231f20" xml:space="preserve" transform="matrix(1 0 -0 1 -18 802.8)" font-size="10.5" font-family="Bookman" font-style="italic"><tspan y="-377.2805" x="187.91999">.</tspan></text>
<text fill="#00aeef" xml:space="preserve" transform="matrix(1 0 -0 1 -18 802.8)" font-size="12" font-family="Bookman"><tspan y="-356.1605" x="59.999986 68.219989 72.59998 80.819988 85.19998 105.359989 115.43997 121.439968 129.59996 137.03995">1.2.4Order</tspan></text>
<text fill="#231f20" xml:space="preserve" transform="matrix(1 0 -0 1 -18 802.8)" font-size="10.5" font-family="Bookman"><tspan y="-340.0805" x="59.999986 65.999988 71.83038 78.920787 81.39488 88.27528 94.31568 99.72608 105.13648 107.61058 113.02098 118.43138 123.84178 130.72219 133.19628 138.60668 144.64708 149.21749 152.31789 155.41829 160.82869 165.3991 167.87319 171.81359 178.69399 184.73439 188.67479 191.14888 196.55928 202.59969 206.54009 211.95049 217.57089 223.40129 227.9717 231.0721 236.4825 241.8929 244.36699 247.46739 250.5678 257.0282 262.4386 264.9127 270.3231 276.78349 282.19389 287.60429 290.70469 296.11509 301.52549 304.83589 307.30998 312.93037 318.34077 325.22117 332.31156 337.72196 340.19606 346.23646 353.11686 359.57725 362.05134 365.36174 371.40214 381.22254 384.32295 387.42335 390.52375 395.93415 401.34455 403.81864 409.85905 414.47999">You have seen earlier that categories like species, genus and families are</tspan><tspan y="-326.1605" x="59.99997 66.50648 72.59299 78.0495 83.50601 90.01252 93.56902 99.44553 106.37205 109.92855 116.01506 119.571559 126.49807 133.63459 143.5011 150.00762 155.46413 160.08065 163.63715 169.51366 172.87017 176.42667 181.88318 185.0297 194.89621 198.04273 201.18924 207.27576 211.89228 215.44878 220.90529 227.8318 233.91832 238.53484 244.62136 250.07787 254.06438 259.52088 264.1374 269.5939 272.9504 276.5069 280.0634 283.61988 292.0164 297.4729 304.3994 309.85594 314.47245 320.55897 323.70549 326.852 332.5185 335.875 339.4315 345.30799 349.9245 356.431 361.8875 366.50404 370.06053 376.14704 383.07356 389.58006 393.13655 399.01304 402.99955 409.92607 415.38258">based on a number of similar characters.   Generally, order and other</tspan><tspan y="-312.24049" x="59.99997 66.92778 70.07559 75.7434 82.67121 88.12902 92.74683 96.804637 100.79244 106.88025 112.75806 118.635868 125.563678 131.44149 141.3093 144.4571 149.91492 153.97272 159.43053 165.51834 169.50615 174.96396 180.63178 186.50959 191.1274 194.2752 199.73302 205.19083 209.24863 215.33644 219.95426 225.41207 229.46987 232.61768 239.12549 244.5833 251.51111 255.49892 258.64674 262.00456 265.15235 270.61018 277.11799 281.17579 287.6836 293.7714 299.22923 304.68705 311.19486 315.25267 321.13047 328.05827 332.11607 336.10389 343.03169 348.4895 352.5473 358.6351 364.30293 369.97074 374.58854 380.04637 385.71418 391.80198 395.7898 401.24763 406.70545 410.76325 416.64106">higher taxonomic categories are identified based on the aggregates of</tspan><tspan y="-298.32048" x="59.99997 65.44858 72.36719 78.4458 83.05441 89.133029 94.581638 98.56024 104.00885 108.61746 114.06607 117.41468 119.92699 122.43929 130.82791 135.43653 141.93514 147.38375 151.99236 154.50467 161.00328 166.45189 169.5905 176.50911 182.16773 184.68004 190.75865 193.27097 200.18958 203.32819 208.9868 215.90541 221.35402 225.96263 228.47495 233.92356 240.00217 243.98078 249.42938 255.088 260.9566 265.56523 271.22383 274.57243 277.08473 280.22334 285.67195 288.18424 292.16285 299.08146 304.53007 307.04237 313.12098 318.56959 324.0182 329.4668 339.3254 345.824 348.96263 355.04124 360.69984 366.14845 368.66075 374.52937 377.87797 380.39027 383.73887 389.81748 399.6761 402.8147 405.9533 409.09193 414.54054">characters.  Order being a higher category, is the assemblage of families</tspan><tspan y="-284.40046" x="59.99997 68.10237 74.94477 78.00717 83.37957 90.22197 92.65688 98.02928 103.82168 110.66408 113.72648 120.14888 123.21128 127.11368 129.54859 135.55098 137.98589 141.25829 146.63069 154.7331 157.168 162.5404 165.6028 175.3852 178.44759 181.50998 187.51238 192.04477 194.47968 199.85208 206.69449 212.69689 217.22928 223.23168 228.60408 232.50649 237.87889 242.41129 247.78369 251.05609 253.491 255.9259 262.3483 269.1907 274.5631 276.99803 282.37043 285.43284 295.21525 298.27766 301.34007 307.34248 311.87489 314.30979 319.6822 326.5246 332.527 337.05943 343.06184 348.43424 352.33665 357.70906 362.24147 367.61387 370.04878 376.05119 380.5836 385.956 388.3909 391.4533 396.8257 402.19813 407.57054 410.00544 413.06785">which exhibit a few similar characters.  The similar characters are less in</tspan><tspan y="-270.48045" x="59.99997 66.92648 74.062999 83.929508 90.43601 95.892528 100.50903 104.96093 111.04744 116.50395 120.95585 126.41236 132.28887 142.15538 148.6619 154.74842 159.36493 164.82144 171.32796 175.77985 179.76636 185.64287 190.09476 196.60128 199.74779 203.1043 206.4608 211.91732 216.53383 221.99034 228.91686 232.90337 237.35526 243.02176 248.47827 255.40479 260.8613 265.4778 271.56434 276.01625 279.16276 286.08927 291.54579 294.6923 301.8288 308.3353 313.7918 320.2983 324.7502 327.89674 334.82325 339.27516 345.36167 349.81358 353.17008 359.2566 369.1231 372.26963 375.41615 381.08265 384.43916 388.89106 393.34297 399.84947 402.99598 409.0825 416.009">number as compared to different genera included in a family.  Plant</tspan><tspan y="-256.56044" x="59.99997 63.47456 69.67915 79.66374 82.92833 86.19292 89.457508 95.0321 100.60669 105.75628 109.02087 112.28545 118.91004 124.484638 129.63422 137.5188 143.51338 150.55797 156.13256 162.12714 165.39173 170.96631 178.2209 181.48549 187.69008 193.26467 198.83925 205.04384 210.61843 214.09302 219.24262 226.2872 232.28179 235.54637 241.75096 248.79555 255.00014 260.57475 266.14933 272.3539 277.9285 283.07807 289.28266 294.01725 299.59184 304.7414 308.00599 315.05058 320.62516 323.88975 331.14433 337.76893 343.3435 349.9681 355.11769 358.38227 365.42686 370.57643 374.681 381.7256 387.30018 392.44975 398.44435 403.17893 409.80354 415.3781">families like Convolvulaceae, Solanaceae are included in the order</tspan><tspan y="-242.64043" x="59.99997 66.50717 72.38437 75.53157 81.19877 91.06597 96.94317 103.87037 107.01757 113.104778 116.251979 121.709178 127.166378 130.60686 140.47406 146.56127 149.70847 156.63567 159.78287 165.45008 168.89055 175.39775 181.48496 186.94216 192.39936 198.90656 202.34703 208.22423 215.15143 218.5919 222.5791 229.5063 234.9635 238.40398 241.76117 244.90837 250.78557 255.40277 261.48997 264.63716 268.07765 273.53486 280.46205 286.54924 291.1664 297.2536 302.71083 306.69804 312.15525 316.77244 322.22966 325.58686 329.02735 335.53456 342.46174 347.91896 351.35945 357.44664 364.37385 367.52104 377.3882 383.4754 386.6226 390.06309 395.94029 400.79997 407.29499 412.74 416.63996">Polymoniales mainly based on the floral characters. The animal order,</tspan><tspan y="-228.72043" x="59.99994 67.72275 73.76556 78.33836 85.221179 88.32399 93.7368 99.56961 104.14242 110.18523 113.49804 115.97756 119.080379 125.96319 131.37599 134.4788 141.57161 148.03443 153.44724 158.86005 161.33957 164.65238 170.69519 180.518 183.62082 186.72364 189.82645 195.23926 200.65207 203.13159 206.2344 209.33722 215.80004 221.21285 223.69237 230.36518 235.77799 238.8808 241.98361 248.44643 254.48925 259.90205 262.38157 268.42439 275.3072 281.77 284.2495 291.97233 298.01515 304.89796 308.00077 314.46357 320.50639 325.9192">Carnivora, includes families like Felidae and Canidae.</tspan></text>
<text fill="#00aeef" xml:space="preserve" transform="matrix(1 0 -0 1 -18 802.8)" font-size="12" font-family="Bookman"><tspan y="-207.60044" x="59.99994 68.09993 72.35992 80.45991 84.719898 104.879947 114.35995 119.03995 126.599948 133.43994">1.2.5Class</tspan></text>
<text fill="#231f20" xml:space="preserve" transform="matrix(1 0 -0 1 -18 802.8)" font-size="10.5" font-family="Bookman"><tspan y="-191.52043" x="59.999944 66.66574 73.75154 77.05734 82.67314 87.863948 93.479747 99.72555 103.871349 109.487148 115.31294 121.34874 126.12454 131.95035 137.14115 140.44695 147.53275 153.14855 156.45435 163.75016 170.41596 176.03176 181.64756 186.83835 191.61415 197.22995 200.53575 206.78156 210.92736 216.54315 223.20896 228.39975 234.43555 239.21135 245.87715 251.49295 256.26875 261.88456 265.40037 270.59117 277.46696 283.50276 288.27854 293.46934 299.08515 305.12095 311.36674 321.39253 328.05833 331.3641 336.97993 340.49574 345.68653 351.72233 356.4981 363.1639 368.77973 373.5555 378.7463 385.4121 390.1879 393.49369 403.51948 409.76527 413.91108">This category includes related orders. For example, order Primata</tspan><tspan y="-177.60044" x="59.999944 65.30705 71.034168 80.751277 87.10838 91.57549 94.5726 99.879718 102.87682 109.65393 115.17104 117.54315 127.26026 132.98737 139.76448 146.1216 151.42871 156.94582 160.15293 162.52503 168.04213 173.76924 178.23636 181.23348 184.23059 187.2277 193.16481 195.53691 201.47402 208.25113 214.60825 216.98035 222.49745 225.49457 231.85169 238.2088 243.93592 250.71303 253.08513 256.08226 261.38935 263.76148 270.1186 273.1157 279.0528 284.3599 289.667 296.0241 298.39625 301.39335 308.17045 310.54258 315.84968 318.84678 324.78388 330.09098 335.39808 337.7702 347.2773 353.21443 362.93153 372.64863 378.58573 381.58283 384.57994 390.51704 392.88917 398.82627 401.82337 407.55049 414.32759">comprising monkey, gorilla and gibbon is placed in class Mammalia along</tspan><tspan y="-163.68044" x="59.999944 68.189357 71.33876 75.32817 82.25758 84.78069 90.6601 95.278949 101.76334 107.19775 111.792148 114.29024 122.03464 128.09905 132.95995 139.86815 142.99636 148.43456 154.29276 158.89096 164.95917 167.46106 171.42926 178.33747 184.40567 188.37387 190.87577 194.00397 200.91217 206.35037 209.47858 216.59677 223.08498 228.52318 233.96138 236.46327 242.53148 249.43968 252.56789 262.41609 268.48429 271.6125 277.0507 279.55259 282.6808 285.809 292.29719 297.73539 300.23728 304.20549 307.33369 312.98188 318.42008 322.55995 325.89704 328.39784 333.83494 339.90205 343.86915 346.36994 352.43705 359.34416 365.83125 368.33204 374.81913 380.6762 386.3233 389.6604 392.1612 399.9083 403.0354 409.1025 414.5396">with order Carnivora that includes animals like tiger, cat and dog. Class</tspan><tspan y="-149.76044" x="59.99994 69.62564 75.68134 85.517047 95.352748 101.40845 104.52415 107.63985 113.69555 116.18376 123.07946 129.13516 134.56087 137.04907 142.89478 146.85048 153.74619 159.17189 163.75759 166.24579 172.09149 176.67719 183.1529 188.5786 193.16429 198.59 201.0782 207.1339 210.2496 215.67531 221.52101">Mammalia has other orders also.</tspan></text>
<text fill="#00aeef" xml:space="preserve" transform="matrix(1 0 -0 1 -18 802.8)" font-size="12" font-family="Bookman"><tspan y="-128.64044" x="59.99994 68.15994 72.47994 80.63994 84.95994 105.119937 113.23193 121.58393 129.21593 133.48793 141.59993">1.2.6Phylum</tspan></text>
<text fill="#231f20" xml:space="preserve" transform="matrix(1 0 -0 1 -18 802.8)" font-size="10.5" font-family="Bookman"><tspan y="-108.48044" x="59.999937 67.67133 70.72273 76.714138 82.07553 87.436939 92.79834 98.159748 100.58366 105.94505 111.726459 121.497859 127.909259 132.43067 135.48207 140.84348 143.89488 150.72629 156.29769 158.72159 164.71298 171.54439 174.5958 184.36719 190.35858 193.40999 198.7714 201.1953 204.2467 207.29811 213.70952 219.07093 221.49483 224.75623 227.80764 233.16904 240.00045 245.36185 250.72325 253.98465 256.40858 262.39997 272.17137 278.58277 285.41416 288.46556 294.87696 297.92835 303.91975 310.75114 316.11253 319.37394 321.79786 326.31925 331.68064 338.09205 341.98344 345.03483 348.0862 353.4476 358.809 362.0704 364.49433 370.90574 373.95713 378.47853 384.88993 390.2513 392.67524 398.66664 401.71803 407.49943 414.3308">Classes comprising animals like fishes, amphibians, reptiles, birds along</tspan><tspan y="-94.320438" x="59.999937 68.188739 71.33754 75.32634 82.25514 86.236148 96.10495 102.19375 112.062549 121.93135 128.02016 131.16896 136.62776 140.60877 146.06757 151.94637 158.87517 164.33397 168.32277 171.47158 175.46038 182.59917 186.58797 192.04677 196.02777 200.01657 206.94538 212.40418 216.38516 223.31397 228.77277 234.65157 238.64037 242.62137 249.55017 252.69898 258.36778 265.29658 270.75538 275.37419 279.35517 284.81398 290.90278 294.89158 300.35038 306.01918 311.89799 316.51679 322.18559 326.16658 331.62538 337.71418 340.86299 344.01179 349.47059 355.97938 359.96037 366.46916 373.39796 379.06675 382.21556 389.35435 399.22315 402.58195 406.56294 413.70173 416.85054">with mammals constitute the next higher category called Phylum. All</tspan></text>
<g clip-path="url(#clip_23)">
<text xml:space="preserve" transform="matrix(1 0 -0 1 259.314 763.99978)" font-size="8" font-family="Arial"><tspan y="6.316" x="0"> </tspan></text>
</g>
</g>
</svg>
