<svg xmlns="http://www.w3.org/2000/svg" xmlns:xlink="http://www.w3.org/1999/xlink" xmlns:inkscape="http://www.inkscape.org/namespaces/inkscape" version="1.1" width="576" height="784.8" viewBox="0 0 576 784.8">
<defs>
<clipPath id="clip_16">
<path transform="matrix(1,0,0,-1,-18,802.8)" d="M18 18H594V802.8H18Z" clip-rule="evenodd"/>
</clipPath>
<clipPath id="clip_17">
<path transform="matrix(1,0,0,-1,259.314,763.99978)" d="M0-8H57.372V.800049H0Z"/>
</clipPath>
</defs>
<g clip-path="url(#clip_16)">
<path transform="matrix(.24,0,0,-.24,-18,802.8)" d="M2 2H2548V214.67H2Z" fill="#cbdf7f" fill-rule="evenodd"/>
<path transform="matrix(.24,0,0,-.24,-18,802.8)" stroke-width="4" stroke-linecap="butt" stroke-miterlimit="1000" stroke-linejoin="miter" fill="none" stroke="#cbdf7f" d="M2 2H2548V214.67H2Z"/>
<path transform="matrix(.24,0,0,-.24,-18,802.8)" d="M0 3035.83H2550V3372.7003H0Z" fill="#d1d3d4" fill-rule="evenodd"/>
<path transform="matrix(.24,0,0,-.24,-18,802.8)" d="M0 3078.33H2550V3420H0Z" fill="#e1ecb6" fill-rule="evenodd"/>
<path transform="matrix(.24,0,0,-.24,62.6362,53.63501)" d="M0 0C7.32 7.32 16.16 10.98 26.52 10.98H97.35C107.71 10.98 116.55 7.32 123.87 0 131.19-7.33 134.85-16.17 134.85-26.52V-101.52C134.85-111.88 131.19-120.72 123.87-128.04 116.55-135.36 107.71-139.02 97.35-139.02H26.52C16.16-139.02 7.32-135.36 0-128.04-7.32-120.72-10.98-111.88-10.98-101.52V-26.52C-10.98-16.17-7.32-7.33 0 0" fill="#ffffff" fill-rule="evenodd"/>
<text fill="#231f20" xml:space="preserve" transform="matrix(1 0 -0 1 -18 802.8)" font-size="11" font-family="Bookman"><tspan y="-729.361" x="87.12">4</tspan></text>
<text fill="#231f20" xml:space="preserve" transform="matrix(1 0 -0 1 -18 802.8)" font-size="11" font-family="Bookman"><tspan y="-729.361" x="513.12">B</tspan></text>
<text fill="#231f20" xml:space="preserve" transform="matrix(1 0 -0 1 -18 802.8)" font-size="7.69999" font-family="Bookman"><tspan y="-729.361" x="521.04 523.4336 529.3692 533.76486 539.70046 545.63607">IOLOGY</tspan></text>
<path transform="matrix(.24,0,0,-.24,-18,.35998536)" stroke-width="1" stroke-linecap="butt" stroke-miterlimit="10" stroke-linejoin="miter" fill="none" stroke="#000000" d="M0 0H60"/>
<path transform="matrix(.24,0,0,-.24,.12000084,-18)" stroke-width="1" stroke-linecap="butt" stroke-miterlimit="10" stroke-linejoin="miter" fill="none" stroke="#000000" d="M0 0V-60"/>
<path transform="matrix(.24,0,0,-.24,-18,784.68)" stroke-width="1" stroke-linecap="butt" stroke-miterlimit="10" stroke-linejoin="miter" fill="none" stroke="#000000" d="M0 0H60"/>
<path transform="matrix(.24,0,0,-.24,.12000084,788.16)" stroke-width="1" stroke-linecap="butt" stroke-miterlimit="10" stroke-linejoin="miter" fill="none" stroke="#000000" d="M0 0V-60"/>
<path transform="matrix(.24,0,0,-.24,593.64,784.56)" stroke-width="1" stroke-linecap="butt" stroke-miterlimit="10" stroke-linejoin="miter" fill="none" stroke="#231f20" d="M0 0V-75"/>
<text fill="#231f20" xml:space="preserve" transform="matrix(1 0 -0 1 -18 802.8)" font-size="10.5" font-family="Bookman"><tspan y="-688.561" x="192 195.9783 201.6366 208.1349 213.5832 219.03151 221.9434 227.8117 231.16 234.0719 239.9402 244.56 250.22512 256.3102 263.23533 266.38044 271.83555 281.70066 287.15577 290.07447 296.57957">types of organisms pr</tspan><tspan y="-688.56057" x="301.1952 306.662 312.12879 317.59559 324.53239 328.52919 331.45957 337.34638 344.28318 347.21357 352.68037 358.77717 363.40397 367.40077 374.33757 377.70436 380.63475 390.00019 395.44718 398.3578 403.80479 410.72178 416.58879 423.7158 426.85279 433.3498 436.26039 441.12019 446.5578 456.4054 461.84303 471.6906 478.17823 483.61585 488.21345 491.11466 498.02229 503.4599 508.08018 513.548 516.4794 520.4772 527.415 533.51278 537.51058 540.44198 546.53976">esent on earth. We should remember here that as</tspan><tspan y="-674.4006" x="192.00019 200.01648 205.30278 207.65277 212.93907 218.64537 224.98168 227.95798 233.66428 238.11058 243.39688 245.74687 252.50318 257.7895 265.8058 268.1558 274.07209 278.51838 283.8047 289.72099 295.00727 298.19358 300.54359 306.45988 313.21617 319.55247 321.90248 327.18879 332.4751 337.7614 344.5177 346.8677 352.574 355.5503 361.8866 364.2366 369.9429 376.6992 381.98548 387.2718 390.4581 392.8081 399.5644 404.8507 412.867 415.217 420.9233 425.3696 430.8659 436.7822 443.53849 446.51478 451.8011 461.49739 466.7837 469.1337 475.05 479.49629 484.7826 487.1326 492.41889 498.12519 504.88148 508.69779 511.67408 518.43038 525.39669 531.10299 538.0693 543.3556 546.3319">we explore new areas, and even old ones, new organisms are continuously</tspan><tspan y="-660.4806" x="192.00019 198.44138 203.83258 206.91379 213.775 219.37619 221.81739 224.89859 231.33979 236.73099 243.5922 247.5134 250.5946 253.8858 256.967 262.35823 268.7994">being identified.</tspan><tspan y="-646.5606" x="210.00019 216.9843 222.2884 224.65503 229.95914 233.79325 239.72736 243.56147 248.86557 255.21968 257.5863 262.8904 268.82453 273.28865 276.28276 279.27687 284.58097 288.4802 291.6957 294.07374 297.91923 304.7047 310.0202 314.4002 319.7094 322.08113 328.02033 332.6402 337.9484 340.31913 350.03733 353.03553 356.03373 359.03193 362.03013 367.75834 374.53654 379.84474 382.21546 387.94367 391.1519 393.5226 399.88084 402.87904 408.81724 415.59544 419.43363 424.74183 427.11256 433.05076 439.82896 446.18717 448.5579 454.4961 461.2743 464.2725 473.9907 479.9289 482.9271 488.2353 490.60603 493.60423 500.38243 502.75315 506.59135 513.36959 518.6778 521.0485 529.08676 534.81497 539.28317 542.2814 548.6396">As stated earlier, there are millions of plants and animals in the world;</tspan><tspan y="-632.6406" x="192.0002 200.1905 205.6508 208.8688 215.3791 222.3094 228.1897 236.38 239.598 243.5883 250.5186 255.9789 259.1969 265.7072 268.8575 274.9478 281.8781 285.8684 291.3287 294.5467 300.637 307.5673 314.0776 317.2956 323.3859 330.3162 333.4665 343.3368 349.4271 352.5774 358.0377 361.25569 364.40599 371.33628 374.55427 380.43458 387.57487 392.19517 395.41316 401.29347 409.48377 416.41407 419.63206 425.72236 430.34266 435.80296 441.89326 445.11125 451.62156 457.29185 460.50984 464.50013 471.43043 476.89073 480.04103 484.66133 487.8793 491.0296 496.9099 502.3702 508.4605 511.6108 514.82888 521.75918 527.8494 537.7197 543.18008 548.6404">we know the plants and animals in our own area by their local names.</tspan><tspan y="-618.72067" x="192.0002 198.4337 205.2872 210.6707 216.0542 221.4377 223.8837 226.9572 232.7607 238.1442 244.1577 247.2312 249.6772 256.5307 262.5442 272.33769 277.7212 283.1047 285.55073 293.6642 299.4677 306.53123 309.6047 316.0382 318.48423 323.86775 329.88124 334.4247 340.01823 342.46424 345.74775 350.29124 356.09474 365.8882 368.33424 374.76774 377.84123 383.8547 389.23823 394.62174 397.06776 400.98127 406.78477 409.23078 415.66429 418.73777 424.75126 430.13478 435.51829 438.8018 441.2478 446.63133 452.01484 457.39836 464.25184 466.69786 474.81135 477.88484 481.79835 488.65187 491.72535 498.57887 501.02488 507.03837 509.48439 514.86788 520.6714 527.73489 534.5884 538.5019 543.0454 548.6389">These local names would vary from place to place, even within a country.</tspan><tspan y="-604.80068" x="192.0002 198.5093 203.12839 209.00749 215.51659 221.60569 228.11478 231.26387 236.93297 239.59667 245.26576 251.14487 258.28398 260.94767 269.13676 275.01585 282.15495 285.30406 291.81315 294.47685 299.09596 304.55506 310.01417 315.89326 321.56236 328.49147 331.64057 337.09968 342.55879 345.22248 349.21159 356.1407 361.5998 364.2635 369.7226 375.60169 382.5308 385.8899 393.029 398.4881 401.6372 407.5163 414.4454 417.1091 421.0982 428.0273 434.11643 438.10554 440.76924 448.9583 454.8374 461.9765 465.1256 471.6347 474.2984 480.8075 486.2666 488.9303 494.3894 499.0085 504.46763 510.55674 514.54586 520.00497 526.51406 529.17776 532.32687 535.6859 538.3496 546.5387">Probably you would recognise the confusion that would be created if we</tspan><tspan y="-590.8807" x="192.0002 198.5114 201.6626 208.1738 210.95642 217.88762 223.76882 227.76001 230.54264 233.90384 237.05504 243.98624 250.49744 253.28006 261.47126 267.56245 273.23365 278.69486 281.47749 287.56867 294.49989 301.01109 303.7937 313.66493 319.12614 325.21733 332.14854 337.60975 340.39237 344.38359 350.26478 353.0474 357.0386 363.1298 366.281 372.7922 375.57484 379.56605 385.44725 388.22987 393.69108 399.78227 405.24348 412.17469 414.9573 420.8385 424.8297 431.76094 437.22215 441.12019 444.45359 447.2084 451.1718 457.02525 459.78007 464.64018 470.10539 473.47059 478.9358 483.561 486.34764 490.34284 496.22804 499.01466 504.89985 509.52418 515.1692 521.2342 528.1392 531.2642 536.6992 546.54428">did not find ways and means to talk to each other, to refer to organisms</tspan><tspan y="-576.9607" x="192.00019 200.19269 205.65518 208.401 214.4935 219.116 224.57849 227.32431 231.3168 237.4093 240.5618 247.0743 250.22679 257.1593 262.8318 265.57759 271.67008 278.1826 284.0651 291.20759 295.20008">we are talking about.</tspan><tspan y="-563.0407" x="210.00019 218.3794 223.8186 230.72782 236.16703 241.60623 244.94544 247.44834 251.41754 258.32676 263.76597 268.36518 273.80439 276.30729 279.4365 284.8757 287.3786 293.4478 295.9507 302.85993 308.29914 313.73835 320.22755 322.73045 326.69966 332.55888 335.06178 340.50099 344.47019 350.5394 357.4486 363.9378 370.00703 374.60624 381.09544 384.22465 389.66386 395.10307 397.60597 401.57518 408.48439 413.92359 416.42649 423.3357 429.4049 439.25413 442.38334 449.29255 454.94175 457.44465 463.30387 466.64308 469.14598 472.27519 475.4044 480.8436 483.9728 490.88203 496.53123 499.03413 504.89335 509.49256 515.1418 521.211 528.12026 531.24948 536.68869 546.53787">Hence, there is a need to standardise the naming of living organisms</tspan><tspan y="-549.3607" x="192.00019 197.4547 204.5892 210.04372 216.96823 219.48435 223.46886 230.39337 236.47788 240.46239 242.9785 249.06302 251.57913 258.08366 264.16816 268.78266 272.76716 275.91166 281.36616 288.50068 291.64518 297.72969 302.34419 304.86033 310.73484 315.34934 321.01387 327.09837 334.02287 337.16737 342.62187 352.48637 355.0025 358.147 363.6015 366.11766 372.62217 379.54667 385.42118 393.60569 400.53019 403.04634 409.55085 415.21537 417.7315 421.716 428.6405 434.095 436.61116 442.06565 448.15016 458.01466 463.46916 465.9853 472.9098 478.9943 488.8588 494.3133 496.82945 502.91395 506.05845 509.20295 511.71907 517.59359 523.0481 528.5026 533.1171 535.63327 539.61776 546.54226">such that a particular organism is known by the same name all over the</tspan><tspan y="-535.44076" x="192.00019 200.18918 206.06818 210.68718 213.83618 220.34519 223.70418 227.21317 233.72217 240.65117 243.80017 249.25917 252.76816 259.27717 263.89616 269.77516 275.23417 280.69319 286.1522 291.6112 295.1202 298.2692 303.7282 307.2372 312.69624 318.78523 321.9342 325.0832 330.5422 337.0512">world. This process is called </tspan></text>
<text fill="#231f20" xml:space="preserve" transform="matrix(1 0 -0 1 -18 802.8)" font-size="10.5" font-family="Bookman"><tspan y="-535.44076" x="340.5612 347.72578 354.26036 364.78495 370.89955 378.06413 384.1787 387.77333 393.8879 398.7425 405.69709 410.55168">nomenclature</tspan></text>
<text fill="#231f20" xml:space="preserve" transform="matrix(1 0 -0 1 -18 802.8)" font-size="10.5" font-family="Bookman"><tspan y="-535.44076" x="416.40019 419.76268 423.27516 431.67765 438.19017 443.65266 446.80516 452.68766 459.83015 465.29264 468.44514 474.1176 477.4801 480.99259 487.92509 493.8076 503.68009 509.14259 516.0751 521.5376 524.6901 530.78268 534.77517 541.91769 546.54019">. Obviously, nomenclature</tspan><tspan y="-521.52078" x="192.00019 197.85349 202.4468 204.94379 211.84709 217.91039 227.7537 230.877 237.7803 243.4236 245.9206 249.0439 254.4772 256.9742 262.8275 269.7308 272.8541 278.4974 280.99443 287.47773 293.33103 298.7643 304.1976 307.3209 313.8042 316.9275 322.36079 324.8578 333.0211 339.92439 345.35768 352.26097 354.75798 358.72126 365.62455 371.05784 373.55485 379.40815 384.00144 389.64476 395.70805 402.61134 405.73463 411.1679 421.0112 423.5082 426.6315 432.0648 434.5618 441.0451 446.4784 451.91169 457.34498 461.93827 465.06156 471.54487 476.97816 483.46147 485.95848 491.39176 497.24507 501.83836 506.43165 511.86494 517.2982 521.26156 524.3848 530.02816 532.52517 538.58847 545.49179">or naming is only possible when the organism is described correctly and</tspan><tspan y="-507.60075" x="192.00019 200.01758 205.30498 207.65488 213.99228 220.74968 226.45708 234.47447 236.82437 240.64177 246.34917 248.69907 256.71647 263.47389 269.39128 273.20869 275.5586 281.266 285.71339 291.2108 297.12818 303.88557 306.86296 312.15037 321.84776 324.19767 328.01509 334.77247 340.05989 342.4098 349.16719 355.08457 364.78196 370.06938 372.41929 375.39668 380.68409 383.034 388.9514 392.7688 396.5862 402.5036 407.79103 414.5484 419.83583 426.17323 428.52314 432.34056 438.04795 441.23536 443.58528 449.92268 456.68006 459.65745 464.94486 467.29478 470.27217 475.55958">we know to what organism the name is attached to. This is </tspan></text>
<text fill="#231f20" xml:space="preserve" transform="matrix(1 0 -0 1 -18 802.8)" font-size="10.5" font-family="Bookman"><tspan y="-507.60075" x="477.84019 481.33729 487.77439 493.58149 500.4386 504.98573 508.48283 512.18997 515.6871 521.4942 527.30136 531.84848 535.3456 541.5727 548.4298">identification.</tspan></text>
<text fill="#231f20" xml:space="preserve" transform="matrix(1 0 -0 1 -18 802.8)" font-size="10.5" font-family="Bookman"><tspan y="-493.68074" x="210.00019 213.52019 220.40019 222.87519 228.70519 233.27519 239.7352 245.1452 249.71521 252.1902 256.1302 261.96018 264.43519 267.74519 273.7852 279.1952 282.2952 285.3952 288.4952 292.4352 298.47523 302.41523 307.82524 310.30024 314.24024 321.12025 326.53025 329.00526 334.41526 338.35527 345.44526 351.90525 357.52525 360.83525 363.31025 370.19026 377.28025 387.10026 393.56025 398.97026 403.54026 406.01527 411.84526 415.15525 417.63026 423.04026 428.45027 431.55027 436.96028 443.84028 447.78028 450.88029 456.29029 460.2303 465.6403 468.1153 474.9953 481.0353 486.4453 491.85533 494.33033 499.74034 505.15034 509.09034 515.1303 521.59036 524.6903 527.7903 533.20028 540.08029 545.49026">In order to facilitate the study, number of scientists have established</tspan><tspan y="-479.7607" x="192.00019 198.5085 203.12682 209.00513 214.46344 219.92176 226.43007 233.56838 238.18669 243.645 249.10332 251.63663 255.62494 261.50325 264.03657 270.12489 275.5832 281.0415 284.18983 289.85813 296.78645 299.31977 305.40809 307.9414 313.39973 318.85804 322.00636 327.46467 334.39299 338.3813 341.5296 344.8879 348.03623 353.49455 356.02787 362.95619 369.0445 378.9128 384.37113 386.90446 390.89277 396.77107 399.30439 404.7627 410.851 416.30934 423.23765 425.77098 432.27928 439.20759 445.08589 453.2742 460.2025 462.73585 468.61415 473.23246 478.90077 484.98908 491.9174 495.0657 500.52403 510.39234 513.7507 516.284 518.8173 525.3256 532.2539 535.4022 540.86056 543.39389 546.5422">procedures to assign a scientific name to each known organism.  This is</tspan><tspan y="-465.8407" x="192.00019 197.95508 203.27999 208.60489 213.9298 220.30469 224.15959 230.11449 236.48938 239.50428 244.82918 247.21778 251.07268 256.81758 259.20619 265.5811 268.59599 274.34089 277.35578 283.10069 288.6356 291.65049 296.97538 300.83027 306.15516 308.54377 314.49867 317.51356 320.52845 322.91706 328.66197 333.98686 339.31175 343.79664 346.18525 350.04014 356.83503 362.1599 364.54853 372.60343 378.34834 382.83323 385.8481 392.22303 395.44795 397.83656 404.42146 410.16636 414.65126 417.03987 423.41477 426.42967 432.38456 439.17945 443.03434 448.35923 451.58415 453.97276 459.29765 464.62254 467.63743 472.9623 479.7572 483.6121 486.62699 489.8519 492.8668 498.19169 500.5803 507.37519 513.3301 523.065 528.3899 533.7148 536.1034 542.0583 546.5432">acceptable to biologists all over the world. For plants, scientific names are</tspan><tspan y="-451.9207" x="192.00019 198.2499 204.0796 209.27931 214.47902 220.72873 222.99344 228.61315 235.28285 237.54756 243.37728 248.78699 253.1467 258.3464 263.5461 269.79585 272.06056 278.31025 282.66996 285.55967 292.22938 297.42909 300.3188 306.56849 309.4582 314.6579 319.8576 322.1223 327.95204 334.62174 340.87147 343.13618 348.33589 352.6956 355.5853 359.315 364.5147 368.87443 371.76414 377.59385 380.69355 382.95826 390.88798 397.55769 400.4474 405.6471 412.3168 414.5815 420.41123 424.77095 429.97065 432.23536 438.48506 442.84477 448.46449 453.66419 456.5539 462.8036 468.0033 474.253 476.5177 479.4074 486.07713 488.34184 491.65156 498.32127 502.05097 507.25068 511.61039 518.2801 524.1098 527.83956 530.72927 536.34896 543.0187 548.8484">based on agreed principles and criteria, which are provided in International</tspan><tspan y="-438.00068" x="192.00019 199.70668 205.52318 211.96968 217.36618 219.82637 223.12287 228.93936 233.49587 235.95606 243.66255 249.47905 253.40555 259.43205 266.29853 269.385 274.78153 280.808 283.8945 286.3547 294.06123 299.87773 309.6842 315.08073 321.9472 327.34373 330.4302 336.4567 340.3832 347.45973 352.0802 357.4675 359.91853 362.99583 366.49314 374.19044 381.88774 389.58503 392.66233 395.94966 398.40068 404.4002 410.2225 417.3048 419.7708 429.58314 435.61546 441.22776 443.69377 449.72608 455.1284 461.5807 464.883 467.349 474.2213 480.0436 488.17594 490.64195 493.10795 499.14027 503.7602 509.1597 511.62294 517.6524 524.5219 527.6114 537.4209 543.4504 546.53988">Code for Botanical Nomenclature (ICBN). You may ask, how  are animals</tspan><tspan y="-424.08067" x="192.00019 198.7358 204.63141 214.30702 219.57263 225.88825 231.36386 233.69197 240.63758 247.37319 250.3288 260.0044 265.9 268.8556 271.18373 274.97935 280.87495 286.56056 292.24617 298.98176 304.66737 314.34297 317.29856 322.56419 326.3598 331.62544 333.95356 340.68916 346.58476 351.85038 357.116 359.44413 364.70976 369.97538 375.66099 378.61659 383.8822 389.14784 395.46345 397.79158 401.16719 407.90278 411.6984 416.96403 421.38963 428.1252 434.0208 437.81645 440.77204 446.45765 453.19325 459.08885 462.04444 464.37257 471.94819 477.6338 483.9494 489.21504 491.54316 497.22877 500.39439 502.7225 509.2481 514.9337 520.6193 523.57498 529.26058 534.73617 537.6918 542.9574 548.853">named? Animal taxonomists have evolved International Code of Zoological</tspan><tspan y="-410.16065" x="192.00019 199.76718 205.64418 215.51119 220.96819 227.89519 233.35219 236.49919 242.5862 246.5732 253.71019 258.32719 263.78419 267.14738 270.29438 273.86137 281.62837 288.34538 296.11238 299.25938 302.61637 305.97956 312.48655 319.41355 324.87055 328.23374 333.69075 339.14775 342.29475 347.75175 354.67875 358.66575 361.81275 365.16975 368.31675 373.77375 377.13694 384.06394 390.15095 400.01795 405.47496 410.93196 414.29515 419.75215 426.67915 432.13615 439.27314 443.89015 449.34715 452.71034 456.69734 463.62434 469.71134 473.69834 477.06153 482.51853 488.60554 494.06254 500.98954 504.35273 510.22975 514.84677 520.51376 526.6007 533.5277 536.6747 542.1317">Nomenclature (ICZN). The scientific names ensure that each organism</tspan><tspan y="-396.24064" x="192.00019 198.78049 204.7208 210.0311 212.40509 218.13539 224.9157 227.916 233.4363 235.81029 241.54059 248.32089 253.6312 256.0052 262.7855 268.7258 278.4461 283.7564 286.9667 289.3407 297.591 302.9013 308.2116 313.5219 317.99223 320.99253 327.3528 331.1931 334.19343 339.9237 346.704 349.078 354.8083 358.0186 360.39259 366.3329 373.1132 378.63349 381.00749 386.73777 391.20808 396.72837 402.66868 409.44898 412.44929 417.75959 427.4799 429.85389 435.16419 441.9445 447.67478 454.66508 457.66539 464.02568 466.39967 471.70997 478.49028 484.43058 490.79087 493.79118 499.10148 501.47547 505.31578 512.09609 517.4064 519.7804 526.1407 531.451 537.1813 543.54159 546.5419">has only one name. Description of any organism should enable the people</tspan><tspan y="-382.56065" x="192.00019 195.14829 198.29639 205.22449 208.4612 214.5493 221.4774 227.14551 230.38222 236.89032 242.97843 247.59653 251.58463 254.82134 260.69944 264.05754 267.29423 271.28233 278.21043 283.66853 286.9052 295.09333 300.97145 305.58955 308.73765 315.24574 318.39384 321.63053 325.61863 331.49674 334.73344 340.82154 345.43965 350.05775 353.20585 358.66395 364.12205 367.35874 373.44685 377.43495 380.67164 384.65974 391.58784 397.04594 400.28263 405.74073 411.82884 421.69694 427.15504 430.39173 437.31983 443.40794 453.27604 458.73414 462.09223 465.32893 471.837 478.7651 484.2232 489.8913 493.128 499.2161 502.3642 507.8223 513.7004 516.9371 522.3952 529.3233 534.78146 541.91958 546.53768">(in any part of the world) to arrive at the same name. They also ensure</tspan><tspan y="-368.64064" x="192.00019 195.99127 202.92237 209.01346 213.00455 215.64484 221.10593 228.24701 233.7081 240.63919 243.27948 249.37058 252.01087 258.94197 265.03306 274.90415 280.36524 283.00553 289.9366 296.0277 301.4888 304.1291 311.06019 316.94129 320.93238 323.57267 330.08375 335.54484 341.00593 347.937 350.5773 357.71839 363.17948 368.64057 375.15165 377.79194 381.153 387.03413 391.6552 394.2955 400.3866 407.3177 412.98878 415.62907 421.51017 425.50126 432.43235 437.89344 442.51454 445.15483 451.6659 458.597 464.4781 472.6692 479.60029 482.24058 488.12168 492.74278 498.41386 504.50495 511.43605 514.5871 520.0482 529.9193">that such a name has not been used for any other known organism.</tspan><tspan y="-354.7206" x="210.00019 217.76749 220.91478 226.79209 229.93938 235.81668 241.48398 244.63127 250.08858 254.07588 259.53318 262.1548 265.5121 271.38938 274.53669 277.684 283.56129 291.74858 294.37019 301.50749 308.43479 311.5821 317.0394 322.4967 327.114 332.57133 338.65864 341.80595 344.95326 350.62055 353.24217 359.32948 364.78678 370.24409 375.7014 382.20869 386.19599 391.6533 398.16059 400.7822 407.2895 411.9068 415.0541 421.9814 427.43873 430.58604 437.09333 440.24064 445.69795 451.15525 453.77687 457.76417 463.64146 466.26307 472.77037 477.38768 483.26496 488.72227 491.86958 498.37687 503.83418 506.45579 511.9131 517.37039 520.51766 525.9749 532.9022 536.8895 540.0368 543.3941 546.5414">Biologists follow universally accepted principles to provide scientific</tspan><tspan y="-340.8006" x="192.00019 198.93097 205.02176 214.89255 220.35334 225.81412 230.39762 234.3884 240.26918 244.85268 251.36347 258.29426 264.17506 272.36585 279.29664 283.8801 289.7609 294.38169 300.05247 306.14326 313.07405 316.22483 321.6856 331.5564 337.01719 340.37797 344.96144 349.5449 357.10569 363.19648 368.65727 375.58805 380.1715 387.1023 393.19309 403.06388 408.52467 413.10813 420.0389 426.1297 431.59049 436.17396 440.16474 448.35554 454.23634 458.8198 464.28059 470.16139 480.03218 486.54298 492.42378 499.35456 504.81535 511.74613 515.73696 521.19778 525.78128 531.03207 535.61557 539.6063 546.5371">names to known organisms.  Each name has two components &#x2013; the</tspan></text>
<text fill="#231f20" xml:space="preserve" transform="matrix(1 0 -0 1 -18 802.8)" font-size="10.5" font-family="Bookman"><tspan y="-326.88059" x="192.00019 200.25928 206.41838 213.62749 219.78659 224.68569 228.53479 234.6939 239.73299 246.9421 253.1012 263.6703">Generic name</tspan></text>
<text fill="#231f20" xml:space="preserve" transform="matrix(1 0 -0 1 -18 802.8)" font-size="10.5" font-family="Bookman"><tspan y="-326.88059" x="269.7602 274.3688 280.4574 287.386 293.8946 298.5032 302.4918 309.42039"> and the</tspan></text>
<text fill="#231f20" xml:space="preserve" transform="matrix(1 0 -0 1 -18 802.8)" font-size="10.5" font-family="Bookman"><tspan y="-326.88059" x="314.8782 319.797 325.2058 331.87464 337.91346 343.95228 347.6811 351.6199 355.34873"> specific</tspan></text>
<text fill="#231f20" xml:space="preserve" transform="matrix(1 0 -0 1 -18 802.8)" font-size="10.5" font-family="Bookman"><tspan y="-326.88059" x="361.44023"> </tspan></text>
<text fill="#231f20" xml:space="preserve" transform="matrix(1 0 -0 1 -18 802.8)" font-size="10.5" font-family="Bookman"><tspan y="-326.88059" x="366.0002 371.91023 378.45024 382.05024 386.70027 393.66029 399.57029">epithet</tspan></text>
<text fill="#231f20" xml:space="preserve" transform="matrix(1 0 -0 1 -18 802.8)" font-size="10.5" font-family="Bookman"><tspan y="-326.88059" x="404.6402 407.9921 412.594 419.0959 426.0178 429.1597 434.6116 439.2135 444.6654 450.3273 455.7792 459.7611 465.213 475.07493 479.67683 485.5487 488.9006 493.5025 500.0044 504.6163 510.4882 515.94009 519.082 525.58389 528.72579 535.64767 541.3096 545.9115">. This system of providing a</tspan><tspan y="-312.96058" x="192.0002 198.9284 205.0166 214.8848 220.343 225.2262 233.4144 236.56259 240.5508 247.479 252.3622 256.3504 264.5386 270.4168 275.30003 280.7582 286.6364 296.5046 303.01283 308.89103 315.8192 321.2774 328.2056 332.1938 337.65199 342.5352 345.68339 351.14158 356.02476 361.48295 367.57115 370.71934 373.86753 379.3257 385.83393">name with two components is called </tspan></text>
<text fill="#231f20" xml:space="preserve" transform="matrix(1 0 -0 1 -18 802.8)" font-size="10.5" font-family="Bookman"><tspan y="-312.96058" x="390.7182 398.31523 402.1322 409.3092 415.8562 426.3932 430.21018 436.3372 439.94419 445.30119 452.47819 459.02519 469.56217 475.68919 482.86619 488.9932 492.6002 498.7272 503.5942 510.56123 515.4282">Binomial nomenclature</tspan></text>
<text fill="#231f20" xml:space="preserve" transform="matrix(1 0 -0 1 -18 802.8)" font-size="10.5" font-family="Bookman"><tspan y="-312.96058" x="521.7602 525.1042 529.99819 536.4922 543.4062 546.54019">. This</tspan><tspan y="-299.04057" x="192.00019 198.78539 204.73059 214.4558 217.461 224.2462 229.7714 232.15158 237.46678 242.99198 248.30718 252.15238 257.46757 267.19276 269.57298 275.09819 278.10337 283.41856 288.73374 295.51893 297.89915 304.26435 309.78956 312.16978 319.79499 325.74018 330.21537 335.95057 338.95576 345.95097 351.26615 353.64637 359.80158 362.80677 369.59196 376.37715 382.32234 387.6375 394.63273 399.9479 402.32814 405.3333 410.6485 413.02873 419.39393 424.7091 427.7143 434.49949 440.0247 442.4049 448.7701 453.2453 459.1905 464.50569 468.3509 471.35609 476.67127 481.98646 488.35166 490.73188 497.09709 502.62229 505.0025 511.3677 514.3729 520.10818 523.11337 528.8486 534.3738 537.37899 542.69418 546.53939">naming system given by Carolus Linnaeus is being practised by biologists</tspan><tspan y="-285.12055" x="192.00019 198.08838 201.23657 204.38477 208.58046 214.45867 219.91687 225.37508 229.99327 234.18897 238.17717 245.10538 250.56359 254.75928 262.94749 268.82569 273.44389 276.59208 283.10029 286.4585 290.6542 297.1624 304.0906 307.2388 312.697 316.89268 323.82087 329.90907 339.77726 342.92546 349.85365 355.52186 359.71757 365.17576 370.84397 376.30216 380.29035 385.74855 395.61674 399.8124 406.95063 412.4088 415.557 422.4852 428.1534 432.3491 438.4373 442.63298 446.62117 454.80937 460.68757 464.88328 473.07148 478.94969 483.56788 490.07609 494.27177 497.62995 503.50816 508.12635 517.99459 524.08279 528.071 532.26669 540.45486 546.543">all over the world. This naming system using a two word format was</tspan><tspan y="-271.20054" x="192.00019 195.36078 201.24137 208.38196 215.31255 221.82314 224.76554 230.22612 236.1067 243.0373 248.49788 253.95847 260.88908 264.03968 269.50028 276.43089 280.42149 283.78208 286.7245 293.0251 298.4857 302.4763 305.4187 312.5593 318.0199 320.9623 324.9529 331.0435 337.55409 343.01469 345.9571 349.9477 356.8783 362.3389 365.2813 370.7419 376.6225 382.71308 392.58369 399.09428 402.24488 407.70549 410.6479 416.52848 419.88908 422.83149 432.7021 438.79267 445.72328 451.39387 457.27445 460.21687 464.20747 470.08805 473.03047 480.17106 487.10166 493.61225 499.07286 503.69343 509.15403 513.1446 519.23519 526.1658 532.6764 535.6188 539.6094 546.54">found convenient. Let us take the example of mango to understand the</tspan><tspan y="-257.28053" x="192.00019 200.15929 206.2184 211.85752 214.35033 220.19944 223.52855 226.02136 232.50048 237.12018 242.97179 248.4034 251.52501 258.00663 261.12825 268.02986 273.67146 276.16676 281.59837 287.02998 290.15159 295.5832 302.4848 306.4464 309.56803 312.89964 316.02125 321.45286 323.94816 330.84977 336.91139 346.753 352.1846 357.6162 360.1115 366.5931 372.02473 375.98634 379.94795 385.37956 389.28019 392.6123 395.10813 401.59025 408.49235 413.92445 416.42027 421.85237 427.28446 430.40657 435.83866 442.74076 446.70286 449.82496 453.15708 456.27919 461.71128 464.2071 471.1092 477.1713 487.0134 492.4455 494.9413 500.79344 504.12556 506.62138 516.4635 522.52566 529.42776 535.0698 540.92196 543.4177 546.53988">way of providing scientific names better. The scientific name of mango is</tspan><tspan y="-243.36052" x="192.00019 200.12718 204.68419 207.7712 211.6982 215.6252 221.0222 227.8892 230.3612 236.38822 241.78522">written as </tspan></text>
<text fill="#231f20" xml:space="preserve" transform="matrix(1 0 -0 1 -18 802.8)" font-size="10.5" font-family="Bookman" font-style="italic"><tspan y="-243.36052" x="244.32019 253.3489 259.8576 266.3663 272.24504 275.18376 278.75245 284.42115 288.61985 295.12855 297.42726 300.36598 306.87467 313.59339 316.5321 321.5708">Mangifera indica</tspan></text>
<text fill="#231f20" xml:space="preserve" transform="matrix(1 0 -0 1 -18 802.8)" font-size="10.5" font-family="Bookman"><tspan y="-243.36052" x="327.84019 331.1255 333.5733 339.7986 345.18394 349.09925 351.54707 358.61238 363.99769 366.4455 371.8308 377.21614 382.60145 385.04927 391.90455 397.70985 405.82514 408.27296 411.34825 415.26356 417.71138 420.78666 426.17198 428.61979 434.63508 437.0829 443.5182 446.59349 453.44877 459.25407 469.04936 472.12464 478.13993 481.2152 483.66304 490.5183 496.5336 506.3289 511.7142 514.9995 517.4473 519.89517 523.39047 530.2457 532.69357 536.6088 543.4641 546.5394">. Let us see how it is a binomial name.  In this</tspan><tspan y="-229.44052" x="192.00019 198.7627 204.68521 214.38773 219.68024">name </tspan></text>
<text fill="#231f20" xml:space="preserve" transform="matrix(1 0 -0 1 -18 802.8)" font-size="10.5" font-family="Bookman" font-style="italic"><tspan y="-229.44052" x="222.00019 230.888 237.25582 243.62363 249.36144 252.15924 255.58705 261.11488 265.17268 271.54048">Mangifera </tspan></text>
<text fill="#231f20" xml:space="preserve" transform="matrix(1 0 -0 1 -18 802.8)" font-size="10.5" font-family="Bookman"><tspan y="-229.44052" x="273.84019 278.27629 283.5524 289.8785 294.3146 299.59074 304.86686 310.14299 316.8891 320.69523 325.97135 328.30998 332.1161 338.8622 344.13835 346.47697 351.96308 357.2392 363.98533 370.94145 376.21757 378.55619 386.5623 393.3084 396.2745 399.2406 404.51673">represents the genus while </tspan></text>
<text fill="#231f20" xml:space="preserve" transform="matrix(1 0 -0 1 -18 802.8)" font-size="10.5" font-family="Bookman" font-style="italic"><tspan y="-229.44052" x="406.80018 409.70518 416.18019 422.86518 425.77018 430.77519 437.25019">indica,</tspan></text>
<text fill="#231f20" xml:space="preserve" transform="matrix(1 0 -0 1 -18 802.8)" font-size="10.5" font-family="Bookman"><tspan y="-229.44052" x="440.16017"> </tspan></text>
<text fill="#231f20" xml:space="preserve" transform="matrix(1 0 -0 1 -18 802.8)" font-size="10.5" font-family="Bookman"><tspan y="-229.44052" x="442.80018 445.76887 451.04756 453.37626 459.28495 461.61366 467.94236 473.85105 478.28974 482.09843 485.0671 490.3458 497.3045 500.2732 506.1819 510.62059 512.9493 518.22799 524.55667 529.8353 535.114 538.0827 543.3614 548.6401">is a particular species,</tspan><tspan y="-215.52053" x="192.00017 197.74327 202.22637 204.61316 210.56626 212.95305 218.27616 224.64926 229.97237 235.29547 238.30858 241.53168 244.54479 249.86789 252.25469 257.5778 263.9509 266.964 270.81709 277.61018 282.93327 286.78636 290.00947 292.39628 300.65937 304.51246 311.30555 316.62864 321.11174 323.49855 330.50166 337.29475 340.30784 345.63093 350.954 355.4371 360.7602 366.7133 369.72639 372.1132 376.59629 383.5994 386.6125 391.93559 397.25868 399.64549 405.38859 408.6117 410.9985 417.7916 423.5347 433.2678 438.59089 445.38398 450.70707 453.72016 459.67326 463.52635 470.52946 475.01255 480.33564 482.72245 488.67555 493.15864 498.48173 500.86854 506.82164 512.1447 514.5315 517.7546 523.4977 526.5108 529.5239 535.267 543.3201 548.64328">or a specific epithet. Other universal rules of nomenclature are as follows:</tspan><tspan y="-195.60053" x="216.00017 222.48018 240.00017 247.76917 250.91817 256.79719 259.94618 265.82518 271.49418 274.64317 280.10218 286.19117 289.34016 292.69917 299.62815 305.71714 315.58613 321.04515 326.50416 329.86317 335.95216 340.57115 346.03016 349.38917 355.05818 360.51719 367.44618 372.90519 377.52418 383.61317 386.76216 389.91114 395.58015 398.93916 402.08815 409.01713 412.37614 418.67515 424.76414 428.75315 431.90214 438.83113 442.19013 448.2791 455.2081 461.7171 465.0761 473.2651 477.8841 481.03309 485.0221 489.0111 494.47013 501.3991 504.75813 507.9071 514.8361 518.1951 521.3441 525.3331 531.4221 534.5711 537.7201 543.1791 548.63809">1.Biological names are generally in Latin and written in italics.</tspan><tspan y="-181.44052" x="240.00017 246.50579 253.4314 258.887 264.5526 268.37495 274.46055 279.07615 284.53175 288.35408 294.6497 300.7353 304.7209 307.8665 314.79209 317.93769 323.39329 328.84889 335.3545 339.17683 345.05244 349.66804 353.49037 359.99598 365.45158 370.06718 373.21278 378.66838 384.12397 390.62959 394.4519 397.80754 402.42314 408.29875 418.16435 421.98667 428.2823 434.3679 438.3535 441.49909 448.42469 452.247 455.3926 460.0082 464.6238 470.0794 475.535 482.04063 487.49623 492.9518 496.9374 500.083 505.5386 510.9942 514.81649 520.6921 524.04769 527.86996 531.8555 538.7811 544.23678 547.3824">They are Latinised or derived from Latin irrespective of their</tspan><tspan y="-167.52053" x="240.00017 245.78017 250.30017 253.35018 258.92018 261.97016 268.80015">origin.</tspan><tspan y="-150.00052" x="216.00017 222.48018 240.00017 246.50807 253.43598 258.89387 261.5868 264.9447 268.0926 272.71049 278.16838 282.15629 284.8492 293.0371 298.915 303.5329 310.0408 312.73374 315.88163 322.8095 325.50245 331.59034 334.28327 340.79118 343.93907 349.81697 352.96485 358.84275 364.51066 367.65855 373.11643 379.2043 382.3522 385.04515 391.97303 398.0609 407.9288 413.3867 416.07963 420.6975 426.1554 432.6633 437.2812 442.73908 448.19697 453.65486 460.58274 464.57066 470.02854 472.72148 476.70939 483.63728 489.09516 491.7881 497.456 502.91389 509.84178 516.9797 522.43759 525.1305 533.3184 540.24636 543.3942 546.5421">2.The first word in a biological name represents the genus while</tspan><tspan y="-135.84052" x="240.00017 243.93058 250.80098 256.2014 258.66853 264.0689 269.4693 274.8697 280.6901 287.5605 294.0109 296.47804 301.87843 307.69883 317.50923 323.95964 329.78004 336.65043 342.0508 348.9212 352.8516 355.31874 361.76914 367.16954 374.03993 379.86033 383.7907 389.1911 394.5915 397.05863 400.989 407.8594 413.2598 415.72694 421.12733 427.57774 432.97813 438.3785 441.4689 444.76933 447.8597 453.2601 455.72724 461.12763 467.57804 470.66844 474.59883 481.4692 486.8696 490.8">the second component denotes the specific epithet.</tspan><tspan y="-118.32051" x="216.00017 222.48018 240.00017 247.77108 253.65198 257.64289 264.5738 268.41249 272.40339 279.3343 284.7952 288.63389 296.82478 302.70567 307.32658 313.83747 319.29838 323.13706 326.28797 333.21888 337.05757 343.14848 346.98716 353.49806 356.64897 362.52986 365.68077 371.56166 377.23255 380.38346 385.84437 391.93528 395.08619 398.92488 405.85578 411.9467 421.8176 427.2785 430.6394 434.4781 442.66899 449.59989 455.0608 461.9917 465.83039 472.7613 478.8522 485.7831 492.294 500.4849 505.1058 508.2567 512.2476 516.2385 521.6994 528.6303 531.9912 535.8299 541.9208 546.5417">3.Both the words in a biological name, when handwritten, are</tspan><tspan y="-104.40051" x="240.00017 245.28357 250.56697 256.90037 262.81376 267.25715 273.17054 276.98396 282.26734 285.24073 290.73414 293.07865 300.04206 306.79545 313.12886 318.41224 322.85563 325.829 328.8024 335.5558 340.83918 347.17259 350.356 352.7005 358.4039 362.8473 365.1918 371.5252 375.9686 378.942 385.69538 389.5088 394.79219 401.12559 403.4701 406.44349 413.19688 415.54139 418.51478 422.3282 428.24159 431.21498 434.18836 439.47175 444.75514 447.09965 450.91304 456.61643 458.96095 461.93434 468.6877 475.02113 477.9945 483.2779 489.19129 493.0047 498.2881 500.6326 504.44599 511.19938 516.4828 519.4562 523.8996 526.24417 532.36758 538.28097 542.09439 545.06777">separately underlined, or printed in italics to indicate their Latin</tspan><tspan y="-90.24051" x="240.00017 245.78017 250.30017 253.35018 258.92018 261.97016 268.80015">origin.</tspan></text>
<g clip-path="url(#clip_17)">
<text xml:space="preserve" transform="matrix(1 0 -0 1 259.314 763.99978)" font-size="8" font-family="Arial"><tspan y="6.316" x="0"> </tspan></text>
</g>
</g>
</svg>
