<svg xmlns="http://www.w3.org/2000/svg" xmlns:xlink="http://www.w3.org/1999/xlink" xmlns:inkscape="http://www.inkscape.org/namespaces/inkscape" version="1.1" width="576" height="784.8" viewBox="0 0 576 784.8">
<defs>
<clipPath id="clip_24">
<path transform="matrix(1,0,0,-1,-18,802.8)" d="M18 18H594V802.8H18Z" clip-rule="evenodd"/>
</clipPath>
<clipPath id="clip_25">
<path transform="matrix(.24,0,0,-.24,-18,802.8)" d="M325 2730H925V1721H325Z"/>
</clipPath>
<clipPath id="clip_26">
<path transform="matrix(1,0,0,-1,259.314,763.99978)" d="M0-8H57.372V.800049H0Z"/>
</clipPath>
</defs>
<g clip-path="url(#clip_24)">
<path transform="matrix(.24,0,0,-.24,-18,802.8)" d="M2 2H2548V214.67H2Z" fill="#cbdf7f" fill-rule="evenodd"/>
<path transform="matrix(.24,0,0,-.24,-18,802.8)" stroke-width="4" stroke-linecap="butt" stroke-miterlimit="1000" stroke-linejoin="miter" fill="none" stroke="#cbdf7f" d="M2 2H2548V214.67H2Z"/>
<path transform="matrix(.24,0,0,-.24,-18,802.8)" d="M0 3035.83H2550V3372.7003H0Z" fill="#d1d3d4" fill-rule="evenodd"/>
<path transform="matrix(.24,0,0,-.24,-18,802.8)" d="M0 3078.33H2550V3420H0Z" fill="#e1ecb6" fill-rule="evenodd"/>
<path transform="matrix(.24,0,0,-.24,62.6362,53.63501)" d="M0 0C7.32 7.32 16.16 10.98 26.52 10.98H97.35C107.71 10.98 116.55 7.32 123.87 0 131.19-7.33 134.85-16.17 134.85-26.52V-101.52C134.85-111.88 131.19-120.72 123.87-128.04 116.55-135.36 107.71-139.02 97.35-139.02H26.52C16.16-139.02 7.32-135.36 0-128.04-7.32-120.72-10.98-111.88-10.98-101.52V-26.52C-10.98-16.17-7.32-7.33 0 0" fill="#ffffff" fill-rule="evenodd"/>
<text fill="#231f20" xml:space="preserve" transform="matrix(1 0 -0 1 -18 802.8)" font-size="11" font-family="Bookman"><tspan y="-729.361" x="87.12">8</tspan></text>
<text fill="#231f20" xml:space="preserve" transform="matrix(1 0 -0 1 -18 802.8)" font-size="11" font-family="Bookman"><tspan y="-729.361" x="513.12">B</tspan></text>
<text fill="#231f20" xml:space="preserve" transform="matrix(1 0 -0 1 -18 802.8)" font-size="7.69999" font-family="Bookman"><tspan y="-729.361" x="521.04 523.4336 529.3692 533.76486 539.70046 545.63607">IOLOGY</tspan></text>
<path transform="matrix(.24,0,0,-.24,-18,.35998536)" stroke-width="1" stroke-linecap="butt" stroke-miterlimit="10" stroke-linejoin="miter" fill="none" stroke="#000000" d="M0 0H60"/>
<path transform="matrix(.24,0,0,-.24,.12000084,-18)" stroke-width="1" stroke-linecap="butt" stroke-miterlimit="10" stroke-linejoin="miter" fill="none" stroke="#000000" d="M0 0V-60"/>
<path transform="matrix(.24,0,0,-.24,-18,784.68)" stroke-width="1" stroke-linecap="butt" stroke-miterlimit="10" stroke-linejoin="miter" fill="none" stroke="#000000" d="M0 0H60"/>
<path transform="matrix(.24,0,0,-.24,.12000084,788.16)" stroke-width="1" stroke-linecap="butt" stroke-miterlimit="10" stroke-linejoin="miter" fill="none" stroke="#000000" d="M0 0V-60"/>
<path transform="matrix(.24,0,0,-.24,593.64,784.56)" stroke-width="1" stroke-linecap="butt" stroke-miterlimit="10" stroke-linejoin="miter" fill="none" stroke="#231f20" d="M0 0V-75"/>
<text fill="#231f20" xml:space="preserve" transform="matrix(1 0 -0 1 -18 802.8)" font-size="10.5" font-family="Bookman"><tspan y="-688.321" x="232.08 236.01181 242.88362 248.28543 253.68724 259.08906 262.39088 264.8538 271.3056 277.3374 282.73924 288.14106 294.59288 297.0558 302.8776 309.7494 312.2123 316.14414 323.01594 328.41777 330.88069 336.2825 342.1043 351.9161 361.7279 367.5497 374.4215 376.88444 380.18626 385.58808 391.61988 395.5517 402.6335 407.1953 412.59715 417.99897 420.46189 423.55369 426.64549 433.0973 438.4991 440.96205 447.41386 451.97566 457.37748 462.7793 468.18113 475.05293 480.45475 485.85658 488.3195 494.1413 497.4431 499.90605 506.77784 512.5997 516.5315 522.35336 527.7551 534.62698 540.4488 545.0106">these, based on the common features like presence of notochord</tspan><tspan y="-674.161" x="232.08 238.3969 245.55379 252.29068 257.55256 264.28944 270.39634 275.24324 280.9301 287.247 290.6239 295.88578 303.04267 309.14958 312.52647 315.90336 322.01026 330.42716 335.68904 342.84593 348.5328 355.8997 360.74659 367.06349 370.44038 375.70225 381.38914 387.286 392.9729 397.1898 402.87669 412.97358 416.56047 421.82234 428.13923 432.9861 438.673 443.93489 447.31178 454.46867 460.15556 463.53245 470.89933 477.6362 483.3231 490.05998 495.32185 498.69874 505.85563 511.1175 517.8544 525.0112 530.90817 534.28506 541.6519">and dorsal hollow neural system, are included in phylum</tspan><tspan y="-660" x="232.08 239.68071 246.44142 252.15213 256.60285 262.94355 268.86427 272.68498 278.60569 281.7964 284.1496 286.5028 289.9035 296.6642 299.01744 304.30815 310.22886 315.51957 320.81028 323.16349 328.8742 332.0649 334.41813 340.75883 343.73954 349.66026 356.42097 360.24168 365.53239 368.72309 371.0763 373.4295 378.7202 381.70094 387.62165 392.91236 398.20307 403.49378 408.7845 411.1377 419.15843 422.13914 425.95985 432.72056 435.07377 440.99449 443.3477 446.5384 451.8291 459.84983 462.20304 467.49375 470.47447 480.17518 483.15589 486.1366 492.0573 496.50804 498.86125 504.15196 510.91267 516.8334 521.28408 527.2048 532.4955 536.3162 541.60696 546.0576">Chordata.  In case of plants,  classes with a few similar characters</tspan><tspan y="-645.841" x="232.08 238.16332 242.77663 248.22994 250.74756 256.83088 262.28419 267.7375 270.8808 276.5441 283.4674 288.92073 295.424 297.94163 301.92494 307.79826 310.31587 316.39918 318.91679 325.8401 328.9834 334.6467 341.57 347.02333 351.63664 354.15425 359.60755 365.69087 369.67417 375.12748 380.79078 386.6641 391.2774 396.9407 399.4583 404.91163 410.99494 414.13825 417.28157 422.73487 429.23817 431.75578 440.14909 443.2924 448.7457 451.889 457.34233 460.48564 466.35896 473.28227">are assigned to a higher category called Division.</tspan></text>
<text fill="#00aeef" xml:space="preserve" transform="matrix(1 0 -0 1 -18 802.8)" font-size="12" font-family="Bookman"><tspan y="-619.681" x="232.08 240.48 245.03998 253.43997 257.99998 274.08003 283.56004 287.76005 295.80006 302.64006 310.20005 317.52006">1.2.7Kingdom</tspan></text>
<text fill="#231f20" xml:space="preserve" transform="matrix(1 0 -0 1 -18 802.8)" font-size="10.5" font-family="Bookman"><tspan y="-599.52108" x="232.08002 239.42702 242.78401 246.141 250.89691 257.1939 264.3309 267.6879 277.7649 284.0619 287.41889 293.08589 297.84178 304.55879 310.22578 313.58277 319.66978 326.80677 332.68379 336.04078 343.17778 349.05479 353.81068 358.00767 364.09468 368.85057 374.51756 380.81455 385.64155 388.99855 395.08555 402.43254 408.09953 412.8554 419.57243 426.7094 432.58644 435.94343 442.24043 446.9963 453.2933 458.1203 463.7873 468.54319 474.84019 480.50718 486.17417 489.53117 495.40818 502.54518 508.21217 514.92916 519.68508 523.8821 529.96908 534.725 538.922 546.059">All animals belonging to various phyla are assigned to the</tspan><tspan y="-585.3611" x="232.08002 239.1271 242.3942 248.18129 255.22838 260.80549 266.38258 270.48966 273.13105 278.70814 284.91523 289.0223 294.5994 300.38648 306.38359 311.12068 316.90776 319.54914 325.12623 331.3333 334.6004 337.8675 343.44459 350.07167 352.71305 360.39015 363.65724 370.7043 376.4914 383.11848 389.11558 399.10267 401.74406 409.00114 416.04823 419.3153 429.3024 435.5095 438.77659 442.04368 448.25077 450.89216 454.15925 461.20634 463.84773 467.9548 475.0019 480.57899 483.22038 488.79747 492.06455 498.27165 503.84873 509.4258 512.69296 516.17007 519.43716 525.0142 531.2213 535.3284 538.5955 544.5926">highest category called Kingdom Animalia in the classification</tspan><tspan y="-571.2001" x="232.08002 237.62001 243.37001 248.91 252.98001 258.52003 268.47004 271.07255 277.03254 280.47254 283.07505 289.24507 296.25508 299.48509 309.4351 315.6051 318.8351 324.37513 327.81513 330.41764 337.00764 344.01765 349.55766 352.32 359.76 362.9967 370.0134 375.7701 382.36683 388.33354 398.29023 400.80003 407.04 410.27253 416.445 423.45753 427.53004 433.7025 439.24504 442.68754 445.29005 451.25254 458.26506 460.86756 464.94007 471.95259 477.4951 480.0976 486.0601 490.1326 497.1451 502.68763 507.39015 509.99266 517.0051 523.1776 530.1901 536.78268 540.22518 542.8277 546.0602">system of animals. The Kingdom Plantae, on the other hand, is</tspan><tspan y="-557.0411" x="232.08 238.87439 242.30878 248.05316 252.32755 255.76194 262.97633 268.7207 272.9951 276.63948 281.96235 288.33674 295.55113 302.34553 307.6684 313.41279 319.57719 329.73158 336.52598 341.43037 344.86476 350.60914 356.35353 362.0979 367.42079 373.79518 377.22956 380.66395 385.98683 392.78123 396.2156 402.59 409.80439 414.07878 419.82316 425.14604 428.7904 433.6948 439.8592 450.01359 455.33647 461.08085 467.45524 472.35963 475.794 481.9584 489.38279 495.12718 500.45005 507.24446 510.67884 516.4232 519.8576 525.602 529.0364 535.20077 542.41519 548.15957">distinct, and comprises all plants from various divisions.</tspan><tspan y="-542.64108" x="232.08 240.68329 246.34658 253.47986 259.14317 264.80647 268.36976 274.45304 279.27635 283.46965 290.64">Henceforth,</tspan><tspan y="-542.6407" x="294.0002 297.8214 306.21763 311.88383 315.70503 324.10124 327.45744 330.81364 334.16984 337.99104 342.81724 348.48344 352.04963 357.71583 362.54203 366.36323 370.55943 376.64564 380.46684 384.66304 391.79924 397.46543 403.13163 408.79783 412.61903 416.81523 425.21144 431.29765 435.11885 440.99504 445.82124 451.90745 459.25364 465.96983 471.63603 475.4572 481.75343 487.41963 491.2408 497.53703 504.67323 508.02943 518.1056 524.4018 527.758 531.5792 537.8754 545.01168"> we will refer to these two groups as animal and</tspan><tspan y="-528.4807" x="232.08022 238.79521 242.1502 248.4452 255.5802 259.7752 262.54023 269.25523 272.61024 279.74525 285.62025 292.33525 298.42024 308.49525 314.16026">plant kingdoms.</tspan><tspan y="-514.32077" x="250.08022 256.4956 263.331 268.69639 271.1243 275.01969 281.01509 286.80049 292.58589 299.42127 305.20668 314.98207 318.03746 323.40284 325.83076 331.19615 337.19154 341.0869 346.4523 352.0277 357.8131 362.3385 365.3939 370.75929 376.12467 378.55259 381.818 386.34339 392.12879 401.90419 404.3321 409.69749 416.11289 421.47828 426.84367 429.89906 435.26445 440.62983 443.05775 446.95314 452.73854 455.16645 461.58186 464.63725 471.47264 477.04804 483.46345 489.24885 499.02424 501.45216 508.28755 514.28298 519.6484 525.0138 527.4417 533.8571 539.22256 544.58798">The taxonomic categories from species to kingdom have been</tspan><tspan y="-500.16075" x="232.08022 237.6407 244.67119 250.65167 258.94218 265.97267 269.34986 272.60035 279.63084 283.00804 289.19853 294.759 300.3195 305.87998 312.91047 319.52098 322.77146 329.80195 335.57243 338.94963 344.9301 349.6506 356.2611 361.8216 366.54209 369.91929 375.47978 379.57026 385.76075 390.48124 394.57173 397.8222 404.8527 410.62318 414.00038 422.29087 425.54136 429.63185 436.66233 440.03953 445.6 452.2105 457.771 463.33149 466.58198 472.14247 477.70295 481.08015 484.33064 491.3611 494.7383 501.5588 504.8093 510.57978 517.82028 522.5408 528.10128 531.47848 538.0889 541.54946 548.1599">shown in ascending order starting with species in Figure 1.1.</tspan><tspan y="-486.00074" x="232.08022 238.787 245.91379 251.57057 257.22737 262.88417 266.05348 272.34028 277.44023 283.09944 286.27116 292.98036 297.8402 303.9312 310.2322 316.9532 320.1367 325.80769 332.10868 336.30967 341.98066 347.86164 353.95265 358.78364 362.14463 367.8156 373.4866 377.0576 380.2411 383.4246 392.03559 398.1266 406.5276 412.19859 417.86958 423.54057 427.6802 431.2539 434.44013 438.64384 444.9475 451.0412 457.1349 464.27857 470.37226 480.45594 483.8196 489.4933 493.697 499.37068 502.5569 509.70057 516.0043 521.678 527.3517 530.53787 536.84158 540.20529 545.87899">These are broad categories.  However, taxonomists have also</tspan><tspan y="-471.84074" x="232.0802 238.7959 244.4616 250.12729 255.79299 259.14869 265.23439 271.95008 277.61579 284.33149 287.96858 293.63429 300.97999 307.69569 312.10139 317.7671 324.0628 328.2585 333.92424 339.79994 345.88563 350.71134 354.06706 359.73277 365.39848 369.03556 372.39128 379.52699 383.16407 387.35978 394.49549 397.8512 403.5169 407.154 414.2897 417.64543 423.31114 428.13685 434.43257 439.25828 444.92399 452.0597 457.9354 461.57249 465.7682 471.85389 475.49098 479.05668 485.3524 491.0181 494.3738 497.72953 501.08525 505.28096 511.57667 515.77236 521.43807 525.07516 535.1508 541.2365 546.0622">developed sub-categories in this hierarchy to facilitate more</tspan><tspan y="-457.44075" x="232.0802 237.7239 243.78762 251.11132 258.225 264.9187 267.62913 273.90284 281.01655 287.71025 290.42066 296.06437 301.70808 305.04179 310.6855 317.7992 321.9729 325.3066 328.8503 332.18403 337.82774 340.53816 347.23185 350.56556 356.83927 362.48298 368.12669 378.1804 383.8241 390.9378 395.1115 397.82194 403.88563 407.42933 410.13975 415.78346 422.05717 426.86088 430.19459 436.25828 443.58198 449.22569 451.9361 456.1098 462.3835 468.4472 474.72093">sound and scientific placement of various taxa.</tspan><tspan y="-443.28074" x="250.0802 256.3757 262.2512 268.12669 274.63218 277.23768 283.32319 287.3087 289.91419 293.8997 300.8252 306.2807 308.8862 315.8117 318.9572 324.41273 329.02824 335.11375 339.72926 345.18476 352.11027 357.77577 360.38127 363.52677 370.45228 373.05778 379.7733 382.9188 388.5843 395.7198 400.3353 405.7908 408.3963 414.9018 418.2573 424.7628 428.1183 430.7238 438.4893 444.5748 451.5003 454.1058 459.7713 465.6468 472.7823 475.3878 480.0033 485.4588 490.9143 496.99983 500.14533 503.29084 505.89634 509.88185 516.8073 522.2628 524.86837 531.37387 537.45938 542.91488 546.06039">Look at the hierarchy in Figure 1.1. Can you recall the basis</tspan><tspan y="-429.12074" x="232.0802 237.95381 241.30742 244.03102 250.11463 254.72824 259.34187 265.42549 272.3491 278.0127 283.4663 293.32994 298.78355 305.70716 309.69078 315.35438 318.07798 325.0016 331.0852 336.7488 340.10243 342.82603 346.17964 352.05323 356.66685 359.39045 364.84407 370.71766 376.80128 386.6649 393.1685 396.3121 401.76573 405.11933 407.84294 413.92655 419.38017 422.10377 430.28739 435.741 438.4646 444.1282 450.0018 452.7254 459.64903 462.79264 468.45625 475.37986 480.83348 485.44709 488.1707 491.5243 496.1379 502.0115 511.87513 514.59878 520.05239 526.55599 532.0096 537.4632 540.6068 546.0604">of arrangement? Say, for example, as we go higher from species</tspan><tspan y="-414.96073" x="232.0802 236.08289 241.97557 247.02327 253.54596 256.70866 263.65135 269.334 275.85673 281.74943 291.6321 295.0048 300.05247 304.05516 310.99784 316.47053 321.5182 328.46089 335.61357 345.49626 352.01896 357.49165 362.12434 367.172 373.0647 376.43739 381.48506 386.95774 392.85044 402.73313 412.6158 418.5085 425.4512 430.49888 435.97157 442.91426 449.01695 453.64964 459.75233 465.225 469.2277 474.70039 479.33308 482.49577 487.96846 491.97114 495.13383 500.6065 506.0792 511.12687 516.8096 522.7023 528.175 533.6477 538.6954 544.5881">to kingdom, the number of common characteristics goes on</tspan><tspan y="-400.80073" x="232.0802 238.51502 243.89983 249.28464 253.82946 259.21427 265.22908 270.61387 273.68867 280.54347 286.13829 289.4231 291.86903 298.09385 303.89866 312.01347 317.39826 321.94306 324.38899 328.30378 335.15858 340.54338 342.9893 346.9041 352.9189 358.72373 364.73854 368.02336 370.46928 380.26408 386.06889 390.61369 395.99848 398.4444 404.4592 409.004 414.3888 416.83473 420.7495 427.6043 432.9891 435.43504 440.81983 447.67463 453.68943 458.23423 464.24903 469.63383 473.54866 478.93345 483.47825 486.55305 491.93785 495.85267 498.92747 504.31227 509.69706 512.143 516.0578 522.9126 528.9274 532.8422 535.28817 539.20297 546.05776">decreasing. Lower the taxa, more are the characteristics that the</tspan><tspan y="-386.64073" x="232.0802 241.9302 247.37021 257.2202 263.7102 269.1502 273.7502 279.19023 281.6913 289.86134 292.99134 296.96134 303.87135 307.00135 313.91136 316.41246 320.38246 327.29246 332.73246 335.23356 339.20356 345.27357 351.13356 356.99354 363.90354 366.40464 371.84465 378.75465 384.82466 389.42466 394.86466 398.20466 400.70576 409.08576 412.21577 417.86576 424.77577 430.21577 434.81578 437.31687 441.28688 448.19688 453.63688 456.13798 461.57798 467.64799 471.61799 477.05799 482.70799 488.56797 493.16798 498.81797 502.15797 504.65907 510.30906 514.90908 520.34909 526.41909 530.38906 535.82907 540.429 542.9302 546.0602">members within the taxon share. Higher the category, greater is</tspan><tspan y="-372.24073" x="232.0802 236.054 242.9678 248.4116 250.9204 257.41419 260.54798 263.89179 267.2356 270.3694 275.81318 282.93699 286.07078 290.04457 295.69837 298.20719 304.07099 307.4148 309.9236 316.41743 321.8612 325.835 331.27879 335.88258 345.73637 348.87016 355.78395 358.91773 365.8315 371.48533 373.99415 377.96794 384.8817 390.3255 392.83433 397.4381 402.8819 406.0157 412.08949 416.06327 419.19706 425.06086 431.97465 437.41844 444.3322 447.466 453.9598 456.46864 460.4424 466.3062 468.81504 474.67884 478.65263 485.5664 491.0102 495.61399 498.1228 502.0966 508.17039 514.0342 520.108 522.61679 528.69058 532.66439 535.17318 539.147 546.0608">the difficulty of determining the relationship to other taxa at the</tspan><tspan y="-358.08073" x="232.0802 237.53421 243.61823 253.48224 258.93626 262.36524 265.50926 270.96327 276.41728 281.87129 285.0153 288.3693 291.79829 300.1923 305.6463 312.5703 318.02433 323.47834 326.83235 330.26133 334.24534 341.16935 346.62336 350.05235 356.55635 361.17036 367.04438 373.54838 376.69239 382.1464 392.0104 395.4394 401.31343 404.66743 408.0964 413.5504 416.69444 422.77845 428.23246 433.68647 436.83049 440.18449 443.3285 448.7825 454.86653 458.85054 461.99455 467.86857 474.79258 478.22157 484.72557 490.17958 495.63359 501.5076 511.3716 516.8256 522.27969 525.7087 535.5727 541.4467 546.0607">same level. Hence, the problem of classification becomes more</tspan><tspan y="-343.92073" x="232.0802 237.4416 243.223 252.99442 259.40583 262.4572 267.8186 273.6">complex.</tspan><tspan y="-324.0007" x="232.0802 238.6062 244.7122 251.2382 254.4042 259.88023 264.9312 271.4572 274.83323 281.35923 286.41023 289.5762 296.52223 303.04823 306.2142 311.69023 317.7962 321.80223 327.27824 332.75425 337.80525 341.81126 348.75727 354.23329 359.28428 363.29029 369.39628 375.29228 381.18827 388.13429 394.03028 403.91627 407.08226 412.55827 417.60926 423.08528 429.19126 433.19728 438.67329 444.35929 450.25529 454.89128 458.05726 463.53327 469.00929 474.06028 478.06629 483.96229 489.01329 497.21928 504.16529 507.33128 512.80728 519.75326 524.8042 530.2802 536.1762 546.0622">Table 1.1 indicates the taxonomic categories to which some</tspan><tspan y="-309.8407" x="232.0802 237.36602 243.07183 252.76764 262.46345 268.16926 274.92506 277.27339 282.9792 287.425 292.9208 298.8366 305.5924 308.5682 313.854 323.5498 328.8356 331.18394 334.15974 337.13554 343.47135 348.75715 351.10548 357.86128 363.56709 370.5329 375.8187 381.1045 384.2903 387.2661 392.76194 395.94776 398.29609 407.99189 413.90769 420.66349 423.8493 426.19764 435.89344 441.80924 448.56504 454.06086 459.76667 462.115 468.0308 474.7866 481.1224 483.47074 491.48655 498.24235 503.52815 509.44395 513.25979 515.6081 521.9439 527.22976 530.20559 535.9114 542.6672 548.16299">common organisms like housefly, man, mango and wheat belong.</tspan></text>
<g clip-path="url(#clip_25)">
<path transform="matrix(.24,0,0,-.24,-18,802.8)" d="M328.26 1724.4H922.96V2725.86H328.26Z" fill="#fffac2" fill-rule="evenodd"/>
<path transform="matrix(.23472911,0,0,-.2452704,60.782876,148.59357)" stroke-width=".001" stroke-linecap="butt" stroke-miterlimit="2.613" stroke-linejoin="miter" fill="none" stroke="#fffac2" d="M0 0H608.06V-979.94H0V0Z"/>
<path transform="matrix(.24,0,0,-.24,113.64383,158.49835)" d="M0 0 4.8 4.2C6.9 6 9 7.8 11.7 8.4L12.3 8.7V9.9H0V8.7C1.5 8.4 3 8.4 3 6.6 3 5.7 2.4 5.1 1.8 4.5L-8.7-4.8V3C-8.7 4.2-8.7 6.3-8.4 7.2-7.8 8.4-6.3 8.7-5.1 8.7H-4.2V9.9H-17.1V8.7H-16.5C-12.9 8.4-13.2 6-13.2 3V-12.91C-13.2-14.11-12.9-16.21-13.5-17.11-14.1-18.32-15.3-18.32-16.5-18.62H-17.1V-19.82H-4.2V-18.62H-5.1C-6.3-18.32-7.8-18.32-8.4-17.11-8.7-15.91-8.7-14.11-8.7-12.91V-7.81L-3.3-3 3.3-13.81C3.6-14.41 4.5-15.61 4.5-16.52 4.5-18.02 3-18.32 1.8-18.62H1.2V-19.82H14.4V-18.62C11.1-18.02 9.6-15.91 8.1-13.21L0 0" fill="#231f20" fill-rule="evenodd"/>
<path transform="matrix(.24,0,0,-.24,118.9716,158.13837)" d="M0 0H-1.5L-8.1-1.2V-2.4H-7.5C-4.8-2.7-4.2-4.2-4.2-6.61V-15.91C-4.2-18.31-4.8-19.82-7.8-20.12H-8.1V-21.32H3.6V-20.12H3C.3-19.82 0-18.31 0-15.91V0ZM.3 4.5C.3 6-.6 7.2-2.1 7.2-3.6 7.2-4.8 6-4.8 4.8-4.8 3.3-3.9 2.1-2.1 2.1-.9 2.1 .3 3 .3 4.5" fill="#231f20" fill-rule="evenodd"/>
<path transform="matrix(.24,0,0,-.24,125.883838,159.58081)" d="M0 0C0 1.81-.3 3.31-1.8 4.51-3 5.71-4.8 6.31-6.6 6.31-10.2 6.31-13.2 4.81-15.9 2.4V6.01H-17.1L-24 4.81V3.61H-23.1C-20.4 3.31-20.1 1.81-20.1-.6V-9.9C-20.1-12.6-20.4-13.81-23.4-14.11H-24V-15.31H-12V-14.11H-12.6C-15.3-13.81-15.9-12.3-15.9-9.9V.6C-13.8 2.4-10.8 3.9-8.1 3.9-6.9 3.9-5.7 3.61-5.1 2.4-4.5 1.51-4.2 .3-4.2-.9V-9.9C-4.2-12.3-4.8-13.81-7.5-14.11H-8.1V-15.31H3.6V-14.11H3C.3-13.81 0-12.3 0-9.9V0" fill="#231f20" fill-rule="evenodd"/>
<path transform="matrix(.24,0,0,-.24,129.0516,162.53278)" d="M0 0C-1.2 0-3.6 .29-3.6 1.8-3.6 2.7-2.4 3.9-1.5 4.2 0 3.6 1.2 3.6 2.4 3.6 4.8 3.6 7.2 3.9 9 5.4 10.5 6.6 11.4 8.7 11.4 10.8 11.4 13.51 10.2 15.61 7.8 17.41 8.4 18.01 9.3 18.91 10.2 18.91 11.1 18.91 12 18.31 12.9 18.31 13.8 18.31 14.7 18.91 14.7 19.81 14.7 21.31 13.2 21.91 12 21.91 9.6 21.91 7.5 19.81 6.6 18.01 5.4 18.31 3.9 18.61 2.7 18.61-1.8 18.61-6 15.61-6.3 10.8-6.3 8.4-5.1 6-2.7 4.5-4.8 4.2-6.9 2.7-6.9 .29-6.9-1.81-5.4-3.01-3.9-3.31V-3.61C-6-4.21-8.4-5.71-8.4-8.11-8.4-12.91-.9-13.82 2.7-13.82 7.2-13.82 14.4-12.31 14.4-6.31 14.4-2.1 10.8-1.51 7.5-.9L0 0ZM2.7 17.11C6.6 17.11 7.2 14.4 7.2 11.1 7.2 9.9 7.2 8.1 6.6 6.9 6 5.7 4.2 4.8 2.7 4.8-1.2 4.8-1.8 7.8-1.8 10.8-1.8 14.11-.9 17.11 2.7 17.11ZM6.3-4.81C8.1-5.11 11.4-5.41 11.4-7.81 11.4-11.71 5.7-12.31 3-12.31 0-12.31-5.7-11.71-5.7-7.81-5.7-6.01-3.9-4.51-2.1-3.91L6.3-4.81" fill="#231f20" fill-rule="evenodd"/>
<path transform="matrix(.24,0,0,-.24,137.04384,158.57038)" d="M0 0C-2.4 1.2-4.2 2.1-6.9 2.1-13.5 2.1-17.1-3-17.1-9.01-17.1-15.01-13.5-19.82-7.5-19.82-4.8-19.82-2.1-18.61 0-16.51V-19.52H7.2V-18.32C4.2-18.02 4.2-16.22 4.2-14.11V11.71H2.4C.3 11.1-1.8 10.8-3.9 10.5V9H-3.3C.3 8.7 0 6.6 0 3.6V0ZM0-14.41C-1.8-16.51-3.6-17.72-6.3-17.72-11.1-17.72-12.6-12.91-12.6-9.01-12.6-4.5-11.1 0-6 0-3.6 0-1.8-.9 0-2.4V-14.41" fill="#231f20" fill-rule="evenodd"/>
<path transform="matrix(.24,0,0,-.24,141.93936,158.0664)" d="M0 0C-6.6 0-10.5-4.8-10.5-11.41-10.5-17.71-6.3-21.92 .3-21.92 6.9-21.92 10.8-17.71 10.8-11.11 10.8-8.11 9.9-4.8 7.8-2.7 5.7-.9 2.7 0 0 0ZM.3-1.8C2.4-1.8 4.5-3.3 5.4-5.1 6.3-6.91 6.3-9.31 6.3-11.41 6.3-15.31 5.4-20.12 .6-20.12-4.8-20.12-6-15.31-6-11.11-6-7.21-4.8-1.8 .3-1.8" fill="#231f20" fill-rule="evenodd"/>
<path transform="matrix(.24,0,0,-.24,147.0516,159.2904)" d="M0 0C1.8 1.5 4.2 2.69 6.6 2.69 9.9 2.69 9.9 .3 9.9-2.11V-11.11C9.9-13.51 9.6-15.02 6.9-15.32H6.3V-16.52H17.7V-15.32H17.4C14.7-15.02 14.1-13.51 14.1-11.11V0C16.2 1.5 18.3 2.69 20.7 2.69 22.2 2.69 23.4 2.1 24 .6 24.3-.31 24.3-1.21 24.3-2.41V-11.11C24.3-13.51 23.7-15.02 21-15.32H20.7V-16.52H31.8V-15.32C28.8-15.02 28.5-13.22 28.5-11.11V-1.21C28.5 0 28.2 1.5 27.3 3 26.1 4.5 24 5.1 22.2 5.1 19.5 5.1 16.5 3.6 14.1 1.5 12.9 4.2 11.1 5.1 8.1 5.1 4.8 5.1 1.8 3.6 0 1.5V4.8H-1.5L-8.1 3.6V2.4H-7.5C-4.8 2.1-4.2 .6-4.2-1.81V-11.11C-4.2-13.51-4.5-15.02-7.5-15.32V-16.52H3.6V-15.32H3C.3-15.02 0-13.51 0-11.11V0" fill="#231f20" fill-rule="evenodd"/>
<path transform="matrix(.24,0,0,-.24,85.275119,196.18079)" d="M0 0H6C8.7 0 11.7 .3 14.1 2.1 16.2 3.6 17.1 6.01 17.1 8.71 17.1 11.41 15.9 13.81 13.5 15.31 11.1 16.51 8.7 16.81 6 16.81H-8.1V15.61H-7.5C-4.2 15.31-4.5 12.91-4.5 9.91V-6C-4.5-7.2-4.2-9-4.8-10.2-5.4-11.4-6.6-11.4-7.8-11.7H-8.1V-12.9H4.5V-11.7H3.6C2.4-11.4 .9-11.4 .3-9.9 0-9 0-7.2 0-6V0ZM0 1.8V11.71C0 12.61 0 13.81 .6 14.41 1.5 15.01 4.5 15.31 5.4 15.31 7.2 15.31 9.3 14.71 10.8 13.51 12.3 12.31 12.9 10.51 12.9 8.71 12.9 6.61 12.3 5.11 11.1 3.6 9.6 1.8 7.5 1.8 5.4 1.8H0" fill="#231f20" fill-rule="evenodd"/>
<path transform="matrix(.24,0,0,-.24,95.35512,195.74884)" d="M0 0C0 2.1 0 4.21-1.8 5.41-3 6.31-5.1 6.91-6.6 6.91-9.9 6.91-12.9 5.41-15.6 3.31V16.82H-17.1C-19.2 15.91-21.3 15.62-23.4 15.32V13.81H-22.8C-19.2 13.51-19.8 11.41-19.8 8.41V-9.3C-19.8-12-20.1-13.2-23.1-13.5H-23.7V-14.7H-12V-13.5H-12.6C-15-13.2-15.6-11.7-15.6-9.3V1.21C-13.8 3.01-10.2 4.51-7.8 4.51-6.6 4.51-5.4 4.21-4.8 3.31-4.2 2.41-4.2 .91-4.2 0V-9.3C-4.2-12-4.5-13.2-7.5-13.5H-8.1V-14.7H3.6V-13.5H3C.3-13.2 0-11.7 0-9.3V0" fill="#231f20" fill-rule="evenodd"/>
<path transform="matrix(.24,0,0,-.24,99.387119,198.26886)" d="M0 0-5.1 12.6C-5.1 13.21-5.4 13.51-5.4 14.11-5.4 15.31-3.9 15.61-3 15.61V17.11H-13.5V15.61C-10.5 15.31-10.5 14.71-9.6 12.3L-2.1-5.41-2.7-6.61C-3.3-8.41-4.8-12.01-6.9-12.01-9-12.01-9-9.61-10.8-9.61-12-9.61-13.2-10.51-13.2-11.71-13.2-13.81-10.8-14.41-9.3-14.41-7.2-14.41-4.8-13.51-3.3-11.71-2.1-10.21-.9-7.51-.3-5.71L6.9 11.1C7.8 13.81 8.7 15.31 11.7 15.61V17.11H1.8V15.61C3.3 15.61 4.8 15.31 4.8 13.51 4.8 12.3 4.2 10.8 3.9 9.6L0 0" fill="#231f20" fill-rule="evenodd"/>
<path transform="matrix(.24,0,0,-.24,104.21159,191.71204)" d="M0 0H-1.5C-3.6-.91-5.7-1.2-8.1-1.5V-3.01H-7.5C-3.9-3.31-4.2-5.41-4.2-8.41V-26.12C-4.2-28.52-4.5-30.02-7.5-30.32H-7.8V-31.52H3.6V-30.32H3C.6-30.02 0-28.22 0-26.12V0" fill="#231f20" fill-rule="evenodd"/>
<path transform="matrix(.24,0,0,-.24,111.195117,194.16242)" d="M0 0H-1.2L-8.1-1.2V-2.4H-7.2C-4.5-2.7-4.2-4.2-4.2-6.61V-15.91C-6-17.71-9-19.51-12-19.51-13.2-19.51-14.7-18.92-15.3-18.01-15.9-17.11-15.9-15.31-15.9-14.41V0H-17.4L-24-1.2V-2.4H-23.4C-20.4-2.7-20.1-4.2-20.1-6.61V-14.71C-20.1-16.81-20.1-18.31-18.6-19.81-17.4-21.31-15.3-21.61-13.5-21.61-9.6-21.61-6.6-20.11-4.2-17.71V-21.31H3.6V-20.11H3C.3-20.11 0-18.31 0-15.91V0" fill="#231f20" fill-rule="evenodd"/>
<path transform="matrix(.24,0,0,-.24,114.50711,195.31684)" d="M0 0C1.8 1.51 4.2 2.71 6.6 2.71 9.9 2.71 9.9 .3 9.9-2.1V-11.1C9.9-13.5 9.6-15 6.6-15.3H6.3V-16.5H17.7V-15.3H17.4C14.7-15 14.1-13.5 14.1-11.1V0C16.2 1.51 18.3 2.71 20.7 2.71 22.2 2.71 23.4 2.11 23.7 .61 24.3-.29 24.3-1.2 24.3-2.39V-11.1C24.3-13.5 23.7-15 21-15.3H20.7V-16.5H31.8V-15.3C28.8-15 28.5-13.2 28.5-11.1V-1.2C28.5 .3 28.2 1.51 27.3 3.01 26.1 4.51 24 5.11 22.2 5.11 19.5 5.11 16.5 3.61 14.1 1.51 12.9 4.21 11.1 5.11 8.1 5.11 4.8 5.11 1.8 3.61 0 1.51V4.81H-1.5L-8.1 3.61V2.41H-7.5C-4.8 2.11-4.2 .61-4.2-1.8V-11.1C-4.2-13.5-4.5-15-7.5-15.3V-16.5H3.6V-15.3H3C.3-15 0-13.5 0-11.1V0" fill="#231f20" fill-rule="evenodd"/>
<path transform="matrix(.24,0,0,-.24,128.5471,194.0904)" d="M0 0C-6.9 0-10.5-4.81-10.5-11.11-10.5-17.71-6.3-21.91 0-21.91 6.6-21.91 10.8-17.71 10.8-11.11 10.8-8.11 9.6-4.81 7.5-2.7 5.4-.9 2.7 0 0 0ZM.3-1.8C2.4-1.8 4.2-3.3 5.1-5.11 6-6.91 6.3-9.31 6.3-11.41 6.3-15.31 5.1-20.11 .3-20.11-4.8-20.11-6-15.31-6-11.11-6-7.21-4.8-1.8 .3-1.8" fill="#231f20" fill-rule="evenodd"/>
<path transform="matrix(.24,0,0,-.24,133.65937,195.45838)" d="M0 0C.9 1.2 2.7 2.4 4.2 2.4 5.4 2.4 6 .89 8.1 .89 9.3 .89 10.5 2.1 10.5 3.3 10.5 5.1 8.7 5.7 7.2 5.7 4.2 5.7 1.8 3.9 0 2.1V5.4H-1.5L-8.1 4.2V3H-7.5C-4.8 2.7-4.2 1.2-4.2-1.21V-10.51C-4.2-13.21-4.8-14.41-7.8-14.71H-8.1V-15.91H3.9V-14.71H3C.3-14.41 0-12.91 0-10.51V0" fill="#231f20" fill-rule="evenodd"/>
<path transform="matrix(.24,0,0,-.24,139.77936,199.2768)" d="M0 0H12.9C17.4 0 22.2 0 26.1 3 29.7 5.7 31.5 10.2 31.5 14.7 31.5 19.21 29.4 24.01 25.8 26.71 22.2 29.41 17.4 29.71 12.9 29.71H0V28.51H.6C4.2 28.21 3.9 25.81 3.9 22.81V6.9C3.9 5.7 3.9 3.6 3.6 2.7 2.7 1.5 1.5 1.5 .3 1.2H0V0ZM8.4 23.41C8.4 24.31 8.4 26.11 9 27.01 9.6 27.91 12.6 28.21 13.8 28.21 17.1 28.21 20.7 27.31 23.1 24.91 25.5 22.51 26.4 18.61 26.4 15 26.4 6.9 22.2 1.8 13.8 1.8 12.6 1.8 10.2 2.1 9.3 2.7 8.4 3.3 8.4 5.1 8.4 6.3V23.41" fill="#231f20" fill-rule="evenodd"/>
<path transform="matrix(.24,0,0,-.24,150.00383,194.16242)" d="M0 0H-1.2L-8.1-1.2V-2.4H-7.2C-4.5-2.7-4.2-4.2-4.2-6.61V-15.91C-4.2-18.31-4.5-19.81-7.5-20.11H-7.8V-21.31H3.6V-20.11H3.3C.3-19.81 0-18.31 0-15.91V0ZM.6 4.5C.6 6-.6 7.2-2.1 7.2-3.3 7.2-4.5 6-4.5 4.8-4.5 3.3-3.6 2.1-2.1 2.1-.6 2.1 .6 3 .6 4.5" fill="#231f20" fill-rule="evenodd"/>
<path transform="matrix(.24,0,0,-.24,153.8916,198.41278)" d="M0 0-4.5 12.61C-4.8 13.2-5.1 14.11-5.1 14.71-5.1 15.91-3.9 16.21-3 16.21H-2.4V17.71H-12.9V16.21C-10.5 15.91-9.9 15.01-9 12.61L-2.4-3.6H0L6.6 11.4C7.5 13.81 8.7 15.61 11.4 16.21V17.71H2.4V16.21C3.9 16.21 5.1 15.91 5.1 14.11 5.1 13.2 4.8 12.31 4.5 11.7L0 0" fill="#231f20" fill-rule="evenodd"/>
<path transform="matrix(.24,0,0,-.24,158.64383,194.16242)" d="M0 0H-1.5L-8.1-1.2V-2.4H-7.5C-4.8-2.7-4.2-4.2-4.2-6.61V-15.91C-4.2-18.31-4.8-19.81-7.5-20.11H-8.1V-21.31H3.6V-20.11H3C.3-19.81 0-18.31 0-15.91V0ZM.6 4.5C.6 6-.6 7.2-2.1 7.2-3.6 7.2-4.8 6-4.8 4.8-4.8 3.3-3.6 2.1-2.1 2.1-.9 2.1 .6 3 .6 4.5" fill="#231f20" fill-rule="evenodd"/>
<path transform="matrix(.24,0,0,-.24,164.04384,194.16242)" d="M0 0H-1.2L-1.8-1.8C-3.6-.3-5.7 .3-8.1 .3-11.4 .3-15.9-1.8-15.9-6.01-15.9-9.91-12.3-10.81-9-11.71L-4.5-12.91C-2.7-13.51-.9-13.81-.9-15.91-.9-18.61-3.9-19.81-6.3-19.81-10.2-19.81-13.8-17.41-15-13.51H-16.8L-15-21.31H-13.8L-13.2-19.51C-11.1-21.02-8.7-21.61-6.3-21.61-2.1-21.61 3-19.51 3-14.71 3-10.81 0-9.61-3.3-8.71L-8.1-7.51C-9.9-7.2-12.3-6.91-12.3-4.51-12.3-2.4-9.6-1.5-7.8-1.5-4.5-1.5-1.2-3.9 0-6.91H1.2L0 0" fill="#231f20" fill-rule="evenodd"/>
<path transform="matrix(.24,0,0,-.24,167.21161,194.16242)" d="M0 0H-1.2L-8.1-1.2V-2.4H-7.2C-4.5-2.7-4.2-4.2-4.2-6.61V-15.91C-4.2-18.31-4.5-19.81-7.5-20.11H-7.8V-21.31H3.6V-20.11H3.3C.6-19.81 0-18.31 0-15.91V0ZM.6 4.5C.6 6-.3 7.2-2.1 7.2-3.3 7.2-4.5 6-4.5 4.8-4.5 3.3-3.6 2.1-2.1 2.1-.6 2.1 .6 3 .6 4.5" fill="#231f20" fill-rule="evenodd"/>
<path transform="matrix(.24,0,0,-.24,171.1716,194.0904)" d="M0 0C-6.9 0-10.5-4.81-10.5-11.11-10.5-17.71-6.3-21.91 0-21.91 6.6-21.91 10.8-17.71 10.8-11.11 10.8-8.11 9.6-4.81 7.5-2.7 5.7-.9 2.7 0 0 0ZM.3-1.8C2.4-1.8 4.2-3.3 5.1-5.11 6-6.91 6.3-9.31 6.3-11.41 6.3-15.31 5.1-20.11 .3-20.11-4.8-20.11-6-15.31-6-11.11-6-7.21-4.8-1.8 .3-1.8" fill="#231f20" fill-rule="evenodd"/>
<path transform="matrix(.24,0,0,-.24,180.02712,195.6048)" d="M0 0C0 1.81 0 3.31-1.5 4.51-3 5.71-4.5 6.31-6.3 6.31-9.9 6.31-12.9 4.81-15.6 2.41V6.01H-17.1L-23.7 4.81V3.61H-23.1C-20.4 3.31-19.8 1.81-19.8-.6V-9.9C-19.8-12.6-20.4-13.8-23.4-14.1H-23.7V-15.3H-12V-14.1H-12.6C-15.3-13.8-15.6-12.3-15.6-9.9V.61C-13.5 2.41-10.8 3.91-7.8 3.91-6.6 3.91-5.4 3.61-4.8 2.41-4.2 1.5-4.2 .31-4.2-.6V-9.9C-4.2-12.3-4.5-13.8-7.2-14.1H-7.8V-15.3H3.9V-14.1H3.3C.6-13.8 0-12.3 0-9.9V0" fill="#231f20" fill-rule="evenodd"/>
<path transform="matrix(.24,0,0,-.24,124.65936,228.23999)" d="M0 0H-1.2L-2.1-2.11C-4.5 .29-7.8 1.2-10.8 1.2-19.5 1.2-25.5-6.31-25.5-14.71-25.5-23.72-19.2-30.32-10.2-30.32-4.5-30.32 .3-27.62 3-22.52L1.2-21.32C-.9-25.22-5.1-27.92-9.6-27.92-12.9-27.92-15.9-26.42-18-24.02-19.8-21.32-20.4-17.72-20.4-14.71-20.4-11.71-19.8-8.11-18.3-5.41-16.5-2.71-13.8-1.21-10.5-1.21-7.5-1.21-5.1-2.11-3.3-4.21-1.8-5.71-.3-8.41 .6-10.21L.9-10.51H2.1L0 0" fill="#231f20" fill-rule="evenodd"/>
<path transform="matrix(.24,0,0,-.24,127.9716,227.73596)" d="M0 0H-1.8C-3.9-.9-6-1.21-8.1-1.51V-3.01H-7.5C-3.9-3.31-4.2-5.41-4.2-8.41V-26.12C-4.2-28.52-4.8-30.02-7.5-30.32H-7.8V-31.53H3.6V-30.32H3C.3-30.02 0-28.22 0-26.12V0" fill="#231f20" fill-rule="evenodd"/>
<path transform="matrix(.24,0,0,-.24,134.95511,234.7248)" d="M0 0C-.6-.6-1.2-.9-1.8-.9-4.2-.9-4.2 2.1-4.2 3.9V12.31C-4.2 14.71-4.5 16.51-6.9 17.71-8.4 18.61-10.8 19.21-12.9 19.21-14.7 19.21-17.1 18.61-18.9 18.01-20.4 17.41-22.5 15.61-22.5 13.81-22.5 12.61-21.6 12-20.4 12-18.9 12-18.3 13.2-18.3 14.41V15.01C-18.3 16.81-15.3 17.41-14.1 17.41-12.6 17.41-11.1 17.11-9.9 16.51-8.7 15.61-8.7 14.41-8.4 13.2V9.9L-11.7 9.6C-14.1 9.3-16.8 9-19.2 7.8-21.6 6.9-23.4 5.4-23.4 2.4-23.4-1.2-19.8-2.71-16.8-2.71-13.5-2.71-11.1-1.5-8.4 .3-7.8-1.8-6-2.71-3.6-2.71-2.4-2.71-.3-2.41 .6-1.2L0 0ZM-8.4 2.4C-10.2 .9-12.6-.6-15-.6-17.1-.6-18.9 .6-18.9 3-18.9 7.2-11.7 8.1-8.4 8.4V2.4" fill="#231f20" fill-rule="evenodd"/>
<path transform="matrix(.24,0,0,-.24,139.41936,230.1864)" d="M0 0H-1.2L-1.5-1.8C-3.3-.3-5.7 .3-7.8 .3-11.1 .3-15.9-1.8-15.9-6-15.9-9.91-12-10.81-8.7-11.71L-4.2-12.91C-2.4-13.51-.6-13.81-.6-15.91-.6-18.61-3.9-19.81-6-19.81-10.2-19.81-13.8-17.41-15-13.51H-16.5L-15-21.32H-13.5L-12.9-19.51C-11.1-21.01-8.7-21.62-6-21.62-1.8-21.62 3-19.51 3-14.71 3-10.81 .3-9.61-3-8.71L-7.8-7.51C-9.6-7.21-12-6.91-12-4.5-12-2.4-9.6-1.5-7.5-1.5-4.2-1.5-.9-3.9 0-6.91H1.5L0 0" fill="#231f20" fill-rule="evenodd"/>
<path transform="matrix(.24,0,0,-.24,144.8916,230.1864)" d="M0 0H-1.2L-1.5-1.8C-3.3-.3-5.7 .3-7.8 .3-11.4 .3-15.9-1.8-15.9-6-15.9-9.91-12-10.81-8.7-11.71L-4.2-12.91C-2.7-13.51-.6-13.81-.6-15.91-.6-18.61-3.9-19.81-6-19.81-10.2-19.81-13.8-17.41-15-13.51H-16.5L-15-21.32H-13.5L-13.2-19.51C-11.1-21.01-8.7-21.62-6-21.62-1.8-21.62 3-19.51 3-14.71 3-10.81 .3-9.61-3-8.71L-8.1-7.51C-9.6-7.21-12-6.91-12-4.5-12-2.4-9.6-1.5-7.5-1.5-4.5-1.5-.9-3.9 0-6.91H1.5L0 0" fill="#231f20" fill-rule="evenodd"/>
<path transform="matrix(.24,0,0,-.24,121.41936,263.97596)" d="M0 0C-9 0-15.9-6.91-15.9-15.91-15.9-24.62-9-31.53-.3-31.53 8.4-31.53 15.3-24.92 15.3-15.91 15.3-6.91 9 0 0 0ZM-.3-2.4C6.9-2.1 10.2-8.41 10.2-16.21 10.2-22.52 7.2-29.12 0-29.12-7.5-29.12-10.5-22.52-10.5-15.91-10.5-7.81-6.9-2.4-.3-2.4" fill="#231f20" fill-rule="evenodd"/>
<path transform="matrix(.24,0,0,-.24,127.75511,267.5064)" d="M0 0C.9 1.2 2.7 2.4 4.2 2.4 5.4 2.4 6 .9 8.1 .9 9.3 .9 10.5 2.1 10.5 3.3 10.5 5.1 8.7 5.7 7.2 5.7 4.2 5.7 1.8 3.9 0 2.1V5.4H-1.5L-8.1 4.2V3H-7.5C-4.8 2.7-4.2 1.2-4.2-1.2V-10.51C-4.2-13.21-4.8-14.41-7.8-14.71H-8.1V-15.91H3.9V-14.71H3C.3-14.41 0-12.91 0-10.51V0" fill="#231f20" fill-rule="evenodd"/>
<path transform="matrix(.24,0,0,-.24,134.73935,266.6424)" d="M0 0C-2.4 1.2-4.2 2.1-6.9 2.1-13.2 2.1-17.1-3-17.1-9.01-17.1-15.01-13.5-19.81-7.2-19.81-4.5-19.81-2.1-18.61 0-16.51V-19.51H7.2V-18.31C4.5-18.01 4.2-16.21 4.2-14.11V12.01H2.4C.3 11.11-1.8 10.81-3.9 10.51V9.01H-3.3C.3 8.71 0 6.6 0 3.6V0ZM0-14.41C-1.5-16.51-3.6-17.71-6-17.71-11.1-17.71-12.6-12.91-12.6-9.01-12.6-4.51-10.8 0-5.7 0-3.6 0-1.5-.9 0-2.4V-14.41" fill="#231f20" fill-rule="evenodd"/>
<path transform="matrix(.24,0,0,-.24,141.93936,268.2984)" d="M0 0C0 5.4-4.2 9-9.6 9-15.9 9-19.8 4.5-19.8-1.8-19.8-4.81-18.9-8.11-16.5-10.21-14.4-12.31-12-12.91-9-12.91-5.4-12.91-1.5-11.11 0-7.81L-1.5-6.91C-3-9.61-5.1-11.11-7.8-11.11-10.2-11.11-12.3-10.21-13.5-8.41-14.7-6.61-15.3-4.21-15.3-2.11V0H0ZM-15.3 1.8C-15 4.5-12.9 7.2-9.6 7.2-6.9 7.2-4.8 5.1-4.8 1.8H-15.3" fill="#231f20" fill-rule="evenodd"/>
<path transform="matrix(.24,0,0,-.24,144.38712,267.5064)" d="M0 0C.9 1.2 2.7 2.4 4.2 2.4 5.7 2.4 6 .9 8.1 .9 9.6 .9 10.5 2.1 10.5 3.3 10.5 5.1 8.7 5.7 7.2 5.7 4.5 5.7 1.8 3.9 0 2.1V5.4H-1.5L-8.1 4.2V3H-7.5C-4.8 2.7-4.2 1.2-4.2-1.2V-10.51C-4.2-13.21-4.8-14.41-7.5-14.71H-8.1V-15.91H3.9V-14.71H3.3C.3-14.41 0-12.91 0-10.51V0" fill="#231f20" fill-rule="evenodd"/>
<path transform="matrix(.24,0,0,-.24,120.77161,300.21598)" d="M0 0H-24V-1.21H-23.4C-19.8-1.51-20.1-3.9-20.1-6.61V-22.82C-20.1-24.02-20.1-26.12-20.7-27.02-21-28.22-22.5-28.22-23.7-28.52H-24V-29.72H-11.4V-28.52H-12.3C-15.9-28.22-15.6-25.82-15.6-22.82V-14.71H-13.2C-8.7-14.71-7.5-16.21-7.2-20.42H-6V-7.51H-7.2C-7.5-12.01-8.7-12.91-13.2-12.91H-15.6V-6.61C-15.6-5.41-15.9-3.6-15-2.71-14.4-1.8-11.7-1.8-10.5-1.8-5.1-1.8-1.5-3.9 1.8-8.11L3.3-7.51 0 0" fill="#231f20" fill-rule="evenodd"/>
<path transform="matrix(.24,0,0,-.24,127.39511,306.7728)" d="M0 0C-.6-.6-1.2-.9-1.8-.9-4.2-.9-4.2 2.1-4.2 3.9V12.31C-4.2 14.71-4.5 16.51-6.9 17.71-8.4 18.61-10.8 19.21-12.9 19.21-14.7 19.21-17.1 18.61-18.9 18.01-20.4 17.41-22.5 15.61-22.5 13.81-22.5 12.61-21.6 12.01-20.4 12.01-18.9 12.01-18.3 13.21-18.3 14.41V15.01C-18.3 16.81-15.3 17.41-14.1 17.41-12.6 17.41-11.1 17.11-9.9 16.51-8.7 15.61-8.7 14.41-8.4 13.21V9.9L-11.7 9.61C-14.1 9.31-16.8 9.01-19.2 7.8-21.6 6.9-23.4 5.4-23.4 2.4-23.4-1.2-19.8-2.7-16.8-2.7-13.5-2.7-11.1-1.5-8.4 .3-7.8-1.8-6-2.7-3.6-2.7-2.4-2.7-.3-2.4 .6-1.2L0 0ZM-8.4 2.4C-10.2 .9-12.6-.6-15-.6-17.1-.6-18.9 .6-18.9 3-18.9 7.2-11.7 8.1-8.4 8.4V2.4" fill="#231f20" fill-rule="evenodd"/>
<path transform="matrix(.24,0,0,-.24,129.6271,303.3864)" d="M0 0C1.8 1.5 4.2 2.7 6.6 2.7 9.9 2.7 9.9 .3 9.9-2.1V-11.11C9.9-13.51 9.6-15.01 6.6-15.31H6.3V-16.51H17.7V-15.31H17.4C14.7-15.01 14.1-13.51 14.1-11.11V0C16.2 1.5 18.3 2.7 20.7 2.7 22.2 2.7 23.4 2.1 23.7 .6 24.3-.3 24.3-1.2 24.3-2.41V-11.11C24.3-13.51 23.7-15.01 21-15.31H20.7V-16.51H31.8V-15.31C28.8-15.01 28.5-13.21 28.5-11.11V-1.2C28.5 .3 28.2 1.5 27.3 3 26.1 4.5 24 5.1 22.2 5.1 19.5 5.1 16.5 3.6 14.1 1.5 12.9 4.2 11.1 5.1 8.1 5.1 4.8 5.1 1.8 3.6 0 1.5V4.8H-1.5L-8.1 3.6V2.4H-7.5C-4.8 2.1-4.2 .6-4.2-1.8V-11.11C-4.2-13.51-4.5-15.01-7.5-15.31V-16.51H3.6V-15.31H3C.3-15.01 0-13.51 0-11.11V0" fill="#231f20" fill-rule="evenodd"/>
<path transform="matrix(.24,0,0,-.24,139.49161,302.2344)" d="M0 0H-1.2L-8.1-1.2V-2.4H-7.2C-4.5-2.7-4.2-4.2-4.2-6.6V-15.91C-4.2-18.31-4.5-19.81-7.5-20.11H-7.8V-21.31H3.6V-20.11H3.3C.6-19.81 0-18.31 0-15.91V0ZM.6 4.51C.6 6.01-.3 7.2-2.1 7.2-3.3 7.2-4.5 6.01-4.5 4.81-4.5 3.3-3.6 2.1-2.1 2.1-.6 2.1 .6 3 .6 4.51" fill="#231f20" fill-rule="evenodd"/>
<path transform="matrix(.24,0,0,-.24,142.65937,299.78404)" d="M0 0H-1.8C-3.9-.9-6-1.2-8.1-1.5V-3.01H-7.5C-3.9-3.31-4.2-5.4-4.2-8.41V-26.12C-4.2-28.52-4.8-30.02-7.5-30.32H-7.8V-31.52H3.6V-30.32H3C.3-30.02 0-28.22 0-26.12V0" fill="#231f20" fill-rule="evenodd"/>
<path transform="matrix(.24,0,0,-.24,146.6916,306.3408)" d="M0 0-5.1 12.61C-5.4 13.21-5.7 13.51-5.7 14.11-5.7 15.31-4.2 15.61-3.3 15.61V17.11H-13.5V15.61C-10.8 15.31-10.8 14.71-9.6 12.31L-2.1-5.4-2.7-6.6C-3.6-8.4-4.8-12.01-7.2-12.01-9-12.01-9-9.61-11.1-9.61-12.3-9.61-13.5-10.51-13.5-11.71-13.5-13.81-11.1-14.41-9.6-14.41-7.2-14.41-5.1-13.51-3.6-11.71-2.4-10.21-1.2-7.51-.3-5.7L6.6 11.11C7.5 13.81 8.4 15.31 11.4 15.61V17.11H1.8V15.61C3 15.61 4.8 15.31 4.8 13.51 4.8 12.31 4.2 10.81 3.6 9.61L0 0" fill="#231f20" fill-rule="evenodd"/>
<path transform="matrix(.24,0,0,-.24,121.85161,336.24)" d="M0 0H-1.2L-2.1-2.11C-4.5-.3-7.8 .9-10.8 .9-14.7 .9-18.9-1.2-21.6-4.21-24.3-7.21-25.2-10.81-25.2-14.71-25.2-23.42-19.2-30.62-10.2-30.62-6.6-30.62-3-29.12-.3-26.72L.9-29.72H3V-22.52C3-21.32 3-19.21 3.6-18.32 4.2-17.11 5.4-17.11 6.3-16.81H6.9V-15.61H-5.1V-16.81C-2.4-17.11-.9-18.02-.9-21.02-.9-25.82-5.4-28.22-9.6-28.22-13.2-28.22-16.2-26.42-18-23.72-19.5-21.02-20.1-17.71-20.1-14.71-20.1-9.01-17.4-1.5-10.5-1.5-5.1-1.5-1.5-5.71 .9-9.61L2.7-9.31 0 0" fill="#231f20" fill-rule="evenodd"/>
<path transform="matrix(.24,0,0,-.24,128.83512,340.3464)" d="M0 0C.3 5.4-3.9 9-9.3 9-15.6 9-19.8 4.5-19.8-1.8-19.8-4.81-18.6-8.11-16.5-10.21-14.4-12.31-11.7-12.91-8.7-12.91-5.1-12.91-1.5-11.11 0-7.81L-1.2-6.91C-2.7-9.61-4.8-11.11-7.8-11.11-9.9-11.11-12-10.21-13.2-8.41-14.4-6.61-15.3-4.21-15.3-2.1L-15 0H0ZM-15 1.8C-14.7 4.5-12.6 7.2-9.6 7.2-6.6 7.2-4.5 5.1-4.5 1.8H-15" fill="#231f20" fill-rule="evenodd"/>
<path transform="matrix(.24,0,0,-.24,135.09935,339.6984)" d="M0 0C0 1.8-.3 3.3-1.8 4.5-3 5.7-4.8 6.3-6.3 6.3-9.9 6.3-13.2 4.8-15.6 2.4V6H-17.1L-23.7 4.8V3.6H-23.1C-20.4 3.3-19.8 1.8-19.8-.6V-9.91C-19.8-12.61-20.4-13.81-23.4-14.11H-23.7V-15.31H-12V-14.11H-12.6C-15.3-13.81-15.6-12.31-15.6-9.91V.6C-13.5 2.4-10.8 3.9-7.8 3.9-6.9 3.9-5.4 3.6-4.8 2.4-4.2 1.5-4.2 .3-4.2-.6V-9.91C-4.2-12.31-4.5-13.81-7.2-14.11H-7.8V-15.31H3.6V-14.11H3C.3-13.81 0-12.31 0-9.91V0" fill="#231f20" fill-rule="evenodd"/>
<path transform="matrix(.24,0,0,-.24,142.08383,338.2584)" d="M0 0H-1.2L-8.1-1.2V-2.4H-7.2C-4.5-2.7-4.2-4.2-4.2-6.6V-15.91C-6-17.71-9-19.51-12-19.51-13.5-19.51-14.7-18.91-15.6-18.01-15.9-17.11-15.9-15.31-15.9-14.41V0H-17.4L-24-1.2V-2.4H-23.4C-20.7-2.7-20.1-4.2-20.1-6.6V-14.71C-20.1-16.81-20.1-18.31-18.9-19.81-17.4-21.31-15.3-21.61-13.5-21.61-9.9-21.61-6.6-20.11-4.2-17.71V-21.31H3.6V-20.11H3C.3-20.11 0-18.31 0-15.91V0" fill="#231f20" fill-rule="evenodd"/>
<path transform="matrix(.24,0,0,-.24,147.6271,338.2584)" d="M0 0H-1.2L-1.5-1.8C-3.3-.3-5.7 .3-7.8 .3-11.4 .3-15.9-1.8-15.9-6-15.9-9.91-12-10.8-8.7-11.71L-4.2-12.91C-2.7-13.21-.6-13.81-.6-15.91-.6-18.61-3.9-19.81-6-19.81-10.2-19.81-13.8-17.41-15-13.51H-16.5L-15-21.31H-13.5L-13.2-19.51C-11.1-21.01-8.7-21.61-6-21.61-1.8-21.61 3-19.51 3-14.71 3-10.8 .3-9.61-3-8.7L-8.1-7.5C-9.6-7.2-12-6.9-12-4.5-12-2.4-9.6-1.5-7.5-1.5-4.5-1.5-1.2-3.9 0-6.9H1.5L0 0" fill="#231f20" fill-rule="evenodd"/>
<path transform="matrix(.24,0,0,-.24,118.32384,372.26399)" d="M0 0H-1.5L-2.1-1.5C-4.5 .3-7.5 .9-10.2 .9-12.6 .9-15.3 .3-17.4-1.2-19.2-2.7-20.4-4.81-20.4-7.2-20.4-9.61-19.2-11.71-17.1-12.91-15.6-14.11-12.9-14.71-10.8-15.31L-6-16.51C-3-17.41 .3-18.01 .3-21.92 .3-26.12-3.9-28.22-7.5-28.22-13.2-28.22-18-24.02-20.1-19.22L-21.9-19.81-18.9-29.72H-17.4L-16.5-27.62C-14.1-29.72-10.5-30.62-7.2-30.62-1.5-30.32 4.8-27.02 4.8-20.72 4.8-14.71-.3-13.21-5.1-12.01L-9.6-11.11C-12.3-10.51-16.2-9.61-16.2-6.01-16.2-2.7-12.6-1.5-9.6-1.5-4.8-1.5-1.2-4.51 1.2-8.41L2.7-7.81 0 0" fill="#231f20" fill-rule="evenodd"/>
<path transform="matrix(.24,0,0,-.24,121.85161,378.9648)" d="M0 0C2.1-1.5 4.2-2.1 6.6-2.1 13.2-2.1 16.5 3 16.5 9 16.5 14.71 13.5 19.81 6.9 19.81 4.2 19.81 1.8 18.61 0 16.51V19.51H-1.2L-8.1 18.31V17.11H-7.2C-4.5 16.81-4.2 15.31-4.2 12.91V-6.3C-4.2-8.71-4.5-10.21-7.5-10.51H-7.8V-11.71H4.2V-10.51H3.3C.6-10.21 0-9.01 0-6.3V0ZM0 14.41C1.2 16.21 3.3 17.71 5.7 17.71 11.1 17.71 12 12.91 12 8.7 12 4.2 10.5 0 5.4 0 3.3 0 1.5 .9 0 2.1V14.41" fill="#231f20" fill-rule="evenodd"/>
<path transform="matrix(.24,0,0,-.24,131.35512,376.3704)" d="M0 0C.3 5.4-3.9 9-9.3 9-15.6 9-19.8 4.5-19.8-1.81-19.8-4.81-18.6-8.11-16.5-10.21-14.4-12.31-11.7-12.91-8.7-12.91-5.1-12.91-1.5-11.11 0-7.81L-1.2-6.91C-2.7-9.61-4.8-11.11-7.8-11.11-9.9-11.11-12-10.21-13.2-8.41-14.4-6.61-15.3-4.2-15.3-2.11L-15 0H0ZM-15 1.8C-14.7 4.5-12.6 7.2-9.6 7.2-6.6 7.2-4.5 5.1-4.5 1.8H-15" fill="#231f20" fill-rule="evenodd"/>
<path transform="matrix(.24,0,0,-.24,136.6116,378.1008)" d="M0 0C-1.8-2.4-3.6-4.2-6.9-4.2-12-3.9-13.8 .6-13.8 5.1-13.8 9.01-12.9 14.41-7.8 14.41-6.3 14.41-3.6 13.81-3.6 11.71-3.6 11.11-3.6 10.51-3.6 10.21-3.6 9.01-2.7 8.11-1.5 8.11 0 8.11 .6 9.01 .6 10.51 .6 12.31-.9 13.81-2.1 14.71-3.9 15.91-6 16.21-8.1 16.21-14.7 16.21-18.9 11.71-18.9 5.1-18.9-1.5-14.7-5.7-8.1-5.7-4.2-5.7-.9-4.2 1.2-.9L0 0" fill="#231f20" fill-rule="evenodd"/>
<path transform="matrix(.24,0,0,-.24,139.27512,374.2824)" d="M0 0H-1.2L-8.1-1.2V-2.4H-7.2C-4.5-2.7-4.2-4.2-4.2-6.6V-15.61C-4.2-18.31-4.5-19.81-7.5-20.11H-7.8V-21.31H3.9V-20.11H3.3C.6-19.81 0-18.31 0-15.91V0ZM.6 4.51C.6 6.01-.3 7.21-1.8 7.21-3.3 7.21-4.5 6.01-4.5 4.81-4.5 3.3-3.6 2.1-2.1 2.1-.6 2.1 .6 3.01 .6 4.51" fill="#231f20" fill-rule="evenodd"/>
<path transform="matrix(.24,0,0,-.24,145.46712,376.3704)" d="M0 0C0 5.4-4.2 9-9.3 9-15.9 9-19.8 4.5-19.8-1.81-19.8-4.81-18.9-8.11-16.5-10.21-14.4-12.31-12-12.91-9-12.91-5.1-12.91-1.5-11.11 0-7.81L-1.5-6.91C-3-9.61-4.8-11.11-7.8-11.11-10.2-11.11-12.3-10.21-13.5-8.41-14.7-6.61-15.3-4.2-15.3-2.11V0H0ZM-15.3 1.8C-15 4.5-12.9 7.2-9.6 7.2-6.6 7.2-4.8 5.1-4.8 1.8H-15.3" fill="#231f20" fill-rule="evenodd"/>
<path transform="matrix(.24,0,0,-.24,150.14711,374.2824)" d="M0 0H-1.2L-1.5-1.8C-3.3-.3-5.7 .3-7.8 .3-11.4 .3-15.9-1.8-15.9-6-15.9-9.9-12-10.81-8.7-11.7L-4.2-12.9C-2.7-13.2-.6-13.81-.6-15.91-.6-18.61-3.9-19.81-6-19.81-10.2-19.81-13.8-17.41-15-13.51H-16.5L-15-21.31H-13.5L-13.2-19.51C-11.1-21.01-8.7-21.61-6-21.61-1.8-21.61 3-19.51 3-14.71 3-10.81 .3-9.6-3-8.7L-8.1-7.5C-9.6-7.2-12-6.9-12-4.5-12-2.4-9.6-1.5-7.5-1.5-4.5-1.5-1.2-3.9 0-6.9H1.5L0 0" fill="#231f20" fill-rule="evenodd"/>
<path transform="matrix(.2399208,0,0,-.2400792,129.48384,175.28644)" stroke-width="4.167" stroke-linecap="butt" stroke-miterlimit="2.613" stroke-linejoin="miter" fill="none" stroke="#231f20" d="M0 0V-66.93"/>
<path transform="matrix(.24,0,0,-.24,129.48384,169.44959)" d="M0 0 12.9-25.52H-12.9L0 0" fill="#231f20" fill-rule="evenodd"/>
<path transform="matrix(.2399208,0,0,-.2400792,128.83512,208.14002)" stroke-width="4.167" stroke-linecap="butt" stroke-miterlimit="2.613" stroke-linejoin="miter" fill="none" stroke="#231f20" d="M0 0V-67.22"/>
<path transform="matrix(.24,0,0,-.24,128.83512,202.30316)" d="M0 0 12.9-25.82H-12.9L0 0" fill="#231f20" fill-rule="evenodd"/>
<path transform="matrix(.2399208,0,0,-.2400792,128.76384,244.66797)" stroke-width="4.167" stroke-linecap="butt" stroke-miterlimit="2.613" stroke-linejoin="miter" fill="none" stroke="#231f20" d="M0 0V-66.92"/>
<path transform="matrix(.24,0,0,-.24,128.76384,238.83118)" d="M0 0 12.6-25.52H-12.9L0 0" fill="#231f20" fill-rule="evenodd"/>
<path transform="matrix(.2399208,0,0,-.2400792,129.8436,282.92646)" stroke-width="4.167" stroke-linecap="butt" stroke-miterlimit="2.613" stroke-linejoin="miter" fill="none" stroke="#231f20" d="M0 0V-67.22"/>
<path transform="matrix(.24,0,0,-.24,129.84384,277.0896)" d="M0 0 12.6-25.51H-12.9L0 0" fill="#231f20" fill-rule="evenodd"/>
<path transform="matrix(.2399208,0,0,-.2400792,129.91489,318.516)" stroke-width="4.167" stroke-linecap="butt" stroke-miterlimit="2.613" stroke-linejoin="miter" fill="none" stroke="#231f20" d="M0 0V-67.22"/>
<path transform="matrix(.24,0,0,-.24,129.91512,312.68159)" d="M0 0 12.9-25.82H-12.9L0 0" fill="#231f20" fill-rule="evenodd"/>
<path transform="matrix(.2399208,0,0,-.2400792,129.62737,355.116)" stroke-width="4.167" stroke-linecap="butt" stroke-miterlimit="2.613" stroke-linejoin="miter" fill="none" stroke="#231f20" d="M0 0V-67.22"/>
<path transform="matrix(.24,0,0,-.24,129.6271,349.2816)" d="M0 0 12.9-25.82H-12.6L0 0" fill="#231f20" fill-rule="evenodd"/>
</g>
<text fill="#6d6f71" xml:space="preserve" transform="matrix(1 0 -0 1 -18 802.8)" font-size="9.5" font-family="Bookman"><tspan y="-396" x="90 96.57619 100.11238 105.73857 112.12476 116.610958 122.237148 127.283329 133.66951 137.0157">Figure 1.1</tspan></text>
<text fill="#6d6f71" xml:space="preserve" transform="matrix(1 0 -0 1 -18 802.8)" font-size="9.5" font-family="Bookman"><tspan y="-396" x="147.12 154.3969 161.2938 168.00069 174.70758 182.36449 189.07138 199.38828 203.62519">Taxonomic</tspan><tspan y="-384.72" x="147.12 153.7361 160.9222 166.2083 172.8244 179.63051 186.6266 192.4827 197.00879 203.6249">categories</tspan><tspan y="-373.2" x="147.12 155.9359 166.0818 175.27771 186.56362 193.28952 203.43543">showing</tspan><tspan y="-361.92" x="147.12 154.49968 158.45937 164.50907 169.79875 176.41844 181.70813 187.75782 195.1375 199.09719 205.71688">hierarchial</tspan><tspan y="-350.40003" x="147.12 152.82759 157.20519 161.58278 167.29038 173.75798 179.08559 184.22319 193.35079 198.48839 204.956">arrangement</tspan><tspan y="-339.12004" x="147.12 150.06069 156.42137 161.10207 166.70276 171.73345 176.76413 181.79482 188.1555 194.1362 197.07689 203.43758">in ascending</tspan><tspan y="-327.60005" x="147.12 152.6732 157.0864 163.2096 168.3828">order</tspan></text>
<path transform="matrix(.24,0,0,-.24,-18,802.8)" d="M326.17 385.34H2298V1154.25H326.17Z" fill="#fedbb4" fill-rule="evenodd"/>
<path transform="matrix(.24,0,0,-.24,-18,802.8)" stroke-width="4" stroke-linecap="butt" stroke-miterlimit="1000" stroke-linejoin="miter" fill="none" stroke="#fcbb76" d="M326.17 385.34H2298V1154.25H326.17Z"/>
<text fill="#231f20" xml:space="preserve" transform="matrix(1 0 -0 1 -18 802.8)" font-size="9.5" font-family="Bookman"><tspan y="-265.44" x="84 91.1526 97.16521 106.7878 116.4104 122.423007 138.48 145.19062 148.48122 154.24182 157.34244 163.10305 168.48366 171.77426 177.15488 182.53549 210.23999 217.8633 223.5866 230.25989 236.7432 261.36 267.7866 273.26319 282.7298 286.1164 289.313 339.36 347.11799 351.646 357.884 363.552 396.24 403.39799 406.75599 412.39399 417.46199 483.36 489.6508 496.1316 502.0424 505.29319 511.58399 521.1048">CommonBiologicalGenusFamilyOrderClassPhylum/</tspan><tspan y="-254.16" x="84 91.3672 97.2144 107.051609 138.48 142.588 149.54599 154.984 164.41199 483.36 490.85948 494.36897 500.15846 503.66795 508.69743 512.2069 518.1864">Name NameDivision</tspan></text>
<text fill="#231f20" xml:space="preserve" transform="matrix(1 0 -0 1 -18 802.8)" font-size="9.5" font-family="Bookman"><tspan y="-225.12" x="84 92.92089 98.61178">Man</tspan></text>
<text fill="#231f20" xml:space="preserve" transform="matrix(1 0 -0 1 -18 802.8)" font-size="9.5" font-family="Bookman" font-style="italic"><tspan y="-225.12" x="138.48 145.9845 151.019 159.2835 164.318 167.3725 172.407 178.20149 183.806 186.3705 191.405 197.1995 207.35999 214.7009 219.57181 227.67272">Homo sapiensHomo</tspan></text>
<text fill="#231f20" xml:space="preserve" transform="matrix(1 0 -0 1 -18 802.8)" font-size="9.5" font-family="Bookman"><tspan y="-225.12" x="261.36 268.9607 274.2814 283.2121 286.0628 292.3335 295.1842 301.0749 306.5856 339.36 345.2906 349.5112 352.4018 361.3724 366.923 370.5736 396.24 405.0677 410.66539 419.68309 428.70079 434.29847 437.23619 440.1739 483.36 490.51069 496.90138 502.34208 506.64277 512.65347 518.2841 522.01486">HominidaePrimataMammaliaChordata</tspan><tspan y="-196.56" x="84 91.5379 96.79581 103.19371 108.07161 112.94951 115.92741 118.71531">Housefly</tspan></text>
<text fill="#231f20" xml:space="preserve" transform="matrix(1 0 -0 1 -18 802.8)" font-size="9.5" font-family="Bookman" font-style="italic"><tspan y="-196.56" x="138.48 146.56092 152.36182 157.40273 161.87364">Musca</tspan><tspan y="-196.56018" x="207.36009 215.44101 221.24192 226.28282 230.75374">Musca</tspan></text>
<text fill="#231f20" xml:space="preserve" transform="matrix(1 0 -0 1 -18 802.8)" font-size="9.5" font-family="Bookman"><tspan y="-196.56018" x="261.3601 270.1878 276.7355 281.7632 286.79093 289.72865 295.70634 301.30403 339.3601 346.9574 349.8047 355.692 359.2993 364.23658 368.41389 396.2401 399.5373 405.87449 410.88169 415.8889 420.8961 424.57328 483.3601 489.893 494.1459 497.8288 504.1717 508.4246 513.8175 519.7804 525.1733 531.13619">MuscidaeDipteraInsectaArthropoda</tspan></text>
<text fill="#231f20" xml:space="preserve" transform="matrix(1 0 -0 1 -18 802.8)" font-size="9.5" font-family="Bookman" font-style="italic"><tspan y="-185.28018" x="138.4801 144.3995 149.36891 157.56833 162.53774 167.50714 170.57656 173.07596 177.47537">domestica</tspan></text>
<text fill="#231f20" xml:space="preserve" transform="matrix(1 0 -0 1 -18 802.8)" font-size="9.5" font-family="Bookman"><tspan y="-156.72019" x="84.00011 92.8585 98.486888 104.875278 110.123668">Mango</tspan></text>
<text fill="#231f20" xml:space="preserve" transform="matrix(1 0 -0 1 -18 802.8)" font-size="9.5" font-family="Bookman" font-style="italic"><tspan y="-156.72019" x="138.4801 146.5132 152.2663 158.0194 163.2025 165.7256 168.8187 173.8118 177.4749 207.3599 215.39299 221.14609 226.89919 232.08229 234.6054 237.69849 242.69159 246.35469">MangiferaMangifera</tspan></text>
<text fill="#231f20" xml:space="preserve" transform="matrix(1 0 -0 1 -18 802.8)" font-size="9.5" font-family="Bookman"><tspan y="-156.72019" x="261.3601 268.0198 274.4895 280.1992 285.3389 291.04859 295.42829 301.51799 304.5677 310.27738 315.41709 320.5568 326.26649 339.3601 345.81303 351.50593 357.57884 360.61174 367.06465 373.13755 378.83045 381.86335 386.98625 396.2401 403.8499 406.70973 411.65953 416.98933 420.6091 425.7489 428.6087 433.5585 439.45829 444.7881 451.06788 456.58766 483.3601 489.8789 496.2077 501.3965 504.30534 509.68415 514.6829 520.6317 525.6305 529.8693 538.85818 544.42697">AnacardiaceaeSapindalesDicotyledonaeAngiospermae</tspan></text>
<text fill="#231f20" xml:space="preserve" transform="matrix(1 0 -0 1 -18 802.8)" font-size="9.5" font-family="Bookman" font-style="italic"><tspan y="-145.44019" x="138.4801 141.30469 147.35929 153.60387 156.42845 161.15305">indica</tspan></text>
<text fill="#231f20" xml:space="preserve" transform="matrix(1 0 -0 1 -18 802.8)" font-size="9.5" font-family="Bookman"><tspan y="-117.120189" x="84.00011 93.25841 99.66671 104.74501 110.39331">Wheat</tspan></text>
<text fill="#231f20" xml:space="preserve" transform="matrix(1 0 -0 1 -18 802.8)" font-size="9.5" font-family="Bookman" font-style="italic"><tspan y="-117.120189" x="138.4801 144.0001 147.7673 150.3945 153.5917 156.2189 160.74611 166.6033 207.3601 213.1201 216.8873 219.5145 222.7117 225.3389 229.8661 235.7233">TriticumTriticum</tspan></text>
<text fill="#231f20" xml:space="preserve" transform="matrix(1 0 -0 1 -18 802.8)" font-size="9.5" font-family="Bookman"><tspan y="-117.120189" x="261.3601 267.3156 272.7011 278.2766 283.2821 288.2876 293.8631 339.3601 345.3607 350.7913 356.41188 359.37248 364.42308 396.2401 404.96583 410.27156 416.52726 421.83299 426.7587 432.06443 435.66014 440.77586 443.61158 448.5373 454.413 459.71873 465.97444 471.47013 483.3601 489.9444 496.33869 501.593 504.5673 510.0116 515.07589 521.09017 526.1544 530.4587 539.51296 545.1472">PoaceaePoalesMonocotyledonaeAngiospermae</tspan></text>
<text fill="#231f20" xml:space="preserve" transform="matrix(1 0 -0 1 -18 802.8)" font-size="9.5" font-family="Bookman" font-style="italic"><tspan y="-105.60019" x="138.4801 144.248 149.2559 154.26381 157.3717 159.9096 164.91751 170.68541">aestivum</tspan></text>
<text fill="#231f20" xml:space="preserve" transform="matrix(1 0 -0 1 -18 802.8)" font-size="11" font-family="Bookman"><tspan y="-286.3202" x="175.4401">T</tspan></text>
<text fill="#231f20" xml:space="preserve" transform="matrix(1 0 -0 1 -18 802.8)" font-size="7.69999" font-family="Bookman"><tspan y="-286.3202" x="182.64009 188.43819 194.23628 199.41838">ABLE</tspan></text>
<text fill="#231f20" xml:space="preserve" transform="matrix(1 0 -0 1 -18 802.8)" font-size="11" font-family="Bookman"><tspan y="-286.3202" x="204.96009 209.51357 216.88706 220.74054"> 1.1</tspan></text>
<text fill="#231f20" xml:space="preserve" transform="matrix(1 0 -0 1 -18 802.8)" font-size="9.5" font-family="Bookman"><tspan y="-286.3202" x="228.24008 232.12528 236.01047 243.64066 248.04085 253.58104 259.12123 265.61143 269.0616 274.0318 283.56199 288.53218 292.41737 300.04756 303.49775 307.89793 314.38813 318.27333 322.6735 329.1637 334.7039 338.15409 342.55427 346.43946 353.11964 358.65983 364.39 370.3102 376.8004 382.7206 392.2508 395.701 401.24119 405.12638 412.18656 417.72676 422.12693 427.6671 433.2073 439.1275 443.52769 446.97789 452.51808">  Organisms with their Taxonomic Categories</tspan></text>
<path transform="matrix(.24,0,0,-.24,60.96,557.27999)" stroke-width="4" stroke-linecap="butt" stroke-miterlimit="10" stroke-linejoin="miter" fill="none" stroke="#ffffff" d="M0 0H1967"/>
<path transform="matrix(.24,0,0,-.24,60,666.24)" stroke-width="4" stroke-linecap="butt" stroke-miterlimit="10" stroke-linejoin="miter" fill="none" stroke="#ffffff" d="M0 0H1970"/>
<path transform="matrix(.24,0,0,-.24,60,626.88)" stroke-width="4" stroke-linecap="butt" stroke-miterlimit="10" stroke-linejoin="miter" fill="none" stroke="#ffffff" d="M0 0H1970"/>
<path transform="matrix(.24,0,0,-.24,60,590.64)" stroke-width="4" stroke-linecap="butt" stroke-miterlimit="10" stroke-linejoin="miter" fill="none" stroke="#ffffff" d="M0 0H1970"/>
<path transform="matrix(.24,0,0,-.24,114.96001,525.36)" stroke-width="4" stroke-linecap="butt" stroke-miterlimit="10" stroke-linejoin="miter" fill="none" stroke="#ffffff" d="M0 0V-770"/>
<path transform="matrix(.24,0,0,-.24,187.68,525.36)" stroke-width="4" stroke-linecap="butt" stroke-miterlimit="10" stroke-linejoin="miter" fill="none" stroke="#ffffff" d="M0 0V-771"/>
<path transform="matrix(.24,0,0,-.24,237.6,526.31997)" stroke-width="4" stroke-linecap="butt" stroke-miterlimit="10" stroke-linejoin="miter" fill="none" stroke="#ffffff" d="M0 0V-764"/>
<path transform="matrix(.24,0,0,-.24,316.32,526.56)" stroke-width="4" stroke-linecap="butt" stroke-miterlimit="10" stroke-linejoin="miter" fill="none" stroke="#ffffff" d="M0 0V-760"/>
<path transform="matrix(.24,0,0,-.24,376.56,526.07998)" stroke-width="4" stroke-linecap="butt" stroke-miterlimit="10" stroke-linejoin="miter" fill="none" stroke="#ffffff" d="M0 0V-762"/>
<path transform="matrix(.24,0,0,-.24,462.96,526.31997)" stroke-width="4" stroke-linecap="butt" stroke-miterlimit="10" stroke-linejoin="miter" fill="none" stroke="#ffffff" d="M0 0V-763"/>
<g clip-path="url(#clip_26)">
<text xml:space="preserve" transform="matrix(1 0 -0 1 259.314 763.99978)" font-size="8" font-family="Arial"><tspan y="6.316" x="0"> </tspan></text>
</g>
</g>
</svg>
