<svg xmlns="http://www.w3.org/2000/svg" xmlns:xlink="http://www.w3.org/1999/xlink" xmlns:inkscape="http://www.inkscape.org/namespaces/inkscape" version="1.1" width="576" height="784.8" viewBox="0 0 576 784.8">
<defs>
<clipPath id="clip_18">
<path transform="matrix(1,0,0,-1,-18,802.8)" d="M18 18H594V802.8H18Z" clip-rule="evenodd"/>
</clipPath>
<clipPath id="clip_19">
<path transform="matrix(1,0,0,-1,259.314,763.99978)" d="M0-8H57.372V.800049H0Z"/>
</clipPath>
</defs>
<g clip-path="url(#clip_18)">
<path transform="matrix(.24,0,0,-.24,-18,802.8)" d="M2 2H2548V214.67H2Z" fill="#cbdf7f" fill-rule="evenodd"/>
<path transform="matrix(.24,0,0,-.24,-18,802.8)" stroke-width="4" stroke-linecap="butt" stroke-miterlimit="1000" stroke-linejoin="miter" fill="none" stroke="#cbdf7f" d="M2 2H2548V214.67H2Z"/>
<path transform="matrix(.24,0,0,-.24,483.636,39.43701)" d="M0 0C7.32 7.32 16.16 10.98 26.51 10.98H97.35C107.7 10.98 116.54 7.32 123.87 0 131.19-7.32 134.85-16.16 134.85-26.52V-126.52C134.85-136.87 131.19-145.71 123.87-153.03 116.54-160.36 107.7-164.02 97.35-164.02H26.51C16.16-164.02 7.32-160.36 0-153.03-7.33-145.71-10.99-136.87-10.99-126.52V-26.52C-10.99-16.16-7.33-7.32 0 0" fill="#ffffff" fill-rule="evenodd"/>
<path transform="matrix(.24,0,0,-.24,-18,802.8)" d="M0 3035.83H2550V3372.7003H0Z" fill="#d1d3d4" fill-rule="evenodd"/>
<path transform="matrix(.24,0,0,-.24,-18,802.8)" d="M0 3078.33H2550V3420H0Z" fill="#e1ecb6" fill-rule="evenodd"/>
<path transform="matrix(.24,0,0,-.24,482.635,53.63501)" d="M0 0C7.32 7.32 16.16 10.98 26.52 10.98H97.35C107.71 10.98 116.55 7.32 123.87 0 131.19-7.33 134.85-16.17 134.85-26.52V-101.52C134.85-111.88 131.19-120.72 123.87-128.04 116.55-135.36 107.71-139.02 97.35-139.02H26.52C16.16-139.02 7.32-135.36 0-128.04-7.32-120.72-10.98-111.88-10.98-101.52V-26.52C-10.98-16.17-7.32-7.33 0 0" fill="#ffffff" fill-rule="evenodd"/>
<text fill="#231f20" xml:space="preserve" transform="matrix(1 0 -0 1 -18 802.8)" font-size="11" font-family="Bookman"><tspan y="-730.081" x="84">T</tspan></text>
<text fill="#231f20" xml:space="preserve" transform="matrix(1 0 -0 1 -18 802.8)" font-size="7.69999" font-family="Bookman"><tspan y="-730.081" x="90.72 96.937198">HE</tspan></text>
<text fill="#231f20" xml:space="preserve" transform="matrix(1 0 -0 1 -18 802.8)" font-size="11" font-family="Bookman"><tspan y="-730.081" x="102.48 105.0006"> L</tspan></text>
<text fill="#231f20" xml:space="preserve" transform="matrix(1 0 -0 1 -18 802.8)" font-size="7.69999" font-family="Bookman"><tspan y="-730.081" x="111.600009 114.17771 119.52741 122.10512 127.76282">IVING</tspan></text>
<text fill="#231f20" xml:space="preserve" transform="matrix(1 0 -0 1 -18 802.8)" font-size="11" font-family="Bookman"><tspan y="-730.081" x="133.92002 136.56063"> W</tspan></text>
<text fill="#231f20" xml:space="preserve" transform="matrix(1 0 -0 1 -18 802.8)" font-size="7.69999" font-family="Bookman"><tspan y="-730.0806" x="147.11612 153.2223 158.7125 163.27869">ORLD</tspan></text>
<text fill="#231f20" xml:space="preserve" transform="matrix(1 0 -0 1 -18 802.8)" font-size="11" font-family="Bookman"><tspan y="-729.36068" x="505.9201">5</tspan></text>
<path transform="matrix(.24,0,0,-.24,579.6,.11999512)" stroke-width="1" stroke-linecap="butt" stroke-miterlimit="10" stroke-linejoin="miter" fill="none" stroke="#000000" d="M0 0H60"/>
<path transform="matrix(.24,0,0,-.24,576.12,-18)" stroke-width="1" stroke-linecap="butt" stroke-miterlimit="10" stroke-linejoin="miter" fill="none" stroke="#000000" d="M0 0V-60"/>
<path transform="matrix(.24,0,0,-.24,579.6,784.44)" stroke-width="1" stroke-linecap="butt" stroke-miterlimit="10" stroke-linejoin="miter" fill="none" stroke="#000000" d="M0 0H60"/>
<path transform="matrix(.24,0,0,-.24,576.12,788.16)" stroke-width="1" stroke-linecap="butt" stroke-miterlimit="10" stroke-linejoin="miter" fill="none" stroke="#000000" d="M0 0V-59"/>
<path transform="matrix(.24,0,0,-.24,-17.88,-18.23999)" stroke-width="1" stroke-linecap="butt" stroke-miterlimit="10" stroke-linejoin="miter" fill="none" stroke="#000000" d="M0 0V-75"/>
<text fill="#231f20" xml:space="preserve" transform="matrix(1 0 -0 1 -18 802.8)" font-size="10.5" font-family="Bookman"><tspan y="-688.561" x="84 90.48001 108 114.509 121.438 126.897 130.571 133.93 137.079 141.698 147.157 151.146 154.81999 163.00899 168.88799 173.50699 180.01599 183.68999 190.19899 195.65799 202.58699 208.46599 212.45499 215.60399 222.53299 228.202 231.87599 235.86499 242.79399 248.25299 251.92699 257.59599 263.055 269.98399 277.123 282.582 286.256 291.71504 295.70405 301.79304 306.41203 310.40104 315.86006 319.53407 327.72306 330.87205 334.86106 341.79005 345.46406 351.55305 355.22706 360.68608 366.77507 373.28407 376.43305 380.42207 386.51106 389.66004 393.33406 396.48304 401.94206 405.93107 409.92008 415.3791">4.The first word denoting the genus starts with a capital letter</tspan><tspan y="-674.39999" x="108 116.186107 123.112209 126.25831 129.4044 134.8605 138.7029 142.689 149.6151 155.0712 158.91359 164.36969 170.8758 176.3319 181.788 184.9341 188.29019 191.4363 196.8924 200.73479 206.19089 212.69699 215.8431 219.8292 226.7553 232.2114 236.1975 240.03989 245.49599 249.48209 255.56819 260.1843 264.1704 269.62654 273.46894 281.65504 284.80113 288.78724 295.71333 299.55574 305.6418 309.48423 314.9403 324.8064 330.8925 334.03858 337.18467 341.02708 344.17317 349.62928 353.6154 357.6015 363.05763 367.2 370.54914 374.38456 377.94367 381.92277 385.75819 391.20729 397.28639 404.20549 408.0409 414.54">while the specific epithet starts with a small letter. It can be</tspan><tspan y="-660.48098" x="108 111.1532 114.3064 117.459598 124.6028 130.066 134.05919 138.68239 144.77559 148.76879 154.23198 160.74518 163.51839 171.7116 174.86479 178.85799 185.79119 188.56439 192.55759 199.49079 204.95398 207.72719 213.19039 219.07358 225.16678 235.03998 241.55318 244.70638 250.16957 252.94278 258.826 262.18919">illustrated with the example of </tspan></text>
<text fill="#231f20" xml:space="preserve" transform="matrix(1 0 -0 1 -18 802.8)" font-size="10.5" font-family="Bookman" font-style="italic"><tspan y="-660.4805" x="264.963 274.055 280.62699 287.19898 293.14097 296.14295 299.77494 305.50694 309.76893 316.3409 318.95289 321.95487 328.52687 335.30885 338.31083 343.4128">Mangifera indica</tspan></text>
<text fill="#231f20" xml:space="preserve" transform="matrix(1 0 -0 1 -18 802.8)" font-size="10.5" font-family="Bookman"><tspan y="-660.4805" x="349.92">.</tspan><tspan y="-640.56057" x="78 85.61891 91.55782 101.27673 106.58565 108.95617 114.68508 117.89399 120.26451 124.103427 130.88234 136.19126 138.56177 144.50067 151.48958 155.32849 162.1074 167.83632 172.30524 174.67575 180.61466 186.97357 193.33249 198.6414 204.5803 209.04923 214.35814 216.72866 222.66756 225.87647 229.71538 235.02429 239.4932 241.86371 245.70262 252.48154 257.79045 260.16099 265.46989 271.8288 277.1377 282.4466 285.4455 288.65443 291.65333 296.96223 299.33277 304.64167 311.00059 313.99949 317.83839 324.61729 329.92619 333.76509 336.974 339.34455 342.34346 345.55238 350.86128 354.0702 357.2791 359.64967 365.58857 369.42747 371.798 375.6369 382.4158 387.7247 390.09526 395.40415 402.18305 408.54197 410.9125 416.64143">Name of the author appears after the specific epithet, i.e., at the end of</tspan><tspan y="-626.88058" x="60 63.8891 70.7182 76.0773 78.5001 84.9092 87.958309 93.737407 96.78651 102.565608 108.134708 111.18381 116.54291 122.532009 125.58111 128.0039 134.83301 140.82212 150.59122 155.95032 158.37311 164.36222 171.19132 177.60042 180.02321 183.07231 188.43141 190.8542 198.9433 203.4624 206.5115 210.4006 214.2897 219.6488 226.4779 228.9007 231.9498 238.7789 241.20169 247.1908 254.0199 256.4427 262.4318 268.84089 275.24998 279.76908 285.12818 290.48728 293.53639 299.52549 303.41459 308.77369 315.18278 317.60557 320.86466 326.64378 331.16288 340.93199 344.19108 346.61387 351.97297 355.23207 360.80116 364.06025 367.31935">the biological name and is written in an abbreviated form, e.g., </tspan></text>
<text fill="#231f20" xml:space="preserve" transform="matrix(1 0 -0 1 -18 802.8)" font-size="10.5" font-family="Bookman" font-style="italic"><tspan y="-626.88058" x="369.84 378.7875 385.215 391.6425 397.43998 400.2975 403.78498 409.37248 413.48997">Mangifera</tspan><tspan y="-613.20059" x="60 62.95829 69.48658 76.22487 79.18316 84.24145 90.76974">indica </tspan></text>
<text fill="#231f20" xml:space="preserve" transform="matrix(1 0 -0 1 -18 802.8)" font-size="10.5" font-family="Bookman"><tspan y="-613.20059" x="92.880008 99.05212 102.07423 108.876338 115.678447 118.91055 121.30267 124.74478 128.60689 130.99901 134.02112 140.82323 147.20534 150.22745 155.55956 161.52167 165.38378 170.71588 176.04799 178.44011 182.30222 189.10433 195.06644 198.92855 201.32067 205.18277 211.98488 215.00699 220.3391 222.73122 228.06333 234.44544 239.77754 245.10965 248.13176 253.46387 258.796 261.1881 269.2502 275.2123 280.54444 282.93656 286.16868 289.1908 293.6829 299.015 302.87715 305.26927 311.65138 316.9835 322.3156 327.64775 332.13984 335.16194 341.54405 346.87617 353.25828 355.6504 362.0325 367.57463 369.96675 376.13887 379.16096 385.96308 392.7652 398.7273 404.05943 411.07154 416.40367">Linn. It indicates that this species was first described by Linnaeus.</tspan><tspan y="-599.52059" x="78.00001 84.927417 88.07482 95.00223 100.45964 105.91705 109.64946 112.79687 116.78428 120.516689 123.66409 129.1215 132.85391 139.78133 145.23874 151.32616 155.94358 159.09099 164.75839 168.4908 171.63822 181.50563 188.01305 193.89046 199.34787 204.80529 207.9527 214.46012 217.60753 223.06494 226.79735 230.78476 236.66217 240.39458 245.85199 249.8394 256.9768 263.48423 269.15165 272.88407 278.97148 282.11888 285.26628 288.9987 292.98609 299.91349 305.37089 309.1033 312.2507 315.3981 320.8555 324.0029 330.9303 336.59773 340.33015 346.20756 350.82496 356.49238 362.57978 369.50718 372.65458 378.11198 387.97938 393.43678 396.7942 400.5266 403.674 407.6614 411.39384 414.54124">Since it is nearly impossible to study all the living organisms, it is</tspan><tspan y="-585.8406" x="60.000009 66.92562 72.38123 77.836849 83.29246 88.74807 94.20368 100.28929 104.9049 110.57051 113.84432 117.82993 123.70554 126.979358 133.48497 138.94058 144.3962 147.54181 152.99742 158.45304 161.72684 167.18245 173.05806 182.92368 188.37929 191.65309 201.5187 206.97432 213.05994 219.98555 225.44116 228.71497 232.70058 238.57619 241.84999 251.7156 257.8012 264.30683 269.76243 273.03627 277.02186 283.94746 287.09306 292.54866 295.82249 302.3281 308.2037 313.6593 319.1149 322.2605 328.7661 331.9117 337.3673 340.72294 343.99678 350.50239 357.42799 360.57359 366.02919 369.303 375.80863 380.42424 386.29985 391.75544 397.21104 402.66664 408.12223 411.39607 414.54167">necessary to devise some means to make this possible. This process is</tspan></text>
<text fill="#231f20" xml:space="preserve" transform="matrix(1 0 -0 1 -18 802.8)" font-size="10.5" font-family="Bookman"><tspan y="-572.1606" x="60.000009 65.946918 69.373828 75.32074 80.63765 85.95456 89.59147 93.43838 97.07529 103.0222 108.96912 113.65603 117.29294 123.65985">classification</tspan></text>
<text fill="#231f20" xml:space="preserve" transform="matrix(1 0 -0 1 -18 802.8)" font-size="10.5" font-family="Bookman"><tspan y="-572.1606" x="130.56 133.782 136.16512 143.79712 146.80912 152.76111 158.08312 163.40512 166.41712 169.63912 172.65111 177.97312 183.92511 187.77712 190.78911 196.53112 203.32312 205.70624 208.71823 214.04024 216.42336 220.27536 227.06737 232.38938 234.77249 241.14449 245.62648 251.36849 256.6905 262.01249 267.33448 272.65647 275.03959 281.4116 286.9436 289.3267 297.3787 304.1707 307.18269 312.50468 319.29667 321.67979 327.63179 334.42378 339.95579 343.80778 350.59977 353.61177 360.40376 365.93577 368.31889 371.33088 376.65287 379.03599 384.568 389.05 394.792 401.794 408.16603 413.488">. Classification is the process by which anything is grouped</tspan><tspan y="-558.4806" x="60 63.14781 70.07562 74.06343 79.94124 82.77406 88.23187 94.10968 101.03749 106.4953 111.95311 118.88092 122.02873 127.48654 134.41436 138.40216 141.23497 146.69278 152.7806 156.7684 162.22621 167.89403 173.77184 178.38965 181.53746 186.99527 192.45308 195.28589 201.7937 207.88152 213.33933 218.79714 225.30495 228.13776 234.01557 240.94338 243.77619 249.234 255.1118 264.9796 270.43745 273.27027 278.7281 284.8159 290.2737 293.4215 296.5693 302.23713 305.06996 310.94776 317.45558 322.9134 328.37123 332.989 338.44685 344.53465 351.04246 354.19026 359.64808 362.4809 367.93873 374.86653 380.9543 385.5721 391.6599 397.11775 401.10557 406.5634 411.18119 416.639">into convenient categories based on some easily observable characters.</tspan><tspan y="-544.8006" x="60 66.71671 72.59342 77.21013 80.91684 86.37355 92.25026 98.33697 108.203678 114.71039 117.8571 123.31381 126.670528 130.37725 138.56395 144.02066 147.72737 153.18408 159.2708 164.72751 167.87422 171.02094 176.68766 180.39437 185.01108 190.46779 195.9245 201.80121 207.46793 214.39464 217.54135 222.99806 228.45478 232.16149 237.82819 242.4449 248.32161 255.45832 261.96504 267.42173 271.12846 276.58515 283.72187 289.17857 296.10527 299.81199 305.89869 311.35539 315.0621 321.56883 324.7155 330.80223 337.7289 341.71565 347.17234 350.87907 356.75578 361.37248 365.0792 371.1659 378.0926 381.2393 391.106 397.1927 400.3394 405.79609 409.5028 415.37953">For example, we easily recognise groups such as plants or animals or</tspan><tspan y="-531.1206" x="60 66.34721 72.06442 77.57163 82.86884 86.066059 88.42488 93.72209 99.6493 103.47651 108.77372 111.132549 116.849758 121.30696 123.66579 126.653 133.42021 138.71743 144.01464 149.31185 153.13906 158.43627 161.63347 163.99228 170.3395 177.1067 182.40392 184.76273 194.46994 200.18715 209.89437 215.19158 221.95879 225.786 228.1448 236.17201 241.46923 243.82804 250.80524 256.10246 261.39967 263.75849 269.6857 276.4529 281.9601 284.31895 290.03617 293.23338 295.5922 299.4194 306.1866 311.48384 316.78105 322.07826 324.43708 328.26429 333.5615 338.0187 347.72593 353.02314 356.22035 358.57917 366.60639 371.9036 374.26243 380.18965 385.48686 390.78407 396.50129 401.7985 404.7857 410.71293 414.54014">dogs, cats or insects. The moment we use any of these terms, we associate</tspan><tspan y="-517.4406" x="60 65.4597 70.9194 75.5391 79.5288 85.6185 88.7682 95.69791 98.53032 103.99002 110.91972 117.00942 121.62912 127.71882 133.17852 137.16822 142.62792 147.24762 152.70732 155.53974 163.72943 166.87914 170.86884 177.79854 180.63095 184.62065 191.55036 197.01006 199.84247 205.72217 210.34188 216.01157 222.10128 229.03098 232.18068 237.64038 247.51009 250.3425 253.4922 260.4219 263.25434 267.24403 274.1737 280.2634 284.2531 287.08555 292.75526 297.37495 303.25465 310.39436 316.90406 320.26377 323.0962 333.1759 340.1056 346.19529 350.185 353.01744 356.1671 366.0368 372.1265 377.7962 383.2559 386.08833 392.59803 398.47773 401.31016 406.97987 412.85957">certain characters with the organism in that group. What image do you</tspan><tspan y="-503.76063" x="60 65.45801 70.916019 76.37402 79.74533 87.93334 94.86135 100.31936 107.24737 110.618679 116.28668 122.164699 129.3027 132.67403 136.66204 143.59004 146.73805 153.66606 160.17407 163.5454 169.4234 172.78142 176.15274 182.24076 185.61208 192.12009 197.9981 203.6661 207.03743 212.70545 216.07677 224.47478 230.98279 236.4408 239.5888 245.46681 252.60483 258.06285 261.21086 266.87886 270.23686 273.60816 279.06617 285.15419 290.61219 297.5402 300.9115 306.78953 313.71754 319.17555 322.54685 328.42488 331.78288 335.15419 342.29219 347.75019 351.1215 359.3095 362.45753 365.60554 368.75355 372.12486 377.58287 383.04087 388.49888 391.87019 394.1782 400.6862 406.5642 412.2322 417.69023">see when you think of a dog ? Obviously, each one of us will see &#x2018;dogs&#x2019;</tspan><tspan y="-489.8406" x="60 65.9936 72.8272 79.2408 81.66781 88.50141 94.28501 98.17861 100.60562 102.81922 108.18282 114.17642 118.07002 123.433628 125.647228 128.91083 131.33783 139.01143 144.79503 152.88863 156.15222 158.57923 161.63283 164.89643 167.32343 175.41703 180.78063 183.20763 191.30123 196.66483 201.18843 206.55204 208.97904 212.87264 218.65624 221.08324 224.97684 231.81044 234.86405 241.69765 248.11125 250.53826 256.32188 259.58549 262.0125 264.2261 271.2697 274.3233 279.6869 285.68049 289.57408 292.62767 298.62126 305.45484 310.81843 313.032 315.45906 323.55265 328.91624 331.34327 337.75688 344.59046 350.37406 358.46766 360.89469 368.98829 375.82188 381.81547 385.70906 388.13609 396.22969 401.59327 404.0203 410.0139 414.53749">and not &#x2018;cats&#x2019;. Now, if we were to think of &#x2018;Alsatians&#x2019; we know what we are</tspan><tspan y="-476.1606" x="60 63.9749 70.0498 73.1847 79.6796 82.81451 89.72941 95.38431 97.89421 103.96911 110.46401 116.32891 123.45381 127.42871 130.7736 133.2835 140.1984 143.3333 153.1882 156.3231 159.45801 165.53292 170.13782 173.27272 178.92763 182.27252 184.78241 190.22731 197.3522 203.8471 210.34201 216.20691 221.65181 227.09671 229.6066 237.7815 243.2264 245.73628 253.91118 259.35609 263.96098 269.40589 271.9158 275.89073 281.7556 284.26554 289.71046 295.78535 301.44026 303.95018 306.24507 316.09996 322.17485 332.02973 341.8846 347.9595 351.0944 356.5393 358.8342 362.1791 364.68904 370.34394 376.20884 383.33375 385.84367 394.01856 399.88346 407.00837 410.14326 416.63816">talking about. Similarly, suppose we were to say &#x2018;mammals&#x2019;, you would,</tspan><tspan y="-462.48063" x="60 65.8163 69.1126 71.57142 76.96772 82.78402 89.86032 94.41662 99.81292 105.20922 108.50552 110.96434 114.89064 121.75694 124.84325 131.70955 138.15586 140.61466 146.43096 149.72725 152.18605 158.21236 165.07866 168.16497 177.97127 183.99758 187.08388 192.48018 194.93898 203.06528 206.15158 210.07788 216.94419 219.40299 224.79929 230.61559 234.54189 239.93819 244.8 251.66242 257.6848 260.7672 263.22215 268.61457 274.63697 279.18937 284.5818 287.0367 293.0591 299.9215 306.36393 308.81886 315.26127 321.07368 327.51609 333.1185 335.57344 342.43583 348.45823 351.54063 355.44 358.7258 361.1741 367.3999 370.4757 376.9115 382.2973 390.41313 393.48893 398.87474 404.26054 407.54634 409.99464 413.07044">of course, think of animals with external ears and body hair. Likewise, in</tspan><tspan y="-448.80064" x="60 66.4475 69.535 75.56251 82.43001 86.357509 91.755008 95.052509 97.51252 100.60002 103.89752 106.35754 114.48504 119.88254 122.34255 126.27005 130.82755 136.43505 138.89505 142.82256 148.64006 151.10007 155.02758 161.05507 164.14257 170.59006 173.05007 178.86757 182.16507 184.62508 186.87258 196.89008 203.75757 209.15508 215.18257 219.11008 221.35758 224.65508 227.11508 231.04259 237.9101 243.3076 245.76761 252.2151 255.3026 260.7001 264.6276 271.7051 276.2626 281.6601 284.1201 287.20759 294.07508 296.53507 301.93257 307.96006 313.35755 320.22505 322.68504 328.50254 331.80003 334.26 340.0775 347.15504 351.71253 354.17253 363.98 367.0675 373.935 380.3825 385.78 388.24 396.3675 399.455 402.54249 405.62998 408.08998 414.53749">plants, if we try to talk of &#x2018;Wheat&#x2019;, the picture in each of our minds will be</tspan><tspan y="-435.12065" x="60 65.87921 69.23842 72.20123 80.39044 87.31965 92.77886 98.86807 102.857288 105.8201 112.32931 115.478519 121.567729 128.49694 132.48615 137.94536 141.30457 144.26738 151.1966 157.0758 161.06502 164.02783 169.90705 173.26625 176.22907 180.84828 183.9975 189.45671 194.91593 197.87874 203.75795 208.37717 211.33998 217.4292 224.35842 230.02762 232.99044 238.86965 242.85886 249.78807 255.24729 259.8665 262.8293 269.33854 272.48774 278.57695 285.50614 289.49534 292.85456 295.81739 304.21659 309.67579 316.60499 322.06419 327.52339 330.8826 333.84544 339.93464 343.08384 346.23304 349.19587 353.18507 360.11427 365.57347 371.03266 376.49186 379.45469 383.6539 386.61674 388.92594 397.32514 403.20436 408.87358 414.33277 416.64198">of wheat plants, not of rice or any other plant. Hence, all these - &#x2018;Dogs&#x2019;,</tspan><tspan y="-421.44065" x="60 62.26911 69.99822 76.04733 79.996448 85.41556 87.68467 91.00378 93.4854 95.75451 105.37362 111.42273 121.25184 131.08095 137.13007 140.23918 145.6583 147.9274 151.2465 153.72812 155.99723 166.03633 172.92545 178.34456 184.39368 188.34279 190.6119 193.931 196.41262 198.68172 206.20082 209.30994 214.72905 220.14817 222.41727 225.73638 228.21799 230.48709 236.9562 240.06533 246.11444 253.00356 256.95268 262.37178 264.64088 267.96 270.44163 272.71073 279.80986 286.69895 289.80805 299.63716 305.68626 308.79536 314.21446 316.48356 319.80268 322.2843 327.7034 331.6525 337.0716 340.39073 343.70985 346.19148 352.24058 356.81968 362.23878 364.7204 370.1395 375.9786 382.8677 388.2868 393.7059 400.595 403.7041 409.1232 416.0123">&#x2018;Cats&#x2019;, &#x2018;Mammals&#x2019;, &#x2018;Wheat&#x2019;, &#x2018;Rice&#x2019;, &#x2018;Plants&#x2019;, &#x2018;Animals&#x2019;, etc., are convenient</tspan><tspan y="-407.76066" x="60 65.4903 71.6106 75.630908 81.12121 86.82151 92.73181 97.38211 100.56241 106.05271 111.543018 116.608318 124.82861 130.31891 135.38422 142.55452 148.04482 153.53511 158.60042 162.62071 168.531 173.59632 179.08661 183.1069 190.2772 196.8175 202.5178 207.58312 213.49341 218.1437 223.84401 229.96431 236.9246 240.1049 245.5952 255.4955 260.9858 264.3761 269.44139 275.9817 282.942 288.43229 293.49757 298.98786 304.47816 307.65846 313.14875 320.10905 324.12934 327.30964 330.69993 333.88023 339.3705 344.4358 348.4561 353.94639 358.59669 368.49699 373.56227 376.95256 382.86286 387.51316 392.57844 396.59873 403.55903 409.04933 414.5396">categories we use to study organisms. The scientific term for these</tspan><tspan y="-394.08067" x="60 65.50919 71.648387 75.68758 81.19677 86.91596 92.84515 97.51434 100.71353 106.222728 111.73192 116.81611 120.0153 125.52449">categories is </tspan></text>
<text fill="#231f20" xml:space="preserve" transform="matrix(1 0 -0 1 -18 802.8)" font-size="10.5" font-family="Bookman"><tspan y="-394.08067" x="130.56 135.62 141.93999 148.46997">taxa</tspan></text>
<text fill="#231f20" xml:space="preserve" transform="matrix(1 0 -0 1 -18 802.8)" font-size="10.5" font-family="Bookman"><tspan y="-394.08067" x="154.56 157.97 163.05501 171.505 177.015 181.685 187.19499 192.28 198 203.93 211.12 216.205 226.125 233.315 238.825 242.86499 247.95 252.62 258.13 263.64 269.57 275.29 282.27003 285.47004 290.98005 296.49006 301.57505 305.61506 312.59507 318.73509 322.7751 327.86009 331.9001 338.0401 343.9701 350.1101 355.1951 360.7051 366.84513 373.82514 378.91014 382.11015 389.09016 395.65016 398.85017 404.36018 410.50019 414.5402">. Here you must recognise that taxa can indicate</tspan><tspan y="-380.40068" x="60 65.45691 71.54382 75.53073 80.98764 86.65455 92.531459 97.14837 100.29528 105.75219 111.2091 114.52021 120.607128 124.59403 127.90514 133.36206 138.81897 143.43589 149.1028 152.4139 158.9208 162.06772 165.42462 168.78153 174.23844 178.85535 184.31226 191.23917 195.22608 198.53717 201.68408 207.14099 212.5979 218.05481 221.20172 226.65863 230.01554 233.32663 235.63355 242.14046 245.28737 251.37429 258.3012 262.28813 267.74504 270.05195 273.36305 278.60997 281.92106 288.00798 291.15489 296.6118 302.4887 305.7998 309.1567 315.03364 319.65055 329.51747 332.82856 338.91548 342.22657 346.21348 352.30039 358.1773 364.26423 367.62113 370.93223 373.23915 383.31605 390.24296 395.69987 401.78678 405.77369 408.0806 411.3917 414.5386">categories at very different levels. &#x2018;Plants&#x2019; &#x2013; also form a taxa. &#x2018;Wheat&#x2019; is</tspan><tspan y="-366.72068" x="60 66.0877 69.2354 74.6931 80.5708 83.1952 89.2829 91.907299 95.895 101.9827 107.8604 113.9481 117.30579 119.93019 126.857898 130.0056 139.8733 143.02101 146.16872 152.25643 156.87413 160.02184 165.68953 169.04723 171.67162 173.97931 180.06702 186.99472 190.14243 200.01013 206.09784 209.24555 214.70325 217.01094 220.36864 222.99303 225.30072 235.16843 241.25614 251.12384 260.99156 267.07926 270.22697 275.68467 277.99238 281.35008 283.97447 286.28218 292.78987 298.66755 304.33525 309.79295 312.10066 314.72505 320.81275 325.43046 330.88816 333.51255 339.60026 342.74797 345.89567 348.52006 352.50776 358.59547 364.47315 370.56086 373.18525 378.43296 381.05735 387.56504 394.70274 398.69044 401.31483 406.9825 412.8602">also a taxa. Similarly, &#x2018;animals&#x2019;, &#x2018;mammals&#x2019;, &#x2018;dogs&#x2019; are all taxa &#x2013; but you</tspan><tspan y="-353.04069" x="60 66.5073 73.4346 79.311908 87.49921 91.6792 95.6665 102.593799 108.6811 112.668399 116.84839 122.93569 127.115688 133.62299 139.50029 145.16759 149.34758 152.49488 157.95218 162.13217 168.21947 172.39946 182.26676 188.35405 198.22135 208.08864 214.17594 217.32323 221.50322 227.59052 234.51782 241.02512 245.20511 255.0724 261.1597 271.027 280.89433 286.98164 290.12895 295.58625 299.76625 305.85356 310.47087 315.92817 320.10816 326.19548 333.12278 336.27009 346.1374 352.2247 355.372 360.8293 364.1866 368.3666 374.8739 381.8012 387.2585 391.87583 397.33314 400.69044 406.56773 411.18504 416.64234">know that a dog is a mammal and mammals are animals. Therefore,</tspan><tspan y="-339.3607" x="60 62.26011 68.30022 75.18033 78.28044 88.100559 94.14066 97.240779 102.65089 104.910999 108.22111 110.69373 112.95384 122.77396 128.81407 138.63419 148.4543 154.49442 157.59453 163.00464 165.26476 167.73737 173.77748 180.6576 187.1177 189.59032 191.85044 198.31055 204.14066 209.76078 215.17089 217.431 219.90361 224.47373 229.88384 236.34395 240.91407 246.32418 251.73429 257.1444 264.0245 267.96464 270.43727 274.37739 280.41749 286.2476 292.2877 294.7603 300.8004 304.74055 307.21318 313.67329 316.77339 320.0835 323.39363 328.8037 333.3738 338.78395 345.66404 349.60417 352.07679 355.17689 360.58699 365.99708 371.40718 374.50727 379.91737">&#x2018;animals&#x2019;, &#x2018;mammals&#x2019; and &#x2018;dogs&#x2019; represent taxa at different levels.</tspan><tspan y="-325.44068" x="78 86.2846 91.629199 98.443798 103.78839 109.132999 112.377597 114.7833 121.1779 127.152507 132.4971 137.8417 144.23632 146.64203 152.40663 159.22124 161.62696 166.97156 173.78617 179.76076 184.26535 190.23995 195.58455 199.45915 204.80376 209.30835 212.34296 217.68756 221.56217 224.59677 229.94138 235.28598 238.53058 240.9363 246.91089 249.9455 252.9801 255.38582 258.4204 261.45503 266.79963 269.83424 276.64884 282.20344 284.60914 290.37373 294.87834 300.43293 306.40754 313.22215 316.25675 321.60136 331.35597 336.70057 339.10627 344.45088 350.42549 357.24009 359.64579 366.04039 371.38499 373.79069 379.13529 382.1699 388.1445 393.4891 398.8337 401.86833 405.1129 408.14753 413.49214">Hence, based on characteristics, all living organisms can be classified</tspan><tspan y="-311.76069" x="60 63.1491 70.0782 74.0673 79.946399 82.8055 89.3146 92.4637 95.8228 99.1819 104.641 109.2601 114.7192 121.6483 125.6374 128.49649 132.4856 138.57469 144.4538 150.5429 153.902 156.7611 163.27019 170.1993 173.34839 178.8075 181.6666 188.17569 192.79479 198.67389 204.133 209.5921 215.05121 220.51032 223.36942 229.24852 232.60762 235.46672 240.92583 244.07492 250.16402 255.62313 261.0822 264.23133 267.59043 270.73954 276.19865 282.28776 286.27687 289.42597 295.30506 302.23417 305.09327 308.24238 313.70149">into different taxa. This process of classification is </tspan></text>
<text fill="#231f20" xml:space="preserve" transform="matrix(1 0 -0 1 -18 802.8)" font-size="10.5" font-family="Bookman"><tspan y="-311.76069" x="316.557 321.26274 327.22843 333.40415 339.78987 346.80558 353.19129 363.567">taxonomy</tspan></text>
<text fill="#231f20" xml:space="preserve" transform="matrix(1 0 -0 1 -18 802.8)" font-size="10.5" font-family="Bookman"><tspan y="-311.76069" x="370.08003 373.4422 376.30439 383.86659 389.74879 393.74098 399.20317 403.82536 410.75755 416.84974">. External</tspan><tspan y="-298.0807" x="60.00003 66.089038 73.018039 79.52704 83.99713 87.14613 94.075138 98.06413 103.52313 108.142139 115.07114 121.16014 124.30914 128.77924 134.23824 138.22724 142.84624 149.98523 155.44423 159.43323 166.57224 171.19124 176.65024 180.00923 184.47931 190.56832 193.71732 199.59632 206.52532 212.19432 216.6644 224.8534 228.0024 231.9914 238.9204 243.39048 247.37947 254.30847 259.7675 264.23759 269.6966 273.6856 278.3046 285.4436 290.90263 294.89164 302.03065 306.64964 312.10865 316.57875 322.45774 325.81675 330.28684 335.74586 341.20487 344.35386 347.50285 350.86186 355.33195 361.84095 367.29997 372.75898 378.218 381.36698 387.24598 393.75498 403.62397 409.08299 416.01197">and internal structure, along with the structure of cell, development</tspan><tspan y="-284.4007" x="60.00003 66.50834 71.12665 77.00496 82.46327 87.921588 93.3799 98.83821 101.67992 107.76823 114.69653 121.20484 124.04655 129.50485 134.96317 140.84148 143.98979 149.8681 155.5364 158.68473 164.14304 170.23136 173.37967 176.22138 179.36969 186.298 189.65631 195.53462 200.15294 210.02126 216.10958 220.09789 223.2462 229.12451 236.05283 238.89453 244.77285 248.13115 250.97286 256.85118 261.46949 267.1378 273.2261 280.15443 283.30274 288.76106 298.62937 304.08769 306.92939 313.0177 317.63603 323.09434 325.93605 331.39436 336.85267 342.31098 347.7693 354.6976 358.6859 361.83424 367.92256 371.07087 373.91258 380.0009 386.9292 393.4375 396.2792 399.6375 405.5158 410.13414">process and ecological information of organisms are essential and form</tspan><tspan y="-270.7207" x="60.00003 63.97543 70.89083 76.336238 78.841648 85.33704 91.412448 96.85785 99.99325 105.43865 107.94406 113.80946 117.15486 119.66027 129.51567 135.38108 141.87648 147.32189 151.92729 158.8427 161.3481 165.3235 171.3989 177.2643 183.1297 190.0451 195.9105 205.76592 208.90132 214.34673 216.85213 222.29753 226.27294 233.39833 239.89374 243.02915 248.47455 253.91996">the basis of modern taxonomic studies.</tspan><tspan y="-257.0407" x="78.00003 86.11483 91.28963 97.934429 103.10922 108.28402 111.35882 113.59363 118.768428 125.41322 131.21802 135.55281 141.3576 146.53241 150.23722 155.41202 159.74681 162.61162 167.78643 173.59122 177.29602 180.16083 185.75563 192.40044 195.47524 197.71004 200.57485 206.79965 211.97446 218.61927 222.32407 225.18888 228.26367 231.12848 236.30329 242.10808 245.81288 248.67769 254.27249 260.9173 263.9921 266.2269 271.4017 274.2665 280.07133 285.24613 290.42094 293.28575 296.36054 299.22535 304.40016 310.20497 313.90977 316.77458 322.36936 329.01417 331.24897 337.05378 343.69859 349.92338 352.15818 358.80299 364.39778 373.98258 379.15739 385.8022 390.977 393.8418 399.6466 403.3514 410.2062 414.54103">Hence, characterisation, identification, classification and nomenclature</tspan><tspan y="-243.36072" x="60.00003 66.07433 70.678638 76.12293 78.63154 82.605838 89.520137 94.96443 97.47304 103.96734 108.57164 114.43594 119.88024 125.32454 130.76885 136.21315 141.65746 147.10176 149.61037 153.58467 160.49898 166.57328 170.54758 173.05619 179.13048 183.73477 189.17908 191.68769 198.18198 204.25627 209.70058 212.83487 218.27918 220.78778 224.76209 230.62639 233.135 237.1093 243.1836 249.0479 254.9122 261.8265 267.6908 277.5451 283.1994">are the processes that are basic to taxonomy.</tspan><tspan y="-229.68073" x="78.00003 84.51003 90.60004 96.480037 102.36003 109.29003 115.17003 125.04003 130.71004 134.27004 137.42003 142.88004 146.44004 153.37003 159.25003 163.24004 166.80004 172.26004 178.14005 188.01004 193.47005 197.46006 204.39005 207.54004 214.47003 220.14003 223.70003 230.63004 236.09004 244.28005 247.64005 251.20005 259.60005 266.74006 276.61006 282.70005 289.63005 293.19 299.7 305.16 308.31 315.24 320.91 326.37 329.92997 336.85997 342.94996 348.40995 353.86994 357.4299 363.5199 366.6699 374.8599 380.9499 386.6199 392.0799 395.63987 402.14988 407.60987 413.06986">Taxonomy is not something new. Human beings have always been</tspan><tspan y="-216.00074" x="60.00003 63.35492 70.48981 74.6847 80.349597 85.174488 90.83937 96.50426 100.69915 106.364048 113.07893 118.318828 121.67371 128.80861 134.04851 140.7634 147.89829 153.98317 162.37807 165.73296 172.86785 178.74274 183.98264 194.05753 200.14241 204.9673 210.63219 215.87209 222.16698 229.30187 236.01676 241.25666 251.33155 257.41645 262.24134 267.90623 273.1461 279.44099 286.15589 292.24079 299.58567 303.78056 309.02043 313.2153 320.3502 326.01509 331.25495 336.91984 343.21473 348.0396 351.3945 357.4794 364.82429 370.48918 375.72904 382.44395 385.79884 392.93373 399.64863 405.3135 410.55339 416.63829">interested in knowing more and more about the various kinds of</tspan><tspan y="-202.32074" x="60.00003 65.87663 70.49323 76.159839 82.24644 89.173038 92.31963 97.77624 107.64284 113.09944 116.45604 120.052639 126.559238 132.64583 137.26244 141.24904 144.39565 149.85225 156.98885 160.13545 166.22205 170.83866 173.98526 179.65186 183.24846 191.43506 194.58167 198.56827 205.49488 209.09148 213.70809 219.16469 222.52129 227.97789 232.5945 238.0511 244.9777 250.43431 255.89092 259.48753 263.47413 269.3507 272.9473 276.9339 283.8605 289.3171 292.4637 297.08033 300.6769 306.5535 314.7401 321.66673 325.2633 332.3999 337.8565 343.3131 346.6697 350.2663 353.8329 360.7595 364.35609 369.81269 375.8993 380.5159 383.6625 389.3291 392.9257 399.43229 405.5189 411.1855 416.6421">organisms, particularly with reference to their own use. In early days,</tspan><tspan y="-188.64075" x="60.00003 66.71473 73.63943 83.29413 89.16883 95.88353 98.19074 104.48544 109.73014 112.66484 119.37954 124.834239 130.07894 132.38614 139.10085 144.34555 149.59026 155.88495 161.12966 167.42435 169.73155 173.50626 179.17096 181.47817 184.62287 187.55756 194.27227 200.56696 202.87416 208.11887 213.78357 220.70827 225.11296 230.35767 235.60237 240.84708 243.15428 246.29898 251.96369 256.36839 258.6756 262.4503 269.16499 274.40968 277.34437 281.74906 284.05628 290.35099 296.22569 301.47038 304.40507 309.64976 311.95698 318.67167 323.91636 329.16105 335.45576 340.70045 343.00767 348.67237 351.81709 354.1243 357.269 362.93373 368.59843 374.89314 378.03785 380.34507 385.58976 388.52445 394.18916 397.96385 404.67854 407.61323 414.3279">human beings needed to find sources for their basic needs of food, clothing</tspan><tspan y="-174.96076" x="60.00003 65.99363 72.82723 79.24083 81.66813 87.03173 93.86533 99.228939 102.28253 106.17613 111.539737 115.44003 118.71704 121.157749 129.47476 134.85178 141.69879 147.0758 152.45282 155.72983 158.17053 162.07755 168.92456 174.30158 176.74228 182.1193 188.1263 192.6633 195.73032 198.79734 204.17435 209.55136 213.45838 215.89908 221.2761 224.34311 230.35012 235.72713 241.10414 244.17116 247.44817 250.51519 255.8922 261.8992 265.8062 268.87324 274.67024 281.51725 286.89427 289.33497 297.442 302.819 307.44004 312.80793 315.23954 321.65745 327.65534 333.02323 338.3911 344.80903 347.24064 353.02854 359.86643 362.29804 366.19593 373.0338 378.4017 380.8333 383.0512 390.09913 395.467 400.8349 406.2028 408.4207 410.8523 416.6402">and shelter. Hence, the earliest classifications were based on the &#x2018;uses&#x2019; of</tspan><tspan y="-161.04076" x="60.00003 65.41293 71.45583 76.02873 79.13163 84.96453 92.057437 97.47034 99.933238 105.766139 110.339038 115.96194 122.00484 128.88774 131.99065 137.40355 147.22646 152.63936">various organisms.</tspan><tspan y="-147.36075" x="78.00003 86.36883 93.47763 103.31643 109.37523 116.27403 118.76783 125.24663 130.67543 133.79424 140.69304 146.33184 151.76064 154.25443 162.41323 167.84203 172.43083 177.85964 181.18843 183.68222 189.11103 192.22983 199.12863 204.55744 209.98624 212.48003 215.59883 221.44763 228.34644 233.98523 237.31403 239.80782 246.70662 252.55542 256.51423 259.00804 264.8568 271.7556 274.87443 280.5132 283.00703 286.12583 293.02464 296.98344 302.41224 307.00105 312.42985 317.85865 321.81745 327.24626 333.72505 336.21885 339.33766 346.23646 348.73027 355.20906 362.10786 367.95664 376.11546 379.23426 386.13307 391.77186 394.26567 404.10447 409.95326 414.54206">Human beings were, since long, not only interested in knowing more</tspan><tspan y="-133.68076" x="60.00003 66.08804 72.596057 78.47407 85.612079 89.60008 93.92308 100.43109 103.5791 106.93711 110.29512 115.75313 120.37114 125.82915 132.75716 136.74517 141.06818 147.57619 150.7242 157.6522 164.16022 169.61823 173.94124 179.81925 183.17726 187.50028 193.37828 197.99629 203.6643 209.75232 216.68033 219.82834 225.28635 235.15436 240.61237 244.93538 251.02339 257.95143 264.4594 268.7824 272.77043 279.69844 285.15644 288.30445 292.92247 297.24546 303.75346 306.90147 312.35948 317.81748 322.4355 327.8935 331.0415 335.0295 338.17753 343.63554 349.09355 352.45155 356.77455 363.28254 370.42054 374.40855 378.73155 384.81956 387.96757 393.42558 399.3036 403.6266 407.6146 414.5426">about different kinds of organisms and their diversities, but also the</tspan><tspan y="-120.000759" x="60.00003 64.634838 70.109638 73.27444 79.379238 83.38403 86.548839 92.443637 99.388439 104.863239 111.80804 114.97284 121.49764 126.97244 132.02225 138.12705 148.01184 153.90665 160.85144 166.53624 171.58605 175.59085 182.53565 188.01045 197.89525 201.27005 206.31986 212.84465 219.78945 222.95424 228.42905 233.47885 240.00365 244.63845 250.74324 257.68806 263.16285 270.10765 275.1574 281.05223 284.427 289.47679 294.95158 298.95637 306.11116 312.63597 318.32078 323.37055 331.57536 337.68016 343.15495 348.2047 352.8395 358.3143 361.6891 367.16389 371.79869 376.43348 381.90827 388.43309 393.48286 397.48765 403.38246 408.43223 414.53703">relationships among them. This branch of study was referred to as</tspan></text>
<text fill="#231f20" xml:space="preserve" transform="matrix(1 0 -0 1 -18 802.8)" font-size="10.5" font-family="Bookman"><tspan y="-106.320758" x="60.00003 65.50203 72.05403 77.55603 82.42803 88.560039 99.102039 105.23404 110.10604 113.92804 120.06004">systematics</tspan></text>
<text fill="#231f20" xml:space="preserve" transform="matrix(1 0 -0 1 -18 802.8)" font-size="10.5" font-family="Bookman"><tspan y="-106.320758" x="125.52003 128.93912 134.0248 140.59389 147.58298 153.10207 158.18775 166.43683 172.37592 177.05501 183.6241 188.70978 194.22887 199.95796 205.47705 209.52614 215.04523 224.97432 231.12342 235.1725 238.38159 243.90068">. The word systematics</tspan></text>
<text fill="#231f20" xml:space="preserve" transform="matrix(1 0 -0 1 -18 802.8)" font-size="10.5" font-family="Bookman"><tspan y="-106.320758" x="249.60004"> </tspan></text>
<text fill="#231f20" xml:space="preserve" transform="matrix(1 0 -0 1 -18 802.8)" font-size="10.5" font-family="Bookman"><tspan y="-106.320758" x="255.36003 258.57353 264.09703 269.2105 275.784 281.3075 285.991 289.2045 294.728 300.2515 306.82499 311.93849 315.36198 320.04548 325.98899 335.9225 341.03599 345.08949 352.08299 357.60649 362.71998 369.08348 375.23698 379.29048 382.50398 389.49748 394.61097 402.86448 408.80799 413.4915">is derived from the Latin word</tspan><tspan y="-92.640758" x="60.00003 62.23853 67.62703 73.22553 78.61404 82.53254 87.92104 97.71954 103.738048 105.97655 108.42756 116.54606 123.40456 126.483058 131.87155 138.73006 141.18106 150.97957 156.36808 162.38657 169.24507 174.63358 177.08458 182.47309 188.07158 193.46009 197.37859 202.76709 212.5656 218.58409 222.5026 225.5811 230.9696 233.42061 239.4391 243.98761 248.53612 254.55461 261.41313 267.01164 272.40013 282.1986 287.5871 294.4456 298.36408 300.8151 306.6236 309.9121 312.36314 318.17164 322.72013 328.31864 334.33714 341.19563 344.2741 349.6626 359.4611 364.84959 368.1381 370.5891 373.04014 379.26863 382.3471 389.2056 396.0641 402.08259 407.47108 414.53959">&#x2018;systema&#x2019; which means systematic arrangement of organisms.  Linnaeus</tspan></text>
<g clip-path="url(#clip_19)">
<text xml:space="preserve" transform="matrix(1 0 -0 1 259.314 763.99978)" font-size="8" font-family="Arial"><tspan y="6.316" x="0"> </tspan></text>
</g>
</g>
</svg>
