<svg xmlns="http://www.w3.org/2000/svg" xmlns:xlink="http://www.w3.org/1999/xlink" xmlns:inkscape="http://www.inkscape.org/namespaces/inkscape" version="1.1" width="576" height="784.8" viewBox="0 0 576 784.8">
<defs>
<clipPath id="clip_27">
<path transform="matrix(1,0,0,-1,-18,802.8)" d="M18 18H594V802.8H18Z" clip-rule="evenodd"/>
</clipPath>
<clipPath id="clip_28">
<path transform="matrix(.24,0,0,-.24,-18,802.8)" d="M727 837H790V863H727Z"/>
</clipPath>
<clipPath id="clip_29">
<path transform="matrix(.24,0,0,-.24,-18,802.8)" d="M722 780H785V806H722Z"/>
</clipPath>
<clipPath id="clip_30">
<path transform="matrix(.24,0,0,-.24,-18,802.8)" d="M722 723H785V749H722Z"/>
</clipPath>
<clipPath id="clip_31">
<path transform="matrix(.24,0,0,-.24,-18,802.8)" d="M1079 838H1141V864H1079Z"/>
</clipPath>
<clipPath id="clip_32">
<path transform="matrix(.24,0,0,-.24,-18,802.8)" d="M1074 781H1136V808H1074Z"/>
</clipPath>
<clipPath id="clip_33">
<path transform="matrix(.24,0,0,-.24,-18,802.8)" d="M1074 724H1136V750H1074Z"/>
</clipPath>
<clipPath id="clip_34">
<path transform="matrix(.24,0,0,-.24,-18,802.8)" d="M1445 838H1508V864H1445Z"/>
</clipPath>
<clipPath id="clip_35">
<path transform="matrix(.24,0,0,-.24,-18,802.8)" d="M1440 781H1503V808H1440Z"/>
</clipPath>
<clipPath id="clip_36">
<path transform="matrix(.24,0,0,-.24,-18,802.8)" d="M1440 724H1503V750H1440Z"/>
</clipPath>
<clipPath id="clip_37">
<path transform="matrix(1,0,0,-1,259.314,763.99978)" d="M0-8H57.372V.800049H0Z"/>
</clipPath>
</defs>
<g clip-path="url(#clip_27)">
<path transform="matrix(.24,0,0,-.24,-18,802.8)" d="M2 2H2548V214.67H2Z" fill="#cbdf7f" fill-rule="evenodd"/>
<path transform="matrix(.24,0,0,-.24,-18,802.8)" stroke-width="4" stroke-linecap="butt" stroke-miterlimit="1000" stroke-linejoin="miter" fill="none" stroke="#cbdf7f" d="M2 2H2548V214.67H2Z"/>
<path transform="matrix(.24,0,0,-.24,483.636,39.43701)" d="M0 0C7.32 7.32 16.16 10.99 26.52 10.99H97.35C107.71 10.99 116.55 7.32 123.87 0 131.19-7.32 134.85-16.16 134.85-26.51V-126.51C134.85-136.87 131.19-145.71 123.87-153.03 116.55-160.35 107.71-164.01 97.35-164.01H26.52C16.16-164.01 7.32-160.35 0-153.03-7.32-145.71-10.98-136.87-10.98-126.51V-26.51C-10.98-16.16-7.32-7.32 0 0" fill="#ffffff" fill-rule="evenodd"/>
<path transform="matrix(.24,0,0,-.24,-18,802.8)" d="M0 3035.83H2550V3372.7003H0Z" fill="#d1d3d4" fill-rule="evenodd"/>
<path transform="matrix(.24,0,0,-.24,-18,802.8)" d="M0 3078.33H2550V3420H0Z" fill="#e1ecb6" fill-rule="evenodd"/>
<path transform="matrix(.24,0,0,-.24,482.635,53.63501)" d="M0 0C7.32 7.32 16.16 10.98 26.52 10.98H97.35C107.71 10.98 116.55 7.32 123.87 0 131.19-7.32 134.85-16.16 134.85-26.52V-101.52C134.85-111.88 131.19-120.72 123.87-128.04 116.55-135.36 107.71-139.02 97.35-139.02H26.52C16.16-139.02 7.32-135.36 0-128.04-7.32-120.72-10.98-111.88-10.98-101.52V-26.52C-10.98-16.16-7.32-7.32 0 0" fill="#ffffff" fill-rule="evenodd"/>
<text fill="#231f20" xml:space="preserve" transform="matrix(1 0 -0 1 -18 802.8)" font-size="11" font-family="Bookman"><tspan y="-730.081" x="84">T</tspan></text>
<text fill="#231f20" xml:space="preserve" transform="matrix(1 0 -0 1 -18 802.8)" font-size="7.69999" font-family="Bookman"><tspan y="-730.081" x="90.96 97.0842">HE</tspan></text>
<text fill="#231f20" xml:space="preserve" transform="matrix(1 0 -0 1 -18 802.8)" font-size="11" font-family="Bookman"><tspan y="-730.081" x="102.479999 104.9021"> L</tspan></text>
<text fill="#231f20" xml:space="preserve" transform="matrix(1 0 -0 1 -18 802.8)" font-size="7.69999" font-family="Bookman"><tspan y="-730.081" x="111.6 114.123607 119.47311 121.99671 127.66191">IVING</tspan></text>
<text fill="#231f20" xml:space="preserve" transform="matrix(1 0 -0 1 -18 802.8)" font-size="11" font-family="Bookman"><tspan y="-730.081" x="133.68 136.3852"> W</tspan></text>
<text fill="#231f20" xml:space="preserve" transform="matrix(1 0 -0 1 -18 802.8)" font-size="7.69999" font-family="Bookman"><tspan y="-730.081" x="146.87999 153.0454 158.5871 163.1817">ORLD</tspan></text>
<text fill="#231f20" xml:space="preserve" transform="matrix(1 0 -0 1 -18 802.8)" font-size="11" font-family="Bookman,Bold" font-weight="bold"><tspan y="-729.361" x="505.91999">9</tspan></text>
<path transform="matrix(.24,0,0,-.24,579.6,.11999512)" stroke-width="1" stroke-linecap="butt" stroke-miterlimit="10" stroke-linejoin="miter" fill="none" stroke="#000000" d="M0 0H60"/>
<path transform="matrix(.24,0,0,-.24,576.12,-18)" stroke-width="1" stroke-linecap="butt" stroke-miterlimit="10" stroke-linejoin="miter" fill="none" stroke="#000000" d="M0 0V-60"/>
<path transform="matrix(.24,0,0,-.24,579.6,784.44)" stroke-width="1" stroke-linecap="butt" stroke-miterlimit="10" stroke-linejoin="miter" fill="none" stroke="#000000" d="M0 0H60"/>
<path transform="matrix(.24,0,0,-.24,576.12,788.16)" stroke-width="1" stroke-linecap="butt" stroke-miterlimit="10" stroke-linejoin="miter" fill="none" stroke="#000000" d="M0 0V-59"/>
<path transform="matrix(.24,0,0,-.24,-17.88,-18.23999)" stroke-width="1" stroke-linecap="butt" stroke-miterlimit="10" stroke-linejoin="miter" fill="none" stroke="#000000" d="M0 0V-75"/>
<path transform="matrix(.24,0,0,-.24,103.5,261.55)" d="M0 0C0 145.95 51.6 270.53 154.8 373.74 258.01 476.93 382.59 528.54 528.54 528.54 674.49 528.54 799.07 476.94 902.28 373.74 1005.48 270.53 1057.09 145.95 1057.08 0 1057.09-145.95 1005.48-270.53 902.28-373.74 799.07-476.94 674.49-528.54 528.54-528.54 382.59-528.54 258.01-476.94 154.8-373.74 51.6-270.53 0-145.95 0 0" fill="#fffde5" fill-rule="evenodd"/>
<text fill="#00aeef" xml:space="preserve" transform="matrix(1 0 -0 1 -18 802.8)" font-size="13" font-family="Bookman,Bold" font-weight="bold"><tspan y="-688.561" x="221.76">S</tspan></text>
<text fill="#00aeef" xml:space="preserve" transform="matrix(1 0 -0 1 -18 802.8)" font-size="9.1" font-family="Bookman,Bold" font-weight="bold"><tspan y="-688.561" x="230.87999 238.4005 247.19499 255.98949 262.59999 269.57447">UMMARY</tspan></text>
<text fill="#231f20" xml:space="preserve" transform="matrix(1 0 -0 1 -18 802.8)" font-size="10.5" font-family="Bookman"><tspan y="-663.36099" x="59.759996 66.10831 72.887119 78.16443 80.44974 83.375049 86.300357 91.57767 94.502979 101.281787 106.7691 109.054409 117.11421 122.82202 127.238338 130.16365 136.51197 138.79727 141.72258 146.9999 149.2852 153.7015 156.62682 161.90413 168.68294 170.96825 173.89356 180.67237 182.95767 188.23499 194.1528 198.5691 201.49442 206.77173 210.54753 216.03484 219.17015 221.45546 231.00627 233.93158 236.85689 239.7822 242.7075 248.41532 255.19412 260.47145 262.75675 268.46458 271.59989 273.8852 280.2335 283.1588 289.07664 295.85545 299.63127 304.90858 307.19389 313.1117 319.8905 326.2388 328.5241 334.44194 341.22074 344.14607 353.91737 359.83518 362.7605 368.0378 370.32313 377.10194 383.01976 388.29707 393.57438 395.85969 402.20799 407.4853 412.7626">The living world is rich in variety. Millions of plants and animals have been</tspan><tspan y="-648.96096" x="59.759996 62.786798 69.236598 74.615398 81.4957 85.37299 88.399799 91.6366 94.6634 100.0422 106.492 109.26381 115.28311 122.163417 128.61322 131.38503 137.83483 143.21363 148.59243 153.97122 158.48903 161.51583 167.96562 173.34442 179.79422 182.56603 189.01583 196.10613 199.98343 202.75524 208.77454 211.54634 214.57314 220.59244 225.11025 230.69905 236.07785 238.84966 245.72995 252.82025 262.69306 269.14286 274.52168 279.03947 281.81126 287.19007 291.06736 294.09416 297.12095 300.14775 302.91954 307.43733 312.81614 322.68894 328.70823 331.73503 338.61534 343.99415 346.76594 353.85624 360.73655 367.18635 374.06666 379.87596 388.03724 394.91755 398.15434 400.92613 407.37593 414.25624">identified and described but a large number still remains unknown. The</tspan><tspan y="-634.3209" x="59.759996 65.08301 70.40602 74.868038 80.40105 82.732059 87.19407 93.15758 99.982089 105.5151 110.83811 113.16912 118.92263 122.10364 124.43465 130.18816 134.65016 140.18317 146.14669 152.97119 155.9422 161.26522 171.08223 176.40525 178.73625 181.70726 188.53177 190.86278 194.68428 200.0073 204.4693 214.28632 219.60933 221.94034 227.69385 230.87487 233.20587 238.52889 241.4999 246.39241 251.71543 254.89644 257.22746 262.55046 268.30397 271.27497 277.02848 284.063 287.03999 290.2187 292.5474 299.3696 305.3308 311.72254 314.69126 318.51048 324.47169 328.2909 331.4696 333.7983 340.19004 347.01225 352.54295 357.86366 360.83238 366.5836 369.5523 375.30354 380.83424 383.80296 389.12367 395.08488 398.0536 400.3823 406.3435 413.1657">very range of organisms in terms of size, colour, habitat, physiological and</tspan><tspan y="-619.9209" x="59.75998 69.59048 75.357479 79.83298 86.24048 93.078479 98.845478 101.82997 107.59697 113.14347 116.12797 121.46447 127.44147 130.42597 132.77046 135.96497 141.30147 147.27848 151.11348 158.16149 162.63698 167.97348 173.30998 175.65448 185.48499 191.46199 197.86949 203.206 205.55049 212.5985 217.935 220.2795 225.616 230.9525 236.289 242.6965 245.041 248.876 255.714 261.0505 263.395 269.8025 275.13899 278.33348 281.31797 288.15599 291.14048 297.9785 303.525 305.86949 311.20597 318.04399 324.02098 328.49647 334.47346 339.80995 343.64494 348.9814 353.4569 356.4414 361.7779 365.61289 368.59739 373.93388 379.27037 381.61485 387.38185 390.57633 392.9208 395.9053 398.8898 404.2263 407.2108 414.0488">morphological features make us seek the defining characteristics of living</tspan><tspan y="-605.2809" x="59.75998 65.28449 69.5175 74.82151 80.55602 87.151538 89.89355 94.98756 104.57557 109.66958 112.62159 114.7236 117.88561 124.481128 126.58314 132.10765 136.34067 142.50568 147.59969 151.8327 153.93471 157.52722 163.05173 165.15373 168.10575 173.84026 178.93427 181.67627 184.41828 187.16028 190.75279 196.4873 200.07982 205.17383 207.27584 210.86835 217.46385 222.55786 224.65987 229.75388 233.34639 240.1519 246.31691 251.62093 253.72293 259.24745 262.19944 264.30143 270.46644 273.20845 279.80397 285.96897 291.063 293.16499 298.89949 305.495 311.66 313.762 319.927 322.669 327.76304 332.85707 337.09007 342.18409 344.9261 348.5186 353.8226 355.9246 361.4491 364.4011 366.50309 372.0276 376.2606 381.5646 387.2991 393.89463 396.63664 401.73066 411.31867 416.4127">organisms. In order to facilitate the study of kinds and diversity of organisms,</tspan><tspan y="-590.88088" x="59.75998 66.21718 69.25138 75.068088 78.10229 83.91899 89.51519 92.54939 97.93559 101.82029 107.20649 112.15068 119.03838 125.06509 130.4513 135.8375 140.7817 146.1679 151.5541 157.37079 160.40499 165.79119 171.17739 177.63459 182.57878 187.96498 193.35118 197.87638 201.76108 207.78778 210.82198 217.70967 222.65387 227.17908 234.27678 237.31098 242.69718 248.08338 253.02758 259.05427 265.94197 272.39918 277.34336 283.80058 288.32579 291.36 298.24769 303.63389 306.6681 313.1253 316.15953 321.54573 326.93193 331.8761 335.1203 340.937 345.46223 350.4064 353.4406 359.89784 365.28404 372.17173 376.05644 379.09065 382.33485 385.36906 390.75526 396.78196 400.66667 403.70088 409.51759 416.40528">biologists have evolved certain rules and principles for identification,</tspan><tspan y="-576.24087" x="59.75998 66.64019 72.4494 82.32211 87.70082 94.58103 99.95974 102.98645 109.00566 112.88287 119.97308 124.49079 129.8695 132.76873 138.78794 145.66814 152.11785 155.01706 160.39577 163.42247 169.44168 174.82039 180.1991 183.2258 186.46251 189.48921 194.86792 200.88713 204.76435 207.79105 213.60025 220.48046 223.37967 229.18888 232.42559 235.3248 241.134 245.65172 251.24044 257.25965 264.13987 267.16658 272.5453 282.418 287.79673 291.03346 293.93269 300.3824 307.2626 312.64134 315.54057 321.99028 326.50798 332.52717 339.40739 344.7861 351.66633 354.56556 360.37477 363.61149 366.5107 372.96043 379.84065 385.64985 393.81108 396.83778 402.2165 408.6662 414.2549">nomenclature and classification of organisms. The branch of knowledge</tspan><tspan y="-561.8408" x="59.75998 65.95659 71.0822 76.84831 79.621929 82.39554 89.02265 94.35826 96.491878 104.39999 107.1736 110.79771 117.42482 119.55843 123.18254 129.80965 134.93526 140.06087 145.18648 147.32009 153.0862 158.2118 164.40842 169.53403 174.65964 178.28376 183.40937 185.54297 188.31658 193.44219 195.57579 199.8404 204.966 207.94962 213.07523 217.33985 221.60446 226.73007 232.92668 235.06029 238.6844 244.24051 246.37412 252.14023 257.26585 259.39945 263.02357 268.78968 274.3458 279.90193 286.52903 292.08515 301.70475 307.04035 310.02397 312.15757 318.3542 324.9813 330.1069 332.2405 335.86463 341.63075 347.18687 352.74299 359.3701 364.9262 374.5458 377.31944 382.44505 384.57865 389.70426 393.32838 400.16548 406.3621 409.1357 414.26133">dealing with these aspects is referred to as taxonomy. The taxonomic studies</tspan><tspan y="-547.4408" x="59.75998 65.48268 68.63288 70.93308 76.22528 82.15798 86.58918 89.52938 95.25208 102.25578 107.54798 109.84818 115.14038 121.50358 126.79578 132.08798 135.02819 140.32039 145.6126 147.91278 153.63549 156.78568 159.08588 165.44908 168.38928 174.32198 181.11568 184.90637 190.19858 192.49878 198.43148 205.22518 211.58838 213.88858 219.82128 226.61498 229.55518 239.34137 245.27407 248.21427 253.50647 255.80667 261.73939 266.1706 271.4628 273.763 280.7667 286.0589 291.3511 294.5013 301.505 304.4452 306.7454 309.68559 316.47929 318.77949 324.7122 330.2144 334.6456 337.5858 342.878 349.88169 352.82188 356.61259 363.61628 368.0475 373.3397 376.4899 378.7901 381.9403 387.663 392.0942 397.3864 402.67863 406.46934 410.90055 416.40275">of various species of plants and animals are useful in agriculture, forestry,</tspan><tspan y="-532.7998" x="59.75998 62.73569 69.5649 75.963619 83.00282 88.330539 92.156749 96.62346 102.16117 104.49688 110.46509 117.2943 123.69301 126.02872 129.00443 135.83364 138.16934 143.70705 149.03476 155.86397 161.19168 165.65839 171.6266 174.60231 176.93802 180.12374 185.88195 190.34865 192.68436 199.08307 205.91228 211.67049 219.7807 222.75641 229.58562 235.12332 237.45903 243.21724 250.25646 254.72316 257.05888 263.45759 266.4333 272.1915 276.23823 280.70494 286.03263 291.36033 297.11854 304.15776 308.62446 313.95216 319.27986 324.60755 326.94325 332.91145 339.74067 346.13938 348.47508 352.30128 359.1305 364.4582 367.4339 371.9006 374.2363 380.635 383.61073 388.93843 394.2661 398.73283 404.06053 407.03623 410.86244 416.40016">industry and in general for knowing our bio-resources and their diversity.</tspan><tspan y="-518.3998" x="59.75998 66.20848 73.08748 78.46498 81.99488 88.44338 94.46138 99.83888 102.86438 108.24188 113.619388 117.149288 122.95728 126.19278 129.72269 133.5987 139.6167 145.4247 151.2327 158.1117 163.9197 173.7912 179.3787 182.9086 185.9341 188.9596 195.4081 200.7856 204.3155 207.341 213.7895 219.167 226.046 229.92201 232.94751 236.18302 239.20851 244.58602 250.60402 254.48003 257.50553 263.31355 270.19255 273.42805 276.95796 283.83695 289.85496 299.72645 302.75196 309.63096 315.21846 318.74836 324.76637 331.64537 338.09385 341.62376 347.00126 350.02677 356.04478 361.42228 366.79978 369.8253 373.0608 376.0863 381.4638 387.4818 391.35783 394.38334 400.19136 407.07035 410.60026 416.40827">The basics of taxonomy like identification, naming and classification of</tspan><tspan y="-503.76078" x="59.75998 65.44348 69.83548 75.29848 81.19198 87.94648 90.84748 96.10048 105.84748 111.10048 113.36148 119.25498 123.64698 128.89998 131.16098 138.12549 144.87999 147.78099 153.034 158.287 162.679 167.932 173.8255 176.7265 179.6275 185.0905 187.3515 192.6045 197.85752 203.54102 206.44202 211.69503 216.94803 223.27204 225.53302 232.49753 239.25203 245.57604 250.82904 255.22104 257.48204 260.38304 267.1375 270.889 276.142 280.534 287.28849 293.18199 296.93348 299.83448 305.51799 312.27247 318.16596 321.06697 323.32795 328.58094 334.26445 340.58845 345.84144 351.09443 354.2054 356.4664 364.0714 369.9649 375.2179 380.4709 386.7949 389.05589 394.73939 401.49388 403.75486 407.50636 414.26084">organisms are universally evolved under international codes. Based on the</tspan><tspan y="-489.36079" x="59.75998 64.27898 69.65897 75.03897 80.41897 90.29297 96.74397 99.77197 105.79247 112.67397 118.05397 123.43397 128.81397 132.66448 138.68498 145.56649 152.01749 155.868 162.319 165.347 170.727 174.6055 177.6335 184.515 189.895 193.7735 197.62401 204.07501 207.10301 210.34102 213.57903 218.95903 223.47803 228.85803 235.73954 241.11954 246.49954 251.87955 255.11756 258.96806 264.34806 270.36857 275.74858 282.63008 286.48057 292.29106 296.81007 302.40007 308.42057 315.30207 318.33009 323.71009 333.58409 337.43458 340.4626 345.8426 349.69309 352.7211 359.1721 364.5521 371.4336 375.3121 378.34013 381.57814 384.60615 389.98616 396.43714 400.28764 406.30815 413.18965">resemblances and distinct differences, each organism is identified and</tspan><tspan y="-474.9608" x="59.75998 65.71609 71.0317 76.34731 79.31092 84.83653 91.65364 96.96925 103.355869 105.679477 111.63558 113.95919 119.2748 125.02091 129.47553 133.93013 139.24575 144.56136 148.37548 150.69908 156.0147 161.3303 164.29392 169.60953 176.42664 180.24076 183.20436 186.37798 189.34159 194.6572 200.8233 207.20992 210.17353 215.91963 218.88324 224.62935 230.15496 233.11856 238.43418 244.39029 247.3539 249.6775 256.49464 262.45075 272.26036 277.57597 279.89958 285.21519 290.9613 300.7709 307.1575 311.61213 314.57575 319.89137 322.85499 329.6721 335.1977 337.5213 341.33543 349.43354 355.17967 357.50328 365.60139 371.3475 375.80213 382.18873 387.50434 389.82795 395.78407 401.09968 403.42329 409.80989 415.1255">assigned a correct scientific/biological name comprising two words as per</tspan><tspan y="-460.32078" x="59.75998 63.525979 70.294979 75.56248 77.83798 84.17648 87.09198 93.86098 99.558979 109.32047 112.23597 118.14397 121.05946 123.33497 128.60247 134.07996 139.34746 143.11347 148.38097 158.14247 160.41797 166.11597 169.24147 171.51697 178.28597 183.98397 193.74547 199.01297 205.78197 211.04947 213.96497 219.87297 223.63898 230.61798 235.02448 240.29198 243.41748 245.69298 252.67198 259.44099 261.71647 267.41447 271.82096 277.29847 283.20646 289.97547 292.89097 298.15846 307.91996 310.19544 314.60194 319.86943 326.20793 330.6144 335.8819 341.14939 346.41688 353.18589 356.95188 362.21937 368.33738 374.03538 379.30287 384.57035 391.54936 397.88786 400.80335 406.07084 411.33833 413.6138">the binomial system of nomenclature. An organism represents/occupies a</tspan><tspan y="-445.92079" x="59.75998 66.05258 68.92218 74.78428 80.00588 85.227489 87.457088 93.109188 97.46979 99.69939 105.99199 111.64409 116.86569 119.73529 123.45539 126.32499 131.9771 138.7002 140.9298 143.7994 150.52249 152.75209 156.47219 163.19528 168.41689 170.64649 175.86809 181.29969 186.52129 190.24138 195.46298 205.17859 207.40819 213.06029 216.1399 218.36949 223.5911 226.4607 232.3228 237.5444 242.766 245.6356 248.71521 251.58481 256.8064 262.6685 266.38859 269.25819 274.91029 281.6334 284.71299 286.94258 293.23518 299.95829 305.17988 309.54048 314.76206 316.99165 322.85374 327.21434 332.4359 334.6655 344.3811 350.2432 356.9663 362.39793 364.6275 369.8491 375.71119 379.43128 384.65287 390.08448 395.73658 400.09718 402.96678 408.18836 413.40995">place or position in the system of classification. There are many categories/</tspan><tspan y="-431.28077" x="59.75998 64.27839 70.2983 77.179218 83.62962 89.00903 91.401058 99.562969 106.44388 109.47129 114.8507 121.73161 124.123638 130.14354 134.66196 140.04137 142.4334 148.02281 153.40222 160.28313 165.66254 170.18096 176.20087 179.22827 182.25568 187.8451 190.23712 194.75554 200.13495 203.37236 208.75177 213.27019 217.7886 223.16802 229.61843 232.01045 235.88837 241.69828 244.0903 250.11022 255.48963 257.88163 261.75953 267.77943 273.58934 279.39924 286.28016 292.09007 301.96348 304.99089 310.3703 312.7623 318.14173 324.16163 328.03953 333.41896 339.00837 344.81828 349.33668 352.36408 357.7435 363.12294 365.51493 371.32484 375.84324 378.23524 382.11314 388.13304 393.94294 399.96284 403.20024 405.59223 413.52 416.5695">ranks which are generally referred to as taxonomic categories or taxa. All</tspan><tspan y="-416.88078" x="59.75998 63.58709 70.4172 75.74581 78.08242 83.41103 89.38014 93.20725 98.535869 104.07448 109.83359 114.3012 117.27781 122.60642 127.935039 130.27164 135.60025 141.35936 148.18947 153.51808 157.34519 160.3218 164.1489 171.18901 175.01612 180.34473 182.68134 188.65045 190.98706 194.81417 200.78328 206.54239 212.3015 219.1316 224.89072 234.71334 237.68994 243.01856 245.35517 252.18527 255.16188 260.49049 264.9581 270.92723 275.39485 280.72346 287.55357 291.12">the categories constitute a taxonomic hierarchy.</tspan></text>
<text fill="#00aeef" xml:space="preserve" transform="matrix(1 0 -0 1 -18 802.8)" font-size="13" font-family="Bookman,Bold" font-weight="bold"><tspan y="-391.92079" x="219.12">E</tspan></text>
<text fill="#00aeef" xml:space="preserve" transform="matrix(1 0 -0 1 -18 802.8)" font-size="9.1" font-family="Bookman,Bold" font-weight="bold"><tspan y="-391.92079" x="228.95999 235.6935 242.427 249.1605 256.07603 259.35154 265.53904 272.27256">XERCISES</tspan></text>
<text fill="#231f20" xml:space="preserve" transform="matrix(1 0 -0 1 -18 802.8)" font-size="10" font-family="Bookman"><tspan y="-371.28077" x="64.79999 70.441898 83.75999 93.4927 100.17541 105.62812 108.02833 113.89104 118.323749 123.576457 125.97666 128.98937 132.00208 137.25479 140.2675 146.95021 152.40293 154.80313 160.46584 164.89855 170.35126 176.21398 182.89669 185.9094 191.16211 200.69483 205.94754 208.34775 213.60047 216.61318 222.47589 227.7286 232.98133 235.99404 239.20674 242.21945 247.47217 253.74488">1.Why are living organisms classified?</tspan><tspan y="-356.88078" x="64.79999 70.441898 83.75999 93.52859 100.247188 105.73579 108.1789 114.0775 118.5461 123.834697 126.27781 130.13642 136.85501 142.14362 144.58672 149.87532 152.92392 158.82253 164.11113 169.39974 172.44834 175.69693 178.74553 184.03414 189.93274 193.79134 196.83994 202.53853 209.25713 211.70023 216.98883 222.47743 227.76604 231.62464 236.91324 246.48184 251.77045 254.21355 259.50215 266.22074 272.11933 278.83793 284.3265 287.37513 294.09373 299.5823 302.02543 307.31404 312.60264 317.89125 322.35984 327.84843 330.29154 337.01014 342.70875 350.64735 353.09046 358.98905 365.70765 372.01625 374.45936 378.31797 385.03657 390.32518 397.04377">2.Why are the classification systems changing every now and then?</tspan><tspan y="-342.48078" x="64.79999 70.441898 83.75999 93.52847 100.24696 106.145458 110.003948 113.44743 119.75592 122.80441 126.0529 129.30139 134.58988 139.05837 144.34685 151.06534 154.92383 158.36733 163.6558 168.1243 171.17279 175.03128 180.31977 184.78826 187.83675 193.73523 197.17873 205.11722 210.8157 217.73419 220.78269 227.09117 230.53467 236.02317 241.72165 248.64014 252.08364 257.37214 264.0906 269.7891 275.48759 280.77607 286.06455 289.50807 293.36656 299.06504 302.50856 307.79704 310.84553 316.74403 322.0325 327.32099 330.36949 333.61799 339.10649 342.55 348.8585 354.14698 359.84547 366.15397 369.20246 374.49095 377.93446 381.79295 388.5114 394.4099 398.2684 401.7119 407.2004 412.8989">3.What different criteria would you choose to classify people that you</tspan><tspan y="-329.52079" x="83.75999 93.198688 98.35738 103.51608 107.24478 109.56348 115.13218 118.25088 121.979579 127.138278 133.72698">meet often?</tspan><tspan y="-315.1208" x="64.79999 70.441898 83.75999 93.48069 100.15139 106.00209 109.81279 112.2024 118.463108 124.11381 126.50342 134.39412 139.63483 142.02443 145.02513 150.26584 156.11655 160.53725 167.20795 169.59755 172.79825 177.21895 182.86965 192.39035 194.77996 197.78066 204.04135 209.28205 215.95275 219.76345 222.76415 225.96485 228.96555 234.20624 240.05695 243.86765 246.86835 252.51905 259.18977 261.57939 267.23008 270.4308 272.8204 275.8211 282.49183 288.75254 291.75325 296.99394 299.99464 306.25535 313.12605 318.97676 321.97746 327.21815 329.60777 335.45848 342.12916 348.38987 350.77949 357.0402 362.6909 368.9516 375.8223 378.823 384.6737 388.4844 391.4851 397.1358 403.80653 409.0472">4.What do we learn from identification of individuals and populations?</tspan><tspan y="-300.48078" x="64.79999 70.441898 83.75999 91.89969 94.94939 100.23909 105.52879 112.24849 116.05728 122.36698 127.65668 130.70638 136.40608 144.34578 148.15457 151.20427 156.49398 160.30277 164.16246 170.88216 176.17186 179.98065 185.27036 190.56006 193.60976 198.89946 205.61916 209.47885 212.52855 215.77825 218.82794 224.11765 227.92644 234.64614 240.54584 250.11554 255.40525 259.21403 264.91374 268.16343 271.9722 281.3319 287.2316 293.9513 299.44099 305.1407 308.39039 312.19917 316.00794 319.45765 325.76734 331.05705 337.77674 341.63645 344.68617 347.93586 353.42555 357.2343 361.09403 367.81373 373.10343 376.9122 382.2019 387.9016 392.3713 396.841 402.1307 407.4204 411.28013 414.32984">5.Given below is the scientific name of Mango.  Identify the correctly</tspan><tspan y="-287.52079" x="83.75999 91.624 96.01801 98.99202 102.77603 106.56004 111.774059 118.41807 120.792079 127.43609 133.2601 142.7541 147.96811">written name.</tspan></text>
<text fill="#231f20" xml:space="preserve" transform="matrix(1 0 -0 1 -18 802.8)" font-size="10" font-family="Bookman,Italic" font-style="italic"><tspan y="-273.1208" x="83.75999 92.966678 98.77336 105.38005 110.78674 113.793437 117.00012 122.20681 126.6135 132.4202 135.37689 138.78359 145.39028 151.59697 154.60366 159.81035">Mangifera Indica</tspan><tspan y="-258.7208" x="83.75999 92.966678 98.77336 105.38005 110.78674 113.793437 117.00012 122.20681 126.6135 132.4202 135.77689 138.78357 145.39026 151.59696 154.60364 159.81034">Mangifera indica</tspan></text>
<text fill="#231f20" xml:space="preserve" transform="matrix(1 0 -0 1 -18 802.8)" font-size="10" font-family="Bookman"><tspan y="-244.3208" x="64.79999 70.441898 83.75999 91.899379 97.18877 100.438159 103.48755 110.20694 115.49633 118.75072 124.65011 127.904499 131.76389 137.66327 143.36266 149.06204 155.78144 159.03083 162.28522 170.4246 173.474 178.76338 184.05277 187.30716 192.59654 198.29593 207.86533 213.15471 216.4091 221.69849 227.39788 233.29726 242.86666 249.17604 252.22544 257.51484 262.80424 266.05863 271.75804 275.00743 278.2618 282.12123 288.0206 293.72 299.6194 302.87379 308.77317 312.63258 315.88697 322.19636 325.24574 328.49513 331.7445 337.0339 341.5033 346.7927 353.5121 357.37147 360.62586 367.34526 370.39463 375.68403 380.1534 386.0528 390.5222 395.81159 402.53099 405.58036 410.86976 416.76914">6.Define a taxon. Give some examples of taxa at different hierarchical</tspan><tspan y="-231.1208" x="83.75999 86.7277 91.93541 97.14312 102.35083 105.31854 110.52625">levels.</tspan><tspan y="-216.72081" x="64.79999 70.441898 83.75999 91.2688 97.147609 103.84641 106.26414 108.68186 114.15067 119.82948 126.728298 129.14601 132.17482 138.46363 143.73244 150.43125 154.27005 157.29886 160.52767 165.99648 168.41419 172.25299 178.9518 184.22061 186.63832 191.90714 197.58594 202.03475 206.48355 211.75237 217.02118 220.85999 223.2777 228.54651 233.81533 239.69414 246.59294 251.86176 258.56059 263.82939 269.09819 271.5159 277.1947 280.42353 282.84126 286.68006 292.55888 298.23768 303.91648 310.6153 316.2941 325.8429 328.8717 334.1405 340.01933 343.04814 345.46586 350.73466 356.61347 360.45228 365.72108 371.18989 376.86869 381.3175 384.3463 389.6151 394.8839">7.Can  you identify the correct sequence of taxonomical categories?</tspan><tspan y="-202.32082" x="83.75999 86.81588 92.72177 116.87999 123.5159 129.7418 134.94773 140.15363 143.11954 148.32544 203.75998 211.69339 215.9568 222.06021 227.14362 285.83998 291.88456 298.33915 303.56376 306.34837 313.00297 373.19996 380.17057 382.86119 389.22178 394.3524 400.303 405.64363">(a)SpeciesOrderPhylumKingdom</tspan><tspan y="-187.92082" x="83.75995 86.611049 92.722148 116.879947 124.79335 129.85677 136.35018 143.04358 203.75995 210.39586 216.62177 221.82767 227.03357 229.99948 235.20539 285.83998 293.77339 298.03678 304.1402 309.2236 373.19996 380.17057 382.86119 389.22178 394.3524 400.303 405.64363">(b)GenusSpeciesOrderKingdom</tspan><tspan y="-173.52083" x="83.75995 86.76106 92.002178 116.879947 123.515857 129.74176 134.94766 140.15357 143.11948 148.32538 203.75995 211.67336 216.73677 223.23018 229.92359 285.83998 293.77339 298.03678 304.1402 309.2236 373.19996 379.24455 385.69914 390.92375 393.70835 400.36296">(c)SpeciesGenusOrderPhylum</tspan><tspan y="-158.88083" x="64.79996 70.441867 83.75996 89.92846 94.25696 99.60546 101.90037 105.618869 111.17737 113.472278 118.62077 124.179279 127.087779 129.99628 135.14478 140.29328 144.01178 146.3067 152.0652 154.9737 157.88219 160.17711 163.89562 170.47412 175.62262 177.91754 183.06604 189.84455 194.17305 198.50156 203.65006 210.22856 213.94707 216.85556 222.20406 224.49898 230.25748 235.40598 240.55448 245.70298 251.87148 255.58998 260.7385 266.90699 269.20188 278.63038 283.77888 289.53739 296.11589 299.02439 305.60289 310.9514 316.09989 318.39479 321.50328 327.06178 331.39027 333.68516 337.40367 343.98216 349.13066 351.42555 359.22404 364.78254 369.11103 375.2795 377.5744 379.6629 384.8114 390.9799 396.1284 401.2769 404.1854 409.3339 414.4824 416.5709">8.Try to collect all the currently accepted meanings for the word &#x2018;species&#x2019;.</tspan><tspan y="-145.92082" x="83.75996 91.89946 94.94896 100.23846 105.527957 112.44746 117.73695 123.02645 126.68505 134.62456 137.67406 141.53356 148.25305 151.91165 157.40116 163.10065 170.02014 174.48964 178.14824 182.00774 187.29724 193.19675 198.48625 205.20575 210.49526 214.96475 218.62335 222.48285 229.20235 234.49185 238.15045 247.71996 253.00946 258.90898 265.62849 268.67799 275.3975 280.887 284.5456 290.2451 293.4946 297.1532 302.4427 308.7522 314.0417 319.33119 322.38069 327.67018 332.95967 336.61827 339.66777 346.38728 350.04588 355.33537 361.23487 366.52436 371.81385 375.47245 381.17195 384.42146 388.08006 394.79957 397.84907 403.33857 410.05809 415.34757">Discuss with your teacher the meaning of species in case of higher</tspan><tspan y="-132.96082" x="83.75996 90.06415 93.10834 99.002529 105.71671 109.5709 114.85509 117.49017 123.38436 130.09856 136.40274 139.03783 144.93202 151.64621 154.6904 164.2546 170.14879 173.19298 178.47718 181.11226 186.80644 193.52063 196.15572 201.8499 208.56409 213.84828 216.48337 223.19756 229.09175 235.80594 242.11013 245.35431 247.9894 253.88359 260.59779 266.90199 269.53709 275.84129 281.73548 287.01966 290.87385 296.15803 300.62223 303.6664 309.5606 312.1957 317.8899 324.6041 327.2392 331.09339 337.8076 343.09178 345.72688 351.42106 355.27525 361.98945 367.27363 371.73783 374.37294 381.08714 386.98133 393.69554 399.99974">plants and animals on one hand, and bacteria on the other hand.</tspan><tspan y="-118.560817" x="64.79996 70.441867 83.75996 91.84697 97.08398 100.28099 103.278 109.94501 115.182018 117.56904 123.416049 130.08306 136.34006 138.72707 145.59407 152.26108 158.51808 163.7551 168.1721 173.40912 177.21613 183.06314 189.73015 195.98715 198.37416 202.18117 208.84818 214.08519 216.4722 219.6692 225.31621 228.31322 231.31023 236.95723 244.84424 247.84125 254.50826 259.94526 262.33229 266.13929 271.37629 275.7933 285.3103 290.5473">9.Define and understand the following terms:</tspan><tspan y="-104.16081" x="83.75996 86.81045 89.86094 92.91143 95.50423 101.81472 108.53521 114.0257 117.076198 123.99669 133.56719 136.15999 138.75279 141.80329 144.85378 147.90427 150.95476 153.54756 161.07805 164.12854 170.02904 175.31954 180.61003 183.20284 185.79564 188.84613 191.89662 194.94712 197.9976 201.0481 203.6409 210.1514 216.0519 225.62239 228.67288 231.72338 237.21387 239.80667 242.39948 245.44997 248.50046 253.79096 256.84144 259.43424 267.57475 272.04524 278.3557 283.6462 288.1167 290.7095 293.3023 296.35279 301.64329 304.69377 307.28657 315.42707 320.71757 327.43806 334.35856">(i) Phylum  (ii) Class  (iii) Family  (iv) Order  (v) Genus</tspan><tspan y="-89.52081" x="59.759958 65.58136 71.40276 83.75996 87.16536 90.17076 93.17616 100.05156 105.29696 109.11236 113.53776 119.39316 123.20856 128.45397 130.84827 134.66367 141.33907 146.58448 148.97878 152.79418 158.64958 164.30498 169.96038 176.63578 182.29117 191.81658 194.82198 200.06739 205.92279 208.92819 211.3225 217.9979 221.0033 226.2487 230.6741 236.52951 240.95491 246.20032 252.87572 258.3211 260.71543 268.6108 271.6162 275.4316 282.10704 284.50135 289.74674 296.62214 299.62754 303.44294 309.29835 315.56376 318.56916 323.81455 326.20887 331.45426 337.10966 342.96507 352.49046 358.75587 361.76127 367.00666 372.25205 374.64637 380.30177 383.50718 385.9015 391.7569 394.1512 400.41664 403.42204 409.27745 415.95286">10.Illustrate the taxonomical hierarchy with suitable examples of a plant</tspan><tspan y="-76.560817" x="83.75996 89.64757 96.35518 102.65279 105.31541 111.20302 117.91063 120.57325 126.46086 133.16847 136.20609 145.7637 151.6513 154.68892">and an animal.</tspan></text>
<g clip-path="url(#clip_28)">
<path transform="matrix(.22027056,0,0,-.259728,156.57097,599.03189)" stroke-width="3.432" stroke-linecap="butt" stroke-miterlimit="2.613" stroke-linejoin="miter" fill="none" stroke="#231f20" d="M0 0H54.15"/>
<path transform="matrix(.239998,0,0,-.23999778,171.17899,599.03256)" d="M0 0-22.23 11.23C-19.05 3.75-19.05-3.74-22.23-11.23L0 0" fill="#231f20" fill-rule="evenodd"/>
</g>
<g clip-path="url(#clip_29)">
<path transform="matrix(.22027056,0,0,-.259728,155.37096,612.71188)" stroke-width="3.432" stroke-linecap="butt" stroke-miterlimit="2.613" stroke-linejoin="miter" fill="none" stroke="#231f20" d="M0 0H54.15"/>
<path transform="matrix(.239998,0,0,-.23999778,169.97902,612.7125)" d="M0 0-22.23 11.23C-19.05 3.75-19.05-3.74-22.23-11.23L0 0" fill="#231f20" fill-rule="evenodd"/>
</g>
<g clip-path="url(#clip_30)">
<path transform="matrix(.22027056,0,0,-.259728,155.37096,626.39187)" stroke-width="3.432" stroke-linecap="butt" stroke-miterlimit="2.613" stroke-linejoin="miter" fill="none" stroke="#231f20" d="M0 0H54.15"/>
<path transform="matrix(.239998,0,0,-.23999778,169.97902,626.3925)" d="M0 0-22.23 11.23C-19.05 3.75-19.05-3.74-22.23-11.23L0 0" fill="#231f20" fill-rule="evenodd"/>
</g>
<g clip-path="url(#clip_31)">
<path transform="matrix(.21836472,0,0,-.2616336,241.0488,598.7919)" stroke-width="3.40699" stroke-linecap="butt" stroke-miterlimit="2.613" stroke-linejoin="miter" fill="none" stroke="#231f20" d="M0 0H53.76"/>
<path transform="matrix(.2399981,0,0,-.23999782,255.42533,598.7925)" d="M0 0-21.87 11.23C-18.75 3.75-18.75-3.74-21.87-11.23L0 0" fill="#231f20" fill-rule="evenodd"/>
</g>
<g clip-path="url(#clip_32)">
<path transform="matrix(.2138808,0,0,-.2661168,239.84879,612.36099)" stroke-width="3.479" stroke-linecap="butt" stroke-miterlimit="2.613" stroke-linejoin="miter" fill="none" stroke="#231f20" d="M0 0H54.89"/>
<path transform="matrix(.23999994,0,0,-.2399977,254.22534,612.3611)" d="M0 0-21.87 11.66C-18.75 3.89-18.75-3.89-21.87-11.66L0 0" fill="#231f20" fill-rule="evenodd"/>
</g>
<g clip-path="url(#clip_33)">
<path transform="matrix(.21836472,0,0,-.2616336,239.84879,626.1521)" stroke-width="3.40699" stroke-linecap="butt" stroke-miterlimit="2.613" stroke-linejoin="miter" fill="none" stroke="#231f20" d="M0 0H53.75"/>
<path transform="matrix(.2399981,0,0,-.23999782,254.22417,626.15267)" d="M0 0-21.87 11.23C-18.75 3.75-18.75-3.74-21.87-11.23L0 0" fill="#231f20" fill-rule="evenodd"/>
</g>
<g clip-path="url(#clip_34)">
<path transform="matrix(.22027056,0,0,-.259728,328.8912,598.7919)" stroke-width="3.432" stroke-linecap="butt" stroke-miterlimit="2.613" stroke-linejoin="miter" fill="none" stroke="#231f20" d="M0 0H54.15"/>
<path transform="matrix(.239998,0,0,-.23999778,343.5003,598.79257)" d="M0 0-22.23 11.23C-19.05 3.75-19.05-3.74-22.23-11.23L0 0" fill="#231f20" fill-rule="evenodd"/>
</g>
<g clip-path="url(#clip_35)">
<path transform="matrix(.21577992,0,0,-.2642184,327.6912,612.3605)" stroke-width="3.50399" stroke-linecap="butt" stroke-miterlimit="2.613" stroke-linejoin="miter" fill="none" stroke="#231f20" d="M0 0H55.28"/>
<path transform="matrix(.23999904,0,0,-.23999775,342.301,612.36099)" d="M0 0-22.23 11.66C-19.05 3.89-19.05-3.89-22.23-11.66L0 0" fill="#231f20" fill-rule="evenodd"/>
</g>
<g clip-path="url(#clip_36)">
<path transform="matrix(.22027056,0,0,-.259728,327.6912,626.15188)" stroke-width="3.432" stroke-linecap="butt" stroke-miterlimit="2.613" stroke-linejoin="miter" fill="none" stroke="#231f20" d="M0 0H54.15"/>
<path transform="matrix(.239998,0,0,-.23999778,342.30079,626.1525)" d="M0 0-22.23 11.23C-19.05 3.75-19.05-3.74-22.23-11.23L0 0" fill="#231f20" fill-rule="evenodd"/>
</g>
<g clip-path="url(#clip_37)">
<text xml:space="preserve" transform="matrix(1 0 -0 1 259.314 763.99978)" font-size="8" font-family="Arial"><tspan y="6.316" x="0"> </tspan></text>
</g>
</g>
</svg>
