<svg xmlns="http://www.w3.org/2000/svg" xmlns:xlink="http://www.w3.org/1999/xlink" xmlns:inkscape="http://www.inkscape.org/namespaces/inkscape" version="1.1" width="576" height="784.8" viewBox="0 0 576 784.8">
<defs>
<clipPath id="clip_20">
<path transform="matrix(1,0,0,-1,-18,802.8)" d="M18 18H594V802.8H18Z" clip-rule="evenodd"/>
</clipPath>
<clipPath id="clip_21">
<path transform="matrix(1,0,0,-1,259.314,763.99978)" d="M0-8H57.372V.800049H0Z"/>
</clipPath>
</defs>
<g clip-path="url(#clip_20)">
<path transform="matrix(.24,0,0,-.24,-18,802.8)" d="M2 2H2548V214.67H2Z" fill="#cbdf7f" fill-rule="evenodd"/>
<path transform="matrix(.24,0,0,-.24,-18,802.8)" stroke-width="4" stroke-linecap="butt" stroke-miterlimit="1000" stroke-linejoin="miter" fill="none" stroke="#cbdf7f" d="M2 2H2548V214.67H2Z"/>
<path transform="matrix(.24,0,0,-.24,-18,802.8)" d="M0 3035.83H2550V3372.7003H0Z" fill="#d1d3d4" fill-rule="evenodd"/>
<path transform="matrix(.24,0,0,-.24,-18,802.8)" d="M0 3078.33H2550V3420H0Z" fill="#e1ecb6" fill-rule="evenodd"/>
<path transform="matrix(.24,0,0,-.24,62.6362,53.63501)" d="M0 0C7.32 7.32 16.16 10.98 26.52 10.98H97.35C107.71 10.98 116.55 7.32 123.87 0 131.19-7.33 134.85-16.17 134.85-26.52V-101.52C134.85-111.88 131.19-120.72 123.87-128.04 116.55-135.36 107.71-139.02 97.35-139.02H26.52C16.16-139.02 7.32-135.36 0-128.04-7.32-120.72-10.98-111.88-10.98-101.52V-26.52C-10.98-16.17-7.32-7.33 0 0" fill="#ffffff" fill-rule="evenodd"/>
<text fill="#231f20" xml:space="preserve" transform="matrix(1 0 -0 1 -18 802.8)" font-size="11" font-family="Bookman"><tspan y="-729.361" x="87.12">6</tspan></text>
<text fill="#231f20" xml:space="preserve" transform="matrix(1 0 -0 1 -18 802.8)" font-size="11" font-family="Bookman"><tspan y="-729.361" x="513.12">B</tspan></text>
<text fill="#231f20" xml:space="preserve" transform="matrix(1 0 -0 1 -18 802.8)" font-size="7.69999" font-family="Bookman"><tspan y="-729.361" x="521.04 523.4336 529.3692 533.76486 539.70046 545.63607">IOLOGY</tspan></text>
<path transform="matrix(.24,0,0,-.24,-18,.35998536)" stroke-width="1" stroke-linecap="butt" stroke-miterlimit="10" stroke-linejoin="miter" fill="none" stroke="#000000" d="M0 0H60"/>
<path transform="matrix(.24,0,0,-.24,.12000084,-18)" stroke-width="1" stroke-linecap="butt" stroke-miterlimit="10" stroke-linejoin="miter" fill="none" stroke="#000000" d="M0 0V-60"/>
<path transform="matrix(.24,0,0,-.24,-18,784.68)" stroke-width="1" stroke-linecap="butt" stroke-miterlimit="10" stroke-linejoin="miter" fill="none" stroke="#000000" d="M0 0H60"/>
<path transform="matrix(.24,0,0,-.24,.12000084,788.16)" stroke-width="1" stroke-linecap="butt" stroke-miterlimit="10" stroke-linejoin="miter" fill="none" stroke="#000000" d="M0 0V-60"/>
<path transform="matrix(.24,0,0,-.24,593.64,784.56)" stroke-width="1" stroke-linecap="butt" stroke-miterlimit="10" stroke-linejoin="miter" fill="none" stroke="#231f20" d="M0 0V-75"/>
<text fill="#231f20" xml:space="preserve" transform="matrix(1 0 -0 1 -18 802.8)" font-size="10.5" font-family="Bookman"><tspan y="-688.561" x="192 199.105 204.53 209.955 216.43001">used </tspan></text>
<text fill="#231f20" xml:space="preserve" transform="matrix(1 0 -0 1 -18 802.8)" font-size="10.5" font-family="Bookman" font-style="italic"><tspan y="-688.561" x="221.04001 227.80789 234.15578 239.87368 243.49156 249.20946 258.49736 265.05525 269.5031 277.111 283.66889 287.28678 293.84468 298.09257 304.65046">Systema Naturae</tspan></text>
<text fill="#231f20" xml:space="preserve" transform="matrix(1 0 -0 1 -18 802.8)" font-size="10.5" font-family="Bookman"><tspan y="-688.561" x="310.32 314.957 321.0468 326.50663 331.14363 335.13343 342.06324 347.52305 352.16004 356.79704 360.78684 363.93666 367.92646 371.07627 376.53608 381.17308 387.0529 390.4127 395.04969 401.9795 405.1293 410.5891 415.2261 421.7359 428.8757 435.3855 438.5353 441.68513 447.14494 453.23475 457.22456 460.37437 466.25419 473.184 476.5438 481.1808 485.81779 492.32759 499.2574 504.7172 509.3542 514.814 520.27389 526.1537 532.6635 538.12338 542.7604 548.6402"> as the  title of his publication.  The scope of</tspan><tspan y="-674.881" x="192 197.4588 203.1276 208.5864 212.5752 218.034 227.9028 233.99161 237.98041 241.12921 246.58802 252.04682 255.45561 263.6444 269.73323 275.19203 278.6008 281.7496 287.8384 291.8272 297.286 301.90483 305.3136 310.7724 317.7012 320.85 326.9388 331.55763 337.2264 342.6852 349.194 352.60279 356.59159 362.4704 365.87919 369.02799 375.9568 381.4156 384.5644 391.7032 398.21199 403.67079 407.07957 410.22837 416.73716 422.19596 429.12477 433.11357 436.26237 439.62117 442.76997 448.22877 454.31758 458.30638 461.45518 467.33399 474.2628 477.62159 481.03038 487.95918 493.83799 503.7068 509.1656 516.09439 521.55319 524.70199 530.7908 534.7796 541.9184 546.5372">systematics was later enlarged to include identification, nomenclature</tspan><tspan y="-661.19998" x="192 198.52159 205.88318 212.82477 218.29137 224.18296 227.76454 234.28614 240.17772 246.0693 249.6509 253.44249 257.02409 262.91569 269.43727 273.85887 277.44047 283.75205 291.11366 294.90525 300.37184 307.73344 313.83503 319.72663 324.14823 330.03984 340.34144 346.863 351.2846 354.8662 360.7578 366.6494 372.116 376.5376 383.05918 390.00077 395.89237 401.78398 407.25056 410.83216 418.19377 422.61537 428.92695 434.39353 440.9151 446.8067 452.6983 459.0099 466.58149 473.94309 478.3647 483.83128 489.72288 495.61448 501.92607 505.50767 513.0792 517.5008 521.0824 527.394 534.75558 541.27719 546.32876">and classification. Systematics takes into account evolutionary</tspan><tspan y="-647.52096" x="192 196.5445 201.929 205.0035 211.01799 214.9325 218.00699 223.8115 230.666 236.0505 242.90502 245.9795 252.414 257.7985 260.25804 266.69255 272.07704 275.99153 284.10603 289.4905 294.875 301.7295 304.189 309.9935 314.538 320.1325 326.147 333.0015 336.076 341.46049 351.25498 356.63948">relationships between organisms.</tspan></text>
<text fill="#00aeef" xml:space="preserve" transform="matrix(1 0 -0 1 -18 802.8)" font-size="13" font-family="Bookman"><tspan y="-619.19998" x="192 200.2303 204.3006 234">1.2T</tspan></text>
<text fill="#00aeef" xml:space="preserve" transform="matrix(1 0 -0 1 -18 802.8)" font-size="9.1" font-family="Bookman"><tspan y="-619.19998" x="242.4 249.108 256.362 263.798 270.68803 278.12403 286.834 290.63">AXONOMIC</tspan></text>
<text fill="#00aeef" xml:space="preserve" transform="matrix(1 0 -0 1 -18 802.8)" font-size="13" font-family="Bookman"><tspan y="-619.19998" x="297.36 301.18089"> C</tspan></text>
<text fill="#00aeef" xml:space="preserve" transform="matrix(1 0 -0 1 -18 802.8)" font-size="9.1" font-family="Bookman"><tspan y="-619.19998" x="310.8 317.4691 323.95619 330.62528 337.84037 345.23747 352.45256 356.20964 362.87873">ATEGORIES</tspan></text>
<text fill="#231f20" xml:space="preserve" transform="matrix(1 0 -0 1 -18 802.8)" font-size="10.5" font-family="Bookman"><tspan y="-598.08096" x="191.99999 199.74188 202.86379 208.92569 214.35759 219.78949 222.91139 226.24329 229.36519 234.79709 240.859 244.82089 247.9428 253.7947 260.6966 263.1922 266.3141 271.746 274.2416 281.1435 286.9954 290.9573 293.4529 299.5148 302.0104 307.44233 310.5642 317.4661 323.108 326.2299 331.6618 334.1574 339.58934 343.55125 348.98316 355.46507 357.96067 364.44258 369.03446 374.88636 380.31828 385.75019 391.1821 396.614 399.10963 405.59153 412.70344 416.66535 419.16096 422.28285 429.18473 434.61665 440.46855 443.59043 449.02235 454.45426 459.88618 462.38179 469.28367 472.40556 477.83747 482.42936 488.49125 493.08314 498.51506 505.41694 511.05885 513.55447 519.4064 522.7383 525.2339 530.6658 534.6277 540.0596 546.54147">Classification is not a single step process but involves hierarchy of steps</tspan><tspan y="-584.16098" x="191.99999 195.0925 201.96501 204.43183 212.56433 219.43685 222.52936 227.93187 234.80438 237.2712 242.6737 248.70623 254.10874 260.98124 263.44807 268.85057 272.78306 278.18556 284.63807 287.1049 291.6674 297.0699 303.5224 308.0849 313.4874 318.8899 324.2924 331.1649 335.09739 340.49989 342.9667 348.9992 351.46604 356.02854 362.06105 368.93354 375.38606 377.85289 383.67539 388.23789 390.7047 396.1072 402.1397 406.0722 411.4747 417.08723 422.90974 427.47224 433.08476 436.38728 438.8541 441.32093 448.19343 451.28593 458.15843 463.5609 468.9634 471.43025 475.36274 482.23524 487.63774 490.10456 495.50706 501.53956 505.47206 510.87455 516.48709 522.3096 526.8721 532.48458 534.95138 538.0439 543.4464 545.9132">in which each step represents a rank or category.  Since the category is a</tspan><tspan y="-569.99996" x="191.99999 198.2836 204.14722 208.54084 212.30445 214.60477 220.25838 223.39199 225.6923 231.34592 236.57953 241.81314 246.20676 252.07038 254.99399 257.9176 260.21794 263.98155 269.84516 275.49879 281.1524 287.85603 293.50965 303.15327 306.07688 311.3105 313.6108 319.47444 323.86805 328.26167 334.12528 340.8289 346.2725 351.5061 361.14973 366.38334 373.08695 376.85057 379.98417 382.2845 385.2081 388.9717 391.27204 394.19566 399.42927 401.72959 406.9632 412.8268 415.75044 418.67405 423.90766 430.19126 432.49159 436.2552 442.9588 448.1924">part of overall taxonomic arrangement, it is called the </tspan></text>
<text fill="#231f20" xml:space="preserve" transform="matrix(1 0 -0 1 -18 802.8)" font-size="10.5" font-family="Bookman"><tspan y="-569.99996" x="450.47999 454.9665 460.71299 466.6695 472.836 479.6325 485.799 495.9555 499.392 505.1385 507.365 513.1115 518.85806 523.34457 529.09109 534.8376 541.0041 545.4906">taxonomic category</tspan></text>
<text fill="#231f20" xml:space="preserve" transform="matrix(1 0 -0 1 -18 802.8)" font-size="10.5" font-family="Bookman"><tspan y="-556.08096" x="191.99997 198.09087 205.02176 211.53266 214.60186 220.69275 223.84365 226.99454 230.06374 235.52465 241.61554 245.60645 251.06735 256.73826 262.61915 267.24006 270.39097 275.85188 281.31278 284.382 288.3729 294.25379 299.92469 305.3856 309.3765 316.3074 321.7683 326.38923 329.45845 334.91935 340.80024 347.73115 353.19206 357.18296 360.33387 364.32478 371.46568 375.45658 380.91749 383.9867 387.9776 394.9085 400.36943">and all categories together constitute the </tspan></text>
<text fill="#231f20" xml:space="preserve" transform="matrix(1 0 -0 1 -18 802.8)" font-size="10.5" font-family="Bookman"><tspan y="-556.0805" x="403.438 408.2441 414.3102 420.58634 427.07246 434.18858 440.67469 451.1508 454.9069 460.973 464.1691 471.28523 475.04133 481.10743 485.91355 491.97966 496.78578 502.85188 509.968">taxonomic hierarchy</tspan></text>
<text fill="#231f20" xml:space="preserve" transform="matrix(1 0 -0 1 -18 802.8)" font-size="10.5" font-family="Bookman"><tspan y="-556.0805" x="516.48 519.83999 522.89999 525.95999 533.51998 539.61 545.07">.  Each</tspan><tspan y="-542.1605" x="191.99997 197.44037 203.51078 207.48117 212.92157 218.57198 224.43238 229.03278 234.68318 238.02358 240.52828 245.12868 250.56908 253.90947 259.34989 263.9503 268.5507 273.9911 280.48149 282.98619 286.95658 292.817 295.3217 301.3921 306.8325 309.3372 315.4076 317.9123 325.03269 331.94309 335.0735 339.04389 341.54859 347.409 350.7494 353.2541 358.6945 361.8249 367.8953 373.3357 378.7761 381.9065 385.2469 388.3773 393.8177 399.8881 403.8585 406.9889 412.8493 419.7597">category, referred to as a unit of classification,</tspan></text>
<text fill="#231f20" xml:space="preserve" transform="matrix(1 0 -0 1 -18 802.8)" font-size="10.5" font-family="Bookman"><tspan y="-542.1605" x="423.11997"> </tspan></text>
<text fill="#231f20" xml:space="preserve" transform="matrix(1 0 -0 1 -18 802.8)" font-size="10.5" font-family="Bookman"><tspan y="-542.1605" x="425.99998 429.12437 436.02876 438.52568 441.86009 447.92448 453.35887 457.32325 460.65766 463.15458 467.74897 473.18336 479.66777 484.26216 489.69654 495.13093 500.5653 507.4697 511.43409 516.86849 519.3654 525.4298 527.92678 532.5212 538.5856 545.49">in fact, represents a rank</tspan><tspan y="-528.00057" x="191.99997 198.08798 205.01599 211.524 214.14202 217.29003 222.74803 225.36605 230.82405 236.70206 246.57007 256.43809 262.3161 269.2441 272.39213 278.06013 280.67814 284.66615 290.12416 294.74217 304.61018 310.06819 316.57618 319.19419 325.2822 330.7402">and is commonly termed as </tspan></text>
<text fill="#231f20" xml:space="preserve" transform="matrix(1 0 -0 1 -18 802.8)" font-size="10.5" font-family="Bookman"><tspan y="-528.00057" x="333.36 338.24998 344.39997 350.75996 357.32994 364.5299">taxon </tspan></text>
<text fill="#231f20" xml:space="preserve" transform="matrix(1 0 -0 1 -18 802.8)" font-size="10.5" font-family="Bookman"><tspan y="-528.00057" x="366.96 370.104 376.608 379.752 383.10603 386.46003 389.06404 393.04804 399.13206 405.00608 411.0901">(pl.: taxa)</tspan></text>
<text fill="#231f20" xml:space="preserve" transform="matrix(1 0 -0 1 -18 802.8)" font-size="10.5" font-family="Bookman" font-style="italic"><tspan y="-528.00057" x="414.47999">.</tspan></text>
<text fill="#231f20" xml:space="preserve" transform="matrix(1 0 -0 1 -18 802.8)" font-size="10.5" font-family="Bookman"><tspan y="-514.08059" x="209.99999 216.35808 222.29618 228.02428 233.75238 240.53049 246.25859 255.97669 258.9748 264.2829 266.6521 271.9602 277.89833 281.73643 287.04454 292.56263 298.2907 302.75883 305.75694 311.06504 316.37315 318.74235 324.68046 331.45857 337.81666 340.18586 346.96397 349.96208 355.27018 359.73829 365.6764 370.1445 375.4526 382.2307 387.7488 390.118 395.42613 401.36424 408.14234 410.51155 416.86964 422.17774 424.54695 427.54505 430.54316 433.54127 440.52937 445.83747 449.67558 454.14369 460.0818 463.9199 469.228 475.5861 477.9553 484.3134 489.83149 492.20069 498.1388 504.9169 507.2861 512.5942 518.32229 524.2604 533.97848 540.33657 543.33468 548.64279">Taxonomic categories and hierarchy can be illustrated by an example.</tspan><tspan y="-500.16056" x="191.99999 195.5662 202.4924 207.94861 213.40482 218.86103 222.84723 228.30344 232.13744 236.75365 242.20986 248.71607 253.33228 258.78849 264.2447 269.7009 276.6271 280.6133 284.4473 290.5335 294.3675 300.0337 304.6499 310.52613 317.66233 324.16853 328.0025 333.87873 337.23493 341.0689 346.94514 351.56135 357.22755 363.31376 370.23997 373.38618 378.84239 388.7086 394.1648 397.99879 403.455 410.3812 416.4674 421.08363 424.22984 431.15605 436.82225 440.65623 446.11244 451.98866 461.85487 471.72108 477.5973 484.5235 488.35749 491.71369 497.1699 503.2561 507.2423 514.37857 518.99478 524.451 529.9072 533.7412 536.88748 540.0337 546.5399">Insects represent a group of organisms sharing common features like</tspan><tspan y="-486.00056" x="191.99999 195.9863 202.91262 207.52893 212.98525 218.44156 222.07515 228.58147 234.66777 237.81409 242.4304 247.88672 251.52031 257.3966 260.75294 264.38655 267.53285 273.40916 276.55546 283.48176 287.46806 292.92436 299.43067 303.06428 306.21058 311.66688 317.3332 322.7895 326.1458 329.77943 333.41304 336.97935 340.96565 344.59925 354.46556 359.92185 366.00816 372.93446 378.39076 382.02436 385.17066 392.09696 397.55326 403.00956 408.46586 412.45216 417.90846 421.54206 427.62837 432.24467 437.70097 441.33457 445.95088 451.40718 456.86347 462.73979 468.4061 475.3324 478.4787 483.935 490.0213 496.52763 499.67393 505.13023 508.76383 514.22018 520.09646 527.02279 532.47909 537.0954 542.5517 546.538">three pairs of jointed legs.  It means insects are recognisable concrete</tspan><tspan y="-472.08055" x="191.99999 197.87729 204.38459 207.53188 212.98918 218.44649 222.43379 227.8911 230.56922 238.75652 245.68383 248.83112 254.28842 261.21574 263.89384 269.35115 275.43846 282.36576 285.04386 291.55116 297.00846 299.68656 305.14387 308.29118 314.37849 319.8358 325.2931 328.4404 331.7977 334.945 340.4023 346.9096 350.2669 352.945 359.03233 365.95964 372.46693 375.14503 379.13233 386.05964 393.19694 398.65425 401.33235 409.51963 414.97694 419.59425 425.05155 427.72966 433.39695 436.54426 442.00157 447.45887 454.38618 457.06428 463.15159 465.82969 470.447 476.5343 483.4616 489.9689 492.647 498.5243 503.1416 505.8197 511.277 517.3643 521.3516 526.8089 532.4762 538.3535 542.9708 548.6381">objects which can be classified, and thus were given a rank or category.</tspan><tspan y="-458.16053" x="191.99999 199.76969 205.85939 212.7891 217.70429 223.37398 229.25368 236.39337 241.30857 248.23827 254.32798 264.19767 269.65736 274.57255 280.45225 284.44197 291.37165 296.83134 301.45103 306.3662 311.8259 318.9656 324.4253 331.35499 336.27018 341.93989 346.559 352.43 359.561 366.062 371.513 376.4195 382.2905 385.6415 390.548 396.419 401.03999 406.6934 412.76679 419.68019 422.81358 428.25697 438.11036 443.55375 449.20716 454.10606 461.64945 467.09284 476.94624 482.38963 492.243 498.73643 504.1798 508.31999 511.6515 516.53848 522.17996 527.04 532.91 540.04 546.54">Can you name other such groups of organisms? Remember, groups</tspan><tspan y="-444.00053" x="191.99997 196.56539 201.9708 208.42621 212.99163 218.39704 223.80245 229.20786 236.08327 240.01868 242.48778 247.89319 253.9286 257.864 263.2694 268.88484 274.71025 279.27565 284.89106 288.19648 290.6656 293.1347 300.85014 306.88554 310.82096 316.22636 321.84178 327.66719 332.23258 337.848 340.3171 343.62254 350.70796 355.27336 359.20878 366.08418 371.48957 376.05497 378.52409 384.9795 390.3849 397.26029 403.0857 407.02113 412.4265 417.8319 420.30104 424.86643 430.90184 437.77723 444.23265 447.53807 450.00718 452.4763 459.9817 466.0171 471.4225 478.29789 480.767 485.3324 491.3678 498.2432 504.6986 507.16773 512.99319 517.5586">represent category.  Category further denotes rank.  Each rank or </tspan></text>
<text fill="#231f20" xml:space="preserve" transform="matrix(1 0 -0 1 -18 802.8)" font-size="10.5" font-family="Bookman" font-style="italic"><tspan y="-444.00053" x="520.07998 523.80746 530.4749 536.3024 542.12997">taxon</tspan></text>
<text fill="#231f20" xml:space="preserve" transform="matrix(1 0 -0 1 -18 802.8)" font-size="10.5" font-family="Bookman"><tspan y="-444.00053" x="548.63998">,</tspan><tspan y="-430.0805" x="191.99994 195.14904 202.07814 206.80384 210.16294 216.25203 221.71114 225.70024 229.05934 233.78504 238.40413 243.86324 250.37233 254.99143 260.45054 265.90965 271.36875 278.29786 282.28697 287.74607 292.47178 298.56089 303.2866 310.4257 317.3548 320.5039 324.493 329.21873 335.0978 338.4569 343.18263 348.64173 351.79084 357.87995 363.33906 368.79817 371.94728 375.30638 378.45549 383.91459 390.0037 393.9928 397.1419 403.021 409.9501 413.3092 418.0349 424.544 431.4731 436.93223 442.39134 447.85044 452.57615 456.56526 462.65437 468.53346 474.41255 481.34165 487.22074 497.08985 500.23896 505.69807 510.42378 516.0929 520.712 526.59109 533.73019 540.23928 545.69839">in fact, represents a unit of classification. These taxonomic groups/</tspan><tspan y="-416.1605" x="191.99994 197.45835 203.54674 207.53514 212.99355 218.66194 224.54035 229.15876 232.30716 237.76557 243.22397 246.41986 252.50826 257.12666 262.58506 265.78096 272.28935 275.43775 280.89616 284.88456 288.03297 294.96138 300.41978 304.40818 307.60408 314.11247 317.26087 323.13926 326.28767 332.16606 337.83445 340.98286 346.44126 352.52967 355.67808 358.87397 364.33238 371.26078 375.24919 378.39759 382.386 385.5344 390.9928 396.4512 399.6471 405.7355 412.6639 419.1723 422.3682 429.2966 435.175 439.1634 442.35929 452.2277 457.6861 462.3045 467.7629 470.91133 476.5797 479.7756 489.644 495.5224 500.1408 506.6492 513.5776 519.456 522.6044 528.4828 534.1512 537.29959 542.75796 548.8463">categories are distinct biological entities and not merely morphological</tspan><tspan y="-402.0005" x="191.99994 198.02396 203.62796 209.23197 213.78598 219.18 224.784 230.80802 234.73203 240.12604 245.52005">aggregates.</tspan><tspan y="-388.08049" x="209.99994 216.86243 223.30492 229.5374 235.76988 243.05237 249.28485 259.50736 263.00987 268.82237 275.26487 278.76737 284.15757 289.97007 294.31257 301.80506 308.66755 312.17005 317.98255 323.79505 329.18525 335.41773 339.13023 344.52043 350.96293 354.46543 357.96794 363.35813 370.2206 377.5031 383.7356 392.27809 399.56059 404.95079 411.18327 416.15577 422.17826 428.62077 435.90327 439.40577 445.21827 455.44078 461.25328 466.64347 473.92597 480.36848 486.18098 491.99348 497.38368 500.88618 506.69868 513.56118 518.9513 523.29379 529.52627 534.9164 539.25888 546.5413">Taxonomical studies of all known organisms have led to the</tspan><tspan y="-374.16047" x="191.99994 198.42606 203.80217 209.17829 214.5544 217.62052 223.41663 229.84275 239.62886 245.00498 251.85109 255.7572 258.19444 263.99055 267.26667 269.7039 275.08 280.8761 290.6622 300.4483 306.24443 313.0905 315.52775 320.90385 326.90995 330.81605 336.19215 341.77827 347.57438 352.11048 355.17658 360.55268 365.92878 368.366 373.7421 380.79823 386.17433 393.02043 395.45765 401.46376 406.83985 409.27708 415.7032 418.7693 425.6154 431.2015 437.62763 443.42375 453.20985 456.48597 458.9232 465.3493 472.1954 477.78153 480.84764 487.90376 497.68986 500.12709 505.9232 510.4593 512.89657 519.32266 522.38876 527.76486 530.83096 536.20706 539.27316 545.0692">development of common categories such as kingdom, phylum or division</tspan><tspan y="-360.00047" x="191.99994 195.22254 198.65514 204.60774 209.30034 214.41065 220.99324 224.21584 230.37844 237.38103 241.44364 246.97623 250.19882 253.63143 258.74174 264.27433 267.49693 273.65953 279.1921 284.7247 288.1573 293.26759 299.22019 304.07997 310.69496 316.25996 320.15995 323.59623 328.7102 332.14649 338.31278 348.25907 351.48536 354.71165 360.45793 363.8942 369.00819 374.75447 380.29075 387.29704 394.5133 400.0496 405.16358 411.32987 418.33616 424.92247 430.03645 435.57273 442.15904 447.6953 453.2316 456.4579 461.99418 467.53047 470.96675 476.08073 483.297 486.5233 489.74958 494.86357 500.81986 505.43995 511.19136 517.36276 524.37417 527.6055 533.1469 543.0983 548.6397">(for plants), class, order, family, genus and species. All organisms,</tspan><tspan y="-346.08045" x="191.99994 195.14965 202.07935 207.53905 210.68875 217.82845 224.33815 227.48786 234.41756 240.08725 243.49245 247.48215 254.41185 260.29158 265.75126 271.21095 274.61616 277.76585 284.69554 288.10075 292.09046 299.02015 304.47984 307.88505 314.39476 317.54444 323.63414 330.5638 334.55354 337.95875 344.04844 350.97813 357.48783 360.89305 366.98274 373.9124 377.0621 386.9318 393.02149 396.17118 399.5764 406.0861 409.23579 416.16548 421.83518 428.34489 434.22459 444.09428 449.55397 452.95918 459.88887 465.97856 471.43824 476.89793 480.30314 485.76283 492.27253 497.7322 503.1919 506.34159 511.80128 517.261 520.66616 526.75588 532.2156 535.6207 539.6104 546.5401">including those in the plant and animal kingdoms have species as the</tspan><tspan y="-332.16044" x="191.99994 195.14945 201.02895 209.21845 214.67795 220.13745 224.12696 228.99895 234.45845 240.54795 244.53745 249.99695 255.66645 261.54594 266.16545 271.83494 275.19444 280.0664 287.8359 293.7154 301.9049 306.7769 310.7664 317.6959 323.1554 328.02738 334.11689 341.25639 346.71589 352.17539 356.1649 359.3144 365.19389 372.12339 376.99537 382.66487 388.54435 395.68385 400.55583 410.42533 416.51484 422.18434 427.0563 433.1458 438.60533 445.1148 449.9868 453.1363 458.5958 461.9553 466.82728 473.75679 479.63627 487.82579 492.69776 496.68727 502.56675 507.43873 513.94827 517.0977 523.1872 528.64669 534.10617 538.97817 545.0676">lowest category. Now the question you may ask is, how to place an</tspan><tspan y="-318.00044" x="191.99994 197.84714 202.43434 208.07155 214.12876 221.02596 224.14316 229.57036 239.40756 241.89588 245.01308 251.91028 254.39859 259.8258 265.883 270.47019 273.58738 279.43458 286.54179 291.969 294.4573 299.88453 305.9417 309.89894 315.3261 320.96333 326.81053 331.3977 334.5149 339.94209 345.36927 351.00648 353.49479 359.972 366.86918 372.2964 374.7847 381.2619 387.3191 392.74629 395.86347 401.29066 403.77897 408.36616 413.79335 419.85054 426.95774 430.07493 434.6621 440.0893 449.92649 455.3537 462.2509 466.2081 468.6964 471.8136 477.24079 479.7291 483.6863 490.5835 496.01069 498.499 504.9762 511.87339 517.7206 525.8778 528.995 534.4222 540.89938 546.53659">organism in various categories? The basic requirement is the knowledge</tspan><tspan y="-304.0804" x="191.99994 197.87804 201.23613 206.02753 211.48563 218.41373 224.50183 229.11994 235.20804 240.66614 244.65424 250.11234 254.73044 260.18855 264.97993 270.85804 274.21614 279.0075 285.0956 292.0237 296.8151 299.9632 306.8913 313.39939 316.5475 322.00559 325.1537 331.66178 338.79988 344.88798 348.03608 352.82746 358.70558 363.32368 368.11506 373.78315 378.40126 384.27937 391.41746 397.92555 402.71693 408.59504 411.95314 416.7445 422.62263 427.24073 432.9088 438.99693 445.92503 449.07313 454.53123 464.39933 469.85743 473.2155 478.0069 482.79829 489.30638 496.23448 499.38258 504.84068 509.63206 516.5601 522.01828 525.1663 531.67446 537.13259 541.92398 545.072">of characters of an individual or group of organisms.  This helps in</tspan><tspan y="-290.1604" x="191.99994 195.14804 201.65615 207.11425 214.04235 218.03044 221.17855 224.53664 230.20475 233.35285 240.28095 245.94905 249.06964 254.52774 257.67585 267.54396 270.69206 273.84016 279.92826 284.54637 287.69447 291.68257 294.83067 300.28877 305.74687 308.86747 314.95558 321.88368 328.39176 331.51237 338.02046 341.16856 346.62666 352.08476 355.23286 365.10096 368.24906 371.39717 377.48527 382.10337 385.25148 389.23957 392.38768 397.84577 403.30387 406.42448 412.51258 422.38069 428.2588 435.1869 440.85499 443.9756 447.96369 454.89179 460.34989 463.4705 466.6186 473.5467 480.05479 483.20289 488.66099 491.80909 498.31718 505.45527 511.54338 514.69149 520.1496 523.2702 529.1483 532.5064 535.627 539.6151 546.5432">identifying similarities and dissimilarities among the individuals of the</tspan><tspan y="-276.0004" x="191.99994 197.45804 203.54615 213.41425 218.87235 221.51386 228.02196 231.17006 238.09816 244.60626 247.24777 253.12587 256.48399 259.1255 265.0036 269.6217 275.2898 281.3779 288.306 291.4541 296.9122 306.7803">same kind of organisms</tspan></text>
<text fill="#231f20" xml:space="preserve" transform="matrix(1 0 -0 1 -18 802.8)" font-size="10.5" font-family="Bookman"><tspan y="-276.0004" x="312.23796"> </tspan></text>
<text fill="#231f20" xml:space="preserve" transform="matrix(1 0 -0 1 -18 802.8)" font-size="10.5" font-family="Bookman"><tspan y="-276.0004" x="315.11994 321.20674 326.6635 329.29185 337.47865 342.93544 346.0822 349.229 351.85734 357.94413 363.4009 366.02925 371.90605 375.26286 377.89118 383.76799 387.75477 394.68156 400.13835 404.75514 407.38346 413.89027 417.03706 423.96385 430.47065 435.92744 438.55577 444.43257 447.78938 450.4177 456.2945 460.9113 466.5781 472.6649 479.59169 482.73847 488.19526 498.06205 503.51884">as well as of other kinds of organisms.</tspan></text>
<text fill="#00aeef" xml:space="preserve" transform="matrix(1 0 -0 1 -18 802.8)" font-size="12" font-family="Bookman"><tspan y="-250.0804" x="191.99994 200.15995 204.47995 212.63996 216.95996 237.11994 245.19994 253.03993 260.15995 267.27995 271.75996 278.87995">1.2.1Species</tspan></text>
<text fill="#231f20" xml:space="preserve" transform="matrix(1 0 -0 1 -18 802.8)" font-size="10.5" font-family="Bookman"><tspan y="-231.6004" x="191.99994 198.69783 204.97573 211.04361 217.1115 224.22939 230.29727 240.35517 243.69306 249.34095 254.56385 260.21174 264.38963 271.7175 278.41539 281.75328 287.40116 293.04905 298.2719 303.9198 309.9877 317.1056 322.75349 326.09138 332.78926 338.43714 343.24504 348.4679 354.7458 359.96867 365.82655 370.63444 376.70234 384.0302 390.7281 395.95097 402.01887 405.56675 410.7896 414.1275 421.2454 427.94328 431.28117 436.92906 440.26695 446.9648 454.2927 460.5706 463.90849 469.13136 475.19926 480.00715 485.86503 492.1429 499.2608 502.5987 508.24659 518.30447 523.95236 529.17526 537.5531 540.891 545.0689">Taxonomic studies consider a group of individual organisms with</tspan><tspan y="-217.6804" x="191.99994 195.26064 202.30133 209.13204 215.54274 221.53345 231.30416 236.66486 243.49556 247.38626 253.37697 256.42768 258.8634 264.2241 267.27479 277.04548 280.09617 283.14686 289.13755 293.65824 296.70893 300.5996 303.6503 309.011 314.37168 316.8074 322.7981 328.15879 330.5945 336.5852">fundamental similarities as a </tspan></text>
<text fill="#231f20" xml:space="preserve" transform="matrix(1 0 -0 1 -18 802.8)" font-size="10.5" font-family="Bookman"><tspan y="-217.6804" x="338.87995 344.28495 350.94996 356.98497 363.01997 366.74497 372.77998">species</tspan></text>
<text fill="#231f20" xml:space="preserve" transform="matrix(1 0 -0 1 -18 802.8)" font-size="10.5" font-family="Bookman"><tspan y="-217.6804" x="378.23994 381.49504 383.90733 386.3196 394.61473 401.43983 406.79493 409.2072 414.56233 421.38743 427.1625 434.1976 437.2427 443.6478 446.0601 452.46519 457.82029 460.23258 466.21769 472.62278 475.66789 481.02299 483.43528 487.32038 493.09547 495.50776 501.91285 504.95796 510.31306 514.1981 517.2432 524.0683 529.6334 536.6685 539.7136 545.0687">.  One should be able to distinguish</tspan><tspan y="-203.7604" x="191.99993 197.87693 204.80393 210.26093 213.31792 218.77492 225.28192 230.73892 236.19593 239.34293 244.79993 250.25693 253.31392 256.67094 261.28794 267.16496 277.03196 280.08897 284.07597 291.00297 296.45997 299.51698 305.39399 309.38099 316.30799 321.76499 326.382 329.439 334.896 338.043 343.92 349.377 354.834 357.98103 363.648 366.70503 371.32203 376.77903 379.92604 386.01304 390.00004 395.45704 401.96403 405.02104 410.47804 416.98503 422.44203 427.89903 431.04603 436.50303 441.96003 445.01704 451.52403 457.61103 463.06803 468.52503 475.032 478.08903 483.96604 490.89305 493.95005 497.93705 504.86405 510.32106 513.37808 519.8851 523.03207 528.489 532.476 535.623 542.55 548.00698">one species from the other closely related species based on the distinct</tspan><tspan y="-189.6004" x="191.99993 201.86394 207.73795 212.35196 218.85597 225.77999 231.65399 234.798 240.67201 246.33603 249.48004 254.93405 261.01808 264.16209 267.8361 274.3401 277.4841 280.8381 284.1921 289.64613 294.26014 299.71415 306.63816 312.09217 317.54618 323.00019 326.3542 330.0282 336.3222 341.7762 345.76023 349.43424 356.56825 362.02226 365.69627 371.15028 377.0243 383.9483 389.4023 392.54634 399.05033 404.50434 409.11836">morphological differences. Let us consider </tspan></text>
<text fill="#231f20" xml:space="preserve" transform="matrix(1 0 -0 1 -18 802.8)" font-size="10.5" font-family="Bookman" font-style="italic"><tspan y="-189.6004" x="412.79994 421.8926 428.4653 435.038 440.98069 443.98338 447.61607 453.34877 457.61146 464.18415 467.74684 470.7495 477.3222 484.1049 487.10758 492.21028">Mangifera indica</tspan></text>
<text fill="#231f20" xml:space="preserve" transform="matrix(1 0 -0 1 -18 802.8)" font-size="10.5" font-family="Bookman"><tspan y="-189.6004" x="498.95994 502.20994">, </tspan></text>
<text fill="#231f20" xml:space="preserve" transform="matrix(1 0 -0 1 -18 802.8)" font-size="10.5" font-family="Bookman" font-style="italic"><tspan y="-189.6004" x="505.91993 512.9699 518.9699 522.2399 529.07998 535.92 542.76">Solanum</tspan><tspan y="-175.6804" x="191.99991 195.8877 202.71549 209.33329 215.32108 219.83887 225.82666 231.81446 238.64225 248.20003">tuberosum </tspan></text>
<text fill="#231f20" xml:space="preserve" transform="matrix(1 0 -0 1 -18 802.8)" font-size="10.5" font-family="Bookman"><tspan y="-175.6804" x="250.79991 253.9624 260.4849 266.37739 270.37989 276.48237 280.48487 286.37736 289.53984 292.31233 298.4148 305.3573 311.8798">(potato) and </tspan></text>
<text fill="#231f20" xml:space="preserve" transform="matrix(1 0 -0 1 -18 802.8)" font-size="10.5" font-family="Bookman" font-style="italic"><tspan y="-175.6804" x="314.63993 321.0472 327.6645 334.28178 337.95906 344.57633 350.3536 354.6609 361.27818 363.98548 367.03279 372.81007">Panthera leo</tspan></text>
<text fill="#231f20" xml:space="preserve" transform="matrix(1 0 -0 1 -18 802.8)" font-size="10.5" font-family="Bookman"><tspan y="-175.6804" x="378.47993 381.24455 384.39076 387.53697 390.68318 396.5594 403.4856 406.6318 409.988 412.75263 419.88883 423.03504 426.18125 428.94587 432.93208 439.85829 445.31449 448.0791 452.0653 458.99153 463.60774 469.06394 474.52015 477.28477 484.21098 490.29719 500.1634 505.6196 511.0758 514.432"> (lion). All the three names, </tspan></text>
<text fill="#231f20" xml:space="preserve" transform="matrix(1 0 -0 1 -18 802.8)" font-size="10.5" font-family="Bookman" font-style="italic"><tspan y="-175.6804" x="517.43997 520.50497 527.13998 533.9849 537.0499 542.2149 548.8499">indica,</tspan><tspan y="-161.7604" x="191.99994 195.86214 202.66434 209.25653 215.21874 219.71094 225.67314 231.63535 238.43755 247.96974">tuberosum </tspan></text>
<text fill="#231f20" xml:space="preserve" transform="matrix(1 0 -0 1 -18 802.8)" font-size="10.5" font-family="Bookman"><tspan y="-161.7604" x="250.31995 256.34327 263.20658 269.64988">and </tspan></text>
<text fill="#231f20" xml:space="preserve" transform="matrix(1 0 -0 1 -18 802.8)" font-size="10.5" font-family="Bookman" font-style="italic"><tspan y="-161.7604" x="272.15995 275.20994 280.98994 286.76994">leo,</tspan></text>
<text fill="#231f20" xml:space="preserve" transform="matrix(1 0 -0 1 -18 802.8)" font-size="10.5" font-family="Bookman"><tspan y="-161.7604" x="289.91996 292.39427 296.97297 302.39167 308.86036 313.43907 318.85777 324.27647 329.69517 336.58387 340.53257 343.00688 346.95558 353.84428 359.26298 361.73728 367.15599 373.62467 379.04338 384.46208 387.57078 390.88948 393.99818 399.41688 401.89118 407.30989 413.77857 416.88728 420.83598 427.72468 433.14338 437.09208 442.51078 445.82948 448.30378 450.77809 458.9268 465.8155 468.9242 472.0329 477.4516 479.9259 483.8746 490.7633 496.182 498.6563 501.975 505.0837 509.6624 515.0811 519.02987 521.50418 529.65286 535.4915 540.0702 546.5389"> represent the specific epithets,  while the first words</tspan></text>
<text fill="#231f20" xml:space="preserve" transform="matrix(1 0 -0 1 -18 802.8)" font-size="10.5" font-family="Bookman" font-style="italic"><tspan y="-147.6004" x="191.99996 201.17935 207.83875 214.49814 220.52753 223.61692 227.3363 233.1557 237.5051 244.16449 247.46389 251.11328 257.98268 263.80207 266.89146 273.55085 280.21025 286.86964 296.25904">Mangifera, Solanum </tspan></text>
<text fill="#231f20" xml:space="preserve" transform="matrix(1 0 -0 1 -18 802.8)" font-size="10.5" font-family="Bookman"><tspan y="-147.6004" x="299.75996 305.86326 312.80656 319.32984">and </tspan></text>
<text fill="#231f20" xml:space="preserve" transform="matrix(1 0 -0 1 -18 802.8)" font-size="10.5" font-family="Bookman" font-style="italic"><tspan y="-147.6004" x="323.03996 329.47996 336.12995 342.77995 346.48994 353.13993 358.94993 363.28993 369.9399">Panthera </tspan></text>
<text fill="#231f20" xml:space="preserve" transform="matrix(1 0 -0 1 -18 802.8)" font-size="10.5" font-family="Bookman"><tspan y="-147.6004" x="373.43995 379.52586 384.14176 389.59767 393.31605 398.98194 404.43785 411.36375 416.81965 421.43556 427.52146 431.23985 437.32575 444.25166 450.75755 454.47593 459.09184 464.54774 471.05363 475.66954 481.12544 486.58134 492.03724 498.96315 502.94905 508.40495 512.12338 518.2092 525.13516 531.01107 534.99697 541.92288 547.3787">are genera and represents another</tspan><tspan y="-133.6804" x="191.99994 198.87654 201.97315 207.58975 214.46636 219.87296 224.43956 226.90776 230.00437 235.41097 240.81757 246.22417 249.32077 251.78897 257.61558 260.92219 263.3904 267.32704 273.36363 279.19023 285.0168 291.8934 294.36164 300.18824 304.75483 307.22306 312.62965 318.66624 322.60285 328.00944 333.62605 339.45265 344.01924 349.63584 352.94245 355.41069 362.91728 368.95387 374.36045 381.23704 383.70527 389.32188 394.72846 401.60505 408.69166 414.09825 416.56648 426.38307 432.41966 438.03627 440.5045 447.38108 453.41767 458.82426 464.23085 466.69908 472.52568 479.40226 484.80885 487.27708 493.10368 497.67027 500.1385 509.95509 515.7817 520.34829 525.7549 528.2231 532.15969 539.03628 545.0729">higher level of taxon or category. Each genus may have one or more than</tspan><tspan y="-119.76041" x="191.99994 198.06513 205.18032 210.8255 216.0492 221.69438 228.38957 234.03476 239.67995 243.01514 246.56034 249.89553 255.54071 260.7644 266.4096 273.1048 276.44 280.6152 287.7304 293.3756 297.5508 303.196 308.4197 313.22489 318.8701 325.56529 330.37046 336.01567 341.66087 347.30607 354.42127 358.59648 361.93168 369.04689 374.90208 380.12577 386.82096 390.15617 393.70137 397.24656 402.89176 407.69694 413.34214 420.45735 424.63255 429.85624 435.92143 440.7266 446.5818 452.85697 459.97218 463.30738 468.95259 479.00776 484.65296 488.19816 493.42185 500.11705 507.44224 511.61744 516.84109 523.95626 530.23147 535.87667 539.21188 546.327">one specific epithets representing different organisms, but having</tspan><tspan y="-105.6004" x="191.99994 201.85326 207.71657 212.31989 218.8132 225.72652 231.58983 234.72315 240.58646 246.23976 249.37308 254.81639 260.8897 264.023 266.53306 271.97636 275.10966 284.96296 288.09626 291.22956 297.30287 301.90617 305.03947 309.01277 312.14607 317.58937 323.03266 326.37599 328.88603 331.39607 338.09938 343.96269 348.56599 351.07603 356.51933 362.38264 368.45594 378.30924 384.80256 387.93586 393.37916 396.72248 399.2325">morphological similarities.  For example,  </tspan></text>
<text fill="#231f20" xml:space="preserve" transform="matrix(1 0 -0 1 -18 802.8)" font-size="10.5" font-family="Bookman" font-style="italic"><tspan y="-105.6004" x="401.75996 408.19364 414.8373 421.481 425.1847 431.82838 437.63206 441.96574 448.6094">Panthera </tspan></text>
<text fill="#231f20" xml:space="preserve" transform="matrix(1 0 -0 1 -18 802.8)" font-size="10.5" font-family="Bookman"><tspan y="-105.6004" x="450.95997 457.87046 463.94096 469.38145 471.87196 477.94245 484.85295 490.71345 494.68394 501.59443 507.0349 511.6354 514.1259 519.5664 526.0569 531.4974 536.93789 540.06838 543.4089 546.53939">has another specific</tspan><tspan y="-91.680408" x="191.99997 197.49286 204.03575 207.21865 211.24153 218.20442 223.69731 227.7202 232.78809 238.28098 244.40387 247.58676 250.76966 256.26255 262.80543">epithet called </tspan></text>
<text fill="#231f20" xml:space="preserve" transform="matrix(1 0 -0 1 -18 802.8)" font-size="10.5" font-family="Bookman" font-style="italic"><tspan y="-91.680408" x="267.83998 271.60197 274.73396 280.80595 285.19795 288.32994">tigris</tspan></text>
<text fill="#231f20" xml:space="preserve" transform="matrix(1 0 -0 1 -18 802.8)" font-size="10.5" font-family="Bookman"><tspan y="-91.680408" x="294.23997 299.31495 305.44496 312.41496 318.96495"> and </tspan></text>
<text fill="#231f20" xml:space="preserve" transform="matrix(1 0 -0 1 -18 802.8)" font-size="10.5" font-family="Bookman" font-style="italic"><tspan y="-91.680408" x="323.99998 331.08998 337.12995 340.43995 347.31996 354.19996 361.07997">Solanum</tspan></text>
<text fill="#231f20" xml:space="preserve" transform="matrix(1 0 -0 1 -18 802.8)" font-size="10.5" font-family="Bookman"><tspan y="-91.680408" x="370.31999 375.38456 378.56416 385.52375 391.01335 394.19294 401.36253 407.90214 413.39173 418.88133 423.9459 429.4355 435.9751 441.4647 446.95429 450.13389 455.62348 461.11308 466.17765 469.35725 472.53684 479.07646 484.56605"> includes species like </tspan></text>
<text fill="#231f20" xml:space="preserve" transform="matrix(1 0 -0 1 -18 802.8)" font-size="10.5" font-family="Bookman" font-style="italic"><tspan y="-91.680408" x="489.59999 496.54197 499.91398 506.22599 510.85798 517.8">nigrum</tspan></text>
<text fill="#231f20" xml:space="preserve" transform="matrix(1 0 -0 1 -18 802.8)" font-size="10.5" font-family="Bookman"><tspan y="-91.680408" x="527.27999 532.38339 538.5167 545.4901"> and</tspan></text>
<g clip-path="url(#clip_21)">
<text xml:space="preserve" transform="matrix(1 0 -0 1 259.314 763.99978)" font-size="8" font-family="Arial"><tspan y="6.316" x="0"> </tspan></text>
</g>
</g>
</svg>
